<?xml version="1.0" encoding="utf-8"?>
<!-- Generator: Adobe Illustrator 26.0.3, SVG Export Plug-In . SVG Version: 6.00 Build 0)  -->
<svg version="1.1" id="Layer_1" xmlns="http://www.w3.org/2000/svg" xmlns:xlink="http://www.w3.org/1999/xlink" x="0px" y="0px"
	 viewBox="0 0 384 400" style="enable-background:new 0 0 384 400;" xml:space="preserve">
<style type="text/css">
	.eyes-st0{fill:#1F1916;}
	.eyes-st1{fill:#B0B0B0;}
</style>
<g>
	<path class="eyes-st0" d="M85.3,171.5c-7.7,1.9-14.7,43.4-8.5,52.1c6.1,8.6,48.7,12,57.1,4.2c6.7-6.2,11.2-48.1,8.6-52.1
		C138.5,169.6,102.7,167.2,85.3,171.5z"/>
	<path class="eyes-st0" d="M162.5,173c-9.3,1.8-12.6,45.8-5.2,54c7.4,8.2,60.8,8.9,70.7,1.3c9.8-7.6,11.5-43.4,6.1-48.9
		S183.4,168.9,162.5,173z"/>
	<polygon class="eyes-st0" points="123.7,198.8 170.8,198 172.6,181.4 133.5,180.7 	"/>
	<path class="eyes-st0" d="M75.7,173.7c0,0-5.2,11.4-3.8,12.6c1.4,1.2,10.2,5.3,10.2,5.3l9.3-20.7C91.4,170.9,80.7,169.3,75.7,173.7z"/>
	<path class="eyes-st1" d="M108.9,191.3c-18.9,0.7,7-17.7,7-17.7h-11c0,0-19.8,20-13.2,23.8c6.5,3.8,17.5-3.6,22-1.3
		c4.5,2.2-34.2,25.2-31.2,26c11.9,3.1,6.5,5.6,29.4-10.1S127.8,190.6,108.9,191.3z"/>
	<path class="eyes-st1" d="M200.1,194c-18.9,0.7,7-17.7,7-17.7h-11c0,0-19.8,20-13.2,23.8c6.5,3.8,17.5-3.6,22-1.3
		c4.5,2.2-34.2,25.2-31.2,26c11.9,3.1,6.5,5.6,29.4-10.1C225.9,198.9,218.9,193.3,200.1,194z"/>
	<path class="eyes-st0" d="M233.7,192.6c0,0-11,20.4-0.9,14.1c10.1-6.3,45.1-0.7,45.1-0.7s5.6-8.1,2-12.8
		C276.4,188.6,234.4,192.6,233.7,192.6z"/>
</g>
</svg>
