<?xml version="1.0" encoding="utf-8"?>
<!-- Generator: Adobe Illustrator 26.0.3, SVG Export Plug-In . SVG Version: 6.00 Build 0)  -->
<svg version="1.1" id="Layer_1" xmlns="http://www.w3.org/2000/svg" xmlns:xlink="http://www.w3.org/1999/xlink" x="0px" y="0px"
	 viewBox="0 0 384 400" style="enable-background:new 0 0 384 400;" xml:space="preserve">
<style type="text/css">
	.eyes-st0{fill:#E8930F;}
	.eyes-st1{opacity:0.5;}
	.eyes-st2{fill:#BDFFFF;}
	.eyes-st3{opacity:0.4;}
	.eyes-st4{fill:#FFFFFF;}
	.eyes-st5{fill:#1F1916;}
</style>
<g>
	<path d="M232.5,209.7l45.8-1.8l3.7-22.6l-47.3-19L232.5,209.7z M239.4,173.6l37.1,14.9l-2.4,14.6l-36.2,1.5L239.4,173.6z"/>
	<polygon class="eyes-st0" points="237.4,207.1 278.4,205.5 281.5,186.9 239.3,169.9 	"/>
	<path d="M250.4,158.8c-4.2-3.6-8.3-7.3-11.4-10.2c-2-1.8-4.5-3.1-7.2-3.5c-17.4-3.1-52.6-4.5-59.8-2.9c-6.6,1.5-11,6.5-16.7,12.8
		c-1.1,1.2-2.9,3.2-4.6,5c-1.4-1.4-2.9-2.9-4.1-4.1c-8.7-8.8-16.2-16.4-26.1-16.4c-2.3,0-7,0-45.1,8.3c-13.9,3-23.1,16.4-21.1,30.4
		l0.7,4.7c8.3,56.9,12,71.6,26.8,73.7c5.3,0.8,45.6,1.1,53.2-2.7c3.6-1.8,5.8-4.6,8.3-7.9c2.6,4,6.1,8.4,11.6,10.6
		c1.2,0.5,32.2,4.8,53.5,4.8l2.4,0c0.7,0,1.4,0,2.1,0c9.1,0,14.5-0.4,20.4-6.5c17.5-18.2,22.9-68.9,22.1-86
		C255.3,165.2,253.4,161.4,250.4,158.8z M143.2,230.8c-0.6,0.7-1.2,1.4-1.6,1.9c-2,2.5-3.5,4.2-5.8,5.3c-5.1,2.3-38.8,2.3-43.4,1.7
		c-8.5-1.1-11.7-7.5-19.1-53.1l-0.6-3.7c-1.4-8.5,5-16.6,14.5-18.4c32.5-6.3,36.5-6.3,38-6.3c6.6,0,12.5,5.3,19.3,11.4
		c1.4,1.2,3.4,3.1,5.2,4.6l1.6,1.3l1.6-1.4c2-1.7,4.3-4,5.7-5.4c4.6-4.7,7.7-7.8,12-8.6c5.1-1,34.9-0.1,49.9,2.2
		c1.5,0.2,2.9,0.8,4,1.7c2.7,2.2,6.3,5.1,10,7.9c1.6,1.2,2.5,2.9,2.6,4.7c0.6,12.2-3.9,50.1-17.7,62.9c-4.1,3.8-7.6,3.8-16.1,3.7
		l-2.1,0c-17.6,0-42.2-3.1-44.7-3.5c-4.1-1.5-6.6-4.9-9.2-8.8l-1.8-2.7L143.2,230.8z M229.7,251.7c-4.8,5-8.9,5-18.9,5l-2.4,0
		c-20.5,0-49-4-51.8-4.5c-4.9-2-7.9-6.5-10.9-11.6l-1.7-2.9c0.3-0.4,0.6-0.8,1-1.1c2.3,3.1,5.3,6.3,10,8c1.1,0.4,27.9,3.7,46.2,3.7
		l2.1,0c9,0,14,0,19.5-5.1c15.5-14.3,20-53.1,19.3-66.8c-0.2-3.3-1.8-6.3-4.6-8.4c-3.6-2.8-7.2-5.7-9.9-7.8c-1.8-1.4-4-2.4-6.3-2.8
		c-15.1-2.4-45.4-3.4-51.6-2.2c-5.7,1.1-9.6,5-14.5,10c-1,1-2.4,2.4-3.8,3.7c-1.2-1.1-2.5-2.2-3.4-3c-7.6-6.8-14.1-12.7-22.6-12.7
		c-2,0-6,0-39,6.4c-12.2,2.4-20.3,13-18.5,24.2l0.6,3.7c7.2,44.2,10.5,55.6,23.4,57.3c3.6,0.5,39.2,0.9,46-2.1
		c1.8-0.8,3.1-1.8,4.4-3l-0.6,0.8c-0.7,0.9-1.4,1.8-1.8,2.4c-2.4,3.2-4.1,5.6-6.9,7c-5.9,3-45,3-50.3,2.3
		c-10.1-1.4-13.8-9.8-22.5-69.5l-0.7-4.7c-1.7-11.5,5.9-22.4,17.2-24.8c37.6-8.2,42.3-8.2,44-8.2c7.8,0,14.6,6.9,22.5,14.9
		c1.7,1.7,4,4,6,5.9l1.7,1.6l1.7-1.6c2.3-2.2,5-5.3,6.5-7c5.4-6.1,9-10.2,14-11.3c5.9-1.3,40.5-0.2,57.8,2.9
		c1.8,0.3,3.4,1.1,4.7,2.3c3.1,2.9,7.3,6.6,11.5,10.2c2,1.7,3.2,4.2,3.3,6.8h0C251.2,185.4,245.9,234.9,229.7,251.7z"/>
	<g class="eyes-st1">
		<path class="eyes-st2" d="M89.4,166.7c-10.5,1.9-17.4,10-15.9,18.7l0.6,3.2c1.8,10,3.3,18,4.8,24.3c3.4-2.7,6.8-5.4,10.2-8
			c16.8-12.9,34.1-25.2,50.3-38.7c-4.2-3-8.4-5.1-13.1-5.1C124.7,161.2,120.8,161.2,89.4,166.7z"/>
	</g>
	<g class="eyes-st1">
		<path class="eyes-st2" d="M112.4,224.7c-5.4,4.1-10.8,8.2-16.1,12.4c3.7,0.2,11.8,0.3,19.9,0.1c6.8-6.1,13.6-12.3,20.3-18.5
			c18.3-16.8,36.5-33.8,54.5-50.9c1.7-1.6,3.4-3.2,5.1-4.8c-2.8-0.1-5.6-0.3-8.3-0.3C165.2,186.2,138.4,205.1,112.4,224.7z"/>
	</g>
	<g class="eyes-st1">
		<path class="eyes-st2" d="M232.8,173.7c-0.7-0.5-1.4-1-2-1.5c-21.8,22.6-46.5,43.1-68.8,63.7c-0.6,0.5-1.2,1.1-1.8,1.6
			c1.3,0.1,3,0.3,4.8,0.5c23-14.4,46.4-27.9,70-41.3c1.1-7.1,1.4-13.5,1.2-17.3C236.1,177.2,234.8,175.2,232.8,173.7z"/>
	</g>
	<path class="eyes-st0" d="M248.8,160.7c-3.9-3.3-7.7-6.8-11.5-10.2c-1.7-1.5-3.7-2.5-6-2.9c-16.9-3-52-4.4-58.8-2.9
		c-5.8,1.3-9.8,5.8-15.3,12.1c-1.7,1.9-4.3,4.8-6.4,6.9c-2-1.8-4.3-4.1-5.9-5.8c-8.3-8.4-15.5-15.7-24.3-15.7c-2,0-6.7,0-44.6,8.3
		c-12.6,2.7-21,14.9-19.1,27.6l0.7,4.7c8.6,59.1,12.3,69.9,24.6,71.6c5.1,0.7,45,0.9,51.8-2.5c3.3-1.7,5.3-4.3,7.8-7.7
		c0.4-0.6,1.1-1.4,1.8-2.3c2.9,4.9,6.3,10.3,12.4,12.7c0.4,0.1,30.7,4.6,52.5,4.6c11.8,0,17.1,0.5,23.1-5.7
		c17-17.6,22.2-67.3,21.4-84.2C252.8,166,251.3,162.9,248.8,160.7z M221,241.3c-5.2,4.8-9.8,4.4-19.9,4.4c-18.9,0-45-3.4-45.4-3.5
		c-5.2-1.9-8.1-6-10.7-9.8c-0.6,0.7-1.1,1.4-1.5,1.8c-2.2,2.6-3.9,4.7-6.7,6c-5.9,2.6-40.3,2.5-44.7,1.9
		c-10.6-1.4-13.8-9.6-21.3-55.2l-0.6-3.7c-1.6-9.8,5.6-19.2,16.5-21.3c32.7-6.4,36.7-6.4,38.5-6.4c7.6,0,13.8,5.6,21,12.1
		c1.4,1.3,3.4,3.1,5.1,4.5c1.8-1.6,4.1-3.9,5.5-5.3c4.8-4.8,8.2-8.3,13.2-9.3c5.9-1.2,36.2-0.1,50.8,2.2c1.9,0.3,3.7,1.1,5.2,2.3
		c3.3,2.7,6.6,5.3,9.9,7.9c2.2,1.7,3.5,4,3.6,6.6C240.2,189.4,235.7,227.8,221,241.3z"/>
	<g class="eyes-st1">
		<path class="eyes-st2" d="M239.1,168.3c-3.5-2.7-6.9-5.5-10.3-8.3c-1.5-1.2-3.4-2.1-5.4-2.4c-15.1-2.4-46.7-3.6-52.8-2.3
			c-5.2,1-8.8,4.7-13.8,9.8c-1.5,1.5-3.8,3.9-5.7,5.6c-1.8-1.5-3.8-3.4-5.3-4.7c-7.5-6.8-13.9-12.7-21.8-12.7c-1.8,0-6,0-40,6.7
			c-11.3,2.2-18.8,12.1-17.2,22.4l0.6,3.8c7.7,48,11.1,56.7,22.1,58.1c4.5,0.6,40.3,0.7,46.4-2c3-1.4,4.8-3.5,7-6.3
			c0.4-0.5,1-1.2,1.6-1.9c2.6,4,5.7,8.3,11.1,10.3c0.3,0.1,27.5,3.7,47.1,3.7c10.6,0,15.3,0.4,20.7-4.6
			c15.2-14.3,19.9-54.6,19.2-68.3C242.7,172.5,241.4,170,239.1,168.3z"/>
	</g>
	<path class="eyes-st3" d="M249,167.1c-3.7-3.1-7.4-6.3-11-9.5c-1.6-1.4-3.6-2.4-5.7-2.7c-16.2-2.8-53.4-4.1-59.9-2.7
		c-5.6,1.2-9.4,5.4-14.7,11.3c-1.6,1.8-4.1,4.5-6.2,6.4c-1.9-1.7-4.1-3.9-5.7-5.4c-8-7.9-14.9-14.7-23.3-14.7c-1.9,0-3,0-39.4,7.7
		c-12.1,2.6-20.2,13.9-18.4,25.9l0.7,4.4c8.3,55.3,11.7,55.4,23.6,57.1c0.4,0.1,1.1,0.1,2,0.2c0.2-0.1,0.4-0.2,0.6-0.4
		c-8.4-2.6-11.6-13-18.4-52.3l-0.6-3.5c-1.6-9.4,5.7-18.4,16.6-20.4c32.8-6.1,36.9-6.1,38.6-6.1c7.6,0,13.9,5.4,21.1,11.6
		c1.4,1.2,3.4,3,5.1,4.3c1.9-1.5,4.1-3.7,5.6-5.1c4.8-4.6,8.3-8,13.3-8.9c5.9-1.1,36.4-0.1,51,2.1c1.9,0.3,3.7,1,5.2,2.2
		c3.3,2.5,7.1,3.1,10.5,5.6c2.2,1.6,2.9,5.8,3.1,8.3c0.7,12.4-3.9,49.2-18.6,62.2c-2.5,2.3-5,3.3-8,3.8c2.1,1.1,4.2,2.7,6.8,5.2
		c1.5,1.3,2.9,2.7,4.3,4.1c1.8-0.8,3.6-1.9,5.3-3.7c16.3-16.5,21.4-63,20.6-78.7C252.8,172,251.4,169.1,249,167.1z"/>
	<path class="eyes-st4" d="M103.1,169.7c-16.3-4.5-33.1,18.5-22.2,19.8C91.8,190.7,112.9,172.4,103.1,169.7z"/>
	<path class="eyes-st4" d="M220.9,226.8c-9.5-2.4-19.2,9.7-12.9,10.3C214.3,237.8,226.6,228.2,220.9,226.8z"/>
	<g>
		<path d="M293,183.5c-4.4-3-18.9-3.4-25.2-3.4c-2.6-0.2-4.7,1.3-5.7,4.2c-1.8,5.3,0.3,16.6,4.3,19.1c1.8,1.1,6.4,1.4,11.5,1.4
			c5.7,0,12-0.4,15.6-0.7l2.2-0.2l0.1-2.2c0.6-9.7,0.1-15.6-1.6-17.4C293.9,183.9,293.5,183.7,293,183.5z M290.9,199.2
			c-9.6,0.7-20.1,0.8-21.9-0.1c-1-0.8-2.8-6.2-2.6-10.9c0.1-2.2,0.7-3,0.8-3.1c0,0,0,0,0.1,0c0,0,0.1,0,0.1,0l0.3,0
			c9.5,0,20.7,1,22.5,2.4l0.4,0.4C291,189.8,291.1,194.6,290.9,199.2z"/>
		<path class="eyes-st5" d="M291.9,185.8c-3.2-3.2-24.2-3.2-24.2-3.2c-6.3-0.7-3.5,16.5,0,18.6s25.6,0.4,25.6,0.4
			S294.4,185.8,291.9,185.8z"/>
		<path class="eyes-st0" d="M279.8,199.4c1.5,0,3,0,4.5-0.1v-13.2c-1.4-0.2-3-0.3-4.5-0.4V199.4z"/>
		<path class="eyes-st0" d="M290,187.8c-0.5-0.5-1.6-0.9-3-1.2v12.6c2.3-0.1,4-0.3,4-0.3S291.8,187.8,290,187.8z"/>
	</g>
</g>
</svg>
