<?xml version="1.0" encoding="utf-8"?>
<!-- Generator: Adobe Illustrator 26.0.3, SVG Export Plug-In . SVG Version: 6.00 Build 0)  -->
<svg version="1.1" id="Layer_1" xmlns="http://www.w3.org/2000/svg" xmlns:xlink="http://www.w3.org/1999/xlink" x="0px" y="0px"
	 viewBox="0 0 384 400" style="enable-background:new 0 0 384 400;" xml:space="preserve">
<style type="text/css">
	.eyes-st0{opacity:0.5;}
	.eyes-st1{fill:#BDFFFF;}
	.eyes-st2{fill:#1F1916;}
	.eyes-st3{opacity:0.4;}
	.eyes-st4{fill:#FFFFFF;}
</style>
<g>
	<g>
		<path d="M220.1,154.4c-0.9-0.2-1.9-0.4-2.8-0.6c-11.8-2.9-47.7-7.6-80.6-4.3c-33,2.2-63,12.3-65.9,13.4
			c-15.9,6.5-17.1,20.1-7.4,66.7c0.3,1.2,0.5,2.4,0.8,3.7c2.6,11.1,14.4,17.5,26.2,16.3c32-2.4,35.3-0.9,37.2-1.7
			c8-1,13.4-7.4,20.7-14.6c0.8-0.8,1.9-1.9,3-2.8c1.3,1.3,2.7,2.6,3.5,3.5c4.8,5,8.3,9.1,13.7,10.6c6.2,1.2,34.7,4.1,48.1,6.6
			c2.3,0.3,4.7,0,6.8-0.8c3.2-1.3,7.4-2.8,11.8-4.1c3.3-1,6.1-3.2,7.5-6.1c6.1-12.6,18-53.4,2.2-73.7
			C239.1,159.1,231.9,157,220.1,154.4z M149.7,218.4c-1.6,1.2-3.5,2.8-4.5,3.7c-5.7,4.9-10.3,9.4-15.7,10c-1.3,0.6-4.4-0.6-33.1,1.3
			c-8.1,0.7-15.2-3.2-16-9.6c-0.1-1-0.2-1.9-0.3-2.9c-3.8-35.7-1.2-41.6,7.1-44.5c1.9-0.6,25.7-7.6,52.2-9.2
			c26.4-2.4,55.5,0.5,66.2,2.8c0.8,0.1,1.5,0.3,2.3,0.4c0.7,0.1,1.4,0.3,2.1,0.4c7.8,1.6,11,2.6,14.2,6c12.4,13.4,7,42.8,3.5,51.5
			c0,0,0,0,0,0c-0.5,1.2-1.6,2-3,2.5c-3.8,1.1-7.5,2.4-10.3,3.4c-1,0.4-2.2,0.5-3.4,0.4c-13-2-38.3-4.3-42.6-5
			c-3.4-0.8-5.9-3.3-9.8-6.9c-1.2-1.1-3.3-3-5.1-4.3c-0.6-0.5-1.2-0.9-1.9-1.4C151,217.5,150.4,217.9,149.7,218.4z M237.3,237.7
			c-0.8,1.7-2.3,3-4.2,3.6c-4.5,1.4-8.8,3-12,4.3c-1.3,0.5-2.6,0.7-4,0.5c-14.5-2.6-42.4-5.5-47.2-6.4c-3.9-1.1-6.6-4.3-11-9.1
			c-1.3-1.3-3.6-3.8-5.7-5.5c-0.5-0.5-1.1-0.9-1.6-1.4c0,0,0.1-0.1,0.1-0.1c1.1,0.9,2.2,1.9,2.9,2.5c4.3,3.9,7.6,7.1,12.5,8.3
			c5.6,0.9,31.5,3.2,43.6,5.1c2.1,0.2,4.2,0,6.1-0.7c2.7-1,6.3-2.2,10.1-3.2c3-0.8,5.3-2.7,6.4-5.2c4.2-9.8,10.7-40.3-3.4-56
			c-5.1-5.6-11.1-7.1-21-9c-0.8-0.1-1.5-0.3-2.3-0.4c-9.8-2.1-39.4-5.3-66.6-2.9c-27.3,1.6-52.3,8.9-54.8,9.7
			c-14.1,5-15.7,15.2-11,50.2c0.1,1,0.3,1.9,0.4,2.9c1.4,9.1,11.3,14.4,22.2,13.4c28.6-1.9,31.7-0.7,33.4-1.3
			c5.5-0.6,9.9-3.8,14.5-7.6c-0.1,0.1-0.3,0.3-0.4,0.4c-6.4,6.5-11.3,12.3-17.3,13c-1.5,0.7-4.8-0.8-36.9,1.6
			c-9.3,1-18.3-4.2-20-12.8c-0.2-1.2-0.5-2.5-0.7-3.7c-8.4-45.8-6.2-56.6,4-60.7c2.2-0.8,30.9-10.5,62.9-12.8
			c31.9-3.3,67.3,0.9,80.1,4.1c0.9,0.2,1.8,0.4,2.8,0.6c0.9,0.2,1.7,0.4,2.5,0.6c9.5,2.2,13.4,3.6,17.1,8.3c0,0,0,0,0,0
			C252.6,185.4,243.2,224.9,237.3,237.7z"/>
		<g class="eyes-st0">
			<path class="eyes-st1" d="M78.5,199.8c0,5.1,0.3,11.5,1.1,19.5c0.1,0.8,0.2,1.7,0.2,2.5c0.7,6.8,8.7,10.8,18,9.9
				c27.9-2.1,31-1,32.5-1.5c4-0.4,7.5-2.3,11-4.9c-14.9-9.6-32.4-16.8-51.2-22.3C86.3,201.8,82.5,200.7,78.5,199.8z"/>
		</g>
		<g class="eyes-st0">
			<path class="eyes-st1" d="M135.8,184.7c-7.3-4.3-15-8.3-23-11.9c-8.8,1.1-17.5,3-21.4,4.1c6.4,1.9,12.7,3.9,18.8,6.1
				c29.6,10.5,55.8,25.7,72.9,46.5c2.3,0.2,4.8,0.5,7.2,0.8c-1.3-1.5-2.6-2.9-3.9-4.4C172.6,210.5,155.6,196.5,135.8,184.7z"/>
		</g>
		<g class="eyes-st0">
			<path class="eyes-st1" d="M162.4,170.7c23.8,16.6,45.7,36.8,59.4,59.4c0.7-0.2,1.4-0.4,2.1-0.6c2.1-0.5,3.7-1.7,4.4-3.3
				c1.1-2.8,2.3-7.5,3-13.2C214.1,194.5,162.7,169.1,162.4,170.7z"/>
		</g>
		<path class="eyes-st2" d="M216.8,156.2c-12.3-3.1-47.9-7.5-80.4-4.2c-32.5,2.2-61.9,12.2-64.4,13.1c-13.1,5.3-14.6,17.8-5.7,63.6
			c0.2,1.2,0.5,2.4,0.8,3.7c2.2,9.9,12.5,15.7,23.1,14.6c32-2.4,35.3-0.9,37.1-1.7c7-0.9,12.2-7,19-13.8c1.3-1.4,3.3-3.2,5-4.7
			c1.9,1.6,4.1,3.9,5.5,5.3c4.6,4.9,7.7,8.6,12.3,9.9c5.5,1,33.7,4,47.7,6.5c1.9,0.2,3.7,0,5.4-0.7c3.9-1.5,7.8-3,11.9-4.2
			c2.6-0.8,4.8-2.5,5.8-4.8c5.5-11.7,16.9-52.4,1.8-71.6C236.5,160.6,230.3,159.1,216.8,156.2z M230.4,229.4
			c-0.7,1.8-2.5,3.2-4.7,3.8c-3.5,1-6.9,2.1-10.2,3.3c-1.5,0.5-3.1,0.7-4.8,0.5c-12.6-2-38.1-4.3-43.1-5.1c-4.2-1-7-3.8-11.2-7.6
			c-1.2-1.1-3.2-2.9-4.9-4.1c-1.5,1.1-3.2,2.6-4.4,3.6c-6.2,5.3-11,10-17.3,10.7c-1.5,0.6-4.6-0.6-33.3,1.3
			c-9.5,0.8-18-3.8-19.1-11.5c-0.1-1-0.3-1.9-0.4-2.9c-4.3-35.9-2-43.4,9-47.3c2.2-0.7,26.6-7.8,53.5-9.5
			c26.8-2.4,56.2,0.7,66.4,2.9c11.2,2.1,16.3,3.1,20.9,8.1C240.2,190.2,234.3,220.2,230.4,229.4z"/>
		<g class="eyes-st0">
			<path class="eyes-st1" d="M207.4,169.6c-10.5-2.3-40.7-5.7-68.3-3.2c-27.7,1.7-52.7,9.2-55,9.9c-11.3,4-13.8,11.3-9.9,45.5
				c0.1,0.9,0.2,1.8,0.3,2.7c1,7.4,9.7,11.5,19.5,10.3c29.7-2.7,33-1.4,34.6-2c6.6-0.8,11.7-5.3,18.1-10.3c1.3-1,3.1-2.4,4.6-3.4
				c1.7,1.1,3.8,2.8,5.1,3.9c4.3,3.6,7.3,6.3,11.7,7.3c5.2,0.7,31.8,3.3,44.9,5.7c1.7,0.2,3.4,0.1,4.9-0.3c3.4-1,6.9-2,10.4-2.8
				c2.3-0.5,4-1.8,4.8-3.5c3.8-8.7,9.4-37.2-4.3-51.5C224.2,173,218.9,171.8,207.4,169.6z"/>
		</g>
		<path class="eyes-st3" d="M237.6,162.7c-1.9,0.6-3.8,1.2-5.6,1.7c-3.4,1-6.7,4.3-9.2,4.6c3.2,1.2,5.6,2.6,7.9,5.1
			c13.4,14.3,7.6,43.1,3.8,51.9c-0.7,1.7-2.5,4.6-4.8,5.2c-3.5,0.8-6.9,0.2-10.3,1.3c-1.5,0.5-3.2,0.6-4.9,0.4
			c-12.9-2.3-39.1-5-44.2-5.8c-4.3-1-7.2-3.8-11.4-7.4c-1.3-1.1-3.3-2.8-5-4c-1.5,1-3.3,2.4-4.6,3.4c-6.4,5-11.4,9.5-17.9,10.2
			c-1.6,0.6-4.8-0.6-34.1,1.4c-9.7,0.9-18.2-3.5-19.1-10.9c-0.1-0.9-0.2-1.8-0.3-2.8c-3.1-31.1-1.3-40.1,7.1-44.4
			c-0.3,0-0.5-0.1-0.8-0.1c-1,0.3-1.7,0.5-2.2,0.7c-12.2,4.6-16.9,6.3-10.2,49.6c0.2,1.2,0.4,2.3,0.6,3.5c1.7,9.3,11.5,14.9,21.9,14
			c31.5-1.8,32,0,33.7-0.7c6.9-0.9,12.1-6.6,18.8-13c1.3-1.3,3.2-3,4.9-4.4c1.8,1.5,4,3.6,5.4,5c4.6,4.6,7.6,8,12.2,9.3
			c5.4,0.8,36.1,4.3,49.8,7.1c1.8,0.3,3.7,0.1,5.3-0.5c3.8-1.4,7.6-2.7,11.6-3.7c2.6-0.7,4.6-2.3,5.6-4.5c5.2-11,15.7-49.3,1.1-67.4
			C241.2,165.3,239.5,163.9,237.6,162.7z"/>
		<path class="eyes-st4" d="M85.6,216.7c-9.4,3.9,10.6,16.1,23.6,10C117.6,222.9,95.7,212.5,85.6,216.7z"/>
		<path class="eyes-st4" d="M212.3,175.6c-6.8-0.8,1.7,10.3,11.7,11C230.2,187.1,219.3,176.4,212.3,175.6z"/>
	</g>
	<g>
		<path d="M236.4,205.4l45.6-1l4.3-14.9l-47.5-10.9L236.4,205.4z M243.3,184.7l36.8,8.4l-1.8,6.3l-36.4,0.8L243.3,184.7z"/>
		<polygon class="eyes-st2" points="238.1,202.8 279.1,201.9 282.2,191.3 240,181.6 		"/>
	</g>
</g>
</svg>
