<?xml version="1.0" encoding="utf-8"?>
<!-- Generator: Adobe Illustrator 26.0.3, SVG Export Plug-In . SVG Version: 6.00 Build 0)  -->
<svg version="1.1" id="Layer_1" xmlns="http://www.w3.org/2000/svg" xmlns:xlink="http://www.w3.org/1999/xlink" x="0px" y="0px"
	 viewBox="0 0 384 400" style="enable-background:new 0 0 384 400;" xml:space="preserve">
<style type="text/css">
	.eyes-st0{fill:#70CACD;}
	.eyes-st1{fill:#008EA7;}
	.eyes-st2{fill:#F5EFDB;}
</style>
<g>
	
		<ellipse transform="matrix(0.9732 -0.2298 0.2298 0.9732 -43.8116 31.5729)" class="eyes-st0" cx="113.7" cy="203.9" rx="30.8" ry="30.8"/>
	<path class="eyes-st1" d="M101.5,227.6c-2.4,0.3-4.8,0.3-7.2,0.2c5.3,4.3,12,6.9,19.4,6.9c17,0,30.8-13.8,30.8-30.8
		c0-1.2-0.1-2.3-0.2-3.4C134.1,214.8,119.5,225.6,101.5,227.6z"/>
	
		<ellipse transform="matrix(0.982 -0.1891 0.1891 0.982 -35.4923 23.8564)" class="eyes-st2" cx="107.3" cy="197.9" rx="12.5" ry="12.5"/>
	
		<ellipse transform="matrix(0.9571 -0.2898 0.2898 0.9571 -50.4527 67.1137)" class="eyes-st0" cx="201.4" cy="203.9" rx="30.8" ry="30.8"/>
	<path class="eyes-st1" d="M222.9,193.7c-7.4,13-17.8,26.3-32.1,32c-2.9,1.2-5.8,1.9-8.7,2.2c5.3,4.3,12,6.8,19.3,6.8
		c17,0,30.8-13.8,30.8-30.8c0-6.6-2.1-12.7-5.6-17.7C225.5,188.8,224.3,191.3,222.9,193.7z"/>
	<circle class="eyes-st2" cx="193" cy="197.9" r="12.5"/>
	<g>
		<g>
			<path d="M235.2,201.3c-0.7,0-1.5-0.1-2.2,0c-1.2,0.2-1.6-0.3-1.8-1.5c-2.4-15.5-15.8-27.5-31.4-28.3c-13.8-0.7-26.5,7-32.4,19.6
				c-0.6,1.4-1.2,2.8-1.7,4.2c-7-5.6-13.8-5.6-20.7,0c-0.1-0.4-0.2-0.7-0.3-0.9c-5.3-15.1-19.6-24.3-35.5-22.7
				C95,173.2,83,183.9,79.9,198c-0.2,1.1-0.1,2.5-0.8,3.1c-0.7,0.6-2.1,0.2-3.2,0.2c-2.3,0.1-4,1.7-4,3.9c0,2.2,1.6,3.9,4,4
				c1.1,0,2.2,0,3.4,0c0.1,0.6,0.2,1,0.2,1.4c2.7,17.7,19.4,30.3,37.1,28.1c17-2.1,29.6-16.2,29.8-33.3c0-4.8,4.1-8.8,9-8.7
				c4.9,0,8.8,4,9,8.7c0.1,2.8,0.3,5.6,1,8.2c4.7,17.9,22.2,28.7,40.3,24.4c12.8-3,21-11.3,24.8-23.9c0.5-1.6,0.7-3.2,1.1-4.9
				c1.2,0,2.3,0,3.5,0c2.2-0.1,3.8-1.7,3.8-3.9C239,203.2,237.5,201.5,235.2,201.3z M112.7,233.3c-15.2,0.1-27.8-12.5-27.9-27.9
				c-0.1-15.5,12.4-28,27.9-28.1c15.5-0.1,28,12.4,28.1,27.9C140.8,220.6,128.3,233.2,112.7,233.3z M198.5,233.3
				c-15.6,0.1-28.2-12.3-28.3-27.8c-0.1-15.4,12.3-27.9,27.6-28.1c14.5-0.2,28.1,11.3,28.3,27.7
				C226.3,220.3,213.7,233.1,198.5,233.3z"/>
			<path d="M112.8,174.9c0,0-0.1,0-0.1,0c-8.2,0-15.8,3.2-21.5,9c-5.7,5.8-8.8,13.4-8.8,21.5c0,8.1,3.3,15.7,9,21.4
				c5.7,5.7,13.2,8.9,21.2,8.9c0.1,0,0.1,0,0.2,0c16.9-0.1,30.5-13.8,30.4-30.5C143.1,188.5,129.5,174.9,112.8,174.9z M112.7,230.8
				c-6.7,0-13-2.6-17.9-7.4c-4.9-4.8-7.6-11.2-7.6-18c0-6.8,2.6-13.2,7.4-18.1c4.8-4.9,11.2-7.5,18.1-7.6c0,0,0.1,0,0.1,0
				c14,0,25.4,11.4,25.5,25.5C138.4,219.3,126.9,230.8,112.7,230.8z"/>
			<path d="M235.4,198.9c-0.5,0-1.1-0.1-1.7-0.1c-2.8-16.2-17.1-28.9-33.6-29.7c-14.8-0.7-28.4,7.5-34.7,21c-0.2,0.5-0.4,1-0.6,1.5
				c-6.1-3.8-12.4-3.8-18.5,0c-6.2-15-20.9-23.8-37.3-22.2c-15.2,1.5-28.1,13-31.4,28.1c-0.1,0.5-0.1,0.9-0.2,1.3c0,0.1,0,0.1,0,0.2
				c-0.1,0-0.1,0-0.2,0c-0.4,0-0.9-0.1-1.3,0c-3.7,0.1-6.3,2.8-6.4,6.4c0,3.6,2.7,6.3,6.3,6.5c0.5,0,1,0,1.5,0
				c3,17.2,18.3,29.8,35.5,29.8c1.4,0,2.8-0.1,4.3-0.3c18.3-2.2,31.8-17.3,31.9-35.7c0-3.4,3-6.3,6.5-6.3c0,0,0,0,0,0
				c3.5,0,6.4,2.9,6.5,6.4c0.1,2.6,0.3,5.7,1.1,8.7c5.1,19.2,24,30.7,43.2,26.1c13.5-3.2,22.4-11.8,26.6-25.6
				c0.3-1.1,0.5-2.1,0.7-3.2c0.5,0,1.1,0,1.6,0c3.4-0.1,6.1-2.8,6.2-6.2C241.5,201.9,238.9,199.1,235.4,198.9z M235.1,206.8
				c-0.7,0-1.5,0-2.2,0c-0.4,0-0.8,0-1.1,0h-2l-0.4,1.9c-0.1,0.6-0.2,1.1-0.3,1.7c-0.2,1.1-0.4,2.1-0.7,3.1
				c-3.6,12-11.4,19.4-23,22.2c-16.6,3.9-33-6-37.3-22.6c-0.7-2.6-0.9-5.3-1-7.7c-0.2-6.2-5.2-11-11.4-11.1c0,0-0.1,0-0.1,0
				c-6.2,0-11.3,5-11.4,11.2c-0.1,16-11.8,29-27.7,30.9c-16.5,2-31.9-9.7-34.4-26.1c0-0.3-0.1-0.6-0.2-0.9l-0.4-2.6h-2.1l-1.2,0
				c-0.8,0-1.5,0-2.2,0c-1,0-1.6-0.6-1.6-1.5c0-0.9,0.6-1.5,1.7-1.5c0.3,0,0.5,0,0.8,0c1.1,0.1,2.7,0.2,3.9-0.8
				c1.2-1,1.4-2.5,1.5-3.7c0-0.3,0.1-0.6,0.1-0.8c2.9-13,14-23,27.1-24.3c14.8-1.5,28.1,7,33,21.1l1.5,4.2l2.7-2.2
				c6-4.9,11.6-4.9,17.7,0l2.5,2.1l1.2-3c0.2-0.5,0.4-0.9,0.6-1.4c0.4-1,0.7-1.9,1.1-2.7c5.4-11.7,17.2-18.8,30.1-18.2
				c14.4,0.7,26.9,12,29.1,26.2c0.6,3.7,3.3,3.7,4.5,3.5c0.5-0.1,1,0,1.7,0c0.9,0.1,1.5,0.7,1.5,1.6
				C236.5,206.2,235.9,206.8,235.1,206.8z"/>
			<path d="M197.7,174.9c-16.7,0.3-30.2,14-30,30.6c0.1,8.2,3.3,15.8,9.1,21.5c5.7,5.6,13.3,8.7,21.4,8.7c0.1,0,0.2,0,0.3,0
				c8-0.1,15.6-3.3,21.3-9.2s8.8-13.5,8.7-21.5c-0.1-8.2-3.4-15.9-9.2-21.5C213.5,177.9,205.6,174.8,197.7,174.9z M216.3,223.1
				c-4.8,4.9-11.1,7.6-17.9,7.7c-0.1,0-0.2,0-0.2,0c-6.8,0-13.2-2.6-18-7.3c-4.9-4.8-7.6-11.2-7.7-18.1
				c-0.1-13.9,11.2-25.4,25.2-25.7c6.6-0.1,13.2,2.5,18.1,7.2c4.9,4.7,7.6,11.2,7.7,18.1C223.7,211.8,221.1,218.2,216.3,223.1z"/>
		</g>
	</g>
</g>
</svg>
