<?xml version="1.0" encoding="utf-8"?>
<!-- Generator: Adobe Illustrator 26.0.3, SVG Export Plug-In . SVG Version: 6.00 Build 0)  -->
<svg version="1.1" id="Layer_1" xmlns="http://www.w3.org/2000/svg" xmlns:xlink="http://www.w3.org/1999/xlink" x="0px" y="0px"
	 viewBox="0 0 384 400" style="enable-background:new 0 0 384 400;" xml:space="preserve">
<style type="text/css">
	.eyes-st0{opacity:0.8;fill:#FFFFFF;}
</style>
<g>
	<path d="M153.7,192.8c0,0-2.9,41.8,47.7,43.6c66.3,2.3,63.8-36.8,63.8-36.8L153.7,192.8z"/>
	<path d="M103,228.8c35.1,1.2,41.5-34.1,41.5-34.1L72,189.5C72,189.5,73.9,227.8,103,228.8z"/>
	<polygon points="72.3,179.9 72,189.5 252.6,204.3 265,199.8 265,187.2 254.5,186.3 	"/>
	<path class="eyes-st0" d="M215.5,209.6c6.5-4.2-2.5-13.7-2.5-13.7l-24.6-0.9c0,0,7.9,11.7,5.3,13.8c-2.6,2.1-1.8,14.4,1.9,16.3
		c3.7,1.9,24.4,0.9,24.4,0.9S209,213.7,215.5,209.6z"/>
	<path class="eyes-st0" d="M117.1,205.5c4.8-3.7-1.8-12.1-1.8-12.1l-18-0.6c0,0,5.7,10.3,3.9,12.2c-1.9,1.9-1.4,12.7,1.3,14.4
		c2.7,1.7,17.9,0.6,17.9,0.6S112.3,209.2,117.1,205.5z"/>
</g>
</svg>
