<?xml version="1.0" encoding="utf-8"?>
<!-- Generator: Adobe Illustrator 26.0.3, SVG Export Plug-In . SVG Version: 6.00 Build 0)  -->
<svg version="1.1" id="Layer_1" xmlns="http://www.w3.org/2000/svg" xmlns:xlink="http://www.w3.org/1999/xlink" x="0px" y="0px"
	 viewBox="0 0 384 400" style="enable-background:new 0 0 384 400;" xml:space="preserve">
<style type="text/css">
	.eyes-st0{fill:#BD2F02;}
	.eyes-st1{fill:#FE9C0F;}
	.eyes-st2{opacity:0.5;fill:#93DDFE;}
	.eyes-st3{fill:#FFFFFF;}
	.eyes-st4{fill:#3B342E;}
	.eyes-st5{fill:#7DA7AB;}
	.eyes-st6{fill:#95C7CC;}
	.eyes-st7{fill:#A2D8DE;}
	.eyes-st8{fill:#FFB64C;}
	.eyes-st9{fill:#E33802;}
</style>
<g>
	<path class="eyes-st0" d="M208.5,163.4c-15.6-0.6-99.6-2.1-99.6-2.1s-33.5-0.7-36.4,33.7c-0.6,7.7-1.5,17,1.8,24.9c0,0,0,0,0,0
		c0.2,0.4,0.4,0.9,0.6,1.3c0,0.1,0.1,0.1,0.1,0.2c0.2,0.4,0.4,0.8,0.6,1.2c0,0.1,0.1,0.2,0.1,0.2c0.2,0.4,0.5,0.8,0.7,1.1
		c0.1,0.1,0.1,0.1,0.2,0.2c0.3,0.4,0.5,0.7,0.8,1.1c0,0.1,0.1,0.1,0.1,0.2c0.3,0.3,0.5,0.7,0.8,1c0.1,0.1,0.1,0.2,0.2,0.2
		c0.3,0.3,0.6,0.7,1,1c0.1,0.1,0.2,0.2,0.3,0.3c0.3,0.3,0.7,0.6,1,0.9c0.1,0.1,0.2,0.2,0.3,0.3c0.4,0.3,0.7,0.6,1.1,0.9
		c0.1,0.1,0.2,0.2,0.3,0.2c0.4,0.3,0.8,0.5,1.2,0.8c0.1,0.1,0.2,0.1,0.3,0.2c0.4,0.2,0.8,0.5,1.3,0.7c0.1,0.1,0.2,0.1,0.4,0.2
		c0.5,0.2,1,0.5,1.5,0.7c0.2,0.1,0.3,0.1,0.5,0.2c0.5,0.2,1.1,0.4,1.6,0.7c0.2,0.1,0.3,0.1,0.5,0.2c0.6,0.2,1.2,0.4,1.8,0.6
		c0.1,0,0.3,0.1,0.4,0.1c0.6,0.2,1.3,0.4,1.9,0.6c0.1,0,0.2,0.1,0.3,0.1c0.7,0.2,1.4,0.3,2.1,0.5c0.1,0,0.3,0.1,0.4,0.1
		c0.7,0.2,1.5,0.3,2.3,0.4c0.2,0,0.3,0.1,0.5,0.1c0.8,0.1,1.6,0.2,2.4,0.3c0.2,0,0.3,0,0.5,0.1c0.9,0.1,1.7,0.2,2.7,0.3
		c0.1,0,0.3,0,0.4,0c1,0.1,2,0.1,3,0.2c35.1,1.8,36.4-12.6,36.4-12.6s4.8-0.4,9.6-0.3c4.9,0.1,10.6-0.1,10.6-0.1s5.3,15.4,32.3,16.5
		c0.8,0,1.7,0.1,2.5,0.1c0.3,0,0.6,0,0.9,0c0.5,0,1,0,1.5,0c0.3,0,0.7,0,1,0c0.4,0,0.9,0,1.3-0.1c0.4,0,0.7-0.1,1-0.1
		c0.4,0,0.8-0.1,1.2-0.1c0.4,0,0.7-0.1,1.1-0.1c0.4,0,0.7-0.1,1.1-0.1c0.4-0.1,0.7-0.1,1.1-0.2c0.3-0.1,0.7-0.1,1-0.2
		c0.4-0.1,0.8-0.2,1.1-0.2c0.3-0.1,0.6-0.1,0.9-0.2c0.4-0.1,0.8-0.2,1.2-0.3c0.3-0.1,0.5-0.1,0.8-0.2c0.4-0.1,0.8-0.2,1.2-0.3
		c0.2-0.1,0.5-0.1,0.7-0.2c0.4-0.1,0.8-0.3,1.2-0.4c0.2-0.1,0.4-0.1,0.6-0.2c0.4-0.2,0.8-0.3,1.3-0.5c0.2-0.1,0.3-0.1,0.5-0.2
		c0.4-0.2,0.9-0.4,1.3-0.6c0.1-0.1,0.2-0.1,0.4-0.2c0.5-0.2,0.9-0.4,1.3-0.7c0.1,0,0.2-0.1,0.2-0.1c0.5-0.2,0.9-0.5,1.4-0.8
		c0,0,0.1,0,0.1-0.1c0.5-0.3,1-0.6,1.4-0.9c0,0,0,0,0,0c8.5-5.5,13.3-13.6,13.9-21.9C242.1,196.6,243.8,167.4,208.5,163.4z
		 M229.9,211.6C229.8,211.6,229.8,211.6,229.9,211.6c-7.8,18.2-41.9,16.8-46.2,16.5c-2.1-0.9-12.7-25.9-27-26.8
		c-12.4-0.7-17.6,17.1-23.8,26c0,0-47.9,8.2-49.7-27.7c0,0-0.1,0-0.1,0c0-0.9-0.1-1.9,0-2.9c1.1-26.5,27-24.6,43.7-24.5
		c0.3-0.3,73.1,1.5,73.1,1.5s31.3,0.4,31.5,30.4C231.3,207,230.8,209.5,229.9,211.6z"/>
	<path d="M208.8,160.9l-0.2,0c-15.5-0.6-98.8-2-99.6-2.1c-0.4,0-35.8-0.3-38.9,36l0,0.5c-0.9,10.3-1.9,23.1,6.4,32.6
		c6.3,7.2,16.8,11.1,32.1,11.8c30.7,1.6,37.3-9.2,38.7-13.4c1.4-0.6,4.3-1.5,7.1-1.5c3.3,0.1,7.3,1,9.2,1.5c2,4,10,15.9,34,16.9
		c1,0,2,0.1,2.9,0.1c26.7,0,41.8-15.4,42.9-31.2C244.5,198,246.9,165.2,208.8,160.9z M238.4,211.7c-1,14-15.3,27.6-40.7,26.6
		c-24.7-1-29.9-14.3-30.1-14.8l-0.4-1.2l-1.2-0.4c-0.3-0.1-6.4-1.8-11.6-1.9c-0.1,0-0.2,0-0.3,0c-5.3,0-10,2.4-10.2,2.5l-1.2,0.6
		l-0.1,1.3c0,0.1-2.1,12.1-33.8,10.4c-13.7-0.7-23.3-4.1-28.6-10.1c-6.9-7.9-5.9-19.5-5.1-28.9l0-0.5c2.7-31.5,32.5-31.4,33.8-31.4
		c0.8,0,83.8,1.5,99.4,2C241.6,169.7,239.5,197,238.4,211.7z"/>
	<path d="M199.9,171.4c0,0-18.2-0.4-36.5-0.9c-9.1-0.2-18.3-0.4-25.1-0.5c-7-0.1-10.1-0.2-11.6-0.1l0-0.1c-1,0-2,0-3,0
		c-16.8-0.2-42.1-0.4-43.3,27c-0.2,10.6,3.1,18.9,9.8,24.7c15.1,13,41.8,8.5,42.9,8.3l1-0.2l0.6-0.9c1.6-2.3,3.1-5.1,4.7-8.1
		c4.5-8.5,9.2-17.3,16.9-16.8c9.3,0.6,17.4,13.8,21.8,21c2.2,3.7,3.1,5.1,4.4,5.6l0.4,0.1l0.4,0c0.3,0,2.4,0.2,5.5,0.2
		c9.2,0,27.5-1.3,37.7-10.5c4.6-4.2,7.1-9.6,7.2-16C233.7,172.1,200.3,171.4,199.9,171.4z M223.3,216.6c-10.8,9.8-33.7,9.3-38.6,9.1
		c-0.5-0.7-1.4-2.2-2.2-3.4c-4.8-7.9-13.8-22.7-25.8-23.4c-10.9-0.6-16.8,10.5-21.6,19.4c-1.3,2.5-2.6,4.8-3.8,6.7
		c-4.9,0.7-26,2.8-37.8-7.3c-5.6-4.8-8.3-11.8-8.1-20.8c0.9-20.8,17.8-22.4,38.2-22.1c1,0,2,0,3,0l1,0l0,0c6.3,0,45.6,0.9,72.1,1.5
		c1.2,0,28.9,0.8,29,27.9C228.8,209.2,226.9,213.3,223.3,216.6z"/>
	<path class="eyes-st1" d="M208.5,163.4c-15.6-0.6-99.6-2.1-99.6-2.1s-33.5-0.7-36.4,33.7c-1.4,16.6-3.8,40.3,36.1,42.3
		c35.1,1.8,36.4-12.6,36.4-12.6s4.5-2.3,9.3-2.2c4.9,0.1,10.9,1.8,10.9,1.8s5.3,15.4,32.3,16.5c27,1.1,42.1-13.6,43.3-28.9
		C242.1,196.6,243.8,167.4,208.5,163.4z M183.6,228.1c-2.1-0.9-12.7-25.9-27-26.8c-12.4-0.7-17.6,17.1-23.8,26
		c0,0-50.7,8.8-49.8-30.5c1.1-26.5,27-24.6,43.7-24.5c0.3-0.3,73.1,1.5,73.1,1.5s31.3,0.4,31.5,30.4
		C230.8,230.2,188.5,228.5,183.6,228.1z"/>
	<path class="eyes-st0" d="M183.6,228.1c-2.1-0.9-12.7-25.9-27-26.8c-12.4-0.7-17.6,17.1-23.8,26c0,0-47.9,8.2-49.7-27.7
		c-4.1,0.2-7.9,0.4-11.1,0.5c-1,16,0.6,35.3,36.5,37c35.1,1.8,36.4-12.6,36.4-12.6s4.7-2,9.5-1.9c4.9,0.1,10.7,1.5,10.7,1.5
		s5.3,15.4,32.3,16.5c26.3,1.1,41.3-12.9,43.1-27.7c-3.6-0.4-7.3-0.9-11-1.4C222.1,229.8,187.9,228.5,183.6,228.1z"/>
	<path d="M199.9,171.9c0,0-18.2-0.4-36.5-0.9c-9.1-0.2-18.3-0.4-25.1-0.5c-7.2-0.1-10.2-0.2-11.6-0.1v0c-1,0-2,0-3,0
		c-16.6-0.2-41.6-0.4-42.7,26.5c-0.2,10.5,3,18.6,9.7,24.3c14.9,12.8,41.4,8.4,42.5,8.2l0.8-0.1l0.5-0.7c1.6-2.3,3.1-5.1,4.7-8.1
		c4.4-8.2,9.3-17.5,17.4-17.1c9.6,0.6,17.8,14,22.2,21.2c2.3,3.8,3,4.9,4.2,5.4l0.3,0.1l0.3,0c0.3,0,2.4,0.2,5.5,0.2
		c9.1,0,27.3-1.2,37.3-10.4c4.5-4.1,6.9-9.4,7-15.7C233.2,172.6,200.2,171.9,199.9,171.9z M223.6,217c-11.2,10.1-34.8,9.4-39.2,9.2
		c-0.5-0.7-1.5-2.3-2.3-3.7c-4.8-7.8-13.7-22.5-25.4-23.1c-10.6-0.6-16.4,10.4-21.1,19.2c-1.4,2.5-2.6,5-3.9,7
		c-4.5,0.6-26.3,3-38.4-7.4c-5.7-4.9-8.5-12-8.3-21.2c1-23,21.9-22.8,38.7-22.6c1,0,2,0,3,0l0.8,0l0,0c5.8,0,45.5,0.9,72.3,1.5
		c1.2,0,29.3,0.7,29.5,28.4C229.3,209.4,227.4,213.6,223.6,217z"/>
	<path class="eyes-st2" d="M199.9,173.9c0,0-72.9-1.8-73.1-1.5c-16.7-0.1-42.6-2-43.7,24.5c-0.8,39.3,49.8,30.5,49.8,30.5
		c6.1-8.9,11.4-26.7,23.8-26c14.3,0.8,24.8,25.9,27,26.8c4.9,0.4,47.2,2.1,47.8-23.9C231.2,174.2,199.9,173.9,199.9,173.9z"/>
	<g>
		<path class="eyes-st2" d="M154.5,201.4c0.7-0.1,1.4-0.1,2.2-0.1c1.6,0.1,3.1,0.5,4.5,1.1c-1.4-0.7-2.9-1.1-4.4-1.2
			C155.9,201.2,155.2,201.3,154.5,201.4z"/>
		<path class="eyes-st2" d="M199.9,173.9c0,0-72.9-1.8-73.1-1.5c-16.7-0.1-42.6-2-43.7,24.5c-0.8,39.3,49.8,30.5,49.8,30.5
			c0.9-1.2,1.7-2.6,2.5-4.2c-7.3,0.9-40.8,3.5-40.1-25.7c0.9-22.1,22.5-20.5,36.5-20.5c0.2-0.2,61.1,1.3,61.1,1.3
			s26.1,0.3,26.3,25.4c-0.4,20.2-31.2,20.3-38.6,20c1.5,2.5,2.6,4.2,3.1,4.4c4.9,0.4,47.2,2.1,47.8-23.9
			C231.2,174.2,199.9,173.9,199.9,173.9z"/>
	</g>
	<path class="eyes-st3" d="M108.6,179.7c-4.1-2.3-22.3,9.7-16.1,15.5C98.8,200.8,112,181.6,108.6,179.7z"/>
	<path class="eyes-st3" d="M199.4,178.8c-6.7,2.2,19.3,25.1,25.1,22.8C230.4,199.3,209.3,175.5,199.4,178.8z"/>
	<g>
		<path d="M265.9,163.3l-17.2,0l0,2.5c0.6,30.2-2.3,74.4-10.6,78.2c-11.2,4.7-44,3.3-44.3,3.3l-20.8-1.2l-2.3,8.1
			c-0.7,2.5-0.3,5.2,1.3,7.3c1.5,2.1,3.9,3.4,6.5,3.6l12.6,0.7c1,0.1,9.8,1,21,1c3.6,0,7.4-0.1,11.2-0.3c22.9-1.4,35.9-7,38.7-16.9
			c6.1-21.1,4.1-81.3,4-83.9L265.9,163.3z M257.2,248.2c-4.5,15.5-49,14.4-65.7,12.6l-12.8-0.7c-1.1-0.1-2.1-0.6-2.7-1.5
			c-0.6-0.9-0.8-2-0.5-3l1.2-4.2l16.9,0.9c1.4,0.1,34.3,1.4,46.6-3.7c4.2-1.9,10.2-8.7,12.6-44.7c1-15.1,1.1-29.8,1-35.6l7.3,0
			C261.4,179.9,262.4,230.1,257.2,248.2z"/>
		<path class="eyes-st4" d="M251.3,165.8c0,0,1.5,74.3-12.2,80.5c-11.8,4.9-45.4,3.5-45.4,3.5l-2.5,13.4c0,0,62.3,6.6,68.4-14.4
			c6.1-21,3.9-83.1,3.9-83.1L251.3,165.8z"/>
		<path d="M258.5,133.9c-4.5-0.3-12.5-0.2-15.8,3.1l-0.7,0.7l0,1c-0.1,26.7,2.7,28.7,3.6,29.4c1.5,1.1,5.2,1.4,9.3,1.4
			c4,0,8.4-0.3,11.6-0.6l1.7-0.2l0.5-1.7c4.5-16.8,5.9-26.6,3.9-29.2C270.3,134.9,261.2,134.1,258.5,133.9z M264.3,164.1
			c-6.5,0.5-13.7,0.6-15.6,0c-1.1-2.5-1.7-14-1.8-24.1c4.2-2.2,18.7-0.9,21.5,0.9C269,143.5,266.9,154.5,264.3,164.1z"/>
		<path class="eyes-st5" d="M244.5,138.7c0,0-0.1,25.4,2.6,27.3c2.7,1.9,19.2,0.3,19.2,0.3s6.5-24.1,4.3-27
			C268.4,136.6,248.7,134.5,244.5,138.7z"/>
		<path class="eyes-st6" d="M246.3,140.8c0,0-1.2,16,1,17.5c2.1,1.5,16.6-1.4,16.6-1.4s6.7-15.4,5-17.8
			C267.3,136.7,250.3,136.6,246.3,140.8z"/>
		<path class="eyes-st5" d="M173.1,254.9c-1.1,3.7,1.6,7.5,5.5,7.7l12.6,0.7l2.5-13.4l-18.9-1L173.1,254.9z"/>
		<path class="eyes-st7" d="M246.1,140.8c-1.4,4.9,20.4,6.2,22.6,0.7C271.3,135.1,247.6,135.9,246.1,140.8z"/>
	</g>
	<path class="eyes-st8" d="M99.6,165.6c-0.1,3.9,95.2,3.7,95.9,1.4C197,161.7,99.7,161.7,99.6,165.6z"/>
	<path class="eyes-st9" d="M78.6,212.5c-3.3,2.4,10.2,17.6,16.6,17.5C101.6,229.8,82,210,78.6,212.5z"/>
	<path class="eyes-st9" d="M199.5,234.9c0.3,4.1,20.2,0.6,23.5-5C226.2,224.4,199.2,230.7,199.5,234.9z"/>
	<path class="eyes-st9" d="M148,211.3c0.4,5.9,19.8,2.7,17-1.3C161.2,204.5,147.6,205.4,148,211.3z"/>
</g>
</svg>
