<?xml version="1.0" encoding="utf-8"?>
<!-- Generator: Adobe Illustrator 26.0.3, SVG Export Plug-In . SVG Version: 6.00 Build 0)  -->
<svg version="1.1" id="Layer_1" xmlns="http://www.w3.org/2000/svg" xmlns:xlink="http://www.w3.org/1999/xlink" x="0px" y="0px"
	 viewBox="0 0 384 400" style="enable-background:new 0 0 384 400;" xml:space="preserve">
<style type="text/css">
	.eyes-st0{fill:#F58A28;}
	.eyes-st1{fill:#F57728;}
	.eyes-st2{fill:#F5B328;}
	.eyes-st3{fill:#59BABA;}
	.eyes-st4{fill:#59CFBA;}
</style>
<g>
	<path d="M180.7,203c-1-0.9-25.6-21.1-59.8-0.6c-3,1.8-4.3,6-2.9,9.6c1,2.7,3.3,4.4,5.9,4.4c1,0,2.1-0.3,3-0.8
		c27-16.2,45.5-1.2,46.3-0.6c1.4,1.2,3.1,1.7,4.9,1.3c1.8-0.3,3.4-1.6,4.4-3.4C184.2,209.7,183.4,205.3,180.7,203z M178,210.6
		c-0.3,0.5-0.6,0.8-0.9,0.9c-0.1,0-0.4,0.1-0.7-0.2c-0.9-0.7-22-17.8-52,0.1c-0.1,0.1-0.3,0.1-0.4,0.1c-0.4,0-0.9-0.4-1.2-1.2
		c-0.5-1.4,0-3.1,0.8-3.6c10.6-6.3,20.1-8.4,28.1-8.4c15.6,0,25.4,8.1,26,8.6C178.4,207.6,178.6,209.4,178,210.6z"/>
	<path class="eyes-st0" d="M122.2,204.5c-2,1.2-2.8,4.1-1.9,6.6c0.7,1.8,2.1,2.8,3.6,2.8c0.6,0,1.1-0.2,1.7-0.5
		c28.5-17,48.3-1.1,49.1-0.4c1.8,1.5,4.3,0.9,5.5-1.3c1.2-2.3,0.7-5.3-1.1-6.9C178.2,204.1,154.9,185,122.2,204.5z"/>
	<g>
		<path d="M142.8,186.3l-22.2-6.6l-13.9-18.5c-0.5-0.6-1.3-1-2.1-1c-0.8,0-1.5,0.4-2,1.1l-13.1,19.1L67.6,188
			c-0.8,0.3-1.3,0.9-1.6,1.6c-0.2,0.8-0.1,1.6,0.4,2.2l14.1,18.4l0.4,23.1c0,0.8,0.4,1.6,1.1,2c0.4,0.3,0.9,0.4,1.4,0.4
			c0.3,0,0.6,0,0.8-0.1l21.8-7.7l22.1,6.7c0.8,0.2,1.6,0.1,2.2-0.4c0.6-0.5,1-1.3,1-2.1l-0.6-23.1l13.3-19c0.5-0.7,0.6-1.5,0.3-2.3
			C144.2,187.1,143.5,186.6,142.8,186.3z M91.1,182.5L91.1,182.5L91.1,182.5z M126.3,206.9c-0.3,0.4-0.5,1-0.4,1.5l0.5,20.5l-19.6-6
			c-0.5-0.2-1.1-0.1-1.6,0l-19.3,6.8l-0.4-20.5c0-0.5-0.2-1.1-0.5-1.5l-12.5-16.3l19.4-6.7c0.5-0.2,0.9-0.5,1.2-0.9l11.6-16.9
			l12.4,16.4c0.3,0.4,0.8,0.7,1.3,0.9l19.7,5.8L126.3,206.9z"/>
		<polygon class="eyes-st0" points="119.1,181.9 104.6,162.8 91.1,182.5 68.4,190.4 83,209.4 83.4,233.3 106,225.3 129,232.3 
			128.3,208.4 142.1,188.7 		"/>
		<path class="eyes-st1" d="M136.9,191.8c-0.6,0.3-1.2,0.6-1.8,0.9c-13.1,6.3-26.2,12.5-39.2,19.1c-4.3,2.2-8.5,4.5-12.8,6.8l0.3,14.8
			l22.6-8l22.9,7l-0.6-24l12.5-17.9C139.5,190.9,138.2,191.4,136.9,191.8z"/>
		<path class="eyes-st2" d="M91.1,182.5l-22.5,7.8c17-0.3,33.9-4,50.3-8.7l-14.2-18.8L91.1,182.5z"/>
		<polygon class="eyes-st3" points="114,187.8 104.9,175.7 96.4,188.2 82.1,193.1 91.3,205.1 91.6,220.2 105.8,215.2 120.3,219.6 
			119.9,204.5 128.5,192.1 		"/>
		<path class="eyes-st4" d="M96.8,218.3l9-3.1l0.5,0.2c6.4-8,12.6-16.1,18.6-24.3l-4.6-1.4C116,196.8,98.1,216.3,96.8,218.3z"/>
		<path class="eyes-st4" d="M107.9,179.7c-2.9,2.9-5.8,5.8-8.6,8.7c-3.8,3.9-7.7,8-11.8,11.7l3.8,4.9l0.1,7.3c8-7.9,15.6-16.1,23-24.5
			l-0.4-0.1L107.9,179.7z"/>
	</g>
	<g>
		<path d="M248.5,187.8l-25.4-10.3l-14.3-23.4c-0.5-0.8-1.4-1.3-2.3-1.4c-0.9-0.1-1.9,0.3-2.5,1l-17.7,20.9l-26.6,6.4
			c-0.9,0.2-1.7,0.9-2,1.8c-0.4,0.9-0.3,1.9,0.2,2.7l14.5,23.3l-2.2,27.3c-0.1,0.9,0.3,1.9,1,2.5c0.7,0.6,1.7,0.8,2.6,0.6l26.6-6.6
			l25.3,10.5c0.4,0.2,0.8,0.2,1.1,0.2c0.5,0,1.1-0.1,1.6-0.4c0.8-0.5,1.3-1.4,1.4-2.3l2-27.3l17.8-20.8c0.6-0.7,0.9-1.7,0.6-2.6
			S249.4,188.2,248.5,187.8z M226.7,210.2c-0.4,0.5-0.7,1.1-0.7,1.7l-1.8,24.2l-22.4-9.3c-0.4-0.2-0.7-0.2-1.1-0.2
			c-0.2,0-0.5,0-0.7,0.1l-23.6,5.8l1.9-24.2c0.1-0.6-0.1-1.3-0.4-1.8l-12.8-20.6l23.6-5.6c0.6-0.1,1.2-0.5,1.6-1l15.6-18.5
			l12.6,20.7c0.3,0.5,0.8,1,1.4,1.2l22.5,9.1L226.7,210.2z"/>
		<polygon class="eyes-st0" points="206.4,155.7 188.1,177.3 160.5,183.9 175.5,208 173.2,236.3 200.7,229.5 226.9,240.4 229,212.1 
			247.4,190.6 221.2,179.9 		"/>
		<path class="eyes-st1" d="M238.7,194.4c-16.1,5.9-32.3,11.7-48.3,18c-5.3,2.1-10.5,4.3-15.8,6.5l-1.4,17.5l27.5-6.8l26.2,10.9l2-28.3
			l16.8-19.6c-1.6,0.4-3.2,0.7-4.8,1.1C240.2,193.8,239.5,194.1,238.7,194.4z"/>
		<path class="eyes-st2" d="M188.1,177.3l-27.4,6.5c20.1,1.7,40.4-0.8,60.2-4.4l-14.5-23.8L188.1,177.3z"/>
		<polygon class="eyes-st3" points="205.2,170.9 193.7,184.6 176.3,188.8 185.7,203.9 184.3,221.7 201.7,217.5 218.2,224.3 219.4,206.5 
			231.1,192.9 214.5,186.2 		"/>
		<path class="eyes-st4" d="M190.7,220.1l11-2.6l0.6,0.2c8.5-8.6,16.7-17.5,24.8-26.4l-5.2-2.1C215.8,197,192.5,218,190.7,220.1z"/>
		<path class="eyes-st4" d="M208.3,176c-3.7,3.1-7.5,6.2-11.2,9.3c-5,4.2-10,8.5-15.2,12.5l3.9,6.2l-0.7,8.6c10.3-8.3,20.2-17.1,30-26.2
			l-0.5-0.2L208.3,176z"/>
	</g>
</g>
</svg>
