<?xml version="1.0" encoding="utf-8"?>
<!-- Generator: Adobe Illustrator 26.0.3, SVG Export Plug-In . SVG Version: 6.00 Build 0)  -->
<svg version="1.1" id="Layer_1" xmlns="http://www.w3.org/2000/svg" xmlns:xlink="http://www.w3.org/1999/xlink" x="0px" y="0px"
	 viewBox="0 0 384 400" style="enable-background:new 0 0 384 400;" xml:space="preserve">
<style type="text/css">
	.eyes-st0{opacity:0.5;}
	.eyes-st1{fill:#BDFFFF;}
	.eyes-st2{fill:#1F1916;}
</style>
<g>
	<g class="eyes-st0">
		<path class="eyes-st1" d="M87.6,178.7c-6.3,1.5-12,34.2-7,41s39.8,9.4,46.7,3.3c5.5-4.9,9.2-37.9,7.1-41.1
			C131.1,177.2,101.8,175.3,87.6,178.7z"/>
	</g>
	<g class="eyes-st0">
		<path class="eyes-st1" d="M168.9,178.3c-7.5,1.5-10.1,37.6-4.2,44.3c5.9,6.7,49,7.3,56.9,1c7.9-6.3,9.2-35.6,5-40.2
			C222.3,178.9,185.7,174.9,168.9,178.3z"/>
	</g>
	<g class="eyes-st0">
		<path class="eyes-st1" d="M108,193c-17.4,0.6,6.4-16,6.4-16h-10.1c0,0-18.2,18.1-12.2,21.5s16.1-3.2,20.3-1.2
			c4.1,2-31.5,22.8-28.8,23.6c11,2.8,6,5.1,27.1-9.1C131.8,197.5,125.4,192.4,108,193z"/>
	</g>
	<g class="eyes-st0">
		<path class="eyes-st1" d="M193.8,195.2c-17.7,0.7,6.5-17.2,6.5-17.2H190c0,0-18.5,19.4-12.4,23.1s16.4-3.5,20.6-1.3
			s-32.1,24.5-29.2,25.3c11.1,3,6.1,5.4,27.6-9.8C217.9,200,211.4,194.6,193.8,195.2z"/>
	</g>
	<path class="eyes-st2" d="M237.1,192.4c-0.2-6.2-1.2-11.2-2.9-13.1c-5.3-5.6-50.7-10.4-71.7-6.3c-2.3,0.5-4.3,3.5-5.8,8l-13.5-0.8
		c-0.1-2.3-0.3-3.9-0.7-4.5c-3.8-5.9-36.7-8.3-54.8-4.7c0.1-0.1,0.2-0.2,0.3-0.4c-3.6-0.1-9.1,0.3-12.3,3c0,0-5.2,11.4-3.8,12.6
		c0.6,0.6,2.9,1.7,5.1,2.9c-2.9,13.1-3.8,29.4-0.2,34.5c6.1,8.6,48.7,12,57.1,4.2c3.7-3.4,6.8-17.8,8.3-30.6l11.5,0.7
		c-1,12.1,0.1,25,3.7,29c7.4,8.2,60.8,8.9,70.7,1.3c4.6-3.5,7.4-13.2,8.5-23c13-3.7,41.4,0.9,41.4,0.9s5.6-8.1,2-12.8
		C277,189.4,247.3,191.5,237.1,192.4z M127.3,223.1c-6.9,6.1-41.7,3.5-46.7-3.3s0.7-39.5,7-41c14.2-3.4,43.5-1.5,46.8,3.3
		C136.5,185.2,132.8,218.2,127.3,223.1z M221.6,223.6c-7.9,6.3-51,5.7-56.9-1c-5.9-6.7-3.3-42.8,4.2-44.3
		c16.8-3.4,53.4,0.6,57.7,5.2C230.9,188,229.6,217.4,221.6,223.6z"/>
</g>
</svg>
