<?xml version="1.0" encoding="utf-8"?>
<!-- Generator: Adobe Illustrator 26.0.3, SVG Export Plug-In . SVG Version: 6.00 Build 0)  -->
<svg version="1.1" id="Layer_1" xmlns="http://www.w3.org/2000/svg" xmlns:xlink="http://www.w3.org/1999/xlink" x="0px" y="0px"
	 viewBox="0 0 384 400" style="enable-background:new 0 0 384 400;" xml:space="preserve">
<style type="text/css">
	.eyes-st0{opacity:0.5;}
	.eyes-st1{fill:#BDFFFF;}
	.eyes-st2{fill:#E8930F;}
</style>
<g>
	<g class="eyes-st0">
		<path class="eyes-st1" d="M87.6,178.7c-6.3,1.5-12,34.2-7,41s39.8,9.4,46.7,3.3c5.5-4.9,9.2-37.9,7.1-41.1
			C131.1,177.2,101.8,175.3,87.6,178.7z"/>
	</g>
	<g class="eyes-st0">
		<path class="eyes-st1" d="M168.9,178.3c-7.5,1.5-10.1,37.6-4.2,44.3c5.9,6.7,49,7.3,56.9,1c7.9-6.3,9.2-35.6,5-40.2
			C222.3,178.9,185.7,174.9,168.9,178.3z"/>
	</g>
	<g class="eyes-st0">
		<path class="eyes-st1" d="M108,193c-17.4,0.6,6.4-16,6.4-16h-10.1c0,0-18.2,18.1-12.2,21.5s16.1-3.2,20.3-1.2
			c4.1,2-31.5,22.8-28.8,23.6c11,2.8,6,5.1,27.1-9.1C131.8,197.5,125.4,192.4,108,193z"/>
	</g>
	<g class="eyes-st0">
		<path class="eyes-st1" d="M193.8,195.2c-17.7,0.7,6.5-17.2,6.5-17.2H190c0,0-18.5,19.4-12.4,23.1s16.4-3.5,20.6-1.3
			s-32.1,24.5-29.2,25.3c11.1,3,6.1,5.4,27.6-9.8C217.9,200,211.4,194.6,193.8,195.2z"/>
	</g>
	<polygon points="278,194.8 278,194.8 278,194.8 	"/>
	<path d="M168.4,175.8c-2.7,0.5-4.8,3.1-6.4,8c-3.6,10.8-4.7,34.1,0.9,40.5c4.8,5.4,23.8,6.1,29.5,6.2c0.8,0,1.5,0,2.3,0
		c11.2,0,23.9-1.3,28.5-4.9c6.2-4.9,7.8-19.4,8.1-23.7c0.2-2.6,1-16.1-2.9-20.2C223.1,176.1,185.5,172.4,168.4,175.8z M226.3,201.5
		c-0.7,9.7-3.2,17.8-6.2,20.1c-3.1,2.4-14.7,4-27.6,3.8c-14.4-0.2-24.1-2.5-25.9-4.5c-3.6-4.1-3.6-24.7,0.1-35.6
		c1.4-4.2,2.7-4.7,2.7-4.7c4.4-0.9,10-1.3,15.8-1.3c17.3,0,37.2,3.2,39.6,5.7C225.8,186.3,227,192.6,226.3,201.5z"/>
	<path d="M239.5,189.7c-0.3-4.6-1.2-9.7-3.5-12.1c-6.3-6.6-53.3-11.1-73.9-7.1c-2.8,0.6-5.2,3.1-7,7.9l-9.5-0.5
		c-0.2-2.1-0.6-2.9-1-3.5c-4.8-7.4-37.3-9.1-55.3-6.2l-1.2,0c-4.3-0.1-10.3,0.4-14,3.6l-0.4,0.4l-0.2,0.5
		c-5.9,13.1-4.3,14.5-3.2,15.5c0.4,0.4,1.3,1,3.9,2.3c-2.3,11.2-3.8,28.4,0.6,34.6c4.3,6.1,19.8,8.3,26.2,9
		c12.4,1.3,28.9,0.9,34.6-4.4c4.8-4.5,7.6-20.9,8.8-29.8l6.6,0.4c-0.6,10.6,0.2,23.6,4.5,28.4c5.8,6.4,29.2,7.3,36.2,7.4
		c0.9,0,1.9,0,2.9,0c13.7,0,29.4-1.5,35-5.9c5.8-4.5,8.3-15.7,9.3-23c13-2.7,38.5,1.3,38.7,1.3l1.6,0.2l0.9-1.3
		c0.7-1,6.5-9.8,2-15.7C280.8,190.3,278.1,186.7,239.5,189.7z M278.1,194.9L278.1,194.9L278.1,194.9z M278,194.8
		C278,194.8,278,194.8,278,194.8L278,194.8C278,194.8,278,194.8,278,194.8z M276.7,203.4c-6.4-0.9-29.1-3.9-40.8-0.6l-1.6,0.5
		l-0.2,1.7c-1.2,10.5-4.1,18.6-7.6,21.3c-8.8,6.8-61,6.1-67.3-0.9c-2.8-3.1-4.1-14.8-3.1-27.2l0.2-2.5l-16.4-1l-0.3,2.3
		c-1.8,14.6-4.8,26.6-7.5,29.1c-3.5,3.2-16.7,4.6-30.7,3.1c-13.2-1.4-21-4.6-22.7-6.9c-0.4-0.5-0.7-1.3-1-2.2
		c0.2,0.5,0.5,0.9,0.7,1.3c3.6,4.9,16.1,6.7,21.3,7.2c10.3,1.1,24.2,0.8,29.1-3.5c3.9-3.5,6.2-15.7,7.2-22.7
		c0.4-3,2.5-18.3,0.3-21.6c-4.4-6.6-35.5-7.7-49.4-4.3c-2.6,0.6-4.7,3.4-6.6,8.6c-0.3,0.8-0.6,1.7-0.9,2.7l-1.4-0.7
		c-2.1-1.1-3.2-1.7-3.9-2.1c0.3-1.8,1.9-6,3.5-9.6c1.2-0.8,2.8-1.4,4.9-1.8l-1,1.3l6.6-1.3c19.3-3.8,49.2-0.4,52.1,3.6
		c0.1,0.2,0.3,1,0.4,3.3l0.1,2.3l17.7,1l0.6-1.8c1.6-4.7,3.2-6.2,3.9-6.4c22.1-4.3,65.4,1.5,69.4,5.6c0.7,0.7,2,4,2.2,11.4l0.1,2.6
		l2.6-0.2c28.8-2.3,39.1-1.1,40.7,0.1C279.6,197.1,278,201.1,276.7,203.4z M83.9,190.5c1.9-6.9,3.8-9.1,4.3-9.3
		c5-1.2,11.4-1.7,17.8-1.7c12.2,0,24.4,1.8,26.3,3.9c1.4,4.4-2.3,34.1-6.6,37.9h0c-2.8,2.5-13.9,3.5-25.2,2.3
		c-10.4-1.1-16.6-3.5-17.8-5.2C80.3,215.1,80.9,201.3,83.9,190.5z"/>
	<path class="eyes-st2" d="M237.1,192.4c-0.2-6.2-1.2-11.2-2.9-13.1c-5.3-5.6-50.7-10.4-71.7-6.3c-2.3,0.5-4.3,3.5-5.8,8l-13.5-0.8
		c-0.1-2.3-0.3-3.9-0.7-4.5c-3.8-5.9-36.7-8.3-54.8-4.7c0.1-0.1,0.2-0.2,0.3-0.4c-3.6-0.1-9.1,0.3-12.3,3c0,0-5.2,11.4-3.8,12.6
		c0.6,0.6,2.9,1.7,5.1,2.9c-2.9,13.1-3.8,29.4-0.2,34.5c6.1,8.6,48.7,12,57.1,4.2c3.7-3.4,6.8-17.8,8.3-30.6l11.5,0.7
		c-1,12.1,0.1,25,3.7,29c7.4,8.2,60.8,8.9,70.7,1.3c4.6-3.5,7.4-13.2,8.5-23c13-3.7,41.4,0.9,41.4,0.9s5.6-8.1,2-12.8
		C277,189.4,247.3,191.5,237.1,192.4z M127.3,223.1c-6.9,6.1-41.7,3.5-46.7-3.3s0.7-39.5,7-41c14.2-3.4,43.5-1.5,46.8,3.3
		C136.5,185.2,132.8,218.2,127.3,223.1z M221.6,223.6c-7.9,6.3-51,5.7-56.9-1c-5.9-6.7-3.3-42.8,4.2-44.3
		c16.8-3.4,53.4,0.6,57.7,5.2C230.9,188,229.6,217.4,221.6,223.6z"/>
</g>
</svg>
