<?xml version="1.0" encoding="utf-8"?>
<!-- Generator: Adobe Illustrator 26.0.3, SVG Export Plug-In . SVG Version: 6.00 Build 0)  -->
<svg version="1.1" id="Layer_1" xmlns="http://www.w3.org/2000/svg" xmlns:xlink="http://www.w3.org/1999/xlink" x="0px" y="0px"
	 viewBox="0 0 384 400" style="enable-background:new 0 0 384 400;" xml:space="preserve">
<style type="text/css">
	.eyes-st0{fill:#1F1916;}
	.eyes-st1{opacity:0.5;}
	.eyes-st2{fill:#BDFFFF;}
	.eyes-st3{fill:#FFFAEF;}
</style>
<g>
	<g>
		<polygon class="eyes-st0" points="123.7,198.8 170.8,198 172.6,181.4 133.5,180.7 		"/>
		<path class="eyes-st0" d="M75.7,173.7c0,0-5.2,11.4-3.8,12.6c1.4,1.2,10.2,5.3,10.2,5.3l9.3-20.7C91.4,170.9,80.7,169.3,75.7,173.7z"/>
		<path class="eyes-st0" d="M85.3,171.5c-7.7,1.9-14.7,43.4-8.5,52.1c6.1,8.6,48.7,12,57.1,4.2c6.7-6.2,11.2-48.1,8.6-52.1
			C138.5,169.6,102.7,167.2,85.3,171.5z"/>
		<g class="eyes-st1">
			<path class="eyes-st2" d="M87.6,178.7c-6.3,1.5-12,34.2-7,41s39.8,9.4,46.7,3.3c5.5-4.9,9.2-37.9,7.1-41.1
				C131.1,177.2,101.8,175.3,87.6,178.7z"/>
		</g>
		<g class="eyes-st1">
			<path class="eyes-st2" d="M87.6,178.7c-3.4,0.8-6.6,10.5-8,20.4c3.8-0.1,7.6-0.2,11.4-0.3c13.5-0.5,27-0.9,40.5-1.1c0.9,0,1.9,0,2.8,0
				c0.9-7.6,1-14.3,0.1-15.7C131.1,177.2,101.8,175.3,87.6,178.7z"/>
		</g>
		<path class="eyes-st0" d="M162.5,173c-9.3,1.8-12.6,45.8-5.2,54c7.4,8.2,60.8,8.9,70.7,1.3c9.8-7.6,11.5-43.4,6.1-48.9
			C228.9,173.7,183.4,168.9,162.5,173z"/>
		<g class="eyes-st1">
			<path class="eyes-st2" d="M168.9,178.3c-7.5,1.5-10.1,37.6-4.2,44.3c5.9,6.7,49,7.3,56.9,1c7.9-6.3,9.2-35.6,5-40.2
				C222.3,178.9,185.7,174.9,168.9,178.3z"/>
		</g>
		<g class="eyes-st1">
			<path class="eyes-st2" d="M168.9,178.3c-3.6,0.7-6,9.2-7,18.6c22.4-0.4,44.7,0.7,67,2.7c0.3-7.4-0.5-14.1-2.3-16.1
				C222.3,178.9,185.7,174.9,168.9,178.3z"/>
		</g>
		<g class="eyes-st1">
			<path class="eyes-st2" d="M108,193c-17.4,0.6,6.4-16,6.4-16h-10.1c0,0-18.2,18.1-12.2,21.5s16.1-3.2,20.3-1.2
				c4.1,2-31.5,22.8-28.8,23.6c11,2.8,6,5.1,27.1-9.1C131.8,197.5,125.4,192.4,108,193z"/>
		</g>
		<g class="eyes-st1">
			<path class="eyes-st2" d="M193.8,195.2c-17.7,0.7,6.5-17.2,6.5-17.2H190c0,0-18.5,19.4-12.4,23.1s16.4-3.5,20.6-1.3
				s-32.1,24.5-29.2,25.3c11.1,3,6.1,5.4,27.6-9.8C217.9,200,211.4,194.6,193.8,195.2z"/>
		</g>
		<path class="eyes-st0" d="M233.7,192.6c0,0-11,20.4-0.9,14.1c10.1-6.3,45.1-0.7,45.1-0.7s5.6-8.1,2-12.8
			C276.4,188.6,234.4,192.6,233.7,192.6z"/>
	</g>
	<path class="eyes-st3" d="M221.4,183.1c-6.3-3.9-15.3-1.9-15.3-1.9c-7.8,0.9,10.6,11.3,14.5,10.4C224.5,190.8,227.7,187,221.4,183.1z"/>
</g>
</svg>
