<?xml version="1.0" encoding="utf-8"?>
<!-- Generator: Adobe Illustrator 26.0.3, SVG Export Plug-In . SVG Version: 6.00 Build 0)  -->
<svg version="1.1" id="Layer_1" xmlns="http://www.w3.org/2000/svg" xmlns:xlink="http://www.w3.org/1999/xlink" x="0px" y="0px"
	 viewBox="0 0 384 400" style="enable-background:new 0 0 384 400;" xml:space="preserve">
<style type="text/css">
	.eyes-st0{fill:#FDFDFD;}
</style>
<g>
	<path d="M241.1,191.7c0-1.3,0-4.7,0-6c0-1,0-2-0.7-2.7c-0.7-0.8-1.7-0.8-2.7-0.8l-28.3,0c-43.6,0-76.7,0-120.3,0
		c-3.3,0-4.6,0-7.9,0l-2.4,0c-2.2,0-4,1.8-4.1,4.1c0,2.9,0,12.3-0.1,16.4c0,0.8,0.2,1.4,0.7,1.9c0.7,0.7,1.6,0.7,2.1,0.7
		c0.8,0,1.6,0,2.3,0c1.2,0,2.4,0,3.6,0c0,1,0,1.9,0,2.8c0,1,0,2,0,3c0,0.4,0,1.4,0.8,2.2c0.8,0.8,1.9,0.8,2.3,0.8c1,0,0.1,0,1.1,0
		c0.8,0,1.6,0,2.4,0c0,0.9,0,1.7,0,2.6c0,1,0,2.1,0,3.1c0,0.3,0,1.4,0.8,2.2c0.8,0.8,1.8,0.8,2.2,0.8c1.2,0,2.3,0,3.5,0
		c0.7,0,0.5,0,1.2,0c0,0.9,0,1.8,0,2.7c0,1,0,2,0,3c0,0.3,0,1.4,0.8,2.2c0.8,0.8,1.8,0.8,2.2,0.8c13.4,0,16.4,0,28.6,0
		c0.3,0,1.4,0,2.1-0.8c0.7-0.8,0.7-1.8,0.7-2.1c0-0.9,0-1.8,0-2.8c0-1,0-2,0-3.1c1,0,1.9,0,2.9,0c0.9,0,1.9,0,2.9,0
		c0.4,0,1.4,0,2.2-0.8c0.8-0.8,0.8-1.8,0.7-2.2c0-0.9,0-1.9,0-2.8c0-1,0-2,0-3c0.9,0,1.9,0,2.8,0c0.9,0,1.9,0,2.9,0
		c0.4,0,1.4,0,2.2-0.7c0.8-0.8,0.8-1.9,0.8-2.2c0-1.9,0-3.9,0-5.9c0-1.4,0-2.8,0-4.2c3.2,0.3,6.2,0.3,9.1,0c0,1.6,0,3.2,0,4.7
		c0,1.8,0,3.5,0,5.3c0,0.4,0,1.4,0.8,2.2c0.8,0.8,1.9,0.8,2.2,0.8c1,0,2.1,0,3.1,0c0.9,0,1.8,0,2.7,0c0,1,0,2.1,0,3.1
		c0,0.9,0,1.9,0,2.8c0,0.3,0,1.3,0.7,2.1c0.8,0.8,1.7,0.7,2.1,0.7c1,0,2,0,3,0c1,0,1.9,0,2.9,0c0,0.9,0,1.7,0,2.5c0,1,0,2.1,0,3.1
		c0,0.3,0,1.4,0.7,2.2c0.8,0.8,1.8,0.8,2.2,0.8c14.4,0,22,0,33.3,0c0,0,0,0,0,0c0.6,0,1.5-0.1,2.2-0.8c0.8-0.8,0.8-1.8,0.7-2.3
		c0-1.1,0-2.2,0-3.3c0-0.8,0-1.5,0-2.3c0.8,0,1.6,0,2.4,0c1.1,0,2.2,0,3.3,0c0.3,0,1.4,0,2.2-0.8c0.8-0.8,0.8-1.8,0.8-2.2
		c0-1,0-2,0-3c0-0.9,0-1.8,0-2.8c0.8,0,1.5,0,2.3,0c1,0,2.1,0,3.2,0c0.7,0,1.7,0,2.4-0.8c0.9-0.9,0.8-2,0.8-2.4c0-0.9,0-1.9,0-2.8
		c0-0.9,0-1.8,0-2.7c0.8,0,1.6,0,2.4,0c1.1,0,2.1,0,3.1,0c0.4,0,1.5,0.1,2.4-0.7c0.8-0.8,0.8-1.9,0.8-2.4
		C241.1,198.8,241.1,195.2,241.1,191.7z"/>
	<g>
		<path class="eyes-st0" d="M189.8,213.1c0-0.3,0-0.6-0.3-0.8c-0.2-0.2-0.6-0.3-0.9-0.3c-2.7,0-5,0-7.1,0c-0.3,0-0.7,0-1,0.3
			c-0.3,0.3-0.3,0.7-0.3,1c0,2.5,0,4.7,0,6.9c0,0.3,0,0.7,0.3,1c0.3,0.3,0.7,0.3,1,0.3c0.8,0,1.6,0,2.4,0c0.3,0,0.7,0,1,0
			c0,0,0,0,0.1,0c0.3,0,0.7,0,1,0c0.8,0,1.6,0,2.5,0c0,0,0.1,0,0.1,0c0.3,0,0.6,0,0.8-0.3c0.2-0.2,0.3-0.5,0.3-0.9
			C189.8,218,189.8,215.7,189.8,213.1z"/>
		<path class="eyes-st0" d="M197.7,203.2c-2.4,0-4.8,0-7.1,0c0,0,0,0,0,0c-0.2,0-0.5,0-0.7,0.1c0.1-0.2,0.1-0.4,0.1-0.6c0-2.1,0-4.4,0-7
			c0-0.3,0-0.6-0.3-0.9c-0.2-0.2-0.4-0.3-0.8-0.3c-2.1,0-4.4,0-7.2,0c-0.4,0-0.7,0.1-0.9,0.3c-0.2,0.2-0.3,0.5-0.3,0.9
			c0,2.8,0,5,0,7.1c0,0.2,0,0.6,0.3,0.8c0.2,0.2,0.6,0.3,0.8,0.2c0.9,0,1.7,0,2.6,0l1,0c0.4,0,0.7,0,1.1,0c0.8,0,1.7,0,2.5,0
			c0,0,0.1,0,0.1,0c0.2,0,0.4,0,0.6-0.1c-0.1,0.2-0.1,0.4-0.1,0.6c0,0.8,0,1.6,0,2.4c0,0.4,0,0.7,0,1.1c0,0.3,0,0.7,0,1
			c0,0.8,0,1.6,0,2.4c0,0.5,0.1,0.8,0.3,1c0.3,0.3,0.7,0.3,1,0.3c0,0,0,0,0,0c2.2,0,4.5,0,7,0c0.2,0,0.7,0,0.9-0.3
			c0.2-0.2,0.3-0.5,0.3-0.8c0-2.4,0-4.8,0-7.2c0-0.4-0.1-0.7-0.3-0.9C198.4,203.3,198.1,203.2,197.7,203.2z"/>
		<path class="eyes-st0" d="M180.6,208l0-1c0-0.9,0-1.8,0-2.7c0-0.2,0-0.6-0.2-0.8c-0.2-0.2-0.6-0.3-0.8-0.3c-2.1,0-4.4,0-7.1,0
			c-0.3,0-0.6,0-0.9,0.2c0.1-0.2,0.1-0.4,0.1-0.7c0-2.1,0-4.4,0-7c0-0.3,0-0.7-0.3-0.9c-0.3-0.3-0.6-0.3-0.9-0.3c-2.5,0-4.8,0-6.9,0
			c-0.3,0-0.6,0.1-0.8,0.2c-0.2,0.2-0.2,0.5-0.2,0.9c0,0.8,0,1.7,0,2.5l0,0.9c0,0,0,0,0,0.1c0,0.3,0,0.7,0,1c0,0.8,0,1.6,0,2.4
			c0,0.3,0,0.7,0.3,1c0.2,0.2,0.6,0.3,0.9,0.3c0,0,0.1,0,0.1,0c2,0,4.1,0,6.6,0c0.3,0,0.7,0,0.9-0.2c-0.1,0.2-0.1,0.4-0.1,0.6
			c0,2.5,0,5,0,7.2c0,0.4,0.1,0.7,0.3,0.9c0.2,0.2,0.5,0.3,0.9,0.3c2.6,0,4.9,0,7.1,0c0,0,0,0,0,0c0.2,0,0.6,0,0.8-0.3
			c0.2-0.2,0.3-0.6,0.2-0.8c0-0.8,0-1.7,0-2.5C180.6,208.8,180.6,208.4,180.6,208z"/>
		<path class="eyes-st0" d="M208,213.1c0-0.3,0-0.6-0.3-0.9c-0.2-0.2-0.6-0.3-0.9-0.3c-2.3,0-4.7,0-7.1,0c-0.2,0-0.6,0-0.9,0.3
			c-0.2,0.2-0.3,0.6-0.2,0.9c0,0.8,0,1.6,0,2.4c0,0.4,0,0.7,0,1.1c0,0.3,0,0.7,0,1c0,0.8,0,1.6,0,2.4c0,0.3,0,0.7,0.3,1
			c0.3,0.3,0.6,0.3,0.9,0.3c0,0,0,0,0,0c2,0,4.2,0,6.9,0c0.3,0,0.7,0,1-0.3c0.2-0.2,0.3-0.5,0.3-0.9
			C207.9,218.1,207.9,215.8,208,213.1z"/>
		<path d="M250.2,183.5c0-0.3,0-0.7-0.3-0.9c-0.3-0.3-0.7-0.3-1-0.3c-2.5,0-12.4,0-15,0c-0.3,0-0.7,0-0.9,0.3
			c-0.3,0.3-0.3,0.7-0.3,1c0,0.9,0,1.8,0,2.7c0,0.4,0,0.8,0,1.2c0,0.4,0,0.8,0,1.1c0,0.9,0,4.2,0,5.1c0,0.3,0,0.8,0.3,1.1
			c0.3,0.3,0.7,0.3,1,0.3c0,0,0,0,0.1,0c2.2,0,11.8,0,14.7,0c0.4,0,0.8,0,1.1-0.3c0.2-0.2,0.3-0.5,0.3-1
			C250.1,191.3,250.1,186.4,250.2,183.5z"/>
		<path class="eyes-st0" d="M126.8,212.3c-0.2-0.2-0.6-0.3-1-0.3c-0.8,0-1.7,0-2.5,0c-0.3,0-0.7,0-1,0c-0.3,0-0.7,0-1,0
			c-0.8,0-1.6,0-2.5,0c-0.3,0-0.6,0-0.9,0.2c-0.2,0.2-0.3,0.6-0.3,0.9c0,2.1,0,4.3,0,7.1c0,0.3,0,0.7,0.3,0.9
			c0.2,0.2,0.4,0.3,0.8,0.3c0,0,0,0,0,0c2.1,0,4.3,0,7.1,0c0,0,0,0,0,0c0.3,0,0.6,0,0.8-0.3c0.2-0.3,0.3-0.6,0.3-0.9
			c0-2.7,0-5,0-7.1C127.1,212.7,127,212.5,126.8,212.3z"/>
		<path class="eyes-st0" d="M117.8,203.5c-0.2-0.2-0.5-0.3-1-0.3c-0.8,0-1.6,0-2.4,0c-0.3,0-0.7,0-1,0c-0.4,0-0.7,0-1.1,0
			c-0.8,0-1.7,0-2.6,0c-0.2,0-0.5,0-0.8,0.2c0-0.1,0.1-0.3,0.1-0.4c0-2.2,0-4.4,0-6.6l0-0.8c0-0.2,0-0.6-0.3-0.8
			c-0.2-0.2-0.4-0.3-0.7-0.2c-2.4,0-2.9,0-5.3,0c0,0,0,0,0,0c-0.2,0-0.5,0-0.8,0.3c-0.2,0.2-0.3,0.4-0.2,0.7c0,2.9,0,5.2,0,7.3
			c0,0.2,0,0.5,0.2,0.8c0.2,0.2,0.5,0.2,0.7,0.2c0,0,0,0,0.1,0c0.9,0,1.7,0,2.6,0l1.1,0l-0.9,0c0.9,0,1.8,0,2.7,0
			c0.2,0,0.5,0,0.7-0.1c-0.1,0.2-0.1,0.4-0.1,0.6c0,2.3,0,4.7,0,7.2c0,0.4,0.1,0.7,0.3,0.9c0.2,0.2,0.6,0.3,0.8,0.3c0,0,0,0,0,0
			c2.2,0,4.5,0,7,0c0.4,0,0.7-0.1,0.9-0.3c0.3-0.3,0.3-0.7,0.3-1c0-2.3,0-4.6,0-6.9C118.1,204.2,118,203.8,117.8,203.5z"/>
		<path class="eyes-st0" d="M108.9,217.7c0-0.3,0-0.7,0-1c0,0,0,0,0-0.1c0-0.3,0-0.7,0-1c0-0.8,0-1.7,0-2.6c0-0.2,0-0.6-0.2-0.8
			c-0.2-0.2-0.6-0.3-0.8-0.3c-2.4,0-2.8,0-5.2,0c-0.3,0-0.6,0-0.8,0.3c-0.2,0.2-0.3,0.6-0.2,0.8c0,2.6,0,4.9,0,7.2
			c0,0.4,0.1,0.7,0.3,0.8c0.2,0.2,0.6,0.3,0.9,0.3c0,0,0,0,0,0c2.2,0,2.5,0,4.9,0c0.3,0,0.8,0,1.1-0.3c0.2-0.2,0.3-0.6,0.3-1
			C108.9,219.3,108.9,218.5,108.9,217.7z"/>
		<path class="eyes-st0" d="M87.9,194.6C87.7,194.6,87.9,194.6,87.9,194.6L87.9,194.6z"/>
		<path class="eyes-st0" d="M101.8,204.4c0-0.4-0.1-0.7-0.3-0.9c-0.3-0.3-0.6-0.3-0.9-0.3c-1.9,0-3.4,0-6,0c-0.3,0-0.6,0-0.9,0.2
			c0.1-0.2,0.1-0.4,0.1-0.6c0-2.6,0-4.9,0-7.2c0-0.4-0.1-0.6-0.3-0.8c-0.2-0.2-0.6-0.3-0.9-0.3c-0.8,0-1.6,0-2.4,0l-1,0l-1,0
			c-0.1,0-0.1,0-0.2,0c0,0-0.3,0,0,0c0,0,0,0-0.3,0c-0.3,0-0.7,0-0.9,0.2c-0.2,0.2-0.3,0.4-0.3,0.8c0,2.2,0,4.6,0,7.2
			c0,0.3,0,0.6,0.2,0.8c0.2,0.2,0.5,0.2,0.8,0.2c2.5,0,2.9,0,5.2,0c0,0,0,0,0,0c0.2,0,0.5,0,0.7-0.2c-0.1,0.2-0.1,0.5-0.1,0.7
			c0,0.8,0,1.6,0,2.4c0,0.4,0,0.7,0,1.1l0,1c0,0.9,0,1.7,0,2.6c0,0.3,0,0.6,0.3,0.9c0.2,0.2,0.5,0.3,0.8,0.3c0,0,0,0,0,0
			c2.2,0,3.5,0,6,0c0.5,0,0.7-0.1,0.9-0.3c0.2-0.2,0.3-0.5,0.3-0.9C101.7,209.2,101.7,206.8,101.8,204.4z"/>
	</g>
</g>
</svg>
