<?xml version="1.0" encoding="utf-8"?>
<!-- Generator: Adobe Illustrator 26.0.3, SVG Export Plug-In . SVG Version: 6.00 Build 0)  -->
<svg version="1.1" id="Layer_1" xmlns="http://www.w3.org/2000/svg" xmlns:xlink="http://www.w3.org/1999/xlink" x="0px" y="0px"
	 viewBox="0 0 384 400" style="enable-background:new 0 0 384 400;" xml:space="preserve">
<style type="text/css">
	.eyes-st0{fill:#E86D0F;}
	.eyes-st1{fill:#E8000F;}
	.eyes-st2{opacity:0.5;}
	.eyes-st3{fill:#BDFFFF;}
	.eyes-st4{fill:#E8930F;}
	.eyes-st5{fill:#E8BD0F;}
	.eyes-st6{fill:#1F1916;}
</style>
<g>
	<path d="M95.9,224.8L95.9,224.8c-1.2-0.2-2.2-1.1-2.5-2.3c-2.4-12.9,0.8-31.4,2.3-38.7c0.3-1.3,1.3-2.2,2.6-2.3
		c2.2-0.2,5.3-0.4,9.2-0.5l0-5c-15.5-0.3-27.7-0.1-34.3,0.4l-2.3,0.2V230l2.2,0.3c16.7,2.3,46.4,5.8,72.6,5.8
		c3.9,0,7.8-0.1,11.5-0.2l0-5C129.9,229.9,106.1,226.3,95.9,224.8z M90.9,182.7c-1.6,7.6-4.9,26.8-2.3,40.6c0.3,1.6,1.1,3,2.1,4.1
		c-5.4-0.6-10.4-1.2-14.6-1.8v-44.5c3.9-0.2,9.1-0.3,15.5-0.4C91.3,181.4,91,182.1,90.9,182.7z"/>
	<path class="eyes-st0" d="M91,222.9c-2.5-13.3,0.7-32,2.3-39.7c0.5-2.3,2.4-4.1,4.8-4.3c2.3-0.2,5.5-0.4,9.4-0.5
		c-14.4-0.3-27.1-0.2-34,0.4v49c17.1,2.3,54.6,6.8,83.7,5.5c-27.4-0.9-51.3-4.5-61.7-6.1C93.3,226.9,91.5,225.2,91,222.9z"/>
	<path class="eyes-st1" d="M92.4,179c-2.5,0.2-4.5,2-5,4.4c-1.6,7.7-5,26.5-2.4,40c0.4,2.3,2.3,4,4.7,4.4c17.6,2.6,105.9,9.9,133.1,3.6
		c1.9-0.4,3.4-1.8,4-3.6c3.4-10.1,2.6-39.6,0.6-43.5C225.4,180.3,113.9,176.9,92.4,179z"/>
	<g class="eyes-st2">
		<path class="eyes-st3" d="M93.2,182.4c-2.5,0.2-4.5,2-5,4.4c-1,4.6-2.6,13.1-3.1,22.1c6.3,0.1,12.7-0.2,18.8-0.6
			c14.6-0.9,28.9-3.3,43.1-6.9c16.3-4.2,32.5-9.8,47.6-17.4C159.4,182,107.2,181,93.2,182.4z"/>
	</g>
	<g class="eyes-st2">
		<path class="eyes-st3" d="M91.2,179c-2.5,0.2-4.5,2-5,4.4c-1.6,7.7-5,26.5-2.4,40c0.4,2.3,2.3,4,4.7,4.4c0.7,0.1,1.6,0.2,2.5,0.3
			c-1.1-16.5,1.6-33.6,5.5-49.4C94.4,178.7,92.6,178.8,91.2,179z"/>
	</g>
	<path d="M278.1,182.7c-1.4-1-3.2-1.2-4.9-0.6c-8,2.9-27.6,2.5-27.8,2.5l-2.5-0.1l-0.7,47.6l24.4-1.2c6-0.3,11-5.1,11.6-11.1
		c1-10.8,2.1-25.1,2.1-32.9C280.3,185.2,279.5,183.6,278.1,182.7z M273.2,219.3c-0.3,3.5-3.3,6.4-6.8,6.5l-19,1l0.5-37.2
		c0,0,0,0,0,0c5.8,0,20-0.3,27-2.9c0.1,0,0.2,0,0.3,0c0.1,0.1,0.1,0.1,0.1,0.2C275.3,194.5,274.2,208.6,273.2,219.3z"/>
	<path class="eyes-st4" d="M274.1,184.4c-8.5,3.1-28.7,2.7-28.7,2.7l-0.6,42.4l21.7-1.1c4.8-0.2,8.7-4,9.2-8.8c1-10.2,2.1-24.8,2.1-32.6
		C277.8,185,275.9,183.7,274.1,184.4z"/>
	<path d="M220.7,166.4c-18.5-1.5-41.3-2.5-57.1-3.1c-21.1-0.8-82.6-2.6-87.3-0.4l-0.1,0.1c-11.3,5.8-12.1,7.7-12.3,8.4
		c-3.8,9.1-7.4,35.7-1.1,56.3l0.4,1.3l1.3,0.4c6.3,1.8,91,15.6,145.4,15.6c9.7,0,18.5-0.4,25.6-1.5l0.6-0.1l0.5-0.4
		c3.6-2.6,7.5-5.1,11.5-7.4l0.9-0.5l0.3-1c4.4-15.7,3.6-56,0.6-62C249.1,170.4,248.2,168.6,220.7,166.4z M80.8,221.9
		c-2.6-13.7,0.9-33.1,2.5-40.8c0.3-1.4,1.5-2.4,2.9-2.6c4.8-0.5,13.3-0.7,23.8-0.7c38.7,0,104.7,2.8,112.6,5.4
		c1.4,5.1,2.4,32.8-1,43c-0.3,1-1.2,1.8-2.3,2.1c-27.1,6.4-115.8-0.9-135.8-3.8C82.1,224.2,81,223.2,80.8,221.9z M244.7,231.7
		c-3.7,2.1-7.3,4.4-10.6,6.8c-26.3,3.6-73.7-0.6-111.6-5.4c34,2.5,79.2,4.3,97.9,0c2.7-0.6,5-2.7,5.9-5.4c3.7-11.1,3-42.5,0.5-47.4
		c-0.7-1.5-1.4-2.7-21.5-4.3c-10.8-0.8-25.9-1.6-42.5-2.2c-29.5-1.1-65.5-1.5-77.1-0.4c-3.6,0.4-6.6,3-7.3,6.5
		c-1.7,8-5.2,28.2-2.5,42.8c0.3,1.5,1,2.8,1.9,3.9c-5-0.8-8.7-1.5-10.7-1.9c-5.2-18.8-2.1-43,1.3-51.3c1-1,5.8-3.9,9.9-6
		c3.8-0.9,40-0.8,83.5,0.8c52.4,1.9,79.6,4.6,83.8,6.4C247.7,180.7,248.6,216.3,244.7,231.7z"/>
	<path class="eyes-st0" d="M77.3,165.2c0,0-10.5,5.4-11.2,7.1c-3.5,8.4-7.2,34.6-1.1,54.6c6.9,1.9,122.9,20.9,170,14.1
		c3.8-2.8,7.7-5.3,11.8-7.6c4.3-15.5,3.5-54.9,0.8-60.2C244.5,166.9,83.2,162.5,77.3,165.2z M223.9,227c-0.6,1.9-2.2,3.3-4.1,3.7
		c-27.9,6.6-118.6-1.1-136.7-3.8c-2.4-0.4-4.4-2.2-4.8-4.6c-2.7-14.1,0.8-33.8,2.5-41.8c0.5-2.5,2.6-4.3,5.1-4.6
		c22-2.2,136.5,1.4,138.6,5.5C226.6,185.6,227.4,216.4,223.9,227z"/>
	<path d="M197.7,178.9c-10.2-0.8-24.6-1.6-40.4-2.1c-28.1-1-62.2-1.5-73.3-0.3c-3.5,0.4-6.4,2.9-7.1,6.3c-1.6,7.7-5,27-2.4,41
		c0.6,3.3,3.3,5.9,6.7,6.4c10.8,1.6,59.4,6.1,96.1,6.1c14.4,0,27-0.7,34.8-2.5c2.7-0.6,4.8-2.6,5.7-5.2c3.5-10.6,2.8-40.7,0.4-45.4
		C217.5,181.6,216.9,180.4,197.7,178.9z M213.1,227c-0.3,0.9-1.1,1.7-2.1,1.9c-25.7,6.1-110-0.8-128.9-3.7c-1.3-0.2-2.3-1.1-2.5-2.4
		c-2.5-13.1,0.8-31.7,2.3-39c0.3-1.3,1.3-2.2,2.7-2.4c4.5-0.5,12.5-0.7,22.5-0.7c36.6,0,99.2,2.7,107,5.2
		C215.3,190.9,216.2,217.3,213.1,227z"/>
	<path d="M233.5,174.1c-13.3-2.8-55.5-5-91.4-6c-19.6-0.5-37.9-0.7-51.4-0.5c-23.8,0.3-25.4,1.7-26.4,2.5l-0.7,0.5l-0.2,0.8
		c-0.4,1.7-9.1,41.9-1.9,65.3l0.4,1.3l1.3,0.4c5.4,1.5,72.8,9.2,123.9,9.2c19.7,0,37.1-1.1,47.5-4.2l0.5-0.2l0.4-0.3
		c4.6-4,5.9-20.3,6.1-33.4c0.2-12.9-0.6-28.8-2.5-32.7C238.5,175.5,237,174.8,233.5,174.1z M236.7,209.5c-0.3,17.1-2.3,27-4.1,29.3
		c-36,10.2-151.5-2.1-166.7-4.9c-5.4-20,0.8-53.2,2.2-60.1c6.1-1.4,37.5-2,83.2-0.5c49.4,1.6,78.9,4.3,83.5,6.2
		C235.8,182.6,236.9,194.6,236.7,209.5z"/>
	<path class="eyes-st4" d="M65.9,172c0,0-9,41-2,64c7,2,133,16,170,5c7-6,6-57,3-63S71.9,167,65.9,172z M215.4,227.8
		c-0.6,1.8-2.1,3.1-3.9,3.6c-26.6,6.3-112.7-1.1-129.9-3.6c-2.3-0.3-4.2-2.1-4.6-4.4c-2.5-13.5,0.8-32.3,2.3-40
		c0.5-2.4,2.5-4.1,4.9-4.4c20.9-2.1,129.7,1.3,131.7,5.3C218,188.1,218.8,217.6,215.4,227.8z"/>
	<path class="eyes-st5" d="M65.9,172c0,0-7,32.8-3.7,56.2c5.8-2.5,8.6-4.8,14.5-7c-1.9-13.3,1.2-30.6,2.7-37.9c0.5-2.4,2.5-4.1,4.9-4.4
		c20.9-2.1,129.7,1.3,131.7,5.3c0.4,0.9,0.8,3.1,1.1,6.1c7.2-0.7,14.3-1.4,21.5-1.9c-0.4-5.1-1-9-1.7-10.4
		C233.9,172,71.9,167,65.9,172z"/>
	<g>
		<path d="M283.2,198.6c-3.5-2.3-14.2-1.7-20.7-1.1c-2.1-0.1-3.8,1.1-4.5,3.4c-1.5,4.3,0.2,13.5,3.5,15.5c1.5,0.9,5.2,1.1,9.3,1.1
			c4.6,0,9.8-0.3,12.7-0.6l1.8-0.1l0.1-1.8c0.5-9,0.1-14.3-1.3-15.8C283.8,198.9,283.5,198.7,283.2,198.6z M281.4,213
			c-7.8,0.5-16.4,0.6-17.8-0.1c-0.8-0.7-2.3-5.1-2.1-8.9c0.1-1.8,0.6-2.5,0.7-2.5c0,0,0,0,0,0c0,0,0,0,0.1,0l0.2,0l0.2,0
			c8.5-0.8,16.8-0.6,18.1,0.4l0.3,0.3C281.5,203.8,281.6,208.5,281.4,213z"/>
		<path class="eyes-st6" d="M282.2,200.4c-2.6-2.6-19.7-0.9-19.7-0.9c-5.1-0.6-2.9,13.4,0,15.1c2,1.2,11.2,0.9,16.7,0.6
			c2.4-0.1,4.2-2.1,4.3-4.4C283.6,206.5,283.5,200.4,282.2,200.4z"/>
		<path class="eyes-st4" d="M271.6,212.6c1.2,0,2.5,0,3.6-0.1V201c-1.2-0.1-2.4-0.3-3.6-0.3V212.6z"/>
		<path class="eyes-st4" d="M279.9,202.3c-0.4-0.4-1.3-0.7-2.4-0.9v11c1.9-0.1,3.2-0.2,3.2-0.2C280.8,210,281.2,202.3,279.9,202.3z"/>
	</g>
</g>
</svg>
