<?xml version="1.0" encoding="utf-8"?>
<!-- Generator: Adobe Illustrator 26.0.3, SVG Export Plug-In . SVG Version: 6.00 Build 0)  -->
<svg version="1.1" id="Layer_1" xmlns="http://www.w3.org/2000/svg" xmlns:xlink="http://www.w3.org/1999/xlink" x="0px" y="0px"
	 viewBox="0 0 384 400" style="enable-background:new 0 0 384 400;" xml:space="preserve">
<style type="text/css">
	.eyes-st0{fill:#342A28;}
	.eyes-st1{opacity:0.1;fill:#FFFAEF;}
	.eyes-st2{fill:#E8930F;}
	.eyes-st3{fill:#FFFAEF;}
</style>
<g>
	<path class="eyes-st0" d="M207.5,174.5c-1,0-1.9,0.1-2.9,0.1c0,0,0-0.1,0-0.1H157h-8.1h-39c0,0,0,0.1,0,0.1c-1-0.1-1.9-0.1-2.9-0.1
		c-19.9,0-31.5,16.1-31.5,36c0,19.9,16.1,36,36,36c18.5,0,33.7-13.9,35.7-31.9l0,0c2.2-13.5,10-12.2,10-12.2s7.8-1.4,10,12.2l0,0
		c2,17.9,17.2,31.9,35.7,31.9c19.9,0,36-16.1,36-36C239,190.6,227.4,174.5,207.5,174.5z"/>
	<path class="eyes-st1" d="M82.2,233.7c0,0-0.6,0.7-0.9,1c6.6,6.9,15.8,11.2,26.1,11.2c2.6,0,7.5-0.8,7.5-0.8l29.6-71.2h-32.7L82.2,233.7
		z"/>
	<path class="eyes-st1" d="M123,240.6c0,0.5,6.8-4.3,6.8-4.3l23.4-58.8l-5.3,0.3C147.9,177.9,123,240.2,123,240.6z"/>
	<path class="eyes-st1" d="M200.2,241.7c3,4.1,5.3,0.5,5.3,0.5l17.1-62.8l-5.3,0.3C217.3,179.7,199.9,241.3,200.2,241.7z"/>
	<path class="eyes-st1" d="M171.9,211.9c0.7,1.6,1.4,3.7,1.8,6.2l0,0c1.4,12.4,9.1,23,19.8,28.8c0.3-1.7,0.7-3.3,1-5
		c3.8-19.3,11.9-38.6,16.3-57.7c0.6-2.7,1.3-5.5,1.9-8.2h-27.6C181,188,176.3,199.9,171.9,211.9z"/>
	<g>
		<path class="eyes-st2" d="M207.5,169.8H107c-22.4,0-36.1,18.2-36.1,40.6c0,22.4,18.2,40.6,40.6,40.6c20.6,0,38-15.4,40.4-35.8
			c1.2-7.4,4-8.2,4.7-8.3l0.5,0.1l0.8-0.1c1.3,0,3.7,1.8,4.8,8.3c2.4,20.4,19.8,35.8,40.4,35.8c22.4,0,40.6-18.2,40.6-40.6
			C243.7,188,229.9,169.8,207.5,169.8z M203,241.8c-15.9,0-29.3-11.9-31.1-27.7l-0.5-4.2H171c-3.3-11.3-10.8-12.2-13.2-12.2
			c-0.2,0-0.4,0-0.6,0c-0.2,0-0.4,0-0.6,0c-2.4,0-9.9,0.9-13.2,12.2H143l-0.5,4.2c-1.8,15.8-15.1,27.7-31.1,27.7
			c-17.3,0-31.3-14-31.3-31.3s9.5-31.3,26.8-31.3h100.6c17.3,0,26.8,14,26.8,31.3S220.3,241.8,203,241.8z"/>
		<path d="M207.5,168.1H107c-22.3,0-37.8,17.4-37.8,42.3c0,23.3,19,42.3,42.3,42.3c21.5,0,39.5-16,42-37.2c0.8-4.9,2.3-6.5,3-6.8
			l0.5,0.1l0.9-0.2c0.5,0.2,2.2,1.6,3.1,6.8c2.5,21.3,20.6,37.3,42,37.3c23.3,0,42.3-19,42.3-42.3
			C245.4,185.5,229.8,168.1,207.5,168.1z M203,249.4c-19.7,0-36.4-14.8-38.7-34.4c-1.2-7.1-4.1-9.6-6.4-9.7l-0.2,0l-0.6,0.1
			l-0.4-0.1l-0.3,0c-1.4,0.1-4.9,1.4-6.2,9.8c-2.3,19.6-18.9,34.3-38.7,34.3c-21.5,0-39-17.5-39-39c0-22.9,14.2-39,34.5-39h100.6
			c20.3,0,34.5,16,34.5,39C242,231.9,224.5,249.4,203,249.4z"/>
		<path d="M207.5,177.5H107c-17,0-28.5,13.3-28.5,33c0,18.2,14.8,33,33,33c16.8,0,30.9-12.6,32.8-29.2l0.3-2.7h0.2l0.4-1.2
			c2.9-10.2,9.6-11,11.5-11c0.2,0,0.4,0,0.5,0l0.1,0l0.1,0c0.1,0,0.3,0,0.5,0c2,0,8.6,0.8,11.5,11l0.4,1.2h0.2l0.3,2.7
			c1.9,16.7,16,29.2,32.8,29.2c18.2,0,33-14.8,33-33C236,190.7,224.6,177.5,207.5,177.5z M203,240.1c-15.1,0-27.7-11.3-29.4-26.2
			l-0.6-5.7h-0.7c-3.8-11.3-11.9-12.2-14.4-12.2c-0.2,0-0.4,0-0.6,0c-0.2,0-0.4,0-0.6,0c-2.5,0-10.6,0.9-14.4,12.2h-0.7l-0.6,5.7
			c-1.7,15-14.3,26.2-29.4,26.2c-16.3,0-29.6-13.3-29.6-29.6c0-14.7,7.8-29.6,25.1-29.6h100.6c17.3,0,25.1,14.9,25.1,29.6
			C232.6,226.8,219.3,240.1,203,240.1z"/>
	</g>
	<path class="eyes-st3" d="M206.8,183.1c-9.9-1.4,10.1,25.2,15.2,25.2c5,0,10.1-5.8,3.3-15.5C218.4,183.1,206.8,183.1,206.8,183.1z"/>
</g>
</svg>
