<?xml version="1.0" encoding="utf-8"?>
<!-- Generator: Adobe Illustrator 26.0.3, SVG Export Plug-In . SVG Version: 6.00 Build 0)  -->
<svg version="1.1" id="Layer_1" xmlns="http://www.w3.org/2000/svg" xmlns:xlink="http://www.w3.org/1999/xlink" x="0px" y="0px"
	 viewBox="0 0 384 400" style="enable-background:new 0 0 384 400;" xml:space="preserve">
<style type="text/css">
	.eyes-st0{fill:#81467D;}
	.eyes-st1{opacity:0.2;fill:#3F3F3F;}
	.eyes-st2{fill:#E8930F;}
	.eyes-st3{fill:#FFFFFF;}
</style>
<g>
	<g>
		<path d="M170.1,208l0.1-1.8l-1.8-0.4c-0.5-0.1-0.7-0.2-1-0.3c-0.7-0.3-1.4-0.6-3-0.7c-4.8-0.4-22.9-0.2-28.5,0.9l-1.5,0.3
			l-0.2,1.6c-0.5,4.2-1.3,8.5-2.6,12.9l-1.5,5.2l4.6-2.7c5.2-3.1,19.8-4.6,24.1-4.3c4,0.3,6.5,2.4,6.8,2.7l3.4,3.7l3.5-2l-0.6-1.7
			C170.5,217.1,169.9,212.7,170.1,208z M159.2,214.3c-3.8-0.3-15,0.7-22.3,3.1c0.6-2.6,1.1-5.2,1.4-7.7c6.3-0.8,21.2-1,25.8-0.6
			c0.9,0.1,1.1,0.2,1.5,0.3c0.1,0,0.1,0.1,0.2,0.1c0,2.4,0.2,4.7,0.5,7C164.7,215.5,162.3,214.5,159.2,214.3z"/>
	</g>
	<path d="M111.6,183.5h85v-12.3l-86.8,1.5L111.6,183.5z M192.3,175.6v3.7h-77l-0.4-2.4L192.3,175.6z"/>
	<path class="eyes-st0" d="M201.5,177.3c-17.6,0-35.7,3.4-35.7,25.1c0,18.7,21.4,49.1,49.8,42.5c17.2-4,22.6-29.2,22.6-47.9
		C238.1,178.3,219,177.3,201.5,177.3z"/>
	<path class="eyes-st1" d="M224.1,200.5c-9.4,7.2-19.5,13.8-29.5,20.1c-5.5,3.5-11.2,6.8-17.1,9.6c9,10.7,22.5,18.3,38.2,14.7
		c17.2-4,22.6-29.2,22.6-47.9c0-3.2-0.6-5.8-1.5-8C232.9,193.1,228.7,197,224.1,200.5z"/>
	<path d="M228.6,174.1L228.6,174.1c-8.1-3-18.3-3.2-27.2-3.2c-5,0-15.4,0-24.5,3.8c-11.7,4.9-17.6,14.2-17.6,27.7
		c0,10.2,5.1,22.5,13.4,32.2c9.7,11.4,22.1,17.6,35,17.6c3.1,0,6.3-0.4,9.4-1.1c9.9-2.3,17.6-10.1,22.3-22.4c4.6-12,5.3-25,5.3-31.8
		C244.6,186,238.9,177.9,228.6,174.1z M207.7,239.3c-20.2,0-35.4-22.4-35.4-36.9c0-11.2,5-18.6,29.2-18.6c22.9,0,30.2,3.2,30.2,13.2
		c0,18.1-5.5,38.8-17.6,41.6C212,239.1,209.8,239.3,207.7,239.3z M235.1,227.1c-4.2,10.9-10.8,17.7-19.1,19.7
		c-2,0.5-4.1,0.8-6.1,0.9l0-3.8h-2.1c2.4,0,4.8-0.3,7.3-0.9c15.5-3.6,21.1-27,21.1-46c0-16.4-16.4-17.7-34.7-17.7
		c-23.6,0-33.7,6.9-33.7,23.2c0,16.3,17.1,41.3,39.7,41.4h-2.1l0,3.8c-10.7-0.7-21.1-6.3-29.3-16c-7.6-8.9-12.3-20.1-12.3-29.3
		c0-24.3,21.5-27.1,37.6-27.1c8.5,0,18.2,0.2,25.6,3h0c8.6,3.2,13,9.5,13,18.7C240.1,203.4,239.4,215.8,235.1,227.1z"/>
	<polygon points="101.4,235 101.4,235 101.4,235 	"/>
	<path d="M127.5,175.9c-7.8-3.8-16.6-4-20.9-4.1c-7.6-0.2-16.2-0.2-23.1,2.5c-8.8,3.4-13.6,10.8-13.6,21c0,6.2,0.6,18.3,4.4,29.5
		c4,11.6,10.6,18.9,18.9,21.3c2.7,0.7,5.3,1.2,8,1.2c0.3,0,0.5,0,0.8,0c10.7,0,21.1-5.6,29.1-15.7c7-8.8,11.3-20.1,11.3-29.5
		C142.5,189.4,137.4,180.7,127.5,175.9z M127.7,228.7c-7.4,9.3-16.7,14.3-26.3,14.1c-2.3-0.1-4.6-0.4-6.9-1.1
		c-6.9-1.9-12.5-8.3-16-18.5c-3.7-10.6-4.2-22.1-4.2-28c0-8.5,3.6-14.1,10.8-16.9c4.8-1.9,10.9-2.3,16.8-2.3c1.6,0,3.1,0,4.6,0.1
		c13.5,0.3,31.5,3.4,31.5,25.7C138.1,210.4,134.1,220.7,127.7,228.7z"/>
	<path d="M106.7,179.6c-11.9-0.3-20.9,0.5-25.8,5.2c-2.6,2.5-3.9,6-3.9,10.6c0,17.5,4.7,39.3,17.9,43c2.1,0.6,4.3,0.9,6.4,1h0
		c0.2,0,0.4,0,0.6,0c7.2,0,14.2-3.1,20.3-9.1c7.9-7.7,13.2-19.2,13.2-28.6C135.4,186.7,126.8,180.1,106.7,179.6z M119.2,227.2
		c-3.8,3.7-9.9,8-17.7,7.8h0h0c-1.8,0-3.5-0.3-5.3-0.8c-10.1-2.8-14.7-22.1-14.7-38.8c0-3.4,0.8-5.8,2.6-7.5c4-3.9,13.2-4.2,22.6-4
		c20.3,0.5,24.4,7.5,24.4,17.8C131,209.9,126.1,220.4,119.2,227.2z"/>
	<path class="eyes-st2" d="M227.9,176.2c-7.7-2.9-17.7-3.1-26.4-3.1c-9.9,0-39.9,0-39.9,29.3c0,9.7,4.9,21.5,12.8,30.8
		c9.2,10.9,21.1,16.8,33.3,16.8h0c2.9,0,5.9-0.3,8.8-1c9.1-2.1,16.2-9.4,20.7-21.1c4.5-11.7,5.1-24.4,5.1-31
		C242.3,186.9,237.3,179.7,227.9,176.2z M214.6,240.8c-2.3,0.5-4.6,0.8-6.9,0.8c-21.5,0-37.7-23.8-37.7-39.2
		c0-14.8,9.1-20.9,31.5-20.9c21,0,32.4,2.5,32.4,15.5C233.9,216.5,228,237.7,214.6,240.8z"/>
	<g>
		<path class="eyes-st0" d="M106.6,177.9c-14.8-0.4-30.9,0.2-30.9,17.5c0,17.3,4.5,40.7,19,44.8c23.9,6.7,42-21,42-38.3
			C136.7,181.8,121.4,178.2,106.6,177.9z"/>
		<path class="eyes-st1" d="M107.4,214.7c-7.1,5.9-15.3,11.8-23.9,15.9c2.8,4.7,6.5,8.1,11.3,9.5c23.9,6.7,42-21,42-38.3
			c0-7.1-1.9-12.2-5.1-15.7C125.5,197.1,116.9,206.7,107.4,214.7z"/>
		<path class="eyes-st2" d="M106.6,174c-7.4-0.2-15.8-0.2-22.3,2.3c-8,3.1-12.2,9.6-12.2,18.9c0,6.1,0.6,17.9,4.3,28.7
			c3.8,10.9,9.8,17.8,17.5,19.9c2.5,0.7,5,1.1,7.5,1.1c10.3,0.2,20.3-5,28.1-14.9c6.7-8.4,10.8-19.2,10.8-28.2
			C140.3,174.8,114.9,174.2,106.6,174z M101.4,237.2c-1.9,0-3.9-0.3-5.9-0.9c-11.3-3.1-16.3-22.8-16.3-40.9c0-12,9.6-14.1,27.4-13.6
			c18.9,0.5,26.6,6.2,26.6,20C133.2,216,119.5,237.7,101.4,237.2z"/>
		<path class="eyes-st3" d="M103,184.7c-13.6-4-27.5,16.2-18.5,17.3C93.6,203.1,111.1,187.1,103,184.7z"/>
	</g>
	<path class="eyes-st3" d="M195,185c-11.4-3.1-23.1,12.8-15.5,13.6C187.1,199.5,201.8,186.9,195,185z"/>
	<path class="eyes-st2" d="M168,207.9c-1.9-0.4-1.4-0.8-3.7-1c-5-0.4-22.7-0.2-27.9,0.9c-0.5,4.4-1.4,8.8-2.7,13.2
		c5.7-3.4,20.9-4.9,25.3-4.6c5.2,0.4,8.2,3.4,8.2,3.4l2.3,2.5l0.4-0.2C168.3,217.4,167.7,212.7,168,207.9z"/>
	<polygon class="eyes-st2" points="113.4,181.4 194.4,181.4 194.4,173.4 112.3,174.8 	"/>
</g>
</svg>
