<?xml version="1.0" encoding="utf-8"?>
<!-- Generator: Adobe Illustrator 26.0.3, SVG Export Plug-In . SVG Version: 6.00 Build 0)  -->
<svg version="1.1" id="Layer_1" xmlns="http://www.w3.org/2000/svg" xmlns:xlink="http://www.w3.org/1999/xlink" x="0px" y="0px"
	 viewBox="0 0 384 400" style="enable-background:new 0 0 384 400;" xml:space="preserve">
<style type="text/css">
	.eyes-st0{fill:#1F1916;}
	.eyes-st1{fill:#332924;}
</style>
<g>
	<path d="M278.9,167.3c-0.6-0.5-1.3-0.7-2.1-0.5c-58.9,12.3-172-4.2-191.9-8c-0.9-0.2-1.8,0.2-2.4,0.9c-1.7,2.1-3.3,4.5-4.7,7
		c-0.2,0.4-0.3,0.8-0.3,1.3c0.1,1.8,0.1,3.5,0.1,5.4c0,0.8,0.2,2,1.5,3.1c8.7,7.5,81.1,15.7,95.5,17.3c31.1,3.4,65.1,6.1,85.7,6.1
		c7.7,0,13.5-0.4,16.6-1.2c0.9-0.3,1.6-1,1.8-2c0.5-3.2,1.6-6.2,2.6-9.1C283.7,180.5,286.2,173.2,278.9,167.3z M276.6,185.9
		c-0.9,2.5-1.8,5.3-2.5,8.2c-11.6,2-51.8-0.2-100-5.5c-54.2-6-87.1-12.5-91.4-15.8c0-1.5,0-3-0.1-4.4c0.9-1.6,1.9-3.1,2.9-4.5
		c23.4,4.2,132.4,19.7,191.1,8C280,175.3,278.9,179.2,276.6,185.9z"/>
	<path d="M230.2,188.4c-0.2,0-0.4,0-0.7,0l-0.6,0c-2.3,0-4.6,0-6.9,0c-16.7,0-34.1,0-50.4-3.4c-0.3-0.1-0.6-0.1-0.9,0
		c-3.8,0.5-6.2,0.9-6.3,0.9c-1,0.2-1.8,0.9-2,1.9c-0.1,0.3-6,28.4,24.6,39.2c3.9,1.4,7.7,2,11.4,2c6,0,11.7-1.8,16.7-5.4
		c11.9-8.5,17.4-24.6,17.4-32.8C232.7,189.5,231.6,188.4,230.2,188.4z M212.4,219.6c-6.9,4.9-14.8,5.8-23.5,2.7
		c-22.6-8-22.3-26.1-21.7-31.7c1-0.2,2.3-0.4,4-0.6c16.7,3.4,34.1,3.4,51,3.4c1.8,0,3.6,0,5.4,0
		C226.6,201.2,221.4,213.2,212.4,219.6z"/>
	<path class="eyes-st0" d="M277.4,169.2c-58.5,12.2-170.6-3.8-192.8-8c-1.7,2-3.1,4.2-4.4,6.6c0.1,1.6,0.1,3.4,0.1,5.6
		c-1.1,9.6,174.1,28.9,196.1,22.8C278.2,184.9,285.8,176.1,277.4,169.2z"/>
	<path class="eyes-st0" d="M171.2,187.5c-3.8,0.5-6.2,0.9-6.2,0.9s-5.9,26.1,23,36.3c28.2,9.9,42.2-21,42.2-33.8c-0.4,0-0.8,0-1.2,0
		C209.8,190.8,190,191.3,171.2,187.5z"/>
	<path class="eyes-st1" d="M194.6,222c16.5,0.8,23-27.7,23-27.7l-46.2-1.7C171.4,192.6,170.8,220.8,194.6,222z"/>
	<path class="eyes-st1" d="M90.9,165c-9.4-2-11.7,2.3-0.8,4.3c0,0,132,27.3,186.7,9c0.8-1.6-3.5-6.2-3.5-6.2S194.3,184.9,90.9,165z"/>
	<g>
		<path class="eyes-st0" d="M201.3,201.3c-4,1,2.7,15.7,2.7,15.7S203.5,200.8,201.3,201.3z"/>
		<path class="eyes-st0" d="M194.1,210.9c0,0,15.4-5.2,14.3-7.1C206.3,200.2,194.1,210.9,194.1,210.9z"/>
	</g>
</g>
</svg>
