<?xml version="1.0" encoding="utf-8"?>
<!-- Generator: Adobe Illustrator 26.0.3, SVG Export Plug-In . SVG Version: 6.00 Build 0)  -->
<svg version="1.1" id="Layer_1" xmlns="http://www.w3.org/2000/svg" xmlns:xlink="http://www.w3.org/1999/xlink" x="0px" y="0px"
	 viewBox="0 0 384 400" style="enable-background:new 0 0 384 400;" xml:space="preserve">
<style type="text/css">
	.eyes-st0{fill:#EB3A27;}
	.eyes-st1{fill:#FF9A8F;}
	.eyes-st2{fill:#59BABA;}
	.eyes-st3{opacity:0.5;}
	.eyes-st4{fill:#BDFFFF;}
	.eyes-st5{fill:#43A1A1;}
</style>
<g>
	<path d="M138.9,198.3c0,0.2-0.4,5.6,0.9,14.5l0.9,5.8l3.6-4.7c0.5-0.6,2-2.2,3.7-2.2c0,0,0,0,0.1,0c1.2,0,2.4,0.8,3.7,2.3l4,4.8
		l1.5-22.8h-18.2L138.9,198.3z M152,201l-0.4,6.5c-1.2-0.5-2.4-0.8-3.6-0.8c-1.4,0-2.6,0.4-3.6,1c-0.3-2.9-0.4-5.1-0.4-6.7H152z"/>
	<g>
		<path d="M239.3,160.8c-13.7-8.5-46.6,4-53.1,6.5c-20.5,8.2-31.5,19.6-33.7,34.8c-1.4,9.7,1.9,19.9,9.1,28.2
			c7.3,8.3,17.5,13.3,27.4,13.3c0.1,0,0.2,0,0.3,0c10.6-0.1,21.5-6,31.5-17c15.9-17.5,25.4-43,24.4-55.9
			C244.9,166.4,242.9,163,239.3,160.8z M217.2,223.3c-6.3,6.9-16.2,15.2-27.8,15.3c-8.6,0.1-17.5-4.2-23.9-11.6
			c-6.2-7.1-9.1-15.9-7.9-24.1c2-13.5,11.7-23.3,30.6-30.8c18.1-7.2,40.1-12.2,48.5-6.9c2.2,1.4,3.3,3.3,3.6,6.1
			C241.2,182.8,231.9,207,217.2,223.3z"/>
		<path class="eyes-st0" d="M187.2,169.7c-18,7.2-29.9,17.2-32.1,32.8c-2.8,19.3,15.2,38.8,34.3,38.6c30.1-0.3,55-50.4,53.3-70.1
			C241.2,152,204,163,187.2,169.7z"/>
		<path class="eyes-st1" d="M213,168.3c13.8,0.9,31.2,7.7,24.7-1C229.1,155.8,199.5,167.4,213,168.3z"/>
		<path d="M218.8,175.1c-9.8-5.5-23.5-2.6-33.3,0.8c-15.2,5.3-25.5,16.5-27.7,29.9c-1.1,6.8,1.2,14,6.4,20
			c6.1,7.2,15.5,11.6,24.5,11.6c0.1,0,0.1,0,0.2,0c11.4-0.1,22.2-5.7,30.5-16c7.8-9.7,11.9-22,10.1-30.6
			C227.9,183.5,224.3,178.2,218.8,175.1z M215.4,218.3c-4.2,5.2-13.3,14-26.5,14.1c-7.5,0-15.5-3.7-20.7-9.8
			c-4.2-4.9-6.1-10.6-5.2-15.9c1.8-11.6,10.9-21.3,24.3-25.9c4.5-1.6,11.6-3.6,18.3-3.6c3.9,0,7.6,0.7,10.8,2.4
			c4.2,2.4,6.9,6.4,8.1,12.3C225.9,199,222.2,209.8,215.4,218.3z"/>
		<path class="eyes-st2" d="M186.4,178.3c-15,5.3-24.1,16.3-26,27.9c-2.3,14.4,12.7,28.8,28.5,28.7c24.7-0.1,41.2-28.7,38-43.5
			C222.4,169.7,200.3,173.4,186.4,178.3z"/>
		<g class="eyes-st3">
			<path class="eyes-st4" d="M187.5,181.7c-9.5,3.3-16.7,9-21.1,15.6c1.4,3.2,3.8,6,7.3,8.2c10.6,6.5,27,8.9,36.8,1.3
				c6.5-5.1,11.1-13.2,13.3-21.8C215.3,174.7,198.8,177.8,187.5,181.7z"/>
		</g>
		<path class="eyes-st5" d="M191.8,224c-11.2-1.2-23-5-31.5-12.4c1.5,12.4,14.8,23.4,28.6,23.3c13.1-0.1,23.9-8.3,30.8-18.2
			C212.1,222.3,202.7,225.2,191.8,224z"/>
		<g class="eyes-st3">
			<path class="eyes-st4" d="M197.3,178.6c-8.2,0.6-6.9,11.2,2.2,16.5c9.2,5.5,18.3-4.6,16.2-12.1C213.7,175.6,197.3,178.6,197.3,178.6z"
				/>
		</g>
	</g>
	<g>
		<path d="M114.6,167.1c-7.5-3.3-32.8-13.7-44.4-7c-3.3,1.9-5.2,5-5.7,9c-1.3,12,6.7,37,20.3,53.7c8,9.8,16.9,15.5,25.8,16.4
			c0.9,0.1,1.8,0.1,2.6,0.1c8,0,16.1-3.6,22.3-10.2c7.4-7.7,10.9-18.1,9.5-28C143,186.4,133,175.2,114.6,167.1z M131.9,225.7
			c-5.8,6.1-13.6,9.2-20.9,8.5c-7.5-0.8-15.3-5.8-22.4-14.5c-12.4-15.3-20.4-39-19.2-50c0.3-2.5,1.3-4.1,3.2-5.2
			c1.8-1.1,4.4-1.5,7.5-1.5c8.8,0,21.5,3.9,32.5,8.7c16.9,7.5,25.7,17.1,27.5,30.2C141.3,210.2,138.2,219.1,131.9,225.7z"/>
		<path class="eyes-st0" d="M113.6,169.4c-14.4-6.4-44.8-16.5-46.6,0c-1.9,17.4,17.4,64.6,43.8,67.3c17.4,1.7,34.5-16.1,31.8-35.2
			C140.4,186.4,129.6,176.5,113.6,169.4z"/>
		<path class="eyes-st0" d="M142.2,212.4c0,0,6.4-7.2,13.5,0l1.1-13.9h-15.7C141.1,198.5,140.6,203.7,142.2,212.4z"/>
		<path class="eyes-st1" d="M71.7,167.6c-5.5,7.5,8.9,1.9,20.4,1.3C103.6,168.4,79,157.5,71.7,167.6z"/>
		<path d="M116.1,175c-8.3-3.3-19.9-6.3-28.4-1.8c-5,2.6-8.3,7.4-9.8,14.2c-1.8,8.1,1.8,20.5,8.8,30c6.8,9.3,15.9,14.9,25.4,15.7
			c0.7,0.1,1.4,0.1,2.1,0.1c7.3,0,14.7-3.2,20-8.9c5.3-5.7,7.8-13,6.7-20C139.1,191.6,129.5,180.4,116.1,175z M130.6,220.9
			c-4.8,5.1-11.6,7.8-18.1,7.3c-8.1-0.7-15.9-5.6-21.8-13.7c-6.1-8.3-9.5-19.3-8-26c1.2-5.4,3.6-8.9,7.2-10.9c2.4-1.2,5.1-1.7,8-1.7
			c5.5,0,11.5,1.8,16.3,3.7c11.8,4.7,20.2,14.5,21.8,25.5C136.9,210.6,134.9,216.4,130.6,220.9z"/>
		<path class="eyes-st2" d="M115.1,177.3c-12.1-4.8-30.6-8.6-34.9,10.7c-2.9,13.3,10.3,40.8,32,42.7c14.3,1.3,28.3-11.8,26.2-25.9
			C136.8,193.5,128.5,182.7,115.1,177.3z"/>
		<g class="eyes-st3">
			<path class="eyes-st4" d="M84.6,182.5c3,2.7,6.4,5,9.8,7c6.1,3.7,13.5,7.7,20.9,7.3c5.7-0.3,11.2-3.6,14.6-8.5
				c-3.6-3.6-8.2-6.6-13.6-8.8C106.2,175.5,91.5,172.2,84.6,182.5z"/>
		</g>
		<path class="eyes-st5" d="M120.7,212.4c-8.9,1.5-18,0.9-26.3-2.4c-4.3-1.7-8.3-3.8-12.2-6.1c4.5,12.4,15.5,25.6,30.1,26.9
			c14,1.2,27.8-11.3,26.3-25.2C133.2,209.1,126.9,211.3,120.7,212.4z"/>
		<g class="eyes-st3">
			<path class="eyes-st4" d="M113.1,179.6c0,0-12.2-7.3-15.8-1.4c-3.6,6,1.9,14.5,10.7,12.4C116.8,188.6,119.7,182.5,113.1,179.6z"/>
		</g>
	</g>
</g>
</svg>
