<?xml version="1.0" encoding="utf-8"?>
<!-- Generator: Adobe Illustrator 26.0.3, SVG Export Plug-In . SVG Version: 6.00 Build 0)  -->
<svg version="1.1" id="Layer_1" xmlns="http://www.w3.org/2000/svg" xmlns:xlink="http://www.w3.org/1999/xlink" x="0px" y="0px"
	 viewBox="0 0 384 400" style="enable-background:new 0 0 384 400;" xml:space="preserve">
<style type="text/css">
	.eyes-st0{fill:#F5E7D5;}
	.eyes-st1{fill:#211F1B;}
	.eyes-st2{opacity:0.5;fill:#FFFFFF;}
	.eyes-st3{opacity:0.16;fill:#171717;}
	.eyes-st4{fill:#43A1A1;}
	.eyes-st5{opacity:0.5;}
	.eyes-st6{fill:#BDFFFF;}
	.eyes-st7{fill:#EB3A27;}
	.eyes-st8{fill:#EB5F50;}
</style>
<g>
	<g>
		<path class="eyes-st0" d="M239.8,180c-3-1.5-160-8.5-160-8.5c-4.5-1-6.8,44-3.3,46.6c7,5.3,51.9,5.5,58.9,4c3.6-0.8,4.8-6.4,5.2-11.8
			c0.3-5.3,5-9.3,10.3-8.8l0.5,0c4.7,0.5,8.2,4.3,8.4,9c0.2,5.3,0.9,11.7,3.1,14.4c4,5,62.1,5.9,69.7,3.9
			C240.1,226.9,242.9,181.5,239.8,180z"/>
		<path class="eyes-st1" d="M240.3,179.1c-3-1.5-133.9-7.4-160.3-8.6c-1-0.2-1.8,0.5-2.5,2c-3.4,7.4-5.3,43.5-1.6,46.4
			c7.4,5.6,52.6,5.7,59.7,4.2c3.5-0.7,5.5-5,6-12.7c0.1-2.3,1.2-4.4,3-5.9c1.8-1.5,4-2.2,6.3-1.9l0.5,0c4.1,0.4,7.4,3.9,7.5,8.1
			c0.3,7.6,1.4,12.6,3.3,15c3,3.8,30.1,5.3,50,5.3c10,0,18.2-0.4,20.7-1.1c5.1-1.4,7.5-17.1,8.4-26.3
			C241.3,202.6,243.5,180.7,240.3,179.1z M235.7,222.6c-1.5,4.5-2.9,5.3-3.4,5.4c-7.5,2-65.1,0.9-68.6-3.6c-1.6-2-2.6-6.9-2.8-13.8
			c-0.2-5.2-4.2-9.5-9.3-10l-0.5,0c-0.4,0-0.7-0.1-1.1-0.1c-2.4,0-4.8,0.9-6.7,2.5c-2.2,1.8-3.5,4.4-3.7,7.3
			c-0.4,6.5-2,10.3-4.4,10.8c-7.4,1.6-51.7,1-58.1-3.8c-1.6-1.6-1.8-19.9,0-34.3c1.1-8.6,2.3-10.2,2.6-10.4l0,0
			c42.8,1.9,154.3,7.1,159.5,8.4C241,183.5,239.9,210,235.7,222.6z"/>
	</g>
	<path class="eyes-st2" d="M219.8,178.8c-2.6-1.1-139.3-6.4-139.3-6.4c-1.2-0.2-2.5,2.9-2.5,4.5l142.4,3.1
		C220.3,179.3,220.1,178.9,219.8,178.8z"/>
	<path class="eyes-st3" d="M239.8,180c-0.5-0.2-5-0.6-12.2-1.1c-2.4,6.2-5.1,12.1-8.9,17.5c-9.2,13.1-23.3,18.1-38.9,13.9
		c-8.7-2.4-15.3-8.4-23.6-11.4c-6.9-2.5-14.2-1.4-21.2,0.2c-18.4,4.2-40.7,13.5-60.1,11.8c0.2,3.8,0.7,6.5,1.5,7.1
		c7,5.3,51.9,5.5,58.9,4c3.6-0.8,4.8-6.4,5.2-11.8c0.3-5.3,5-9.3,10.3-8.8l0.5,0c4.7,0.5,8.2,4.3,8.4,9c0.2,5.3,0.9,11.7,3.1,14.4
		c4,5,62.1,5.9,69.7,3.9C240.1,226.9,242.9,181.5,239.8,180z"/>
	<g>
		<path class="eyes-st0" d="M273.1,171.8l-33.8,8.3v17.4l31.9-9.2c0,0,2.9,12.1,8.7,8.7c3.5-2.1,3.2-12.8,2.1-19.4
			C281.3,173.5,277.2,170.8,273.1,171.8z"/>
		<path class="eyes-st1" d="M279.4,172c-1.9-1.2-4.3-1.6-6.5-1.1l-33.8,8.3l0.5,1.9l33.8-8.3c1.7-0.4,3.5-0.1,4.9,0.8
			c1.5,1,2.4,2.4,2.7,4.2c1.3,7.7,1,16.9-1.6,18.4c-0.9,0.5-1.7,0.6-2.4,0.3c-2.6-1.1-4.3-6.4-4.8-8.3l-0.2-1l-32.9,9.5l0.6,1.9
			l30.9-8.9c0.7,2.2,2.5,7.3,5.7,8.7c0.5,0.2,1.1,0.4,1.7,0.4c0.8,0,1.7-0.2,2.5-0.7c4.6-2.7,3.4-15.7,2.6-20.5
			C282.6,175.2,281.3,173.2,279.4,172z"/>
	</g>
	<path class="eyes-st3" d="M281.6,176.2c-9.5,4-19.2,7.2-29.4,8.8c-4,0.6-8-1-9.2-5.2c-0.1-0.2-0.1-0.4-0.1-0.6l-3.5,0.9v17.4l31.9-9.2
		c0,0,2.9,12.1,8.7,8.7c3.5-2.1,3.2-12.8,2.1-19.4C281.9,177.1,281.8,176.7,281.6,176.2z"/>
	<path class="eyes-st4" d="M87.6,180.1c-4.8,3.9-4.3,27.5-1.4,30.9s38.2,4.3,40.6,2.9c2.4-1.4,7.7-25.6,3.4-30.4
		C125.8,178.7,87.6,180.1,87.6,180.1z"/>
	<g class="eyes-st5">
		<path class="eyes-st6" d="M118.8,180.7c-7,11.9-15.7,22.4-25.1,32.6c2.9,0.4,6.4,0.7,10,1c1.1-1.3,2.2-2.6,3.2-3.9
			c7.6-9,16.6-16.8,23.4-26.3c-0.1-0.2-0.2-0.3-0.3-0.4C128.8,182.1,124.4,181.2,118.8,180.7z"/>
	</g>
	<g class="eyes-st5">
		<path class="eyes-st6" d="M97.6,180c-4.6,4.4-9.1,8.9-13.6,13.4c-0.2,4.6,0,9.3,0.5,12.8c9-9.2,18.5-18,28.8-26
			C108,180,102.3,179.9,97.6,180z"/>
	</g>
	<path class="eyes-st7" d="M176.5,185.9c-4.8,3.9-7.7,28-4.8,31.4c2.9,3.4,50.7,6.3,53.2,4.8s6.3-28,1.9-32.9
		C222.4,184.5,176.5,185.9,176.5,185.9z"/>
	<path class="eyes-st8" d="M182.2,219.9c4.3,0.6,9.4,1.1,14.6,1.5c6.5-10.1,14.9-23.9,21.1-34.6c-3.4-0.4-7.5-0.7-11.7-0.8
		C200.2,196.7,190.3,209.3,182.2,219.9z"/>
	<path class="eyes-st8" d="M184.8,186.2c-4.6,5.7-9.2,11.4-13.7,17.3c-0.2,4.6-0.1,9.3,0.2,13.3c0.1,0.2,0.2,0.4,0.3,0.5
		c0.2,0.3,0.8,0.5,1.5,0.8c8.6-11.2,17.7-21.8,27.5-31.5C195.3,186.2,189.5,186.2,184.8,186.2z"/>
</g>
</svg>
