<?xml version="1.0" encoding="utf-8"?>
<!-- Generator: Adobe Illustrator 26.0.3, SVG Export Plug-In . SVG Version: 6.00 Build 0)  -->
<svg version="1.1" id="Layer_1" xmlns="http://www.w3.org/2000/svg" xmlns:xlink="http://www.w3.org/1999/xlink" x="0px" y="0px"
	 viewBox="0 0 384 400" style="enable-background:new 0 0 384 400;" xml:space="preserve">
<style type="text/css">
	.eyes-st0{fill:#1A171B;}
	.eyes-st1{fill:#342E36;}
	.eyes-st2{fill:#110F12;}
	.eyes-st3{fill:#FFFFFF;}
	.eyes-st4{opacity:0.2;fill:#342E36;}
</style>
<g>
	<path class="eyes-st0" d="M154.6,157.7c-6.9-0.2-88.8-2.3-83,27c0,0-0.3,27.6,17.1,44.7c17.4,17.1,53.2-7.2,58.3-10.7
		c3.6-2.4,5.8-2.6,6.8-2.5c0,0,0,0.1,0,0.1c0,0,0.1,0,0.3-0.1c0.2,0,0.3,0.1,0.3,0.1c0,0,0-0.1,0-0.1c1-0.1,3.1,0.1,6.7,2.6
		c5.1,3.6,38.9,32.4,56.5,15.7c17.7-16.8,19.5-48.3,19.5-48.3C243.4,157,161.5,157.6,154.6,157.7z"/>
	<path class="eyes-st1" d="M154.6,157.7c-6.9-0.2-88.8-2.3-83,27c0,0,4.4-14.2,30.9-19.7c18.1-3.8,63.6-2.1,81.6,1.8
		c8.9,1.9,43.1,8.6,48.7,6.4C216.4,157.2,160.3,157.6,154.6,157.7z"/>
	<path class="eyes-st2" d="M207,194.6c-4.3-0.3-8.2-1.7-12.3-2.8c-18.1-5-37-6.7-55.7-7.5c-17.5-0.8-32.6,6.2-48,13.8
		c-4.5,2.2-10,4.4-15.1,7.1c3.2,11.2,4.1,15.8,12.8,24.3c17.4,17.1,53.2-7.2,58.3-10.7c3.6-2.4,5.8-2.6,6.8-2.5c0,0,0,0.1,0,0.1
		c0,0,0.1,0,0.3-0.1c0.2,0,0.3,0.1,0.3,0.1c0,0,0-0.1,0-0.1c1-0.1,3.1,0.1,6.7,2.6c5.1,3.6,38.9,32.4,56.5,15.7
		c15.5-14.8,18.1-39.8,19.2-46.8c-5,2-10.2,3.7-15.5,5.1C216.7,194.1,211.9,194.9,207,194.6z"/>
	<path class="eyes-st3" d="M193.9,181c-15.1,2.9-25.3,24.8-25.3,24.8c17.5,7.4,45.9,4.4,45.9,4.4S209.4,183.1,193.9,181z"/>
	<path class="eyes-st4" d="M193.9,181c-10.3,2-18.4,12.9-22.4,19.6c0.7-0.2,1.4-0.3,2.1-0.5c7.5-1.5,15-2.9,22.5-3.7
		c4.5-0.5,9-0.7,13.5-0.8C206.4,188.8,201.4,182,193.9,181z"/>
	<path class="eyes-st4" d="M210,210.5c-1.8,0-3.7,0.1-5.5,0.2C206.6,210.7,208.5,210.6,210,210.5z"/>
	<path class="eyes-st3" d="M107.6,180C96.3,182.2,91,202.7,91,202.7c8.9,9.3,32.5,2.1,38.7,1.7C128.5,202.8,118.9,177.8,107.6,180z"/>
	<path class="eyes-st4" d="M107.6,180c-8,1.5-13,12.2-15.2,18.4c6.8-1.8,14.3-2.3,20.8-2.7c3.9-0.3,7.8-0.5,11.7-0.7
		C120.8,187.6,114.5,178.7,107.6,180z"/>
</g>
</svg>
