<?xml version="1.0" encoding="utf-8"?>
<!-- Generator: Adobe Illustrator 26.0.3, SVG Export Plug-In . SVG Version: 6.00 Build 0)  -->
<svg version="1.1" id="Layer_1" xmlns="http://www.w3.org/2000/svg" xmlns:xlink="http://www.w3.org/1999/xlink" x="0px" y="0px"
	 viewBox="0 0 384 400" style="enable-background:new 0 0 384 400;" xml:space="preserve">
<style type="text/css">
	.eyes-st0{fill:#BABDC4;}
	.eyes-st1{opacity:0.5;fill:#9D1B1D;}
	.eyes-st2{opacity:0.16;}
	.eyes-st3{opacity:0.5;}
	.eyes-st4{fill:#F2F6FF;}
	.eyes-st5{fill:#9D1B1D;}
</style>
<g>
	<path d="M145.7,135.8c0,0,31.5,3.8,35.5,1.9c-2.4-15.1,21.3-21.3,21.3-21.3l1.1-6.7c0,0-27.2-2.7-28.8-3
		C147.6,110,145.7,135.8,145.7,135.8z"/>
	<path d="M277.4,169.2c0,0,0.3,5.1,0.8,5.9c-12.4,11-38.2,7.8-38.2,7.8s-10.8,33.4,2.4,33.4s42.8-7.8,42.8-7.8s3.8-26.9,2.7-32.6
		S277.4,169.2,277.4,169.2z"/>
	<g>
		<path class="eyes-st0" d="M106.2,128.8c-12.7,4.6-18,19.1-18,19.1c-0.5,1.1-26.9,81.6-12.7,100.7c14.3,19.1,130.8,27.2,161.5,5.4
			c13.5-8.1,17.5-101.5,11.8-111.7C243.2,132,112.1,126.7,106.2,128.8z M112.6,229.6C99,229.6,88,216.9,88,201.3S99,173,112.6,173
			c13.6,0,24.6,12.7,24.6,28.3S126.2,229.6,112.6,229.6z M196,236.5c-15.8,0-28.5-14.7-28.5-32.8c0-18.1,12.8-32.8,28.5-32.8
			s28.5,14.7,28.5,32.8C224.6,221.9,211.8,236.5,196,236.5z"/>
		<path d="M196,168.5c-17.1,0-31,15.8-31,35.3s13.9,35.3,31,35.3c17.1,0,31-15.8,31-35.3S213.1,168.5,196,168.5z M196,234
			c-14.4,0-26-13.6-26-30.3s11.7-30.3,26-30.3s26,13.6,26,30.3S210.4,234,196,234z"/>
		<path d="M177.8,128.4c-30.2-2.1-68.5-3.4-72.5-1.9c-13.6,4.9-19.3,20-19.5,20.6l0,0c-1.8,5.1-27.3,82.9-12.3,103
			c8.8,11.7,46.7,17.6,76.5,19c5.3,0.3,10.8,0.4,16.4,0.4c27.9,0,57.9-3.5,72-13.5c9-5.6,12.7-38,14.2-57
			c1.8-23.5,1.9-51.8-1.5-58.1C249.8,138.9,246.7,133.1,177.8,128.4z M247.6,198.7c-2.6,33.3-7.8,50.7-11.9,53.1l-0.2,0.1
			c-13.3,9.4-46,14.1-85.4,12.2c-36.1-1.7-66.7-8.9-72.7-17C65,230.3,87.9,155.5,90.4,149l0.1-0.2c0.1-0.1,5.2-13.5,16.5-17.6
			c3.1-0.8,34.7-0.2,70.3,2.2c62.6,4.3,68.9,9.5,69.4,10.1C248.8,147.5,249.7,171.1,247.6,198.7z"/>
		<path d="M112.6,170.5c-15,0-27.1,13.8-27.1,30.8s12.2,30.8,27.1,30.8s27.1-13.8,27.1-30.8S127.6,170.5,112.6,170.5z M112.6,227.1
			c-12.2,0-22.1-11.6-22.1-25.8s9.9-25.8,22.1-25.8c12.2,0,22.1,11.6,22.1,25.8S124.8,227.1,112.6,227.1z"/>
	</g>
	<g>
		<path class="eyes-st0" d="M106.2,128.8c-12.7,4.6-18,19.1-18,19.1c-0.5,1.1-26.9,81.6-12.7,100.7c14.3,19.1,130.8,27.2,161.5,5.4
			c13.5-8.1,17.5-101.5,11.8-111.7C243.2,132,112.1,126.7,106.2,128.8z M112.6,229.6C99,229.6,88,216.9,88,201.3S99,173,112.6,173
			c13.6,0,24.6,12.7,24.6,28.3S126.2,229.6,112.6,229.6z M196,236.5c-15.8,0-28.5-14.7-28.5-32.8c0-18.1,12.8-32.8,28.5-32.8
			s28.5,14.7,28.5,32.8C224.6,221.9,211.8,236.5,196,236.5z"/>
	</g>
	<path class="eyes-st1" d="M105.5,146.3c0,0-2.7-7.9-7.4-12.6c-6.9,6-10,14.3-10,14.3c-0.3,0.7-10.2,30.7-14.7,58.5
		c2.3,1.3,5.1,1.9,7.8,2.1c2.5,0.1,5.1-0.1,7.4-0.9c-0.4-2-0.6-4.1-0.6-6.3c0-5.9,1.6-11.4,4.3-15.9c-1.6-3.5-2.5-7.6-0.4-10.8
		c3.4-5.2,11.9-3.8,16.4-8.1c2.7-2.6,3.2-6.8,2.3-10.4C109.7,152.5,107.6,149.3,105.5,146.3z"/>
	<path class="eyes-st2" d="M218.7,134.7c-0.6,6.1-1.2,12.3-2.2,18.4c-1.2,7.7-2.9,15.4-5.2,23c8,5.8,13.3,16,13.3,27.7
		c0,18.1-12.8,32.8-28.5,32.8c-8,0-15.2-3.7-20.3-9.8c-3.6,2.3-7.5,4.2-11.5,6c-16.9,7.2-35.4,9.6-53.6,10.1
		c-12.8,0.4-25.8-0.4-38.4-2.8c0.7,3.5,1.8,6.4,3.4,8.6c14.3,19.1,130.8,27.2,161.5,5.4c13.5-8.1,17.5-101.5,11.8-111.7
		C247.2,139.3,235.2,136.8,218.7,134.7z"/>
	<g class="eyes-st3">
		<path class="eyes-st4" d="M107.9,136.3c-12.2,4.4-17.3,18.4-17.3,18.4c-0.3,0.6-10.4,31.4-14.5,58.7c3.9,1,7.8,1.8,11.8,2.5
			c-0.3-1.2-0.5-2.3-0.7-3.5c-2.6-16.8,3.1-41.2,24.9-38.8c12,1.3,20.3,9.6,23.3,20.5c1.6,3.6,2.4,7.7,2.4,12c0,3.2-0.5,6.2-1.4,9.1
			c8.2-1.5,16.3-3.6,24.3-6.3c1.1-3.6,0.7-7.7,1.4-11.7c1.2-6.5,7.5-18.4,11.9-23.1c4-4.2,25.3-8.3,29-12.9c3.7-4.6,2.6-4.4,3-10.2
			c0.3-4.2,0.4-8.4,0.7-12.5C169.8,135.4,111.2,135.1,107.9,136.3z"/>
	</g>
	<path class="eyes-st1" d="M230.7,225.3c-1.9,0.1-4,0.8-5.1,2.3c-2.6,3.5,0.4,9-2,12.7c-1.6,2.5-5,3.1-8,2.9c-3-0.1-6.1-0.7-8.9,0.4
		c-4.9,2.1-6.5,8.7-11.2,11.2c-4.7,2.5-10.4,0.1-15.6-1.4c-5-1.4-10.7-1.7-15.3,0.7c-3,1.6-6.9,5.8-6.4,9.6c0.6,4.8,4.9,3.2,9.2,3.2
		c9.5,0,19-0.4,28.4-1.4c14.4-1.5,28.6-4.1,41.1-11.6c3.1-1.8,5.6-8.1,7.7-16.9c-0.7-1.8-1.5-3.5-2.6-5.1
		C239.6,228.2,235.4,225.2,230.7,225.3z"/>
	<g>
		<path d="M129.2,143.5c-3.3,0-6,2.3-6,5.1s2.7,5.1,6,5.1c3.3,0,6-2.3,6-5.1S132.5,143.5,129.2,143.5z"/>
		<path d="M154.9,145.2c-3.3,0-6,2.3-6,5.1c0,2.8,2.7,5.1,6,5.1c3.3,0,6-2.3,6-5.1C160.9,147.5,158.2,145.2,154.9,145.2z"/>
		<ellipse cx="135.3" cy="250.4" rx="6" ry="5.1"/>
		<path d="M154.5,247.1c-3.3,0-6,2.3-6,5.1c0,2.8,2.7,5.1,6,5.1s6-2.3,6-5.1C160.6,249.4,157.9,247.1,154.5,247.1z"/>
		<path d="M146,233.4c-3.3,0-6,2.3-6,5.1c0,2.8,2.7,5.1,6,5.1s6-2.3,6-5.1C152.1,235.7,149.4,233.4,146,233.4z"/>
		<path d="M184.1,148.5c-3.3,0-6,2.3-6,5.1s2.7,5.1,6,5.1c3.3,0,6-2.3,6-5.1S187.5,148.5,184.1,148.5z"/>
	</g>
	<path class="eyes-st5" d="M133.1,166.1c0,0,17.6,15.2,20.9,15.6c3.3,0.4,22.1-12.7,20.9-14.3C173.7,165.7,138.9,163.2,133.1,166.1z"/>
	<path class="eyes-st5" d="M161.4,232.4c30.1,39.9,17.3,4.4,17.3,4.4L161.4,232.4z"/>
	<path class="eyes-st5" d="M130.6,232.2l-17.2,4.7C113.4,236.9,101.4,272.7,130.6,232.2z"/>
</g>
</svg>
