<?xml version="1.0" encoding="utf-8"?>
<!-- Generator: Adobe Illustrator 26.0.3, SVG Export Plug-In . SVG Version: 6.00 Build 0)  -->
<svg version="1.1" id="Layer_1" xmlns="http://www.w3.org/2000/svg" xmlns:xlink="http://www.w3.org/1999/xlink" x="0px" y="0px"
	 viewBox="0 0 384 400" style="enable-background:new 0 0 384 400;" xml:space="preserve">
<style type="text/css">
	.body-st0{fill:#FFFFFF;}
	.body-st1{opacity:0.2;fill:#FFFFFF;}
	.body-st2{fill:#F0E1B4;}
	.body-st3{fill:#47352C;}
	.body-st4{fill:#4FA7DC;}
	.body-st5{opacity:0.16;}
	.body-st6{fill:#E39D1F;}
	.body-st7{fill:#FCCA7A;}
</style>
<g>
	<path d="M246.1,311c-0.8-1.9-1.6-3.7-2.4-5.5c-1.7-3.6-3.5-7.1-5.5-10.5c-2-3.4-4-6.8-6.4-10c-2.3-3.2-4.8-6.4-7.7-9.1
		c-0.8-0.7-1.5-1.3-2.3-1.9c-0.8-0.6-1.6-1.2-2.5-1.7c-1.7-1-3.7-1.8-5.6-1.8c1.9,0.4,3.6,1.5,5.1,2.6c0.7,0.6,1.5,1.2,2.1,1.9
		c0.7,0.7,1.3,1.4,1.9,2.1l1.8,2.3l1.7,2.4l1.6,2.4l1.5,2.5c3.9,6.7,7.2,13.7,10.2,20.8c0.8,1.8,1.5,3.6,2.1,5.3
		c0.6,1.7,1.1,3.4,1.2,5c0.1,1.6-0.2,3-1,4c-0.4,0.5-0.8,1-1.4,1.4c-0.3,0.2-0.6,0.4-1,0.5c-0.1,0.1-0.4,0.2-0.6,0.2l-0.6,0.3
		c-1.7,0.7-3.6,1.3-5.4,1.9l-2.8,0.8l-1.4,0.4l-0.7,0.2l-0.6,0.1c-0.7,0.2-1.4,0.2-1.9,0.1c-0.5-0.1-1-0.3-1.5-0.7
		c-0.9-0.8-1.8-2.3-2.4-4l0.1,0.4c-0.1-0.2-0.1-0.5-0.2-0.6l-0.1-0.3l-0.3-0.7l-0.5-1.4l-1-2.7l-2-5.4l-3.9-10.9
		c-1.3-3.6-2.6-7.3-3.8-11c-1.2-3.7-2.6-7.3-2.9-11.2c-0.2,1.9-0.1,3.9,0.2,5.9c0.3,1.9,0.6,3.9,1,5.8c0.8,3.8,1.7,7.6,2.7,11.4
		c1,3.8,2,7.5,3.1,11.3l1.7,5.6l1.7,5.3l0.1,0.4c0.4,1,0.8,2,1.3,3c0.5,1,1.2,2,2.2,3c1,0.9,2.3,1.6,3.7,1.9
		c1.4,0.3,2.7,0.1,3.9-0.1l0.9-0.2l0.7-0.2l1.4-0.4c1-0.3,1.9-0.6,2.9-0.8c1.9-0.6,3.8-1.2,5.7-1.9l0.7-0.3c0.2-0.1,0.5-0.2,0.8-0.3
		c0.6-0.2,1.1-0.6,1.6-0.9c1.1-0.7,2-1.6,2.8-2.7c0.7-1.1,1.3-2.3,1.5-3.5c0.2-1.2,0.3-2.5,0.2-3.6C247.6,315.1,246.9,313,246.1,311
		z"/>
	<path class="body-st0" d="M221.7,274.7c-10-9.1-17.2-3.2-13.9,10.7c3.2,13.9,11.7,38.1,11.7,38.3c1.5,4,3.7,7.6,9.2,6
		c0,0,6.9-1.9,11.5-3.8c4.6-1.9,6.5-6.5,3.9-13.5C241.5,305.5,231.8,283.8,221.7,274.7z"/>
	<g>
		<path d="M219.1,322.5c0-0.1,0-0.1-0.1-0.2C219.1,322.4,219.1,322.5,219.1,322.5z"/>
		<path d="M218.9,322c0-0.1-0.1-0.2-0.1-0.3C218.9,321.8,218.9,321.9,218.9,322z"/>
		<path d="M218.7,321.3c-0.2-0.5-0.4-1-0.6-1.7C218.4,320.3,218.5,320.8,218.7,321.3z"/>
		<path d="M237.2,327.1c1.1-0.4,2.1-0.8,3-1.1c0.2-0.1,0.3-0.1,0.4-0.2c-0.1,0.1-0.3,0.1-0.4,0.2
			C239.3,326.4,238.3,326.8,237.2,327.1z"/>
		<path d="M241.8,325.2c-0.2,0.1-0.4,0.3-0.7,0.4C241.3,325.5,241.6,325.3,241.8,325.2z"/>
	</g>
	<path class="body-st1" d="M221.7,274.7c-6.3-5.7-11.4-5.5-13.6-1.1c1.9,0.6,3.9,1.8,6.2,3.9c10,9.1,19.8,30.7,22.4,37.7
		c2.4,6.5,1,10.9-2.9,13c2.1-0.7,4.5-1.5,6.5-2.3c4.6-1.9,6.5-6.5,3.9-13.5C241.5,305.5,231.8,283.8,221.7,274.7z"/>
</g>
<g>
	<g>
		<path class="body-st2" d="M206.1,268.7c-32-5-60.8-2.8-68.7-1.2c-8.3,1.7-10.8,2.5-13,11.2c-2.4,11.4-4.1,27.2-4.6,36.5
			c-0.3,5.7-1.2,19.1,7.9,20c8.6,0.5,49.3,2.8,49.3,2.8s28.1,1.7,40.8-0.3c1-0.3,5.4,0.1,6.2-8c-0.2-14.6-1.9-27.9-4.8-47
			C218.9,280.2,218.4,270.9,206.1,268.7z"/>
	</g>
	<g>
		<g>
			<g>
				<path d="M222,282.3l-0.1-0.5c-0.4-3.3-1.7-13.2-15.2-15.6c-32-5-61.2-2.9-69.6-1.2c-8.7,1.8-12.3,2.9-14.9,13l0,0.1
					c-2.3,11-4.1,26.9-4.6,36.9l0,0.3c-0.4,6.3-1.2,21.2,10.2,22.3c8.6,0.5,49.3,2.8,49.3,2.8c0.7,0,11.4,0.7,22.5,0.7
					c6.9,0,13.9-0.2,18.9-1.1l0.2,0c0.1,0,0.1,0,0.2,0c1.7-0.3,7-1,7.9-10.2l0-0.1l0-0.1C226.6,315.2,224.9,301.9,222,282.3z
					 M218.2,335.1c-0.2,0-0.4,0.1-0.6,0.1c-12.3,2-39.9,0.3-40.2,0.3c0,0-40.7-2.3-49.2-2.8c-5.8-0.6-6.1-8.9-5.6-17l0-0.3
					c0.5-9.8,2.3-25.3,4.5-36.1c1.9-7.4,3.3-7.7,11-9.3c8.1-1.7,36.5-3.7,67.8,1.2c9.8,1.8,10.6,8.2,11,11.3c0,0.2,0.1,0.4,0.1,0.6
					l0,0c2.9,19.3,4.5,32.4,4.7,46.5C221.3,334.7,219.3,335,218.2,335.1z"/>
			</g>
			<g>
				<path d="M157,266.2c-5.1,0.4-14.9,0.9-17.1,1.3c-8.3,1.7-10.8,2.5-13,11.2c-2.4,11.4-4.1,27.2-4.6,36.6
					c-0.3,5.7-1.2,19.1,7.9,20c3.6,0.2,18.7,0.7,28.1,1.3C156.1,313.1,157.9,289.6,157,266.2z"/>
				<path class="body-st3" d="M154.8,266.2c-5.1,0.4-14.9,0.9-17.1,1.3c-8.3,1.7-10.8,2.5-13,11.2c-2.4,11.4-4.1,27.2-4.6,36.6
					c-0.3,5.7-1.2,19.1,7.9,20c3.6,0.2,18.7,0.7,28.1,1.3C153.9,313.1,155.6,289.6,154.8,266.2z"/>
				<path d="M203.6,268.7c-9.7-1.5-30-2.4-38.6-2.8c0.9,23.8-0.9,45.5,1.3,69.3c0,0.3,0,0.6,0,1c8,0.4,38.3,3.2,49,1.5
					c1-0.3,5.4,0.1,6.2-8c-0.2-14.6-1.9-27.9-4.8-47C216.4,280.2,216,270.9,203.6,268.7z"/>
				<path class="body-st3" d="M206.4,268.7c-9.7-1.5-30-2.4-38.6-2.8c0.9,23.8-0.9,45.5,1.3,69.3c0,0.3,0,0.6,0,1
					c7.4,0.4,38.7,3.2,49,1.5c1-0.3,5.4,0.1,6.2-8c-0.2-14.6-1.9-27.9-4.8-47C219.1,280.2,218.7,270.9,206.4,268.7z"/>
			</g>
			<g>
				<path class="body-st4" d="M120.1,309.7c0,0.2,0,5.3,0,5.5c-0.3,5.7-1.2,19.1,7.9,20c8.6,0.5,49.3,2.8,49.3,2.8s28.1,1.7,40.8-0.3
					c1-0.3,5.4,0.1,6.2-8c-0.1-5-0.3-9.9-0.7-15L120.1,309.7z"/>
			</g>
		</g>
		<path class="body-st5" d="M219.5,282.7c-0.4-2.5-0.8-11.7-13-13.9c0,0,0,0,0,0c-0.1,0-0.1,0-0.2,0c-32-5-60.8-2.8-68.7-1.2
			c-8.3,1.7-10.8,2.5-13,11.2c-0.2,0.9-0.4,1.8-0.6,2.7c23.1,0.7,48.6-4.4,68.3,7.2c10.7,6.3,17.6,18.4,18.2,30.7
			c-1.5,4.4-5.3,10.1-6.1,10.3c-12.7,2.1-79.2,11.5-83.6-8c0.1,6.7,0.2,12.9,7.1,13.6c8.6,0.5,49.3,2.8,49.3,2.8s18.1,1.1,31.8,0.5
			c0,0,0.1,0,0.1,0c1,0,1.9-0.1,2.9-0.2c0.1,0,0.3,0,0.4,0c0.9-0.1,1.7-0.1,2.5-0.2c0.2,0,0.4,0,0.5,0c0.9-0.1,1.8-0.2,2.6-0.4
			c1-0.3,5.4,0.1,6.2-8c0-1.8-0.1-3.6-0.1-5.4C223.6,311.7,222,299.4,219.5,282.7z"/>
		<path d="M119.1,308.5l-0.2,3c2.2,0.2,40.5,4.6,71.3,4.6c13.8,0,26.9-0.3,34.6-2l-0.6-2.9C199.4,316.4,120.2,308.5,119.1,308.5z"/>
		<polygon points="157.8,314.1 157.8,325.5 164.5,325.8 164.9,312.7 159.5,312.8 		"/>
	</g>
	<g>
		<path d="M158.5,278.3l-28.1-1.6l11.4,15.5l3.5,1l-0.3,1.3l14.2,22.7l-0.7-18.6L158.5,278.3z M153.5,298.7l-3.1-4.9l1-3.9l-6.5-1.9
			l-4.1-5.6l12.8,0.7L153.5,298.7z"/>
		<polygon class="body-st6" points="156,280.7 135.6,279.5 143.4,290.1 148.4,291.5 147.7,294.2 156.4,308 156,298.8 		"/>
		<polygon class="body-st5" points="156,280.7 153.2,289.3 153,297.3 148.4,291.5 147.7,294.2 156.4,308 156,298.8 		"/>
		<polygon class="body-st7" points="135.6,279.5 143.4,290.1 145.2,290.6 145.2,290.4 139.8,282 156,280.7 		"/>
	</g>
	<g>
		<path d="M163.4,299.1l-1.5,17.8l15.3-21.3l-0.3-1.5l3.9-1l13.8-16.5l-30.2,1.6L163.4,299.1z M169.1,283l14.2-0.7l-5.4,6.4
			l-6.8,1.8l0.7,3.9l-3.4,4.8L169.1,283z"/>
		<polygon class="body-st6" points="165.9,299.2 165.1,308 174.4,295 173.9,292.3 179.3,290.9 188.9,279.4 166.7,280.6 		"/>
		<polygon class="body-st5" points="168.9,297.9 169.2,289.8 166.7,280.6 165.9,299.2 165.1,308 174.4,295 173.9,292.3 		"/>
		<polygon class="body-st7" points="183.9,282.2 177.3,291.2 177.3,291.4 179.3,290.9 188.9,279.4 166.7,280.6 		"/>
	</g>
</g>
</svg>
