<?xml version="1.0" encoding="utf-8"?>
<!-- Generator: Adobe Illustrator 26.0.3, SVG Export Plug-In . SVG Version: 6.00 Build 0)  -->
<svg version="1.1" id="Layer_1" xmlns="http://www.w3.org/2000/svg" xmlns:xlink="http://www.w3.org/1999/xlink" x="0px" y="0px"
	 viewBox="0 0 384 400" style="enable-background:new 0 0 384 400;" xml:space="preserve">
<style type="text/css">
	.body-st0{fill:#FFFFFF;}
	.body-st1{fill:#47352C;}
	.body-st2{fill:#1D1C20;}
	.body-st3{fill:#49484D;}
	.body-st4{opacity:0.16;}
	.body-st5{fill:#1C1B1F;}
	.body-st6{opacity:0.5;fill:#FFFFFF;}
</style>
<g>
	<g>
		<g>
			<path class="body-st0" d="M204.2,269.5c-32-5-60.8-2.8-68.7-1.2c-8.3,1.7-10.8,2.5-13,11.2c-2.4,11.4-4.1,27.2-4.6,36.5
				c-0.3,5.7-1.2,19.1,7.9,20c8.6,0.5,49.3,2.8,49.3,2.8s28.1,1.7,40.8-0.3c1-0.3,5.4,0.1,6.2-8c-0.2-14.6-1.9-27.9-4.8-47
				C217,281,216.5,271.7,204.2,269.5z"/>
		</g>
		<g>
			<g>
				<g>
					<path d="M220.1,283.1l-0.1-0.5c-0.4-3.3-1.7-13.2-15.2-15.6c-32-5-61.2-2.9-69.6-1.2c-8.7,1.8-12.3,2.9-14.9,13l0,0.1
						c-2.3,11-4.1,26.9-4.6,36.9l0,0.3c-0.4,6.3-1.2,21.2,10.2,22.3c8.6,0.5,49.3,2.8,49.3,2.8c0.7,0,11.4,0.7,22.5,0.7
						c6.9,0,13.9-0.2,18.9-1.1l0.2,0c0.1,0,0.1,0,0.2,0c1.7-0.3,7-1,7.9-10.2l0-0.1l0-0.1C224.7,316,223.1,302.6,220.1,283.1z
						 M216.3,335.9c-0.2,0-0.4,0.1-0.6,0.1c-12.3,2-39.9,0.3-40.2,0.3c0,0-40.7-2.3-49.2-2.8c-5.8-0.6-6.1-8.9-5.6-17l0-0.3
						c0.5-9.8,2.3-25.3,4.5-36.1c1.9-7.4,3.3-7.7,11-9.3c8.1-1.7,36.5-3.7,67.8,1.2c9.8,1.8,10.6,8.2,11,11.3c0,0.2,0.1,0.4,0.1,0.6
						l0,0c2.9,19.3,4.5,32.4,4.7,46.5C219.4,335.5,217.4,335.8,216.3,335.9z"/>
				</g>
				<g>
					<path d="M158,266.2c-5.1,0.4-17.8,1.7-20,2.1c-8.3,1.7-10.8,2.5-13,11.2c-2.4,11.4-4.1,27.2-4.6,36.6c-0.3,5.7-1.2,19.1,7.9,20
						c3.6,0.2,18.7,0.7,28.1,1.3C159.3,337.2,160.9,266.1,158,266.2z"/>
					<path class="body-st1" d="M152.9,267c-5.1,0.4-14.9,0.9-17.1,1.3c-8.3,1.7-10.8,2.5-13,11.2c-2.4,11.4-4.1,27.2-4.6,36.6
						c-0.3,5.7-1.2,19.1,7.9,20c3.6,0.2,18.7,0.7,28.1,1.3C152,313.9,153.7,290.4,152.9,267z"/>
					<path class="body-st2" d="M152.9,267c-5.1,0.4-14.9,0.9-17.1,1.3c-8.3,1.7-10.8,2.5-13,11.2c-2.4,11.4-4.1,27.2-4.6,36.6
						c-0.3,5.7-1.2,19.1,7.9,20c3.6,0.2,18.7,0.7,28.1,1.3C152,313.9,153.7,290.4,152.9,267z"/>
					<g>
						<path class="body-st3" d="M152.3,267c-1.5,9.6-7.6,51.3-5.9,69.8c1.7,0.1,3.5,0.2,5.1,0.2c0.3-7.1,0.9-18,1.6-29.2
							c0-13.7,0.4-27.3-0.1-41C152.7,267,152.5,267,152.3,267z"/>
						<path class="body-st3" d="M134.5,336.4c1.5,0.1,3,0.1,4.7,0.2c0.7-14.7,2.6-52.8,4.7-69c-1.5,0.1-3,0.2-4.3,0.3
							C137.4,282.5,132.2,320.9,134.5,336.4z"/>
						<path class="body-st3" d="M123,335.1c0.9,0.5,1.9,0.8,3.1,0.9c0.4,0,0.9,0,1.6,0.1c0.6-13.5,2.4-49.3,4.4-67
							c-1.9,0.5-3.4,1-4.6,1.8C125.1,287.6,121,320.8,123,335.1z"/>
					</g>
					<path d="M201.7,269.5c-7.2-1.1-20.2-1.9-30-2.4v70.3c12.2,0.9,33.2,2.4,41.7,1c1-0.3,5.4,0.1,6.2-8c-0.2-14.6-1.9-27.9-4.8-47
						C214.5,281,214.1,271.7,201.7,269.5z"/>
					<path class="body-st2" d="M204.5,269.5c-7.9-1.2-29.7-2.8-39.7-3.3l7,71.1c11.4,0.8,35.6,2.7,44.4,1.2c1-0.3,5.4,0.1,6.2-8
						c-0.2-14.6-1.9-27.9-4.8-47C217.3,281,216.8,271.7,204.5,269.5z"/>
					<g>
						<path class="body-st3" d="M197.1,268.6c2.2,17.8,4.1,58.1,4.7,70.3c1.4,0,2.7,0.1,4,0.1c3.4-12.8-2-53.5-4.4-69.9
							C200.2,268.9,198.7,268.8,197.1,268.6z"/>
						<path class="body-st3" d="M209,270.8c2.1,19.6,3.9,57.7,4.4,68c1.1-0.1,2-0.2,2.8-0.3c0.2-0.1,0.6-0.1,1-0.2
							c3.2-11-0.8-45.1-3.4-64.2C212.7,272.9,211.1,271.7,209,270.8z"/>
						<path class="body-st3" d="M184.4,267.7c2.2,13.7,4.3,54.3,5.1,70.7c1.6,0.1,3.2,0.2,4.8,0.2c2.2-17-3.8-59.2-5.6-70.7
							C187.3,267.9,185.9,267.8,184.4,267.7z"/>
						<path class="body-st3" d="M171,267c2.2,12.8,4.3,53.3,5.2,70.6c1.5,0.1,3.2,0.2,4.9,0.3c2-17.9-4.2-60.6-5.8-70.7
							C173.8,267.1,172.4,267,171,267z"/>
					</g>
				</g>
				<g>
					<path class="body-st2" d="M118.2,310.5c0,0.2,0,5.3,0,5.5c-0.3,5.7-1.2,19.1,7.9,20c8.6,0.5,49.3,2.8,49.3,2.8s28.1,1.7,40.8-0.3
						c1-0.3,5.4,0.1,6.2-8c-0.1-5-0.3-9.9-0.7-15L118.2,310.5z"/>
				</g>
				<g>
					<path class="body-st3" d="M118,321.6c0,4.8,0.8,10.5,4.4,13.1c-0.4-1.3-0.9-2.6-1.4-3.9C119.9,327.7,118.9,324.7,118,321.6z"/>
					<path class="body-st3" d="M133.8,336.4c2.3,0.1,5,0.3,7.8,0.4c0.1-8.4,0.1-16.8,0.1-25.3l-7.9-0.4V336.4z"/>
					<path class="body-st3" d="M146.6,337.2c2.2,0.1,4.4,0.3,6.6,0.4c1.1-8.4,2.2-16.8,2.1-25.3l-8.7-0.4
						C146.7,320.3,146.7,328.7,146.6,337.2z"/>
					<path class="body-st3" d="M181.3,314.5c0-0.4,0.1-0.7,0.2-1l-21.1-1c0.1,8.5-1.1,16.9-2.2,25.3c2.9,0.2,5.6,0.3,8,0.5
						c0.7-7.5,1.2-15,1.3-22.5c0-3.2,5-3.2,5,0c0,7.6-0.5,15.2-1.3,22.8c2.7,0.2,4.3,0.2,4.3,0.2s3.2,0.2,7.8,0.4
						C181.8,331,181.1,322.7,181.3,314.5z"/>
					<path class="body-st3" d="M186.2,313.8c0.1,0.2,0.1,0.5,0.1,0.7c-0.1,8.3,0.6,16.6,2.1,24.9c2.3,0.1,4.8,0.1,7.3,0.1
						c-0.6-8.5-1.4-16.9-2.4-25.4L186.2,313.8z"/>
					<path class="body-st3" d="M200.6,339.5c1.6,0,3.2-0.1,4.7-0.1c0.2-8.2,0.3-16.4,0.3-24.7l-7.4-0.4
						C199.2,322.7,200,331.1,200.6,339.5z"/>
					<path class="body-st3" d="M210.7,314.9c0,8.1-0.1,16.1-0.3,24.2c2.2-0.2,4.2-0.4,5.9-0.6c0.5-0.1,2-0.1,3.5-1.3
						c-0.3-7.3-1.5-14.6-1.6-21.9L210.7,314.9z"/>
					<path class="body-st3" d="M122.6,319.8c1.5,5.5,3.7,10.8,5.5,16.3c0.2,0,0.5,0,0.7,0V311l-7.8-0.4
						C121.3,313.7,121.8,316.8,122.6,319.8z"/>
				</g>
			</g>
			<path class="body-st4" d="M217.6,283.5c-0.4-2.5-0.8-11.7-13-13.9c0,0,0,0,0,0c-0.1,0-0.1,0-0.2,0c-32-5-60.8-2.8-68.7-1.2
				c-8.3,1.7-10.8,2.5-13,11.2c-0.2,0.9-0.4,1.8-0.6,2.7c23.1,0.7,48.6-4.4,68.3,7.2c10.7,6.3,17.6,18.4,18.2,30.7
				c-1.5,4.4-5.3,10.1-6.1,10.3c-12.7,2.1-79.2,11.5-83.6-8c0.1,6.7,0.2,12.9,7.1,13.6c8.6,0.5,49.3,2.8,49.3,2.8s18.1,1.1,31.8,0.5
				c0,0,0.1,0,0.1,0c1,0,1.9-0.1,2.9-0.2c0.1,0,0.3,0,0.4,0c0.9-0.1,1.7-0.1,2.5-0.2c0.2,0,0.4,0,0.5,0c0.9-0.1,1.8-0.2,2.6-0.4
				c1-0.3,5.4,0.1,6.2-8c0-1.8-0.1-3.6-0.1-5.4C221.8,312.4,220.1,300.1,217.6,283.5z"/>
			<path d="M117.2,309.2l-0.2,3c2.2,0.2,40.5,4.6,71.3,4.6c13.8,0,26.9-0.3,34.6-2l-0.6-2.9C197.5,317.2,118.3,309.3,117.2,309.2z"
				/>
			<polygon points="155.9,314.9 155.9,326.2 162.6,326.6 163,313.5 157.6,313.6 			"/>
		</g>
	</g>
	<g>
		<path d="M161.9,279.1l-28.1-1.6l11.4,15.5l3.5,1l-0.3,1.3l14.2,22.7l-0.7-18.6L161.9,279.1z M156.9,299.5l-3.1-4.9l1-3.9l-6.5-1.9
			l-4.1-5.6l12.8,0.7L156.9,299.5z"/>
		<polygon class="body-st5" points="159.4,281.4 139,280.3 146.7,290.8 151.8,292.3 151.1,294.9 159.8,308.8 159.4,299.5 		"/>
		<path class="body-st3" d="M151,281c2.3,2.9,4.3,6.1,6.7,8.9c0.6,0.6,1.1,1.3,1.7,1.9l0-5.9c-1.2-1.6-2.5-3.1-3.7-4.7L151,281z"/>
		<path class="body-st3" d="M154.2,293.4c-2.1-2.4-3.9-4.9-5.7-7.5c-1.4-1.9-2.8-3.9-4.6-5.4l-4.9-0.3l7.8,10.6l5,1.5l-0.7,2.6l8.7,13.8
			l-0.4-9.2C157.7,297.5,155.9,295.5,154.2,293.4z"/>
		<polygon class="body-st4" points="159.4,281.4 156.5,290.1 156.4,298.1 151.8,292.3 151.1,294.9 159.8,308.8 159.4,299.5 		"/>
		<polygon class="body-st6" points="139,280.3 146.7,290.8 148.6,291.4 148.6,291.2 143.2,282.7 159.4,281.4 		"/>
	</g>
	<g>
		<path d="M166.1,299.8l-1.5,17.8l15.3-21.3l-0.3-1.5l3.9-1l13.8-16.5l-30.2,1.6L166.1,299.8z M171.9,283.7L186,283l-5.4,6.4
			l-6.8,1.8l0.7,3.9l-3.4,4.8L171.9,283.7z"/>
		<polygon points="168.6,300 167.8,308.8 177.2,295.7 176.7,293 182,291.6 191.6,280.2 169.5,281.4 		"/>
		<path class="body-st3" d="M179.6,283.2c-3.4,3.3-6.5,6.8-9.5,10.4c-0.3,0.4-0.7,0.6-1.2,0.7l-0.3,5.6c1.7-1.6,3.5-3.2,5.3-4.7
			c3-2.6,6.1-5.1,9-7.7c1.5-1.4,2.9-2.8,4.3-4.2c0.9-1,2-1.8,2.7-3l-9.7,0.5C180.4,281.6,180.2,282.6,179.6,283.2z"/>
		<path class="body-st3" d="M167.8,308.8l2.9-4.1c-0.9,0.9-1.9,1.8-2.8,2.7L167.8,308.8z"/>
		<path class="body-st3" d="M169.2,286.9c1.7-2,3.5-3.9,5.4-5.8l-5.1,0.3L169.2,286.9z"/>
		<polygon class="body-st4" points="171.6,298.7 171.9,290.6 169.5,281.4 168.6,300 167.8,308.8 177.2,295.7 176.7,293 		"/>
		<polygon class="body-st6" points="186.6,282.9 180.1,291.9 180.1,292.2 182,291.6 191.6,280.2 169.5,281.4 		"/>
	</g>
</g>
</svg>
