<?xml version="1.0" encoding="utf-8"?>
<!-- Generator: Adobe Illustrator 26.0.3, SVG Export Plug-In . SVG Version: 6.00 Build 0)  -->
<svg version="1.1" id="Layer_1" xmlns="http://www.w3.org/2000/svg" xmlns:xlink="http://www.w3.org/1999/xlink" x="0px" y="0px"
	 viewBox="0 0 384 400" style="enable-background:new 0 0 384 400;" xml:space="preserve">
<style type="text/css">
	.body-st0{fill:#FAEBCF;}
</style>
<g>
	<path d="M217.2,271.9c-4.1-2.9-11-4.8-19.2-6.1c-5,5.3-7.9,11.4-14.3,15.7c-8.8,5.9-31.3,6.6-39,0.1c-5.2-4.4-5.1-11.5-9.2-16.6
		c-0.9,0.1-1.8,0.2-2.6,0.3c-3.8,0.5-7,3-8.4,6.6c-4.1,11.3-12.2,46.8-10,68.2c14.8-6.5,26,2.4,26,2.4c11.8-5.3,27.2-4.1,34.9,1.2
		c9.5-3.6,20.7-4.7,26.1,0.6c11.8,0.6,30.2,0.6,30.2,0.6S240.4,288.1,217.2,271.9z"/>
	<path class="body-st0" d="M161.5,302.9c0,0-6.8-7.6-17-3c-6.6,3,2,13.5,8.9,20.6c4.1,4.2,10.5,4.6,15.1,0.9c7.4-6,16.6-15.1,11.1-20.4
		C171.1,292.6,161.5,302.9,161.5,302.9z"/>
</g>
</svg>
