<?xml version="1.0" encoding="utf-8"?>
<!-- Generator: Adobe Illustrator 26.0.3, SVG Export Plug-In . SVG Version: 6.00 Build 0)  -->
<svg version="1.1" id="Layer_1" xmlns="http://www.w3.org/2000/svg" xmlns:xlink="http://www.w3.org/1999/xlink" x="0px" y="0px"
	 viewBox="0 0 384 400" style="enable-background:new 0 0 384 400;" xml:space="preserve">
<style type="text/css">
	.body-st0{fill:#1F9DE3;}
	.body-st1{opacity:0.5;fill:#23B2FF;}
	.body-st2{fill:#8AD6FF;}
	.body-st3{fill:#F0AC48;}
</style>
<g>
	<path d="M218.9,263.6c-16.2-11.1-69.7-8.9-86.3-6.9c-4.8,0.6-8.8,3.7-10.4,8.1c-3.5,9.4-10.8,39.6-11.6,61.4l0,0.1l0,0.1
		c0.3,7.1,1,13,1,13.3l0.3,2.3l2.3-0.1c0.4,0,40.9-1.3,55.4,2c4.8,1.1,12.8,1.5,21.5,1.5c18.8,0,41.2-1.8,42.5-1.9l2.2-0.2l0.3-17
		h0.1C236.3,311.1,234.8,274.5,218.9,263.6z M231.2,326.1L231.2,326.1l-0.3,12.6c-9.6,0.7-47.6,3.2-60.3,0.3
		c-8.6-2-25.1-2.4-38.1-2.4c-7.1,0-13.1,0.1-16.3,0.2c-0.2-2.3-0.6-6.2-0.8-10.5c0.8-20.4,7.8-50.2,11.3-59.7c1-2.7,3.4-4.6,6.4-4.9
		c17.9-2.2,68.9-3.5,82.9,6.1C230.3,277.4,231.3,314.6,231.2,326.1z"/>
	<path class="body-st0" d="M217.5,265.7c-15.2-10.4-67.4-8.6-84.6-6.5c-3.8,0.5-7.1,3-8.4,6.5c-3.5,9.3-10.7,39.4-11.5,60.6
		c0.3,7.1,1,13.1,1,13.1s41-1.4,56,2.1c15,3.4,63.3-0.5,63.3-0.5l0.3-14.9l0.1,0.2C233.8,306.2,231.1,275,217.5,265.7z"/>
	<path class="body-st1" d="M217.5,265.7c-12-8.2-47.5-8.8-70.2-7.6c16.9,4.3,34,10.4,47.3,21.3c13.1,10.7,29,35.8,10.6,49
		c-11.8,8.5-29.6,6.3-43.1,3.9c-10.9-1.9-21.4-6.6-32.5-7.2c-5.3-0.3-11.1-0.9-16.5-0.4c0,0.5-0.1,1.1-0.1,1.6
		c0.3,7.1,1,13.1,1,13.1s41-1.4,56,2.1c15,3.4,63.3-0.5,63.3-0.5l0.3-14.9l0.1,0.2C233.8,306.2,231.1,275,217.5,265.7z"/>
	<g>
		<path class="body-st2" d="M125.9,301c-7.8,4,4.6,10.9,7.5,10.2C136.3,310.5,137,295.3,125.9,301z"/>
		<path class="body-st2" d="M143.4,299.6c-6.5-3.5-5.4,8.4-3.5,10.1C141.8,311.3,152.6,304.6,143.4,299.6z"/>
		<path class="body-st2" d="M144.3,318.4c-0.6,2.5,10.6,8.8,10.6-1.8C154.8,309.2,144.8,315.9,144.3,318.4z"/>
		<path class="body-st2" d="M135.5,319.1c-2.4,0.3-5.6,14.2,4.1,10.6C146.5,327.1,138,318.9,135.5,319.1z"/>
		<path class="body-st2" d="M122.8,320.5c1.8,7,9.6-1.7,9.6-4.2C132.3,313.9,120.2,310.6,122.8,320.5z"/>
		<path class="body-st3" d="M136.6,311.9c-5.9,2.3,1,7.7,4.8,6.4C145.1,316.9,140.5,310.4,136.6,311.9z"/>
	</g>
	<g>
		<path class="body-st2" d="M174,299.6c-1.5,8.7,11.5,2.8,12.7,0.1C187.8,296.9,176.1,287.3,174,299.6z"/>
		<path class="body-st2" d="M183.3,284.8c-6.7,3.2,3.6,9.3,6,8.8C191.8,293,192.8,280.3,183.3,284.8z"/>
		<path class="body-st2" d="M203.8,285.6c-6-4.4-6.5,7.6-4.9,9.6C200.6,297.1,212.3,291.9,203.8,285.6z"/>
		<path class="body-st2" d="M194.3,302.7c-1.2,2.1,8.1,12.9,11,3C207.3,298.6,195.6,300.6,194.3,302.7z"/>
		<path class="body-st2" d="M190.2,303.6c-2-1.4-11.9,6.3-2.3,10.2C194.6,316.5,192.2,305,190.2,303.6z"/>
		<path class="body-st3" d="M189.2,297.5c-1.7,6.1,6.8,3.8,7.9,0C198.2,293.6,190.3,293.5,189.2,297.5z"/>
	</g>
	<g>
		<path class="body-st2" d="M135,277.7c-1.5,8.7,11.5,2.8,12.7,0.1C148.8,274.9,137.1,265.4,135,277.7z"/>
		<path class="body-st2" d="M144.3,262.8c-6.7,3.2,3.6,9.3,6,8.8C152.8,271,153.8,258.3,144.3,262.8z"/>
		<path class="body-st2" d="M164.7,263.7c-6-4.4-6.5,7.6-4.9,9.6C161.6,275.2,173.3,269.9,164.7,263.7z"/>
		<path class="body-st2" d="M155.3,280.7c-1.2,2.1,8.1,12.9,11,3C168.3,276.6,156.6,278.6,155.3,280.7z"/>
		<path class="body-st2" d="M151.2,281.6c-2-1.4-11.9,6.3-2.3,10.2C155.6,294.5,153.2,283,151.2,281.6z"/>
		<path class="body-st3" d="M150.2,275.5c-1.7,6.1,6.8,3.8,7.9,0C159.2,271.7,151.3,271.5,150.2,275.5z"/>
	</g>
	<g>
		<path class="body-st2" d="M175.4,336c-1.5,8.7,11.5,2.8,12.7,0.1C189.2,333.2,177.4,323.6,175.4,336z"/>
		<path class="body-st2" d="M184.6,321.1c-6.7,3.2,3.6,9.3,6,8.8C193.2,329.3,194.1,316.6,184.6,321.1z"/>
		<path class="body-st2" d="M205.1,322c-6-4.4-6.5,7.6-4.9,9.6C201.9,333.4,213.7,328.2,205.1,322z"/>
		<path class="body-st2" d="M195.7,339c-0.4,0.7,0.3,2.3,1.6,3.9c3.1-0.1,6.1-0.2,9.2-0.4c0.1-0.2,0.1-0.3,0.2-0.5
			C208.7,334.9,196.9,336.9,195.7,339z"/>
		<path class="body-st2" d="M191.6,339.9c-1-0.7-4,0.9-5.5,3.1c2.4,0,4.7,0,7.1,0C192.7,341.5,192.1,340.3,191.6,339.9z"/>
		<path class="body-st3" d="M190.5,333.8c-1.7,6.1,6.8,3.8,7.9,0C199.6,329.9,191.6,329.8,190.5,333.8z"/>
	</g>
</g>
</svg>
