<?xml version="1.0" encoding="utf-8"?>
<!-- Generator: Adobe Illustrator 26.0.3, SVG Export Plug-In . SVG Version: 6.00 Build 0)  -->
<svg version="1.1" id="Layer_1" xmlns="http://www.w3.org/2000/svg" xmlns:xlink="http://www.w3.org/1999/xlink" x="0px" y="0px"
	 viewBox="0 0 384 400" style="enable-background:new 0 0 384 400;" xml:space="preserve">
<style type="text/css">
	.body-st0{fill:#B34ABF;}
	.body-st1{opacity:0.5;fill:#003338;}
	.body-st2{fill:#003838;}
	.body-st3{fill:#5A947D;}
</style>
<g>
	<g>
		<g>
			<g>
				<path d="M125.5,274.7l2.1,37.1l23.5,3.4l-4.3-38.2L125.5,274.7z M132.4,307.4l-1.5-27.1l11.5,1.2l3.1,27.8L132.4,307.4z"/>
				<polygon class="body-st0" points="128.2,277.5 130,309.6 148.2,312.2 144.6,279.2 				"/>
				<path class="body-st1" d="M128.2,277.5l0.6,10.5c5.6,0,11.3,0.1,16.9,0.1l-1.1-8.9L128.2,277.5z"/>
				<path class="body-st1" d="M129.6,303l0.4,6.6l18.3,2.6l-1-9.1C141.4,303,135.5,303,129.6,303z"/>
				<path d="M176.3,313.8l25.6,3.7l0.7-42.7l-23.5,1.5L176.3,313.8z M183.8,281l13.7-0.9l-0.5,31.6l-15.4-2.2L183.8,281z"/>
				<polygon class="body-st0" points="179,311.7 199.5,314.6 200.1,277.5 181.5,278.6 				"/>
				<path class="body-st1" d="M180.9,286.6c6.4,0,12.7,0.1,19.1,0.1l0.1-9.2l-18.6,1.2L180.9,286.6z"/>
				<path class="body-st1" d="M179,311.7l20.5,3l0.2-13c-6.7,0-13.3,0-20-0.1L179,311.7z"/>
			</g>
			<g>
				<path d="M226.3,313.8l-0.2-2.2L117,306.4l-0.2,2.5c0,0.1,0,0.3,0,3.1c0,1.2,0,2.4,0,2.5l0,0.3c-0.3,5.8-1.2,21.2,10.3,22.3
					c8.7,0.5,49.8,2.8,49.8,2.8c0.7,0,11.5,0.7,22.8,0.7c7,0,14.1-0.2,19-1l0.2,0c0.1,0,0.1,0,0.2,0c1.7-0.3,7.1-1,7.9-10.2l0-0.1
					l0-0.1C227,324,226.8,319.1,226.3,313.8z M218.4,334.4c-0.2,0-0.4,0.1-0.6,0.1c-12.5,2-40.3,0.3-40.6,0.3c0,0-41.1-2.3-49.7-2.8
					c-5.8-0.6-6.2-8.9-5.7-17l0-0.3c0-0.1,0-0.2,0-2.7c0-0.1,0-0.2,0-0.3l99.7,4.7c0.3,4.3,0.5,8.4,0.6,12.5
					C221.6,334,219.6,334.2,218.4,334.4z"/>
			</g>
			<g>
				<path class="body-st2" d="M119.3,309c0,0.2,0,5.3,0,5.5c-0.3,5.7-1.2,19.1,8,20c8.7,0.5,49.8,2.8,49.8,2.8s28.4,1.7,41.2-0.3
					c1-0.3,5.5,0.1,6.2-8c-0.1-5-0.3-9.9-0.7-15L119.3,309z"/>
			</g>
			<g>
				<path class="body-st3" d="M119.5,317.4c0,0.2,0,0.3,0,0.5c4.4,1.7,10.6,0.7,14.9,0.4c7.1-0.5,13.5-1,20.5,1c6.5,1.9,11.5,1.3,18,0
					c6.6-1.4,13.1-1.8,19.8-1.8c8,0.1,15.6,0,23.1-1.1l-96.3-4.6C119.5,312,119.5,317.2,119.5,317.4z"/>
				<path class="body-st1" d="M192.5,329.7c-7.6-0.1-14.3,1.2-21.8,2.4c-7.5,1.3-13.6,0.6-20.9-1.4c-9.2-2.6-19.2,0.6-28.6-0.1
					c1.2,2.1,3.1,3.6,6,3.9c8.7,0.5,49.8,2.8,49.8,2.8s28.4,1.7,41.2-0.3c1-0.3,5.5,0.1,6.2-8c0-0.6,0-1.2,0-1.9
					C214.1,329.5,203.6,329.8,192.5,329.7z"/>
			</g>
		</g>
		<path d="M119.4,307.7l-0.2,3c2.2,0.2,40.5,4.6,71.3,4.6c13.8,0,26.9-0.3,34.6-2l-0.6-2.9C199.7,315.7,120.5,307.8,119.4,307.7z"/>
	</g>
</g>
</svg>
