<?xml version="1.0" encoding="utf-8"?>
<!-- Generator: Adobe Illustrator 26.0.3, SVG Export Plug-In . SVG Version: 6.00 Build 0)  -->
<svg version="1.1" id="Layer_1" xmlns="http://www.w3.org/2000/svg" xmlns:xlink="http://www.w3.org/1999/xlink" x="0px" y="0px"
	 viewBox="0 0 384 400" style="enable-background:new 0 0 384 400;" xml:space="preserve">
<style type="text/css">
	.body-st0{fill:#AB2C2F;}
	.body-st1{fill:#FFFFFF;}
	.body-st2{fill:#D9D9D9;}
	.body-st3{opacity:0.2;fill:#555555;}
</style>
<g>
	<path class="body-st0" d="M225.6,294.6c-8.8,3.2-20.7,1.3-25-8c-3-6.6-0.7-14.2,4-19.5c-2.1-0.5-4.3-0.9-6.7-1.3
		c-5,5.3-7.9,11.4-14.3,15.7c-8.8,5.9-31.3,6.6-39,0.1c-5.2-4.4-5.1-11.5-9.2-16.6c-0.9,0.1-1.8,0.2-2.6,0.3c-3.8,0.5-7,3-8.4,6.6
		c-3,8.1-15,42.8-9.4,61.8c3.7,12.5,91.8,5.6,112,3.9c2.4-0.2,4.2-2.1,4.4-4.5c0.9-11.1,2-28-1.5-40.5
		C228.7,293.4,227.2,294,225.6,294.6z"/>
	<path class="body-st1" d="M183.7,281.5c-8.8,5.9-31.3,6.6-39,0.1c-5.2-4.4-5.1-11.5-9.2-16.6c-0.9,0.1-1.8,0.2-2.6,0.3
		c-1.9,0.2-3.7,1-5.2,2.2c-0.1,1-0.4,1.9-0.8,2.8c3.6,9,6.7,24.1,39.6,24.8c11.5,0.2,20.9-3.7,29.4-11.2c1.2-1.1,2.4-2.2,3.5-3.3
		c-0.1-4.9,2-9.7,5.4-13.5c-2.1-0.5-4.3-0.9-6.7-1.3C193,271.1,190.1,277.2,183.7,281.5z"/>
	<path class="body-st1" d="M165.4,330.8c-9.8,0.1-19.5-0.2-29.3-0.9c-7.4-0.5-14.8-1.7-22.2-2.3c0.2,2.2,0.6,4.2,1.2,6.1
		c3.7,12.5,91.8,5.6,112,3.9c2.4-0.2,4.2-2.1,4.4-4.5c0.2-2.1,0.3-4.4,0.5-6.8c-2.8,0.3-5.5,0.6-8.3,0.8
		C204.2,329,184.9,330.7,165.4,330.8z"/>
	<path class="body-st2" d="M227.5,287.8c-2.1-0.2-9.7,4.8-14.5,0.7c-4.8-4.2-10.2-8.3-9.7-16.2c-2.2-2.1-6.8-0.9-9.4,0.2
		c-0.1,0.2-0.1,0.3-0.2,0.5c-0.1,0.3-0.3,0.7-0.4,1c0,0,0,0,0,0c1.7,0.6,4.1,2,4.1,2s-0.7,17.3,16.6,20.8c14.8,3,16.1-4.2,16.1-4.2
		S229.6,288,227.5,287.8z"/>
	<path class="body-st3" d="M225.6,294.6c-8.8,3.2-20.7,1.3-25-8c-3-6.6-0.7-14.2,4-19.5c-2.1-0.5-4.3-0.9-6.7-1.3
		c-5,5.3-7.9,11.4-14.3,15.7c-8.8,5.9-31.3,6.6-39,0.1c-5.2-4.4-5.1-11.5-9.2-16.6c-0.9,0.1-1.8,0.2-2.6,0.3c-3.8,0.5-7,3-8.4,6.6
		c-3,8.1-15,42.8-9.4,61.8c3.7,12.5,91.8,5.6,112,3.9c2.4-0.2,4.2-2.1,4.4-4.5c0.9-11.1,2-28-1.5-40.5
		C228.7,293.4,227.2,294,225.6,294.6z M199.1,328.4c-6.2,3.1-13.4,2.5-20.1,2c-15.6-1.2-32.2,0.8-46.8-5.7
		c-6.4-2.9-11.3-8.2-11.9-15.5c-0.5-6.1,3.3-11.5,3.9-17.2c-0.3-1.2-0.3-2.4,0-3.6c-0.1-3.8,9.1-6.8,9.8-6.6c4.5,0,9.3,2.7,13.7,5.3
		c5.1,3,10.7,5.2,16.7,5.5c5.9,0.3,11.8-0.8,17.3-2.8c9.2-3.3,15.6,6.6,16.9,7c5.3,2,6.6,8.3,8.6,14.1
		C209.3,318.1,205.5,325.2,199.1,328.4z"/>
</g>
</svg>
