<?xml version="1.0" encoding="utf-8"?>
<!-- Generator: Adobe Illustrator 26.0.3, SVG Export Plug-In . SVG Version: 6.00 Build 0)  -->
<svg version="1.1" id="Layer_1" xmlns="http://www.w3.org/2000/svg" xmlns:xlink="http://www.w3.org/1999/xlink" x="0px" y="0px"
	 viewBox="0 0 384 400" style="enable-background:new 0 0 384 400;" xml:space="preserve">
<style type="text/css">
	.body-st0{opacity:0.16;}
	.body-st1{fill:#000202;}
	.body-st2{opacity:0.7;fill:#FF82BE;}
	.body-st3{fill:#E39D1F;}
	.body-st4{fill:#FFB023;}
	.body-st5{fill:#FFD58A;}
</style>
<g>
	<g>
		<path class="body-st0" d="M148.2,285.4c-3.1,0-5.5,2.5-5.5,5.5c0,3.1,2.5,5.5,5.5,5.5s5.5-2.5,5.5-5.5
			C153.7,287.9,151.3,285.4,148.2,285.4z"/>
		<path class="body-st1" d="M148.2,287.7c-1.8,0-3.3,1.5-3.3,3.3c0,1.8,1.5,3.3,3.3,3.3c1.8,0,3.3-1.5,3.3-3.3
			C151.5,289.2,150,287.7,148.2,287.7z M148.2,293.2c-1.3,0-2.3-1-2.3-2.3s1-2.3,2.3-2.3s2.3,1,2.3,2.3S149.5,293.2,148.2,293.2z"/>
		<path class="body-st2" d="M148.2,288.7c-1.3,0-2.3,1-2.3,2.3s1,2.3,2.3,2.3s2.3-1,2.3-2.3S149.5,288.7,148.2,288.7z"/>
	</g>
	<g>
		<path d="M154.6,292.4c-0.6-0.9-1.4-1.7-2.3-2.3l-1.5-1l-0.7,1.6c-0.1,0.2-0.1,0.3-0.2,0.5c-0.1,0.2-0.1,0.3-0.2,0.5l-0.2,0.7
			c0,0.2-0.1,0.3-0.1,0.5c0,0.1,0,0.2,0,0.3l-0.1,0.9l0.6,0.5c0.2,0.2,0.4,0.4,0.5,0.6c0.8,1.2,0.6,2.7-0.4,3.5
			c-0.5,0.4-1.2,0.6-2,0.5c-0.8-0.1-1.5-0.6-2-1.3c-0.9-1.2-0.7-2.8,0.4-3.6l0.4-0.3l0.1-0.5c0.1-0.3,0.1-0.5,0.1-0.7
			c0.1-1-0.5-2.1-1.4-2.8c-0.3-0.2-0.7-0.4-0.9-0.5l-0.7-0.3l-0.6,0.3c-1.9,1-3.3,2.8-3.7,4.9c-0.5,2.3,0,4.6,1.4,6.6
			c1.4,2,3.5,3.3,5.9,3.6c0.4,0,0.7,0.1,1.1,0.1c1.8,0,3.6-0.6,5-1.7C156.3,300.4,156.9,295.9,154.6,292.4L154.6,292.4z"/>
		<path class="body-st3" d="M151.5,291.4C151.5,291.4,151.5,291.4,151.5,291.4c-0.1,0.1-0.1,0.2-0.1,0.4c0,0.1-0.1,0.3-0.1,0.4
			c0,0.1,0,0.1-0.1,0.2c0,0,0,0,0,0.1c0,0,0,0,0,0c0,0.1,0,0.2,0,0.2c0,0.1-0.1,0.3-0.1,0.4c0,0.1,0,0.2,0,0.3
			c0.3,0.2,0.5,0.5,0.8,0.9c1.2,1.8,0.9,4.3-0.8,5.5c-1.8,1.4-4.6,0.9-6.1-1.2c-1.4-2-1-4.4,0.8-5.7c0-0.1,0.1-0.3,0.1-0.4
			c0-0.6-0.3-1.1-0.8-1.5c-0.1-0.1-0.4-0.2-0.6-0.3c-3.2,1.8-4.2,6-1.8,9.3c2.4,3.4,6.9,3.9,9.8,1.6c2.5-2.1,2.9-5.8,1.1-8.5
			C152.8,292.5,152.2,291.9,151.5,291.4z"/>
		<path class="body-st4" d="M151.2,292.2c0,0.1,0,0.1,0,0.2c0,0,0,0,0,0.1c0,0,0,0,0,0c0,0.1,0,0.2,0,0.2c0,0.1-0.1,0.3-0.1,0.4
			c0,0.1,0,0.2,0,0.3c0.3,0.2,0.5,0.5,0.8,0.9c1.2,1.8,0.9,4.3-0.8,5.5c-1.8,1.4-4.6,0.9-6.1-1.2c-1.4-2-1-4.4,0.8-5.7
			c0-0.1,0.1-0.3,0.1-0.4c0-0.4-0.1-0.7-0.4-1c0,0-0.1,0-0.1,0c-2.8,1.4-3.7,5.1-1.7,7.9c2,2.8,5.7,3.3,8.1,1.4
			c2.2-1.7,2.5-4.9,0.9-7.2C152.2,293.1,151.7,292.6,151.2,292.2z"/>
		<path class="body-st5" d="M153.7,296.5c-0.3,0.3-0.5,2.5-0.1,2.6C153.9,299.1,154.5,295.9,153.7,296.5z"/>
		<path class="body-st5" d="M142.3,293.4c-0.5,0.3-0.9,2.8-0.5,2.9C142.3,296.4,143.4,292.8,142.3,293.4z"/>
	</g>
	<g>
		<path class="body-st0" d="M186,285.4c-3.1,0-5.5,2.5-5.5,5.5c0,3.1,2.5,5.5,5.5,5.5s5.5-2.5,5.5-5.5C191.5,287.9,189.1,285.4,186,285.4
			z"/>
		<path class="body-st1" d="M186,287.7c-1.8,0-3.3,1.5-3.3,3.3c0,1.8,1.5,3.3,3.3,3.3s3.3-1.5,3.3-3.3C189.3,289.2,187.8,287.7,186,287.7
			z M186,293.2c-1.3,0-2.3-1-2.3-2.3s1-2.3,2.3-2.3s2.3,1,2.3,2.3S187.2,293.2,186,293.2z"/>
		<path class="body-st2" d="M186,288.7c-1.3,0-2.3,1-2.3,2.3s1,2.3,2.3,2.3s2.3-1,2.3-2.3S187.2,288.7,186,288.7z"/>
	</g>
</g>
</svg>
