<?xml version="1.0" encoding="utf-8"?>
<!-- Generator: Adobe Illustrator 26.0.3, SVG Export Plug-In . SVG Version: 6.00 Build 0)  -->
<svg version="1.1" id="Layer_1" xmlns="http://www.w3.org/2000/svg" xmlns:xlink="http://www.w3.org/1999/xlink" x="0px" y="0px"
	 viewBox="0 0 384 400" style="enable-background:new 0 0 384 400;" xml:space="preserve">
<style type="text/css">
	.body-st0{opacity:0.7;}
</style>
<g>
	<g>
		<g>
			<g>
				<g>
					<path class="body-st0" d="M130.2,300.4c0,0,10.3-4.6,7.8-7.6C135.6,289.7,130.2,300.4,130.2,300.4z"/>
					<path class="body-st0" d="M143.1,292.7c0,0,7.1-2.2,4.7-5.2C145.3,284.4,143.1,292.7,143.1,292.7z"/>
					<path class="body-st0" d="M144.1,301.7c0,0,7.1-2.2,4.7-5.2C146.3,293.4,144.1,301.7,144.1,301.7z"/>
					<path class="body-st0" d="M183.7,291.8c-0.6,3.9,6.7,2.2,6.7,2.2S184.3,287.9,183.7,291.8z"/>
					<path class="body-st0" d="M165.3,291.6c-2.9,2.7,6.9,11.1,6.9,11.1S168.1,288.9,165.3,291.6z"/>
					<path class="body-st0" d="M158.4,283.3c-2.8-1.6-6.7,7.6-6.7,7.6S161.2,284.9,158.4,283.3z"/>
					<path class="body-st0" d="M166.7,283.1c-2.1,2.4,8.9,5,8.9,5S168.9,280.7,166.7,283.1z"/>
					<path class="body-st0" d="M180.9,280.7c-2.1,2.4,8.9,5,8.9,5S183,278.3,180.9,280.7z"/>
					<path class="body-st0" d="M176,294.8c-2.1,2.4,7.1,4.9,7.1,4.9S178.1,292.4,176,294.8z"/>
					<path class="body-st0" d="M158.5,294.2c-3.2-0.6-3.9,9.4-3.9,9.4S161.6,294.8,158.5,294.2z"/>
					<path class="body-st0" d="M138.3,286.6c0,0,10.5-4.2,8-6.3C143.8,278.3,138.3,286.6,138.3,286.6z"/>
				</g>
			</g>
		</g>
	</g>
</g>
</svg>
