<?xml version="1.0" encoding="utf-8"?>
<!-- Generator: Adobe Illustrator 26.0.3, SVG Export Plug-In . SVG Version: 6.00 Build 0)  -->
<svg version="1.1" id="Layer_1" xmlns="http://www.w3.org/2000/svg" xmlns:xlink="http://www.w3.org/1999/xlink" x="0px" y="0px"
	 viewBox="0 0 384 400" style="enable-background:new 0 0 384 400;" xml:space="preserve">
<style type="text/css">
	.body-st0{fill:#FFFFFF;}
	.body-st1{fill:#E39D1F;}
	.body-st2{fill:#849AB0;}
	.body-st3{opacity:0.16;}
</style>
<g>
	<g>
		<g>
			<g>
				<path d="M222.7,281.1l-0.1-0.5c-0.4-3.3-1.7-13.2-15.2-15.6c-32-5-61.2-2.9-69.6-1.2c-8.7,1.8-12.3,2.9-14.9,13l0,0.1
					c-2.3,11-4.1,26.9-4.6,36.9l0,0.3c-0.4,6.3-1.2,21.2,10.2,22.3c8.6,0.5,49.3,2.8,49.3,2.8c0.7,0,11.4,0.7,22.5,0.7
					c6.9,0,13.9-0.3,18.9-1.1l0.2,0c0.1,0,0.1,0,0.2,0c1.7-0.3,7-1,7.9-10.2l0-0.1l0-0.1C227.3,313.9,225.7,300.6,222.7,281.1z
					 M218.9,333.9c-0.2,0-0.4,0.1-0.6,0.1c-12.3,2-39.9,0.3-40.2,0.3c0,0-40.7-2.3-49.2-2.8c-5.8-0.6-6.1-8.9-5.6-17l0-0.3
					c0.5-9.8,2.3-25.3,4.5-36.1c1.9-7.4,3.3-7.7,11-9.3c8.1-1.7,36.5-3.7,67.8,1.2c9.8,1.8,10.6,8.2,11,11.3c0,0.2,0.1,0.4,0.1,0.6
					l0,0c2.9,19.3,4.5,32.4,4.7,46.5C222,333.4,220.1,333.7,218.9,333.9z"/>
			</g>
			<g>
				<path class="body-st0" d="M207.1,267.5c-32-5-60.8-2.8-68.7-1.2c-8.3,1.7-10.8,2.5-13,11.2c-2.4,11.4-4.1,27.2-4.6,36.6
					c-0.3,5.7-1.2,19.1,7.9,20c8.6,0.5,49.3,2.8,49.3,2.8s28.1,1.7,40.8-0.3c1-0.3,5.4,0.1,6.2-8c-0.2-14.6-1.9-27.9-4.8-47
					C219.9,278.9,219.4,269.7,207.1,267.5z"/>
			</g>
			<g>
				<path d="M157.8,264c-5.1,0.4-14.9,0.9-17.1,1.3c-8.3,1.7-10.8,3.5-13,12.2c-2.4,11.4-4.1,27.2-4.6,36.6
					c-0.3,5.7-1.2,19.1,7.9,20c3.6,0.2,18.7,0.7,28.1,1.3C156.9,311.8,158.6,287.4,157.8,264z"/>
				<path class="body-st1" d="M155.5,264c-5.1,0.4-14.9,0.9-17.1,1.3c-8.3,1.7-10.8,3.5-13,12.2c-2.4,11.4-4.1,27.2-4.6,36.6
					c-0.3,5.7-1.2,19.1,7.9,20c3.6,0.2,18.7,0.7,28.1,1.3C154.7,311.8,156.4,287.4,155.5,264z"/>
				<path d="M204.4,267.5c-9.7-1.5-23-3.4-31.6-3.8c0.9,23.8-0.9,48.5,1.3,72.3c0,0.3,0,0.6,0,1c7.4,0.4,31.7,1.2,42-0.5
					c1-0.3,5.4,0.1,6.2-8c-0.2-14.6-1.9-27.9-4.8-47C217.2,278.9,216.7,269.7,204.4,267.5z"/>
				<path class="body-st1" d="M207.1,267.5c-9.7-1.5-23-3.4-31.6-3.8c0.9,23.8-0.9,48.5,1.3,72.3c0,0.3,0,0.6,0,1
					c7.4,0.4,31.7,1.2,42-0.5c1-0.3,5.4,0.1,6.2-8c-0.2-14.6-1.9-27.9-4.8-47C219.9,278.9,219.4,269.7,207.1,267.5z"/>
				<rect x="174.5" y="285.9" width="6" height="3"/>
				<rect x="174.5" y="299.9" width="6" height="3"/>
			</g>
			<g>
				<path class="body-st2" d="M120.9,308.5c0,0.2,0,5.3,0,5.5c-0.3,5.7-1.2,19.1,7.9,20c8.6,0.5,49.3,2.8,49.3,2.8s28.1,1.7,40.8-0.3
					c1-0.3,5.4,0.1,6.2-8c-0.1-5-0.3-9.9-0.7-15L120.9,308.5z"/>
			</g>
		</g>
		<path class="body-st3" d="M220.3,281.4c-0.4-2.5-0.8-11.7-13-13.9c0,0,0,0,0,0c-0.1,0-0.1,0-0.2,0c-32-5-60.8-2.8-68.7-1.2
			c-8.3,1.7-10.8,2.5-13,11.2c-0.2,0.9-0.4,1.8-0.6,2.7c23.1,0.7,48.6-4.4,68.3,7.2c10.7,6.3,17.6,18.4,18.2,30.7
			c-1.5,4.4-5.3,10.1-6.1,10.3c-12.7,2.1-79.2,11.5-83.6-8c0.1,6.7,0.2,12.9,7.1,13.6c8.6,0.5,49.3,2.8,49.3,2.8s18.1,1.1,31.8,0.5
			c0,0,0.1,0,0.1,0c1,0,1.9-0.1,2.9-0.2c0.1,0,0.3,0,0.4,0c0.9-0.1,1.7-0.1,2.5-0.2c0.2,0,0.4,0,0.5,0c0.9-0.1,1.8-0.2,2.6-0.4
			c1-0.3,5.4,0.1,6.2-8c0-1.8-0.1-3.6-0.1-5.4C224.4,310.4,222.8,298.1,220.3,281.4z"/>
		<path d="M119.8,307.2l-0.2,3c2.2,0.2,40.5,4.6,71.3,4.6c13.8,0,26.9-0.3,34.6-2l-0.6-2.9C200.4,315.2,120.6,307.3,119.8,307.2z"/>
	</g>
	<path d="M140,298.3c-2.1,3.8,4.4,4.6,5,2C145.6,297.8,142,294.6,140,298.3z"/>
	<path d="M140.2,285.8c-2.1,3.8,4.4,4.6,5,2C145.7,285.3,142.2,282.1,140.2,285.8z"/>
</g>
</svg>
