<?xml version="1.0" encoding="utf-8"?>
<!-- Generator: Adobe Illustrator 26.0.3, SVG Export Plug-In . SVG Version: 6.00 Build 0)  -->
<svg version="1.1" id="Layer_1" xmlns="http://www.w3.org/2000/svg" xmlns:xlink="http://www.w3.org/1999/xlink" x="0px" y="0px"
	 viewBox="0 0 384 400" style="enable-background:new 0 0 384 400;" xml:space="preserve">
<style type="text/css">
	.body-st0{fill:#1F201A;}
	.body-st1{fill:#E39D1F;}
	.body-st2{fill:#FCCA7A;}
	.body-st3{fill:#849AB0;}
	.body-st4{opacity:0.16;}
</style>
<g>
	<g>
		<g>
			<path class="body-st0" d="M206.8,267.5c-32-5-60.8-2.8-68.7-1.2c-8.3,1.7-10.8,2.5-13,11.2c-2.4,11.4-4.1,27.2-4.6,36.6
				c-0.3,5.7-1.2,19.1,7.9,20c8.6,0.5,49.3,2.8,49.3,2.8s28.1,1.7,40.8-0.3c1-0.3,5.4,0.1,6.2-8c-0.2-14.6-1.9-27.9-4.8-47
				C219.6,278.9,219.2,269.7,206.8,267.5z"/>
		</g>
		<g>
			<g>
				<g>
					<path d="M222.7,281.1l-0.1-0.5c-0.4-3.3-1.7-13.2-15.2-15.6c-32-5-61.2-2.9-69.6-1.2c-8.7,1.8-12.3,2.9-14.9,13l0,0.1
						c-2.3,11-4.1,26.9-4.6,36.9l0,0.3c-0.4,6.3-1.2,21.2,10.2,22.3c8.6,0.5,49.3,2.8,49.3,2.8c0.7,0,11.4,0.7,22.5,0.7
						c6.9,0,13.9-0.3,18.9-1.1l0.2,0c0.1,0,0.1,0,0.2,0c1.7-0.3,7-1,7.9-10.2l0-0.1l0-0.1C227.3,313.9,225.7,300.6,222.7,281.1z
						 M218.9,333.9c-0.2,0-0.4,0.1-0.6,0.1c-12.3,2-39.9,0.3-40.2,0.3c0,0-40.7-2.3-49.2-2.8c-5.8-0.6-6.1-8.9-5.6-17l0-0.3
						c0.5-9.8,2.3-25.3,4.5-36.1c1.9-7.4,3.3-7.7,11-9.3c8.1-1.7,36.5-3.7,67.8,1.2c9.8,1.8,10.6,8.2,11,11.3c0,0.2,0.1,0.4,0.1,0.6
						l0,0c2.9,19.3,4.5,32.4,4.7,46.5C222,333.4,220.1,333.7,218.9,333.9z"/>
				</g>
				<g>
					<path d="M157.8,265c-5.1,0.4-14.9,0.9-17.1,1.3c-8.3,1.7-10.8,2.5-13,11.2c-2.4,11.4-4.1,27.2-4.6,36.6
						c-0.3,5.7-1.2,19.1,7.9,20c3.6,0.2,18.7,0.7,28.1,1.3C156.9,311.8,158.6,288.4,157.8,265z"/>
					<path class="body-st1" d="M155.5,265c-5.1,0.4-14.9,0.9-17.1,1.3c-8.3,1.7-10.8,2.5-13,11.2c-2.4,11.4-4.1,27.2-4.6,36.6
						c-0.3,5.7-1.2,19.1,7.9,20c3.6,0.2,18.7,0.7,28.1,1.3C154.7,311.8,156.4,288.4,155.5,265z"/>
					<path class="body-st2" d="M155.5,265c-2,0.1-4.7,0.3-7.4,0.5v65.8h-2.5v-4.9h-3.9v-4.2h-0.7v-56.2c-1.2,0.1-2.2,0.2-2.7,0.3
						c-0.6,0.1-1.2,0.3-1.8,0.4c0,3.1-0.1,6.2-0.1,9.2c-0.3,16.6-0.9,33.2-1.1,49.8c0,3.2-5,3.2-5,0c0-0.8,0-1.7,0-2.5h-0.6V316
						c-0.1,0-0.1,0-0.2-0.1c-0.6,4-1.3,8-2.1,12c-0.6,2.7-5.3,2.1-4.9-0.7c0.6-4.9,1.2-9.7,1.7-14.6c1.2-10.4,2.3-20.9,3.7-31.3
						c0.3-3.9,0.6-7.8,1-11.7c-1.6,1.5-2.7,3.8-3.7,7.7c-2.4,11.4-4.1,27.2-4.6,36.6c-0.3,5.7-1.2,19.1,7.9,20
						c3.6,0.2,18.7,0.7,28.1,1.3C154.7,311.8,156.4,288.4,155.5,265z"/>
					<path d="M204.4,267.5c-9.7-1.5-30-2.4-38.6-2.8c0.9,23.8-0.9,45.5,1.3,69.3c0,0.3,0,0.6,0,1c8,0.4,38.3,3.2,49,1.5
						c1-0.3,5.4,0.1,6.2-8c-0.2-14.6-1.9-27.9-4.8-47C217.2,278.9,216.7,269.7,204.4,267.5z"/>
					<path class="body-st1" d="M207.1,267.5c-9.7-1.5-30-2.4-38.6-2.8c0.9,23.8-0.9,45.5,1.3,69.3c0,0.3,0,0.6,0,1
						c7.4,0.4,38.7,3.2,49,1.5c1-0.3,5.4,0.1,6.2-8c-0.2-14.6-1.9-27.9-4.8-47C219.9,278.9,219.4,269.7,207.1,267.5z"/>
					<path class="body-st2" d="M175,265c-2.5-0.1-4.7-0.2-6.5-0.3c0.9,23.8-0.9,45.5,1.3,69.3c0,0.3,0,0.6,0,1c1.5,0.1,3.8,0.2,6.7,0.4
						c-0.5-10.8-1.1-21.5-1.2-32.3C175.2,290.4,175.5,277.7,175,265z"/>
					<path class="body-st2" d="M191,294.4c-0.6-9.4-1.7-18.8-3.7-28.1c-0.1-0.3-0.1-0.5,0-0.7c-1.8-0.1-3.6-0.2-5.4-0.3
						c0.6,7.3,1.2,14.6,1.7,21.9c1.1,16.3,2,32.5,2.9,48.8c2.3,0.1,4.8,0.3,7.2,0.4c-0.4-4.4-0.8-8.8-1.2-13.2
						C191.7,313.7,191.6,304.1,191,294.4z"/>
					<path class="body-st2" d="M204.2,296.5c-0.6-9.9-2.3-19.7-2.5-29.7c-1.8-0.2-3.7-0.4-5.6-0.5c-0.1,5.3,0.3,10.7,0.8,16
						c0.9,9.4,2.1,18.7,2.4,28.1c0.3,8.8,0.1,17.6,0.8,26.4c2.1,0.1,4.1,0.1,6,0.2c-0.2-2.9-0.5-5.8-0.7-8.7
						C204.7,317.6,204.8,307,204.2,296.5z"/>
					<path class="body-st2" d="M207.1,267.5c-0.1,0-0.3,0-0.4-0.1c0.1,5.2,0.7,10.3,1.3,15.5c1.3,10.5,1.6,21.1,1.7,31.7
						c0.1,7.5,0.8,14.9,1.4,22.4c3.1,0,5.8-0.2,7.7-0.5c1-0.3,5.4,0.1,6.2-8c-0.2-14.6-1.9-27.9-4.8-47
						C219.9,278.9,219.4,269.7,207.1,267.5z"/>
				</g>
				<g>
					<path class="body-st3" d="M120.9,308.5c0,0.2,0,5.3,0,5.5c-0.3,5.7-1.2,19.1,7.9,20c8.6,0.5,49.3,2.8,49.3,2.8s28.1,1.7,40.8-0.3
						c1-0.3,5.4,0.1,6.2-8c-0.1-5-0.3-9.9-0.7-15L120.9,308.5z"/>
				</g>
			</g>
			<path class="body-st4" d="M220.3,281.4c-0.4-2.5-0.8-11.7-13-13.9c0,0,0,0,0,0c-0.1,0-0.1,0-0.2,0c-32-5-60.8-2.8-68.7-1.2
				c-8.3,1.7-10.8,2.5-13,11.2c-0.2,0.9-0.4,1.8-0.6,2.7c23.1,0.7,48.6-4.4,68.3,7.2c10.7,6.3,17.6,18.4,18.2,30.7
				c-1.5,4.4-5.3,10.1-6.1,10.3c-12.7,2.1-79.2,11.5-83.6-8c0.1,6.7,0.2,12.9,7.1,13.6c8.6,0.5,49.3,2.8,49.3,2.8s18.1,1.1,31.8,0.5
				c0,0,0.1,0,0.1,0c1,0,1.9-0.1,2.9-0.2c0.1,0,0.3,0,0.4,0c0.9-0.1,1.7-0.1,2.5-0.2c0.2,0,0.4,0,0.5,0c0.9-0.1,1.8-0.2,2.6-0.4
				c1-0.3,5.4,0.1,6.2-8c0-1.8-0.1-3.6-0.1-5.4C224.4,310.4,222.8,298.1,220.3,281.4z"/>
			<path d="M119.8,307.2l-0.2,3c2.2,0.2,40.5,4.6,71.3,4.6c13.8,0,26.9-0.3,34.6-2l-0.6-2.9C200.2,315.2,120.9,307.3,119.8,307.2z"
				/>
		</g>
	</g>
	<g>
		<path d="M159.3,277.1l-28.1-1.6l11.4,15.5l3.5,1l-0.3,1.3L160,316l-0.7-18.6L159.3,277.1z M154.3,297.4l-3.1-4.9l1-3.9l-6.5-1.9
			l-4.1-5.6l12.8,0.7L154.3,297.4z"/>
		<polygon class="body-st1" points="156.8,279.4 136.4,278.2 144.1,288.8 149.1,290.3 148.5,292.9 157.1,306.7 156.8,297.5 		"/>
		<polygon class="body-st4" points="156.8,279.4 153.9,288 153.8,296 149.1,290.3 148.5,292.9 157.1,306.7 156.8,297.5 		"/>
		<polygon class="body-st2" points="136.4,278.2 144.1,288.8 146,289.4 146,289.2 140.6,280.7 156.8,279.4 		"/>
	</g>
	<g>
		<path d="M164.1,297.8l-1.5,17.8l15.3-21.3l-0.3-1.5l3.9-1l13.8-16.5l-30.2,1.6L164.1,297.8z M169.9,281.7L184,281l-5.4,6.4
			l-6.8,1.8l0.7,3.9l-3.4,4.8L169.9,281.7z"/>
		<polygon class="body-st1" points="166.6,298 165.8,306.7 175.2,293.7 174.7,291 180,289.6 189.6,278.2 167.5,279.3 		"/>
		<polygon class="body-st4" points="169.6,296.7 170,288.5 167.5,279.3 166.6,298 165.8,306.7 175.2,293.7 174.7,291 		"/>
		<polygon class="body-st2" points="184.6,280.9 178.1,289.9 178.1,290.1 180,289.6 189.6,278.2 167.5,279.3 		"/>
	</g>
	<polygon points="157.7,312.9 157.7,324.2 164.4,324.5 164.8,311.4 159.4,311.5 	"/>
</g>
</svg>
