<?xml version="1.0" encoding="utf-8"?>
<!-- Generator: Adobe Illustrator 26.0.3, SVG Export Plug-In . SVG Version: 6.00 Build 0)  -->
<svg version="1.1" id="Layer_1" xmlns="http://www.w3.org/2000/svg" xmlns:xlink="http://www.w3.org/1999/xlink" x="0px" y="0px"
	 viewBox="0 0 384 400" style="enable-background:new 0 0 384 400;" xml:space="preserve">
<style type="text/css">
	.base-armback-st0{fill:#FAEBCF;}
</style>
<g>
	<path d="M130.1,300.3l-5.5,10.2l-2.8,5.1l-1.4,2.6l-0.7,1.3l-0.3,0.6l-0.2,0.3c-0.1,0.2-0.2,0.4-0.3,0.6l0.2-0.4
		c-0.9,1.6-2,3-3,3.6c-0.5,0.3-1,0.5-1.5,0.5c-0.6,0-1.2-0.1-1.9-0.4l-0.5-0.2l-0.7-0.3l-1.3-0.6l-2.6-1.2c-1.7-0.8-3.4-1.7-5.1-2.6
		l-0.6-0.3c-0.2-0.1-0.4-0.2-0.5-0.3c-0.3-0.2-0.6-0.4-0.9-0.6c-0.5-0.5-0.9-1-1.2-1.5c-0.6-1.1-0.7-2.6-0.4-4.1
		c0.3-1.6,1-3.1,1.9-4.7c0.9-1.7,1.9-3.3,2.9-5c4-6.6,8.3-13.1,13.1-19.1l1.8-2.2l1.9-2.2l2-2.1l2.1-2c0.7-0.6,1.5-1.2,2.2-1.8
		c0.8-0.6,1.6-1.1,2.4-1.6c1.7-0.9,3.4-1.7,5.4-1.9c-2-0.2-4,0.3-5.8,1c-0.9,0.4-1.8,0.8-2.7,1.3c-0.9,0.5-1.7,1.1-2.5,1.6
		c-3.3,2.3-6.2,5-9,7.9c-2.8,2.9-5.3,5.9-7.7,9c-2.4,3.1-4.7,6.3-6.9,9.6c-1.1,1.7-2.1,3.3-3.2,5.1c-1,1.8-2,3.8-2.5,6.1
		c-0.3,1.1-0.4,2.4-0.3,3.6c0.1,1.2,0.4,2.5,1,3.7c0.6,1.2,1.4,2.2,2.4,3.1c0.5,0.4,1,0.8,1.5,1.1c0.3,0.2,0.5,0.3,0.7,0.4l0.7,0.4
		c1.8,1,3.6,1.9,5.4,2.7c0.9,0.4,1.8,0.8,2.7,1.2l1.4,0.6l0.7,0.3l0.8,0.3c1.1,0.4,2.4,0.7,3.8,0.7c1.4,0,2.9-0.6,4-1.3
		c1.1-0.8,1.9-1.7,2.6-2.6c0.7-0.9,1.2-1.8,1.7-2.8l0.2-0.4l2.4-5l2.5-5.3c1.6-3.5,3.2-7.1,4.7-10.7c1.5-3.6,2.9-7.2,4.3-10.9
		c0.7-1.8,1.3-3.7,1.8-5.6c0.6-1.9,0.9-3.8,1-5.8c-0.9,3.8-2.8,7.2-4.5,10.7C133.7,293.5,131.9,296.9,130.1,300.3z"/>
	<path class="base-armback-st0" d="M126,272.9c-11.2,7.5-24,27.6-27.6,34.1c-3.6,6.6-2.4,11.4,1.9,13.9c4.3,2.6,10.9,5.4,10.9,5.4
		c5.2,2.4,7.9-0.9,9.9-4.6c0.1-0.2,11.9-22.9,17.1-36.2C143.4,272.3,137.2,265.4,126,272.9z"/>
	<path class="base-armback-st0" d="M126,272.9c-11.2,7.5-24,27.6-27.6,34.1c-3.6,6.6-2.4,11.4,1.9,13.9c1.8,1.1,4.1,2.2,6.1,3.2
		c-3.6-2.7-4.3-7.2-1-13.3c3.6-6.6,16.4-26.6,27.6-34.1c2.5-1.7,4.7-2.6,6.7-2.9C138.1,269.2,133,268.2,126,272.9z"/>
</g>
</svg>
