<?xml version="1.0" encoding="utf-8"?>
<!-- Generator: Adobe Illustrator 26.0.3, SVG Export Plug-In . SVG Version: 6.00 Build 0)  -->
<svg version="1.1" id="Layer_1" xmlns="http://www.w3.org/2000/svg" xmlns:xlink="http://www.w3.org/1999/xlink" x="0px" y="0px"
	 viewBox="0 0 384 400" style="enable-background:new 0 0 384 400;" xml:space="preserve">
<style type="text/css">
	.base-body-st0{fill:#FAEBCF;}
	.base-body-st1{opacity:0.16;}
</style>
<g>
	<g>
		<g>
			<path d="M221.7,281.6l-0.1-0.5c-0.4-3.3-1.7-13.2-15.2-15.6c-32-5-61.2-2.9-69.6-1.2c-8.7,1.8-12.3,2.9-14.9,13l0,0.1
				c-2.3,11-4.1,26.9-4.7,36.9l0,0.3c-0.4,6.3-1.2,21.2,10.2,22.3c8.6,0.5,49.3,2.8,49.3,2.8c0.7,0,11.4,0.7,22.5,0.7
				c6.9,0,13.9-0.2,18.9-1.1l0.2,0c0.1,0,0.1,0,0.2,0c1.7-0.3,7-1,7.9-10.2l0-0.1l0-0.1C226.3,314.4,224.6,301.1,221.7,281.6z
				 M217.9,334.4c-0.2,0-0.4,0.1-0.6,0.1c-12.3,2-39.9,0.3-40.2,0.3c0,0-40.7-2.3-49.2-2.8c-5.8-0.6-6.1-8.9-5.6-17l0-0.3
				c0.5-9.8,2.3-25.3,4.5-36.1c1.9-7.4,3.3-7.7,11-9.3c8.1-1.7,36.5-3.7,67.8,1.2c9.8,1.8,10.6,8.2,11,11.3c0,0.2,0.1,0.4,0.1,0.6
				l0,0c2.9,19.3,4.5,32.4,4.7,46.5C220.9,333.9,219,334.2,217.9,334.4z"/>
		</g>
		<g>
			<path class="base-body-st0" d="M206,268c-32-5-60.8-2.8-68.7-1.2c-8.3,1.7-10.8,2.5-13,11.2c-2.4,11.4-4.1,27.2-4.6,36.5
				c-0.3,5.7-1.2,19.1,7.9,20c8.6,0.5,49.3,2.8,49.3,2.8s28.1,1.7,40.8-0.3c1-0.3,5.4,0.1,6.2-8c-0.2-14.6-1.9-27.9-4.8-47
				C218.8,279.4,218.4,270.2,206,268z"/>
		</g>
	</g>
	<path class="base-body-st1" d="M219.2,281.9c-0.4-2.5-0.8-11.7-13-13.9c0,0,0,0,0,0c-0.1,0-0.1,0-0.2,0c-32-5-60.8-2.8-68.7-1.2
		c-8.3,1.7-10.8,2.5-13,11.2c-0.2,0.9-0.4,1.8-0.6,2.7c23.1,0.7,48.6-4.4,68.3,7.2c10.7,6.3,17.6,18.4,18.2,30.7
		c-1.5,4.4-5.3,10.1-6.1,10.3c-12.7,2.1-79.2,11.5-83.6-8c0.1,6.7,0.2,12.9,7.1,13.6c8.6,0.5,49.3,2.8,49.3,2.8s18.1,1.1,31.8,0.5
		c0,0,0.1,0,0.1,0c1,0,1.9-0.1,2.9-0.2c0.1,0,0.3,0,0.4,0c0.9-0.1,1.7-0.1,2.5-0.2c0.2,0,0.4,0,0.5,0c0.9-0.1,1.8-0.2,2.6-0.4
		c1-0.3,5.4,0.1,6.2-8c0-1.8-0.1-3.6-0.1-5.4C223.3,310.9,221.7,298.6,219.2,281.9z"/>
</g>
</svg>
