<?xml version="1.0" encoding="utf-8"?>
<!-- Generator: Adobe Illustrator 26.0.3, SVG Export Plug-In . SVG Version: 6.00 Build 0)  -->
<svg version="1.1" id="Layer_1" xmlns="http://www.w3.org/2000/svg" xmlns:xlink="http://www.w3.org/1999/xlink" x="0px" y="0px"
	 viewBox="0 0 384 400" style="enable-background:new 0 0 384 400;" xml:space="preserve">
<style type="text/css">
	.base-head-st0{fill:#FAEBCF;}
	.base-head-st1{opacity:0.16;}
</style>
<g>
	<path d="M258.4,130.2c-37.8-15.4-85.2-20.7-133.4-14.8c-21.6,2.6-29.4,21.6-33.5,35.8c-3.7,12.8-15.1,56.8-9.2,87.9
		c5.5,26.4,21.9,33.9,48.2,38c8,1.3,18.7,2.1,30.7,2.1c27.9,0,62.9-4.4,88.2-18.1c15.4-8.3,19.1-17,20.8-31
		c1.6-12.9,6.1-45.4,6.2-45.8C278.6,163.6,278.5,138.8,258.4,130.2z M271.5,183.6c0,0.3-4.6,32.9-6.2,45.8
		c-1.6,12.9-4.6,19.9-18.2,27.2h0c-33.2,17.9-87.7,19.8-115.7,15.5c-25.3-4-39.1-10.3-44.1-34.1c-5.7-30,5.5-73.1,9.1-85.6
		c4-13.8,10.8-30,29.3-32.2c12.7-1.5,25.3-2.3,37.7-2.3c33.9,0,66.1,5.7,93.2,16.8C270,140.6,274.5,155.2,271.5,183.6z"/>
	<path class="base-head-st0" d="M257.4,132.5c-34.1-13.9-80.9-20.9-132.2-14.7c-20.5,2.4-27.7,21.2-31.4,34c-3.7,12.8-15,56.1-9.1,86.7
		c5.3,25.5,21,32.2,46.1,36.1c25.1,3.9,81.3,3.7,117.3-15.7c14.7-7.9,17.9-16,19.5-29.1c1.6-13.1,6.2-45.8,6.2-45.8
		C276.5,159.6,274.5,139.8,257.4,132.5z"/>
	<path class="base-head-st1" d="M257.4,132.5c-2.6-1-5.2-2.1-8-3.1c8.2,9.1,9,24.5,7.1,42.5c0,0-7.5,37.8-9,50.1c-1.5,12.3-4.5,20-18.4,27.4
		c-33.9,18.3-83.8,11.6-107.5,7.9c-16.7-2.6-29-6.5-36.5-17.1c5.7,24,21.2,30.5,45.7,34.3c25.1,3.9,81.3,3.7,117.3-15.7
		c14.7-7.9,17.9-16,19.5-29.1c1.6-13.1,6.2-45.8,6.2-45.8C276.5,159.6,274.5,139.8,257.4,132.5z"/>
</g>
</svg>
