<?xml version="1.0" encoding="utf-8"?>
<!-- Generator: Adobe Illustrator 26.0.3, SVG Export Plug-In . SVG Version: 6.00 Build 0)  -->
<svg version="1.1" id="Layer_1" xmlns="http://www.w3.org/2000/svg" xmlns:xlink="http://www.w3.org/1999/xlink" x="0px" y="0px"
	 viewBox="0 0 384 400" style="enable-background:new 0 0 384 400;" xml:space="preserve">
<style type="text/css">
	.base-legback-st0{fill:#FAEBCF;}
	.base-legback-st1{opacity:0.16;}
</style>
<g>
	<g>
		<path d="M163.8,337L163.8,337l-0.5,12.2l0,0.2c0,0,0,0.4-0.4,0.8c-0.4,0.5-1.6,1.4-4.9,1.5c-8.1,0.2-16.2,0-24.7-0.7
			c-6-0.7-6.1-7.4-5.5-16.7l0-0.8c0-0.2,0-0.7,0-3.8c0-2.4,0-6,0.1-6.5l-2.5-0.2l2.5,0.2l-2.5-0.2l-2.5-0.2c0,0.3,0,1.2-0.1,6.8
			c0,1.8,0,3.4,0,3.6l0,0.8c-0.5,8.2-1.3,20.6,10,22c6.5,0.6,12.8,0.8,19.1,0.8c2.1,0,4.2,0,6.3-0.1c4-0.1,6.8-1.2,8.6-3.2
			c1.5-1.8,1.6-3.7,1.5-4.5l0.3-9.4h0c0.1-0.7,0.1-1.6,0.2-2.6c0.1-1.6,0.1-3.6,0.2-5.7c0.1-4.1,0.2-8.3,0.2-8.3l-5-0.1
			C164.1,328.2,163.9,333.9,163.8,337z"/>
	</g>
	<g>
		<path class="base-legback-st0" d="M125.5,333.3c-0.5,8.4-1.4,19,7.6,20.2c8.6,0.7,16.7,1,25.1,0.7c8.4-0.2,7.6-5.2,7.6-5.2l0.3-9.6
			c0.2,0,0.6-16.5,0.6-16.5h-41.1C125.5,323.4,125.5,332.9,125.5,333.3z"/>
	</g>
	<g>
		<g>
			<path class="base-legback-st1" d="M150,322.7c0,0-0.3,22.5-0.5,25.4c-0.2,3.2-3.2,6.1-7.3,6c6.1,0.3,10.4,0.3,16.5,0.2
				c8.4-0.2,7.6-5.2,7.6-5.2l0.3-25.7L150,322.7z"/>
		</g>
	</g>
</g>
</svg>
