<?xml version="1.0" encoding="utf-8"?>
<!-- Generator: Adobe Illustrator 26.0.3, SVG Export Plug-In . SVG Version: 6.00 Build 0)  -->
<svg version="1.1" id="Layer_1" xmlns="http://www.w3.org/2000/svg" xmlns:xlink="http://www.w3.org/1999/xlink" x="0px" y="0px"
	 viewBox="0 0 384 400" style="enable-background:new 0 0 384 400;" xml:space="preserve">
<style type="text/css">
	.leg-st0{fill:#4FA7DC;}
	.leg-st1{opacity:0.16;}
</style>
<g>
	<path d="M219.6,348.3l0-0.2c0,0,0,0,0,0L219.6,348.3z"/>
	<path d="M222.9,319.3c-0.6,4.8-1.2,9.7-1.7,14.5c-0.3,2.4-0.5,4.8-0.8,7.2l-0.7,7.1c0,0,0,0,0,0l0,0.2l0-0.2
		c-0.4,1.7-1,3.3-1.9,4.3c-0.4,0.5-0.9,0.8-1.4,1c-0.3,0.1-0.5,0.2-0.8,0.2c-0.2,0-0.3,0-0.5,0c-0.2,0-0.3,0-1,0.1l0.2,0
		c-2.9,0.1-5.8,0.3-8.6,0.5c-2.9,0.2-5.7,0.3-8.4,0.3c-5.6,0-11.1-0.7-16.7-1.7l-0.2,0l0,0c-0.6-0.1-1.1-0.1-1.5-0.3
		c-0.4-0.2-0.6-0.3-0.9-0.6c-0.5-0.6-0.7-1.9-0.8-3.4c-0.1-1.6-0.3-3.1-0.5-4.6l-0.7-4.5c0,0.1,0,0.1,0,0.2l0-0.2l0,0
		c0-2.7-0.2-5.5-0.2-8.2c-0.1-2.8-0.2-5.6-0.4-8.4c-0.4,2.8-0.7,5.5-1.1,8.3c-0.3,2.8-0.6,5.6-0.9,8.3l0,0.2l0.1,4.6
		c0,1.5,0.1,3,0.1,4.5c0,0.8,0,1.6,0.1,2.5c0.1,0.9,0.3,2,0.9,3c0.6,1,1.6,1.8,2.6,2.3c1,0.5,2,0.7,2.9,0.8l-0.2,0
		c2.9,0.7,5.7,1.2,8.7,1.6c2.9,0.4,5.9,0.6,8.9,0.7c3,0,5.9-0.1,8.8-0.4c2.9-0.3,5.8-0.6,8.6-0.9l0.5,0l-0.2,0c-0.1,0,0.2,0,0.4,0
		c0.3,0,0.6-0.1,0.9-0.1c0.6-0.1,1.3-0.3,1.9-0.6c1.2-0.6,2.2-1.5,2.9-2.5c0.7-1,1.1-2,1.4-3.1c0.3-1,0.5-2,0.6-3l0-0.2l0,0
		c0.1-2.5,0.1-4.9,0.1-7.3c0-2.4,0-4.9,0-7.3c0-2.4,0-4.9-0.1-7.3C223.1,324.2,223,321.7,222.9,319.3z"/>
	<path d="M175.9,339.2l0,0.2C175.9,339.3,175.9,339.3,175.9,339.2L175.9,339.2z"/>
	<path class="leg-st0" d="M174.6,339.3c0,0,0.6,6.4,0.7,9.2c0.1,2.7,0.2,5.9,4.8,6.4c15.1,3.1,21.6,2,34.4,1c1-0.2,5.4,0.5,6.8-7.5
		c0.3-3.9,1.3-23.8,1.5-29.1l-47.6,3.3L174.6,339.3z"/>
	<path class="leg-st1" d="M199,356.9c4.8-0.1,9.5-0.6,15.5-1c1-0.2,5.4,0.5,6.8-7.5c0.3-3.9,1.3-23.8,1.5-29.1l-12.3,0.9
		C211,333.6,207.2,346.4,199,356.9z"/>
</g>
</svg>
