<?xml version="1.0" encoding="utf-8"?>
<!-- Generator: Adobe Illustrator 26.0.3, SVG Export Plug-In . SVG Version: 6.00 Build 0)  -->
<svg version="1.1" id="Layer_1" xmlns="http://www.w3.org/2000/svg" xmlns:xlink="http://www.w3.org/1999/xlink" x="0px" y="0px"
	 viewBox="0 0 384 400" style="enable-background:new 0 0 384 400;" xml:space="preserve">
<style type="text/css">
	.leg-st0{fill:#1D1C20;}
	.leg-st1{fill:#49484D;}
	.leg-st2{opacity:0.16;}
</style>
<g>
	<path d="M176,340l0,0.2C176,340.1,176,340.1,176,340L176,340z"/>
	<path d="M219.7,349.1l0-0.2c0,0,0,0,0,0L219.7,349.1z"/>
	<path d="M223,320.1c-0.6,4.8-1.2,9.7-1.7,14.5c-0.3,2.4-0.5,4.8-0.8,7.2l-0.7,7.1c0,0,0,0,0,0l0,0.2l0-0.2c-0.4,1.7-1,3.3-1.9,4.3
		c-0.4,0.5-0.9,0.8-1.4,1c-0.3,0.1-0.5,0.2-0.8,0.2c-0.2,0-0.3,0-0.5,0c-0.2,0-0.3,0-1,0.1l0.2,0c-2.9,0.1-5.8,0.3-8.6,0.5
		c-2.9,0.2-5.7,0.3-8.4,0.3c-5.6,0-11.1-0.7-16.7-1.7l-0.2,0l0,0c-0.6-0.1-1.1-0.1-1.5-0.3c-0.4-0.2-0.6-0.3-0.9-0.6
		c-0.5-0.6-0.7-1.9-0.8-3.4c-0.1-1.6-0.3-3.1-0.5-4.6L176,340c0,0.1,0,0.1,0,0.2l0-0.2l0,0c0-2.7-0.2-5.5-0.2-8.2
		c-0.1-2.8-0.2-5.6-0.4-8.4c-0.4,2.8-0.7,5.5-1.1,8.3c-0.3,2.8-0.6,5.6-0.9,8.3l0,0.2l0.1,4.6c0,1.5,0.1,3,0.1,4.5
		c0,0.8,0,1.6,0.1,2.5c0.1,0.9,0.3,2,0.9,3c0.6,1,1.6,1.8,2.6,2.3c1,0.5,2,0.7,2.9,0.8l-0.2,0c2.9,0.7,5.7,1.2,8.7,1.6
		c2.9,0.4,5.9,0.6,8.9,0.7c3,0,5.9-0.1,8.8-0.4c2.9-0.3,5.8-0.6,8.6-0.9l0.5,0l-0.2,0c-0.1,0,0.2,0,0.4,0c0.3,0,0.6-0.1,0.9-0.1
		c0.6-0.1,1.3-0.3,1.9-0.6c1.2-0.6,2.2-1.5,2.9-2.5c0.7-1,1.1-2,1.4-3.1c0.3-1,0.5-2,0.6-3l0-0.2l0,0c0.1-2.5,0.1-4.9,0.1-7.3
		c0-2.4,0-4.9,0-7.3c0-2.4,0-4.9-0.1-7.3C223.2,325,223.1,322.5,223,320.1z"/>
	<path class="leg-st0" d="M174.7,340.1c0,0,0.6,6.4,0.7,9.2c0.1,2.7,0.2,5.9,4.8,6.4c15.1,3.1,21.6,2,34.4,1c1-0.2,5.4,0.5,6.8-7.5
		c0.3-3.9,1.3-23.8,1.5-29.1l-47.6,3.3L174.7,340.1z"/>
	<path class="leg-st1" d="M181.5,337.7v-14.2c0-0.2,0-0.3,0.1-0.5l-6.2,0.4l-0.6,16.7c0,0,0.6,6.4,0.7,9.2c0.1,2.7,0.2,5.9,4.8,6.4
		c0.6,0.1,1.1,0.2,1.7,0.3c-0.1-1.5-0.2-3-0.3-4.4C181.3,347,181.5,342.3,181.5,337.7z"/>
	<path class="leg-st1" d="M197.8,321.8c0,9.5,0.3,19-0.1,28.5c-0.1,2.4-0.3,4.9-0.5,7.3c3.2,0,6.2-0.1,9.5-0.4c1-12,1.2-24.1-1.2-36
		L197.8,321.8z"/>
	<path class="leg-st1" d="M218.6,320.4l-8.1,0.6c0.7,3.7,1.2,7.5,1.5,11.3c0.6,8.2,0.3,16.5-0.3,24.7c0.9-0.1,1.9-0.2,2.9-0.2
		c1-0.2,5.4,0.5,6.8-7.5c0.1-1,0.2-2.9,0.3-5.3c-1.3-7.5-2.9-15-3.3-22.7C218.5,320.9,218.5,320.6,218.6,320.4z"/>
	<path class="leg-st1" d="M186.4,322.6c0.1,0.3,0.1,0.5,0.1,0.8v14.7c0,4.6-0.2,9.2,0.1,13.8c0.1,1.6,0.2,3.2,0.3,4.9
		c1.9,0.3,3.6,0.5,5.3,0.6c0.2-2.4,0.3-4.7,0.5-7.1c0.5-9.4,0.2-18.8,0.1-28.2L186.4,322.6z"/>
	<path class="leg-st2" d="M199.1,357.7c4.8-0.1,9.5-0.6,15.5-1c1-0.2,5.4,0.5,6.8-7.5c0.3-3.9,1.3-23.8,1.5-29.1l-12.3,0.9
		C211.1,334.4,207.3,347.2,199.1,357.7z"/>
</g>
</svg>
