<?xml version="1.0" encoding="utf-8"?>
<!-- Generator: Adobe Illustrator 26.0.3, SVG Export Plug-In . SVG Version: 6.00 Build 0)  -->
<svg version="1.1" id="Layer_1" xmlns="http://www.w3.org/2000/svg" xmlns:xlink="http://www.w3.org/1999/xlink" x="0px" y="0px"
	 viewBox="0 0 384 400" style="enable-background:new 0 0 384 400;" xml:space="preserve">
<style type="text/css">
	.ears-st0{fill:#FAEBCF;}
	.ears-st1{opacity:0.16;}
</style>
<g>
	<path d="M283.5,202.1c-1-1.2-2.3-2.3-3.7-2.9c-2.9-1.3-5.8-1.2-8.4-0.6c-2.6,0.6-5.1,1.6-7.2,3c2.5-0.4,5.1-0.7,7.5-0.6
		c2.4,0.1,4.7,0.6,6.4,1.7c1.7,1.1,2.6,2.8,3.1,4.8c0.2,1,0.4,2.1,0.4,3.2c0,1.1,0,2.2-0.3,3.2c-0.4,2.1-1.2,4.2-2.5,5.9
		c-1.2,1.8-2.8,3.3-4.7,4.3c-1.9,1-4.1,1.4-6.4,1.2c-2.3-0.2-4.6-1.2-6.9-2.3c1.6,2,3.7,3.8,6.4,4.7c1.3,0.5,2.7,0.8,4.2,0.8
		c1.4,0,2.9-0.2,4.3-0.7c2.8-0.9,5.3-2.8,7.1-5c0.9-1.1,1.7-2.4,2.3-3.7c0.6-1.3,1-2.7,1.3-4.2c0.5-2.9,0.4-5.8-0.5-8.6
		C285.1,204.8,284.5,203.4,283.5,202.1z"/>
	<path class="ears-st0" d="M264.1,201.6c0,0-16.1,10.7-3.5,21.3s25.9-2.4,22.9-15.4C280.5,194.6,264.1,201.6,264.1,201.6z"/>
	<path class="ears-st1" d="M261.5,206.1c0,0-9.7,5.5-1.8,11.4s16-0.8,13.9-7.9C271.5,202.5,261.5,206.1,261.5,206.1z"/>
</g>
</svg>
