<?xml version="1.0" encoding="utf-8"?>
<!-- Generator: Adobe Illustrator 26.0.3, SVG Export Plug-In . SVG Version: 6.00 Build 0)  -->
<svg version="1.1" id="Layer_1" xmlns="http://www.w3.org/2000/svg" xmlns:xlink="http://www.w3.org/1999/xlink" x="0px" y="0px"
	 viewBox="0 0 384 400" style="enable-background:new 0 0 384 400;" xml:space="preserve">
<style type="text/css">
	.ears-st0{fill:#FAEBCF;}
	.ears-st1{opacity:0.16;}
	.ears-st2{fill:#BA3B99;}
	.ears-st3{opacity:0.5;fill:#FFFFFF;}
	.ears-st4{fill:#6E44D8;}
	.ears-st5{fill:#44BDD8;}
	.ears-st6{fill:#D84E1C;}
	.ears-st7{fill:#D8A10B;}
	.ears-st8{fill:#008F6C;}
</style>
<g>
	<path d="M207,176.4c-1-1.2-2.3-2.3-3.7-2.9c-2.9-1.3-5.8-1.2-8.4-0.6c-2.6,0.6-5.1,1.6-7.2,3c2.5-0.4,5.1-0.7,7.5-0.6
		c2.4,0.1,4.7,0.6,6.4,1.7c1.7,1.1,2.6,2.8,3.1,4.8c0.2,1,0.4,2.1,0.4,3.2c0,1.1,0,2.2-0.3,3.2c-0.4,2.1-1.2,4.2-2.5,5.9
		c-1.2,1.8-2.8,3.3-4.7,4.3c-1.9,1-4.1,1.4-6.4,1.2c-2.3-0.2-4.6-1.2-6.9-2.3c1.6,2,3.7,3.8,6.4,4.7c1.3,0.5,2.7,0.8,4.2,0.8
		c1.4,0,2.9-0.2,4.3-0.7c2.8-0.9,5.3-2.8,7.1-5c0.9-1.1,1.7-2.4,2.3-3.7c0.6-1.3,1-2.7,1.3-4.2c0.5-2.9,0.4-5.8-0.5-8.6
		C208.7,179.1,208,177.6,207,176.4z"/>
	<path class="ears-st0" d="M187.6,175.9c0,0-16.1,10.7-3.5,21.3c12.6,10.6,25.9-2.4,22.9-15.4C204,168.8,187.6,175.9,187.6,175.9z"/>
	<path class="ears-st1" d="M185,180.3c0,0-9.7,5.5-1.8,11.4c8,5.9,16-0.8,13.9-7.9S185,180.3,185,180.3z"/>
</g>
<g>
	<g>
		<path d="M199.1,190.8c-3-0.8-5.6,0.6-6.9,3.8c-2.1,4.9-1.2,15.2,2.4,17.5c0.6,0.4,1.2,0.6,1.9,0.6c0.7,0,1.4-0.2,2-0.6
			c3.4-2.2,5.1-11.8,4.3-16.4C202.2,192.2,200.5,191.1,199.1,190.8z M196.6,206.1c-0.7-2.8-1-7.7,0.3-10c0.3-0.5,0.4-0.6,0.6-0.6
			c0,0,0,0,0,0C198.5,197.1,197.8,203,196.6,206.1z"/>
		<path class="ears-st2" d="M198.5,193.2c-6.7-1.7-5.7,14.8-2.5,16.8C199.1,212,202.8,194.3,198.5,193.2z"/>
		<path class="ears-st3" d="M198.4,195.4c-4.6-1.1-4.2,10.7-2.1,12.1C198.5,208.9,201.4,196.1,198.4,195.4z"/>
	</g>
	<g>
		<path d="M208.3,212.6l-5.9-1.3l-3.1-5.2c-0.5-0.8-1.3-1.2-2.1-1.2s-1.7,0.5-2.1,1.2l-3.1,5.2l-5.9,1.3c-0.9,0.2-1.6,0.8-1.8,1.7
			c-0.3,0.8-0.1,1.8,0.5,2.4l4,4.6l-0.6,6c-0.1,0.9,0.3,1.7,1,2.2c0.4,0.3,0.9,0.5,1.5,0.5c0.3,0,0.7-0.1,1-0.2l5.6-2.4l5.6,2.4
			c0.8,0.4,1.7,0.2,2.5-0.3s1.1-1.4,1-2.3l-0.6-6l4-4.6c0.6-0.7,0.8-1.6,0.5-2.4C209.9,213.4,209.2,212.8,208.3,212.6z M188.7,220.7
			C188.7,220.7,188.7,220.7,188.7,220.7C188.7,220.7,188.7,220.7,188.7,220.7z M189,221.7C189,221.7,189,221.7,189,221.7
			C189,221.7,189,221.7,189,221.7z M202.7,211.7L202.7,211.7L202.7,211.7z M196.6,227.2C196.6,227.2,196.6,227.2,196.6,227.2
			C196.6,227.2,196.6,227.2,196.6,227.2z M197.7,227.2L197.7,227.2L197.7,227.2z M201.5,218.4c-0.7,0.8-1,1.8-0.9,2.7l0.2,2.4
			l-2.2-1c-0.5-0.2-1-0.3-1.4-0.3c-0.5,0-1,0.1-1.4,0.3l-2.2,1l0.2-2.4c0.1-1-0.2-2-0.9-2.7l-1.6-1.8l2.4-0.5c1-0.2,1.8-0.8,2.3-1.7
			l1.3-2.1l1.3,2.1c0.5,0.9,1.4,1.5,2.3,1.7l2.4,0.5L201.5,218.4z M205.3,221.7L205.3,221.7L205.3,221.7z"/>
		<path class="ears-st2" d="M207.8,215l-6.5-1.5c-0.3-0.1-0.6-0.3-0.7-0.5l-3.4-5.7l-3.4,5.7c-0.2,0.3-0.4,0.5-0.7,0.5l-6.5,1.5l4.4,5
			c0.2,0.2,0.3,0.6,0.3,0.9l-0.6,6.6l6.1-2.6c0.3-0.1,0.6-0.1,0.9,0l6.1,2.6l-0.6-6.6c0-0.3,0.1-0.6,0.3-0.9L207.8,215z"/>
		<path class="ears-st3" d="M202.7,216.5l-3.6-0.8c-0.2,0-0.3-0.1-0.4-0.3l-1.9-2.9l-1.9,2.9c-0.1,0.1-0.2,0.2-0.4,0.3l-3.6,0.8l2.4,2.6
			c0.1,0.1,0.2,0.3,0.2,0.4l-0.3,3.4l3.4-1.4c0.2-0.1,0.3-0.1,0.5,0l3.4,1.4l-0.3-3.4c0-0.2,0-0.3,0.2-0.4L202.7,216.5z"/>
	</g>
</g>
<g>
	<g>
		<path d="M199.1,190.8c-3-0.8-5.6,0.6-6.9,3.8c-2.1,4.9-1.2,15.2,2.4,17.5c0.6,0.4,1.2,0.6,1.9,0.6c0.7,0,1.4-0.2,2-0.6
			c3.4-2.2,5.1-11.8,4.3-16.4C202.2,192.2,200.5,191.1,199.1,190.8z M196.6,206.1c-0.7-2.8-1-7.7,0.3-10c0.3-0.5,0.4-0.6,0.6-0.6
			c0,0,0,0,0,0C198.5,197.1,197.8,203,196.6,206.1z"/>
		<path class="ears-st4" d="M198.5,193.2c-6.7-1.7-5.7,14.8-2.5,16.8C199.1,212,202.8,194.3,198.5,193.2z"/>
		<path class="ears-st3" d="M198.4,195.4c-4.6-1.1-4.2,10.7-2.1,12.1C198.5,208.9,201.4,196.1,198.4,195.4z"/>
	</g>
	<g>
		<path d="M208.3,212.6l-5.9-1.3l-3.1-5.2c-0.5-0.8-1.3-1.2-2.1-1.2s-1.7,0.5-2.1,1.2l-3.1,5.2l-5.9,1.3c-0.9,0.2-1.6,0.8-1.8,1.7
			c-0.3,0.8-0.1,1.8,0.5,2.4l4,4.6l-0.6,6c-0.1,0.9,0.3,1.7,1,2.2c0.4,0.3,0.9,0.5,1.5,0.5c0.3,0,0.7-0.1,1-0.2l5.6-2.4l5.6,2.4
			c0.8,0.4,1.7,0.2,2.5-0.3s1.1-1.4,1-2.3l-0.6-6l4-4.6c0.6-0.7,0.8-1.6,0.5-2.4C209.9,213.4,209.2,212.8,208.3,212.6z M188.7,220.7
			C188.7,220.7,188.7,220.7,188.7,220.7C188.7,220.7,188.7,220.7,188.7,220.7z M189,221.7C189,221.7,189,221.7,189,221.7
			C189,221.7,189,221.7,189,221.7z M202.7,211.7L202.7,211.7L202.7,211.7z M196.6,227.2C196.6,227.2,196.6,227.2,196.6,227.2
			C196.6,227.2,196.6,227.2,196.6,227.2z M197.7,227.2L197.7,227.2L197.7,227.2z M201.5,218.4c-0.7,0.8-1,1.8-0.9,2.7l0.2,2.4
			l-2.2-1c-0.5-0.2-1-0.3-1.4-0.3c-0.5,0-1,0.1-1.4,0.3l-2.2,1l0.2-2.4c0.1-1-0.2-2-0.9-2.7l-1.6-1.8l2.4-0.5c1-0.2,1.8-0.8,2.3-1.7
			l1.3-2.1l1.3,2.1c0.5,0.9,1.4,1.5,2.3,1.7l2.4,0.5L201.5,218.4z M205.3,221.7L205.3,221.7L205.3,221.7z"/>
		<path class="ears-st4" d="M207.8,215l-6.5-1.5c-0.3-0.1-0.6-0.3-0.7-0.5l-3.4-5.7l-3.4,5.7c-0.2,0.3-0.4,0.5-0.7,0.5l-6.5,1.5l4.4,5
			c0.2,0.2,0.3,0.6,0.3,0.9l-0.6,6.6l6.1-2.6c0.3-0.1,0.6-0.1,0.9,0l6.1,2.6l-0.6-6.6c0-0.3,0.1-0.6,0.3-0.9L207.8,215z"/>
		<path class="ears-st3" d="M202.7,216.5l-3.6-0.8c-0.2,0-0.3-0.1-0.4-0.3l-1.9-2.9l-1.9,2.9c-0.1,0.1-0.2,0.2-0.4,0.3l-3.6,0.8l2.4,2.6
			c0.1,0.1,0.2,0.3,0.2,0.4l-0.3,3.4l3.4-1.4c0.2-0.1,0.3-0.1,0.5,0l3.4,1.4l-0.3-3.4c0-0.2,0-0.3,0.2-0.4L202.7,216.5z"/>
	</g>
</g>
<g>
	<g>
		<path d="M199.1,190.8c-3-0.8-5.6,0.6-6.9,3.8c-2.1,4.9-1.2,15.2,2.4,17.5c0.6,0.4,1.2,0.6,1.9,0.6c0.7,0,1.4-0.2,2-0.6
			c3.4-2.2,5.1-11.8,4.3-16.4C202.2,192.2,200.5,191.1,199.1,190.8z M196.6,206.1c-0.7-2.8-1-7.7,0.3-10c0.3-0.5,0.4-0.6,0.6-0.6
			c0,0,0,0,0,0C198.5,197.1,197.8,203,196.6,206.1z"/>
		<path class="ears-st5" d="M198.5,193.2c-6.7-1.7-5.7,14.8-2.5,16.8C199.1,212,202.8,194.3,198.5,193.2z"/>
		<path class="ears-st3" d="M198.4,195.4c-4.6-1.1-4.2,10.7-2.1,12.1C198.5,208.9,201.4,196.1,198.4,195.4z"/>
	</g>
	<g>
		<path d="M208.3,212.6l-5.9-1.3l-3.1-5.2c-0.5-0.8-1.3-1.2-2.1-1.2s-1.7,0.5-2.1,1.2l-3.1,5.2l-5.9,1.3c-0.9,0.2-1.6,0.8-1.8,1.7
			c-0.3,0.8-0.1,1.8,0.5,2.4l4,4.6l-0.6,6c-0.1,0.9,0.3,1.7,1,2.2c0.4,0.3,0.9,0.5,1.5,0.5c0.3,0,0.7-0.1,1-0.2l5.6-2.4l5.6,2.4
			c0.8,0.4,1.7,0.2,2.5-0.3s1.1-1.4,1-2.3l-0.6-6l4-4.6c0.6-0.7,0.8-1.6,0.5-2.4C209.9,213.4,209.2,212.8,208.3,212.6z M188.7,220.7
			C188.7,220.7,188.7,220.7,188.7,220.7C188.7,220.7,188.7,220.7,188.7,220.7z M189,221.7C189,221.7,189,221.7,189,221.7
			C189,221.7,189,221.7,189,221.7z M202.7,211.7L202.7,211.7L202.7,211.7z M196.6,227.2C196.6,227.2,196.6,227.2,196.6,227.2
			C196.6,227.2,196.6,227.2,196.6,227.2z M197.7,227.2L197.7,227.2L197.7,227.2z M201.5,218.4c-0.7,0.8-1,1.8-0.9,2.7l0.2,2.4
			l-2.2-1c-0.5-0.2-1-0.3-1.4-0.3c-0.5,0-1,0.1-1.4,0.3l-2.2,1l0.2-2.4c0.1-1-0.2-2-0.9-2.7l-1.6-1.8l2.4-0.5c1-0.2,1.8-0.8,2.3-1.7
			l1.3-2.1l1.3,2.1c0.5,0.9,1.4,1.5,2.3,1.7l2.4,0.5L201.5,218.4z M205.3,221.7L205.3,221.7L205.3,221.7z"/>
		<path class="ears-st5" d="M207.8,215l-6.5-1.5c-0.3-0.1-0.6-0.3-0.7-0.5l-3.4-5.7l-3.4,5.7c-0.2,0.3-0.4,0.5-0.7,0.5l-6.5,1.5l4.4,5
			c0.2,0.2,0.3,0.6,0.3,0.9l-0.6,6.6l6.1-2.6c0.3-0.1,0.6-0.1,0.9,0l6.1,2.6l-0.6-6.6c0-0.3,0.1-0.6,0.3-0.9L207.8,215z"/>
		<path class="ears-st3" d="M202.7,216.5l-3.6-0.8c-0.2,0-0.3-0.1-0.4-0.3l-1.9-2.9l-1.9,2.9c-0.1,0.1-0.2,0.2-0.4,0.3l-3.6,0.8l2.4,2.6
			c0.1,0.1,0.2,0.3,0.2,0.4l-0.3,3.4l3.4-1.4c0.2-0.1,0.3-0.1,0.5,0l3.4,1.4l-0.3-3.4c0-0.2,0-0.3,0.2-0.4L202.7,216.5z"/>
	</g>
</g>
<g>
	<g>
		<path d="M199.1,190.8c-3-0.8-5.6,0.6-6.9,3.8c-2.1,4.9-1.2,15.2,2.4,17.5c0.6,0.4,1.2,0.6,1.9,0.6c0.7,0,1.4-0.2,2-0.6
			c3.4-2.2,5.1-11.8,4.3-16.4C202.2,192.2,200.5,191.1,199.1,190.8z M196.6,206.1c-0.7-2.8-1-7.7,0.3-10c0.3-0.5,0.4-0.6,0.6-0.6
			c0,0,0,0,0,0C198.5,197.1,197.8,203,196.6,206.1z"/>
		<path class="ears-st6" d="M198.5,193.2c-6.7-1.7-5.7,14.8-2.5,16.8C199.1,212,202.8,194.3,198.5,193.2z"/>
		<path class="ears-st3" d="M198.4,195.4c-4.6-1.1-4.2,10.7-2.1,12.1C198.5,208.9,201.4,196.1,198.4,195.4z"/>
	</g>
	<g>
		<path d="M208.3,212.6l-5.9-1.3l-3.1-5.2c-0.5-0.8-1.3-1.2-2.1-1.2s-1.7,0.5-2.1,1.2l-3.1,5.2l-5.9,1.3c-0.9,0.2-1.6,0.8-1.8,1.7
			c-0.3,0.8-0.1,1.8,0.5,2.4l4,4.6l-0.6,6c-0.1,0.9,0.3,1.7,1,2.2c0.4,0.3,0.9,0.5,1.5,0.5c0.3,0,0.7-0.1,1-0.2l5.6-2.4l5.6,2.4
			c0.8,0.4,1.7,0.2,2.5-0.3s1.1-1.4,1-2.3l-0.6-6l4-4.6c0.6-0.7,0.8-1.6,0.5-2.4C209.9,213.4,209.2,212.8,208.3,212.6z M188.7,220.7
			C188.7,220.7,188.7,220.7,188.7,220.7C188.7,220.7,188.7,220.7,188.7,220.7z M189,221.7C189,221.7,189,221.7,189,221.7
			C189,221.7,189,221.7,189,221.7z M202.7,211.7L202.7,211.7L202.7,211.7z M196.6,227.2C196.6,227.2,196.6,227.2,196.6,227.2
			C196.6,227.2,196.6,227.2,196.6,227.2z M197.7,227.2L197.7,227.2L197.7,227.2z M201.5,218.4c-0.7,0.8-1,1.8-0.9,2.7l0.2,2.4
			l-2.2-1c-0.5-0.2-1-0.3-1.4-0.3c-0.5,0-1,0.1-1.4,0.3l-2.2,1l0.2-2.4c0.1-1-0.2-2-0.9-2.7l-1.6-1.8l2.4-0.5c1-0.2,1.8-0.8,2.3-1.7
			l1.3-2.1l1.3,2.1c0.5,0.9,1.4,1.5,2.3,1.7l2.4,0.5L201.5,218.4z M205.3,221.7L205.3,221.7L205.3,221.7z"/>
		<path class="ears-st6" d="M207.8,215l-6.5-1.5c-0.3-0.1-0.6-0.3-0.7-0.5l-3.4-5.7l-3.4,5.7c-0.2,0.3-0.4,0.5-0.7,0.5l-6.5,1.5l4.4,5
			c0.2,0.2,0.3,0.6,0.3,0.9l-0.6,6.6l6.1-2.6c0.3-0.1,0.6-0.1,0.9,0l6.1,2.6l-0.6-6.6c0-0.3,0.1-0.6,0.3-0.9L207.8,215z"/>
		<path class="ears-st3" d="M202.7,216.5l-3.6-0.8c-0.2,0-0.3-0.1-0.4-0.3l-1.9-2.9l-1.9,2.9c-0.1,0.1-0.2,0.2-0.4,0.3l-3.6,0.8l2.4,2.6
			c0.1,0.1,0.2,0.3,0.2,0.4l-0.3,3.4l3.4-1.4c0.2-0.1,0.3-0.1,0.5,0l3.4,1.4l-0.3-3.4c0-0.2,0-0.3,0.2-0.4L202.7,216.5z"/>
	</g>
</g>
<g>
	<g>
		<path d="M199.1,190.8L199.1,190.8c-3-0.8-5.6,0.6-6.9,3.8c-2.1,4.9-1.2,15.2,2.4,17.5c0.6,0.4,1.2,0.6,1.9,0.6
			c0.7,0,1.4-0.2,2-0.6c3.4-2.2,5.1-11.8,4.3-16.4C202.2,192.2,200.5,191.1,199.1,190.8z M197.9,195.6
			C197.9,195.6,197.9,195.6,197.9,195.6C197.9,195.6,197.9,195.6,197.9,195.6z M196.6,206.1c-0.7-2.8-1-7.7,0.3-10
			c0.3-0.5,0.4-0.6,0.6-0.6c0,0,0,0,0,0C198.5,197.1,197.8,203,196.6,206.1z"/>
		<path class="ears-st7" d="M198.5,193.2c-6.7-1.7-5.7,14.8-2.5,16.8C199.1,212,202.8,194.3,198.5,193.2z"/>
		<path class="ears-st3" d="M198.4,195.4c-4.6-1.1-4.2,10.7-2.1,12.1C198.5,208.9,201.4,196.1,198.4,195.4z"/>
	</g>
	<g>
		<path d="M208.3,212.6l-5.9-1.3l-3.1-5.2c-0.5-0.8-1.3-1.2-2.1-1.2s-1.7,0.5-2.1,1.2l-3.1,5.2l-5.9,1.3c-0.9,0.2-1.6,0.8-1.8,1.7
			c-0.3,0.8-0.1,1.8,0.5,2.4l4,4.6l-0.6,6c-0.1,0.9,0.3,1.7,1,2.3s1.6,0.6,2.5,0.3l5.6-2.4l5.6,2.4c0.3,0.1,0.7,0.2,1,0.2
			c0.5,0,1-0.2,1.5-0.5c0.7-0.5,1.1-1.4,1-2.3l-0.6-6l4-4.6c0.6-0.7,0.8-1.6,0.5-2.4C209.9,213.4,209.2,212.8,208.3,212.6z
			 M189,221.7C189,221.7,189,221.7,189,221.7C189,221.7,189,221.7,189,221.7z M201.5,218.4c-0.7,0.8-1,1.8-0.9,2.7l0.2,2.4l-2.3-1
			c-0.5-0.2-0.9-0.3-1.4-0.3c-0.5,0-1,0.1-1.4,0.3l-2.2,1l0.2-2.4c0.1-1-0.2-2-0.9-2.7l-1.6-1.8l2.4-0.5c1-0.2,1.8-0.8,2.3-1.7
			l1.3-2.1l1.3,2.1c0.5,0.9,1.4,1.5,2.3,1.7l2.4,0.5L201.5,218.4z M205.3,221.7L205.3,221.7L205.3,221.7z"/>
		<path class="ears-st7" d="M207.8,215l-6.5-1.5c-0.3-0.1-0.6-0.3-0.7-0.5l-3.4-5.7l-3.4,5.7c-0.2,0.3-0.4,0.5-0.7,0.5l-6.5,1.5l4.4,5
			c0.2,0.2,0.3,0.6,0.3,0.9l-0.6,6.6l6.1-2.6c0.3-0.1,0.6-0.1,0.9,0l6.1,2.6l-0.6-6.6c0-0.3,0.1-0.6,0.3-0.9L207.8,215z"/>
		<path class="ears-st3" d="M202.7,216.5l-3.6-0.8c-0.2,0-0.3-0.1-0.4-0.3l-1.9-2.9l-1.9,2.9c-0.1,0.1-0.2,0.2-0.4,0.3l-3.6,0.8l2.4,2.6
			c0.1,0.1,0.2,0.3,0.2,0.4l-0.3,3.4l3.4-1.4c0.2-0.1,0.3-0.1,0.5,0l3.4,1.4l-0.3-3.4c0-0.2,0-0.3,0.2-0.4L202.7,216.5z"/>
	</g>
</g>
<g>
	<g>
		<path d="M199.1,190.8L199.1,190.8c-3-0.8-5.6,0.6-6.9,3.8c-2.1,4.9-1.2,15.2,2.4,17.5c0.6,0.4,1.2,0.6,1.9,0.6
			c0.7,0,1.4-0.2,2-0.6c3.4-2.2,5.1-11.8,4.3-16.4C202.2,192.2,200.5,191.1,199.1,190.8z M197.9,195.6
			C197.9,195.6,197.9,195.6,197.9,195.6C197.9,195.6,197.9,195.6,197.9,195.6z M196.6,206.1c-0.7-2.8-1-7.7,0.3-10
			c0.3-0.5,0.4-0.6,0.6-0.6c0,0,0,0,0,0C198.5,197.1,197.8,203,196.6,206.1z"/>
		<path class="ears-st8" d="M198.5,193.2c-6.7-1.7-5.7,14.8-2.5,16.8C199.1,212,202.8,194.3,198.5,193.2z"/>
		<path class="ears-st3" d="M198.4,195.4c-4.6-1.1-4.2,10.7-2.1,12.1C198.5,208.9,201.4,196.1,198.4,195.4z"/>
	</g>
	<g>
		<path d="M208.3,212.6l-5.9-1.3l-3.1-5.2c-0.5-0.8-1.3-1.2-2.1-1.2s-1.7,0.5-2.1,1.2l-3.1,5.2l-5.9,1.3c-0.9,0.2-1.6,0.8-1.8,1.7
			c-0.3,0.8-0.1,1.8,0.5,2.4l4,4.6l-0.6,6c-0.1,0.9,0.3,1.7,1,2.3s1.6,0.6,2.5,0.3l5.6-2.4l5.6,2.4c0.3,0.1,0.7,0.2,1,0.2
			c0.5,0,1-0.2,1.5-0.5c0.7-0.5,1.1-1.4,1-2.3l-0.6-6l4-4.6c0.6-0.7,0.8-1.6,0.5-2.4C209.9,213.4,209.2,212.8,208.3,212.6z
			 M189,221.7C189,221.7,189,221.7,189,221.7C189,221.7,189,221.7,189,221.7z M201.5,218.4c-0.7,0.8-1,1.8-0.9,2.7l0.2,2.4l-2.3-1
			c-0.5-0.2-0.9-0.3-1.4-0.3c-0.5,0-1,0.1-1.4,0.3l-2.2,1l0.2-2.4c0.1-1-0.2-2-0.9-2.7l-1.6-1.8l2.4-0.5c1-0.2,1.8-0.8,2.3-1.7
			l1.3-2.1l1.3,2.1c0.5,0.9,1.4,1.5,2.3,1.7l2.4,0.5L201.5,218.4z M205.3,221.7L205.3,221.7L205.3,221.7z"/>
		<path class="ears-st8" d="M207.8,215l-6.5-1.5c-0.3-0.1-0.6-0.3-0.7-0.5l-3.4-5.7l-3.4,5.7c-0.2,0.3-0.4,0.5-0.7,0.5l-6.5,1.5l4.4,5
			c0.2,0.2,0.3,0.6,0.3,0.9l-0.6,6.6l6.1-2.6c0.3-0.1,0.6-0.1,0.9,0l6.1,2.6l-0.6-6.6c0-0.3,0.1-0.6,0.3-0.9L207.8,215z"/>
		<path class="ears-st3" d="M202.7,216.5l-3.6-0.8c-0.2,0-0.3-0.1-0.4-0.3l-1.9-2.9l-1.9,2.9c-0.1,0.1-0.2,0.2-0.4,0.3l-3.6,0.8l2.4,2.6
			c0.1,0.1,0.2,0.3,0.2,0.4l-0.3,3.4l3.4-1.4c0.2-0.1,0.3-0.1,0.5,0l3.4,1.4l-0.3-3.4c0-0.2,0-0.3,0.2-0.4L202.7,216.5z"/>
	</g>
</g>
</svg>
