<?xml version="1.0" encoding="utf-8"?>
<!-- Generator: Adobe Illustrator 26.0.3, SVG Export Plug-In . SVG Version: 6.00 Build 0)  -->
<svg version="1.1" id="Layer_1" xmlns="http://www.w3.org/2000/svg" xmlns:xlink="http://www.w3.org/1999/xlink" x="0px" y="0px"
	 viewBox="0 0 384 400" style="enable-background:new 0 0 384 400;" xml:space="preserve">
<style type="text/css">
	.ears-st0{fill:#FAEBCF;}
	.ears-st1{opacity:0.16;}
	.ears-st2{fill:#BA3B99;}
	.ears-st3{opacity:0.5;fill:#FFFFFF;}
	.ears-st4{fill:#6E44D8;}
	.ears-st5{fill:#44BDD8;}
	.ears-st6{fill:#D84E1C;}
	.ears-st7{fill:#D8A10B;}
	.ears-st8{fill:#008F6C;}
</style>
<g>
	<g>
		<path d="M287.4,200.1c-0.8-2.2-2.1-4.4-3.7-6c-3.3-3.2-7.4-3.3-11-1.9c-3.6,1.5-6.8,4.2-9.3,7.4c3.1-2.1,6.4-3.6,9.6-3.9
			c3.2-0.3,6.1,0.7,8,2.7c1.9,2,2.7,4.8,2.9,7.8c0.1,1.5,0.1,3.1-0.1,4.6c-0.1,1.5-0.4,3-0.8,4.4c-0.7,2.9-1.8,5.8-3.1,8.5
			c-1.3,2.7-3,5.1-4.8,6.5c-1.8,1.5-3.8,1.9-5.9,1c-2.1-0.8-4.2-3-6.3-5.1c1.6,2.8,3.6,6,6,8.3c1.2,1.1,2.4,1.9,3.7,2.1
			c1.3,0.2,2.5-0.1,3.8-0.9c2.5-1.6,4.7-5,6.5-8.5c0.9-1.7,1.7-3.5,2.5-5.2c0.7-1.7,1.4-3.4,1.9-5.1c1-3.3,1.6-6.6,1.4-10.5
			C288.5,204.6,288.2,202.4,287.4,200.1z"/>
	</g>
	<g>
		<path class="ears-st0" d="M274.5,193.8c-5.9,0.3-11.4,6.3-11.1,5.9c-0.2-0.7-4.5,6.9-5.8,11.4c-1.6,5.3-0.4,7.6,5.2,15.1
			c11.5,20.4,23-3.6,23.5-19C286.6,197.9,280.4,193,274.5,193.8z"/>
	</g>
	<path class="ears-st1" d="M261.1,206.7c-0.6,1.4-7.9,8.9,0.1,13.3c7.6,8.5,15.9-0.4,14.2-11.5C273,197.2,260.5,206.5,261.1,206.7z"/>
</g>
<g>
	<g>
		<path d="M276.8,213.6c-3-0.8-5.6,0.6-6.9,3.8c-2.1,4.9-1.2,15.2,2.4,17.5c0.6,0.4,1.2,0.6,1.9,0.6c0.7,0,1.4-0.2,2-0.6
			c3.4-2.2,5.1-11.8,4.3-16.4C279.9,215.1,278.1,213.9,276.8,213.6z M274.3,229c-0.7-2.8-1-7.7,0.3-10c0.3-0.5,0.4-0.6,0.6-0.6
			c0,0,0,0,0,0C276.1,220,275.5,225.8,274.3,229z"/>
		<path class="ears-st2" d="M276.2,216c-6.7-1.7-5.7,14.8-2.5,16.8C276.8,234.8,280.5,217.1,276.2,216z"/>
		<path class="ears-st3" d="M276.1,218.2c-4.6-1.1-4.2,10.7-2.1,12.1S279.1,219,276.1,218.2z"/>
	</g>
	<g>
		<path d="M283.3,229.8c-1.1-0.4-2.2-0.4-2.9-0.3c-2,0.2-4.4,1-6.2,2.8c-1.9-1.5-3.9-2.1-5.9-2c-1.5,0.1-3.8,0.8-5.8,3.5
			c-1.8,2.4-2,6-1.2,8c2.2,5.4,10.2,10.4,14.6,10.4c0.1,0,0.2,0,0.4,0c0,0,0,0,0.1,0c4.1-0.3,10.8-9.5,11.9-13.4
			C289.4,234.8,286.2,230.8,283.3,229.8z M283.5,237.6c-0.8,3-5.9,8.9-7.6,9.7c-2,0-8.3-3.5-9.9-7.3c-0.2-0.5-0.1-2.3,0.6-3.2
			c0.7-1,1.5-1.5,2.2-1.6c0,0,0.1,0,0.1,0c1.1,0,2.5,0.9,3.9,2.5c0.6,0.6,1.4,0.9,2.3,0.8c0.8-0.2,1.6-0.7,1.9-1.5
			c0.9-2.2,3.3-2.5,3.8-2.6c0.5,0,0.8,0,0.9,0.1C282.4,234.8,283.8,236.3,283.5,237.6z"/>
		<path class="ears-st2" d="M282.5,232.2c-0.5-0.2-1.2-0.2-1.9-0.2c-2.1,0.2-4.8,1.4-5.9,4.1c-1.3-1.4-3.6-3.5-6.1-3.3
			c-1.5,0.1-2.8,1-4,2.5c-1.2,1.6-1.4,4.4-0.9,5.6c1.9,4.8,9.5,9.1,12.5,8.9c0,0,0,0,0,0c2.3-0.2,8.6-7.7,9.7-11.5
			C286.6,235.6,284.3,232.8,282.5,232.2z"/>
		<path class="ears-st3" d="M271,236c-2-0.9-4.2-0.5-4.9,1.1c-0.7,1.5,0.3,3.5,2.3,4.4c2,0.9,4.2,0.5,4.9-1.1
			C273.9,239,272.9,237,271,236z"/>
	</g>
</g>
<g>
	<g>
		<path d="M276.8,213.6c-3-0.8-5.6,0.6-6.9,3.8c-2.1,4.9-1.2,15.2,2.4,17.5c0.6,0.4,1.2,0.6,1.9,0.6c0.7,0,1.4-0.2,2-0.6
			c3.4-2.2,5.1-11.8,4.3-16.4C279.9,215.1,278.1,213.9,276.8,213.6z M274.3,229c-0.7-2.8-1-7.7,0.3-10c0.3-0.5,0.4-0.6,0.6-0.6
			c0,0,0,0,0,0C276.1,220,275.5,225.8,274.3,229z"/>
		<path class="ears-st4" d="M276.2,216c-6.7-1.7-5.7,14.8-2.5,16.8C276.8,234.8,280.5,217.1,276.2,216z"/>
		<path class="ears-st3" d="M276.1,218.2c-4.6-1.1-4.2,10.7-2.1,12.1S279.1,219,276.1,218.2z"/>
	</g>
	<g>
		<path d="M283.3,229.8c-1.1-0.4-2.2-0.4-2.9-0.3c-2,0.2-4.4,1-6.2,2.8c-1.9-1.5-3.9-2.1-5.9-2c-1.5,0.1-3.8,0.8-5.8,3.5
			c-1.8,2.4-2,6-1.2,8c2.2,5.4,10.2,10.4,14.6,10.4c0.1,0,0.2,0,0.4,0c0,0,0,0,0.1,0c4.1-0.3,10.8-9.5,11.9-13.4
			C289.4,234.8,286.2,230.8,283.3,229.8z M283.5,237.6c-0.8,3-5.9,8.9-7.6,9.7c-2,0-8.3-3.5-9.9-7.3c-0.2-0.5-0.1-2.3,0.6-3.2
			c0.7-1,1.5-1.5,2.2-1.6c0,0,0.1,0,0.1,0c1.1,0,2.5,0.9,3.9,2.5c0.6,0.6,1.4,0.9,2.3,0.8c0.8-0.2,1.6-0.7,1.9-1.5
			c0.9-2.2,3.3-2.5,3.8-2.6c0.5,0,0.8,0,0.9,0.1C282.4,234.8,283.8,236.3,283.5,237.6z"/>
		<path class="ears-st4" d="M282.5,232.2c-0.5-0.2-1.2-0.2-1.9-0.2c-2.1,0.2-4.8,1.4-5.9,4.1c-1.3-1.4-3.6-3.5-6.1-3.3
			c-1.5,0.1-2.8,1-4,2.5c-1.2,1.6-1.4,4.4-0.9,5.6c1.9,4.8,9.5,9.1,12.5,8.9c0,0,0,0,0,0c2.3-0.2,8.6-7.7,9.7-11.5
			C286.6,235.6,284.3,232.8,282.5,232.2z"/>
		<path class="ears-st3" d="M271,236c-2-0.9-4.2-0.5-4.9,1.1c-0.7,1.5,0.3,3.5,2.3,4.4c2,0.9,4.2,0.5,4.9-1.1
			C273.9,239,272.9,237,271,236z"/>
	</g>
</g>
<g>
	<g>
		<path d="M276.8,213.6c-3-0.8-5.6,0.6-6.9,3.8c-2.1,4.9-1.2,15.2,2.4,17.5c0.6,0.4,1.2,0.6,1.9,0.6c0.7,0,1.4-0.2,2-0.6
			c3.4-2.2,5.1-11.8,4.3-16.4C279.9,215.1,278.1,213.9,276.8,213.6z M274.3,229c-0.7-2.8-1-7.7,0.3-10c0.3-0.5,0.4-0.6,0.6-0.6
			c0,0,0,0,0,0C276.1,220,275.5,225.8,274.3,229z"/>
		<path class="ears-st5" d="M276.2,216c-6.7-1.7-5.7,14.8-2.5,16.8C276.8,234.8,280.5,217.1,276.2,216z"/>
		<path class="ears-st3" d="M276.1,218.2c-4.6-1.1-4.2,10.7-2.1,12.1S279.1,219,276.1,218.2z"/>
	</g>
	<g>
		<path d="M283.3,229.8c-1.1-0.4-2.2-0.4-2.9-0.3c-2,0.2-4.4,1-6.2,2.8c-1.9-1.5-3.9-2.1-5.9-2c-1.5,0.1-3.8,0.8-5.8,3.5
			c-1.8,2.4-2,6-1.2,8c2.2,5.4,10.2,10.4,14.6,10.4c0.1,0,0.2,0,0.4,0c0,0,0,0,0.1,0c4.1-0.3,10.8-9.5,11.9-13.4
			C289.4,234.8,286.2,230.8,283.3,229.8z M283.5,237.6c-0.8,3-5.9,8.9-7.6,9.7c-2,0-8.3-3.5-9.9-7.3c-0.2-0.5-0.1-2.3,0.6-3.2
			c0.7-1,1.5-1.5,2.2-1.6c0,0,0.1,0,0.1,0c1.1,0,2.5,0.9,3.9,2.5c0.6,0.6,1.4,0.9,2.3,0.8c0.8-0.2,1.6-0.7,1.9-1.5
			c0.9-2.2,3.3-2.5,3.8-2.6c0.5,0,0.8,0,0.9,0.1C282.4,234.8,283.8,236.3,283.5,237.6z"/>
		<path class="ears-st5" d="M282.5,232.2c-0.5-0.2-1.2-0.2-1.9-0.2c-2.1,0.2-4.8,1.4-5.9,4.1c-1.3-1.4-3.6-3.5-6.1-3.3
			c-1.5,0.1-2.8,1-4,2.5c-1.2,1.6-1.4,4.4-0.9,5.6c1.9,4.8,9.5,9.1,12.5,8.9c0,0,0,0,0,0c2.3-0.2,8.6-7.7,9.7-11.5
			C286.6,235.6,284.3,232.8,282.5,232.2z"/>
		<path class="ears-st3" d="M271,236c-2-0.9-4.2-0.5-4.9,1.1c-0.7,1.5,0.3,3.5,2.3,4.4c2,0.9,4.2,0.5,4.9-1.1
			C273.9,239,272.9,237,271,236z"/>
	</g>
</g>
<g>
	<g>
		<path d="M276.8,213.6c-3-0.8-5.6,0.6-6.9,3.8c-2.1,4.9-1.2,15.2,2.4,17.5c0.6,0.4,1.2,0.6,1.9,0.6c0.7,0,1.4-0.2,2-0.6
			c3.4-2.2,5.1-11.8,4.3-16.4C279.9,215.1,278.1,213.9,276.8,213.6z M274.3,229c-0.7-2.8-1-7.7,0.3-10c0.3-0.5,0.4-0.6,0.6-0.6
			c0,0,0,0,0,0C276.1,220,275.5,225.8,274.3,229z"/>
		<path class="ears-st6" d="M276.2,216c-6.7-1.7-5.7,14.8-2.5,16.8C276.8,234.8,280.5,217.1,276.2,216z"/>
		<path class="ears-st3" d="M276.1,218.2c-4.6-1.1-4.2,10.7-2.1,12.1S279.1,219,276.1,218.2z"/>
	</g>
	<g>
		<path d="M283.3,229.8c-1.1-0.4-2.2-0.4-2.9-0.3c-2,0.2-4.4,1-6.2,2.8c-1.9-1.5-3.9-2.1-5.9-2c-1.5,0.1-3.8,0.8-5.8,3.5
			c-1.8,2.4-2,6-1.2,8c2.2,5.4,10.2,10.4,14.6,10.4c0.1,0,0.2,0,0.4,0c0,0,0,0,0.1,0c4.1-0.3,10.8-9.5,11.9-13.4
			C289.4,234.8,286.2,230.8,283.3,229.8z M283.5,237.6c-0.8,3-5.9,8.9-7.6,9.7c-2,0-8.3-3.5-9.9-7.3c-0.2-0.5-0.1-2.3,0.6-3.2
			c0.7-1,1.5-1.5,2.2-1.6c0,0,0.1,0,0.1,0c1.1,0,2.5,0.9,3.9,2.5c0.6,0.6,1.4,0.9,2.3,0.8c0.8-0.2,1.6-0.7,1.9-1.5
			c0.9-2.2,3.3-2.5,3.8-2.6c0.5,0,0.8,0,0.9,0.1C282.4,234.8,283.8,236.3,283.5,237.6z"/>
		<path class="ears-st6" d="M282.5,232.2c-0.5-0.2-1.2-0.2-1.9-0.2c-2.1,0.2-4.8,1.4-5.9,4.1c-1.3-1.4-3.6-3.5-6.1-3.3
			c-1.5,0.1-2.8,1-4,2.5c-1.2,1.6-1.4,4.4-0.9,5.6c1.9,4.8,9.5,9.1,12.5,8.9c0,0,0,0,0,0c2.3-0.2,8.6-7.7,9.7-11.5
			C286.6,235.6,284.3,232.8,282.5,232.2z"/>
		<path class="ears-st3" d="M271,236c-2-0.9-4.2-0.5-4.9,1.1c-0.7,1.5,0.3,3.5,2.3,4.4c2,0.9,4.2,0.5,4.9-1.1
			C273.9,239,272.9,237,271,236z"/>
	</g>
</g>
<g>
	<g>
		<path d="M276.8,213.6c-3-0.8-5.6,0.6-6.9,3.8c-2.1,4.9-1.2,15.2,2.4,17.5c0.6,0.4,1.2,0.6,1.9,0.6c0.7,0,1.4-0.2,2-0.6
			c3.4-2.2,5.1-11.8,4.3-16.4C279.9,215.1,278.1,213.9,276.8,213.6z M274.3,229c-0.7-2.8-1-7.7,0.3-10c0.3-0.5,0.4-0.6,0.6-0.6
			c0,0,0,0,0,0C276.1,220,275.5,225.8,274.3,229z"/>
		<path class="ears-st7" d="M276.2,216c-6.7-1.7-5.7,14.8-2.5,16.8C276.8,234.8,280.5,217.1,276.2,216z"/>
		<path class="ears-st3" d="M276.1,218.2c-4.6-1.1-4.2,10.7-2.1,12.1S279.1,219,276.1,218.2z"/>
	</g>
	<g>
		<path d="M283.3,229.8c-1.1-0.4-2.2-0.4-2.9-0.3c-2,0.2-4.4,1-6.2,2.8c-1.9-1.5-3.9-2.1-5.9-2c-1.5,0.1-3.8,0.8-5.8,3.5
			c-1.8,2.4-2,6-1.2,8c2.2,5.4,10.2,10.4,14.6,10.4c0.1,0,0.2,0,0.4,0c0,0,0,0,0.1,0c4.1-0.3,10.8-9.5,11.9-13.4
			C289.4,234.8,286.2,230.8,283.3,229.8z M283.5,237.6c-0.8,3-5.9,8.9-7.6,9.7c-2,0-8.3-3.5-9.9-7.3c-0.2-0.5-0.1-2.3,0.6-3.2
			c0.7-1,1.5-1.5,2.2-1.6c0,0,0.1,0,0.1,0c1.1,0,2.5,0.9,3.9,2.5c0.6,0.6,1.4,0.9,2.3,0.8c0.8-0.2,1.6-0.7,1.9-1.5
			c0.9-2.2,3.3-2.5,3.8-2.6c0.5,0,0.8,0,0.9,0.1C282.4,234.8,283.8,236.3,283.5,237.6z"/>
		<path class="ears-st7" d="M282.5,232.2c-0.5-0.2-1.2-0.2-1.9-0.2c-2.1,0.2-4.8,1.4-5.9,4.1c-1.3-1.4-3.6-3.5-6.1-3.3
			c-1.5,0.1-2.8,1-4,2.5c-1.2,1.6-1.4,4.4-0.9,5.6c1.9,4.8,9.5,9.1,12.5,8.9c0,0,0,0,0,0c2.3-0.2,8.6-7.7,9.7-11.5
			C286.6,235.6,284.3,232.8,282.5,232.2z"/>
		<path class="ears-st3" d="M271,236c-2-0.9-4.2-0.5-4.9,1.1c-0.7,1.5,0.3,3.5,2.3,4.4c2,0.9,4.2,0.5,4.9-1.1
			C273.9,239,272.9,237,271,236z"/>
	</g>
</g>
<g>
	<g>
		<path d="M276.8,213.6c-3-0.8-5.6,0.6-6.9,3.8c-2.1,4.9-1.2,15.2,2.4,17.5c0.6,0.4,1.2,0.6,1.9,0.6c0.7,0,1.4-0.2,2-0.6
			c3.4-2.2,5.1-11.8,4.3-16.4C279.9,215.1,278.1,213.9,276.8,213.6z M274.3,229c-0.7-2.8-1-7.7,0.3-10c0.3-0.5,0.4-0.6,0.6-0.6
			c0,0,0,0,0,0C276.1,220,275.5,225.8,274.3,229z"/>
		<path class="ears-st8" d="M276.2,216c-6.7-1.7-5.7,14.8-2.5,16.8C276.8,234.8,280.5,217.1,276.2,216z"/>
		<path class="ears-st3" d="M276.1,218.2c-4.6-1.1-4.2,10.7-2.1,12.1S279.1,219,276.1,218.2z"/>
	</g>
	<g>
		<path d="M283.3,229.8c-1.1-0.4-2.2-0.4-2.9-0.3c-2,0.2-4.4,1-6.2,2.8c-1.9-1.5-3.9-2.1-5.9-2c-1.5,0.1-3.8,0.8-5.8,3.5
			c-1.8,2.4-2,6-1.2,8c2.2,5.4,10.2,10.4,14.6,10.4c0.1,0,0.2,0,0.4,0c0,0,0,0,0.1,0c4.1-0.3,10.8-9.5,11.9-13.4
			C289.4,234.8,286.2,230.8,283.3,229.8z M283.5,237.6c-0.8,3-5.9,8.9-7.6,9.7c-2,0-8.3-3.5-9.9-7.3c-0.2-0.5-0.1-2.3,0.6-3.2
			c0.7-1,1.5-1.5,2.2-1.6c0,0,0.1,0,0.1,0c1.1,0,2.5,0.9,3.9,2.5c0.6,0.6,1.4,0.9,2.3,0.8c0.8-0.2,1.6-0.7,1.9-1.5
			c0.9-2.2,3.3-2.5,3.8-2.6c0.5,0,0.8,0,0.9,0.1C282.4,234.8,283.8,236.3,283.5,237.6z"/>
		<path class="ears-st8" d="M282.5,232.2c-0.5-0.2-1.2-0.2-1.9-0.2c-2.1,0.2-4.8,1.4-5.9,4.1c-1.3-1.4-3.6-3.5-6.1-3.3
			c-1.5,0.1-2.8,1-4,2.5c-1.2,1.6-1.4,4.4-0.9,5.6c1.9,4.8,9.5,9.1,12.5,8.9c0,0,0,0,0,0c2.3-0.2,8.6-7.7,9.7-11.5
			C286.6,235.6,284.3,232.8,282.5,232.2z"/>
		<path class="ears-st3" d="M271,236c-2-0.9-4.2-0.5-4.9,1.1c-0.7,1.5,0.3,3.5,2.3,4.4c2,0.9,4.2,0.5,4.9-1.1
			C273.9,239,272.9,237,271,236z"/>
	</g>
</g>
</svg>
