<?xml version="1.0" encoding="utf-8"?>
<!-- Generator: Adobe Illustrator 26.0.3, SVG Export Plug-In . SVG Version: 6.00 Build 0)  -->
<svg version="1.1" id="Layer_1" xmlns="http://www.w3.org/2000/svg" xmlns:xlink="http://www.w3.org/1999/xlink" x="0px" y="0px"
	 viewBox="0 0 384 400" style="enable-background:new 0 0 384 400;" xml:space="preserve">
<style type="text/css">
	.ears-st0{fill:#FAEBCF;}
	.ears-st1{opacity:0.16;}
	.ears-st2{fill:#BA3B99;}
	.ears-st3{opacity:0.5;fill:#FFFFFF;}
	.ears-st4{fill:#6E44D8;}
	.ears-st5{fill:#44BDD8;}
	.ears-st6{fill:#D84E1C;}
	.ears-st7{fill:#D8A10B;}
	.ears-st8{fill:#008F6C;}
</style>
<g>
	<g>
		<path d="M297,196c-6.2-2.9-14.1-3-20.3-1.3c-6.3,1.6-11.6,4.5-15.1,7.8c5.1-2.2,10.6-3.7,16-4.1c5.3-0.5,10.5,0.4,13.6,2.1
			c3.1,1.7,4,4,3.7,6.5c-0.1,1.2-0.6,2.5-1.2,3.7c-0.6,1.2-1.3,2.4-2.1,3.5c-1.6,2.3-3.4,4.5-5,6.4c-1.6,1.9-3.2,3.6-4.7,4.7
			c-1.6,1.2-3.2,1.7-5.1,1.7c-1.9,0-4-0.7-6.6-1.6c2.4,1.7,4.5,3.2,6.6,4c1.1,0.4,2.1,0.5,3.2,0.5c1.1-0.1,2.1-0.4,3.1-1
			c2.1-1.1,4-3.2,6.4-5.6c1.2-1.2,2.5-2.5,3.9-3.9c1.4-1.4,2.9-2.7,4.5-4.1c3-2.8,5.9-5.5,6.6-8.7c0.4-1.6,0.3-3.3-0.9-5.2
			C302.3,199.3,300,197.4,297,196z"/>
	</g>
	<g>
		<path class="ears-st0" d="M280,196.2c-10.5,0.5-18.9,6.7-18.5,6.2c0.2-0.2-6.8,6.5-6.5,10.9c-0.5,5,6.4,7.7,15,12
			c8.1,4.5,10.3,3.4,15-0.5c4.1-3.9,10.8-10.6,14.3-17.5C302.3,199.8,290.1,195.1,280,196.2z"/>
	</g>
	<path class="ears-st1" d="M259.8,209.1c0.1-0.1-3.5,3-3.6,5.3c-0.4,2.6,2.7,4.4,9.7,6.1c11.1,4,16.5-2.6,15.7-11.1
		C278.2,200.1,258.8,208.7,259.8,209.1z"/>
</g>
<g>
	<g>
		<path d="M278,212.3c-3-0.8-5.6,0.6-6.9,3.8c-2.1,4.9-1.2,15.2,2.4,17.5c0.6,0.4,1.2,0.6,1.9,0.6c0.7,0,1.4-0.2,2-0.6
			c3.4-2.2,5.1-11.8,4.3-16.4C281.1,213.8,279.4,212.6,278,212.3z M275.5,227.7c-0.7-2.8-1-7.7,0.3-10c0.3-0.5,0.4-0.6,0.6-0.6
			c0,0,0,0,0,0C277.4,218.7,276.7,224.5,275.5,227.7z"/>
		<path class="ears-st2" d="M277.4,214.7c-6.7-1.7-5.7,14.8-2.5,16.8S281.7,215.8,277.4,214.7z"/>
		<path class="ears-st3" d="M277.3,216.9c-4.6-1.1-4.2,10.7-2.1,12.1S280.3,217.7,277.3,216.9z"/>
	</g>
	<g>
		<g>
			<path d="M284.7,240.2c1.7-2.4,3-5.5,1.5-8.2c-1.8-3.2-7.5-3.8-10.7-3.9c-5.6-0.1-6.4,1.1-6.8,1.7c0,0,0,0,0,0
				c-1.9,3-3,9.3-0.9,16.2c0.5,1.5,2.1,2.6,3.9,3.4c-1.1,1.9-1.8,4.2-0.8,6c0.3,0.5,1.1,1.6,3,1.6c0.2,0,0.5,0,0.8-0.1
				c4-0.6,12.3-5.9,13.7-12.1c0-0.1,0-0.2,0-0.3c0.1-1-0.2-1.9-0.8-2.7C286.8,241.1,285.8,240.6,284.7,240.2z M272.5,244.5
				L272.5,244.5L272.5,244.5z M276.6,250.9c0.3-0.4,0.6-0.8,0.9-1.2c0.6-0.7,0.7-1.6,0.5-2.4c-0.3-0.8-1-1.5-1.8-1.7
				c-1.5-0.3-3.2-1-3.8-1.4c-1.5-5-0.8-9.1,0-11c2.4-0.4,8.4,0.2,9.4,1.3c0.2,0.7-1.4,3.4-3.6,5.5c-0.7,0.7-1,1.7-0.6,2.7
				s1.2,1.6,2.2,1.6c1.1,0.1,2.4,0.3,3.2,0.5C281.8,247.3,278.9,249.6,276.6,250.9z"/>
		</g>
		<g>
			<path d="M284.7,240.2c1.7-2.4,3-5.5,1.5-8.2c-1.8-3.2-7.5-3.8-10.7-3.9c-5.6-0.1-6.4,1.1-6.8,1.7c0,0,0,0,0,0
				c-1.9,3-3,9.3-0.9,16.2c0.5,1.5,2.1,2.6,3.9,3.4c-1.1,1.9-1.8,4.2-0.8,6c0.3,0.5,1.1,1.6,3,1.6c0.2,0,0.5,0,0.8-0.1
				c4-0.6,12.3-5.9,13.7-12.1c0-0.1,0-0.2,0-0.3c0.1-1-0.2-1.9-0.8-2.7C286.8,241.1,285.8,240.6,284.7,240.2z M272.5,244.5
				L272.5,244.5L272.5,244.5z M276.6,250.9c0.3-0.4,0.6-0.8,0.9-1.2c0.6-0.7,0.7-1.6,0.5-2.4c-0.3-0.8-1-1.5-1.8-1.7
				c-1.5-0.3-3.2-1-3.8-1.4c-1.5-5-0.8-9.1,0-11c2.4-0.4,8.4,0.2,9.4,1.3c0.2,0.7-1.4,3.4-3.6,5.5c-0.7,0.7-1,1.7-0.6,2.7
				s1.2,1.6,2.2,1.6c1.1,0.1,2.4,0.3,3.2,0.5C281.8,247.3,278.9,249.6,276.6,250.9z"/>
		</g>
		<g>
			<path class="ears-st2" d="M279.9,241.9c0,0,5.9-5.5,4.1-8.6c-1.8-3.1-12.7-3-13.3-2.1c-1.3,2-2.6,7.5-0.6,14c0.5,1.7,5.5,2.8,5.5,2.8
				s-3.7,4.3-2.7,6.1c1,1.8,11.5-3.8,12.8-9.9C286,242.2,279.9,241.9,279.9,241.9z"/>
		</g>
		<path class="ears-st3" d="M279.4,232.7c-10.6-4-10.2,7.6-6.8,10.1C276,245.3,281.6,233.5,279.4,232.7z"/>
	</g>
</g>
<g>
	<g>
		<path d="M278,212.3c-3-0.8-5.6,0.6-6.9,3.8c-2.1,4.9-1.2,15.2,2.4,17.5c0.6,0.4,1.2,0.6,1.9,0.6c0.7,0,1.4-0.2,2-0.6
			c3.4-2.2,5.1-11.8,4.3-16.4C281.1,213.8,279.4,212.6,278,212.3z M275.5,227.7c-0.7-2.8-1-7.7,0.3-10c0.3-0.5,0.4-0.6,0.6-0.6
			c0,0,0,0,0,0C277.4,218.7,276.7,224.5,275.5,227.7z"/>
		<path class="ears-st4" d="M277.4,214.7c-6.7-1.7-5.7,14.8-2.5,16.8S281.7,215.8,277.4,214.7z"/>
		<path class="ears-st3" d="M277.3,216.9c-4.6-1.1-4.2,10.7-2.1,12.1S280.3,217.7,277.3,216.9z"/>
	</g>
	<g>
		<g>
			<path d="M284.7,240.2c1.7-2.4,3-5.5,1.5-8.2c-1.8-3.2-7.5-3.8-10.7-3.9c-5.6-0.1-6.4,1.1-6.8,1.7c0,0,0,0,0,0
				c-1.9,3-3,9.3-0.9,16.2c0.5,1.5,2.1,2.6,3.9,3.4c-1.1,1.9-1.8,4.2-0.8,6c0.3,0.5,1.1,1.6,3,1.6c0.2,0,0.5,0,0.8-0.1
				c4-0.6,12.3-5.9,13.7-12.1c0-0.1,0-0.2,0-0.3c0.1-1-0.2-1.9-0.8-2.7C286.8,241.1,285.8,240.6,284.7,240.2z M272.5,244.5
				L272.5,244.5L272.5,244.5z M276.6,250.9c0.3-0.4,0.6-0.8,0.9-1.2c0.6-0.7,0.7-1.6,0.5-2.4c-0.3-0.8-1-1.5-1.8-1.7
				c-1.5-0.3-3.2-1-3.8-1.4c-1.5-5-0.8-9.1,0-11c2.4-0.4,8.4,0.2,9.4,1.3c0.2,0.7-1.4,3.4-3.6,5.5c-0.7,0.7-1,1.7-0.6,2.7
				s1.2,1.6,2.2,1.6c1.1,0.1,2.4,0.3,3.2,0.5C281.8,247.3,278.9,249.6,276.6,250.9z"/>
		</g>
		<g>
			<path d="M284.7,240.2c1.7-2.4,3-5.5,1.5-8.2c-1.8-3.2-7.5-3.8-10.7-3.9c-5.6-0.1-6.4,1.1-6.8,1.7c0,0,0,0,0,0
				c-1.9,3-3,9.3-0.9,16.2c0.5,1.5,2.1,2.6,3.9,3.4c-1.1,1.9-1.8,4.2-0.8,6c0.3,0.5,1.1,1.6,3,1.6c0.2,0,0.5,0,0.8-0.1
				c4-0.6,12.3-5.9,13.7-12.1c0-0.1,0-0.2,0-0.3c0.1-1-0.2-1.9-0.8-2.7C286.8,241.1,285.8,240.6,284.7,240.2z M272.5,244.5
				L272.5,244.5L272.5,244.5z M276.6,250.9c0.3-0.4,0.6-0.8,0.9-1.2c0.6-0.7,0.7-1.6,0.5-2.4c-0.3-0.8-1-1.5-1.8-1.7
				c-1.5-0.3-3.2-1-3.8-1.4c-1.5-5-0.8-9.1,0-11c2.4-0.4,8.4,0.2,9.4,1.3c0.2,0.7-1.4,3.4-3.6,5.5c-0.7,0.7-1,1.7-0.6,2.7
				s1.2,1.6,2.2,1.6c1.1,0.1,2.4,0.3,3.2,0.5C281.8,247.3,278.9,249.6,276.6,250.9z"/>
		</g>
		<g>
			<path class="ears-st4" d="M279.9,241.9c0,0,5.9-5.5,4.1-8.6c-1.8-3.1-12.7-3-13.3-2.1c-1.3,2-2.6,7.5-0.6,14c0.5,1.7,5.5,2.8,5.5,2.8
				s-3.7,4.3-2.7,6.1c1,1.8,11.5-3.8,12.8-9.9C286,242.2,279.9,241.9,279.9,241.9z"/>
		</g>
		<path class="ears-st3" d="M279.4,232.7c-10.6-4-10.2,7.6-6.8,10.1C276,245.3,281.6,233.5,279.4,232.7z"/>
	</g>
</g>
<g>
	<g>
		<path d="M278,212.3c-3-0.8-5.6,0.6-6.9,3.8c-2.1,4.9-1.2,15.2,2.4,17.5c0.6,0.4,1.2,0.6,1.9,0.6c0.7,0,1.4-0.2,2-0.6
			c3.4-2.2,5.1-11.8,4.3-16.4C281.1,213.8,279.4,212.6,278,212.3z M275.5,227.7c-0.7-2.8-1-7.7,0.3-10c0.3-0.5,0.4-0.6,0.6-0.6
			c0,0,0,0,0,0C277.4,218.7,276.7,224.5,275.5,227.7z"/>
		<path class="ears-st5" d="M277.4,214.7c-6.7-1.7-5.7,14.8-2.5,16.8S281.7,215.8,277.4,214.7z"/>
		<path class="ears-st3" d="M277.3,216.9c-4.6-1.1-4.2,10.7-2.1,12.1S280.3,217.7,277.3,216.9z"/>
	</g>
	<g>
		<g>
			<path d="M284.7,240.2c1.7-2.4,3-5.5,1.5-8.2c-1.8-3.2-7.5-3.8-10.7-3.9c-5.6-0.1-6.4,1.1-6.8,1.7c0,0,0,0,0,0
				c-1.9,3-3,9.3-0.9,16.2c0.5,1.5,2.1,2.6,3.9,3.4c-1.1,1.9-1.8,4.2-0.8,6c0.3,0.5,1.1,1.6,3,1.6c0.2,0,0.5,0,0.8-0.1
				c4-0.6,12.3-5.9,13.7-12.1c0-0.1,0-0.2,0-0.3c0.1-1-0.2-1.9-0.8-2.7C286.8,241.1,285.8,240.6,284.7,240.2z M272.5,244.5
				L272.5,244.5L272.5,244.5z M276.6,250.9c0.3-0.4,0.6-0.8,0.9-1.2c0.6-0.7,0.7-1.6,0.5-2.4c-0.3-0.8-1-1.5-1.8-1.7
				c-1.5-0.3-3.2-1-3.8-1.4c-1.5-5-0.8-9.1,0-11c2.4-0.4,8.4,0.2,9.4,1.3c0.2,0.7-1.4,3.4-3.6,5.5c-0.7,0.7-1,1.7-0.6,2.7
				s1.2,1.6,2.2,1.6c1.1,0.1,2.4,0.3,3.2,0.5C281.8,247.3,278.9,249.6,276.6,250.9z"/>
		</g>
		<g>
			<path d="M284.7,240.2c1.7-2.4,3-5.5,1.5-8.2c-1.8-3.2-7.5-3.8-10.7-3.9c-5.6-0.1-6.4,1.1-6.8,1.7c0,0,0,0,0,0
				c-1.9,3-3,9.3-0.9,16.2c0.5,1.5,2.1,2.6,3.9,3.4c-1.1,1.9-1.8,4.2-0.8,6c0.3,0.5,1.1,1.6,3,1.6c0.2,0,0.5,0,0.8-0.1
				c4-0.6,12.3-5.9,13.7-12.1c0-0.1,0-0.2,0-0.3c0.1-1-0.2-1.9-0.8-2.7C286.8,241.1,285.8,240.6,284.7,240.2z M272.5,244.5
				L272.5,244.5L272.5,244.5z M276.6,250.9c0.3-0.4,0.6-0.8,0.9-1.2c0.6-0.7,0.7-1.6,0.5-2.4c-0.3-0.8-1-1.5-1.8-1.7
				c-1.5-0.3-3.2-1-3.8-1.4c-1.5-5-0.8-9.1,0-11c2.4-0.4,8.4,0.2,9.4,1.3c0.2,0.7-1.4,3.4-3.6,5.5c-0.7,0.7-1,1.7-0.6,2.7
				s1.2,1.6,2.2,1.6c1.1,0.1,2.4,0.3,3.2,0.5C281.8,247.3,278.9,249.6,276.6,250.9z"/>
		</g>
		<g>
			<path class="ears-st5" d="M279.9,241.9c0,0,5.9-5.5,4.1-8.6c-1.8-3.1-12.7-3-13.3-2.1c-1.3,2-2.6,7.5-0.6,14c0.5,1.7,5.5,2.8,5.5,2.8
				s-3.7,4.3-2.7,6.1c1,1.8,11.5-3.8,12.8-9.9C286,242.2,279.9,241.9,279.9,241.9z"/>
		</g>
		<path class="ears-st3" d="M279.4,232.7c-10.6-4-10.2,7.6-6.8,10.1C276,245.3,281.6,233.5,279.4,232.7z"/>
	</g>
</g>
<g>
	<g>
		<path d="M278,212.3c-3-0.8-5.6,0.6-6.9,3.8c-2.1,4.9-1.2,15.2,2.4,17.5c0.6,0.4,1.2,0.6,1.9,0.6c0.7,0,1.4-0.2,2-0.6
			c3.4-2.2,5.1-11.8,4.3-16.4C281.1,213.8,279.4,212.6,278,212.3z M275.5,227.7c-0.7-2.8-1-7.7,0.3-10c0.3-0.5,0.4-0.6,0.6-0.6
			c0,0,0,0,0,0C277.4,218.7,276.7,224.5,275.5,227.7z"/>
		<path class="ears-st6" d="M277.4,214.7c-6.7-1.7-5.7,14.8-2.5,16.8S281.7,215.8,277.4,214.7z"/>
		<path class="ears-st3" d="M277.3,216.9c-4.6-1.1-4.2,10.7-2.1,12.1S280.3,217.7,277.3,216.9z"/>
	</g>
	<g>
		<g>
			<path d="M284.7,240.2c1.7-2.4,3-5.5,1.5-8.2c-1.8-3.2-7.5-3.8-10.7-3.9c-5.6-0.1-6.4,1.1-6.8,1.7c0,0,0,0,0,0
				c-1.9,3-3,9.3-0.9,16.2c0.5,1.5,2.1,2.6,3.9,3.4c-1.1,1.9-1.8,4.2-0.8,6c0.3,0.5,1.1,1.6,3,1.6c0.2,0,0.5,0,0.8-0.1
				c4-0.6,12.3-5.9,13.7-12.1c0-0.1,0-0.2,0-0.3c0.1-1-0.2-1.9-0.8-2.7C286.8,241.1,285.8,240.6,284.7,240.2z M272.5,244.5
				L272.5,244.5L272.5,244.5z M276.6,250.9c0.3-0.4,0.6-0.8,0.9-1.2c0.6-0.7,0.7-1.6,0.5-2.4c-0.3-0.8-1-1.5-1.8-1.7
				c-1.5-0.3-3.2-1-3.8-1.4c-1.5-5-0.8-9.1,0-11c2.4-0.4,8.4,0.2,9.4,1.3c0.2,0.7-1.4,3.4-3.6,5.5c-0.7,0.7-1,1.7-0.6,2.7
				s1.2,1.6,2.2,1.6c1.1,0.1,2.4,0.3,3.2,0.5C281.8,247.3,278.9,249.6,276.6,250.9z"/>
		</g>
		<g>
			<path d="M284.7,240.2c1.7-2.4,3-5.5,1.5-8.2c-1.8-3.2-7.5-3.8-10.7-3.9c-5.6-0.1-6.4,1.1-6.8,1.7c0,0,0,0,0,0
				c-1.9,3-3,9.3-0.9,16.2c0.5,1.5,2.1,2.6,3.9,3.4c-1.1,1.9-1.8,4.2-0.8,6c0.3,0.5,1.1,1.6,3,1.6c0.2,0,0.5,0,0.8-0.1
				c4-0.6,12.3-5.9,13.7-12.1c0-0.1,0-0.2,0-0.3c0.1-1-0.2-1.9-0.8-2.7C286.8,241.1,285.8,240.6,284.7,240.2z M272.5,244.5
				L272.5,244.5L272.5,244.5z M276.6,250.9c0.3-0.4,0.6-0.8,0.9-1.2c0.6-0.7,0.7-1.6,0.5-2.4c-0.3-0.8-1-1.5-1.8-1.7
				c-1.5-0.3-3.2-1-3.8-1.4c-1.5-5-0.8-9.1,0-11c2.4-0.4,8.4,0.2,9.4,1.3c0.2,0.7-1.4,3.4-3.6,5.5c-0.7,0.7-1,1.7-0.6,2.7
				s1.2,1.6,2.2,1.6c1.1,0.1,2.4,0.3,3.2,0.5C281.8,247.3,278.9,249.6,276.6,250.9z"/>
		</g>
		<g>
			<path class="ears-st6" d="M279.9,241.9c0,0,5.9-5.5,4.1-8.6c-1.8-3.1-12.7-3-13.3-2.1c-1.3,2-2.6,7.5-0.6,14c0.5,1.7,5.5,2.8,5.5,2.8
				s-3.7,4.3-2.7,6.1c1,1.8,11.5-3.8,12.8-9.9C286,242.2,279.9,241.9,279.9,241.9z"/>
		</g>
		<path class="ears-st3" d="M279.4,232.7c-10.6-4-10.2,7.6-6.8,10.1C276,245.3,281.6,233.5,279.4,232.7z"/>
	</g>
</g>
<g>
	<g>
		<path d="M278,212.3c-3-0.8-5.6,0.6-6.9,3.8c-2.1,4.9-1.2,15.2,2.4,17.5c0.6,0.4,1.2,0.6,1.9,0.6c0.7,0,1.4-0.2,2-0.6
			c3.4-2.2,5.1-11.8,4.3-16.4C281.1,213.8,279.4,212.6,278,212.3z M275.5,227.7c-0.7-2.8-1-7.7,0.3-10c0.3-0.5,0.4-0.6,0.6-0.6
			c0,0,0,0,0,0C277.4,218.7,276.7,224.5,275.5,227.7z"/>
		<path class="ears-st7" d="M277.4,214.7c-6.7-1.7-5.7,14.8-2.5,16.8S281.7,215.8,277.4,214.7z"/>
		<path class="ears-st3" d="M277.3,216.9c-4.6-1.1-4.2,10.7-2.1,12.1S280.3,217.7,277.3,216.9z"/>
	</g>
	<g>
		<g>
			<path d="M284.7,240.2c1.7-2.4,3-5.5,1.5-8.2c-1.8-3.2-7.5-3.8-10.7-3.9c-5.6-0.1-6.4,1.1-6.8,1.7c0,0,0,0,0,0
				c-1.9,3-3,9.3-0.9,16.2c0.5,1.5,2.1,2.6,3.9,3.4c-1.1,1.9-1.8,4.2-0.8,6c0.3,0.5,1.1,1.6,3,1.6c0.2,0,0.5,0,0.8-0.1
				c4-0.6,12.3-5.9,13.7-12.1c0-0.1,0-0.2,0-0.3c0.1-1-0.2-1.9-0.8-2.7C286.8,241.1,285.8,240.6,284.7,240.2z M272.5,244.5
				L272.5,244.5L272.5,244.5z M276.6,250.9c0.3-0.4,0.6-0.8,0.9-1.2c0.6-0.7,0.7-1.6,0.5-2.4c-0.3-0.8-1-1.5-1.8-1.7
				c-1.5-0.3-3.2-1-3.8-1.4c-1.5-5-0.8-9.1,0-11c2.4-0.4,8.4,0.2,9.4,1.3c0.2,0.7-1.4,3.4-3.6,5.5c-0.7,0.7-1,1.7-0.6,2.7
				s1.2,1.6,2.2,1.6c1.1,0.1,2.4,0.3,3.2,0.5C281.8,247.3,278.9,249.6,276.6,250.9z"/>
		</g>
		<g>
			<path d="M284.7,240.2c1.7-2.4,3-5.5,1.5-8.2c-1.8-3.2-7.5-3.8-10.7-3.9c-5.6-0.1-6.4,1.1-6.8,1.7c0,0,0,0,0,0
				c-1.9,3-3,9.3-0.9,16.2c0.5,1.5,2.1,2.6,3.9,3.4c-1.1,1.9-1.8,4.2-0.8,6c0.3,0.5,1.1,1.6,3,1.6c0.2,0,0.5,0,0.8-0.1
				c4-0.6,12.3-5.9,13.7-12.1c0-0.1,0-0.2,0-0.3c0.1-1-0.2-1.9-0.8-2.7C286.8,241.1,285.8,240.6,284.7,240.2z M272.5,244.5
				L272.5,244.5L272.5,244.5z M276.6,250.9c0.3-0.4,0.6-0.8,0.9-1.2c0.6-0.7,0.7-1.6,0.5-2.4c-0.3-0.8-1-1.5-1.8-1.7
				c-1.5-0.3-3.2-1-3.8-1.4c-1.5-5-0.8-9.1,0-11c2.4-0.4,8.4,0.2,9.4,1.3c0.2,0.7-1.4,3.4-3.6,5.5c-0.7,0.7-1,1.7-0.6,2.7
				s1.2,1.6,2.2,1.6c1.1,0.1,2.4,0.3,3.2,0.5C281.8,247.3,278.9,249.6,276.6,250.9z"/>
		</g>
		<g>
			<path class="ears-st7" d="M279.9,241.9c0,0,5.9-5.5,4.1-8.6c-1.8-3.1-12.7-3-13.3-2.1c-1.3,2-2.6,7.5-0.6,14c0.5,1.7,5.5,2.8,5.5,2.8
				s-3.7,4.3-2.7,6.1c1,1.8,11.5-3.8,12.8-9.9C286,242.2,279.9,241.9,279.9,241.9z"/>
		</g>
		<path class="ears-st3" d="M279.4,232.7c-10.6-4-10.2,7.6-6.8,10.1C276,245.3,281.6,233.5,279.4,232.7z"/>
	</g>
</g>
<g>
	<g>
		<path d="M278,212.3c-3-0.8-5.6,0.6-6.9,3.8c-2.1,4.9-1.2,15.2,2.4,17.5c0.6,0.4,1.2,0.6,1.9,0.6c0.7,0,1.4-0.2,2-0.6
			c3.4-2.2,5.1-11.8,4.3-16.4C281.1,213.8,279.4,212.6,278,212.3z M275.5,227.7c-0.7-2.8-1-7.7,0.3-10c0.3-0.5,0.4-0.6,0.6-0.6
			c0,0,0,0,0,0C277.4,218.7,276.7,224.5,275.5,227.7z"/>
		<path class="ears-st8" d="M277.4,214.7c-6.7-1.7-5.7,14.8-2.5,16.8S281.7,215.8,277.4,214.7z"/>
		<path class="ears-st3" d="M277.3,216.9c-4.6-1.1-4.2,10.7-2.1,12.1S280.3,217.7,277.3,216.9z"/>
	</g>
	<g>
		<g>
			<path d="M284.7,240.2c1.7-2.4,3-5.5,1.5-8.2c-1.8-3.2-7.5-3.8-10.7-3.9c-5.6-0.1-6.4,1.1-6.8,1.7c0,0,0,0,0,0
				c-1.9,3-3,9.3-0.9,16.2c0.5,1.5,2.1,2.6,3.9,3.4c-1.1,1.9-1.8,4.2-0.8,6c0.3,0.5,1.1,1.6,3,1.6c0.2,0,0.5,0,0.8-0.1
				c4-0.6,12.3-5.9,13.7-12.1c0-0.1,0-0.2,0-0.3c0.1-1-0.2-1.9-0.8-2.7C286.8,241.1,285.8,240.6,284.7,240.2z M272.5,244.5
				L272.5,244.5L272.5,244.5z M276.6,250.9c0.3-0.4,0.6-0.8,0.9-1.2c0.6-0.7,0.7-1.6,0.5-2.4c-0.3-0.8-1-1.5-1.8-1.7
				c-1.5-0.3-3.2-1-3.8-1.4c-1.5-5-0.8-9.1,0-11c2.4-0.4,8.4,0.2,9.4,1.3c0.2,0.7-1.4,3.4-3.6,5.5c-0.7,0.7-1,1.7-0.6,2.7
				s1.2,1.6,2.2,1.6c1.1,0.1,2.4,0.3,3.2,0.5C281.8,247.3,278.9,249.6,276.6,250.9z"/>
		</g>
		<g>
			<path d="M284.7,240.2c1.7-2.4,3-5.5,1.5-8.2c-1.8-3.2-7.5-3.8-10.7-3.9c-5.6-0.1-6.4,1.1-6.8,1.7c0,0,0,0,0,0
				c-1.9,3-3,9.3-0.9,16.2c0.5,1.5,2.1,2.6,3.9,3.4c-1.1,1.9-1.8,4.2-0.8,6c0.3,0.5,1.1,1.6,3,1.6c0.2,0,0.5,0,0.8-0.1
				c4-0.6,12.3-5.9,13.7-12.1c0-0.1,0-0.2,0-0.3c0.1-1-0.2-1.9-0.8-2.7C286.8,241.1,285.8,240.6,284.7,240.2z M272.5,244.5
				L272.5,244.5L272.5,244.5z M276.6,250.9c0.3-0.4,0.6-0.8,0.9-1.2c0.6-0.7,0.7-1.6,0.5-2.4c-0.3-0.8-1-1.5-1.8-1.7
				c-1.5-0.3-3.2-1-3.8-1.4c-1.5-5-0.8-9.1,0-11c2.4-0.4,8.4,0.2,9.4,1.3c0.2,0.7-1.4,3.4-3.6,5.5c-0.7,0.7-1,1.7-0.6,2.7
				s1.2,1.6,2.2,1.6c1.1,0.1,2.4,0.3,3.2,0.5C281.8,247.3,278.9,249.6,276.6,250.9z"/>
		</g>
		<g>
			<path class="ears-st8" d="M279.9,241.9c0,0,5.9-5.5,4.1-8.6c-1.8-3.1-12.7-3-13.3-2.1c-1.3,2-2.6,7.5-0.6,14c0.5,1.7,5.5,2.8,5.5,2.8
				s-3.7,4.3-2.7,6.1c1,1.8,11.5-3.8,12.8-9.9C286,242.2,279.9,241.9,279.9,241.9z"/>
		</g>
		<path class="ears-st3" d="M279.4,232.7c-10.6-4-10.2,7.6-6.8,10.1C276,245.3,281.6,233.5,279.4,232.7z"/>
	</g>
</g>
</svg>
