<?xml version="1.0" encoding="utf-8"?>
<!-- Generator: Adobe Illustrator 26.0.3, SVG Export Plug-In . SVG Version: 6.00 Build 0)  -->
<svg version="1.1" id="Layer_1" xmlns="http://www.w3.org/2000/svg" xmlns:xlink="http://www.w3.org/1999/xlink" x="0px" y="0px"
	 viewBox="0 0 384 400" style="enable-background:new 0 0 384 400;" xml:space="preserve">
<style type="text/css">
	.ears-st0{fill:#FAEBCF;}
	.ears-st1{opacity:0.16;}
	.ears-st2{fill:#BA3B99;}
	.ears-st3{opacity:0.5;fill:#FFFFFF;}
	.ears-st4{fill:#6E44D8;}
	.ears-st5{fill:#44BDD8;}
	.ears-st6{fill:#D84E1C;}
	.ears-st7{fill:#D8A10B;}
	.ears-st8{fill:#008F6C;}
</style>
<g>
	<g>
		<path d="M286.1,193.8c-5-1.4-10.7,0.2-15,3c-4.4,2.9-7.7,6.7-9.8,10.5c3.4-3.1,7.1-5.8,11-7.3c3.8-1.6,7.8-1.9,10.3-0.9
			c2.5,0.9,3.6,2.9,3.7,5.3c0.1,1.2,0,2.5-0.3,3.7c-0.2,1.2-0.6,2.5-1,3.7c-0.8,2.5-1.8,4.9-2.7,7.1c-0.9,2.2-1.8,4-2.7,5.4
			c-1,1.4-2.1,2.3-3.5,2.7c-1.4,0.4-3,0.2-5.1-0.1c2,1.1,3.8,2,5.5,2.3c0.8,0.1,1.6,0.1,2.4-0.2c0.8-0.3,1.5-0.8,2.1-1.6
			c1.3-1.5,2.4-3.8,3.7-6.6c0.7-1.4,1.4-2.9,2.3-4.5c0.8-1.6,1.7-3.2,2.6-4.8c1.8-3.3,3.4-6.5,3.5-9.5c0-1.6-0.3-3.2-1.5-4.7
			C290.6,195.8,288.6,194.5,286.1,193.8z"/>
	</g>
	<g>
		<path class="ears-st0" d="M273.8,197.6c-7.6,2.7-12.8,10.3-12.5,9.7c0.1-0.2-4,7.5-3,11.6c0.4,4.8,5.9,5.9,12.8,8.1
			c6.6,2.5,8,1,10.9-3.6c2.4-4.5,6.2-12.3,7.6-19.5C290.6,196.2,281,194.4,273.8,197.6z"/>
	</g>
	<path class="ears-st1" d="M261.1,214c0.1-0.1-2.1,3.5-1.8,5.8c0.1,2.5,2.7,3.6,8,3.7c8.7,1.4,11.6-5.9,9.7-13.7
		C273.1,201.6,260.3,213.8,261.1,214z"/>
</g>
<g>
	<g>
		<path d="M279.2,212.3c-3-0.8-5.6,0.6-6.9,3.8c-2.1,4.9-1.2,15.2,2.4,17.5c0.6,0.4,1.2,0.6,1.9,0.6c0.7,0,1.4-0.2,2-0.6
			c3.4-2.2,5.1-11.8,4.3-16.4C282.3,213.8,280.5,212.7,279.2,212.3z M277.9,217.2C277.9,217.2,277.9,217.2,277.9,217.2
			S277.9,217.2,277.9,217.2z M276.7,227.7c-0.7-2.8-1-7.7,0.3-10c0.3-0.5,0.4-0.6,0.6-0.6c0,0,0,0,0,0
			C278.5,218.7,277.9,224.6,276.7,227.7z"/>
		<path class="ears-st2" d="M278.6,214.8c-6.7-1.7-5.7,14.8-2.5,16.8S282.9,215.9,278.6,214.8z"/>
		<path class="ears-st3" d="M278.4,217c-4.6-1.1-4.2,10.7-2.1,12.1C278.6,230.5,281.5,217.7,278.4,217z"/>
	</g>
	<g>
		<path d="M287.9,229.7c0-0.1-0.1-0.1-0.1-0.2c-1.7-1.9-4.9-1.1-10.8,0.6c-1.5,0.4-3.5,1-4.2,1c-0.8-0.1-1.8-0.6-2.8-1.1
			c-0.3-0.1-0.6-0.3-0.8-0.4c-0.8-0.4-1.8-0.3-2.5,0.2c-0.8,0.5-1.2,1.4-1.1,2.3c0.1,0.7,0.1,1.4,0.2,2c0.2,1.8,0.4,3.6,0.6,5.4
			c-4.2,0.2-7.6,3.6-7.6,7.7c0,4.2,3.6,7.7,8,7.7c4.4,0,8-3.4,8-7.7c0-0.1,0-0.3,0-0.4c0.2-2.3,0.1-4.5-0.1-6.6
			c0.3-0.1,0.6-0.1,1-0.2c1.2-0.3,3.6-0.8,5.2-1.1c0.1,0.7,0.1,1.4,0.2,2.1c-3.4,0.5-5.9,3.6-5.9,7.4c0,4.1,3.1,7.4,6.9,7.4
			c3.6,0,6.6-3,6.8-6.9c0-0.2,0.1-0.4,0.1-0.6c0.3-3,0.1-7.4-0.1-10.9C289.1,235.5,289,231.1,287.9,229.7z M269.9,247.1
			c0,1.5-1.4,2.7-3,2.7c-1.7,0-3-1.2-3-2.7s1.4-2.7,3-2.7c0.5,0,1,0.1,1.4,0.3c0.5,0.3,1.2,0.3,1.7,0.1c0,0.5,0,1.1-0.1,1.6
			c0,0.1,0,0.3,0,0.4C269.9,246.9,269.9,247,269.9,247.1z M272.8,231.1C272.8,231.1,272.8,231.1,272.8,231.1
			C272.8,231.1,272.8,231.1,272.8,231.1z M283.9,233.5c0,0.1,0,0.2,0,0.3c-0.3-0.1-0.6-0.1-0.9-0.2
			C283.3,233.6,283.6,233.6,283.9,233.5z M284,247.6c0,0.1,0,0.2,0,0.3c0,0.1,0,0.3,0,0.4c0,1.3-0.9,2.3-1.8,2.3
			c-1,0-1.9-1.1-1.9-2.4s0.9-2.4,1.9-2.4c0.2,0,0.5,0.1,0.7,0.2c0.4,0.2,0.9,0.3,1.3,0.3C284.1,246.7,284.1,247.2,284,247.6z"/>
		<path class="ears-st2" d="M285.9,231.3c-1.3-1.4-11.5,2.6-13.4,2.4c-1.6-0.2-3.1-1.1-4.5-1.8c0.1,0.6,0.1,1.3,0.2,1.9
			c0.3,2.9,0.7,5.8,1,8.7c-0.7-0.3-1.6-0.5-2.5-0.5c-3.1,0-5.5,2.3-5.5,5.2s2.5,5.2,5.5,5.2s5.5-2.3,5.5-5.2c0-0.1,0-0.3,0-0.4
			c0.3-2.9,0-5.8-0.2-8.7c1.8-0.2,9.4-2.5,11.2-1.7c0.2,2.5,0.4,5.2,0.6,7.4c-0.6-0.3-1.2-0.5-1.9-0.5c-2.4,0-4.4,2.2-4.4,4.9
			s2,4.9,4.4,4.9c2.3,0,4.3-2.1,4.3-4.7c0-0.2,0.1-0.3,0.1-0.5c0.3-2.9,0-7.6-0.1-10.8C286.7,235.6,286.3,231.8,285.9,231.3z"/>
		<path class="ears-st3" d="M265,243.4c-1.8,0.8-2.8,2.6-2.2,3.8c0.6,1.3,2.5,1.6,4.3,0.7c1.8-0.8,2.8-2.6,2.2-3.8
			C268.7,242.8,266.8,242.5,265,243.4z"/>
		<path class="ears-st3" d="M280.7,245.5c-1.4,0.6-2,2.1-1.5,3.3c0.5,1.2,2.1,1.6,3.4,0.9c1.4-0.6,2-2.1,1.5-3.3
			C283.6,245.3,282.1,244.9,280.7,245.5z"/>
	</g>
</g>
<g>
	<g>
		<path d="M279.2,212.3c-3-0.8-5.6,0.6-6.9,3.8c-2.1,4.9-1.2,15.2,2.4,17.5c0.6,0.4,1.2,0.6,1.9,0.6c0.7,0,1.4-0.2,2-0.6
			c3.4-2.2,5.1-11.8,4.3-16.4C282.3,213.8,280.5,212.7,279.2,212.3z M277.9,217.2C277.9,217.2,277.9,217.2,277.9,217.2
			S277.9,217.2,277.9,217.2z M276.7,227.7c-0.7-2.8-1-7.7,0.3-10c0.3-0.5,0.4-0.6,0.6-0.6c0,0,0,0,0,0
			C278.5,218.7,277.9,224.6,276.7,227.7z"/>
		<path class="ears-st4" d="M278.6,214.8c-6.7-1.7-5.7,14.8-2.5,16.8S282.9,215.9,278.6,214.8z"/>
		<path class="ears-st3" d="M278.4,217c-4.6-1.1-4.2,10.7-2.1,12.1C278.6,230.5,281.5,217.7,278.4,217z"/>
	</g>
	<g>
		<path d="M287.9,229.7c0-0.1-0.1-0.1-0.1-0.2c-1.7-1.9-4.9-1.1-10.8,0.6c-1.5,0.4-3.5,1-4.2,1c-0.8-0.1-1.8-0.6-2.8-1.1
			c-0.3-0.1-0.6-0.3-0.8-0.4c-0.8-0.4-1.8-0.3-2.5,0.2c-0.8,0.5-1.2,1.4-1.1,2.3c0.1,0.7,0.1,1.4,0.2,2c0.2,1.8,0.4,3.6,0.6,5.4
			c-4.2,0.2-7.6,3.6-7.6,7.7c0,4.2,3.6,7.7,8,7.7c4.4,0,8-3.4,8-7.7c0-0.1,0-0.3,0-0.4c0.2-2.3,0.1-4.5-0.1-6.6
			c0.3-0.1,0.6-0.1,1-0.2c1.2-0.3,3.6-0.8,5.2-1.1c0.1,0.7,0.1,1.4,0.2,2.1c-3.4,0.5-5.9,3.6-5.9,7.4c0,4.1,3.1,7.4,6.9,7.4
			c3.6,0,6.6-3,6.8-6.9c0-0.2,0.1-0.4,0.1-0.6c0.3-3,0.1-7.4-0.1-10.9C289.1,235.5,289,231.1,287.9,229.7z M269.9,247.1
			c0,1.5-1.4,2.7-3,2.7c-1.7,0-3-1.2-3-2.7s1.4-2.7,3-2.7c0.5,0,1,0.1,1.4,0.3c0.5,0.3,1.2,0.3,1.7,0.1c0,0.5,0,1.1-0.1,1.6
			c0,0.1,0,0.3,0,0.4C269.9,246.9,269.9,247,269.9,247.1z M272.8,231.1C272.8,231.1,272.8,231.1,272.8,231.1
			C272.8,231.1,272.8,231.1,272.8,231.1z M283.9,233.5c0,0.1,0,0.2,0,0.3c-0.3-0.1-0.6-0.1-0.9-0.2
			C283.3,233.6,283.6,233.6,283.9,233.5z M284,247.6c0,0.1,0,0.2,0,0.3c0,0.1,0,0.3,0,0.4c0,1.3-0.9,2.3-1.8,2.3
			c-1,0-1.9-1.1-1.9-2.4s0.9-2.4,1.9-2.4c0.2,0,0.5,0.1,0.7,0.2c0.4,0.2,0.9,0.3,1.3,0.3C284.1,246.7,284.1,247.2,284,247.6z"/>
		<path class="ears-st4" d="M285.9,231.3c-1.3-1.4-11.5,2.6-13.4,2.4c-1.6-0.2-3.1-1.1-4.5-1.8c0.1,0.6,0.1,1.3,0.2,1.9
			c0.3,2.9,0.7,5.8,1,8.7c-0.7-0.3-1.6-0.5-2.5-0.5c-3.1,0-5.5,2.3-5.5,5.2s2.5,5.2,5.5,5.2s5.5-2.3,5.5-5.2c0-0.1,0-0.3,0-0.4
			c0.3-2.9,0-5.8-0.2-8.7c1.8-0.2,9.4-2.5,11.2-1.7c0.2,2.5,0.4,5.2,0.6,7.4c-0.6-0.3-1.2-0.5-1.9-0.5c-2.4,0-4.4,2.2-4.4,4.9
			s2,4.9,4.4,4.9c2.3,0,4.3-2.1,4.3-4.7c0-0.2,0.1-0.3,0.1-0.5c0.3-2.9,0-7.6-0.1-10.8C286.7,235.6,286.3,231.8,285.9,231.3z"/>
		<path class="ears-st3" d="M265,243.4c-1.8,0.8-2.8,2.6-2.2,3.8c0.6,1.3,2.5,1.6,4.3,0.7c1.8-0.8,2.8-2.6,2.2-3.8
			C268.7,242.8,266.8,242.5,265,243.4z"/>
		<path class="ears-st3" d="M280.7,245.5c-1.4,0.6-2,2.1-1.5,3.3c0.5,1.2,2.1,1.6,3.4,0.9c1.4-0.6,2-2.1,1.5-3.3
			C283.6,245.3,282.1,244.9,280.7,245.5z"/>
	</g>
</g>
<g>
	<g>
		<path d="M279.2,212.3c-3-0.8-5.6,0.6-6.9,3.8c-2.1,4.9-1.2,15.2,2.4,17.5c0.6,0.4,1.2,0.6,1.9,0.6c0.7,0,1.4-0.2,2-0.6
			c3.4-2.2,5.1-11.8,4.3-16.4C282.3,213.8,280.5,212.7,279.2,212.3z M277.9,217.2C277.9,217.2,277.9,217.2,277.9,217.2
			S277.9,217.2,277.9,217.2z M276.7,227.7c-0.7-2.8-1-7.7,0.3-10c0.3-0.5,0.4-0.6,0.6-0.6c0,0,0,0,0,0
			C278.5,218.7,277.9,224.6,276.7,227.7z"/>
		<path class="ears-st5" d="M278.6,214.8c-6.7-1.7-5.7,14.8-2.5,16.8S282.9,215.9,278.6,214.8z"/>
		<path class="ears-st3" d="M278.4,217c-4.6-1.1-4.2,10.7-2.1,12.1C278.6,230.5,281.5,217.7,278.4,217z"/>
	</g>
	<g>
		<path d="M287.9,229.7c0-0.1-0.1-0.1-0.1-0.2c-1.7-1.9-4.9-1.1-10.8,0.6c-1.5,0.4-3.5,1-4.2,1c-0.8-0.1-1.8-0.6-2.8-1.1
			c-0.3-0.1-0.6-0.3-0.8-0.4c-0.8-0.4-1.8-0.3-2.5,0.2c-0.8,0.5-1.2,1.4-1.1,2.3c0.1,0.7,0.1,1.4,0.2,2c0.2,1.8,0.4,3.6,0.6,5.4
			c-4.2,0.2-7.6,3.6-7.6,7.7c0,4.2,3.6,7.7,8,7.7c4.4,0,8-3.4,8-7.7c0-0.1,0-0.3,0-0.4c0.2-2.3,0.1-4.5-0.1-6.6
			c0.3-0.1,0.6-0.1,1-0.2c1.2-0.3,3.6-0.8,5.2-1.1c0.1,0.7,0.1,1.4,0.2,2.1c-3.4,0.5-5.9,3.6-5.9,7.4c0,4.1,3.1,7.4,6.9,7.4
			c3.6,0,6.6-3,6.8-6.9c0-0.2,0.1-0.4,0.1-0.6c0.3-3,0.1-7.4-0.1-10.9C289.1,235.5,289,231.1,287.9,229.7z M269.9,247.1
			c0,1.5-1.4,2.7-3,2.7c-1.7,0-3-1.2-3-2.7s1.4-2.7,3-2.7c0.5,0,1,0.1,1.4,0.3c0.5,0.3,1.2,0.3,1.7,0.1c0,0.5,0,1.1-0.1,1.6
			c0,0.1,0,0.3,0,0.4C269.9,246.9,269.9,247,269.9,247.1z M272.8,231.1C272.8,231.1,272.8,231.1,272.8,231.1
			C272.8,231.1,272.8,231.1,272.8,231.1z M283.9,233.5c0,0.1,0,0.2,0,0.3c-0.3-0.1-0.6-0.1-0.9-0.2
			C283.3,233.6,283.6,233.6,283.9,233.5z M284,247.6c0,0.1,0,0.2,0,0.3c0,0.1,0,0.3,0,0.4c0,1.3-0.9,2.3-1.8,2.3
			c-1,0-1.9-1.1-1.9-2.4s0.9-2.4,1.9-2.4c0.2,0,0.5,0.1,0.7,0.2c0.4,0.2,0.9,0.3,1.3,0.3C284.1,246.7,284.1,247.2,284,247.6z"/>
		<path class="ears-st5" d="M285.9,231.3c-1.3-1.4-11.5,2.6-13.4,2.4c-1.6-0.2-3.1-1.1-4.5-1.8c0.1,0.6,0.1,1.3,0.2,1.9
			c0.3,2.9,0.7,5.8,1,8.7c-0.7-0.3-1.6-0.5-2.5-0.5c-3.1,0-5.5,2.3-5.5,5.2s2.5,5.2,5.5,5.2s5.5-2.3,5.5-5.2c0-0.1,0-0.3,0-0.4
			c0.3-2.9,0-5.8-0.2-8.7c1.8-0.2,9.4-2.5,11.2-1.7c0.2,2.5,0.4,5.2,0.6,7.4c-0.6-0.3-1.2-0.5-1.9-0.5c-2.4,0-4.4,2.2-4.4,4.9
			s2,4.9,4.4,4.9c2.3,0,4.3-2.1,4.3-4.7c0-0.2,0.1-0.3,0.1-0.5c0.3-2.9,0-7.6-0.1-10.8C286.7,235.6,286.3,231.8,285.9,231.3z"/>
		<path class="ears-st3" d="M265,243.4c-1.8,0.8-2.8,2.6-2.2,3.8c0.6,1.3,2.5,1.6,4.3,0.7c1.8-0.8,2.8-2.6,2.2-3.8
			C268.7,242.8,266.8,242.5,265,243.4z"/>
		<path class="ears-st3" d="M280.7,245.5c-1.4,0.6-2,2.1-1.5,3.3c0.5,1.2,2.1,1.6,3.4,0.9c1.4-0.6,2-2.1,1.5-3.3
			C283.6,245.3,282.1,244.9,280.7,245.5z"/>
	</g>
</g>
<g>
	<g>
		<path d="M279.2,212.3c-3-0.8-5.6,0.6-6.9,3.8c-2.1,4.9-1.2,15.2,2.4,17.5c0.6,0.4,1.2,0.6,1.9,0.6c0.7,0,1.4-0.2,2-0.6
			c3.4-2.2,5.1-11.8,4.3-16.4C282.3,213.8,280.5,212.7,279.2,212.3z M277.9,217.2C277.9,217.2,277.9,217.2,277.9,217.2
			S277.9,217.2,277.9,217.2z M276.7,227.7c-0.7-2.8-1-7.7,0.3-10c0.3-0.5,0.4-0.6,0.6-0.6c0,0,0,0,0,0
			C278.5,218.7,277.9,224.6,276.7,227.7z"/>
		<path class="ears-st6" d="M278.6,214.8c-6.7-1.7-5.7,14.8-2.5,16.8S282.9,215.9,278.6,214.8z"/>
		<path class="ears-st3" d="M278.4,217c-4.6-1.1-4.2,10.7-2.1,12.1C278.6,230.5,281.5,217.7,278.4,217z"/>
	</g>
	<g>
		<path d="M287.9,229.7c0-0.1-0.1-0.1-0.1-0.2c-1.7-1.9-4.9-1.1-10.8,0.6c-1.5,0.4-3.5,1-4.2,1c-0.8-0.1-1.8-0.6-2.8-1.1
			c-0.3-0.1-0.6-0.3-0.8-0.4c-0.8-0.4-1.8-0.3-2.5,0.2c-0.8,0.5-1.2,1.4-1.1,2.3c0.1,0.7,0.1,1.4,0.2,2c0.2,1.8,0.4,3.6,0.6,5.4
			c-4.2,0.2-7.6,3.6-7.6,7.7c0,4.2,3.6,7.7,8,7.7c4.4,0,8-3.4,8-7.7c0-0.1,0-0.3,0-0.4c0.2-2.3,0.1-4.5-0.1-6.6
			c0.3-0.1,0.6-0.1,1-0.2c1.2-0.3,3.6-0.8,5.2-1.1c0.1,0.7,0.1,1.4,0.2,2.1c-3.4,0.5-5.9,3.6-5.9,7.4c0,4.1,3.1,7.4,6.9,7.4
			c3.6,0,6.6-3,6.8-6.9c0-0.2,0.1-0.4,0.1-0.6c0.3-3,0.1-7.4-0.1-10.9C289.1,235.5,289,231.1,287.9,229.7z M269.9,247.1
			c0,1.5-1.4,2.7-3,2.7c-1.7,0-3-1.2-3-2.7s1.4-2.7,3-2.7c0.5,0,1,0.1,1.4,0.3c0.5,0.3,1.2,0.3,1.7,0.1c0,0.5,0,1.1-0.1,1.6
			c0,0.1,0,0.3,0,0.4C269.9,246.9,269.9,247,269.9,247.1z M272.8,231.1C272.8,231.1,272.8,231.1,272.8,231.1
			C272.8,231.1,272.8,231.1,272.8,231.1z M283.9,233.5c0,0.1,0,0.2,0,0.3c-0.3-0.1-0.6-0.1-0.9-0.2
			C283.3,233.6,283.6,233.6,283.9,233.5z M284,247.6c0,0.1,0,0.2,0,0.3c0,0.1,0,0.3,0,0.4c0,1.3-0.9,2.3-1.8,2.3
			c-1,0-1.9-1.1-1.9-2.4s0.9-2.4,1.9-2.4c0.2,0,0.5,0.1,0.7,0.2c0.4,0.2,0.9,0.3,1.3,0.3C284.1,246.7,284.1,247.2,284,247.6z"/>
		<path class="ears-st6" d="M285.9,231.3c-1.3-1.4-11.5,2.6-13.4,2.4c-1.6-0.2-3.1-1.1-4.5-1.8c0.1,0.6,0.1,1.3,0.2,1.9
			c0.3,2.9,0.7,5.8,1,8.7c-0.7-0.3-1.6-0.5-2.5-0.5c-3.1,0-5.5,2.3-5.5,5.2s2.5,5.2,5.5,5.2s5.5-2.3,5.5-5.2c0-0.1,0-0.3,0-0.4
			c0.3-2.9,0-5.8-0.2-8.7c1.8-0.2,9.4-2.5,11.2-1.7c0.2,2.5,0.4,5.2,0.6,7.4c-0.6-0.3-1.2-0.5-1.9-0.5c-2.4,0-4.4,2.2-4.4,4.9
			s2,4.9,4.4,4.9c2.3,0,4.3-2.1,4.3-4.7c0-0.2,0.1-0.3,0.1-0.5c0.3-2.9,0-7.6-0.1-10.8C286.7,235.6,286.3,231.8,285.9,231.3z"/>
		<path class="ears-st3" d="M265,243.4c-1.8,0.8-2.8,2.6-2.2,3.8c0.6,1.3,2.5,1.6,4.3,0.7c1.8-0.8,2.8-2.6,2.2-3.8
			C268.7,242.8,266.8,242.5,265,243.4z"/>
		<path class="ears-st3" d="M280.7,245.5c-1.4,0.6-2,2.1-1.5,3.3c0.5,1.2,2.1,1.6,3.4,0.9c1.4-0.6,2-2.1,1.5-3.3
			C283.6,245.3,282.1,244.9,280.7,245.5z"/>
	</g>
</g>
<g>
	<g>
		<path d="M279.2,212.3c-3-0.8-5.6,0.6-6.9,3.8c-2.1,4.9-1.2,15.2,2.4,17.5c0.6,0.4,1.2,0.6,1.9,0.6c0.7,0,1.4-0.2,2-0.6
			c3.4-2.2,5.1-11.8,4.3-16.4C282.3,213.8,280.5,212.7,279.2,212.3z M277.9,217.2C277.9,217.2,277.9,217.2,277.9,217.2
			S277.9,217.2,277.9,217.2z M276.7,227.7c-0.7-2.8-1-7.7,0.3-10c0.3-0.5,0.4-0.6,0.6-0.6c0,0,0,0,0,0
			C278.5,218.7,277.9,224.6,276.7,227.7z"/>
		<path class="ears-st7" d="M278.6,214.8c-6.7-1.7-5.7,14.8-2.5,16.8S282.9,215.9,278.6,214.8z"/>
		<path class="ears-st3" d="M278.4,217c-4.6-1.1-4.2,10.7-2.1,12.1C278.6,230.5,281.5,217.7,278.4,217z"/>
	</g>
	<g>
		<path d="M287.9,229.7c0-0.1-0.1-0.1-0.1-0.2c-1.7-1.9-4.9-1.1-10.8,0.6c-1.5,0.4-3.5,1-4.2,1c-0.8-0.1-1.8-0.6-2.8-1.1
			c-0.3-0.1-0.6-0.3-0.8-0.4c-0.8-0.4-1.8-0.3-2.5,0.2c-0.8,0.5-1.2,1.4-1.1,2.3c0.1,0.7,0.1,1.4,0.2,2c0.2,1.8,0.4,3.6,0.6,5.4
			c-4.2,0.2-7.6,3.6-7.6,7.7c0,4.2,3.6,7.7,8,7.7c4.4,0,8-3.4,8-7.7c0-0.1,0-0.3,0-0.4c0.2-2.3,0.1-4.5-0.1-6.6
			c0.3-0.1,0.6-0.1,1-0.2c1.2-0.3,3.6-0.8,5.2-1.1c0.1,0.7,0.1,1.4,0.2,2.1c-3.4,0.5-5.9,3.6-5.9,7.4c0,4.1,3.1,7.4,6.9,7.4
			c3.6,0,6.6-3,6.8-6.9c0-0.2,0.1-0.4,0.1-0.6c0.3-3,0.1-7.4-0.1-10.9C289.1,235.5,289,231.1,287.9,229.7z M269.9,247.1
			c0,1.5-1.4,2.7-3,2.7c-1.7,0-3-1.2-3-2.7s1.4-2.7,3-2.7c0.5,0,1,0.1,1.4,0.3c0.5,0.3,1.2,0.3,1.7,0.1c0,0.5,0,1.1-0.1,1.6
			c0,0.1,0,0.3,0,0.4C269.9,246.9,269.9,247,269.9,247.1z M272.8,231.1C272.8,231.1,272.8,231.1,272.8,231.1
			C272.8,231.1,272.8,231.1,272.8,231.1z M283.9,233.5c0,0.1,0,0.2,0,0.3c-0.3-0.1-0.6-0.1-0.9-0.2
			C283.3,233.6,283.6,233.6,283.9,233.5z M284,247.6c0,0.1,0,0.2,0,0.3c0,0.1,0,0.3,0,0.4c0,1.3-0.9,2.3-1.8,2.3
			c-1,0-1.9-1.1-1.9-2.4s0.9-2.4,1.9-2.4c0.2,0,0.5,0.1,0.7,0.2c0.4,0.2,0.9,0.3,1.3,0.3C284.1,246.7,284.1,247.2,284,247.6z"/>
		<path class="ears-st7" d="M285.9,231.3c-1.3-1.4-11.5,2.6-13.4,2.4c-1.6-0.2-3.1-1.1-4.5-1.8c0.1,0.6,0.1,1.3,0.2,1.9
			c0.3,2.9,0.7,5.8,1,8.7c-0.7-0.3-1.6-0.5-2.5-0.5c-3.1,0-5.5,2.3-5.5,5.2s2.5,5.2,5.5,5.2s5.5-2.3,5.5-5.2c0-0.1,0-0.3,0-0.4
			c0.3-2.9,0-5.8-0.2-8.7c1.8-0.2,9.4-2.5,11.2-1.7c0.2,2.5,0.4,5.2,0.6,7.4c-0.6-0.3-1.2-0.5-1.9-0.5c-2.4,0-4.4,2.2-4.4,4.9
			s2,4.9,4.4,4.9c2.3,0,4.3-2.1,4.3-4.7c0-0.2,0.1-0.3,0.1-0.5c0.3-2.9,0-7.6-0.1-10.8C286.7,235.6,286.3,231.8,285.9,231.3z"/>
		<path class="ears-st3" d="M265,243.4c-1.8,0.8-2.8,2.6-2.2,3.8c0.6,1.3,2.5,1.6,4.3,0.7c1.8-0.8,2.8-2.6,2.2-3.8
			C268.7,242.8,266.8,242.5,265,243.4z"/>
		<path class="ears-st3" d="M280.7,245.5c-1.4,0.6-2,2.1-1.5,3.3c0.5,1.2,2.1,1.6,3.4,0.9c1.4-0.6,2-2.1,1.5-3.3
			C283.6,245.3,282.1,244.9,280.7,245.5z"/>
	</g>
</g>
<g>
	<g>
		<path d="M279.2,212.3c-3-0.8-5.6,0.6-6.9,3.8c-2.1,4.9-1.2,15.2,2.4,17.5c0.6,0.4,1.2,0.6,1.9,0.6c0.7,0,1.4-0.2,2-0.6
			c3.4-2.2,5.1-11.8,4.3-16.4C282.3,213.8,280.5,212.7,279.2,212.3z M277.9,217.2C277.9,217.2,277.9,217.2,277.9,217.2
			S277.9,217.2,277.9,217.2z M276.7,227.7c-0.7-2.8-1-7.7,0.3-10c0.3-0.5,0.4-0.6,0.6-0.6c0,0,0,0,0,0
			C278.5,218.7,277.9,224.6,276.7,227.7z"/>
		<path class="ears-st8" d="M278.6,214.8c-6.7-1.7-5.7,14.8-2.5,16.8S282.9,215.9,278.6,214.8z"/>
		<path class="ears-st3" d="M278.4,217c-4.6-1.1-4.2,10.7-2.1,12.1C278.6,230.5,281.5,217.7,278.4,217z"/>
	</g>
	<g>
		<path d="M287.9,229.7c0-0.1-0.1-0.1-0.1-0.2c-1.7-1.9-4.9-1.1-10.8,0.6c-1.5,0.4-3.5,1-4.2,1c-0.8-0.1-1.8-0.6-2.8-1.1
			c-0.3-0.1-0.6-0.3-0.8-0.4c-0.8-0.4-1.8-0.3-2.5,0.2c-0.8,0.5-1.2,1.4-1.1,2.3c0.1,0.7,0.1,1.4,0.2,2c0.2,1.8,0.4,3.6,0.6,5.4
			c-4.2,0.2-7.6,3.6-7.6,7.7c0,4.2,3.6,7.7,8,7.7c4.4,0,8-3.4,8-7.7c0-0.1,0-0.3,0-0.4c0.2-2.3,0.1-4.5-0.1-6.6
			c0.3-0.1,0.6-0.1,1-0.2c1.2-0.3,3.6-0.8,5.2-1.1c0.1,0.7,0.1,1.4,0.2,2.1c-3.4,0.5-5.9,3.6-5.9,7.4c0,4.1,3.1,7.4,6.9,7.4
			c3.6,0,6.6-3,6.8-6.9c0-0.2,0.1-0.4,0.1-0.6c0.3-3,0.1-7.4-0.1-10.9C289.1,235.5,289,231.1,287.9,229.7z M269.9,247.1
			c0,1.5-1.4,2.7-3,2.7c-1.7,0-3-1.2-3-2.7s1.4-2.7,3-2.7c0.5,0,1,0.1,1.4,0.3c0.5,0.3,1.2,0.3,1.7,0.1c0,0.5,0,1.1-0.1,1.6
			c0,0.1,0,0.3,0,0.4C269.9,246.9,269.9,247,269.9,247.1z M272.8,231.1C272.8,231.1,272.8,231.1,272.8,231.1
			C272.8,231.1,272.8,231.1,272.8,231.1z M283.9,233.5c0,0.1,0,0.2,0,0.3c-0.3-0.1-0.6-0.1-0.9-0.2
			C283.3,233.6,283.6,233.6,283.9,233.5z M284,247.6c0,0.1,0,0.2,0,0.3c0,0.1,0,0.3,0,0.4c0,1.3-0.9,2.3-1.8,2.3
			c-1,0-1.9-1.1-1.9-2.4s0.9-2.4,1.9-2.4c0.2,0,0.5,0.1,0.7,0.2c0.4,0.2,0.9,0.3,1.3,0.3C284.1,246.7,284.1,247.2,284,247.6z"/>
		<path class="ears-st8" d="M285.9,231.3c-1.3-1.4-11.5,2.6-13.4,2.4c-1.6-0.2-3.1-1.1-4.5-1.8c0.1,0.6,0.1,1.3,0.2,1.9
			c0.3,2.9,0.7,5.8,1,8.7c-0.7-0.3-1.6-0.5-2.5-0.5c-3.1,0-5.5,2.3-5.5,5.2s2.5,5.2,5.5,5.2s5.5-2.3,5.5-5.2c0-0.1,0-0.3,0-0.4
			c0.3-2.9,0-5.8-0.2-8.7c1.8-0.2,9.4-2.5,11.2-1.7c0.2,2.5,0.4,5.2,0.6,7.4c-0.6-0.3-1.2-0.5-1.9-0.5c-2.4,0-4.4,2.2-4.4,4.9
			s2,4.9,4.4,4.9c2.3,0,4.3-2.1,4.3-4.7c0-0.2,0.1-0.3,0.1-0.5c0.3-2.9,0-7.6-0.1-10.8C286.7,235.6,286.3,231.8,285.9,231.3z"/>
		<path class="ears-st3" d="M265,243.4c-1.8,0.8-2.8,2.6-2.2,3.8c0.6,1.3,2.5,1.6,4.3,0.7c1.8-0.8,2.8-2.6,2.2-3.8
			C268.7,242.8,266.8,242.5,265,243.4z"/>
		<path class="ears-st3" d="M280.7,245.5c-1.4,0.6-2,2.1-1.5,3.3c0.5,1.2,2.1,1.6,3.4,0.9c1.4-0.6,2-2.1,1.5-3.3
			C283.6,245.3,282.1,244.9,280.7,245.5z"/>
	</g>
</g>
</svg>
