<?xml version="1.0" encoding="utf-8"?>
<!-- Generator: Adobe Illustrator 26.0.3, SVG Export Plug-In . SVG Version: 6.00 Build 0)  -->
<svg version="1.1" id="Layer_1" xmlns="http://www.w3.org/2000/svg" xmlns:xlink="http://www.w3.org/1999/xlink" x="0px" y="0px"
	 viewBox="0 0 384 400" style="enable-background:new 0 0 384 400;" xml:space="preserve">
<style type="text/css">
	.ears-st0{fill:#FAEBCF;}
	.ears-st1{opacity:0.16;}
	.ears-st2{fill:#BA3B99;}
	.ears-st3{opacity:0.5;fill:#FFFFFF;}
	.ears-st4{fill:#6E44D8;}
	.ears-st5{fill:#44BDD8;}
	.ears-st6{fill:#D84E1C;}
	.ears-st7{fill:#D8A10B;}
	.ears-st8{fill:#008F6C;}
</style>
<g>
	<path d="M283.5,202.1c-1-1.2-2.3-2.3-3.7-2.9c-2.9-1.3-5.8-1.2-8.4-0.6c-2.6,0.6-5.1,1.6-7.2,3c2.5-0.4,5.1-0.7,7.5-0.6
		c2.4,0.1,4.7,0.6,6.4,1.7c1.7,1.1,2.6,2.8,3.1,4.8c0.2,1,0.4,2.1,0.4,3.2c0,1.1,0,2.2-0.3,3.2c-0.4,2.1-1.2,4.2-2.5,5.9
		c-1.2,1.8-2.8,3.3-4.7,4.3c-1.9,1-4.1,1.4-6.4,1.2c-2.3-0.2-4.6-1.2-6.9-2.3c1.6,2,3.7,3.8,6.4,4.7c1.3,0.5,2.7,0.8,4.2,0.8
		c1.4,0,2.9-0.2,4.3-0.7c2.8-0.9,5.3-2.8,7.1-5c0.9-1.1,1.7-2.4,2.3-3.7c0.6-1.3,1-2.7,1.3-4.2c0.5-2.9,0.4-5.8-0.5-8.6
		C285.1,204.8,284.5,203.4,283.5,202.1z"/>
	<path class="ears-st0" d="M264.1,201.6c0,0-16.1,10.7-3.5,21.3c12.6,10.6,25.9-2.4,22.9-15.4C280.5,194.6,264.1,201.6,264.1,201.6z"/>
	<path class="ears-st1" d="M261.5,206.1c0,0-9.7,5.5-1.8,11.4s16-0.8,13.9-7.9S261.5,206.1,261.5,206.1z"/>
</g>
<g>
	<g>
		<path d="M278.4,211.7c-3-0.8-5.6,0.6-6.9,3.8c-2.1,4.9-1.2,15.2,2.4,17.5c0.6,0.4,1.2,0.6,1.9,0.6c0.7,0,1.4-0.2,2-0.6
			c3.4-2.2,5.1-11.8,4.3-16.4C281.5,213.2,279.7,212.1,278.4,211.7z M275.9,227.1c-0.7-2.8-1-7.7,0.3-10c0.3-0.5,0.4-0.6,0.6-0.6
			c0,0,0,0,0,0C277.7,218.1,277,224,275.9,227.1z"/>
		<path class="ears-st2" d="M277.8,214.1c-6.7-1.7-5.7,14.8-2.5,16.8C278.4,233,282.1,215.3,277.8,214.1z"/>
		<path class="ears-st3" d="M277.6,216.4c-4.6-1.1-4.2,10.7-2.1,12.1C277.8,229.9,280.7,217.1,277.6,216.4z"/>
	</g>
	<g>
		<g>
			<path d="M284.1,239.9c-0.4-0.8-0.9-1.4-1.4-2c0,0,0,0,0,0c0.1-0.1,0.1-0.3,0.1-0.4l1.3-5c0.3-1.2-0.3-2.4-1.5-2.9
				c-0.5-0.2-1-0.4-1.6-0.5c0-0.5-0.2-1.1-0.5-1.5c-0.5-0.6-1.2-1-2-0.9l-4.1,0.2c-1.3,0-2.4,1.2-2.4,2.5v0.4
				c-0.3,0.1-0.5,0.3-0.8,0.4c-0.9,0.5-1.6,1.1-2.3,1.9c-0.6,0.7-1.1,1.6-1.5,2.6c-0.4,1-0.5,2.1-0.5,3.2c0,0.9,0.2,1.8,0.6,2.6
				c0.3,0.6,0.6,1.1,1,1.6c-0.2,0.2-0.4,0.5-0.5,0.8l-1.6,4.6c-0.4,1.2,0.1,2.5,1.3,3.1c0.8,0.4,1.7,0.7,2.6,1c0.1,0,0.1,0,0.2,0.1
				c0,0.6,0.2,1.2,0.5,1.6c0.5,0.6,1.2,1,2,1c0,0,0.1,0,0.1,0l4.1-0.2c1.3,0,2.4-1.2,2.4-2.5v-0.4c0.3-0.1,0.6-0.3,0.9-0.4
				c0.9-0.5,1.7-1.1,2.4-1.8c0.7-0.8,1.2-1.6,1.6-2.6c0.4-1,0.5-2,0.5-3.2c0,0,0,0,0,0C284.7,241.7,284.5,240.8,284.1,239.9z
				 M272.3,238.5c-0.1-0.1-0.3-0.3-0.4-0.5c-0.1-0.1-0.1-0.3-0.1-0.6c0-0.1,0-0.3,0-0.4c0.1,0.8,0.4,1.5,1.1,2
				C272.7,238.9,272.5,238.7,272.3,238.5z M276.3,232.9c0.2,0.2,0.4,0.3,0.6,0.4c-0.3,0-0.7,0-1.1,0
				C276,233.2,276.1,233.1,276.3,232.9z M275.5,234.8C275.5,234.8,275.5,234.8,275.5,234.8C275.5,234.8,275.5,234.8,275.5,234.8z
				 M279.6,244.3c-0.1,0.4-0.3,0.7-0.6,0.9c-0.3,0.3-0.6,0.6-1,0.8c-0.5,0.3-1,0.5-1.6,0.6c-0.5,0.1-1,0.4-1.3,0.8
				c-0.2-0.2-0.5-0.4-0.8-0.5c0,0,0.1,0,0.1,0c0.8,0,1.6-0.2,2.2-0.5c1.3-0.6,2.1-1.8,2-3.2c-0.1-1.1-0.7-2-1.6-2.6
				c-0.3-0.2-0.7-0.4-1.2-0.6c-0.1,0-0.2-0.1-0.2-0.1c-0.2-0.1-0.5-0.1-0.8-0.2c-0.1,0-0.3-0.1-0.5-0.2c0.3,0.1,0.5,0.1,0.8,0.2
				l0.3,0c0.4,0.1,0.8,0.2,1.3,0.3c0.2,0.1,0.5,0.1,0.7,0.2c0.4,0.2,0.7,0.3,1.1,0.6c0.3,0.1,0.5,0.3,0.7,0.5
				c0.2,0.2,0.4,0.4,0.5,0.7c0.1,0.2,0.2,0.5,0.2,0.9C279.8,243.5,279.7,244,279.6,244.3z M274.5,241.9
				C274.5,241.9,274.5,241.9,274.5,241.9S274.5,241.9,274.5,241.9z"/>
		</g>
		<g>
			<path class="ears-st2" d="M280.9,239.7c-0.4-0.4-0.8-0.7-1.3-1c-0.5-0.3-0.9-0.5-1.4-0.7c-0.4-0.2-0.8-0.3-1.2-0.4
				c-0.5-0.1-0.9-0.2-1.3-0.3c-0.1,0-0.2,0-0.4-0.1c-0.2,0-0.3-0.1-0.5-0.1c-0.2,0-0.3-0.1-0.4-0.2c-0.1-0.1-0.2-0.2-0.2-0.3
				c0-0.3,0.1-0.5,0.3-0.6c0.2-0.1,0.5-0.2,0.8-0.3c0.3-0.1,0.6-0.1,0.9-0.1s0.5,0,0.7,0c0.6,0.1,1.2,0.2,1.7,0.4
				c0.5,0.2,1,0.4,1.6,0.6l1.3-5c-0.5-0.2-1.1-0.4-1.8-0.5c-0.6-0.1-1.3-0.2-1.9-0.3l0.5-2l-4.1,0.2v2.1c-0.7,0.2-1.4,0.5-2,0.8
				c-0.6,0.4-1.2,0.8-1.6,1.3c-0.4,0.5-0.8,1.1-1,1.8c-0.3,0.7-0.4,1.4-0.3,2.3c0,0.6,0.1,1.1,0.3,1.6c0.2,0.5,0.5,0.9,0.8,1.2
				c0.3,0.3,0.7,0.6,1.1,0.9c0.4,0.2,0.8,0.5,1.2,0.6c0.4,0.2,0.8,0.3,1.1,0.4c0.3,0.1,0.6,0.2,0.8,0.2c0.3,0.1,0.6,0.3,0.9,0.4
				c0.2,0.1,0.4,0.3,0.4,0.6c0,0.4-0.2,0.6-0.5,0.8c-0.4,0.2-0.8,0.3-1.4,0.3c-0.4,0-0.7,0-1.1-0.1c-0.4-0.1-0.7-0.2-1.1-0.3
				c-0.3-0.1-0.7-0.2-1-0.4s-0.6-0.2-0.8-0.3l-1.6,4.6c0.7,0.3,1.4,0.6,2.3,0.9s1.7,0.4,2.5,0.5l-0.6,2l4.1-0.2v-2.2
				c0.8-0.2,1.5-0.5,2.2-0.8c0.7-0.4,1.2-0.8,1.7-1.3c0.5-0.5,0.8-1.1,1.1-1.8c0.2-0.7,0.4-1.4,0.3-2.2c0-0.7-0.2-1.3-0.4-1.9
				C281.6,240.5,281.3,240.1,280.9,239.7z"/>
		</g>
		<path class="ears-st3" d="M271.1,236c1.7,0.5,4-1.7,3.7-3.4C274.5,231,269.4,235.5,271.1,236z"/>
	</g>
</g>
<g>
	<g>
		<path d="M278.4,211.7c-3-0.8-5.6,0.6-6.9,3.8c-2.1,4.9-1.2,15.2,2.4,17.5c0.6,0.4,1.2,0.6,1.9,0.6c0.7,0,1.4-0.2,2-0.6
			c3.4-2.2,5.1-11.8,4.3-16.4C281.5,213.2,279.7,212.1,278.4,211.7z M275.9,227.1c-0.7-2.8-1-7.7,0.3-10c0.3-0.5,0.4-0.6,0.6-0.6
			c0,0,0,0,0,0C277.7,218.1,277,224,275.9,227.1z"/>
		<path class="ears-st4" d="M277.8,214.1c-6.7-1.7-5.7,14.8-2.5,16.8C278.4,233,282.1,215.3,277.8,214.1z"/>
		<path class="ears-st3" d="M277.6,216.4c-4.6-1.1-4.2,10.7-2.1,12.1C277.8,229.9,280.7,217.1,277.6,216.4z"/>
	</g>
	<g>
		<g>
			<path d="M284.1,239.9c-0.4-0.8-0.9-1.4-1.4-2c0,0,0,0,0,0c0.1-0.1,0.1-0.3,0.1-0.4l1.3-5c0.3-1.2-0.3-2.4-1.5-2.9
				c-0.5-0.2-1-0.4-1.6-0.5c0-0.5-0.2-1.1-0.5-1.5c-0.5-0.6-1.2-1-2-0.9l-4.1,0.2c-1.3,0-2.4,1.2-2.4,2.5v0.4
				c-0.3,0.1-0.5,0.3-0.8,0.4c-0.9,0.5-1.6,1.1-2.3,1.9c-0.6,0.7-1.1,1.6-1.5,2.6c-0.4,1-0.5,2.1-0.5,3.2c0,0.9,0.2,1.8,0.6,2.6
				c0.3,0.6,0.6,1.1,1,1.6c-0.2,0.2-0.4,0.5-0.5,0.8l-1.6,4.6c-0.4,1.2,0.1,2.5,1.3,3.1c0.8,0.4,1.7,0.7,2.6,1c0.1,0,0.1,0,0.2,0.1
				c0,0.6,0.2,1.2,0.5,1.6c0.5,0.6,1.2,1,2,1c0,0,0.1,0,0.1,0l4.1-0.2c1.3,0,2.4-1.2,2.4-2.5v-0.4c0.3-0.1,0.6-0.3,0.9-0.4
				c0.9-0.5,1.7-1.1,2.4-1.8c0.7-0.8,1.2-1.6,1.6-2.6c0.4-1,0.5-2,0.5-3.2c0,0,0,0,0,0C284.7,241.7,284.5,240.8,284.1,239.9z
				 M272.3,238.5c-0.1-0.1-0.3-0.3-0.4-0.5c-0.1-0.1-0.1-0.3-0.1-0.6c0-0.1,0-0.3,0-0.4c0.1,0.8,0.4,1.5,1.1,2
				C272.7,238.9,272.5,238.7,272.3,238.5z M276.3,232.9c0.2,0.2,0.4,0.3,0.6,0.4c-0.3,0-0.7,0-1.1,0
				C276,233.2,276.1,233.1,276.3,232.9z M275.5,234.8C275.5,234.8,275.5,234.8,275.5,234.8C275.5,234.8,275.5,234.8,275.5,234.8z
				 M279.6,244.3c-0.1,0.4-0.3,0.7-0.6,0.9c-0.3,0.3-0.6,0.6-1,0.8c-0.5,0.3-1,0.5-1.6,0.6c-0.5,0.1-1,0.4-1.3,0.8
				c-0.2-0.2-0.5-0.4-0.8-0.5c0,0,0.1,0,0.1,0c0.8,0,1.6-0.2,2.2-0.5c1.3-0.6,2.1-1.8,2-3.2c-0.1-1.1-0.7-2-1.6-2.6
				c-0.3-0.2-0.7-0.4-1.2-0.6c-0.1,0-0.2-0.1-0.2-0.1c-0.2-0.1-0.5-0.1-0.8-0.2c-0.1,0-0.3-0.1-0.5-0.2c0.3,0.1,0.5,0.1,0.8,0.2
				l0.3,0c0.4,0.1,0.8,0.2,1.3,0.3c0.2,0.1,0.5,0.1,0.7,0.2c0.4,0.2,0.7,0.3,1.1,0.6c0.3,0.1,0.5,0.3,0.7,0.5
				c0.2,0.2,0.4,0.4,0.5,0.7c0.1,0.2,0.2,0.5,0.2,0.9C279.8,243.5,279.7,244,279.6,244.3z M274.5,241.9
				C274.5,241.9,274.5,241.9,274.5,241.9S274.5,241.9,274.5,241.9z"/>
		</g>
		<g>
			<path class="ears-st4" d="M280.9,239.7c-0.4-0.4-0.8-0.7-1.3-1c-0.5-0.3-0.9-0.5-1.4-0.7c-0.4-0.2-0.8-0.3-1.2-0.4
				c-0.5-0.1-0.9-0.2-1.3-0.3c-0.1,0-0.2,0-0.4-0.1c-0.2,0-0.3-0.1-0.5-0.1c-0.2,0-0.3-0.1-0.4-0.2c-0.1-0.1-0.2-0.2-0.2-0.3
				c0-0.3,0.1-0.5,0.3-0.6c0.2-0.1,0.5-0.2,0.8-0.3c0.3-0.1,0.6-0.1,0.9-0.1s0.5,0,0.7,0c0.6,0.1,1.2,0.2,1.7,0.4
				c0.5,0.2,1,0.4,1.6,0.6l1.3-5c-0.5-0.2-1.1-0.4-1.8-0.5c-0.6-0.1-1.3-0.2-1.9-0.3l0.5-2l-4.1,0.2v2.1c-0.7,0.2-1.4,0.5-2,0.8
				c-0.6,0.4-1.2,0.8-1.6,1.3c-0.4,0.5-0.8,1.1-1,1.8c-0.3,0.7-0.4,1.4-0.3,2.3c0,0.6,0.1,1.1,0.3,1.6c0.2,0.5,0.5,0.9,0.8,1.2
				c0.3,0.3,0.7,0.6,1.1,0.9c0.4,0.2,0.8,0.5,1.2,0.6c0.4,0.2,0.8,0.3,1.1,0.4c0.3,0.1,0.6,0.2,0.8,0.2c0.3,0.1,0.6,0.3,0.9,0.4
				c0.2,0.1,0.4,0.3,0.4,0.6c0,0.4-0.2,0.6-0.5,0.8c-0.4,0.2-0.8,0.3-1.4,0.3c-0.4,0-0.7,0-1.1-0.1c-0.4-0.1-0.7-0.2-1.1-0.3
				c-0.3-0.1-0.7-0.2-1-0.4s-0.6-0.2-0.8-0.3l-1.6,4.6c0.7,0.3,1.4,0.6,2.3,0.9s1.7,0.4,2.5,0.5l-0.6,2l4.1-0.2v-2.2
				c0.8-0.2,1.5-0.5,2.2-0.8c0.7-0.4,1.2-0.8,1.7-1.3c0.5-0.5,0.8-1.1,1.1-1.8c0.2-0.7,0.4-1.4,0.3-2.2c0-0.7-0.2-1.3-0.4-1.9
				C281.6,240.5,281.3,240.1,280.9,239.7z"/>
		</g>
		<path class="ears-st3" d="M271.1,236c1.7,0.5,4-1.7,3.7-3.4C274.5,231,269.4,235.5,271.1,236z"/>
	</g>
</g>
<g>
	<g>
		<path d="M278.4,211.7c-3-0.8-5.6,0.6-6.9,3.8c-2.1,4.9-1.2,15.2,2.4,17.5c0.6,0.4,1.2,0.6,1.9,0.6c0.7,0,1.4-0.2,2-0.6
			c3.4-2.2,5.1-11.8,4.3-16.4C281.5,213.2,279.7,212.1,278.4,211.7z M275.9,227.1c-0.7-2.8-1-7.7,0.3-10c0.3-0.5,0.4-0.6,0.6-0.6
			c0,0,0,0,0,0C277.7,218.1,277,224,275.9,227.1z"/>
		<path class="ears-st5" d="M277.8,214.1c-6.7-1.7-5.7,14.8-2.5,16.8C278.4,233,282.1,215.3,277.8,214.1z"/>
		<path class="ears-st3" d="M277.6,216.4c-4.6-1.1-4.2,10.7-2.1,12.1C277.8,229.9,280.7,217.1,277.6,216.4z"/>
	</g>
	<g>
		<g>
			<path d="M284.1,239.9c-0.4-0.8-0.9-1.4-1.4-2c0,0,0,0,0,0c0.1-0.1,0.1-0.3,0.1-0.4l1.3-5c0.3-1.2-0.3-2.4-1.5-2.9
				c-0.5-0.2-1-0.4-1.6-0.5c0-0.5-0.2-1.1-0.5-1.5c-0.5-0.6-1.2-1-2-0.9l-4.1,0.2c-1.3,0-2.4,1.2-2.4,2.5v0.4
				c-0.3,0.1-0.5,0.3-0.8,0.4c-0.9,0.5-1.6,1.1-2.3,1.9c-0.6,0.7-1.1,1.6-1.5,2.6c-0.4,1-0.5,2.1-0.5,3.2c0,0.9,0.2,1.8,0.6,2.6
				c0.3,0.6,0.6,1.1,1,1.6c-0.2,0.2-0.4,0.5-0.5,0.8l-1.6,4.6c-0.4,1.2,0.1,2.5,1.3,3.1c0.8,0.4,1.7,0.7,2.6,1c0.1,0,0.1,0,0.2,0.1
				c0,0.6,0.2,1.2,0.5,1.6c0.5,0.6,1.2,1,2,1c0,0,0.1,0,0.1,0l4.1-0.2c1.3,0,2.4-1.2,2.4-2.5v-0.4c0.3-0.1,0.6-0.3,0.9-0.4
				c0.9-0.5,1.7-1.1,2.4-1.8c0.7-0.8,1.2-1.6,1.6-2.6c0.4-1,0.5-2,0.5-3.2c0,0,0,0,0,0C284.7,241.7,284.5,240.8,284.1,239.9z
				 M272.3,238.5c-0.1-0.1-0.3-0.3-0.4-0.5c-0.1-0.1-0.1-0.3-0.1-0.6c0-0.1,0-0.3,0-0.4c0.1,0.8,0.4,1.5,1.1,2
				C272.7,238.9,272.5,238.7,272.3,238.5z M276.3,232.9c0.2,0.2,0.4,0.3,0.6,0.4c-0.3,0-0.7,0-1.1,0
				C276,233.2,276.1,233.1,276.3,232.9z M275.5,234.8C275.5,234.8,275.5,234.8,275.5,234.8C275.5,234.8,275.5,234.8,275.5,234.8z
				 M279.6,244.3c-0.1,0.4-0.3,0.7-0.6,0.9c-0.3,0.3-0.6,0.6-1,0.8c-0.5,0.3-1,0.5-1.6,0.6c-0.5,0.1-1,0.4-1.3,0.8
				c-0.2-0.2-0.5-0.4-0.8-0.5c0,0,0.1,0,0.1,0c0.8,0,1.6-0.2,2.2-0.5c1.3-0.6,2.1-1.8,2-3.2c-0.1-1.1-0.7-2-1.6-2.6
				c-0.3-0.2-0.7-0.4-1.2-0.6c-0.1,0-0.2-0.1-0.2-0.1c-0.2-0.1-0.5-0.1-0.8-0.2c-0.1,0-0.3-0.1-0.5-0.2c0.3,0.1,0.5,0.1,0.8,0.2
				l0.3,0c0.4,0.1,0.8,0.2,1.3,0.3c0.2,0.1,0.5,0.1,0.7,0.2c0.4,0.2,0.7,0.3,1.1,0.6c0.3,0.1,0.5,0.3,0.7,0.5
				c0.2,0.2,0.4,0.4,0.5,0.7c0.1,0.2,0.2,0.5,0.2,0.9C279.8,243.5,279.7,244,279.6,244.3z M274.5,241.9
				C274.5,241.9,274.5,241.9,274.5,241.9S274.5,241.9,274.5,241.9z"/>
		</g>
		<g>
			<path class="ears-st5" d="M280.9,239.7c-0.4-0.4-0.8-0.7-1.3-1c-0.5-0.3-0.9-0.5-1.4-0.7c-0.4-0.2-0.8-0.3-1.2-0.4
				c-0.5-0.1-0.9-0.2-1.3-0.3c-0.1,0-0.2,0-0.4-0.1c-0.2,0-0.3-0.1-0.5-0.1c-0.2,0-0.3-0.1-0.4-0.2c-0.1-0.1-0.2-0.2-0.2-0.3
				c0-0.3,0.1-0.5,0.3-0.6c0.2-0.1,0.5-0.2,0.8-0.3c0.3-0.1,0.6-0.1,0.9-0.1s0.5,0,0.7,0c0.6,0.1,1.2,0.2,1.7,0.4
				c0.5,0.2,1,0.4,1.6,0.6l1.3-5c-0.5-0.2-1.1-0.4-1.8-0.5c-0.6-0.1-1.3-0.2-1.9-0.3l0.5-2l-4.1,0.2v2.1c-0.7,0.2-1.4,0.5-2,0.8
				c-0.6,0.4-1.2,0.8-1.6,1.3c-0.4,0.5-0.8,1.1-1,1.8c-0.3,0.7-0.4,1.4-0.3,2.3c0,0.6,0.1,1.1,0.3,1.6c0.2,0.5,0.5,0.9,0.8,1.2
				c0.3,0.3,0.7,0.6,1.1,0.9c0.4,0.2,0.8,0.5,1.2,0.6c0.4,0.2,0.8,0.3,1.1,0.4c0.3,0.1,0.6,0.2,0.8,0.2c0.3,0.1,0.6,0.3,0.9,0.4
				c0.2,0.1,0.4,0.3,0.4,0.6c0,0.4-0.2,0.6-0.5,0.8c-0.4,0.2-0.8,0.3-1.4,0.3c-0.4,0-0.7,0-1.1-0.1c-0.4-0.1-0.7-0.2-1.1-0.3
				c-0.3-0.1-0.7-0.2-1-0.4s-0.6-0.2-0.8-0.3l-1.6,4.6c0.7,0.3,1.4,0.6,2.3,0.9s1.7,0.4,2.5,0.5l-0.6,2l4.1-0.2v-2.2
				c0.8-0.2,1.5-0.5,2.2-0.8c0.7-0.4,1.2-0.8,1.7-1.3c0.5-0.5,0.8-1.1,1.1-1.8c0.2-0.7,0.4-1.4,0.3-2.2c0-0.7-0.2-1.3-0.4-1.9
				C281.6,240.5,281.3,240.1,280.9,239.7z"/>
		</g>
		<path class="ears-st3" d="M271.1,236c1.7,0.5,4-1.7,3.7-3.4C274.5,231,269.4,235.5,271.1,236z"/>
	</g>
</g>
<g>
	<g>
		<path d="M278.4,211.7c-3-0.8-5.6,0.6-6.9,3.8c-2.1,4.9-1.2,15.2,2.4,17.5c0.6,0.4,1.2,0.6,1.9,0.6c0.7,0,1.4-0.2,2-0.6
			c3.4-2.2,5.1-11.8,4.3-16.4C281.5,213.2,279.7,212.1,278.4,211.7z M275.9,227.1c-0.7-2.8-1-7.7,0.3-10c0.3-0.5,0.4-0.6,0.6-0.6
			c0,0,0,0,0,0C277.7,218.1,277,224,275.9,227.1z"/>
		<path class="ears-st6" d="M277.8,214.1c-6.7-1.7-5.7,14.8-2.5,16.8C278.4,233,282.1,215.3,277.8,214.1z"/>
		<path class="ears-st3" d="M277.6,216.4c-4.6-1.1-4.2,10.7-2.1,12.1C277.8,229.9,280.7,217.1,277.6,216.4z"/>
	</g>
	<g>
		<g>
			<path d="M284.1,239.9c-0.4-0.8-0.9-1.4-1.4-2c0,0,0,0,0,0c0.1-0.1,0.1-0.3,0.1-0.4l1.3-5c0.3-1.2-0.3-2.4-1.5-2.9
				c-0.5-0.2-1-0.4-1.6-0.5c0-0.5-0.2-1.1-0.5-1.5c-0.5-0.6-1.2-1-2-0.9l-4.1,0.2c-1.3,0-2.4,1.2-2.4,2.5v0.4
				c-0.3,0.1-0.5,0.3-0.8,0.4c-0.9,0.5-1.6,1.1-2.3,1.9c-0.6,0.7-1.1,1.6-1.5,2.6c-0.4,1-0.5,2.1-0.5,3.2c0,0.9,0.2,1.8,0.6,2.6
				c0.3,0.6,0.6,1.1,1,1.6c-0.2,0.2-0.4,0.5-0.5,0.8l-1.6,4.6c-0.4,1.2,0.1,2.5,1.3,3.1c0.8,0.4,1.7,0.7,2.6,1c0.1,0,0.1,0,0.2,0.1
				c0,0.6,0.2,1.2,0.5,1.6c0.5,0.6,1.2,1,2,1c0,0,0.1,0,0.1,0l4.1-0.2c1.3,0,2.4-1.2,2.4-2.5v-0.4c0.3-0.1,0.6-0.3,0.9-0.4
				c0.9-0.5,1.7-1.1,2.4-1.8c0.7-0.8,1.2-1.6,1.6-2.6c0.4-1,0.5-2,0.5-3.2c0,0,0,0,0,0C284.7,241.7,284.5,240.8,284.1,239.9z
				 M272.3,238.5c-0.1-0.1-0.3-0.3-0.4-0.5c-0.1-0.1-0.1-0.3-0.1-0.6c0-0.1,0-0.3,0-0.4c0.1,0.8,0.4,1.5,1.1,2
				C272.7,238.9,272.5,238.7,272.3,238.5z M276.3,232.9c0.2,0.2,0.4,0.3,0.6,0.4c-0.3,0-0.7,0-1.1,0
				C276,233.2,276.1,233.1,276.3,232.9z M275.5,234.8C275.5,234.8,275.5,234.8,275.5,234.8C275.5,234.8,275.5,234.8,275.5,234.8z
				 M279.6,244.3c-0.1,0.4-0.3,0.7-0.6,0.9c-0.3,0.3-0.6,0.6-1,0.8c-0.5,0.3-1,0.5-1.6,0.6c-0.5,0.1-1,0.4-1.3,0.8
				c-0.2-0.2-0.5-0.4-0.8-0.5c0,0,0.1,0,0.1,0c0.8,0,1.6-0.2,2.2-0.5c1.3-0.6,2.1-1.8,2-3.2c-0.1-1.1-0.7-2-1.6-2.6
				c-0.3-0.2-0.7-0.4-1.2-0.6c-0.1,0-0.2-0.1-0.2-0.1c-0.2-0.1-0.5-0.1-0.8-0.2c-0.1,0-0.3-0.1-0.5-0.2c0.3,0.1,0.5,0.1,0.8,0.2
				l0.3,0c0.4,0.1,0.8,0.2,1.3,0.3c0.2,0.1,0.5,0.1,0.7,0.2c0.4,0.2,0.7,0.3,1.1,0.6c0.3,0.1,0.5,0.3,0.7,0.5
				c0.2,0.2,0.4,0.4,0.5,0.7c0.1,0.2,0.2,0.5,0.2,0.9C279.8,243.5,279.7,244,279.6,244.3z M274.5,241.9
				C274.5,241.9,274.5,241.9,274.5,241.9S274.5,241.9,274.5,241.9z"/>
		</g>
		<g>
			<path class="ears-st6" d="M280.9,239.7c-0.4-0.4-0.8-0.7-1.3-1c-0.5-0.3-0.9-0.5-1.4-0.7c-0.4-0.2-0.8-0.3-1.2-0.4
				c-0.5-0.1-0.9-0.2-1.3-0.3c-0.1,0-0.2,0-0.4-0.1c-0.2,0-0.3-0.1-0.5-0.1c-0.2,0-0.3-0.1-0.4-0.2c-0.1-0.1-0.2-0.2-0.2-0.3
				c0-0.3,0.1-0.5,0.3-0.6c0.2-0.1,0.5-0.2,0.8-0.3c0.3-0.1,0.6-0.1,0.9-0.1s0.5,0,0.7,0c0.6,0.1,1.2,0.2,1.7,0.4
				c0.5,0.2,1,0.4,1.6,0.6l1.3-5c-0.5-0.2-1.1-0.4-1.8-0.5c-0.6-0.1-1.3-0.2-1.9-0.3l0.5-2l-4.1,0.2v2.1c-0.7,0.2-1.4,0.5-2,0.8
				c-0.6,0.4-1.2,0.8-1.6,1.3c-0.4,0.5-0.8,1.1-1,1.8c-0.3,0.7-0.4,1.4-0.3,2.3c0,0.6,0.1,1.1,0.3,1.6c0.2,0.5,0.5,0.9,0.8,1.2
				c0.3,0.3,0.7,0.6,1.1,0.9c0.4,0.2,0.8,0.5,1.2,0.6c0.4,0.2,0.8,0.3,1.1,0.4c0.3,0.1,0.6,0.2,0.8,0.2c0.3,0.1,0.6,0.3,0.9,0.4
				c0.2,0.1,0.4,0.3,0.4,0.6c0,0.4-0.2,0.6-0.5,0.8c-0.4,0.2-0.8,0.3-1.4,0.3c-0.4,0-0.7,0-1.1-0.1c-0.4-0.1-0.7-0.2-1.1-0.3
				c-0.3-0.1-0.7-0.2-1-0.4s-0.6-0.2-0.8-0.3l-1.6,4.6c0.7,0.3,1.4,0.6,2.3,0.9s1.7,0.4,2.5,0.5l-0.6,2l4.1-0.2v-2.2
				c0.8-0.2,1.5-0.5,2.2-0.8c0.7-0.4,1.2-0.8,1.7-1.3c0.5-0.5,0.8-1.1,1.1-1.8c0.2-0.7,0.4-1.4,0.3-2.2c0-0.7-0.2-1.3-0.4-1.9
				C281.6,240.5,281.3,240.1,280.9,239.7z"/>
		</g>
		<path class="ears-st3" d="M271.1,236c1.7,0.5,4-1.7,3.7-3.4C274.5,231,269.4,235.5,271.1,236z"/>
	</g>
</g>
<g>
	<g>
		<path d="M278.4,211.7c-3-0.8-5.6,0.6-6.9,3.8c-2.1,4.9-1.2,15.2,2.4,17.5c0.6,0.4,1.2,0.6,1.9,0.6c0.7,0,1.4-0.2,2-0.6
			c3.4-2.2,5.1-11.8,4.3-16.4C281.5,213.2,279.7,212.1,278.4,211.7z M275.9,227.1c-0.7-2.8-1-7.7,0.3-10c0.3-0.5,0.4-0.6,0.6-0.6
			c0,0,0,0,0,0C277.7,218.1,277,224,275.9,227.1z"/>
		<path class="ears-st7" d="M277.8,214.1c-6.7-1.7-5.7,14.8-2.5,16.8C278.4,233,282.1,215.3,277.8,214.1z"/>
		<path class="ears-st3" d="M277.6,216.4c-4.6-1.1-4.2,10.7-2.1,12.1C277.8,229.9,280.7,217.1,277.6,216.4z"/>
	</g>
	<g>
		<g>
			<path d="M284.1,239.9c-0.4-0.8-0.9-1.4-1.4-2c0,0,0,0,0,0c0.1-0.1,0.1-0.3,0.1-0.4l1.3-5c0.3-1.2-0.3-2.4-1.5-2.9
				c-0.5-0.2-1-0.4-1.6-0.5c0-0.5-0.2-1.1-0.5-1.5c-0.5-0.6-1.2-1-2-0.9l-4.1,0.2c-1.3,0-2.4,1.2-2.4,2.5v0.4
				c-0.3,0.1-0.5,0.3-0.8,0.4c-0.9,0.5-1.6,1.1-2.3,1.9c-0.6,0.7-1.1,1.6-1.5,2.6c-0.4,1-0.5,2.1-0.5,3.2c0,0.9,0.2,1.8,0.6,2.6
				c0.3,0.6,0.6,1.1,1,1.6c-0.2,0.2-0.4,0.5-0.5,0.8l-1.6,4.6c-0.4,1.2,0.1,2.5,1.3,3.1c0.8,0.4,1.7,0.7,2.6,1c0.1,0,0.1,0,0.2,0.1
				c0,0.6,0.2,1.2,0.5,1.6c0.5,0.6,1.2,1,2,1c0,0,0.1,0,0.1,0l4.1-0.2c1.3,0,2.4-1.2,2.4-2.5v-0.4c0.3-0.1,0.6-0.3,0.9-0.4
				c0.9-0.5,1.7-1.1,2.4-1.8c0.7-0.8,1.2-1.6,1.6-2.6c0.4-1,0.5-2,0.5-3.2c0,0,0,0,0,0C284.7,241.7,284.5,240.8,284.1,239.9z
				 M272.3,238.5c-0.1-0.1-0.3-0.3-0.4-0.5c-0.1-0.1-0.1-0.3-0.1-0.6c0-0.1,0-0.3,0-0.4c0.1,0.8,0.4,1.5,1.1,2
				C272.7,238.9,272.5,238.7,272.3,238.5z M276.3,232.9c0.2,0.2,0.4,0.3,0.6,0.4c-0.3,0-0.7,0-1.1,0
				C276,233.2,276.1,233.1,276.3,232.9z M275.5,234.8C275.5,234.8,275.5,234.8,275.5,234.8C275.5,234.8,275.5,234.8,275.5,234.8z
				 M279.6,244.3c-0.1,0.4-0.3,0.7-0.6,0.9c-0.3,0.3-0.6,0.6-1,0.8c-0.5,0.3-1,0.5-1.6,0.6c-0.5,0.1-1,0.4-1.3,0.8
				c-0.2-0.2-0.5-0.4-0.8-0.5c0,0,0.1,0,0.1,0c0.8,0,1.6-0.2,2.2-0.5c1.3-0.6,2.1-1.8,2-3.2c-0.1-1.1-0.7-2-1.6-2.6
				c-0.3-0.2-0.7-0.4-1.2-0.6c-0.1,0-0.2-0.1-0.2-0.1c-0.2-0.1-0.5-0.1-0.8-0.2c-0.1,0-0.3-0.1-0.5-0.2c0.3,0.1,0.5,0.1,0.8,0.2
				l0.3,0c0.4,0.1,0.8,0.2,1.3,0.3c0.2,0.1,0.5,0.1,0.7,0.2c0.4,0.2,0.7,0.3,1.1,0.6c0.3,0.1,0.5,0.3,0.7,0.5
				c0.2,0.2,0.4,0.4,0.5,0.7c0.1,0.2,0.2,0.5,0.2,0.9C279.8,243.5,279.7,244,279.6,244.3z M274.5,241.9
				C274.5,241.9,274.5,241.9,274.5,241.9S274.5,241.9,274.5,241.9z"/>
		</g>
		<g>
			<path class="ears-st7" d="M280.9,239.7c-0.4-0.4-0.8-0.7-1.3-1c-0.5-0.3-0.9-0.5-1.4-0.7c-0.4-0.2-0.8-0.3-1.2-0.4
				c-0.5-0.1-0.9-0.2-1.3-0.3c-0.1,0-0.2,0-0.4-0.1c-0.2,0-0.3-0.1-0.5-0.1c-0.2,0-0.3-0.1-0.4-0.2c-0.1-0.1-0.2-0.2-0.2-0.3
				c0-0.3,0.1-0.5,0.3-0.6c0.2-0.1,0.5-0.2,0.8-0.3c0.3-0.1,0.6-0.1,0.9-0.1s0.5,0,0.7,0c0.6,0.1,1.2,0.2,1.7,0.4
				c0.5,0.2,1,0.4,1.6,0.6l1.3-5c-0.5-0.2-1.1-0.4-1.8-0.5c-0.6-0.1-1.3-0.2-1.9-0.3l0.5-2l-4.1,0.2v2.1c-0.7,0.2-1.4,0.5-2,0.8
				c-0.6,0.4-1.2,0.8-1.6,1.3c-0.4,0.5-0.8,1.1-1,1.8c-0.3,0.7-0.4,1.4-0.3,2.3c0,0.6,0.1,1.1,0.3,1.6c0.2,0.5,0.5,0.9,0.8,1.2
				c0.3,0.3,0.7,0.6,1.1,0.9c0.4,0.2,0.8,0.5,1.2,0.6c0.4,0.2,0.8,0.3,1.1,0.4c0.3,0.1,0.6,0.2,0.8,0.2c0.3,0.1,0.6,0.3,0.9,0.4
				c0.2,0.1,0.4,0.3,0.4,0.6c0,0.4-0.2,0.6-0.5,0.8c-0.4,0.2-0.8,0.3-1.4,0.3c-0.4,0-0.7,0-1.1-0.1c-0.4-0.1-0.7-0.2-1.1-0.3
				c-0.3-0.1-0.7-0.2-1-0.4s-0.6-0.2-0.8-0.3l-1.6,4.6c0.7,0.3,1.4,0.6,2.3,0.9s1.7,0.4,2.5,0.5l-0.6,2l4.1-0.2v-2.2
				c0.8-0.2,1.5-0.5,2.2-0.8c0.7-0.4,1.2-0.8,1.7-1.3c0.5-0.5,0.8-1.1,1.1-1.8c0.2-0.7,0.4-1.4,0.3-2.2c0-0.7-0.2-1.3-0.4-1.9
				C281.6,240.5,281.3,240.1,280.9,239.7z"/>
		</g>
		<path class="ears-st3" d="M271.1,236c1.7,0.5,4-1.7,3.7-3.4C274.5,231,269.4,235.5,271.1,236z"/>
	</g>
</g>
<g>
	<g>
		<path d="M278.4,211.7L278.4,211.7c-3-0.8-5.6,0.6-6.9,3.8c-2.1,4.9-1.2,15.2,2.4,17.5c0.6,0.4,1.2,0.6,1.9,0.6
			c0.7,0,1.4-0.2,2-0.6c3.4-2.2,5.1-11.8,4.3-16.4C281.5,213.2,279.7,212.1,278.4,211.7z M275.9,227.1c-0.7-2.8-1-7.7,0.3-10
			c0.3-0.5,0.4-0.6,0.6-0.6c0,0,0,0,0,0C277.7,218.1,277,224,275.9,227.1z"/>
		<path class="ears-st8" d="M277.8,214.1c-6.7-1.7-5.7,14.8-2.5,16.8C278.4,233,282.1,215.3,277.8,214.1z"/>
		<path class="ears-st3" d="M277.6,216.4c-4.6-1.1-4.2,10.7-2.1,12.1C277.8,229.9,280.7,217.1,277.6,216.4z"/>
	</g>
	<g>
		<g>
			<path d="M282.6,237.9C282.6,237.9,282.6,237.9,282.6,237.9c0-0.2,0.1-0.3,0.1-0.5l1.3-5c0.3-1.2-0.3-2.4-1.5-2.9
				c-0.5-0.2-1-0.4-1.6-0.5c0-0.5-0.2-1.1-0.5-1.5c-0.5-0.6-1.2-1-2-0.9l-4.1,0.2c-1.3,0-2.4,1.2-2.4,2.5v0.4
				c-0.3,0.1-0.5,0.3-0.8,0.4c-0.9,0.5-1.6,1.1-2.3,1.9c-0.6,0.7-1.1,1.6-1.5,2.6c-0.4,1-0.5,2.1-0.5,3.2c0,0.9,0.2,1.8,0.6,2.6
				c0.3,0.6,0.6,1.1,1,1.6c-0.2,0.2-0.4,0.5-0.5,0.8l-1.6,4.6c-0.4,1.2,0.1,2.5,1.3,3.1c0.8,0.4,1.7,0.7,2.6,1c0.1,0,0.1,0,0.2,0.1
				c0,0.6,0.2,1.2,0.5,1.6c0.5,0.6,1.2,1,2,1c0,0,0.1,0,0.1,0l4.1-0.2c1.3,0,2.4-1.2,2.4-2.5v-0.4c0.3-0.1,0.6-0.3,0.9-0.4
				c0.9-0.5,1.7-1.1,2.4-1.8c0.7-0.8,1.2-1.6,1.6-2.6c0.4-1,0.5-2,0.5-3.2c0-1.1-0.3-2-0.7-2.9C283.7,239.2,283.2,238.5,282.6,237.9
				z M272.3,238.5c-0.1-0.1-0.3-0.3-0.4-0.5c-0.1-0.1-0.1-0.3-0.1-0.6c0-0.1,0-0.3,0-0.4c0.1,0.8,0.4,1.5,1.1,2
				C272.7,238.9,272.5,238.7,272.3,238.5z M276.3,232.9c0.2,0.2,0.4,0.3,0.6,0.4c-0.3,0-0.7,0-1.1,0
				C276,233.2,276.1,233.1,276.3,232.9z M275.5,234.8C275.5,234.8,275.5,234.8,275.5,234.8C275.5,234.8,275.5,234.8,275.5,234.8z
				 M279.6,244.3c-0.1,0.4-0.3,0.7-0.6,0.9c-0.3,0.3-0.6,0.6-1,0.8c-0.5,0.3-1,0.5-1.6,0.6c-0.5,0.1-1,0.4-1.3,0.8
				c-0.2-0.2-0.5-0.4-0.8-0.5c0,0,0.1,0,0.1,0c0.8,0,1.6-0.2,2.2-0.5c1.3-0.6,2.1-1.8,2-3.2c-0.1-1.1-0.7-2-1.6-2.6
				c-0.3-0.2-0.7-0.4-1.2-0.6c-0.1,0-0.2-0.1-0.2-0.1c-0.2-0.1-0.5-0.1-0.8-0.2c-0.1,0-0.3-0.1-0.5-0.2c0.3,0.1,0.5,0.1,0.8,0.2
				l0.3,0c0.4,0.1,0.8,0.2,1.3,0.3c0.2,0.1,0.5,0.1,0.7,0.2c0.4,0.2,0.7,0.3,1.1,0.6c0.3,0.1,0.5,0.3,0.7,0.5
				c0.2,0.2,0.4,0.4,0.5,0.7c0.1,0.2,0.2,0.5,0.2,0.8C279.8,243.5,279.7,243.9,279.6,244.3z"/>
		</g>
		<g>
			<path class="ears-st8" d="M280.9,239.7c-0.4-0.4-0.8-0.7-1.3-1c-0.5-0.3-0.9-0.5-1.4-0.7c-0.4-0.2-0.8-0.3-1.2-0.4
				c-0.5-0.1-0.9-0.2-1.3-0.3c-0.1,0-0.2,0-0.4-0.1c-0.2,0-0.3-0.1-0.5-0.1c-0.2,0-0.3-0.1-0.4-0.2c-0.1-0.1-0.2-0.2-0.2-0.3
				c0-0.3,0.1-0.5,0.3-0.6c0.2-0.1,0.5-0.2,0.8-0.3c0.3-0.1,0.6-0.1,0.9-0.1s0.5,0,0.7,0c0.6,0.1,1.2,0.2,1.7,0.4
				c0.5,0.2,1,0.4,1.6,0.6l1.3-5c-0.5-0.2-1.1-0.4-1.8-0.5c-0.6-0.1-1.3-0.2-1.9-0.3l0.5-2l-4.1,0.2v2.1c-0.7,0.2-1.4,0.5-2,0.8
				c-0.6,0.4-1.2,0.8-1.6,1.3c-0.4,0.5-0.8,1.1-1,1.8c-0.3,0.7-0.4,1.4-0.3,2.3c0,0.6,0.1,1.1,0.3,1.6c0.2,0.5,0.5,0.9,0.8,1.2
				c0.3,0.3,0.7,0.6,1.1,0.9c0.4,0.2,0.8,0.5,1.2,0.6c0.4,0.2,0.8,0.3,1.1,0.4c0.3,0.1,0.6,0.2,0.8,0.2c0.3,0.1,0.6,0.3,0.9,0.4
				c0.2,0.1,0.4,0.3,0.4,0.6c0,0.4-0.2,0.6-0.5,0.8c-0.4,0.2-0.8,0.3-1.4,0.3c-0.4,0-0.7,0-1.1-0.1c-0.4-0.1-0.7-0.2-1.1-0.3
				c-0.3-0.1-0.7-0.2-1-0.4s-0.6-0.2-0.8-0.3l-1.6,4.6c0.7,0.3,1.4,0.6,2.3,0.9s1.7,0.4,2.5,0.5l-0.6,2l4.1-0.2v-2.2
				c0.8-0.2,1.5-0.5,2.2-0.8c0.7-0.4,1.2-0.8,1.7-1.3c0.5-0.5,0.8-1.1,1.1-1.8c0.2-0.7,0.4-1.4,0.3-2.2c0-0.7-0.2-1.3-0.4-1.9
				C281.6,240.5,281.3,240.1,280.9,239.7z"/>
		</g>
		<path class="ears-st3" d="M271.1,236c1.7,0.5,4-1.7,3.7-3.4C274.5,231,269.4,235.5,271.1,236z"/>
	</g>
</g>
</svg>
