<?xml version="1.0" encoding="utf-8"?>
<!-- Generator: Adobe Illustrator 26.0.3, SVG Export Plug-In . SVG Version: 6.00 Build 0)  -->
<svg version="1.1" id="Layer_1" xmlns="http://www.w3.org/2000/svg" xmlns:xlink="http://www.w3.org/1999/xlink" x="0px" y="0px"
	 viewBox="0 0 384 400" style="enable-background:new 0 0 384 400;" xml:space="preserve">
<style type="text/css">
	.ears-st0{fill:#FAEBCF;}
	.ears-st1{opacity:0.16;}
	.ears-st2{fill:#BA3B99;}
	.ears-st3{opacity:0.5;fill:#FFFFFF;}
	.ears-st4{fill:#6E44D8;}
	.ears-st5{fill:#44BDD8;}
	.ears-st6{fill:#D84E1C;}
	.ears-st7{fill:#D8A10B;}
	.ears-st8{fill:#008F6C;}
</style>
<g>
	<path d="M283.5,202.1c-1-1.2-2.3-2.3-3.7-2.9c-2.9-1.3-5.8-1.2-8.4-0.6c-2.6,0.6-5.1,1.6-7.2,3c2.5-0.4,5.1-0.7,7.5-0.6
		c2.4,0.1,4.7,0.6,6.4,1.7c1.7,1.1,2.6,2.8,3.1,4.8c0.3,1,0.4,2.1,0.4,3.2c0,1.1,0,2.2-0.3,3.2c-0.4,2.1-1.2,4.2-2.5,5.9
		c-1.2,1.8-2.8,3.3-4.7,4.3c-1.9,1-4.1,1.4-6.4,1.2c-2.3-0.2-4.6-1.2-6.9-2.3c1.6,2,3.7,3.8,6.4,4.7c1.3,0.5,2.7,0.8,4.2,0.8
		c1.4,0,2.9-0.2,4.3-0.7c2.8-0.9,5.3-2.8,7.1-5c0.9-1.1,1.7-2.4,2.3-3.7c0.6-1.3,1-2.7,1.3-4.2c0.5-2.9,0.4-5.8-0.5-8.6
		C285.1,204.8,284.5,203.4,283.5,202.1z"/>
	<path class="ears-st0" d="M264.1,201.6c0,0-16.1,10.7-3.5,21.3c12.6,10.6,25.9-2.4,22.9-15.4C280.5,194.6,264.1,201.6,264.1,201.6z"/>
	<path class="ears-st1" d="M261.5,206.1c0,0-9.7,5.5-1.8,11.4c8,5.9,16-0.8,13.9-7.9S261.5,206.1,261.5,206.1z"/>
</g>
<g>
	<g>
		<path d="M276.6,213.2L276.6,213.2c-3-0.8-5.6,0.6-6.9,3.8c-2.1,4.9-1.2,15.2,2.4,17.5c0.6,0.4,1.2,0.6,1.9,0.6
			c0.7,0,1.4-0.2,2-0.6c3.4-2.2,5.1-11.8,4.3-16.4C279.7,214.6,278,213.5,276.6,213.2z M275.4,218C275.4,218,275.4,218,275.4,218
			C275.4,218,275.4,218,275.4,218z M274.1,228.5c-0.7-2.8-1-7.7,0.3-10c0.3-0.5,0.4-0.6,0.6-0.6c0,0,0,0,0,0
			C276,219.5,275.3,225.4,274.1,228.5z"/>
		<path class="ears-st2" d="M276,215.6c-6.7-1.7-5.7,14.8-2.5,16.8C276.6,234.4,280.3,216.7,276,215.6z"/>
		<path class="ears-st3" d="M275.9,217.8c-4.6-1.1-4.2,10.7-2.1,12.1C276,231.3,278.9,218.5,275.9,217.8z"/>
	</g>
	<g>
		<path d="M283.9,234.3c-1.6-1.7-3.8-2.7-6.9-3.1c-1-0.1-2-0.6-3-1.2c-0.3-0.2-0.6-0.3-0.9-0.5c-0.8-0.4-1.8-0.3-2.5,0.2
			c-0.8,0.5-1.2,1.4-1.1,2.3c0.1,0.7,0.2,1.4,0.2,2.1c0.2,2,0.5,4,0.7,6c0,0-0.1,0-0.1,0c-4.6,0-8.4,3.6-8.4,8c0,4.4,3.8,8,8.4,8
			c3.6,0,6.8-2.2,8-5.5c0.4-0.8,0.6-1.6,0.7-2.4c0.2-1.5,0.2-2.9,0.1-4.3c0.2,0.1,0.5,0.2,0.8,0.3c0.9,0.2,1.8-0.1,2.4-0.8
			c1.2-1.3,1.9-2.8,2.6-4.1c0.9-1.5,0.6-3.2-0.8-5C284,234.4,284,234.3,283.9,234.3z M274.1,247.7c0,0.2-0.1,0.4-0.2,0.6
			c-0.1,0.2-0.2,0.3-0.2,0.5c-0.4,1.3-1.8,2.2-3.3,2.2c-1.9,0-3.4-1.4-3.4-3s1.5-3,3.4-3c0.6,0,1.3,0.2,1.8,0.5
			c0.6,0.4,1.4,0.4,2.1,0.2C274.2,246.3,274.1,247,274.1,247.7z M275,236.2c0-0.1,0-0.3,0-0.4c0.2,0.1,0.4,0.1,0.6,0.1
			C275.3,236,275.1,236.1,275,236.2z"/>
		<path class="ears-st2" d="M276.7,233.6c-1.8-0.2-3.3-1.2-4.8-1.9c0.1,0.7,0.1,1.4,0.2,2c0.4,3.2,0.7,6.4,1.1,9.6
			c-0.9-0.5-1.9-0.8-3-0.8c-3.3,0-5.9,2.5-5.9,5.5c0,3.1,2.7,5.5,5.9,5.5c2.7,0,5-1.7,5.7-4c0.3-0.5,0.5-1,0.5-1.6
			c0.3-3.2,0-6.5-0.2-9.7c2.1-0.2,3.5,1.7,4.1,3.5c0.9-1.1,1.6-2.3,2.2-3.6c0.5-0.8-0.1-1.6-0.6-2.2
			C280.7,234.5,278.7,233.9,276.7,233.6z"/>
		<path class="ears-st3" d="M268.1,244.1c-1.4,0.6-2,2.1-1.5,3.3c0.5,1.2,2.1,1.6,3.4,0.9c1.4-0.6,2-2.1,1.5-3.3
			C271,243.9,269.5,243.5,268.1,244.1z"/>
	</g>
</g>
<g>
	<g>
		<path d="M276.6,213.2L276.6,213.2c-3-0.8-5.6,0.6-6.9,3.8c-2.1,4.9-1.2,15.2,2.4,17.5c0.6,0.4,1.2,0.6,1.9,0.6
			c0.7,0,1.4-0.2,2-0.6c3.4-2.2,5.1-11.8,4.3-16.4C279.7,214.6,278,213.5,276.6,213.2z M275.4,218C275.4,218,275.4,218,275.4,218
			C275.4,218,275.4,218,275.4,218z M274.1,228.5c-0.7-2.8-1-7.7,0.3-10c0.3-0.5,0.4-0.6,0.6-0.6c0,0,0,0,0,0
			C276,219.5,275.3,225.4,274.1,228.5z"/>
		<path class="ears-st4" d="M276,215.6c-6.7-1.7-5.7,14.8-2.5,16.8C276.6,234.4,280.3,216.7,276,215.6z"/>
		<path class="ears-st3" d="M275.9,217.8c-4.6-1.1-4.2,10.7-2.1,12.1C276,231.3,278.9,218.5,275.9,217.8z"/>
	</g>
	<g>
		<path d="M283.9,234.3c-1.6-1.7-3.8-2.7-6.9-3.1c-1-0.1-2-0.6-3-1.2c-0.3-0.2-0.6-0.3-0.9-0.5c-0.8-0.4-1.8-0.3-2.5,0.2
			c-0.8,0.5-1.2,1.4-1.1,2.3c0.1,0.7,0.2,1.4,0.2,2.1c0.2,2,0.5,4,0.7,6c0,0-0.1,0-0.1,0c-4.6,0-8.4,3.6-8.4,8c0,4.4,3.8,8,8.4,8
			c3.6,0,6.8-2.2,8-5.5c0.4-0.8,0.6-1.6,0.7-2.4c0.2-1.5,0.2-2.9,0.1-4.3c0.2,0.1,0.5,0.2,0.8,0.3c0.9,0.2,1.8-0.1,2.4-0.8
			c1.2-1.3,1.9-2.8,2.6-4.1c0.9-1.5,0.6-3.2-0.8-5C284,234.4,284,234.3,283.9,234.3z M274.1,247.7c0,0.2-0.1,0.4-0.2,0.6
			c-0.1,0.2-0.2,0.3-0.2,0.5c-0.4,1.3-1.8,2.2-3.3,2.2c-1.9,0-3.4-1.4-3.4-3s1.5-3,3.4-3c0.6,0,1.3,0.2,1.8,0.5
			c0.6,0.4,1.4,0.4,2.1,0.2C274.2,246.3,274.1,247,274.1,247.7z M275,236.2c0-0.1,0-0.3,0-0.4c0.2,0.1,0.4,0.1,0.6,0.1
			C275.3,236,275.1,236.1,275,236.2z"/>
		<path class="ears-st4" d="M276.7,233.6c-1.8-0.2-3.3-1.2-4.8-1.9c0.1,0.7,0.1,1.4,0.2,2c0.4,3.2,0.7,6.4,1.1,9.6
			c-0.9-0.5-1.9-0.8-3-0.8c-3.3,0-5.9,2.5-5.9,5.5c0,3.1,2.7,5.5,5.9,5.5c2.7,0,5-1.7,5.7-4c0.3-0.5,0.5-1,0.5-1.6
			c0.3-3.2,0-6.5-0.2-9.7c2.1-0.2,3.5,1.7,4.1,3.5c0.9-1.1,1.6-2.3,2.2-3.6c0.5-0.8-0.1-1.6-0.6-2.2
			C280.7,234.5,278.7,233.9,276.7,233.6z"/>
		<path class="ears-st3" d="M268.1,244.1c-1.4,0.6-2,2.1-1.5,3.3c0.5,1.2,2.1,1.6,3.4,0.9c1.4-0.6,2-2.1,1.5-3.3
			C271,243.9,269.5,243.5,268.1,244.1z"/>
	</g>
</g>
<g>
	<g>
		<path d="M276.6,213.2L276.6,213.2c-3-0.8-5.6,0.6-6.9,3.8c-2.1,4.9-1.2,15.2,2.4,17.5c0.6,0.4,1.2,0.6,1.9,0.6
			c0.7,0,1.4-0.2,2-0.6c3.4-2.2,5.1-11.8,4.3-16.4C279.7,214.6,278,213.5,276.6,213.2z M275.4,218C275.4,218,275.4,218,275.4,218
			C275.4,218,275.4,218,275.4,218z M274.1,228.5c-0.7-2.8-1-7.7,0.3-10c0.3-0.5,0.4-0.6,0.6-0.6c0,0,0,0,0,0
			C276,219.5,275.3,225.4,274.1,228.5z"/>
		<path class="ears-st5" d="M276,215.6c-6.7-1.7-5.7,14.8-2.5,16.8C276.6,234.4,280.3,216.7,276,215.6z"/>
		<path class="ears-st3" d="M275.9,217.8c-4.6-1.1-4.2,10.7-2.1,12.1C276,231.3,278.9,218.5,275.9,217.8z"/>
	</g>
	<g>
		<path d="M283.9,234.3c-1.6-1.7-3.8-2.7-6.9-3.1c-1-0.1-2-0.6-3-1.2c-0.3-0.2-0.6-0.3-0.9-0.5c-0.8-0.4-1.8-0.3-2.5,0.2
			c-0.8,0.5-1.2,1.4-1.1,2.3c0.1,0.7,0.2,1.4,0.2,2.1c0.2,2,0.5,4,0.7,6c0,0-0.1,0-0.1,0c-4.6,0-8.4,3.6-8.4,8c0,4.4,3.8,8,8.4,8
			c3.6,0,6.8-2.2,8-5.5c0.4-0.8,0.6-1.6,0.7-2.4c0.2-1.5,0.2-2.9,0.1-4.3c0.2,0.1,0.5,0.2,0.8,0.3c0.9,0.2,1.8-0.1,2.4-0.8
			c1.2-1.3,1.9-2.8,2.6-4.1c0.9-1.5,0.6-3.2-0.8-5C284,234.4,284,234.3,283.9,234.3z M274.1,247.7c0,0.2-0.1,0.4-0.2,0.6
			c-0.1,0.2-0.2,0.3-0.2,0.5c-0.4,1.3-1.8,2.2-3.3,2.2c-1.9,0-3.4-1.4-3.4-3s1.5-3,3.4-3c0.6,0,1.3,0.2,1.8,0.5
			c0.6,0.4,1.4,0.4,2.1,0.2C274.2,246.3,274.1,247,274.1,247.7z M275,236.2c0-0.1,0-0.3,0-0.4c0.2,0.1,0.4,0.1,0.6,0.1
			C275.3,236,275.1,236.1,275,236.2z"/>
		<path class="ears-st5" d="M276.7,233.6c-1.8-0.2-3.3-1.2-4.8-1.9c0.1,0.7,0.1,1.4,0.2,2c0.4,3.2,0.7,6.4,1.1,9.6
			c-0.9-0.5-1.9-0.8-3-0.8c-3.3,0-5.9,2.5-5.9,5.5c0,3.1,2.7,5.5,5.9,5.5c2.7,0,5-1.7,5.7-4c0.3-0.5,0.5-1,0.5-1.6
			c0.3-3.2,0-6.5-0.2-9.7c2.1-0.2,3.5,1.7,4.1,3.5c0.9-1.1,1.6-2.3,2.2-3.6c0.5-0.8-0.1-1.6-0.6-2.2
			C280.7,234.5,278.7,233.9,276.7,233.6z"/>
		<path class="ears-st3" d="M268.1,244.1c-1.4,0.6-2,2.1-1.5,3.3c0.5,1.2,2.1,1.6,3.4,0.9c1.4-0.6,2-2.1,1.5-3.3
			C271,243.9,269.5,243.5,268.1,244.1z"/>
	</g>
</g>
<g>
	<g>
		<path d="M276.6,213.2L276.6,213.2c-3-0.8-5.6,0.6-6.9,3.8c-2.1,4.9-1.2,15.2,2.4,17.5c0.6,0.4,1.2,0.6,1.9,0.6
			c0.7,0,1.4-0.2,2-0.6c3.4-2.2,5.1-11.8,4.3-16.4C279.7,214.6,278,213.5,276.6,213.2z M275.4,218C275.4,218,275.4,218,275.4,218
			C275.4,218,275.4,218,275.4,218z M274.1,228.5c-0.7-2.8-1-7.7,0.3-10c0.3-0.5,0.4-0.6,0.6-0.6c0,0,0,0,0,0
			C276,219.5,275.3,225.4,274.1,228.5z"/>
		<path class="ears-st6" d="M276,215.6c-6.7-1.7-5.7,14.8-2.5,16.8C276.6,234.4,280.3,216.7,276,215.6z"/>
		<path class="ears-st3" d="M275.9,217.8c-4.6-1.1-4.2,10.7-2.1,12.1C276,231.3,278.9,218.5,275.9,217.8z"/>
	</g>
	<g>
		<path d="M283.9,234.3c-1.6-1.7-3.8-2.7-6.9-3.1c-1-0.1-2-0.6-3-1.2c-0.3-0.2-0.6-0.3-0.9-0.5c-0.8-0.4-1.8-0.3-2.5,0.2
			c-0.8,0.5-1.2,1.4-1.1,2.3c0.1,0.7,0.2,1.4,0.2,2.1c0.2,2,0.5,4,0.7,6c0,0-0.1,0-0.1,0c-4.6,0-8.4,3.6-8.4,8c0,4.4,3.8,8,8.4,8
			c3.6,0,6.8-2.2,8-5.5c0.4-0.8,0.6-1.6,0.7-2.4c0.2-1.5,0.2-2.9,0.1-4.3c0.2,0.1,0.5,0.2,0.8,0.3c0.9,0.2,1.8-0.1,2.4-0.8
			c1.2-1.3,1.9-2.8,2.6-4.1c0.9-1.5,0.6-3.2-0.8-5C284,234.4,284,234.3,283.9,234.3z M274.1,247.7c0,0.2-0.1,0.4-0.2,0.6
			c-0.1,0.2-0.2,0.3-0.2,0.5c-0.4,1.3-1.8,2.2-3.3,2.2c-1.9,0-3.4-1.4-3.4-3s1.5-3,3.4-3c0.6,0,1.3,0.2,1.8,0.5
			c0.6,0.4,1.4,0.4,2.1,0.2C274.2,246.3,274.1,247,274.1,247.7z M275,236.2c0-0.1,0-0.3,0-0.4c0.2,0.1,0.4,0.1,0.6,0.1
			C275.3,236,275.1,236.1,275,236.2z"/>
		<path class="ears-st6" d="M276.7,233.6c-1.8-0.2-3.3-1.2-4.8-1.9c0.1,0.7,0.1,1.4,0.2,2c0.4,3.2,0.7,6.4,1.1,9.6
			c-0.9-0.5-1.9-0.8-3-0.8c-3.3,0-5.9,2.5-5.9,5.5c0,3.1,2.7,5.5,5.9,5.5c2.7,0,5-1.7,5.7-4c0.3-0.5,0.5-1,0.5-1.6
			c0.3-3.2,0-6.5-0.2-9.7c2.1-0.2,3.5,1.7,4.1,3.5c0.9-1.1,1.6-2.3,2.2-3.6c0.5-0.8-0.1-1.6-0.6-2.2
			C280.7,234.5,278.7,233.9,276.7,233.6z"/>
		<path class="ears-st3" d="M268.1,244.1c-1.4,0.6-2,2.1-1.5,3.3c0.5,1.2,2.1,1.6,3.4,0.9c1.4-0.6,2-2.1,1.5-3.3
			C271,243.9,269.5,243.5,268.1,244.1z"/>
	</g>
</g>
<g>
	<g>
		<path d="M276.6,213.2L276.6,213.2c-3-0.8-5.6,0.6-6.9,3.8c-2.1,4.9-1.2,15.2,2.4,17.5c0.6,0.4,1.2,0.6,1.9,0.6
			c0.7,0,1.4-0.2,2-0.6c3.4-2.2,5.1-11.8,4.3-16.4C279.7,214.6,278,213.5,276.6,213.2z M275.4,218C275.4,218,275.4,218,275.4,218
			C275.4,218,275.4,218,275.4,218z M274.1,228.5c-0.7-2.8-1-7.7,0.3-10c0.3-0.5,0.4-0.6,0.6-0.6c0,0,0,0,0,0
			C276,219.5,275.3,225.4,274.1,228.5z"/>
		<path class="ears-st7" d="M276,215.6c-6.7-1.7-5.7,14.8-2.5,16.8C276.6,234.4,280.3,216.7,276,215.6z"/>
		<path class="ears-st3" d="M275.9,217.8c-4.6-1.1-4.2,10.7-2.1,12.1C276,231.3,278.9,218.5,275.9,217.8z"/>
	</g>
	<g>
		<path d="M283.9,234.3c-1.6-1.7-3.8-2.7-6.9-3.1c-1-0.1-2-0.6-3-1.2c-0.3-0.2-0.6-0.3-0.9-0.5c-0.8-0.4-1.8-0.3-2.5,0.2
			c-0.8,0.5-1.2,1.4-1.1,2.3c0.1,0.7,0.2,1.4,0.2,2.1c0.2,2,0.5,4,0.7,6c0,0-0.1,0-0.1,0c-4.6,0-8.4,3.6-8.4,8c0,4.4,3.8,8,8.4,8
			c3.6,0,6.8-2.2,8-5.5c0.4-0.8,0.6-1.6,0.7-2.4c0.2-1.5,0.2-2.9,0.1-4.3c0.2,0.1,0.5,0.2,0.8,0.3c0.9,0.2,1.8-0.1,2.4-0.8
			c1.2-1.3,1.9-2.8,2.6-4.1c0.9-1.5,0.6-3.2-0.8-5C284,234.4,284,234.3,283.9,234.3z M274.1,247.7c0,0.2-0.1,0.4-0.2,0.6
			c-0.1,0.2-0.2,0.3-0.2,0.5c-0.4,1.3-1.8,2.2-3.3,2.2c-1.9,0-3.4-1.4-3.4-3s1.5-3,3.4-3c0.6,0,1.3,0.2,1.8,0.5
			c0.6,0.4,1.4,0.4,2.1,0.2C274.2,246.3,274.1,247,274.1,247.7z M275,236.2c0-0.1,0-0.3,0-0.4c0.2,0.1,0.4,0.1,0.6,0.1
			C275.3,236,275.1,236.1,275,236.2z"/>
		<path class="ears-st7" d="M276.7,233.6c-1.8-0.2-3.3-1.2-4.8-1.9c0.1,0.7,0.1,1.4,0.2,2c0.4,3.2,0.7,6.4,1.1,9.6
			c-0.9-0.5-1.9-0.8-3-0.8c-3.3,0-5.9,2.5-5.9,5.5c0,3.1,2.7,5.5,5.9,5.5c2.7,0,5-1.7,5.7-4c0.3-0.5,0.5-1,0.5-1.6
			c0.3-3.2,0-6.5-0.2-9.7c2.1-0.2,3.5,1.7,4.1,3.5c0.9-1.1,1.6-2.3,2.2-3.6c0.5-0.8-0.1-1.6-0.6-2.2
			C280.7,234.5,278.7,233.9,276.7,233.6z"/>
		<path class="ears-st3" d="M268.1,244.1c-1.4,0.6-2,2.1-1.5,3.3c0.5,1.2,2.1,1.6,3.4,0.9c1.4-0.6,2-2.1,1.5-3.3
			C271,243.9,269.5,243.5,268.1,244.1z"/>
	</g>
</g>
<g>
	<g>
		<path d="M276.6,213.2c-3-0.8-5.6,0.6-6.9,3.8c-2.1,4.9-1.2,15.2,2.4,17.5c0.6,0.4,1.2,0.6,1.9,0.6c0.7,0,1.4-0.2,2-0.6
			c3.4-2.2,5.1-11.8,4.3-16.4C279.7,214.6,278,213.5,276.6,213.2z M274.1,228.5c-0.7-2.8-1-7.7,0.3-10c0.3-0.5,0.4-0.6,0.6-0.6
			c0,0,0,0,0,0C276,219.5,275.3,225.4,274.1,228.5z"/>
		<path class="ears-st8" d="M276,215.6c-6.7-1.7-5.7,14.8-2.5,16.8C276.6,234.4,280.3,216.7,276,215.6z"/>
		<path class="ears-st3" d="M275.9,217.8c-4.6-1.1-4.2,10.7-2.1,12.1C276,231.3,278.9,218.5,275.9,217.8z"/>
	</g>
	<g>
		<path d="M283.9,234.3c-1.6-1.7-3.8-2.7-6.9-3.1c-1-0.1-2-0.6-3-1.2c-0.3-0.2-0.6-0.3-0.9-0.5c-0.8-0.4-1.8-0.3-2.5,0.2
			c-0.8,0.5-1.2,1.4-1.1,2.3c0.1,0.7,0.2,1.4,0.2,2.1c0.2,2,0.5,4,0.7,6c0,0-0.1,0-0.1,0c-4.6,0-8.4,3.6-8.4,8c0,4.4,3.8,8,8.4,8
			c3.6,0,6.8-2.2,8-5.5c0.4-0.8,0.6-1.6,0.7-2.4c0.2-1.5,0.2-2.9,0.1-4.3c0.2,0.1,0.5,0.2,0.8,0.3c0.9,0.2,1.8-0.1,2.4-0.8
			c1.2-1.3,1.9-2.8,2.6-4.1c0.9-1.5,0.6-3.2-0.8-5C284,234.4,284,234.3,283.9,234.3z M274.1,247.7c0,0.2-0.1,0.4-0.2,0.6
			c-0.1,0.2-0.2,0.3-0.2,0.5c-0.4,1.3-1.8,2.2-3.3,2.2c-1.9,0-3.4-1.4-3.4-3s1.5-3,3.4-3c0.6,0,1.3,0.2,1.8,0.5
			c0.6,0.4,1.4,0.4,2.1,0.2C274.2,246.3,274.1,247,274.1,247.7z M275,236.2c0-0.1,0-0.3,0-0.4c0.2,0.1,0.4,0.1,0.6,0.1
			C275.3,236,275.1,236.1,275,236.2z"/>
		<path class="ears-st8" d="M276.7,233.6c-1.8-0.2-3.3-1.2-4.8-1.9c0.1,0.7,0.1,1.4,0.2,2c0.4,3.2,0.7,6.4,1.1,9.6
			c-0.9-0.5-1.9-0.8-3-0.8c-3.3,0-5.9,2.5-5.9,5.5c0,3.1,2.7,5.5,5.9,5.5c2.7,0,5-1.7,5.7-4c0.3-0.5,0.5-1,0.5-1.6
			c0.3-3.2,0-6.5-0.2-9.7c2.1-0.2,3.5,1.7,4.1,3.5c0.9-1.1,1.6-2.3,2.2-3.6c0.5-0.8-0.1-1.6-0.6-2.2
			C280.7,234.5,278.7,233.9,276.7,233.6z"/>
		<path class="ears-st3" d="M268.1,244.1c-1.4,0.6-2,2.1-1.5,3.3c0.5,1.2,2.1,1.6,3.4,0.9c1.4-0.6,2-2.1,1.5-3.3
			C271,243.9,269.5,243.5,268.1,244.1z"/>
	</g>
</g>
</svg>
