<?xml version="1.0" encoding="utf-8"?>
<!-- Generator: Adobe Illustrator 26.0.3, SVG Export Plug-In . SVG Version: 6.00 Build 0)  -->
<svg version="1.1" id="Layer_1" xmlns="http://www.w3.org/2000/svg" xmlns:xlink="http://www.w3.org/1999/xlink" x="0px" y="0px"
	 viewBox="0 0 384 400" style="enable-background:new 0 0 384 400;" xml:space="preserve">
<style type="text/css">
	.ears-st0{fill:#FAEBCF;}
	.ears-st1{opacity:0.16;}
	.ears-st2{fill:#00C0FF;}
	.ears-st3{opacity:0.5;fill:#FFFFFF;}
	.ears-st4{fill:#BA3B99;}
	.ears-st5{fill:#D84E1C;}
	.ears-st6{fill:#6E44D8;}
	.ears-st7{fill:#44BDD8;}
	.ears-st8{fill:#6D8F87;}
	.ears-st9{fill:#D8A10B;}
	.ears-st10{fill:#008F6C;}
</style>
<g>
	<path d="M283.5,202.1c-1-1.2-2.3-2.3-3.7-2.9c-2.9-1.3-5.8-1.2-8.4-0.6c-2.6,0.6-5.1,1.6-7.2,3c2.5-0.4,5.1-0.7,7.5-0.6
		c2.4,0.1,4.7,0.6,6.4,1.7c1.7,1.1,2.6,2.8,3.1,4.8c0.3,1,0.4,2.1,0.4,3.2c0,1.1,0,2.2-0.3,3.2c-0.4,2.1-1.2,4.2-2.5,5.9
		c-1.2,1.8-2.8,3.3-4.7,4.3c-1.9,1-4.1,1.4-6.4,1.2c-2.3-0.2-4.6-1.2-6.9-2.3c1.6,2,3.7,3.8,6.4,4.7c1.3,0.5,2.7,0.8,4.2,0.8
		c1.4,0,2.9-0.2,4.3-0.7c2.8-0.9,5.3-2.8,7.1-5c0.9-1.1,1.7-2.4,2.3-3.7c0.6-1.3,1-2.7,1.3-4.2c0.5-2.9,0.4-5.8-0.5-8.6
		C285.1,204.8,284.5,203.4,283.5,202.1z"/>
	<path class="ears-st0" d="M264.1,201.6c0,0-16.1,10.7-3.5,21.3c12.6,10.6,25.9-2.4,22.9-15.4C280.5,194.6,264.1,201.6,264.1,201.6z"/>
	<path class="ears-st1" d="M261.5,206.1c0,0-9.7,5.5-1.8,11.4c8,5.9,16-0.8,13.9-7.9S261.5,206.1,261.5,206.1z"/>
</g>
<g>
	<g>
		<path d="M269.1,220.7L269.1,220.7c-3.3,0.9-5,3.9-4.5,7.9c0.6,4.9,4.7,12.6,9.1,12.8c0.1,0,0.1,0,0.2,0c1.4,0,2.6-0.8,3.3-2.2
			c1.9-3.8-0.3-13.2-3.2-16.7C272.1,220.3,270.1,220.5,269.1,220.7z M270.5,225.6C270.5,225.6,270.5,225.6,270.5,225.6
			C270.5,225.6,270.5,225.6,270.5,225.6z M269.5,227.2c0-1,0.3-1.3,0.6-1.5c1.4,1.3,2.9,6.9,2.9,9.9
			C271.4,233.8,269.4,230,269.5,227.2z"/>
		<path class="ears-st2" d="M269.8,223.2c-6.6,1.9,0.3,15.7,4.1,15.8S274.1,221.9,269.8,223.2z"/>
		<path class="ears-st3" d="M270.3,225.1c-4.3,1.3,0.2,10.9,2.7,11C275.4,236.2,273.1,224.2,270.3,225.1z"/>
	</g>
	<g>
		<path d="M276.8,207.3c-3.4-0.6-5,0.6-5.8,1.8c-1.7,2.6-1.3,5.5,1.2,7.8c2.8,2.6,8.7,4.7,13.1,4.7c1.8,0,3.3-0.3,4.2-1.1
			c1.1-0.9,1.6-2.2,1.2-3.6C289.8,213,281.4,208.1,276.8,207.3z M275.1,211.9C275.1,211.9,275.1,211.9,275.1,211.9
			C275.1,211.9,275.1,211.9,275.1,211.9z M275.3,212.9c-0.4-0.4-0.4-0.6-0.3-0.8c1.8-0.3,7.1,2.3,9.6,4.5
			C281.7,216.4,277,215,275.3,212.9z"/>
		<path class="ears-st4" d="M273,210.5c-3.9,5.7,12,10.3,15,8.1C291,216.3,275.5,206.8,273,210.5z"/>
		<path class="ears-st3" d="M275.1,211.4c-2.6,4,8.7,7.6,10.7,6C287.8,215.8,276.8,208.8,275.1,211.4z"/>
	</g>
</g>
<g>
	<g>
		<path d="M269.1,220.7L269.1,220.7c-3.3,0.9-5,3.9-4.5,7.9c0.6,4.9,4.7,12.6,9.1,12.8c0.1,0,0.1,0,0.2,0c1.4,0,2.6-0.8,3.3-2.2
			c1.9-3.8-0.3-13.2-3.2-16.7C272.1,220.3,270.1,220.5,269.1,220.7z M270.5,225.6C270.5,225.6,270.5,225.6,270.5,225.6
			C270.5,225.6,270.5,225.6,270.5,225.6z M269.5,227.2c0-1,0.3-1.3,0.6-1.5c1.4,1.3,2.9,6.9,2.9,9.9
			C271.4,233.8,269.4,230,269.5,227.2z"/>
		<path class="ears-st5" d="M269.8,223.2c-6.6,1.9,0.3,15.7,4.1,15.8S274.1,221.9,269.8,223.2z"/>
		<path class="ears-st3" d="M270.3,225.1c-4.3,1.3,0.2,10.9,2.7,11C275.4,236.2,273.1,224.2,270.3,225.1z"/>
	</g>
	<g>
		<path d="M276.8,207.3c-3.4-0.6-5,0.6-5.8,1.8c-1.7,2.6-1.3,5.5,1.2,7.8c2.8,2.6,8.7,4.7,13.1,4.7c1.8,0,3.3-0.3,4.2-1.1
			c1.1-0.9,1.6-2.2,1.2-3.6C289.8,213,281.4,208.1,276.8,207.3z M275.1,211.9C275.1,211.9,275.1,211.9,275.1,211.9
			C275.1,211.9,275.1,211.9,275.1,211.9z M275.3,212.9c-0.4-0.4-0.4-0.6-0.3-0.8c1.8-0.3,7.1,2.3,9.6,4.5
			C281.7,216.4,277,215,275.3,212.9z"/>
		<path class="ears-st6" d="M273,210.5c-3.9,5.7,12,10.3,15,8.1C291,216.3,275.5,206.8,273,210.5z"/>
		<path class="ears-st3" d="M275.1,211.4c-2.6,4,8.7,7.6,10.7,6C287.8,215.8,276.8,208.8,275.1,211.4z"/>
	</g>
</g>
<g>
	<g>
		<path d="M269.1,220.7L269.1,220.7c-3.3,0.9-5,3.9-4.5,7.9c0.6,4.9,4.7,12.6,9.1,12.8c0.1,0,0.1,0,0.2,0c1.4,0,2.6-0.8,3.3-2.2
			c1.9-3.8-0.3-13.2-3.2-16.7C272.1,220.3,270.1,220.5,269.1,220.7z M270.5,225.6C270.5,225.6,270.5,225.6,270.5,225.6
			C270.5,225.6,270.5,225.6,270.5,225.6z M269.5,227.2c0-1,0.3-1.3,0.6-1.5c1.4,1.3,2.9,6.9,2.9,9.9
			C271.4,233.8,269.4,230,269.5,227.2z"/>
		<path class="ears-st5" d="M269.8,223.2c-6.6,1.9,0.3,15.7,4.1,15.8S274.1,221.9,269.8,223.2z"/>
		<path class="ears-st3" d="M270.3,225.1c-4.3,1.3,0.2,10.9,2.7,11C275.4,236.2,273.1,224.2,270.3,225.1z"/>
	</g>
	<g>
		<path d="M276.8,207.3c-3.4-0.6-5,0.6-5.8,1.8c-1.7,2.6-1.3,5.5,1.2,7.8c2.8,2.6,8.7,4.7,13.1,4.7c1.8,0,3.3-0.3,4.2-1.1
			c1.1-0.9,1.6-2.2,1.2-3.6C289.8,213,281.4,208.1,276.8,207.3z M275.1,211.9C275.1,211.9,275.1,211.9,275.1,211.9
			C275.1,211.9,275.1,211.9,275.1,211.9z M275.3,212.9c-0.4-0.4-0.4-0.6-0.3-0.8c1.8-0.3,7.1,2.3,9.6,4.5
			C281.7,216.4,277,215,275.3,212.9z"/>
		<path class="ears-st7" d="M273,210.5c-3.9,5.7,12,10.3,15,8.1C291,216.3,275.5,206.8,273,210.5z"/>
		<path class="ears-st3" d="M275.1,211.4c-2.6,4,8.7,7.6,10.7,6C287.8,215.8,276.8,208.8,275.1,211.4z"/>
	</g>
</g>
<g>
	<g>
		<path d="M269.1,220.7L269.1,220.7c-3.3,0.9-5,3.9-4.5,7.9c0.6,4.9,4.7,12.6,9.1,12.8c0.1,0,0.1,0,0.2,0c1.4,0,2.6-0.8,3.3-2.2
			c1.9-3.8-0.3-13.2-3.2-16.7C272.1,220.3,270.1,220.5,269.1,220.7z M270.5,225.6C270.5,225.6,270.5,225.6,270.5,225.6
			C270.5,225.6,270.5,225.6,270.5,225.6z M269.5,227.2c0-1,0.3-1.3,0.6-1.5c1.4,1.3,2.9,6.9,2.9,9.9
			C271.4,233.8,269.4,230,269.5,227.2z"/>
		<path class="ears-st7" d="M269.8,223.2c-6.6,1.9,0.3,15.7,4.1,15.8S274.1,221.9,269.8,223.2z"/>
		<path class="ears-st3" d="M270.3,225.1c-4.3,1.3,0.2,10.9,2.7,11C275.4,236.2,273.1,224.2,270.3,225.1z"/>
	</g>
	<g>
		<path d="M276.8,207.3c-3.4-0.6-5,0.6-5.8,1.8c-1.7,2.6-1.3,5.5,1.2,7.8c2.8,2.6,8.7,4.7,13.1,4.7c1.8,0,3.3-0.3,4.2-1.1
			c1.1-0.9,1.6-2.2,1.2-3.6C289.8,213,281.4,208.1,276.8,207.3z M275.1,211.9C275.1,211.9,275.1,211.9,275.1,211.9
			C275.1,211.9,275.1,211.9,275.1,211.9z M275.3,212.9c-0.4-0.4-0.4-0.6-0.3-0.8c1.8-0.3,7.1,2.3,9.6,4.5
			C281.7,216.4,277,215,275.3,212.9z"/>
		<path class="ears-st5" d="M273,210.5c-3.9,5.7,12,10.3,15,8.1C291,216.3,275.5,206.8,273,210.5z"/>
		<path class="ears-st3" d="M275.1,211.4c-2.6,4,8.7,7.6,10.7,6C287.8,215.8,276.8,208.8,275.1,211.4z"/>
	</g>
</g>
<g>
	<g>
		<path d="M269.1,220.7L269.1,220.7c-3.3,0.9-5,3.9-4.5,7.9c0.6,4.9,4.7,12.6,9.1,12.8c0.1,0,0.1,0,0.2,0c1.4,0,2.6-0.8,3.3-2.2
			c1.9-3.8-0.3-13.2-3.2-16.7C272.1,220.3,270.1,220.5,269.1,220.7z M270.5,225.6C270.5,225.6,270.5,225.6,270.5,225.6
			C270.5,225.6,270.5,225.6,270.5,225.6z M269.5,227.2c0-1,0.3-1.3,0.6-1.5c1.4,1.3,2.9,6.9,2.9,9.9
			C271.4,233.8,269.4,230,269.5,227.2z"/>
		<path class="ears-st8" d="M269.8,223.2c-6.6,1.9,0.3,15.7,4.1,15.8S274.1,221.9,269.8,223.2z"/>
		<path class="ears-st3" d="M270.3,225.1c-4.3,1.3,0.2,10.9,2.7,11C275.4,236.2,273.1,224.2,270.3,225.1z"/>
	</g>
	<g>
		<path d="M276.8,207.3c-3.4-0.6-5,0.6-5.8,1.8c-1.7,2.6-1.3,5.5,1.2,7.8c2.8,2.6,8.7,4.7,13.1,4.7c1.8,0,3.3-0.3,4.2-1.1
			c1.1-0.9,1.6-2.2,1.2-3.6C289.8,213,281.4,208.1,276.8,207.3z M275.1,211.9C275.1,211.9,275.1,211.9,275.1,211.9
			C275.1,211.9,275.1,211.9,275.1,211.9z M275.3,212.9c-0.4-0.4-0.4-0.6-0.3-0.8c1.8-0.3,7.1,2.3,9.6,4.5
			C281.7,216.4,277,215,275.3,212.9z"/>
		<path class="ears-st9" d="M273,210.5c-3.9,5.7,12,10.3,15,8.1C291,216.3,275.5,206.8,273,210.5z"/>
		<path class="ears-st3" d="M275.1,211.4c-2.6,4,8.7,7.6,10.7,6C287.8,215.8,276.8,208.8,275.1,211.4z"/>
	</g>
</g>
<g>
	<g>
		<path d="M269.1,220.7L269.1,220.7c-3.3,0.9-5,3.9-4.5,7.9c0.6,4.9,4.7,12.6,9.1,12.8c0.1,0,0.1,0,0.2,0c1.4,0,2.6-0.8,3.3-2.2
			c1.9-3.8-0.3-13.2-3.2-16.7C272.1,220.3,270.1,220.5,269.1,220.7z M270.5,225.6C270.5,225.6,270.5,225.6,270.5,225.6
			C270.5,225.6,270.5,225.6,270.5,225.6z M269.5,227.2c0-1,0.3-1.3,0.6-1.5c1.4,1.3,2.9,6.9,2.9,9.9
			C271.4,233.8,269.4,230,269.5,227.2z"/>
		<path class="ears-st5" d="M269.8,223.2c-6.6,1.9,0.3,15.7,4.1,15.8S274.1,221.9,269.8,223.2z"/>
		<path class="ears-st3" d="M270.3,225.1c-4.3,1.3,0.2,10.9,2.7,11C275.4,236.2,273.1,224.2,270.3,225.1z"/>
	</g>
	<g>
		<path d="M276.8,207.3c-3.4-0.6-5,0.6-5.8,1.8c-1.7,2.6-1.3,5.5,1.2,7.8c2.8,2.6,8.7,4.7,13.1,4.7c1.8,0,3.3-0.3,4.2-1.1
			c1.1-0.9,1.6-2.2,1.2-3.6C289.8,213,281.4,208.1,276.8,207.3z M275.1,211.9C275.1,211.9,275.1,211.9,275.1,211.9
			C275.1,211.9,275.1,211.9,275.1,211.9z M275.3,212.9c-0.4-0.4-0.4-0.6-0.3-0.8c1.8-0.3,7.1,2.3,9.6,4.5
			C281.7,216.4,277,215,275.3,212.9z"/>
		<path class="ears-st10" d="M273,210.5c-3.9,5.7,12,10.3,15,8.1C291,216.3,275.5,206.8,273,210.5z"/>
		<path class="ears-st3" d="M275.1,211.4c-2.6,4,8.7,7.6,10.7,6C287.8,215.8,276.8,208.8,275.1,211.4z"/>
	</g>
</g>
</svg>
