<?xml version="1.0" encoding="utf-8"?>
<!-- Generator: Adobe Illustrator 26.0.3, SVG Export Plug-In . SVG Version: 6.00 Build 0)  -->
<svg version="1.1" id="Layer_1" xmlns="http://www.w3.org/2000/svg" xmlns:xlink="http://www.w3.org/1999/xlink" x="0px" y="0px"
	 viewBox="0 0 384 400" style="enable-background:new 0 0 384 400;" xml:space="preserve">
<style type="text/css">
	.ears-st0{fill:#FAEBCF;}
	.ears-st1{opacity:0.16;}
	.ears-st2{fill:#BA3B99;}
	.ears-st3{opacity:0.5;fill:#FFFFFF;}
	.ears-st4{fill:#6E44D8;}
	.ears-st5{fill:#44BDD8;}
	.ears-st6{fill:#D84E1C;}
	.ears-st7{fill:#D8A10B;}
	.ears-st8{fill:#008F6C;}
</style>
<g>
	<path d="M283.5,202.1c-1-1.2-2.3-2.3-3.7-2.9c-2.9-1.3-5.8-1.2-8.4-0.6c-2.6,0.6-5.1,1.6-7.2,3c2.5-0.4,5.1-0.7,7.5-0.6
		c2.4,0.1,4.7,0.6,6.4,1.7c1.7,1.1,2.6,2.8,3.1,4.8c0.3,1,0.4,2.1,0.4,3.2c0,1.1,0,2.2-0.3,3.2c-0.4,2.1-1.2,4.2-2.5,5.9
		c-1.2,1.8-2.8,3.3-4.7,4.3c-1.9,1-4.1,1.4-6.4,1.2c-2.3-0.2-4.6-1.2-6.9-2.3c1.6,2,3.7,3.8,6.4,4.7c1.3,0.5,2.7,0.8,4.2,0.8
		c1.4,0,2.9-0.2,4.3-0.7c2.8-0.9,5.3-2.8,7.1-5c0.9-1.1,1.7-2.4,2.3-3.7c0.6-1.3,1-2.7,1.3-4.2c0.5-2.9,0.4-5.8-0.5-8.6
		C285.1,204.8,284.5,203.4,283.5,202.1z"/>
	<path class="ears-st0" d="M264.1,201.6c0,0-16.1,10.7-3.5,21.3c12.6,10.6,25.9-2.4,22.9-15.4C280.5,194.6,264.1,201.6,264.1,201.6z"/>
	<path class="ears-st1" d="M261.5,206.1c0,0-9.7,5.5-1.8,11.4s16-0.8,13.9-7.9S261.5,206.1,261.5,206.1z"/>
</g>
<g>
	<path d="M275.2,216.5c-3-0.8-5.6,0.6-6.9,3.8c-2.1,4.9-1.2,15.2,2.4,17.5c0.6,0.4,1.2,0.6,1.9,0.6c0.7,0,1.4-0.2,2-0.6
		c3.4-2.2,5.1-11.8,4.3-16.4C278.2,217.9,276.5,216.8,275.2,216.5z M272.7,231.8c-0.7-2.8-1-7.7,0.3-10c0.3-0.5,0.4-0.6,0.6-0.6
		c0,0,0,0,0,0C274.5,222.8,273.8,228.7,272.7,231.8z"/>
	<path class="ears-st2" d="M274.5,218.9c-6.7-1.7-5.7,14.8-2.5,16.8S278.9,220,274.5,218.9z"/>
	<path class="ears-st3" d="M274.4,221.1c-4.6-1.1-4.2,10.7-2.1,12.1C274.5,234.6,277.4,221.8,274.4,221.1z"/>
</g>
<g>
	<path d="M275.2,216.5c-3-0.8-5.6,0.6-6.9,3.8c-2.1,4.9-1.2,15.2,2.4,17.5c0.6,0.4,1.2,0.6,1.9,0.6c0.7,0,1.4-0.2,2-0.6
		c3.4-2.2,5.1-11.8,4.3-16.4C278.2,217.9,276.5,216.8,275.2,216.5z M272.7,231.8c-0.7-2.8-1-7.7,0.3-10c0.3-0.5,0.4-0.6,0.6-0.6
		c0,0,0,0,0,0C274.5,222.8,273.8,228.7,272.7,231.8z"/>
	<path class="ears-st4" d="M274.5,218.9c-6.7-1.7-5.7,14.8-2.5,16.8S278.9,220,274.5,218.9z"/>
	<path class="ears-st3" d="M274.4,221.1c-4.6-1.1-4.2,10.7-2.1,12.1C274.5,234.6,277.4,221.8,274.4,221.1z"/>
</g>
<g>
	<path d="M275.2,216.5c-3-0.8-5.6,0.6-6.9,3.8c-2.1,4.9-1.2,15.2,2.4,17.5c0.6,0.4,1.2,0.6,1.9,0.6c0.7,0,1.4-0.2,2-0.6
		c3.4-2.2,5.1-11.8,4.3-16.4C278.2,217.9,276.5,216.8,275.2,216.5z M272.7,231.8c-0.7-2.8-1-7.7,0.3-10c0.3-0.5,0.4-0.6,0.6-0.6
		c0,0,0,0,0,0C274.5,222.8,273.8,228.7,272.7,231.8z"/>
	<path class="ears-st5" d="M274.5,218.9c-6.7-1.7-5.7,14.8-2.5,16.8S278.9,220,274.5,218.9z"/>
	<path class="ears-st3" d="M274.4,221.1c-4.6-1.1-4.2,10.7-2.1,12.1C274.5,234.6,277.4,221.8,274.4,221.1z"/>
</g>
<g>
	<path d="M275.2,216.5c-3-0.8-5.6,0.6-6.9,3.8c-2.1,4.9-1.2,15.2,2.4,17.5c0.6,0.4,1.2,0.6,1.9,0.6c0.7,0,1.4-0.2,2-0.6
		c3.4-2.2,5.1-11.8,4.3-16.4C278.2,217.9,276.5,216.8,275.2,216.5z M272.7,231.8c-0.7-2.8-1-7.7,0.3-10c0.3-0.5,0.4-0.6,0.6-0.6
		c0,0,0,0,0,0C274.5,222.8,273.8,228.7,272.7,231.8z"/>
	<path class="ears-st6" d="M274.5,218.9c-6.7-1.7-5.7,14.8-2.5,16.8S278.9,220,274.5,218.9z"/>
	<path class="ears-st3" d="M274.4,221.1c-4.6-1.1-4.2,10.7-2.1,12.1C274.5,234.6,277.4,221.8,274.4,221.1z"/>
</g>
<g>
	<path d="M275.2,216.5c-3-0.8-5.6,0.6-6.9,3.8c-2.1,4.9-1.2,15.2,2.4,17.5c0.6,0.4,1.2,0.6,1.9,0.6c0.7,0,1.4-0.2,2-0.6
		c3.4-2.2,5.1-11.8,4.3-16.4C278.2,217.9,276.5,216.8,275.2,216.5z M272.7,231.8c-0.7-2.8-1-7.7,0.3-10c0.3-0.5,0.4-0.6,0.6-0.6
		c0,0,0,0,0,0C274.5,222.8,273.8,228.7,272.7,231.8z"/>
	<path class="ears-st7" d="M274.5,218.9c-6.7-1.7-5.7,14.8-2.5,16.8S278.9,220,274.5,218.9z"/>
	<path class="ears-st3" d="M274.4,221.1c-4.6-1.1-4.2,10.7-2.1,12.1C274.5,234.6,277.4,221.8,274.4,221.1z"/>
</g>
<g>
	<path d="M275.2,216.5c-3-0.8-5.6,0.6-6.9,3.8c-2.1,4.9-1.2,15.2,2.4,17.5c0.6,0.4,1.2,0.6,1.9,0.6c0.7,0,1.4-0.2,2-0.6
		c3.4-2.2,5.1-11.8,4.3-16.4C278.2,217.9,276.5,216.8,275.2,216.5z M272.7,231.8c-0.7-2.8-1-7.7,0.3-10c0.3-0.5,0.4-0.6,0.6-0.6
		c0,0,0,0,0,0C274.5,222.8,273.8,228.7,272.7,231.8z"/>
	<path class="ears-st8" d="M274.5,218.9c-6.7-1.7-5.7,14.8-2.5,16.8S278.9,220,274.5,218.9z"/>
	<path class="ears-st3" d="M274.4,221.1c-4.6-1.1-4.2,10.7-2.1,12.1C274.5,234.6,277.4,221.8,274.4,221.1z"/>
</g>
</svg>
