<?xml version="1.0" encoding="utf-8"?>
<!-- Generator: Adobe Illustrator 26.0.3, SVG Export Plug-In . SVG Version: 6.00 Build 0)  -->
<svg version="1.1" id="Layer_1" xmlns="http://www.w3.org/2000/svg" xmlns:xlink="http://www.w3.org/1999/xlink" x="0px" y="0px"
	 viewBox="0 0 384 400" style="enable-background:new 0 0 384 400;" xml:space="preserve">
<style type="text/css">
	.ears-st0{fill:#FAEBCF;}
	.ears-st1{opacity:0.16;}
	.ears-st2{fill:#821FE3;}
	.ears-st3{fill:#9123FF;}
	.ears-st4{fill:#C58AFF;}
</style>
<g>
	<path d="M283.5,202.1c-1-1.2-2.3-2.3-3.7-2.9c-2.9-1.3-5.8-1.2-8.4-0.6c-2.6,0.6-5.1,1.6-7.2,3c2.5-0.4,5.1-0.7,7.5-0.6
		c2.4,0.1,4.7,0.6,6.4,1.7c1.7,1.1,2.6,2.8,3.1,4.8c0.2,1,0.4,2.1,0.4,3.2c0,1.1,0,2.2-0.3,3.2c-0.4,2.1-1.2,4.2-2.5,5.9
		c-1.2,1.8-2.8,3.3-4.7,4.3c-1.9,1-4.1,1.4-6.4,1.2c-2.3-0.2-4.6-1.2-6.9-2.3c1.6,2,3.7,3.8,6.4,4.7c1.3,0.5,2.7,0.8,4.2,0.8
		c1.4,0,2.9-0.2,4.3-0.7c2.8-0.9,5.3-2.8,7.1-5c0.9-1.1,1.7-2.4,2.3-3.7c0.6-1.3,1-2.7,1.3-4.2c0.5-2.9,0.4-5.8-0.5-8.6
		C285.1,204.8,284.5,203.4,283.5,202.1z"/>
	<path class="ears-st0" d="M264.1,201.6c0,0-16.1,10.7-3.5,21.3c12.6,10.6,25.9-2.4,22.9-15.4C280.5,194.6,264.1,201.6,264.1,201.6z"/>
	<path class="ears-st1" d="M261.5,206.1c0,0-9.7,5.5-1.8,11.4s16-0.8,13.9-7.9S261.5,206.1,261.5,206.1z"/>
</g>
<g>
	<path d="M285,222.4l-2-2.7l-2,2.8c-0.9,1.2-1.9,2.2-2.8,3l-2,1.5l1.5,2c0.9,1.2,1.4,2.6,1.6,4c0.5,4-2,7.6-5.7,8.3
		c-1.9,0.3-3.9-0.2-5.5-1.4c-1.8-1.3-3-3.4-3.4-5.7c-0.6-4.2,2-7.9,5.8-8.5l0.9-0.1l0.6-0.6c0.4-0.4,0.7-0.8,1-1.2
		c1.1-1.8,1.1-4.3,0-6.4c-0.4-0.7-1-1.5-1.2-1.7l-0.8-0.9l-1.2,0c-4.9,0.1-9.5,2.3-12.6,6.1c-3.4,4-4.8,9.3-4,14.8
		c0.8,5.5,3.7,10.3,8.2,13.4c3.1,2.2,6.7,3.3,10.4,3.3c1.2,0,2.4-0.1,3.6-0.4c8.8-1.9,14.7-10.4,13.6-19.8
		C288.4,228.5,287.1,225.2,285,222.4z M274.2,246.9c-3.4,0.7-7.1-0.1-10.1-2.1c-3.3-2.3-5.5-5.9-6.1-10c-0.6-4.1,0.4-7.9,2.9-10.8
		c2-2.3,4.7-3.8,7.7-4.2c0.2,0.5,0.2,0.9,0.1,1.2c-6,1.4-9.9,7.3-9,13.9c0.5,3.7,2.4,6.9,5.4,9.1c2.8,2,6.1,2.8,9.3,2.3
		c2.9-0.5,5.4-2.1,7.2-4.3C279.8,244.4,277.3,246.2,274.2,246.9z"/>
	<path class="ears-st2" d="M283,223.9c-1,1.3-2.1,2.5-3.4,3.5c1.1,1.5,1.8,3.3,2.1,5.2c0.6,5.3-2.7,10.2-7.8,11
		c-5.5,0.9-10.9-3.1-11.8-9.2c-0.8-5.7,2.8-10.5,7.9-11.3c0.2-0.3,0.5-0.5,0.6-0.8c0.7-1.2,0.6-2.8-0.1-4c-0.2-0.3-0.6-0.8-0.9-1.3
		c-8.9,0.2-15.7,8.2-14.2,18c1.5,9.9,10.5,16.1,19.2,14.2c7.7-1.6,12.5-9.2,11.6-17.1C286,229.2,284.8,226.3,283,223.9z"/>
	<path class="ears-st3" d="M281.7,225.6c-0.6,0.7-1.3,1.3-2,1.9c1.1,1.5,1.8,3.3,2.1,5.2c0.6,5.3-2.7,10.2-7.8,11
		c-5.5,0.9-10.9-3.1-11.8-9.2c-0.8-5.7,2.8-10.5,7.9-11.3c0.2-0.3,0.5-0.5,0.6-0.8c0.5-0.8,0.6-1.7,0.4-2.6c-0.1,0-0.2,0-0.2,0
		c-7.7-0.1-13.6,6.7-12.4,15.1c1.2,8.2,8.6,13.4,15.8,12c6.5-1.3,10.7-7.6,10-14.4C284,229.9,283.1,227.6,281.7,225.6z"/>
	<path class="ears-st4" d="M283.6,239.6c-1,0.2-3.7,4.8-3.1,5.3C281.1,245.4,285.9,239.2,283.6,239.6z"/>
	<path class="ears-st4" d="M262.5,220.4c-1.4,0-5.1,5-4.2,5.7C259.1,226.8,265.6,220.4,262.5,220.4z"/>
</g>
</svg>
