<?xml version="1.0" encoding="utf-8"?>
<!-- Generator: Adobe Illustrator 26.0.3, SVG Export Plug-In . SVG Version: 6.00 Build 0)  -->
<svg version="1.1" id="Layer_1" xmlns="http://www.w3.org/2000/svg" xmlns:xlink="http://www.w3.org/1999/xlink" x="0px" y="0px"
	 viewBox="0 0 384 400" style="enable-background:new 0 0 384 400;" xml:space="preserve">
<style type="text/css">
	.belt-st0{fill:#B5B5B5;}
	.belt-st1{fill:#E0E0E0;}
	.belt-st2{fill:#7A5B4C;}
	.belt-st3{fill:#5E463A;}
</style>
<g>
	<g>
		<circle cx="117.3" cy="310.9" r="6.1"/>
		<circle class="belt-st0" cx="117.3" cy="310.9" r="4.5"/>
		<ellipse class="belt-st1" cx="114.6" cy="310.6" rx="1.4" ry="3"/>
	</g>
	<g>
		<path d="M227.7,300.6l-2.3,0.1c-0.8,0-81.9,4.6-106-0.6l-2.4-0.5l-0.3,2.4c-0.8,6.1-1.5,16.6,3.2,18.7c2.3,1,27.5,2.8,53.3,2.8
			c20.5,0,41.5-1.1,51.8-4.5l0.4-0.1l0.3-0.2c2.1-1.6,2.8-6.9,2.2-15.9L227.7,300.6z M222.9,314.9c-22.7,6.8-95.8,3.1-101.2,1.6
			c-1-1-1.3-6.1-0.8-11.5c24.9,4.1,89.2,1,102.5,0.3C223.6,309.6,223.4,313.5,222.9,314.9z"/>
		<path class="belt-st2" d="M119,302.4c0,0-2,14.6,1.8,16.3c3.8,1.7,80.8,5.6,103.5-1.8c2.2-1.7,1.3-13.9,1.3-13.9S143.7,307.6,119,302.4
			z"/>
		<path class="belt-st3" d="M193.6,304.3c-4.5,4.2-10.5,7.1-18.2,8.4c-9.5,1.6-19,0.3-28.6,0.4c-9.4,0.1-19,0.6-28.3-1.1
			c0.1,3.1,0.7,6,2.3,6.7c3.8,1.7,80.8,5.6,103.5-1.8c2.2-1.7,1.3-13.9,1.3-13.9S211.7,303.8,193.6,304.3z"/>
	</g>
	<g>
		<circle cx="130.4" cy="311.6" r="6.1"/>
		<path class="belt-st0" d="M130.4,307.1c-2.5,0-4.5,2-4.5,4.5c0,2.5,2,4.5,4.5,4.5s4.5-2,4.5-4.5C134.9,309.2,132.9,307.1,130.4,307.1z"
			/>
		<circle class="belt-st1" cx="130" cy="310.6" r="2.6"/>
	</g>
	<g>
		<path d="M153.9,307c-3.4,0-6.1,2.7-6.1,6.1s2.7,6.1,6.1,6.1c3.4,0,6.1-2.7,6.1-6.1S157.3,307,153.9,307z"/>
		<path class="belt-st0" d="M153.9,308.6c-2.5,0-4.5,2-4.5,4.5s2,4.5,4.5,4.5c2.5,0,4.5-2,4.5-4.5S156.4,308.6,153.9,308.6z"/>
		<circle class="belt-st1" cx="153.5" cy="312" r="2.6"/>
	</g>
	<g>
		<path d="M179.9,306.9c-3.4,0-6.1,2.7-6.1,6.1c0,3.4,2.7,6.1,6.1,6.1c3.4,0,6.1-2.7,6.1-6.1C186,309.7,183.3,306.9,179.9,306.9z"/>
		<path class="belt-st0" d="M179.9,308.5c-2.5,0-4.5,2-4.5,4.5c0,2.5,2,4.5,4.5,4.5s4.5-2,4.5-4.5C184.4,310.5,182.4,308.5,179.9,308.5z"
			/>
		<path class="belt-st1" d="M179.5,309.4c-1.4,0-2.6,1.2-2.6,2.6c0,1.4,1.2,2.6,2.6,2.6c1.4,0,2.6-1.2,2.6-2.6
			C182.1,310.5,181,309.4,179.5,309.4z"/>
	</g>
	<g>
		<circle cx="207.1" cy="311.9" r="6.1"/>
		<path class="belt-st0" d="M207.1,307.4c-2.5,0-4.5,2-4.5,4.5c0,2.5,2,4.5,4.5,4.5s4.5-2,4.5-4.5C211.6,309.4,209.6,307.4,207.1,307.4z"
			/>
		<circle class="belt-st1" cx="206.7" cy="310.8" r="2.6"/>
	</g>
</g>
</svg>
