<?xml version="1.0" encoding="utf-8"?>
<!-- Generator: Adobe Illustrator 26.0.3, SVG Export Plug-In . SVG Version: 6.00 Build 0)  -->
<svg version="1.1" id="Layer_1" xmlns="http://www.w3.org/2000/svg" xmlns:xlink="http://www.w3.org/1999/xlink" x="0px" y="0px"
	 viewBox="0 0 384 400" style="enable-background:new 0 0 384 400;" xml:space="preserve">
<style type="text/css">
	.belt-st0{fill:#7A5B4C;}
	.belt-st1{fill:#5E463A;}
	.belt-st2{fill:#FF7701;}
	.belt-st3{fill:#FDD701;}
</style>
<g>
	<g>
		<path d="M234.7,303.4l-2.5,0.1c-0.9,0-89.3,5-115.6-0.6l-2.6-0.6l-0.4,2.7c-0.9,6.6-1.6,18.1,3.4,20.4c2.5,1.1,30,3,58.2,3
			c22.4,0,45.2-1.2,56.6-4.9l0.4-0.1l0.3-0.3c2.3-1.8,3.1-7.6,2.4-17.3L234.7,303.4z M229.4,319.1c-24.8,7.4-104.5,3.4-110.3,1.8
			c-1-1.1-1.4-6.6-0.8-12.5c27.1,4.5,97.3,1.1,111.8,0.3C230.2,313.3,230,317.6,229.4,319.1z"/>
		<path class="belt-st0" d="M116.1,305.4c0,0-2.1,15.9,2,17.7s88.1,6.1,112.9-1.9c2.4-1.8,1.4-15.1,1.4-15.1S143.1,311.1,116.1,305.4z"/>
		<path class="belt-st1" d="M197.5,307.5c-4.9,4.6-11.4,7.8-19.8,9.2c-10.4,1.7-20.8,0.3-31.2,0.4c-10.3,0.1-20.8,0.7-30.9-1.2
			c0.2,3.4,0.8,6.5,2.5,7.3c4.1,1.8,88.1,6.1,112.9-1.9c2.4-1.8,1.4-15.1,1.4-15.1S217.2,306.9,197.5,307.5z"/>
	</g>
	<g>
		<path d="M169.2,299c-0.7-0.2-1.4-0.3-2-0.3l-23.4-0.7c-5.4-0.1-10.3,4.1-10.8,9.6l-0.1,0.1v0.9l-1.5,17.8
			c-0.2,2.9,0.7,5.7,2.6,7.8c1.9,2.1,4.5,3.3,7.3,3.4l25,0.7c0.1,0,0.2,0,0.3,0c5.7,0,10.6-4.5,11.1-10.3l1.5-17.9
			c0.2-2.9-0.7-5.7-2.5-7.8C174.7,300.3,172.1,299.1,169.2,299z M172.6,327.7c-0.3,3.2-3.1,5.8-6.3,5.7l-25-0.7
			c-1.5,0-2.8-0.6-3.7-1.7c-1-1.1-1.4-2.5-1.3-4l1.4-17l0.1-1.7c0.2-2.9,2.8-5.2,5.7-5.1l23.4,0.7c0.4,0,0.7,0.1,1.2,0.2l0.3,0.1
			l0.6,0c1.5,0,2.8,0.6,3.7,1.7c1,1.1,1.4,2.5,1.3,4L172.6,327.7z"/>
		<path d="M166,306.1l-19.8-0.6c-3.3-0.1-6.2,2.3-6.5,5.4l-1.1,13.5c-0.1,1.5,0.4,2.9,1.4,4.1c1.1,1.2,2.7,1.9,4.4,2l19.8,0.6h0
			c0.1,0,0.1,0,0.2,0c0.7,0,1.4-0.1,2.1-0.3l0.3-0.1l0.3-0.2c1.8-1.1,2.9-3,3.1-5l1.3-15.9l-0.4-0.7
			C170,307.2,168.1,306.2,166,306.1z M165.1,325.1c0,0.4-0.2,0.7-0.5,1c-0.1,0-0.2,0-0.3,0l-19.8-0.6c-0.3,0-0.6-0.1-0.8-0.3
			c-0.1-0.1-0.1-0.2-0.1-0.3l1.1-13.5c0-0.4,0.6-0.9,1.3-0.8l19.8,0.6c0.2,0,0.3,0,0.4,0.1L165.1,325.1z"/>
		<path class="belt-st2" d="M169.2,301.5l-25-0.7c-4.5-0.1-8.4,3.4-8.8,8l-1.5,17.9c-0.4,4.5,2.9,8.3,7.4,8.5l25,0.7
			c4.5,0.1,8.4-3.4,8.8-8l1.5-17.9C177,305.4,173.6,301.6,169.2,301.5z M168.2,325.5c-0.2,1.8-1.9,3.2-3.9,3.1l-19.8-0.6
			c-2-0.1-3.5-1.6-3.3-3.3l1.1-13.5c0.2-1.8,1.9-3.2,3.9-3.1l19.8,0.6c2,0.1,3.5,1.6,3.3,3.3L168.2,325.5z"/>
		<path class="belt-st3" d="M167.1,301.2l-23.4-0.7c-4.2-0.1-7.9,3.2-8.3,7.4l-1.4,16.7c-0.4,4.2,2.8,7.8,7,7.9l23.4,0.7
			c4.2,0.1,7.9-3.2,8.3-7.4l1.4-16.7C174.5,304.9,171.3,301.3,167.1,301.2z M167.6,325.3c-0.2,2.1-2,3.8-4.1,3.7l-20.9-0.6
			c-2.1-0.1-3.7-1.8-3.5-3.9l1.3-15.9c0.2-2.1,2-3.8,4.1-3.7l20.9,0.6c2.1,0.1,3.7,1.8,3.5,3.9L167.6,325.3z"/>
	</g>
</g>
</svg>
