<?xml version="1.0" encoding="utf-8"?>
<!-- Generator: Adobe Illustrator 26.0.3, SVG Export Plug-In . SVG Version: 6.00 Build 0)  -->
<svg version="1.1" id="Layer_1" xmlns="http://www.w3.org/2000/svg" xmlns:xlink="http://www.w3.org/1999/xlink" x="0px" y="0px"
	 viewBox="0 0 384 400" style="enable-background:new 0 0 384 400;" xml:space="preserve">
<style type="text/css">
	.belt-st0{fill:#7A5B4C;}
	.belt-st1{fill:#5E463A;}
	.belt-st2{fill:#B5B5B5;}
	.belt-st3{fill:#E0E0E0;}
</style>
<g>
	<g>
		<path d="M227.7,298.2l-2.3,0.1c-0.8,0-81.9,4.6-106-0.6l-2.4-0.5l-0.3,2.4c-0.8,6.1-1.5,16.6,3.2,18.7c2.3,1,27.5,2.8,53.3,2.8
			c20.5,0,41.5-1.1,51.8-4.5l0.4-0.1l0.3-0.2c2.1-1.6,2.8-6.9,2.2-15.9L227.7,298.2z M222.9,312.6c-22.7,6.8-95.8,3.1-101.2,1.6
			c-1-1-1.3-6.1-0.8-11.5c24.9,4.1,89.2,1,102.5,0.3C223.6,307.3,223.4,311.2,222.9,312.6z"/>
		<path class="belt-st0" d="M119,300.1c0,0-2,14.6,1.8,16.3c3.8,1.7,80.8,5.6,103.5-1.8c2.2-1.7,1.3-13.9,1.3-13.9S143.7,305.3,119,300.1
			z"/>
		<path class="belt-st1" d="M193.6,302c-4.5,4.2-10.5,7.1-18.2,8.4c-9.5,1.6-19,0.3-28.6,0.4c-9.4,0.1-19,0.6-28.3-1.1
			c0.1,3.1,0.7,6,2.3,6.7c3.8,1.7,80.8,5.6,103.5-1.8c2.2-1.7,1.3-13.9,1.3-13.9S211.7,301.4,193.6,302z"/>
		<polygon points="198.9,319.5 202.7,318.5 200.4,312.9 		"/>
		<polygon points="189.4,307.9 191,301.3 187.1,302.3 		"/>
	</g>
	<g>
		<path d="M167.7,294.2c-0.7-0.2-1.3-0.3-1.9-0.3l-21.5-0.6c-5-0.2-9.4,3.8-9.9,8.8l-0.1,0.1v0.9l-1.4,16.4
			c-0.2,2.7,0.6,5.2,2.3,7.1c1.7,1.9,4.1,3,6.7,3.1l22.9,0.7c0.1,0,0.2,0,0.3,0c5.2,0,9.7-4.2,10.2-9.4l1.4-16.5
			c0.2-2.7-0.6-5.2-2.3-7.1C172.7,295.4,170.3,294.3,167.7,294.2z M170.8,320.5c-0.3,3-2.8,5.3-5.7,5.2l-22.9-0.7
			c-1.3,0-2.6-0.6-3.4-1.6c-0.9-1-1.3-2.3-1.2-3.7l1.3-15.6l0.1-1.6c0.2-2.7,2.6-4.8,5.2-4.7l21.5,0.6c0.3,0,0.7,0.1,1.1,0.2
			l0.3,0.1l0.5,0c1.3,0,2.6,0.6,3.4,1.6c0.9,1,1.3,2.3,1.2,3.7L170.8,320.5z"/>
		<path d="M164.8,300.7l-18.2-0.5c-3.1-0.1-5.7,2.1-5.9,5l-1,12.4c-0.1,1.4,0.3,2.7,1.3,3.7c1,1.1,2.5,1.8,4,1.8l18.2,0.5
			c0.1,0,0.1,0,0.2,0c0.7,0,1.3-0.1,1.9-0.3l0.3-0.1l0.2-0.1c1.6-1,2.7-2.7,2.8-4.6l1.2-14.5l-0.4-0.6
			C168.4,301.7,166.7,300.8,164.8,300.7z M163.9,318.1c0,0.3-0.2,0.7-0.5,0.9c-0.1,0-0.2,0-0.2,0l-18.2-0.5c-0.3,0-0.6-0.1-0.7-0.3
			c-0.1-0.1-0.1-0.2-0.1-0.3l1-12.4c0-0.4,0.5-0.8,1.2-0.8c0,0,0,0,0,0l18.2,0.5c0.1,0,0.3,0,0.4,0.1L163.9,318.1z"/>
		<path class="belt-st2" d="M167.6,296.5l-22.9-0.7c-4.1-0.1-7.7,3.1-8.1,7.3l-1.4,16.5c-0.4,4.2,2.7,7.6,6.8,7.8L165,328
			c4.1,0.1,7.7-3.1,8.1-7.3l1.4-16.5C174.8,300.1,171.7,296.6,167.6,296.5z M166.7,318.5c-0.1,1.6-1.7,2.9-3.6,2.9l-18.2-0.5
			c-1.8-0.1-3.2-1.4-3.1-3.1l1-12.4c0.1-1.6,1.7-2.9,3.6-2.9l18.2,0.5c1.8,0.1,3.2,1.4,3.1,3.1L166.7,318.5z"/>
		<path class="belt-st3" d="M165.7,296.2l-21.5-0.6c-3.9-0.1-7.3,2.9-7.6,6.8l-1.3,15.3c-0.3,3.9,2.5,7.1,6.4,7.2l21.5,0.6
			c3.9,0.1,7.3-2.9,7.6-6.8l1.3-15.3C172.5,299.6,169.6,296.3,165.7,296.2z M166.2,318.3c-0.2,1.9-1.9,3.5-3.8,3.4l-19.1-0.6
			c-1.9-0.1-3.4-1.7-3.2-3.6l1.2-14.6c0.2-1.9,1.9-3.5,3.8-3.4l19.1,0.6c1.9,0.1,3.4,1.7,3.2,3.6L166.2,318.3z"/>
	</g>
</g>
</svg>
