<?xml version="1.0" encoding="utf-8"?>
<!-- Generator: Adobe Illustrator 26.0.3, SVG Export Plug-In . SVG Version: 6.00 Build 0)  -->
<svg version="1.1" id="Layer_1" xmlns="http://www.w3.org/2000/svg" xmlns:xlink="http://www.w3.org/1999/xlink" x="0px" y="0px"
	 viewBox="0 0 384 400" style="enable-background:new 0 0 384 400;" xml:space="preserve">
<style type="text/css">
	.belt-st0{fill:#7A5B4C;}
	.belt-st1{fill:#5E463A;}
	.belt-st2{opacity:0.62;}
	.belt-st3{fill:#B0836E;}
</style>
<g>
	<g>
		<path d="M227.7,299.9l-2.3,0.1c-0.8,0-81.9,4.6-106-0.6L117,299l-0.3,2.4c-0.8,6.1-1.5,16.6,3.2,18.7c2.3,1,27.5,2.8,53.3,2.8
			c20.5,0,41.5-1.1,51.8-4.5l0.4-0.1l0.3-0.2c2.1-1.6,2.8-6.9,2.2-15.9L227.7,299.9z M222.9,314.2c-22.7,6.8-95.8,3.1-101.2,1.6
			c-1-1-1.3-6.1-0.8-11.5c24.9,4.1,89.2,1,102.5,0.3C223.6,308.9,223.4,312.9,222.9,314.2z"/>
		<path class="belt-st0" d="M119,301.7c0,0-2,14.6,1.8,16.3s80.8,5.6,103.5-1.8c2.2-1.7,1.3-13.9,1.3-13.9S143.7,307,119,301.7z"/>
		<path class="belt-st1" d="M193.6,303.7c-4.5,4.2-10.5,7.1-18.2,8.4c-9.5,1.6-19,0.3-28.6,0.4c-9.4,0.1-19,0.6-28.3-1.1
			c0.1,3.1,0.7,6,2.3,6.7c3.8,1.7,80.8,5.6,103.5-1.8c2.2-1.7,1.3-13.9,1.3-13.9S211.7,303.1,193.6,303.7z"/>
		<polygon points="141.7,321.1 149.7,320.6 145,317.9 		"/>
		<polygon points="190.7,321.9 195.7,321.2 192.7,317.4 		"/>
		<polygon points="138.5,309.1 140.5,303.1 136.2,303.5 		"/>
	</g>
	<g>
		<g class="belt-st2">
			<path class="belt-st3" d="M128,307.4c-2.2,0-3.9,2-3.9,4.5c0,2.5,1.7,4.5,3.9,4.5c2.2,0,3.9-2,3.9-4.5
				C131.9,309.4,130.2,307.4,128,307.4z"/>
		</g>
		<g>
			<ellipse cx="128.2" cy="311.4" rx="3.2" ry="3.3"/>
		</g>
	</g>
	<g>
		<g class="belt-st2">
			<path class="belt-st3" d="M148.3,308.3c-2.2,0-3.9,2-3.9,4.5c0,2.5,1.7,4.5,3.9,4.5c2.2,0,3.9-2,3.9-4.5
				C152.2,310.3,150.5,308.3,148.3,308.3z"/>
		</g>
		<g>
			<path d="M148.5,309c-1.7,0-3.2,1.5-3.2,3.3c0,1.8,1.4,3.3,3.2,3.3s3.2-1.5,3.2-3.3C151.6,310.4,150.2,309,148.5,309z"/>
		</g>
	</g>
	<g>
		<g class="belt-st2">
			<path class="belt-st3" d="M169.4,308.3c-2.2,0-3.9,2-3.9,4.5c0,2.5,1.7,4.5,3.9,4.5c2.2,0,3.9-2,3.9-4.5
				C173.3,310.4,171.5,308.3,169.4,308.3z"/>
		</g>
		<g>
			<path d="M169.6,309c-1.7,0-3.2,1.5-3.2,3.3c0,1.8,1.4,3.3,3.2,3.3s3.2-1.5,3.2-3.3C172.7,310.5,171.3,309,169.6,309z"/>
		</g>
	</g>
	<g>
		<g class="belt-st2">
			<path class="belt-st3" d="M197.2,307.8c-2.2,0-3.9,2-3.9,4.5s1.7,4.5,3.9,4.5c2.2,0,3.9-2,3.9-4.5S199.4,307.8,197.2,307.8z"/>
		</g>
		<g>
			<path d="M197.4,308.5c-1.7,0-3.2,1.5-3.2,3.3s1.4,3.3,3.2,3.3s3.2-1.5,3.2-3.3S199.1,308.5,197.4,308.5z"/>
		</g>
	</g>
</g>
</svg>
