<?xml version="1.0" encoding="utf-8"?>
<!-- Generator: Adobe Illustrator 26.0.3, SVG Export Plug-In . SVG Version: 6.00 Build 0)  -->
<svg version="1.1" id="Layer_1" xmlns="http://www.w3.org/2000/svg" xmlns:xlink="http://www.w3.org/1999/xlink" x="0px" y="0px"
	 viewBox="0 0 384 400" style="enable-background:new 0 0 384 400;" xml:space="preserve">
<style type="text/css">
	.belt-st0{fill:#AB2C2F;}
	.belt-st1{fill:#4A1D1F;}
</style>
<g>
	<g>
		<g>
			<path d="M219,309.2C219,309.2,219,309.2,219,309.2c-2.4,0-5.8,1.1-8.7,6.2c-1.1,1.7,0.5,4.4,1.1,5.2c1.1,1.6,3.1,3.5,6.7,3.4
				c2.3,0,5.2-0.8,8.9-2.9l0.6-0.3l0.3-0.6c0.9-1.5,0.7-3.5-0.5-5.7C226,312.1,222.9,309.2,219,309.2z M216.7,318.8
				c-0.8-0.4-1.3-1.1-1.5-1.6c1.1-1.7,2.7-3.3,4.6-2.8c1.7,0.4,3.1,2.1,3.5,3.2C220.4,319,218.1,319.4,216.7,318.8z"/>
			<path class="belt-st0" d="M212.4,316.8c0,0,1.5,9.1,13.4,2.2C227.4,316.3,218.8,305.5,212.4,316.8z"/>
			<path class="belt-st1" d="M224.9,318c-4.9,1.1-5.9-0.3-9.5-3.8c-0.2-0.2-0.3-0.4-0.5-0.6c-0.9,0.8-1.7,1.8-2.5,3.1
				c0,0,1.5,9.1,13.4,2.2c0.2-0.3,0.2-0.7,0-1.2C225.5,317.9,225.2,318,224.9,318z"/>
		</g>
		<g>
			<path d="M206.2,310.8c-2.9-0.1-7,0.9-10.2,6c-1.1,1.6,0.2,3.1,0.8,3.9c1.2,1.4,4.6,4.7,10.3,4.7c2.7,0,5.9-0.7,9.5-2.7l0.6-0.3
				l0.3-0.6c0.4-0.7,1-2.2-0.1-4.3C215.8,314.3,211.1,310.9,206.2,310.8z M201.2,318.1c1.6-1.8,3.4-2.6,5.6-2.2
				c2.5,0.4,4.7,2,5.7,3.2C206.4,321.7,202.8,319.6,201.2,318.1z"/>
			<path class="belt-st0" d="M198.1,318.2c-0.1,0,5.3,8.8,17.4,2.2C217.1,317.8,204.9,307.1,198.1,318.2z"/>
			<path class="belt-st1" d="M214,320.3c-1.5,0.4-3,0.3-4.6,0.1c-2.1-0.2-4.3-0.1-6.4-0.5c-1.7-0.3-3.5-0.9-4.8-2
				c-0.1,0.1-0.1,0.2-0.2,0.2c-0.1,0,5.3,8.8,17.4,2.2c0.2-0.2,0.2-0.6,0.1-0.9C215.1,319.8,214.6,320.1,214,320.3z"/>
		</g>
	</g>
	<g>
		<g>
			<path d="M192.1,311.9c-2.9-0.2-7,0.6-10.4,5.6c-1.2,1.6,0.1,3.2,0.7,3.9c1.2,1.5,4.6,5.1,10.7,5.1c2.6,0,5.6-0.6,9.1-2.4l0.6-0.3
				l0.4-0.5c0.5-0.7,1.1-2.1,0-4.3C201.5,315.7,197,312.2,192.1,311.9z M186.9,319c1.6-1.8,3.5-2.4,5.7-2c2.5,0.5,4.6,2.2,5.6,3.4
				C191.9,322.8,188.4,320.6,186.9,319z"/>
			<path class="belt-st0" d="M183.7,319c-0.1,0,5,9,17.3,2.9C202.7,319.3,190.9,308.2,183.7,319z"/>
			<path class="belt-st1" d="M200.2,320.8c-4.9,0.8-10-0.4-13.3-4.2c-0.2-0.2-0.3-0.4-0.4-0.6c-0.9,0.7-1.9,1.7-2.7,2.9
				c-0.1,0,5,9,17.3,2.9c0.2-0.3,0.2-0.7,0.1-1.2C200.8,320.7,200.5,320.8,200.2,320.8z"/>
		</g>
		<g>
			<path d="M178,312.5c-2.9-0.3-7,0.3-10.6,5.2c-1.2,1.5-0.1,3.2,0.5,3.9c1.1,1.6,4.7,5.6,11.1,5.6c2.4,0,5.3-0.6,8.6-2l0.6-0.3
				l0.4-0.5c0.5-0.7,1.2-2.1,0.2-4.3C187.2,316.7,182.8,313,178,312.5z M172.5,319.4c1.7-1.7,3.6-2.3,5.7-1.8
				c2.4,0.6,4.5,2.4,5.4,3.7C177.4,323.4,174,321,172.5,319.4z"/>
			<path class="belt-st0" d="M169.3,319.2c-0.1,0,4.6,9.2,17.1,3.6C188.3,320.3,177,308.7,169.3,319.2z"/>
			<path class="belt-st1" d="M180.5,322.4c-2.1-0.4-4.3-0.4-6.4-1c-1.7-0.5-3.4-1.2-4.6-2.4c-0.1,0.1-0.1,0.1-0.2,0.2
				c-0.1,0,4.6,9.2,17.1,3.6c0.2-0.2,0.2-0.5,0.2-0.9c-0.5,0.3-1,0.6-1.6,0.7C183.5,322.9,182,322.6,180.5,322.4z"/>
		</g>
	</g>
	<g>
		<g>
			<path d="M161.9,311.4c-2.8-0.4-7,0-10.8,4.7c-1.3,1.5-0.2,3.2,0.3,3.9c1.1,1.7,4.6,6.1,11.5,6.1c2.3,0,4.9-0.5,7.9-1.7l0.6-0.2
				l0.4-0.5c0.5-0.6,1.2-2.1,0.4-4.3C170.9,316.1,166.7,312.2,161.9,311.4z M156.1,318.1c1.8-1.6,3.7-2.1,5.8-1.5
				c2.4,0.7,4.4,2.6,5.3,3.9C160.8,322.3,157.5,319.8,156.1,318.1z"/>
			<path class="belt-st0" d="M153,317.8c-0.1,0,4.2,9.4,16.9,4.3C171.8,319.7,161,307.7,153,317.8z"/>
			<path class="belt-st1" d="M169.2,321c-5,0.4-9.9-1.3-12.9-5.3c-0.2-0.2-0.3-0.4-0.4-0.6c-1,0.6-2,1.5-3,2.7c-0.1,0,4.2,9.4,16.9,4.3
				c0.2-0.3,0.3-0.7,0.2-1.2C169.8,321,169.4,321,169.2,321z"/>
		</g>
		<g>
			<path d="M147.8,310.8c-2.8-0.5-7-0.2-11,4.3c-1.4,1.4-0.3,3.1,0.2,4c1.1,1.8,4.6,6.5,11.9,6.5c2.1,0,4.5-0.4,7.3-1.4l0.6-0.2
				l0.4-0.5c0.5-0.6,1.3-2,0.5-4.3C156.6,315.8,152.6,311.8,147.8,310.8z M141.7,317.3c1.8-1.6,3.8-2,5.8-1.3
				c2.4,0.8,4.3,2.8,5.1,4.1C146.3,321.7,143.1,319,141.7,317.3z"/>
			<path class="belt-st0" d="M138.6,316.9c-0.1,0,3.8,9.5,16.7,5C157.4,319.5,147.1,307,138.6,316.9z"/>
			<path class="belt-st1" d="M149.5,320.9c-2.1-0.6-4.2-0.8-6.2-1.5c-1.6-0.6-3.3-1.5-4.4-2.8c-0.1,0.1-0.1,0.1-0.2,0.2
				c-0.1,0,3.8,9.5,16.7,5c0.2-0.2,0.3-0.5,0.3-0.9c-0.5,0.3-1.1,0.5-1.7,0.6C152.4,321.7,150.9,321.3,149.5,320.9z"/>
		</g>
	</g>
	<g>
		<g>
			<path d="M134.8,308.8c-2.8-0.6-7-0.5-11.1,3.9c-1.4,1.4-0.4,3.1,0,4c1,1.9,4.6,6.9,12.3,6.9c2,0,4.2-0.3,6.7-1.1l0.6-0.2l0.5-0.5
				c0.6-0.6,1.4-2,0.7-4.3C143.5,314.1,139.6,309.9,134.8,308.8z M128.6,315c1.9-1.5,3.8-1.8,5.9-1.1c2.4,0.8,4.2,2.9,4.9,4.3
				C132.9,319.6,129.8,316.8,128.6,315z"/>
			<path class="belt-st0" d="M125.5,314.5c-0.1-0.1,3.5,9.7,16.5,5.6C144.1,317.8,134.3,305,125.5,314.5z"/>
			<path class="belt-st1" d="M141.4,318.9c-5,0-9.8-2-12.4-6.3c-0.1-0.2-0.2-0.4-0.3-0.7c-1,0.6-2.1,1.4-3.2,2.5
				c-0.1-0.1,3.5,9.7,16.5,5.6c0.3-0.3,0.4-0.7,0.3-1.2C142,318.9,141.7,318.9,141.4,318.9z"/>
		</g>
		<g>
			<path d="M123.6,307.5c-2.3-0.6-5.8-0.4-10,3.8c-1.6,1.5-0.5,4.7-0.2,5.4c0.8,2.2,3,5.4,8.8,5.4c1.7,0,3.7-0.3,6-0.9l0.6-0.2
				l0.5-0.5c1.2-1.2,1.6-3.3,0.9-5.7C129.6,312,127.4,308.5,123.6,307.5z M117,314.9L117,314.9c0.1-0.1,0.1-0.1,0.2-0.2
				C117.1,314.8,117.1,314.9,117,314.9z M118.9,316.1c-0.7-0.6-1-1.4-1-2c1.5-1.4,3.5-2.5,5.1-1.5c1.6,0.9,2.4,2.9,2.6,4
				C122.4,317.3,120.1,317.1,118.9,316.1z"/>
			<path class="belt-st0" d="M115.3,313.1c0-0.1-0.9,9.1,12.2,5.6C129.8,316.5,124.4,303.8,115.3,313.1z"/>
			<path class="belt-st1" d="M121.8,317.3c-2-0.7-4.1-1.1-6.1-2c0,0-0.1,0-0.1,0c0.7,2.4,3.2,5.7,12,3.4c0.2-0.2,0.3-0.5,0.3-0.9
				c-0.5,0.2-1.1,0.4-1.7,0.4C124.7,318.3,123.2,317.8,121.8,317.3z"/>
			<path class="belt-st1" d="M115.3,313.1c0,0-0.1,0.5,0,1.3c0.3-0.4,0.7-0.8,0.2-1.5C115.5,313,115.4,313,115.3,313.1z"/>
			<path class="belt-st1" d="M115.6,315.3c-0.1-0.3-0.2-0.6-0.2-0.9C115.1,314.7,114.9,315,115.6,315.3z"/>
		</g>
	</g>
</g>
</svg>
