<?xml version="1.0" encoding="utf-8"?>
<!-- Generator: Adobe Illustrator 26.0.3, SVG Export Plug-In . SVG Version: 6.00 Build 0)  -->
<svg version="1.1" id="Layer_1" xmlns="http://www.w3.org/2000/svg" xmlns:xlink="http://www.w3.org/1999/xlink" x="0px" y="0px"
	 viewBox="0 0 384 400" style="enable-background:new 0 0 384 400;" xml:space="preserve">
<style type="text/css">
	.belt-st0{fill:#B5B5B5;}
	.belt-st1{fill:#E0E0E0;}
	.belt-st2{fill:#AB2C2F;}
	.belt-st3{opacity:0.7;fill:#4A1D1F;}
</style>
<g>
	<g>
		<path d="M113.9,305c-3.5,0-6.3,2.8-6.3,6.3c0,3.5,2.8,6.3,6.3,6.3c3.5,0,6.3-2.8,6.3-6.3C120.2,307.8,117.4,305,113.9,305z"/>
		<path class="belt-st0" d="M113.9,306.7c-2.6,0-4.6,2.1-4.6,4.6c0,2.6,2.1,4.6,4.6,4.6s4.6-2.1,4.6-4.6
			C118.5,308.7,116.4,306.7,113.9,306.7z"/>
		<path class="belt-st1" d="M111.1,307.8c-0.8,0-1.4,1.4-1.4,3.1s0.6,3.1,1.4,3.1c0.8,0,1.4-1.4,1.4-3.1S111.9,307.8,111.1,307.8z"/>
	</g>
	<g>
		<path d="M227.6,300.6l-2.3,0.1c-0.8,0-84.3,4.7-109.2-0.6l-2.5-0.5l-0.3,2.5c-0.8,6.3-1.6,17.1,3.2,19.2
			c2.4,1.1,28.3,2.8,54.9,2.8c21.1,0,42.7-1.1,53.4-4.6l0.4-0.1l0.3-0.2c2.2-1.7,2.9-7.2,2.2-16.3L227.6,300.6z M222.6,315.4
			c-23.4,7-98.7,3.2-104.2,1.7c-1-1-1.3-6.3-0.8-11.8c25.6,4.3,91.9,1,105.5,0.3C223.4,309.9,223.2,314,222.6,315.4z"/>
		<path class="belt-st2" d="M115.6,302.5c0,0-2,15,1.9,16.8c3.9,1.7,83.2,5.8,106.6-1.8c2.2-1.7,1.3-14.3,1.3-14.3
			S141.1,307.9,115.6,302.5z"/>
		<path class="belt-st3" d="M192.5,304.5c-4.7,4.3-10.8,7.4-18.7,8.7c-9.8,1.6-19.6,0.3-29.5,0.4c-9.7,0.1-19.6,0.7-29.1-1.2
			c0.2,3.2,0.8,6.2,2.3,6.9c3.9,1.7,83.2,5.8,106.6-1.8c2.2-1.7,1.3-14.3,1.3-14.3S211.1,303.9,192.5,304.5z"/>
	</g>
	<g>
		<path d="M127.4,305.7c-3.5,0-6.3,2.8-6.3,6.3c0,3.5,2.8,6.3,6.3,6.3c3.5,0,6.3-2.8,6.3-6.3C133.7,308.6,130.9,305.7,127.4,305.7z"
			/>
		<path class="belt-st0" d="M127.4,307.4c-2.6,0-4.6,2.1-4.6,4.6c0,2.6,2.1,4.6,4.6,4.6c2.6,0,4.6-2.1,4.6-4.6
			C132,309.5,130,307.4,127.4,307.4z"/>
		<path class="belt-st1" d="M127,308.3c-1.5,0-2.7,1.2-2.7,2.7c0,1.5,1.2,2.7,2.7,2.7c1.5,0,2.7-1.2,2.7-2.7
			C129.7,309.5,128.5,308.3,127,308.3z"/>
	</g>
	<g>
		<path d="M151.6,307.3c-3.5,0-6.3,2.8-6.3,6.3c0,3.5,2.8,6.3,6.3,6.3c3.5,0,6.3-2.8,6.3-6.3C157.9,310.1,155.1,307.3,151.6,307.3z"
			/>
		<path class="belt-st0" d="M151.6,308.9c-2.6,0-4.6,2.1-4.6,4.6s2.1,4.6,4.6,4.6s4.6-2.1,4.6-4.6S154.1,308.9,151.6,308.9z"/>
		<path class="belt-st1" d="M151.2,309.8c-1.5,0-2.7,1.2-2.7,2.7c0,1.5,1.2,2.7,2.7,2.7c1.5,0,2.7-1.2,2.7-2.7
			C153.8,311,152.6,309.8,151.2,309.8z"/>
	</g>
	<g>
		<path d="M178.4,307.2c-3.5,0-6.3,2.8-6.3,6.3c0,3.5,2.8,6.3,6.3,6.3c3.5,0,6.3-2.8,6.3-6.3C184.7,310,181.9,307.2,178.4,307.2z"/>
		<path class="belt-st0" d="M178.4,308.8c-2.6,0-4.6,2.1-4.6,4.6c0,2.6,2.1,4.6,4.6,4.6s4.6-2.1,4.6-4.6
			C183.1,310.9,181,308.8,178.4,308.8z"/>
		<path class="belt-st1" d="M178,309.7c-1.5,0-2.7,1.2-2.7,2.7c0,1.5,1.2,2.7,2.7,2.7c1.5,0,2.7-1.2,2.7-2.7
			C180.7,310.9,179.5,309.7,178,309.7z"/>
	</g>
	<g>
		<path d="M206.4,306c-3.5,0-6.3,2.8-6.3,6.3c0,3.5,2.8,6.3,6.3,6.3s6.3-2.8,6.3-6.3C212.7,308.8,209.9,306,206.4,306z"/>
		<path class="belt-st0" d="M206.4,307.7c-2.6,0-4.6,2.1-4.6,4.6s2.1,4.6,4.6,4.6s4.6-2.1,4.6-4.6S209,307.7,206.4,307.7z"/>
		<path class="belt-st1" d="M206,308.5c-1.5,0-2.7,1.2-2.7,2.7c0,1.5,1.2,2.7,2.7,2.7c1.5,0,2.7-1.2,2.7-2.7
			C208.6,309.7,207.5,308.5,206,308.5z"/>
	</g>
</g>
</svg>
