<?xml version="1.0" encoding="utf-8"?>
<!-- Generator: Adobe Illustrator 26.0.3, SVG Export Plug-In . SVG Version: 6.00 Build 0)  -->
<svg version="1.1" id="Layer_1" xmlns="http://www.w3.org/2000/svg" xmlns:xlink="http://www.w3.org/1999/xlink" x="0px" y="0px"
	 viewBox="0 0 384 400" style="enable-background:new 0 0 384 400;" xml:space="preserve">
<style type="text/css">
	.neck-st0{fill:#9E9E9E;}
</style>
<g>
	<g>
		<path class="neck-st0" d="M125.7,275.2c-3.6,4.9,7.5,17.7,16.2,10.1C150.4,277.6,133.6,264.3,125.7,275.2z M137.8,282
			c-3.9,3.4-8.9-2.3-7.2-4.5C134.1,272.6,141.7,278.6,137.8,282z"/>
		<path d="M135,274.7c-2.1-0.4-4,0.4-5.3,2.2c-1.2,1.6-0.1,4.1,1.5,5.5c1,0.9,2.4,1.6,3.9,1.6c1.1,0,2.2-0.4,3.3-1.3
			c1.2-1.1,1.7-2.5,1.3-4C139.2,276.8,137.2,275.1,135,274.7z M137.8,282L137.8,282L137.8,282z M137.1,281.3c-2,1.8-4,0.2-4.5-0.3
			c-1.2-1.1-1.6-2.4-1.2-2.9c0.8-1.1,1.8-1.4,2.7-1.4c0.2,0,0.4,0,0.6,0.1c1.5,0.3,2.8,1.4,3.1,2.6C138,280,137.8,280.7,137.1,281.3
			z"/>
		<path d="M135.4,270.3c-4.2-0.8-7.9,0.8-10.5,4.3c-2.2,3,0,7.8,3.2,10.7c2,1.8,4.9,3.3,7.9,3.3c2.1,0,4.4-0.7,6.5-2.6
			c2.4-2.1,3.2-4.9,2.4-7.7C143.8,274.5,139.8,271.1,135.4,270.3z M125.7,275.2L125.7,275.2L125.7,275.2z M141.1,284.5
			c-4.1,3.6-8.7,2-11.7-0.7c-2.9-2.7-4.3-6.3-2.9-8.1c2.2-3,4.9-3.7,6.9-3.7c0.6,0,1.2,0.1,1.6,0.1c3.7,0.7,7.1,3.5,8,6.6
			C143.6,281,142.9,282.9,141.1,284.5z"/>
	</g>
	<g>
		<path class="neck-st0" d="M141.5,289.3c-3.6,4.9,7.5,17.7,16.2,10.1C166.3,291.7,149.5,278.4,141.5,289.3z M153.7,296.1
			c-3.9,3.4-8.9-2.3-7.2-4.5C150,286.7,157.6,292.6,153.7,296.1z"/>
		<path d="M151.3,284.3c-4.2-0.8-7.9,0.8-10.5,4.3c-2.2,3,0,7.8,3.2,10.7c2,1.8,4.9,3.3,7.9,3.3c2.1,0,4.4-0.7,6.5-2.6
			c2.4-2.1,3.2-4.9,2.4-7.7C159.7,288.5,155.7,285.2,151.3,284.3z M157,298.6c-4.1,3.6-8.7,2-11.7-0.7c-2.9-2.7-4.3-6.3-3-8.1
			c2.9-3.9,6.6-3.9,8.6-3.6c3.7,0.7,7.1,3.5,8,6.6C159.5,295,158.8,297,157,298.6z"/>
		<path d="M150.9,288.8c-2.1-0.4-4,0.4-5.3,2.2c-1.2,1.6-0.1,4.1,1.5,5.5c1,0.9,2.4,1.6,3.9,1.6c1.1,0,2.2-0.4,3.3-1.3
			c1.2-1.1,1.7-2.5,1.3-4C155.1,290.9,153.1,289.2,150.9,288.8z M153,295.3c-2,1.8-4,0.2-4.5-0.3c-1.2-1-1.6-2.4-1.2-2.9
			c0.8-1.1,1.8-1.4,2.7-1.4c0.2,0,0.4,0,0.6,0.1c1.5,0.3,2.8,1.4,3.1,2.6C153.9,294.1,153.7,294.8,153,295.3z"/>
	</g>
	<g>
		<path class="neck-st0" d="M135.9,280c-3.7,1.2,12.1,14,13.3,12.9C152.8,289.4,139.8,278.7,135.9,280z"/>
		<path d="M135.6,279c-0.8,0.2-1.2,0.8-1.3,1.6c-0.2,3.4,10.3,11.5,13.3,12.9c0.3,0.1,0.8,0.4,1.3,0.4c0.3,0,0.7-0.1,0.9-0.4
			c0.7-0.7,1.7-2.4-0.1-5.3C147.3,284,139.3,277.8,135.6,279z M148.7,291.9c-2.5-0.8-11.9-8.7-12.4-11c2.3-0.4,9.2,4.1,11.8,8.3
			C148.6,290.1,149.1,291.2,148.7,291.9z"/>
	</g>
	<g>
		<path class="neck-st0" d="M181.2,293.4c5.9,9.9,20.4,1.1,18.4-4.7C195.4,275.9,175.4,283.5,181.2,293.4z M186,291.5
			c-2.6-4.5,6.3-7.8,8.3-2.1C195.2,292,188.7,296,186,291.5z"/>
		<path d="M191.9,281.1c-4.5-0.6-9.3,1.4-11.5,4.8c-1.6,2.5-1.6,5.4,0,8.1c2.2,3.6,5.4,4.9,8.5,4.9c1.9,0,3.8-0.5,5.4-1.2
			c4-1.8,7.5-5.7,6.3-9.2C199.2,284.2,196.1,281.6,191.9,281.1z M193.5,295.8c-3.7,1.7-8.6,1.8-11.4-2.9c0,0,0,0,0,0
			c-1.2-2.1-1.2-4.1,0-6c1.6-2.4,5-4,8.3-4c0.4,0,0.9,0,1.3,0.1c2,0.3,5.5,1.4,7.1,6C199.4,291.1,197.1,294.2,193.5,295.8z"/>
		<path d="M190.9,285.5c-2.2-0.3-4.6,0.7-5.7,2.4c-0.8,1.3-0.8,2.8,0,4.2c1.1,1.8,2.7,2.5,4.3,2.5c1,0,1.9-0.2,2.7-0.6
			c2-0.9,3.8-2.9,3.1-4.8C194.6,287.1,193,285.7,190.9,285.5z M191.3,292.1c-0.7,0.3-3.1,1.2-4.4-1.1c-0.4-0.7-0.5-1.5,0-2.1
			c0.6-0.9,1.9-1.5,3.2-1.5c0.2,0,0.3,0,0.5,0c0.9,0.1,2.2,0.6,2.7,2.3C193.6,290.3,192.7,291.5,191.3,292.1z"/>
	</g>
	<g>
		<path class="neck-st0" d="M161.8,302c5.9,9.9,20.4,1.1,18.4-4.7C176,284.5,155.9,292.1,161.8,302z M166.6,300.1
			c-2.6-4.5,6.3-7.8,8.3-2.1C175.8,300.6,169.3,304.6,166.6,300.1z"/>
		<path d="M171.5,294c-2.2-0.3-4.6,0.7-5.7,2.4c-0.8,1.3-0.8,2.8,0,4.2c1.1,1.8,2.7,2.5,4.3,2.5c1,0,1.9-0.2,2.7-0.6
			c2-0.9,3.8-2.9,3.1-4.8C175.2,295.6,173.6,294.3,171.5,294z M171.9,300.7c-0.7,0.3-3.1,1.2-4.4-1.1c-0.4-0.7-0.5-1.5,0-2.1
			c0.6-0.9,1.9-1.5,3.2-1.5c0.2,0,0.3,0,0.5,0c0.9,0.1,2.2,0.6,2.7,2.3C174.2,298.9,173.3,300,171.9,300.7z"/>
		<path d="M172.5,289.7c-4.5-0.6-9.3,1.4-11.5,4.8c-1.6,2.5-1.6,5.4,0,8.1c2.2,3.6,5.4,4.9,8.5,4.9c1.9,0,3.8-0.5,5.4-1.2
			c4-1.8,7.5-5.7,6.3-9.2C179.8,292.8,176.7,290.2,172.5,289.7z M174.1,304.4c-3.7,1.7-8.6,1.8-11.4-2.9h0c-1.2-2.1-1.2-4.1,0-6
			c1.6-2.4,5-4,8.3-4c0.4,0,0.9,0,1.3,0.1c2,0.3,5.5,1.4,7.1,6C180,299.7,177.7,302.8,174.1,304.4z"/>
	</g>
	<g>
		<path class="neck-st0" d="M188.5,290.2c-3.3-2.4-19,3.8-16.6,8.2C172.7,299.9,191.7,292.5,188.5,290.2z"/>
		<path d="M189.1,289.4c-3.2-2.3-12.6,1.2-16.3,4.4c-2.6,2.3-2.2,4.2-1.7,5.1c0.3,0.6,1,0.7,1.5,0.7c0.3,0,0.5,0,0.6,0
			c3.4-0.4,15.8-5,16.6-8.3C190,290.5,189.7,289.8,189.1,289.4z M172.7,297.6c-0.1-0.8,0.6-1.7,1.4-2.3c3-2.7,9-4.7,12.2-4.7
			c0.7,0,1.2,0.1,1.6,0.3C186.7,293,175.3,297.6,172.7,297.6z M187.9,291C187.9,291,187.9,291,187.9,291l0.6-0.8L187.9,291z"/>
	</g>
	<g>
		<path class="neck-st0" d="M198.9,283c7.7,8.6,20.2-2.9,17.2-8.2C209.4,263.1,191.2,274.4,198.9,283z M203.2,280.2
			c-3.4-3.9,4.7-8.9,7.7-3.7C212.3,278.9,206.7,284.1,203.2,280.2z"/>
		<path d="M207,268.8c-4.5,0.3-8.9,3.2-10.4,6.9c-1.1,2.7-0.6,5.6,1.5,7.9v0c2.2,2.5,4.8,3.4,7.3,3.4c2.6,0,5.2-1,7.1-2.5
			c3.5-2.5,6.3-7,4.4-10.3C214.8,270.5,211.2,268.6,207,268.8z M211.4,283c-3.3,2.4-8.1,3.4-11.7-0.7c0,0,0,0,0,0
			c-1.6-1.8-2-3.8-1.2-5.8c1.2-3,4.9-5.4,8.7-5.7c0.2,0,0.4,0,0.6,0c2.1,0,5.3,0.7,7.5,4.5C216.3,277.3,214.6,280.7,211.4,283z"/>
		<path d="M211.8,276.1c-1.1-1.9-2.9-2.9-5-2.8c-2.2,0.1-4.4,1.6-5.1,3.4c-0.6,1.4-0.3,2.9,0.8,4.1c1.1,1.2,2.4,1.7,3.7,1.7
			c1.3,0,2.6-0.5,3.5-1.2C211.5,280.1,212.8,277.8,211.8,276.1L211.8,276.1z M208.5,279.8c-0.6,0.4-2.8,1.7-4.5-0.2
			c-0.6-0.6-0.7-1.3-0.4-2c0.5-1.2,1.9-2.1,3.4-2.2c0.1,0,0.2,0,0.2,0c0.9,0,2.1,0.3,2.9,1.8h0C210.4,277.6,209.8,278.9,208.5,279.8
			z"/>
	</g>
	<g>
		<path class="neck-st0" d="M205.4,278.5c-3.7-1.7-17.9,7.3-14.7,11.3C191.7,291,208.9,280.1,205.4,278.5z"/>
		<path d="M205.8,277.5L205.8,277.5c-3.5-1.6-12.2,3.6-15.2,7.5c-2.1,2.8-1.3,4.5-0.7,5.3c0.3,0.4,0.7,0.5,1.1,0.5
			c0.4,0,0.9-0.1,1.1-0.2c3.2-1.1,14.5-7.9,14.7-11.3C206.9,278.5,206.5,277.9,205.8,277.5z M191.3,288.8c-0.3-0.7,0.3-1.8,0.9-2.5
			c2.7-3.6,9.3-7,12-7c0.2,0,0.5,0,0.6,0.1C204.1,281.5,193.9,288.3,191.3,288.8z M205,279.4L205,279.4L205,279.4z"/>
	</g>
	<g>
		<path class="neck-st0" d="M152.2,296c-2.6,2.9,17.5,6,18,4.4C171.6,295.6,154.9,293,152.2,296z"/>
		<path d="M168.4,296.1c-4.3-2.4-14.3-3.7-16.9-0.8c-0.5,0.6-0.6,1.3-0.3,2c1.4,2.8,12.8,4.5,17.1,4.5c0.4,0,0.7,0,0.9,0
			c0.5,0,1.7-0.2,1.9-1.1C171.4,299.7,171.4,297.8,168.4,296.1z M153.1,296.6c1.7-1.5,10.1-1.1,14.4,1.3c0.8,0.5,1.8,1.2,1.8,1.9
			C166.6,300.4,154.6,298.3,153.1,296.6z"/>
	</g>
</g>
</svg>
