<?xml version="1.0" encoding="utf-8"?>
<!-- Generator: Adobe Illustrator 26.0.3, SVG Export Plug-In . SVG Version: 6.00 Build 0)  -->
<svg version="1.1" id="Layer_1" xmlns="http://www.w3.org/2000/svg" xmlns:xlink="http://www.w3.org/1999/xlink" x="0px" y="0px"
	 viewBox="0 0 384 400" style="enable-background:new 0 0 384 400;" xml:space="preserve">
<style type="text/css">
	.neck-st0{fill:#FFD839;}
</style>
<g>
	<g>
		<g>
			<path class="neck-st0" d="M122.1,277.5c-3.4,5.1,8.4,17.4,16.6,9.3C147,278.7,129.6,266.3,122.1,277.5z M134.6,283.7
				c-3.7,3.6-9-1.9-7.5-4.2C130.5,274.5,138.3,280.1,134.6,283.7z"/>
			<path d="M131.5,276.6c-2.1-0.3-4,0.6-5.2,2.4c-1.1,1.7,0.1,4.1,1.8,5.5c1,0.8,2.3,1.5,3.8,1.5c1.2,0,2.3-0.4,3.4-1.5
				c1.2-1.1,1.5-2.6,1.1-4.1C135.7,278.5,133.7,276.9,131.5,276.6z M133.9,283c-1.9,1.8-3.9,0.4-4.5-0.1c-1.2-1-1.7-2.3-1.4-2.8
				c0.8-1.2,1.9-1.6,2.7-1.6c0.2,0,0.3,0,0.5,0c1.5,0.2,2.9,1.2,3.3,2.4C134.7,281.7,134.5,282.4,133.9,283z M134.6,283.7
				L134.6,283.7L134.6,283.7z"/>
			<path d="M131.6,272.1c-4.2-0.6-7.9,1.2-10.3,4.8c-2.1,3.1,0.4,7.8,3.7,10.5c2,1.7,4.7,2.9,7.6,2.9c2.3,0,4.7-0.8,6.8-2.9
				c2.3-2.2,3-5,2.1-7.8C140.2,275.9,136.1,272.7,131.6,272.1z M122.1,277.5L122.1,277.5L122.1,277.5z M138,286.1
				c-3.9,3.8-8.6,2.5-11.7-0.1c-3.1-2.5-4.6-6.1-3.3-7.9c2.2-3.3,5.1-4,7.2-4c0.4,0,0.9,0,1.2,0.1c3.7,0.5,7.2,3.2,8.3,6.2
				C140.3,282.4,139.8,284.4,138,286.1z"/>
		</g>
		<g>
			<path class="neck-st0" d="M138.7,290.8c-3.4,5.1,8.4,17.4,16.6,9.3C163.5,292,146.1,279.6,138.7,290.8z M151.1,297
				c-3.7,3.6-9-1.9-7.5-4.2C147,287.8,154.8,293.4,151.1,297z"/>
			<path d="M148,289.9c-2.1-0.3-4,0.6-5.2,2.4c-1.1,1.7,0.1,4.1,1.8,5.5c1,0.8,2.3,1.5,3.8,1.5c1.2,0,2.3-0.4,3.4-1.5
				c1.2-1.1,1.5-2.6,1.1-4.1C152.3,291.8,150.2,290.2,148,289.9z M150.4,296.3c-1.9,1.8-3.9,0.4-4.5-0.1c-1.2-1-1.7-2.3-1.4-2.8
				c0.8-1.2,1.9-1.6,2.7-1.6c0.2,0,0.3,0,0.5,0c1.5,0.2,2.9,1.2,3.3,2.4C151.3,295,151.1,295.7,150.4,296.3z M151.1,297L151.1,297
				L151.1,297z"/>
			<path d="M148.2,285.4c-4.2-0.6-7.9,1.2-10.3,4.8c-2.1,3.1,0.4,7.8,3.7,10.5c2,1.7,4.7,2.9,7.6,2.9c2.3,0,4.7-0.8,6.8-2.9
				c2.3-2.2,3-5,2.1-7.8C156.8,289.2,152.6,286,148.2,285.4z M154.6,299.4c-3.9,3.8-8.6,2.5-11.7-0.1c-3.1-2.5-4.6-6.1-3.3-7.9
				c2.7-4.1,6.4-4.2,8.4-4c3.7,0.5,7.2,3.2,8.3,6.2C156.9,295.7,156.3,297.7,154.6,299.4z"/>
		</g>
		<g>
			<path class="neck-st0" d="M132.6,281.8c-3.7,1.4,12.8,13.4,13.9,12.2C150,290.3,136.4,280.4,132.6,281.8z"/>
			<path d="M132.2,280.9c-0.7,0.3-1.2,0.9-1.2,1.6c0,3.4,10.9,11.1,13.9,12.3c0.3,0.1,0.8,0.3,1.2,0.3c0.4,0,0.7-0.1,1-0.4
				c0.7-0.7,1.6-2.4-0.3-5.3C144.1,285.3,135.9,279.5,132.2,280.9z M132.6,281.8L132.6,281.8L132.6,281.8z M146,293.1
				c-2.6-0.7-12.3-8.1-12.9-10.3c2.2-0.6,9.4,3.7,12.1,7.8C145.8,291.3,146.3,292.3,146,293.1z"/>
		</g>
		<g>
			<path class="neck-st0" d="M178.5,293c6.4,9.6,20.4,0.1,18.2-5.6C191.8,274.9,172.2,283.4,178.5,293z M183.2,290.9
				c-2.9-4.3,6-8.1,8.2-2.5C192.4,290.9,186.1,295.2,183.2,290.9z"/>
			<path d="M192.3,288c-0.8-2-2.4-3.3-4.5-3.4c-2.2-0.2-4.6,0.9-5.6,2.7c-0.8,1.3-0.7,2.9,0.2,4.2c1.1,1.7,2.6,2.3,4.1,2.3
				c1,0,2.1-0.3,2.9-0.7C191.4,292,193.1,289.9,192.3,288C192.3,288,192.3,288,192.3,288z M188.5,291.2c-0.7,0.4-3,1.3-4.4-0.9
				c-0.5-0.7-0.5-1.4-0.1-2.1c0.6-1,2-1.7,3.4-1.7c0.1,0,0.2,0,0.3,0c0.9,0.1,2.2,0.5,2.8,2.2C190.7,289.3,189.9,290.5,188.5,291.2z
				"/>
			<path d="M188.6,280.2c-4.5-0.4-9.2,1.9-11.3,5.3c-1.5,2.6-1.4,5.4,0.4,8.1h0c2.2,3.3,5.2,4.5,8.2,4.5c2.1,0,4.2-0.6,5.9-1.5
				c3.9-2,7.2-6,5.9-9.5C196,283,192.8,280.5,188.6,280.2z M190.9,294.8c-3.6,1.9-8.5,2.2-11.5-2.4c0,0,0,0,0,0
				c-1.3-2-1.4-4.1-0.3-6c1.5-2.6,5.1-4.4,8.6-4.4c0.3,0,0.5,0,0.8,0c2,0.2,5.6,1.1,7.4,5.6C196.6,289.9,194.4,293,190.9,294.8z"/>
		</g>
		<g>
			<path class="neck-st0" d="M159.6,302.5c6.4,9.6,20.4,0.1,18.2-5.6C172.8,284.4,153.2,292.9,159.6,302.5z M164.3,300.4
				c-2.9-4.3,6-8.1,8.2-2.5C173.4,300.4,167.1,304.7,164.3,300.4z"/>
			<path d="M169.6,289.7c-4.5-0.4-9.2,1.9-11.3,5.3c-1.5,2.6-1.4,5.4,0.4,8.1h0c2.2,3.3,5.2,4.5,8.2,4.5c2.1,0,4.2-0.6,5.9-1.5
				c3.9-2,7.2-6,5.9-9.5C177.1,292.5,173.9,290,169.6,289.7z M171.9,304.3c-3.6,1.9-8.5,2.2-11.5-2.4c0,0,0,0,0,0
				c-1.3-2-1.4-4.1-0.3-6c1.5-2.6,5.1-4.4,8.6-4.4c0.3,0,0.5,0,0.8,0c2,0.2,5.6,1.1,7.4,5.6C177.6,299.4,175.4,302.5,171.9,304.3z"
				/>
			<path d="M168.8,294.1c-2.2-0.2-4.6,0.9-5.6,2.7c-0.8,1.3-0.7,2.9,0.2,4.2c1.1,1.7,2.6,2.3,4.1,2.3c1,0,2.1-0.3,2.9-0.7
				c1.9-1,3.6-3.1,2.9-5C172.6,295.5,170.9,294.3,168.8,294.1z M169.5,300.7c-0.7,0.3-3,1.3-4.4-0.9c-0.5-0.7-0.5-1.4-0.1-2.1
				c0.6-1,2-1.7,3.4-1.7c0.1,0,0.2,0,0.3,0c0.9,0.1,2.2,0.5,2.8,2.2C171.7,298.8,170.9,300,169.5,300.7z"/>
		</g>
		<g>
			<path class="neck-st0" d="M185.6,289.4c-3.4-2.2-18.8,4.7-16.2,9C170.3,299.9,188.9,291.6,185.6,289.4z"/>
			<path d="M186.1,288.6C186.1,288.6,186.1,288.6,186.1,288.6c-3.3-2.1-12.6,1.8-16.1,5.2c-2.5,2.4-2,4.3-1.5,5.1
				c0.3,0.5,0.9,0.7,1.4,0.7c0.3,0,0.6,0,0.8-0.1c3.2-0.6,15.5-5.8,16.2-9.1C187.1,289.7,186.8,289,186.1,288.6z M170.2,297.6
				c-0.2-0.8,0.6-1.7,1.3-2.4c3-2.9,9.2-5.3,12.2-5.3c0.5,0,1,0.1,1.3,0.2C183.9,292.3,172.8,297.5,170.2,297.6z M185.1,290.3
				C185.1,290.3,185.1,290.3,185.1,290.3l0.5-0.9L185.1,290.3z"/>
		</g>
		<g>
			<path class="neck-st0" d="M195.6,281.8c8.1,8.2,20-3.9,16.8-9C205.2,261.4,187.5,273.6,195.6,281.8z M199.8,278.8
				c-3.6-3.7,4.3-9.1,7.5-4C208.8,277,203.5,282.5,199.8,278.8z"/>
			<path d="M203,267.2c-4.5,0.5-8.7,3.6-10,7.4c-1,2.8-0.3,5.6,1.9,7.9h0c2.2,2.2,4.6,3.1,6.9,3.1c2.8,0,5.5-1.2,7.5-2.8
				c3.4-2.7,5.9-7.3,3.9-10.5C210.9,268.5,207.3,266.7,203,267.2z M208.1,281.2c-3.2,2.5-7.9,3.8-11.7-0.1c0,0,0,0,0,0
				c-1.7-1.7-2.2-3.7-1.5-5.8c1.1-3,4.7-5.7,8.4-6.1c0.3,0,0.7-0.1,1-0.1c2.1,0,5.1,0.7,7.3,4.2
				C212.8,275.2,211.2,278.7,208.1,281.2z"/>
			<path d="M203.1,271.7c-2.2,0.3-4.3,1.8-5,3.7c-0.5,1.4-0.1,2.9,1,4.1c1.1,1.1,2.3,1.5,3.5,1.5c1.4,0,2.7-0.6,3.7-1.4
				c1.7-1.4,3-3.7,1.9-5.4C207.1,272.4,205.2,271.5,203.1,271.7z M205.1,278.1c-0.6,0.5-2.7,1.9-4.5,0c-0.6-0.6-0.8-1.3-0.5-2
				c0.4-1.2,1.8-2.2,3.3-2.4c0.1,0,0.3,0,0.4,0c0.9,0,2,0.3,2.8,1.6C206.9,275.8,206.3,277.1,205.1,278.1z"/>
		</g>
		<g>
			<path class="neck-st0" d="M201.9,276.9c-3.8-1.5-17.5,8.2-14.1,12C188.9,290.1,205.5,278.4,201.9,276.9z"/>
			<path d="M202.3,276c-3.6-1.4-12,4.2-14.8,8.2c-2,2.9-1.1,4.6-0.4,5.3c0.3,0.3,0.7,0.4,1,0.4c0.5,0,1-0.2,1.2-0.3
				c3.1-1.2,14.1-8.7,14.1-12C203.4,276.9,203,276.3,202.3,276z M188.3,287.9c-0.3-0.7,0.2-1.8,0.8-2.6c2.6-3.8,9.1-7.6,11.8-7.6
				c0.2,0,0.4,0,0.5,0.1C200.8,280,190.9,287.2,188.3,287.9z M201.5,277.8C201.5,277.8,201.5,277.8,201.5,277.8l0.3-0.9L201.5,277.8
				z"/>
		</g>
		<g>
			<path class="neck-st0" d="M149.7,297c-2.5,3.1,17.8,5.2,18.2,3.5C169,295.6,152.2,293.8,149.7,297z"/>
			<path d="M165.8,296.3c-4.4-2.2-14.5-3-16.9,0c-0.5,0.6-0.6,1.3-0.2,2c1.4,2.5,11.4,3.7,16.3,3.7c0.8,0,1.5,0,2-0.1
				c0.5-0.1,1.7-0.2,1.9-1.2C169,299.8,168.9,297.9,165.8,296.3z M149.7,297L149.7,297L149.7,297z M150.5,297.5
				c1.6-1.6,10-1.6,14.4,0.6c0.9,0.4,1.9,1.1,1.9,1.9C164.3,300.7,152.1,299.2,150.5,297.5z"/>
		</g>
	</g>
</g>
</svg>
