<?xml version="1.0" encoding="utf-8"?>
<!-- Generator: Adobe Illustrator 26.0.3, SVG Export Plug-In . SVG Version: 6.00 Build 0)  -->
<svg version="1.1" id="Layer_1" xmlns="http://www.w3.org/2000/svg" xmlns:xlink="http://www.w3.org/1999/xlink" x="0px" y="0px"
	 viewBox="0 0 384 400" style="enable-background:new 0 0 384 400;" xml:space="preserve">
<style type="text/css">
	.neck-st0{fill:#FFD839;}
	.neck-st1{opacity:0.5;fill:#FFFFFF;}
</style>
<g>
	<g>
		<g>
			<g>
				<path class="neck-st0" d="M122.6,275.9c-3.4,5.1,8.4,17.4,16.6,9.3C147.4,277.1,130,264.7,122.6,275.9z M135,282.2
					c-3.7,3.6-9-1.9-7.5-4.2C130.9,272.9,138.7,278.5,135,282.2z"/>
				<path d="M131.9,275c-2.1-0.3-4,0.6-5.2,2.4c-1.1,1.7,0.1,4.1,1.8,5.5c1,0.8,2.3,1.5,3.8,1.5c1.2,0,2.3-0.4,3.4-1.5
					c1.2-1.1,1.5-2.6,1.1-4.1C136.2,276.9,134.1,275.3,131.9,275z M134.3,281.4c-1.9,1.8-3.9,0.4-4.5-0.1c-1.2-1-1.7-2.3-1.4-2.8
					c0.8-1.2,1.9-1.6,2.7-1.6c0.2,0,0.3,0,0.5,0c1.5,0.2,2.9,1.2,3.3,2.4C135.1,280.2,135,280.8,134.3,281.4z"/>
				<path d="M132.1,270.5c-4.2-0.6-7.9,1.2-10.3,4.8c-2.1,3.1,0.4,7.8,3.7,10.5c2,1.7,4.7,2.9,7.6,2.9c2.3,0,4.7-0.8,6.8-2.9
					c2.3-2.2,3-5,2.1-7.8C140.7,274.3,136.5,271.1,132.1,270.5z M122.6,275.9L122.6,275.9L122.6,275.9z M138.5,284.5
					c-3.9,3.8-8.6,2.5-11.7-0.1c-3.1-2.5-4.6-6.1-3.3-7.9c2.2-3.3,5.1-4,7.2-4c0.4,0,0.9,0,1.2,0.1c3.7,0.5,7.2,3.2,8.3,6.2
					C140.8,280.8,140.2,282.8,138.5,284.5z"/>
			</g>
			<g>
				<path class="neck-st0" d="M139.1,289.2c-3.4,5.1,8.4,17.4,16.6,9.3C164,290.4,146.6,278,139.1,289.2z M151.6,295.4
					c-3.7,3.6-9-1.9-7.5-4.2C147.5,286.2,155.3,291.8,151.6,295.4z"/>
				<path d="M148.6,283.8c-4.2-0.6-7.9,1.2-10.3,4.8c-2.1,3.1,0.4,7.8,3.7,10.5c2,1.7,4.7,2.9,7.6,2.9c2.3,0,4.7-0.8,6.8-2.9
					c2.3-2.2,3-5,2.1-7.8C157.2,287.6,153.1,284.4,148.6,283.8z M139.1,289.2L139.1,289.2L139.1,289.2z M155,297.8
					c-3.9,3.8-8.6,2.5-11.7-0.1c-3.1-2.5-4.6-6.1-3.3-7.9c2.2-3.3,5.1-4,7.2-4c0.4,0,0.9,0,1.2,0.1c3.7,0.5,7.2,3.2,8.3,6.2
					C157.3,294.1,156.8,296.1,155,297.8z"/>
				<path d="M148.5,288.3c-2.1-0.3-4,0.6-5.2,2.4c-1.1,1.7,0.1,4.1,1.8,5.5c1,0.8,2.3,1.5,3.8,1.5c1.2,0,2.3-0.4,3.4-1.5
					c1.2-1.1,1.5-2.6,1.1-4.1C152.7,290.2,150.7,288.6,148.5,288.3z M150.9,294.7c-1.9,1.8-3.9,0.4-4.5-0.1c-1.2-1-1.7-2.3-1.4-2.8
					c0.8-1.2,1.9-1.6,2.7-1.6c0.2,0,0.3,0,0.5,0c1.5,0.2,2.9,1.2,3.3,2.4C151.7,293.4,151.5,294.1,150.9,294.7z"/>
			</g>
			<g>
				<path class="neck-st0" d="M133,280.2c-3.7,1.4,12.8,13.4,13.9,12.2C150.4,288.7,136.8,278.8,133,280.2z"/>
				<path d="M132.7,279.3c-0.7,0.3-1.2,0.9-1.2,1.6c0,3.4,10.9,11.1,13.9,12.3c0.3,0.1,0.8,0.3,1.2,0.3c0.4,0,0.7-0.1,1-0.4
					c0.7-0.7,1.6-2.4-0.3-5.3C144.6,283.7,136.3,277.9,132.7,279.3z M133,280.2L133,280.2L133,280.2z M146.4,291.5
					c-2.6-0.7-12.3-8.1-12.9-10.3c2.2-0.6,9.4,3.7,12.1,7.8C146.2,289.7,146.7,290.7,146.4,291.5z"/>
			</g>
			<g>
				<path class="neck-st0" d="M179,291.4c6.4,9.6,20.4,0.1,18.2-5.6C192.2,273.3,172.6,281.8,179,291.4z M183.7,289.3
					c-2.9-4.3,6-8.1,8.2-2.5C192.8,289.3,186.5,293.6,183.7,289.3z"/>
				<path d="M188.2,283c-2.2-0.2-4.6,0.9-5.6,2.7c-0.8,1.3-0.7,2.9,0.2,4.2c1.1,1.7,2.6,2.3,4.1,2.3c1,0,2.1-0.3,2.9-0.7
					c1.9-1,3.6-3.1,2.9-5C192,284.4,190.3,283.2,188.2,283z M189,289.6c-0.7,0.4-3,1.3-4.4-0.9c-0.5-0.7-0.5-1.4-0.1-2.1
					c0.6-1,2-1.7,3.4-1.7c0.1,0,0.2,0,0.3,0c0.9,0.1,2.2,0.5,2.8,2.2C191.1,287.7,190.3,288.9,189,289.6z"/>
				<path d="M189,278.6c-4.5-0.4-9.2,1.9-11.3,5.3c-1.5,2.6-1.4,5.4,0.4,8.1h0c2.2,3.3,5.2,4.5,8.2,4.5c2.1,0,4.2-0.6,5.9-1.5
					c3.9-2,7.2-6,5.9-9.5C196.5,281.4,193.3,278.9,189,278.6z M191.3,293.2c-3.6,1.9-8.5,2.2-11.5-2.4c0,0,0,0,0,0
					c-1.3-2-1.4-4.1-0.3-6c1.5-2.6,5.1-4.4,8.6-4.4c0.3,0,0.5,0,0.8,0c2,0.2,5.6,1.1,7.4,5.6C197,288.3,194.8,291.4,191.3,293.2z"/>
			</g>
			<g>
				<path class="neck-st0" d="M160,300.9c6.4,9.6,20.4,0.1,18.2-5.6C173.3,282.8,153.6,291.3,160,300.9z M164.7,298.8
					c-2.9-4.3,6-8.1,8.2-2.5C173.9,298.9,167.6,303.1,164.7,298.8z"/>
				<path d="M170.1,288.1c-4.5-0.4-9.2,1.9-11.3,5.3c-1.5,2.6-1.4,5.4,0.4,8.1h0c2.2,3.3,5.2,4.5,8.2,4.5c2.1,0,4.2-0.6,5.9-1.5
					c3.9-2,7.2-6,5.9-9.5C177.5,290.9,174.3,288.4,170.1,288.1z M172.3,302.8c-3.6,1.9-8.5,2.2-11.5-2.4c0,0,0,0,0,0
					c-1.3-2-1.4-4.1-0.3-6c1.5-2.6,5.1-4.4,8.6-4.4c0.3,0,0.5,0,0.8,0c2,0.2,5.6,1.1,7.4,5.6C178.1,297.8,175.9,300.9,172.3,302.8z"
					/>
				<path d="M173.8,296c-0.8-2-2.4-3.3-4.5-3.4c-2.2-0.2-4.6,0.9-5.6,2.7c-0.8,1.3-0.7,2.9,0.2,4.2c1.1,1.7,2.6,2.3,4.1,2.3
					c1,0,2.1-0.3,2.9-0.7C172.9,299.9,174.5,297.8,173.8,296C173.8,296,173.8,296,173.8,296z M170,299.1c-0.7,0.4-3,1.3-4.4-0.9
					c-0.5-0.7-0.5-1.4-0.1-2.1c0.6-1,2-1.7,3.4-1.7c0.1,0,0.2,0,0.3,0c0.9,0.1,2.2,0.5,2.8,2.2C172.2,297.3,171.4,298.4,170,299.1z"
					/>
			</g>
			<g>
				<path class="neck-st0" d="M186,287.9c-3.4-2.2-18.8,4.7-16.2,9C170.7,298.3,189.3,290,186,287.9z"/>
				<path d="M186.6,287c-3.3-2.1-12.6,1.8-16.1,5.2c-2.5,2.4-2,4.3-1.5,5.1c0.3,0.5,0.9,0.7,1.4,0.7c0.3,0,0.6-0.1,0.8-0.1
					c3.3-0.6,15.5-5.7,16.2-9.1C187.5,288.1,187.2,287.4,186.6,287z M170.6,296c-0.2-0.8,0.6-1.7,1.3-2.4c3-2.9,9.2-5.3,12.2-5.3
					c0.5,0,1,0.1,1.3,0.2C184.4,290.7,173.3,295.9,170.6,296z M185.5,288.7L185.5,288.7L185.5,288.7z"/>
			</g>
			<g>
				<path class="neck-st0" d="M196.1,280.2c8.1,8.2,20-3.9,16.8-9C205.6,259.8,188,272,196.1,280.2z M200.3,277.2c-3.6-3.7,4.3-9.1,7.5-4
					C209.3,275.5,203.9,280.9,200.3,277.2z"/>
				<path d="M203.5,265.6c-4.5,0.5-8.7,3.6-10,7.4c-1,2.8-0.3,5.6,1.9,7.9h0c2.2,2.2,4.6,3.1,6.9,3.1c2.8,0,5.5-1.2,7.5-2.8
					c3.4-2.7,5.9-7.3,3.9-10.5C211.3,266.9,207.7,265.2,203.5,265.6z M208.5,279.6c-3.2,2.5-7.9,3.8-11.7-0.1c0,0,0,0,0,0
					c-1.7-1.7-2.2-3.7-1.5-5.8c1.1-3,4.7-5.7,8.4-6.1c0.3,0,0.7-0.1,1-0.1c2.1,0,5.1,0.7,7.3,4.2
					C213.2,273.6,211.6,277.1,208.5,279.6z"/>
				<path d="M203.5,270.1c-2.2,0.3-4.3,1.8-5,3.7c-0.5,1.4-0.1,2.9,1,4.1c1.1,1.1,2.3,1.5,3.5,1.5c1.4,0,2.7-0.6,3.7-1.4
					c1.7-1.4,3-3.7,1.9-5.4C207.5,270.8,205.6,269.9,203.5,270.1z M205.5,276.5c-0.6,0.5-2.7,1.9-4.5,0c-0.6-0.6-0.8-1.3-0.5-2
					c0.4-1.2,1.8-2.2,3.3-2.4c0.1,0,0.3,0,0.4,0c0.9,0,2,0.3,2.8,1.6c0,0,0,0,0,0C207.3,274.2,206.8,275.5,205.5,276.5z"/>
			</g>
			<g>
				<path class="neck-st0" d="M202.3,275.3c-3.8-1.5-17.5,8.2-14.1,12C189.3,288.5,206,276.8,202.3,275.3z"/>
				<path d="M202.7,274.4c-3.6-1.4-12,4.2-14.8,8.2c-2,2.9-1.1,4.6-0.4,5.3c0.3,0.3,0.7,0.4,1,0.4c0.5,0,1-0.2,1.2-0.3
					c3.1-1.2,14.1-8.7,14.1-12C203.9,275.3,203.4,274.7,202.7,274.4z M188.8,286.3c-0.3-0.7,0.2-1.8,0.8-2.6
					c2.6-3.8,9.1-7.6,11.8-7.6c0.2,0,0.4,0,0.5,0.1C201.2,278.4,191.4,285.7,188.8,286.3z M202,276.2C202,276.2,202,276.2,202,276.2
					l0.3-0.9L202,276.2z"/>
			</g>
			<g>
				<path class="neck-st0" d="M150.1,295.4c-2.5,3.1,17.8,5.2,18.2,3.5C169.4,294,152.7,292.2,150.1,295.4z"/>
				<path d="M166.3,294.7c-4.4-2.2-14.5-3-16.9,0c-0.5,0.6-0.6,1.3-0.2,2c1.4,2.5,11.4,3.7,16.3,3.7c0.8,0,1.5,0,2-0.1
					c0.5-0.1,1.7-0.2,1.9-1.2C169.5,298.2,169.4,296.3,166.3,294.7z M151,295.9c1.6-1.6,10-1.6,14.4,0.6c0.9,0.4,1.9,1.1,1.9,1.9
					C164.7,299.1,152.6,297.6,151,295.9z"/>
			</g>
		</g>
	</g>
	<g>
		<g>
			<path d="M162.3,291.5L162.3,291.5c-2.3-0.6-4.2,0.5-5.3,2.9c-1.6,3.8-0.9,11.6,1.8,13.3c0.4,0.3,0.9,0.4,1.4,0.4
				c0.5,0,1-0.2,1.5-0.5c2.6-1.7,3.9-9,3.3-12.5C164.6,292.6,163.3,291.8,162.3,291.5z M160.4,303.2c-0.6-2.1-0.7-5.9,0.3-7.6
				c0.2-0.3,0.3-0.4,0.5-0.4c0,0,0,0,0,0C161.8,296.4,161.2,300.8,160.4,303.2z"/>
			<path class="neck-st0" d="M161.8,293.4c-5.1-1.3-4.3,11.2-1.9,12.8S165.1,294.2,161.8,293.4z"/>
			<path class="neck-st1" d="M161.7,295.1c-3.5-0.8-3.2,8.2-1.6,9.2C161.8,305.3,164,295.6,161.7,295.1z"/>
		</g>
	</g>
	<g>
		<g>
			<path d="M168.5,315.5c-0.4-0.8-0.9-1.4-1.4-2c0,0,0,0,0,0c0.1-0.1,0.1-0.3,0.1-0.4l1.3-5c0.3-1.2-0.3-2.4-1.5-2.9
				c-0.5-0.2-1-0.4-1.6-0.5c0-0.5-0.2-1.1-0.5-1.5c-0.5-0.6-1.2-1-2-0.9l-4.1,0.2c-1.3,0-2.4,1.2-2.4,2.5v0.4
				c-0.3,0.1-0.5,0.3-0.8,0.4c-0.9,0.5-1.6,1.1-2.3,1.9c-0.6,0.7-1.1,1.6-1.5,2.6c-0.4,1-0.5,2.1-0.5,3.2c0,0.9,0.2,1.8,0.6,2.6
				c0.3,0.6,0.6,1.1,1,1.6c-0.2,0.2-0.4,0.5-0.5,0.8l-1.6,4.6c-0.4,1.2,0.1,2.5,1.3,3.1c0.8,0.4,1.7,0.7,2.6,1c0.1,0,0.1,0,0.2,0.1
				c0,0.6,0.2,1.2,0.5,1.6c0.5,0.6,1.2,1,2,1c0,0,0.1,0,0.1,0l4.1-0.2c1.3,0,2.4-1.2,2.4-2.5v-0.4c0.3-0.1,0.6-0.3,0.9-0.4
				c0.9-0.5,1.7-1.1,2.4-1.8c0.7-0.8,1.2-1.6,1.6-2.6c0.4-1,0.5-2,0.5-3.2c0,0,0,0,0,0C169.2,317.3,168.9,316.4,168.5,315.5z
				 M156.7,314.1c-0.1-0.1-0.3-0.3-0.4-0.5c-0.1-0.1-0.1-0.3-0.1-0.6c0-0.2,0-0.3,0-0.4c0.1,0.8,0.4,1.5,1.1,2
				C157.1,314.5,156.9,314.3,156.7,314.1z M164,319.9c-0.1,0.4-0.3,0.7-0.6,0.9c-0.3,0.3-0.6,0.6-1,0.8c-0.5,0.3-1,0.5-1.6,0.6
				c-0.5,0.1-1,0.4-1.3,0.8c-0.2-0.2-0.5-0.4-0.8-0.5c0,0,0.1,0,0.1,0c0.8,0,1.6-0.2,2.2-0.5c1.3-0.6,2.1-1.8,2-3.2
				c-0.1-1.1-0.7-2-1.6-2.6c-0.3-0.2-0.7-0.4-1.2-0.5c-0.1,0-0.2-0.1-0.2-0.1c-0.2-0.1-0.5-0.1-0.8-0.2c-0.1,0-0.3-0.1-0.5-0.2
				c0.3,0.1,0.5,0.1,0.8,0.2l0.3,0c0.4,0.1,0.8,0.2,1.2,0.3c0.2,0.1,0.5,0.1,0.7,0.2c0.4,0.2,0.7,0.3,1.1,0.5
				c0.3,0.1,0.5,0.3,0.7,0.5c0.2,0.2,0.4,0.4,0.5,0.7c0.1,0.2,0.2,0.5,0.2,0.9C164.2,319.1,164.2,319.5,164,319.9z"/>
		</g>
		<g>
			<path class="neck-st0" d="M165.3,315.3c-0.4-0.4-0.8-0.7-1.3-1c-0.5-0.3-0.9-0.5-1.4-0.7c-0.4-0.2-0.8-0.3-1.2-0.4
				c-0.5-0.1-0.9-0.2-1.3-0.3c-0.1,0-0.2,0-0.4-0.1c-0.2,0-0.3-0.1-0.5-0.1c-0.2,0-0.3-0.1-0.4-0.2c-0.1-0.1-0.2-0.2-0.2-0.3
				c0-0.3,0.1-0.5,0.3-0.6c0.2-0.1,0.5-0.2,0.8-0.3c0.3-0.1,0.6-0.1,0.9-0.1s0.5,0,0.7,0c0.6,0.1,1.2,0.2,1.7,0.4
				c0.5,0.2,1,0.4,1.6,0.6l1.3-5c-0.5-0.2-1.1-0.4-1.8-0.5c-0.6-0.1-1.3-0.2-1.9-0.3l0.5-2l-4.1,0.2v2.1c-0.7,0.2-1.4,0.5-2,0.8
				c-0.6,0.4-1.2,0.8-1.6,1.3c-0.4,0.5-0.8,1.1-1,1.8c-0.3,0.7-0.4,1.4-0.3,2.3c0,0.6,0.1,1.1,0.3,1.6s0.5,0.9,0.8,1.2
				c0.3,0.3,0.7,0.6,1.1,0.9c0.4,0.2,0.8,0.5,1.2,0.6c0.4,0.2,0.8,0.3,1.1,0.4c0.3,0.1,0.6,0.2,0.8,0.2c0.3,0.1,0.6,0.3,0.9,0.4
				c0.2,0.1,0.4,0.3,0.4,0.6c0,0.4-0.2,0.6-0.5,0.8c-0.4,0.2-0.8,0.3-1.4,0.3c-0.4,0-0.7,0-1.1-0.1c-0.4-0.1-0.7-0.2-1.1-0.3
				c-0.3-0.1-0.7-0.2-1-0.4c-0.3-0.1-0.6-0.2-0.8-0.3l-1.6,4.6c0.7,0.3,1.4,0.6,2.3,0.9c0.8,0.3,1.7,0.4,2.5,0.5l-0.6,2l4.1-0.2
				v-2.2c0.8-0.2,1.5-0.5,2.2-0.8c0.7-0.4,1.2-0.8,1.7-1.3c0.5-0.5,0.8-1.1,1.1-1.8c0.2-0.7,0.4-1.4,0.3-2.2c0-0.7-0.2-1.3-0.4-1.9
				C166,316.1,165.7,315.6,165.3,315.3z"/>
		</g>
		<path class="neck-st1" d="M155.6,311.6c1.7,0.5,4-1.7,3.7-3.4C158.9,306.6,153.8,311,155.6,311.6z"/>
	</g>
</g>
</svg>
