<?xml version="1.0" encoding="utf-8"?>
<!-- Generator: Adobe Illustrator 26.0.3, SVG Export Plug-In . SVG Version: 6.00 Build 0)  -->
<svg version="1.1" id="Layer_1" xmlns="http://www.w3.org/2000/svg" xmlns:xlink="http://www.w3.org/1999/xlink" x="0px" y="0px"
	 viewBox="0 0 384 400" style="enable-background:new 0 0 384 400;" xml:space="preserve">
<style type="text/css">
	.neck-st0{fill:#9E9E9E;}
	.neck-st1{opacity:0.5;fill:#FFFFFF;}
	.neck-st2{opacity:0.5;}
	.neck-st3{fill:#FFFFFF;}
</style>
<g>
	<g>
		<g>
			<path class="neck-st0" d="M117.8,276c-3.6,4.9,7.5,17.7,16.2,10.1C142.6,278.4,125.8,265.1,117.8,276z M130,282.8
				c-3.9,3.4-8.9-2.3-7.2-4.5C126.3,273.4,133.8,279.3,130,282.8z"/>
			<path d="M127.6,271c-4.2-0.8-7.9,0.8-10.5,4.3c-2.2,3,0,7.8,3.2,10.7c2,1.8,4.9,3.3,7.9,3.3c2.1,0,4.4-0.7,6.5-2.6
				c2.4-2.1,3.2-4.9,2.4-7.7C136,275.2,132,271.8,127.6,271z M133.3,285.3c-4.1,3.6-8.7,2-11.7-0.7c-2.9-2.7-4.3-6.3-3-8.1
				c2.9-3.9,6.6-3.9,8.6-3.6c3.7,0.7,7.1,3.5,8,6.6C135.8,281.7,135.1,283.7,133.3,285.3z"/>
			<path d="M127.2,275.5c-2.1-0.4-4,0.4-5.3,2.2c-1.2,1.6-0.1,4.1,1.5,5.5c1,0.9,2.4,1.6,3.9,1.6c1.1,0,2.2-0.4,3.3-1.3
				c1.2-1.1,1.7-2.5,1.3-4C131.4,277.6,129.4,275.9,127.2,275.5z M129.3,282c-2,1.8-4,0.2-4.5-0.3c-1.2-1.1-1.6-2.4-1.2-2.9
				c0.8-1.1,1.8-1.4,2.7-1.4c0.2,0,0.5,0,0.6,0.1c1.5,0.3,2.8,1.4,3.1,2.6C130.2,280.8,130,281.5,129.3,282z"/>
		</g>
		<g>
			<path class="neck-st0" d="M133.7,290c-3.6,4.9,7.5,17.7,16.2,10.1C158.5,292.4,141.7,279.2,133.7,290z M145.9,296.8
				c-3.9,3.4-8.9-2.3-7.2-4.5C142.2,287.4,149.7,293.4,145.9,296.8z"/>
			<path d="M143.5,285.1c-4.2-0.8-7.9,0.8-10.5,4.3c-2.2,3,0,7.8,3.2,10.7c2,1.8,4.9,3.3,7.9,3.3c2.1,0,4.4-0.7,6.5-2.6
				c2.4-2.1,3.2-4.9,2.4-7.7C151.9,289.3,147.9,285.9,143.5,285.1z M133.7,290L133.7,290L133.7,290z M149.2,299.4
				c-4.1,3.6-8.7,2-11.7-0.7c-2.9-2.7-4.3-6.3-2.9-8.1c2.2-3,4.9-3.7,6.9-3.7c0.6,0,1.2,0.1,1.6,0.1c3.7,0.7,7.1,3.5,8,6.6
				C151.6,295.8,151,297.8,149.2,299.4z"/>
			<path d="M143.1,289.6c-2.1-0.4-4,0.4-5.3,2.2c-1.2,1.6-0.1,4.1,1.5,5.5c1,0.9,2.4,1.6,3.9,1.6c1.1,0,2.2-0.4,3.3-1.3
				c1.2-1.1,1.7-2.5,1.3-4C147.3,291.7,145.3,290,143.1,289.6z M145.9,296.8L145.9,296.8L145.9,296.8z M145.2,296.1
				c-2,1.8-4,0.2-4.5-0.3c-1.2-1.1-1.6-2.4-1.2-2.9c0.8-1.1,1.8-1.4,2.7-1.4c0.2,0,0.4,0,0.6,0.1c1.5,0.3,2.8,1.4,3.1,2.6
				C146.1,294.9,145.8,295.5,145.2,296.1z"/>
		</g>
		<g>
			<path class="neck-st0" d="M128.1,280.8c-3.7,1.2,12.1,14,13.3,12.9C145,290.1,132,279.5,128.1,280.8z"/>
			<path d="M127.8,279.8c-0.8,0.2-1.2,0.8-1.3,1.6c-0.2,3.3,10.3,11.6,13.3,13c0.3,0.1,0.8,0.4,1.3,0.4c0.3,0,0.7-0.1,0.9-0.4
				c0.7-0.7,1.7-2.4-0.1-5.3C139.4,284.8,131.4,278.6,127.8,279.8z M128.1,280.8L128.1,280.8L128.1,280.8z M140.9,292.6
				c-2.5-0.8-11.9-8.7-12.4-11c2.3-0.4,9.2,4.1,11.8,8.3C140.8,290.9,141.2,291.9,140.9,292.6z"/>
		</g>
		<g>
			<path class="neck-st0" d="M173.4,294.2c5.9,9.9,20.4,1.1,18.4-4.7C187.6,276.7,167.5,284.3,173.4,294.2z M178.2,292.3
				c-2.6-4.5,6.3-7.8,8.3-2.1C187.4,292.8,180.9,296.8,178.2,292.3z"/>
			<path d="M183.1,286.2c-2.2-0.3-4.6,0.7-5.7,2.4c-0.8,1.3-0.8,2.8,0,4.2c1.1,1.8,2.7,2.5,4.3,2.5c1,0,1.9-0.2,2.7-0.6
				c2-0.9,3.8-2.9,3.1-4.8C186.7,287.8,185.2,286.5,183.1,286.2z M183.5,292.9c-0.7,0.3-3.1,1.2-4.4-1.1c-0.4-0.7-0.5-1.5,0-2.1
				c0.6-0.9,1.9-1.5,3.2-1.5c0.2,0,0.3,0,0.5,0c0.9,0.1,2.2,0.6,2.7,2.3C185.7,291.1,184.9,292.2,183.5,292.9z"/>
			<path d="M184.1,281.8c-4.5-0.6-9.3,1.4-11.5,4.8c-1.6,2.5-1.6,5.4,0,8.1c2.2,3.6,5.4,4.9,8.5,4.9c1.9,0,3.8-0.5,5.4-1.2
				c4-1.8,7.5-5.7,6.3-9.2C191.4,285,188.3,282.4,184.1,281.8z M185.7,296.6c-3.7,1.7-8.6,1.8-11.4-2.9h0c-1.2-2.1-1.2-4.1,0-6
				c1.6-2.4,5-4,8.3-4c0.4,0,0.9,0,1.3,0.1c2,0.3,5.5,1.4,7.1,6C191.6,291.9,189.3,294.9,185.7,296.6z"/>
		</g>
		<g>
			<path class="neck-st0" d="M154,302.8c5.9,9.9,20.4,1.1,18.4-4.7C168.1,285.3,148.1,292.8,154,302.8z M158.8,300.9
				c-2.6-4.5,6.3-7.8,8.3-2.1C167.9,301.4,161.4,305.3,158.8,300.9z"/>
			<path d="M163.7,294.8c-2.2-0.3-4.6,0.7-5.7,2.4c-0.8,1.3-0.8,2.8,0,4.2c1.1,1.8,2.7,2.5,4.3,2.5c1,0,1.9-0.2,2.7-0.6
				c2-0.9,3.8-2.9,3.1-4.8C167.3,296.4,165.7,295.1,163.7,294.8z M164.1,301.5c-0.7,0.3-3.1,1.2-4.4-1.1c-0.4-0.7-0.5-1.5,0-2.1
				c0.6-0.9,1.9-1.5,3.2-1.5c0.2,0,0.3,0,0.5,0c0.9,0.1,2.2,0.6,2.7,2.3C166.3,299.7,165.5,300.8,164.1,301.5z"/>
			<path d="M164.7,290.4c-4.5-0.6-9.3,1.4-11.5,4.8c-1.6,2.5-1.6,5.4,0,8.1c2.2,3.6,5.4,4.9,8.5,4.9c1.9,0,3.8-0.5,5.4-1.2
				c4-1.8,7.5-5.7,6.3-9.2C172,293.6,168.9,291,164.7,290.4z M166.2,305.2c-3.7,1.7-8.6,1.8-11.4-2.9h0c-1.2-2.1-1.2-4.1,0-6
				c1.6-2.4,5-4,8.3-4c0.4,0,0.9,0,1.3,0.1c2,0.3,5.5,1.4,7.1,6C172.2,300.5,169.8,303.5,166.2,305.2z"/>
		</g>
		<g>
			<path class="neck-st0" d="M180.6,291c-3.3-2.4-19,3.8-16.6,8.2C164.9,300.6,183.8,293.3,180.6,291z"/>
			<path d="M181.2,290.1c-3.2-2.3-12.6,1.2-16.3,4.4c-2.6,2.3-2.2,4.2-1.7,5.1c0.3,0.6,1,0.7,1.5,0.7c0.3,0,0.5,0,0.6,0
				c3.3-0.4,15.8-5,16.6-8.3C182.1,291.3,181.9,290.6,181.2,290.1z M164.8,298.4c-0.1-0.8,0.6-1.7,1.4-2.3c3-2.7,9-4.7,12.2-4.7
				c0.7,0,1.2,0.1,1.6,0.3C178.8,293.7,167.5,298.4,164.8,298.4z M180.1,291.8C180.1,291.8,180.1,291.8,180.1,291.8l0.6-0.8
				L180.1,291.8z"/>
		</g>
		<g>
			<path class="neck-st0" d="M191.1,283.8c7.7,8.6,20.2-2.9,17.2-8.2C201.6,263.9,183.4,275.2,191.1,283.8z M195.4,281
				c-3.4-3.9,4.7-8.9,7.7-3.7C204.5,279.7,198.9,284.9,195.4,281z"/>
			<path d="M199,274.1c-2.2,0.1-4.4,1.6-5.1,3.4c-0.6,1.4-0.3,2.9,0.8,4.1c1.1,1.2,2.4,1.7,3.7,1.7c1.3,0,2.6-0.5,3.5-1.2
				c1.8-1.3,3.1-3.6,2.1-5.3C202.9,275,201.1,274,199,274.1z M200.7,280.5c-0.6,0.4-2.8,1.7-4.5-0.2c-0.6-0.6-0.7-1.3-0.4-2
				c0.5-1.2,1.9-2.1,3.4-2.2c0.1,0,0.2,0,0.2,0c0.9,0,2.1,0.3,2.9,1.8h0C202.5,278.4,201.9,279.6,200.7,280.5z"/>
			<path d="M199.1,269.6c-4.5,0.3-8.9,3.2-10.4,6.9c-1.1,2.7-0.6,5.6,1.5,7.9c2.2,2.5,4.8,3.4,7.3,3.4c2.6,0,5.2-1.1,7.1-2.5
				c3.5-2.5,6.3-7,4.4-10.3C206.9,271.3,203.4,269.3,199.1,269.6z M203.5,283.8c-3.3,2.4-8.1,3.4-11.7-0.7c0,0,0,0,0,0
				c-1.6-1.8-2-3.8-1.2-5.8c1.2-3,4.9-5.4,8.7-5.7c0.2,0,0.4,0,0.6,0c2.1,0,5.3,0.7,7.5,4.5C208.5,278,206.7,281.5,203.5,283.8z"/>
		</g>
		<g>
			<path class="neck-st0" d="M197.5,279.2c-3.7-1.7-17.9,7.3-14.7,11.3C183.9,291.8,201.1,280.8,197.5,279.2z"/>
			<path d="M197.9,278.3C197.9,278.3,197.9,278.3,197.9,278.3c-3.5-1.6-12.2,3.6-15.2,7.5c-2.1,2.8-1.3,4.5-0.7,5.3
				c0.3,0.4,0.7,0.5,1.1,0.5c0.4,0,0.9-0.1,1.1-0.2c3.1-1,14.5-8,14.7-11.3C199.1,279.3,198.7,278.6,197.9,278.3z M183.4,289.5
				c-0.3-0.7,0.3-1.8,0.9-2.5c2.7-3.6,9.3-7,12-7c0.2,0,0.5,0,0.6,0.1C196.3,282.3,186.1,289,183.4,289.5z M197.1,280.1
				C197.1,280.1,197.1,280.1,197.1,280.1l0.4-0.9L197.1,280.1z"/>
		</g>
		<g>
			<path class="neck-st0" d="M144.4,296.8c-2.6,2.9,17.5,6,18,4.4C163.7,296.3,147.1,293.7,144.4,296.8z"/>
			<path d="M160.5,296.9c-4.3-2.4-14.3-3.7-16.9-0.8c-0.5,0.6-0.6,1.3-0.3,2c1.4,2.8,12.7,4.5,17.1,4.5c0.4,0,0.7,0,1,0
				c0.5,0,1.7-0.2,1.9-1.1C163.6,300.5,163.6,298.6,160.5,296.9z M145.2,297.3c1.7-1.5,10.1-1.1,14.4,1.3c0.8,0.5,1.8,1.2,1.8,1.9
				C158.8,301.1,146.8,299.1,145.2,297.3z"/>
		</g>
	</g>
	<g>
		<g>
			<path d="M162,296.9c-2.3-0.6-4.2,0.5-5.3,2.9c-1.6,3.8-0.9,11.6,1.8,13.3c0.4,0.3,0.9,0.4,1.4,0.4c0.5,0,1-0.2,1.5-0.5
				c2.6-1.7,3.9-9,3.3-12.5C164.3,298,163,297.1,162,296.9z M160.1,308.6c-0.6-2.1-0.7-5.9,0.3-7.6c0.2-0.3,0.3-0.4,0.5-0.4
				c0,0,0,0,0,0C161.5,301.7,161,306.2,160.1,308.6z"/>
			<g>
				<path class="neck-st0" d="M161.5,298.7c-5.1-1.3-4.3,11.2-1.9,12.8S164.8,299.6,161.5,298.7z"/>
				<path d="M161.8,297.8c-1.8-0.5-3.4,0.4-4.2,2.4c-1.5,3.3-0.8,10.7,1.5,12.2c0.3,0.2,0.6,0.3,0.9,0.3c0.3,0,0.7-0.1,1-0.3
					c2.1-1.4,3.5-8.1,2.9-11.6C163.5,298.6,162.5,298,161.8,297.8z M160,310.6c-1-1-1.9-6.6-0.6-9.6c0.4-1,1-1.3,1.4-1.3
					c0.2,0,0.3,0,0.5,0.1c0.2,0.1,0.6,0.7,0.7,1.8C162.3,305,160.9,309.7,160,310.6z"/>
			</g>
			<path class="neck-st1" d="M161.4,300.4c-3.5-0.8-3.2,8.2-1.6,9.2C161.5,310.7,163.7,301,161.4,300.4z"/>
		</g>
	</g>
	<g>
		<g>
			<path d="M168.2,320.9c-0.4-0.8-0.9-1.4-1.4-2c0,0,0,0,0,0c0.1-0.1,0.1-0.3,0.1-0.4l1.3-5c0.3-1.2-0.3-2.4-1.5-2.9
				c-0.5-0.2-1-0.4-1.6-0.5c0-0.5-0.2-1.1-0.5-1.5c-0.5-0.6-1.3-1-2-0.9l-4.1,0.2c-1.3,0-2.4,1.2-2.4,2.5v0.4
				c-0.3,0.1-0.5,0.3-0.8,0.4c-0.9,0.5-1.6,1.1-2.3,1.9c-0.6,0.7-1.1,1.6-1.5,2.6c-0.4,1-0.5,2.1-0.5,3.2c0,0.9,0.2,1.8,0.6,2.6
				c0.3,0.6,0.6,1.1,1,1.6c-0.2,0.2-0.4,0.5-0.5,0.8l-1.6,4.6c-0.4,1.2,0.1,2.5,1.3,3.1c0.8,0.4,1.7,0.7,2.6,1c0.1,0,0.1,0,0.2,0.1
				c0,0.6,0.2,1.2,0.5,1.6c0.5,0.6,1.2,1,2,1c0,0,0.1,0,0.1,0l4.1-0.2c1.3,0,2.4-1.2,2.4-2.5v-0.4c0.3-0.1,0.6-0.3,0.9-0.4
				c0.9-0.5,1.7-1.1,2.4-1.8c0.7-0.8,1.2-1.6,1.6-2.6c0.4-1,0.5-2,0.5-3.2c0,0,0,0,0,0C168.9,322.7,168.7,321.7,168.2,320.9z
				 M157.1,319.9c-0.2-0.1-0.4-0.3-0.6-0.5c-0.1-0.1-0.3-0.3-0.4-0.5c-0.1-0.1-0.1-0.3-0.1-0.6c0-0.1,0-0.3,0-0.4
				C156,318.7,156.4,319.5,157.1,319.9C157.1,319.9,157.1,319.9,157.1,319.9C157.1,319.9,157.1,319.9,157.1,319.9
				C157.1,319.9,157.1,319.9,157.1,319.9z M160.4,313.8c0.2,0.2,0.4,0.3,0.6,0.4c-0.3,0-0.7,0-1.1,0
				C160.2,314.1,160.3,314,160.4,313.8z M160.1,319.3C160.1,319.3,160.1,319.3,160.1,319.3S160.1,319.3,160.1,319.3z M163.8,325.2
				c-0.1,0.4-0.3,0.7-0.6,0.9c-0.3,0.3-0.6,0.6-1,0.8c-0.5,0.3-1,0.5-1.6,0.6c-0.5,0.1-1,0.4-1.3,0.8c-0.2-0.2-0.5-0.4-0.8-0.5
				c0,0,0.1,0,0.1,0c0.8,0,1.6-0.2,2.2-0.5c1.3-0.6,2.1-1.8,2-3.2c-0.1-1.1-0.7-2-1.6-2.6c-0.3-0.2-0.7-0.4-1.2-0.6
				c-0.1,0-0.2-0.1-0.2-0.1c-0.2-0.1-0.5-0.1-0.8-0.2c-0.1,0-0.3-0.1-0.5-0.2c0.3,0.1,0.5,0.1,0.8,0.2l0.3,0
				c0.4,0.1,0.8,0.2,1.3,0.3c0.2,0.1,0.5,0.1,0.7,0.2c0.4,0.2,0.8,0.3,1.1,0.6c0.3,0.1,0.5,0.3,0.7,0.5c0.2,0.2,0.4,0.4,0.5,0.7
				c0.1,0.2,0.2,0.5,0.2,0.9C164,324.4,163.9,324.9,163.8,325.2z"/>
			<polygon points="157.1,319.9 157.1,319.9 157.1,319.9 			"/>
		</g>
		<g class="neck-st2">
			<path class="neck-st3" d="M165,320.6c-0.4-0.4-0.8-0.7-1.3-1c-0.5-0.3-0.9-0.5-1.4-0.7c-0.4-0.2-0.8-0.3-1.2-0.4
				c-0.5-0.1-0.9-0.2-1.3-0.3c-0.1,0-0.2,0-0.4-0.1c-0.2,0-0.3-0.1-0.5-0.1c-0.2,0-0.3-0.1-0.4-0.2c-0.1-0.1-0.2-0.2-0.2-0.3
				c0-0.3,0.1-0.5,0.3-0.6c0.2-0.1,0.5-0.2,0.8-0.3c0.3-0.1,0.6-0.1,0.9-0.1c0.3,0,0.5,0,0.7,0c0.6,0.1,1.2,0.2,1.7,0.4
				c0.5,0.2,1,0.4,1.6,0.6l1.3-5c-0.5-0.2-1.1-0.4-1.8-0.5c-0.6-0.1-1.3-0.2-1.9-0.3l0.5-2l-4.1,0.2v2.1c-0.7,0.2-1.4,0.5-2,0.8
				c-0.6,0.4-1.2,0.8-1.6,1.3c-0.4,0.5-0.8,1.1-1,1.8c-0.3,0.7-0.4,1.4-0.3,2.3c0,0.6,0.1,1.1,0.3,1.6c0.2,0.5,0.5,0.9,0.8,1.2
				c0.3,0.3,0.7,0.6,1.1,0.9c0.4,0.2,0.8,0.5,1.2,0.6c0.4,0.2,0.8,0.3,1.1,0.4c0.3,0.1,0.6,0.2,0.8,0.2c0.3,0.1,0.6,0.3,0.9,0.4
				c0.2,0.1,0.4,0.3,0.4,0.6c0,0.4-0.2,0.6-0.5,0.8c-0.4,0.2-0.8,0.3-1.4,0.3c-0.4,0-0.7,0-1.1-0.1c-0.4-0.1-0.7-0.2-1.1-0.3
				c-0.3-0.1-0.7-0.2-1-0.4c-0.3-0.1-0.6-0.2-0.8-0.3l-1.6,4.6c0.7,0.3,1.4,0.6,2.3,0.9s1.7,0.4,2.5,0.5l-0.6,2l4.1-0.2V330
				c0.8-0.2,1.5-0.5,2.2-0.8c0.7-0.4,1.2-0.8,1.7-1.3c0.5-0.5,0.8-1.1,1.1-1.8c0.2-0.7,0.4-1.4,0.3-2.2c0-0.7-0.2-1.3-0.4-1.9
				C165.7,321.5,165.4,321,165,320.6z"/>
		</g>
		<path class="neck-st1" d="M155.3,316.9c1.7,0.5,4-1.7,3.7-3.4C158.6,311.9,153.5,316.4,155.3,316.9z"/>
	</g>
</g>
</svg>
