<?xml version="1.0" encoding="utf-8"?>
<!-- Generator: Adobe Illustrator 26.0.3, SVG Export Plug-In . SVG Version: 6.00 Build 0)  -->
<svg version="1.1" id="Layer_1" xmlns="http://www.w3.org/2000/svg" xmlns:xlink="http://www.w3.org/1999/xlink" x="0px" y="0px"
	 viewBox="0 0 384 400" style="enable-background:new 0 0 384 400;" xml:space="preserve">
<style type="text/css">
	.neck-st0{fill:#6E3994;}
	.neck-st1{opacity:0.4;fill:#BFFFEC;}
	.neck-st2{fill:#8E4ABF;}
</style>
<g>
	<g>
		<path class="neck-st0" d="M150.2,279.7c-10.7-1.9-19.7-4.7-27.3-7.9c-0.7,1.4-1.4,2.8-2.1,4.2c0.4,1.6,0.8,3.2,1.3,4.7
			c0.6,1.9,1.3,3.7,1.9,5.6c16.9,6.6,33.5,12.1,79.6-1.7c6.2-3.7,15.5-10.5,13.1-14.1C197.2,276.3,174.2,280.5,150.2,279.7z"/>
		<path d="M216.4,269.2c-23,6.6-45.2,9.7-66,9c-9.4-1.6-18.4-4.2-26.8-7.7c-0.7-0.3-1.6,0-1.9,0.7c-0.7,1.4-1.4,2.8-2.1,4.2
			c-0.2,0.3-0.2,0.7-0.1,1c0.4,1.7,0.8,3.3,1.4,4.9c0.2,0.6,0.4,1.1,0.6,1.7c0.4,1.3,0.9,2.6,1.3,3.9c0.1,0.5,0.5,0.8,0.9,1
			c10,3.9,19.5,7,32.9,7c11.8,0,26.7-2.4,47.8-8.7c0.1,0,0.2-0.1,0.3-0.1c3-1.8,12.9-7.9,14.1-13.1c0.3-1.2,0.1-2.3-0.5-3.2
			C217.7,269.3,217,269,216.4,269.2z M203.1,283.4c-46.5,13.8-62.6,7.9-77.8,2c-0.3-1.1-0.7-2.3-1.1-3.4c-0.2-0.5-0.4-1.1-0.6-1.6
			c-0.4-1.3-0.8-2.7-1.2-4.1c0.4-0.8,0.8-1.7,1.2-2.5c8.3,3.3,17.1,5.8,26.3,7.4c0.1,0,0.1,0,0.2,0c20.7,0.7,42.7-2.3,65.4-8.7
			C214.7,275.1,209.7,279.5,203.1,283.4z"/>
	</g>
	<path class="neck-st1" d="M125.5,274.4c-1.1-0.4-2.2-0.8-3.2-1.2c-0.5,1-1,2-1.4,2.9c0.4,1.6,0.8,3.2,1.3,4.7c0.3,1,0.7,2.1,1.1,3.1
		c2.2,0.6,4.5,1.2,6.9,1.6c-0.2-0.5-0.4-1-0.6-1.6C128.3,280.8,126.8,277.6,125.5,274.4z"/>
	<path class="neck-st1" d="M184.1,288c4.2-0.5,8.6-1.1,13.2-2c3.3-3.4,6.5-7,9.3-10.9c-6,1.4-12.3,2.7-18.9,3.7
		C186.7,282,185.5,285,184.1,288z"/>
	<g>
		<path class="neck-st0" d="M160.9,292.5l-16.6-0.2c0,0-6.1,33.1-4.3,37.3s8.3,18.9,11.2,20.6s16.5-18.5,15.3-22.4
			S160.9,292.5,160.9,292.5z"/>
		<path d="M162.4,292.3c-0.1-0.7-0.7-1.3-1.5-1.3l-16.6-0.2c0,0,0,0,0,0c-0.7,0-1.3,0.5-1.5,1.2c-1,5.6-6.1,33.8-4.1,38.1l0.4,0.9
			c5.9,13.1,9.2,19,11.4,20.3c0.4,0.2,0.8,0.3,1.1,0.3c1.2,0,2.3-0.9,2.7-1.2c4.5-3.5,14.9-18.8,13.6-23.2
			C167,324.3,163.9,303.1,162.4,292.3z M152,348.8L152,348.8L152,348.8z M160.1,338.7c-3.8,5.9-7.2,9.4-8.4,10
			c-1.2-1-3.9-5.2-9.9-18.8l-0.4-0.9c-1-2.3,1.3-19.4,4.1-35.1l14.1,0.2c0.9,6,4.4,30.6,5.5,34.2C165.3,329,163.9,332.8,160.1,338.7
			z"/>
	</g>
	<path class="neck-st2" d="M156.9,304.7c-3.3,0.1-6.6,0-9.8-0.1c-0.5,7.7-0.8,15.8-0.4,17.6c0.9,3.8,4,16.9,5.3,18.5
		c1.3,1.5,7.1-16.3,6.5-19.7C158.2,319.3,157.5,311.9,156.9,304.7z"/>
	<path class="neck-st1" d="M154.9,291.1l2.5,51.1c1.8-2.3,3.6-5,5.1-7.6c-1.8-13.9-5.1-43.1-5.1-43.1L154.9,291.1z"/>
	<path class="neck-st1" d="M142.6,331.5c1.6,3.6,3.8,8.1,5.7,11.5l3.4-52.4l-2.3,0.1L142.6,331.5z"/>
	<g>
		<path class="neck-st0" d="M142.8,275c0,0-6.2,17.2-3.3,19.5c2.9,2.4,21.4,5.4,28.3,1.3c4.9-3.3-0.6-19.8-1.7-21.5
			C165,272.6,143.4,272.8,142.8,275z"/>
		<path d="M146.4,272.2c-3.3,0.5-4.6,1.1-5,2.3c-2.5,6.8-6.1,18.5-2.9,21.2c2.1,1.7,10.8,3.6,18.7,3.6c4.4,0,8.6-0.6,11.3-2.2
			c0,0,0.1,0,0.1-0.1c6.2-4.2-0.2-22-1.3-23.6C165.6,270.7,149.2,271.9,146.4,272.2z M142.8,275L142.8,275L142.8,275z M167,294.6
			c-6.3,3.7-24.1,0.8-26.5-1.2c-1-1.2,0.7-9.4,3.7-17.6c2.5-1.2,18.2-1.5,20.9-0.4C166.4,278,170.4,292.1,167,294.6z"/>
	</g>
	<path class="neck-st2" d="M146.1,278.1c0,0-3.7,10-2,11.4s12.5,3.1,16.6,0.8c2.8-1.9-0.3-11.5-1-12.5
		C159.2,276.8,146.5,276.9,146.1,278.1z"/>
	<path class="neck-st1" d="M144.9,295c1.9,0.3,2.4,0.5,4.6,0.7l2.1-20.8c-0.7,0-3.3,0.1-4,0.2C146.7,280.2,145.6,290.9,144.9,295z"/>
	<path class="neck-st1" d="M156.9,274.9l-1,21.1c2,0,4,0,5.8-0.2l-1-20.9C159.5,274.9,158.2,274.9,156.9,274.9z"/>
</g>
</svg>
