<?xml version="1.0" encoding="utf-8"?>
<!-- Generator: Adobe Illustrator 26.0.3, SVG Export Plug-In . SVG Version: 6.00 Build 0)  -->
<svg version="1.1" id="Layer_1" xmlns="http://www.w3.org/2000/svg" xmlns:xlink="http://www.w3.org/1999/xlink" x="0px" y="0px"
	 viewBox="0 0 384 400" style="enable-background:new 0 0 384 400;" xml:space="preserve">
<style type="text/css">
	.neck-st0{fill:#6E3994;}
	.neck-st1{fill:#8E4ABF;}
	.neck-st2{opacity:0.6;fill:#F5BFFF;}
</style>
<g>
	<g>
		<path class="neck-st0" d="M151.6,276.9c-10.7-1.9-19.7-4.7-27.3-7.9c-0.7,1.4-1.4,2.8-2.1,4.2c0.4,1.6,0.8,3.2,1.3,4.7
			c0.6,1.9,1.3,3.7,1.9,5.6c16.9,6.6,33.5,12.1,79.6-1.7c6.2-3.7,15.5-10.5,13.1-14.1C198.6,273.4,175.6,277.6,151.6,276.9z"/>
		<path d="M217.7,266.4c-23,6.6-45.2,9.7-66,9c-9.4-1.6-18.4-4.2-26.8-7.7c-0.7-0.3-1.6,0-1.9,0.7c-0.7,1.4-1.4,2.8-2.1,4.2
			c-0.2,0.3-0.2,0.7-0.1,1c0.4,1.7,0.8,3.3,1.4,4.9c0.2,0.6,0.4,1.1,0.6,1.7c0.4,1.3,0.9,2.6,1.3,3.9c0.1,0.5,0.5,0.8,0.9,1
			c10,3.9,19.5,7,32.9,7c11.8,0,26.7-2.4,47.8-8.7c0.1,0,0.2-0.1,0.3-0.1c3-1.8,12.9-7.9,14.1-13.1c0.3-1.2,0.1-2.3-0.5-3.2
			C219.1,266.4,218.4,266.2,217.7,266.4z M204.5,280.6c-46.5,13.8-62.6,7.9-77.8,2c-0.3-1.1-0.7-2.3-1.1-3.4
			c-0.2-0.5-0.4-1.1-0.6-1.6c-0.4-1.3-0.8-2.7-1.2-4.1c0.4-0.8,0.8-1.7,1.2-2.5c8.3,3.3,17.1,5.8,26.3,7.4c0.1,0,0.1,0,0.2,0
			c20.7,0.7,42.7-2.3,65.4-8.7C216.1,272.3,211.1,276.7,204.5,280.6z"/>
	</g>
	<g>
		<path class="neck-st0" d="M162.3,289.7l-16.6-0.2c0,0-6.1,33.1-4.3,37.3s8.3,18.9,11.2,20.6c2.9,1.7,16.5-18.5,15.3-22.4
			C166.7,321,162.3,289.7,162.3,289.7z"/>
		<path d="M163.8,289.5c-0.1-0.7-0.7-1.3-1.5-1.3l-16.6-0.2c-0.7,0-1.4,0.5-1.5,1.2c-1,5.6-6.1,33.8-4.1,38.1l0.4,0.9
			c5.9,13.1,9.2,19,11.4,20.3c0.4,0.2,0.8,0.3,1.1,0.3c1.2,0,2.3-0.9,2.7-1.2c4.5-3.5,14.9-18.8,13.6-23.2
			C168.4,321.5,165.3,300.3,163.8,289.5z M153.3,345.9L153.3,345.9L153.3,345.9z M161.5,335.8c-3.8,5.9-7.2,9.4-8.4,10
			c-1.2-1-3.9-5.2-9.9-18.8l-0.4-0.9c-1-2.3,1.3-19.4,4.1-35.1l14.1,0.2c0.9,6,4.4,30.6,5.5,34.2C166.6,326.2,165.2,330,161.5,335.8
			z"/>
	</g>
	<path class="neck-st1" d="M158.2,301.9c-3.3,0.1-6.6,0-9.8-0.1c-0.5,7.7-0.8,15.8-0.4,17.6c0.9,3.8,4,16.9,5.3,18.5
		c1.3,1.5,7.1-16.3,6.5-19.7C159.6,316.5,158.9,309.1,158.2,301.9z"/>
	<g>
		<path class="neck-st0" d="M144.2,272.1c0,0-6.2,17.2-3.3,19.5c2.9,2.4,21.4,5.4,28.3,1.3c4.9-3.3-0.6-19.8-1.7-21.5
			S144.8,270,144.2,272.1z"/>
		<path d="M147.8,269.4c-3.3,0.5-4.6,1.1-5,2.3c-2.5,6.8-6.1,18.5-2.9,21.2c2.1,1.7,10.8,3.6,18.7,3.6c4.4,0,8.6-0.6,11.3-2.2
			c0,0,0.1,0,0.1-0.1c6.2-4.2-0.2-22-1.3-23.6C167,267.9,150.5,269,147.8,269.4z M145.6,272.6C145.6,272.6,145.6,272.6,145.6,272.6
			C145.6,272.6,145.6,272.6,145.6,272.6z M144.2,272.1L144.2,272.1L144.2,272.1z M168.4,291.7c-6.3,3.7-24.1,0.8-26.5-1.2
			c-1-1.2,0.7-9.4,3.7-17.6c2.5-1.2,18.2-1.5,20.9-0.4C167.7,275.1,171.7,289.3,168.4,291.7z"/>
	</g>
	<path class="neck-st1" d="M147.5,275.3c0,0-3.7,10-2,11.4c1.7,1.4,12.5,3.1,16.6,0.8c2.8-1.9-0.3-11.5-1-12.5
		C160.5,273.9,147.9,274.1,147.5,275.3z"/>
	<ellipse class="neck-st2" cx="191.3" cy="279.4" rx="3.1" ry="2.9"/>
	<path class="neck-st2" d="M137.3,273.6c-1.7,0-3.1,1.3-3.1,2.9s1.4,2.9,3.1,2.9s3.1-1.3,3.1-2.9S139,273.6,137.3,273.6z"/>
	<path class="neck-st2" d="M205.9,275.3c-1.7,0-3.1,1.3-3.1,2.9c0,1.2,0.7,2.2,1.7,2.6c1.2-1.3,2.8-2.3,4.3-3
		C208.7,276.4,207.4,275.3,205.9,275.3z"/>
	<ellipse class="neck-st2" cx="154.9" cy="330.2" rx="5.9" ry="5.7"/>
	<path class="neck-st2" d="M149.5,274.3c-2.7,0-4.8,2.1-4.8,4.7s2.2,4.7,4.8,4.7c2.7,0,4.8-2.1,4.8-4.7S152.1,274.3,149.5,274.3z"/>
	<path class="neck-st2" d="M180.4,282.1c-1.7,0-3.1,1.3-3.1,2.9c0,0.6,0.2,1.1,0.5,1.6c1.8-0.7,3.7-1.1,5.6-1.3c0-0.1,0-0.2,0-0.2
		C183.4,283.5,182.1,282.1,180.4,282.1z"/>
	<path class="neck-st2" d="M133.4,281c-1.4-0.9-3.3-0.5-4.1,0.9c-0.3,0.5-0.4,1.1-0.4,1.6c1.9,0.3,3.7,1,5.4,1.8c0.1-0.1,0.1-0.1,0.2-0.2
		C135.3,283.7,134.8,281.9,133.4,281z"/>
	<path class="neck-st2" d="M155,287.4c-2.8-0.7-5.5,0.9-6.2,3.5c-0.1,0.6-0.2,1.1-0.1,1.6c3.3,0.2,6.6,1,10,1.3c0-0.1,0.1-0.2,0.1-0.3
		C159.4,290.8,157.8,288.1,155,287.4z"/>
	<path class="neck-st2" d="M162.8,301.5c-0.2,0-0.3-0.1-0.5-0.1c-3.3-0.5-6.4,1.9-6.9,5.3c-0.5,3.4,1.8,6.6,5,7.1c1.2,0.2,2.4,0,3.4-0.5
		C162.9,309.4,162.7,305.5,162.8,301.5z"/>
	<path class="neck-st2" d="M166.3,276.3c-3.3-0.1-6.1,2.7-6.2,6.1c-0.1,3.5,2.6,6.3,5.9,6.4c1.2,0,2.3-0.3,3.3-0.9
		c-1.5-3.7-2.2-7.6-2.5-11.5C166.7,276.3,166.5,276.3,166.3,276.3z"/>
	<path class="neck-st2" d="M146.7,308c-0.7-0.3-1.5-0.4-2.2-0.4c-0.7,4.1-1.1,8.2-1.3,12.4c2.8,0.5,5.8-1.1,6.9-4
		C151.3,312.8,149.8,309.2,146.7,308z"/>
</g>
</svg>
