<?xml version="1.0" encoding="utf-8"?>
<!-- Generator: Adobe Illustrator 26.0.3, SVG Export Plug-In . SVG Version: 6.00 Build 0)  -->
<svg version="1.1" id="Layer_1" xmlns="http://www.w3.org/2000/svg" xmlns:xlink="http://www.w3.org/1999/xlink" x="0px" y="0px"
	 viewBox="0 0 384 400" style="enable-background:new 0 0 384 400;" xml:space="preserve">
<style type="text/css">
	.neck-st0{fill:#23B589;}
	.neck-st1{fill:#FFFFFF;}
	.neck-st2{fill:#1C906D;}
</style>
<g>
	<g>
		<g>
			<path class="neck-st0" d="M156.4,285.3c-6.8,4.9-16.5,17.8-16.5,17.8s16.9,2.1,18.8,5.3c1-5.2,29.3-21.2,29.3-21.2
				S163.1,280.4,156.4,285.3z"/>
			<path d="M188.5,285.8c-2.6-0.7-25.8-6.9-33-1.7c-6.9,5-16.4,17.6-16.8,18.1c-0.3,0.4-0.4,1-0.2,1.5c0.2,0.5,0.7,0.8,1.2,0.9
				c8.8,1.1,16.9,3.2,17.7,4.6c0.3,0.5,0.8,0.7,1.3,0.7c0.1,0,0.2,0,0.3,0c0.6-0.1,1.1-0.6,1.2-1.2c0.5-2.8,15.3-12.7,28.6-20.2
				c0.5-0.3,0.8-0.9,0.8-1.5C189.5,286.5,189.1,286,188.5,285.8z M158.3,306.2c-3.6-2.1-11.1-3.5-15.6-4.2c3-3.8,9.7-11.9,14.6-15.4
				c4.3-3.2,18.6-0.7,26.8,1.3C176.4,292.3,162.3,300.9,158.3,306.2z"/>
		</g>
		<path d="M156.7,314.5c4.2-3,2-6.3,2-6.3C155.1,309.2,152.5,317.5,156.7,314.5z"/>
		<path d="M149.8,311.7c4.2-3,2-6.3,2-6.3C148.2,306.3,145.6,314.7,149.8,311.7z"/>
		<path d="M143.2,309.9c4.2-3,2-6.3,2-6.3C141.5,304.5,139,312.9,143.2,309.9z"/>
		<path d="M137.4,308.2c4.2-3,2-6.3,2-6.3C135.8,302.8,133.2,311.2,137.4,308.2z"/>
		<path class="neck-st1" d="M156.4,285.3c-3.4,2.5-7.6,7-10.9,10.9c8.5-0.7,17.7-1.5,25.8,1.3c8-5.3,16.8-10.3,16.8-10.3
			S163.1,280.4,156.4,285.3z"/>
	</g>
	<g>
		<g>
			<path class="neck-st0" d="M221,270c-4.8-1.8-18.6,2.5-42.7,4.2c-26,2.3-59.5-17.5-64.6-2.4c-5.7,15.6,7.6,18.9,25.3,15.8
				c16.4-1.3,69.2,8,81.6-1.1C236.9,276.5,220.8,270,221,270z"/>
			<path d="M222,268.8L222,268.8c-0.2-0.1-0.3-0.2-0.4-0.2c-2.9-1.1-7.9-0.3-16.2,0.9c-7.1,1.1-15.9,2.4-27.2,3.2
				c-10.6,0.9-22.8-2-33.5-4.5c-15.6-3.7-29-6.9-32.4,3.1c-2.2,6-1.9,10.6,0.9,14c5.1,6.1,16.9,5.5,26,3.9
				c5.4-0.4,14.8,0.3,25.7,1.2c10.8,0.9,22.4,1.8,32.4,1.8c10.7,0,19.6-1,24.1-4.3c5.4-3.3,8.1-6.8,8-10.3
				C229.3,275.1,227.9,271.8,222,268.8z M219.8,285.2c0,0-0.1,0-0.1,0.1c-7.8,5.7-33.7,3.6-54.6,2c-8.8-0.7-16.6-1.3-22.3-1.3
				c-1.5,0-2.8,0-3.9,0.1c0,0-0.1,0-0.1,0c-11.7,2.1-20,1-23.2-2.8c-2-2.4-2.2-6.1-0.4-11c2.4-7.1,12.5-5.1,28.8-1.2
				c10.9,2.6,23.3,5.6,34.4,4.6c11.4-0.8,20.6-2.2,27.4-3.2c7.2-1.1,12.4-1.9,14.6-1.1c0.1,0,0.1,0.1,0.2,0.1c3.6,1.8,5.7,4,5.8,6.1
				C226.5,279.8,224.2,282.5,219.8,285.2z"/>
		</g>
		<path class="neck-st2" d="M222,273.2c-3.1,1.5-6.6,2.4-10.2,3.2c-5.7,1.3-11.5,2.2-17.4,3c-9.8,1.3-19.8,1.9-30.1,2.1
			c-15.9,0.4-33.6-1-48.6-8.3c-0.3,0.4-0.5,0.8-0.7,1.2c-4.9,11.5,8,14.5,25.1,12.5c16.1-0.4,67.4,5.7,79.5-2
			C232.2,278.5,224,275,222,273.2z"/>
		<path class="neck-st1" d="M221.2,270.4c-2.2-0.6-6.2-0.2-12.2,0.7c1.5,5.4,2.1,11.1,1.8,16.8c1.7-0.4,8.5-1.8,9.6-2.5
			C236.7,276,221,270.5,221.2,270.4z"/>
		<path class="neck-st1" d="M156,287c0,0.1,0,0.1,0,0.2c3.6,0.3,7.4,0.7,11.3,1.1c0.9-4.5,1.3-9,1.5-13.6c-3.4-0.2-6.9-0.7-10.4-1.3
			C157.4,277.9,156.6,282.5,156,287z"/>
		<path class="neck-st1" d="M118.5,286.1c4.9,1.9,12.3,2,20.5,0.8c0.4-0.1,0.9-0.1,1.4-0.1c0.1-0.6,0.2-1.2,0.3-1.7
			c0.9-4.8,2-9.6,3.2-14.3c-6-1.3-11.5-2.6-16.2-3.1C124,273.4,120.8,279.5,118.5,286.1z"/>
		<path class="neck-st1" d="M182.9,274.5c0.1,5-0.1,10-0.8,15c5,0.3,9.8,0.4,14.3,0.2c1-5.6,0.8-11.2-0.6-16.6
			C191.9,273.6,187.6,274.1,182.9,274.5z"/>
	</g>
</g>
</svg>
