<?xml version="1.0" encoding="utf-8"?>
<!-- Generator: Adobe Illustrator 26.0.3, SVG Export Plug-In . SVG Version: 6.00 Build 0)  -->
<svg version="1.1" id="Layer_1" xmlns="http://www.w3.org/2000/svg" xmlns:xlink="http://www.w3.org/1999/xlink" x="0px" y="0px"
	 viewBox="0 0 384 400" style="enable-background:new 0 0 384 400;" xml:space="preserve">
<style type="text/css">
	.neck-st0{fill:#2378B5;}
	.neck-st1{fill:#FFFFFF;}
	.neck-st2{fill:#1C5F90;}
</style>
<g>
	<g>
		<g>
			<path class="neck-st0" d="M184.2,284c-6.8-4.9-31.7,2-31.7,2s28.3,15.9,29.3,21.2c1.9-3.2,18.8-5.3,18.8-5.3S191,288.9,184.2,284z"/>
			<path d="M185.1,282.8c-7.1-5.2-30.4,1-33,1.7c-0.6,0.2-1,0.7-1.1,1.3c-0.1,0.6,0.2,1.2,0.8,1.5c13.3,7.5,28.1,17.3,28.6,20.2
				c0.1,0.6,0.6,1.1,1.2,1.2c0.1,0,0.2,0,0.3,0c0.5,0,1-0.3,1.3-0.7c0.8-1.4,8.9-3.5,17.7-4.6c0.5-0.1,1-0.4,1.2-0.9
				c0.2-0.5,0.1-1.1-0.2-1.5C201.5,300.4,192,287.8,185.1,282.8z M182.3,304.8c-4-5.3-18.1-13.9-25.8-18.3
				c8.2-1.9,22.5-4.4,26.8-1.3c4.9,3.6,11.6,11.7,14.6,15.4C193.3,301.3,185.9,302.7,182.3,304.8z"/>
		</g>
		<path d="M181.8,306.9c0,0-2.1,3.3,2,6.3S185.5,307.8,181.8,306.9z"/>
		<path d="M188.8,304.1c0,0-2.1,3.3,2,6.3S192.5,305,188.8,304.1z"/>
		<path d="M195.4,302.3c0,0-2.1,3.3,2,6.3S199.1,303.2,195.4,302.3z"/>
		<path d="M201.2,300.6c0,0-2.1,3.3,2,6.3S204.8,301.5,201.2,300.6z"/>
		<path class="neck-st1" d="M184.2,284c-6.8-4.9-31.7,2-31.7,2s8.8,5,16.8,10.3c8.1-2.8,17.3-2,25.8-1.3C191.8,291,187.6,286.5,184.2,284
			z"/>
	</g>
	<g>
		<g>
			<path class="neck-st0" d="M162.3,272.8c-24.1-1.7-37.9-6-42.7-4.2c0.2,0-15.8,6.5,0.5,16.5c12.4,9.1,65.2-0.2,81.6,1.1
				c17.7,3.1,31-0.2,25.3-15.8C221.8,255.3,188.3,275.1,162.3,272.8z"/>
			<path d="M195.9,266.8c-10.7,2.6-22.9,5.5-33.5,4.5c-11.3-0.8-20.1-2.1-27.1-3.2c-8.3-1.2-13.3-2-16.2-0.9c-0.1,0-0.2,0.1-0.3,0.2
				l-0.1,0c-6,3-7.3,6.4-7.4,8.6c-0.1,3.5,2.5,7,8,10.3c4.5,3.3,13.4,4.3,24.1,4.3c10,0,21.5-0.9,32.4-1.8
				c10.9-0.9,20.3-1.6,25.7-1.2c9.1,1.6,20.9,2.2,26-3.9c2.8-3.3,3.1-8,0.9-13.9C224.9,259.8,211.5,263.1,195.9,266.8z M225.1,281.9
				c-3.3,3.9-11.5,4.9-23.2,2.8c0,0-0.1,0-0.1,0c-5.6-0.5-15.2,0.3-26.3,1.2c-20.9,1.6-46.8,3.7-54.6-2c0,0-0.1,0-0.1-0.1
				c-4.4-2.7-6.7-5.4-6.6-7.7c0.1-2.1,2.1-4.3,5.8-6.1c0.1,0,0.1-0.1,0.2-0.1c2.3-0.8,7.5,0,14.6,1.1c6.8,1,16,2.4,27.4,3.2
				c11.1,1,23.5-2,34.5-4.6c16.3-3.9,26.5-5.9,28.9,1.2C227.3,275.8,227.1,279.5,225.1,281.9z"/>
		</g>
		<path class="neck-st2" d="M224.9,271.9c-15.1,7.3-32.8,8.7-48.6,8.3c-10.3-0.2-20.3-0.8-30.1-2.1c-5.9-0.8-11.7-1.7-17.4-3
			c-3.5-0.8-7.1-1.7-10.2-3.2c-1.9,1.8-10.1,5.3,2.4,11.7c12.1,7.7,63.5,1.7,79.5,2c17.1,2,30-0.9,25.1-12.5
			C225.4,272.7,225.1,272.3,224.9,271.9z"/>
		<path class="neck-st1" d="M119.4,269.1c0.2,0-15.6,5.6,0.8,15c1.1,0.7,7.9,2.1,9.6,2.5c-0.3-5.7,0.3-11.3,1.8-16.8
			C125.7,268.9,121.6,268.5,119.4,269.1z"/>
		<path class="neck-st1" d="M182.2,272.1c-3.5,0.6-7,1-10.4,1.3c0.1,4.6,0.5,9.1,1.5,13.6c3.9-0.4,7.8-0.8,11.3-1.1c0-0.1,0-0.1,0-0.2
			C184,281.1,183.2,276.6,182.2,272.1z"/>
		<path class="neck-st1" d="M196.7,269.3c1.2,4.7,2.3,9.5,3.2,14.3c0.1,0.6,0.2,1.1,0.3,1.7c0.5,0,1,0.1,1.4,0.1
			c8.3,1.3,15.6,1.2,20.5-0.8c-2.3-6.6-5.5-12.7-9.2-18.6C208.2,266.7,202.6,268,196.7,269.3z"/>
		<path class="neck-st1" d="M157.7,273.2c-4.7-0.4-9-0.9-12.9-1.4c-1.4,5.4-1.5,11-0.6,16.6c4.4,0.1,9.3,0.1,14.3-0.2
			C157.8,283.2,157.6,278.2,157.7,273.2z"/>
	</g>
</g>
</svg>
