<?xml version="1.0" encoding="utf-8"?>
<!-- Generator: Adobe Illustrator 26.0.3, SVG Export Plug-In . SVG Version: 6.00 Build 0)  -->
<svg version="1.1" id="Layer_1" xmlns="http://www.w3.org/2000/svg" xmlns:xlink="http://www.w3.org/1999/xlink" x="0px" y="0px"
	 viewBox="0 0 384 400" style="enable-background:new 0 0 384 400;" xml:space="preserve">
<style type="text/css">
	.neck-st0{fill:#F0D448;}
	.neck-st1{fill:#FFFFFF;}
	.neck-st2{fill:#F0AC48;}
</style>
<g>
	<g>
		<g>
			<path class="neck-st0" d="M183.9,285.3c-6.8-4.9-31.7,2-31.7,2s28.3,15.9,29.3,21.2c1.9-3.2,18.8-5.3,18.8-5.3
				S190.7,290.3,183.9,285.3z"/>
			<path d="M184.8,284.1c-7.1-5.2-30.4,1-33,1.7c-0.6,0.2-1,0.7-1.1,1.3c-0.1,0.6,0.2,1.2,0.8,1.5c13.3,7.5,28.1,17.3,28.6,20.2
				c0.1,0.6,0.6,1.1,1.2,1.2c0.1,0,0.2,0,0.3,0c0.5,0,1-0.3,1.3-0.7c0.8-1.4,8.9-3.5,17.7-4.6c0.5-0.1,1-0.4,1.2-0.9
				c0.2-0.5,0.1-1.1-0.2-1.5C201.2,301.7,191.6,289.1,184.8,284.1z M182,306.2c-4-5.3-18.1-13.9-25.8-18.3
				c8.2-1.9,22.5-4.4,26.8-1.3c4.9,3.6,11.6,11.7,14.6,15.4C193,302.7,185.5,304,182,306.2z"/>
		</g>
		<path d="M181.5,308.3c0,0-2.1,3.3,2,6.3C187.7,317.5,185.2,309.2,181.5,308.3z"/>
		<path d="M188.4,305.4c0,0-2.1,3.3,2,6.3S192.1,306.3,188.4,305.4z"/>
		<path d="M195.1,303.6c0,0-2.1,3.3,2,6.3S198.7,304.5,195.1,303.6z"/>
		<path d="M200.8,301.9c0,0-2.1,3.3,2,6.3S204.5,302.8,200.8,301.9z"/>
		<path class="neck-st1" d="M183.9,285.3c-6.8-4.9-31.7,2-31.7,2s8.8,5,16.8,10.3c8.1-2.8,17.3-2,25.8-1.3
			C191.5,292.4,187.3,287.8,183.9,285.3z"/>
	</g>
	<g>
		<g>
			<path class="neck-st0" d="M162,274.2c-24.1-1.7-37.9-6-42.7-4.2c0.2,0-15.8,6.5,0.5,16.5c12.4,9.1,65.2-0.2,81.6,1.1
				c17.7,3.1,31-0.2,25.3-15.8C221.5,256.6,187.9,276.4,162,274.2z"/>
			<path d="M195.6,268.1c-10.7,2.6-22.9,5.5-33.5,4.5c-11.3-0.8-20.1-2.1-27.1-3.2c-8.3-1.2-13.3-2-16.2-0.9c-0.1,0-0.2,0.1-0.3,0.2
				l-0.1,0c-6,3-7.3,6.4-7.4,8.6c-0.1,3.5,2.5,7,8,10.3c4.5,3.2,13.4,4.3,24.1,4.3c10,0,21.6-0.9,32.4-1.8
				c10.9-0.9,20.3-1.6,25.7-1.2c9.1,1.6,20.9,2.2,26-3.9c2.8-3.3,3.1-8,0.9-13.9C224.6,261.2,211.2,264.4,195.6,268.1z M224.8,283.2
				c-3.3,3.9-11.5,4.9-23.2,2.8c0,0-0.1,0-0.1,0c-5.6-0.5-15.2,0.3-26.3,1.2c-20.9,1.6-46.8,3.7-54.6-2c0,0-0.1,0-0.1-0.1
				c-4.4-2.7-6.7-5.4-6.6-7.7c0.1-2.1,2.1-4.3,5.8-6.1c0.1,0,0.1-0.1,0.2-0.1c2.3-0.8,7.5,0,14.6,1.1c6.8,1,16,2.4,27.4,3.2
				c11.1,1,23.5-2,34.5-4.6c16.3-3.9,26.5-5.9,28.9,1.2C226.9,277.1,226.8,280.8,224.8,283.2z"/>
		</g>
		<path class="neck-st2" d="M224.5,273.2c-15.1,7.3-32.8,8.7-48.6,8.3c-10.3-0.2-20.3-0.8-30.1-2.1c-5.9-0.8-11.7-1.7-17.4-3
			c-3.5-0.8-7.1-1.7-10.2-3.2c-1.9,1.8-10.1,5.3,2.4,11.7c12.1,7.7,63.5,1.7,79.5,2c17.1,2,30-0.9,25.1-12.5
			C225,274,224.8,273.6,224.5,273.2z"/>
		<path class="neck-st1" d="M119.1,270.4c0.2,0-15.6,5.6,0.8,15c1.1,0.7,7.9,2.1,9.6,2.5c-0.3-5.7,0.3-11.3,1.8-16.8
			C125.4,270.2,121.3,269.8,119.1,270.4z"/>
		<path class="neck-st1" d="M181.9,273.5c-3.5,0.6-7,1-10.4,1.3c0.1,4.6,0.5,9.1,1.5,13.6c3.9-0.4,7.8-0.8,11.3-1.1c0-0.1,0-0.1,0-0.2
			C183.7,282.5,182.8,277.9,181.9,273.5z"/>
		<path class="neck-st1" d="M196.3,270.6c1.2,4.7,2.3,9.5,3.2,14.3c0.1,0.6,0.2,1.1,0.3,1.7c0.5,0,1,0.1,1.4,0.1
			c8.3,1.3,15.6,1.2,20.5-0.8c-2.3-6.6-5.5-12.7-9.2-18.6C207.9,268.1,202.3,269.3,196.3,270.6z"/>
		<path class="neck-st1" d="M157.4,274.5c-4.7-0.4-9-0.9-12.9-1.4c-1.4,5.4-1.5,11-0.6,16.6c4.4,0.1,9.3,0.1,14.3-0.2
			C157.5,284.5,157.3,279.5,157.4,274.5z"/>
	</g>
</g>
</svg>
