<?xml version="1.0" encoding="utf-8"?>
<!-- Generator: Adobe Illustrator 26.0.3, SVG Export Plug-In . SVG Version: 6.00 Build 0)  -->
<svg version="1.1" id="Layer_1" xmlns="http://www.w3.org/2000/svg" xmlns:xlink="http://www.w3.org/1999/xlink" x="0px" y="0px"
	 viewBox="0 0 384 400" style="enable-background:new 0 0 384 400;" xml:space="preserve">
<style type="text/css">
	.neck-st0{fill:#4FA7DC;}
	.neck-st1{fill:#5CC2FF;}
	.neck-st2{opacity:0.18;fill:#573314;}
</style>
<g>
	<path d="M186.7,273.9c-9.2,5.3-29.3,10.2-41.3,5.2c-12.3-5.1-18.1-6.8-18.8-7.1c-0.6-0.2-3.5-1.3-5.5,0.3c-1.4,1.2-1.7,3.3-1,6.4
		l0,0.2l0.1,0.2c0.7,1.1,16.2,27.1,33.1,39.1l1.2,0.8l0.7-1.3c0.2-0.3,0.2-0.6,0.1-1.2c-0.1-1.4-0.5-5.5,1.5-7.5
		c0.8-0.9,2-1.3,3.6-1.2c7.7,0.3,31.2-4.3,38.2-16.2c6.3-10.7,12-16.1,12-16.1l1.6-1.4l-2-0.7C209.5,273.1,195.7,268.7,186.7,273.9z
		 M196.4,290.3c-6.1,10.4-28,15.2-35.9,14.9c-2.3-0.1-4.2,0.6-5.5,2c-1.9,2-2.3,5.1-2.2,7.3c-15.1-11.8-28.9-34.4-30.2-36.6
		c-0.4-1.9-0.3-3.2,0.2-3.7c0.7-0.6,2.3-0.2,2.9,0.1l0.1,0.1c0.1,0,5.9,1.7,18.6,7c12.8,5.3,33.8,0.2,43.5-5.3
		c6.2-3.5,15.4-1.9,19.5-0.9C205.2,277.5,201,282.5,196.4,290.3z"/>
	<path class="neck-st0" d="M187.3,274.9c-8.7,5-29.5,10.6-42.4,5.2s-18.7-7-18.7-7s-6.7-2.9-4.8,5.2c0,0,15.8,26.7,32.8,38.7
		c0.1-0.3-1.9-10.9,6.3-10.6c8.3,0.3,30.6-4.5,37.1-15.6c6.5-11,12.3-16.4,12.3-16.4S196,270,187.3,274.9z"/>
	<path class="neck-st1" d="M164.3,289.7c-12.6-1.2-25.2-0.2-29.6-3.5c0,0,3.9,9.9,15,13c0.4,0.1-9.5-4.8-5.6-7.8c3.9-2.9,14,1.4,22.6,0.2
		s14.2-0.9,10.7,0.8s0.8,0.1,0.8,0.1S186.1,289.4,164.3,289.7z"/>
	<path class="neck-st2" d="M197,281.1c-0.2,0.1-0.3,0.2-0.5,0.3c0,4.3-1.5,10.1-8.6,13.8c-0.2,0.1,3.4-5.9,5.8-11.9
		c-0.9,0.7-1.8,1.4-2.7,2.1c-2,1.6-3.9,3.2-5.9,4.8c-2,1.6-3.9,3.3-5.9,4.8c-0.2,0.2-0.5,0.3-0.7,0.5c-2.2,3-6.8,5.9-16.7,6.5
		c-0.2,0,2.3-1.2,5.6-3.2c-1.1,0-2.3,0-3.4,0c-2.7-0.1-5.5-0.4-8.2-0.2c-2.2,0.1-3.7,1.2-5.2,2.7c-0.8,0.8-1.5,1.6-2.7,1.5
		c-1,0-2.1-0.7-3-1.1c-2.1-1.1-4-2.8-5.6-4.6c-3.5-3.8-6.8-7.9-9.5-12.3c-1.3-2-2.4-4.1-3.5-6.2c-0.9-1.8-1.9-3.8-2-5.9
		c-1.8-0.2-4.2,0.4-3,5.7c0,0,15.8,26.7,32.8,38.7c0.1-0.3-1.9-10.9,6.3-10.6c8.3,0.3,30.6-4.5,37.1-15.6c3.5-5.9,6.8-10.2,9-12.9
		c-0.9,0.2-1.8,0.3-2.7,0.5C201.4,279.1,199.2,279.9,197,281.1z"/>
	<path d="M155,309.8c-0.2,0.2-0.3,0.4-0.2,0.6C154.7,310.4,154.8,310.2,155,309.8z"/>
	<path d="M155,309.8c0.8-0.9,3.1-2.1,3.1-2.1s-0.2-3.4,0.5-4.1C157.2,304.5,155.6,308.3,155,309.8z"/>
	<path d="M176.6,305.1c0,0,7.4-2.7,8.8-3.8c1.4-1-0.1-8-0.1-8C185.2,299.6,176.6,305.1,176.6,305.1z"/>
</g>
</svg>
