<?xml version="1.0" encoding="utf-8"?>
<!-- Generator: Adobe Illustrator 26.0.3, SVG Export Plug-In . SVG Version: 6.00 Build 0)  -->
<svg version="1.1" id="Layer_1" xmlns="http://www.w3.org/2000/svg" xmlns:xlink="http://www.w3.org/1999/xlink" x="0px" y="0px"
	 viewBox="0 0 384 400" style="enable-background:new 0 0 384 400;" xml:space="preserve">
<style type="text/css">
	.neck-st0{opacity:0.25;fill:#363636;}
	.neck-st1{fill:#8E4ABF;}
	.neck-st2{fill:#6E3994;}
	.neck-st3{fill:#A355DB;}
</style>
<g>
	<path class="neck-st0" d="M165.9,276.8c-1.5-1.5-3.7-2.5-6.5-2.3c-2,0.1-3.4,0.8-4.5,1.8c-7.2-5.5-26.6-11.7-29.4-1.1
		c-3.4,12.9,11.4,36.9,29,10.1c1.4,1.9,3.6,3.4,6.9,3.9c3.2,0.5,5.3-0.6,6.3-2.5c17.2,24.6,31.4,1.2,28.1-11.5
		C193,264.3,172.5,271.1,165.9,276.8z"/>
	<g>
		<path class="neck-st1" d="M123.5,269.2c-3.5,13.6,13,39.6,31.9,5.3C158.1,269.6,127,255.7,123.5,269.2z"/>
		<path d="M129.6,262.2c-4,0.8-6.7,3-7.6,6.6c-2.1,7.9,2.1,20.1,10.3,23.3c1.1,0.4,2.5,0.8,4.1,0.8c5,0,12.3-3.4,20.2-17.7
			c0.4-0.6,0.8-2-0.5-3.8C152.7,266.8,138.6,260.6,129.6,262.2z M133.4,289.4c-6.6-2.6-10.2-13.3-8.5-19.8c1-3.7,4.4-4.7,7.9-4.7
			c1,0,2,0.1,2.9,0.2c9.3,1.2,18.1,6.9,18.2,8.7C147.1,286.4,139.8,292,133.4,289.4z"/>
	</g>
	<path class="neck-st2" d="M126,278.2c1.8,10.2,12.4,20.5,24.6,0.9C142.4,280.8,133.7,281,126,278.2z"/>
	<g>
		<path class="neck-st1" d="M161.8,274.6c18.9,34.2,35.4,8.3,31.9-5.3S159.1,269.6,161.8,274.6z"/>
		<path d="M187.6,262.2c-9-1.7-23.1,4.5-26.5,9.2c-1.3,1.8-0.9,3.2-0.5,3.8c7.9,14.4,15.1,17.7,20.2,17.7c1.6,0,3-0.4,4.1-0.8
			c8.2-3.3,12.4-15.5,10.3-23.3C194.2,265.3,191.6,263,187.6,262.2z M163.2,273.9L163.2,273.9L163.2,273.9z M183.7,289.4
			c-6.3,2.5-13.6-3-20.6-15.6c0.1-1.8,8.9-7.5,18.2-8.7c4.3-0.6,9.6-0.2,10.9,4.5C194,276.2,190.3,286.8,183.7,289.4z"/>
	</g>
	<path class="neck-st2" d="M191.5,270.7c-0.8,0.6-1.7,1.2-2.6,1.7c-6.6,3.8-15.7,5.4-24,4.4c15.9,27.3,29.6,5.5,26.6-5.9
		C191.6,270.8,191.5,270.7,191.5,270.7z"/>
	<g>
		<path class="neck-st3" d="M157.3,268.5c-8.9,0.5-8.6,13,2,14.8C170,285,168.2,267.9,157.3,268.5z"/>
		<path d="M157.2,267c-5.1,0.3-7.6,3.9-7.8,7.3c-0.2,4.3,3,9.3,9.6,10.4c0.6,0.1,1.2,0.2,1.8,0.2c3.2,0,5-1.7,5.8-2.8
			c1.9-2.6,1.9-6.6,0-10C164.7,268.6,161.3,266.7,157.2,267z M157.3,268.5L157.3,268.5L157.3,268.5z M164.2,280.3
			c-1.1,1.6-3.1,1.7-4.6,1.4c-5.1-0.9-7.3-4.4-7.1-7.3c0.1-2.1,1.5-4.3,4.9-4.5c3.9-0.2,5.8,2.2,6.6,3.6
			C165.3,275.9,165.3,278.7,164.2,280.3z"/>
	</g>
</g>
</svg>
