<?xml version="1.0" encoding="utf-8"?>
<!-- Generator: Adobe Illustrator 26.0.3, SVG Export Plug-In . SVG Version: 6.00 Build 0)  -->
<svg version="1.1" xmlns="http://www.w3.org/2000/svg" xmlns:xlink="http://www.w3.org/1999/xlink" x="0px" y="0px"
	 viewBox="0 0 384 400" style="enable-background:new 0 0 384 400;" xml:space="preserve">
<style type="text/css">
	.st0{display:none;}
	.st1{display:inline;}
	.st2{opacity:0.16;}
	.st3{fill:#E8930F;}
	.st4{fill:#FFBA39;}
	.st5{fill:#FFFFFF;}
	.st6{fill:#9E9E9E;}
	.st7{fill:#C1C1C1;}
	.st8{fill:#141414;}
	.st9{fill:#121212;}
	.st10{fill:#212121;}
	.st11{fill:#B0654C;}
	.st12{opacity:0.2;fill:#FFFFFF;}
	.st13{fill:#CF830D;}
	.st14{fill:#B8740C;}
	.st15{fill:#FFD17A;}
	.st16{fill:#BA3B99;}
	.st17{opacity:0.5;fill:#FFFFFF;}
	.st18{fill:#008F6C;}
	.st19{fill:#D84E1C;}
	.st20{fill:#44BDD8;}
	.st21{fill:#6E44D8;}
	.st22{fill:#592E05;}
	.st23{fill:#854507;}
	.st24{fill:#D1C49D;}
	.st25{fill:#F0E1B4;}
	.st26{fill:#91886D;}
</style>
<g id="Layer_1" class="st0">
	<g class="st1">
		<path d="M131.7,225.4c0,0-7-9.2,2.6-15.5C134.5,209.6,119.1,214,131.7,225.4z"/>
		<path class="st2" d="M163,214.9c-5,1.1-5.8,11.1-2.4,13.7s12.6,12.5-4.1,13.2c-16.7,0.8-26.1-2.9-16.6-12.3
			c2.4-3.7,6.4-1.4,4.6-9.4c-1.2-5.7-9-7.9-10.8-3.9c0,0-19.9,20.5-2.6,31.8c17.3,11.4,46.6,4.1,49-9.6
			C182.6,224.8,168,213.8,163,214.9z"/>
		<path d="M160.1,211.8c-2.9,0.7-5.2,3.4-6.2,7.3c-0.7,3-0.6,6.9,1.8,8.9c1.7,1.4,3.4,4,3,5.2c-0.3,0.7-2,1.7-6.3,1.9
			c-10.5,0.5-13.6-1.4-13.9-2.1c-0.1-0.3,0.2-1.7,3-4.2c0.1-0.1,0.2-0.2,0.3-0.3c0.5-0.6,1-0.9,1.7-1.3c2.8-1.5,4.1-3.3,3.6-8.6
			c-0.4-3.5-3.1-6.5-6.7-7.2c-2.8-0.5-5.3,0.5-6.7,2.6c-1.7,1.7-11.1,11.5-10.5,20.9c0.3,4.1,2.2,7.5,5.9,10.1
			c5.4,3.9,11.9,5.4,18.1,5.4c4.9,0,9.6-0.9,13.3-2.2c7.7-2.7,13.1-7.3,14.6-12.8c1.8-6.6,0-13.6-5-18.9
			C167.6,213.7,163.5,211,160.1,211.8z M135.8,215.4L135.8,215.4L135.8,215.4z M170.4,234c-1.1,3.8-5.3,7.3-11.4,9.4
			c-7.9,2.7-19.3,3-26.8-2.5c-2.4-1.8-3.7-3.9-3.9-6.4c-0.4-6.5,6.5-14.7,9.2-17.2c0.2-0.2,0.4-0.4,0.5-0.6c0.3-0.6,1.2-0.5,1.5-0.4
			c1.2,0.2,2.5,1.2,2.7,2.8c0.3,3,0,3.1-1,3.7c-0.9,0.5-2,1.1-3.1,2.5c-3.9,3.6-5.3,6.9-4.1,9.7c1.6,4,7.8,5.7,18.8,5.1
			c6-0.3,9.7-2.1,10.7-5.3c1.4-4.2-2.3-8.7-4.5-10.6c-0.3-0.3-0.7-1.9-0.1-4.2c0.5-1.8,1.4-3.1,2.3-3.3c0.5-0.1,2.9,0.6,5.3,3.2
			C168,221.4,172.4,226.8,170.4,234z"/>
		<path class="st3" d="M160.7,214.2c-4.3,1-6,9.6-3.3,11.9c2.6,2.2,9.3,10.8-4.8,11.4c-14.1,0.7-21.6-2.5-12.7-10.6
			c2.4-3.2,5.5-1.2,4.8-8.1c-0.5-4.9-7-6.8-8.9-3.4c0,0-18.5,17.7-5.1,27.5c13.5,9.8,38.8,3.6,42.1-8.3S165,213.2,160.7,214.2z"/>
		<path class="st4" d="M160.7,214.2c-4.3,1-6,9.6-3.3,11.9c2.6,2.2,9.3,10.8-4.8,11.4c-14.1,0.7-21.6-2.5-12.7-10.6
			c2.4-3.2,5.5-1.2,4.8-8.1c-0.5-4.9-7-6.8-8.9-3.4c0,0-16.3,16.8-0.7,22.7c14.8,5.5,30.9,3.5,34.3-8.4S165,213.2,160.7,214.2z"/>
		<path d="M166.8,209.5c0,0,11.1,4,7,15.5C173.8,225.3,183.7,212,166.8,209.5z"/>
		<path class="st5" d="M164.1,218.6c-5.1,0-0.1,9.8,3,9.5C170.3,227.9,167.7,218.6,164.1,218.6z"/>
		<path class="st5" d="M130.7,229.1c2.7,4.2,7.3-6.6,5.5-9C134.4,217.6,128.8,226.1,130.7,229.1z"/>
	</g>
</g>
<g id="Layer_2" class="st0">
	<g class="st1">
		<path d="M131.7,225.4c0,0-7-9.2,2.6-15.5C134.5,209.6,119.1,214,131.7,225.4z"/>
		<path class="st2" d="M163,214.9c-5,1.1-5.8,11.1-2.4,13.7s12.6,12.5-4.1,13.2c-16.7,0.8-26.1-2.9-16.6-12.3
			c2.4-3.7,6.4-1.4,4.6-9.4c-1.2-5.7-9-7.9-10.8-3.9c0,0-19.9,20.5-2.6,31.8c17.3,11.4,46.6,4.1,49-9.6
			C182.6,224.8,168,213.8,163,214.9z"/>
		<path d="M160.1,211.8c-2.9,0.7-5.2,3.4-6.2,7.3c-0.7,3-0.6,6.9,1.8,8.9c1.7,1.4,3.4,4,3,5.2c-0.3,0.7-2,1.7-6.3,1.9
			c-10.5,0.5-13.6-1.4-13.9-2.1c-0.1-0.3,0.2-1.7,3-4.2c0.1-0.1,0.2-0.2,0.3-0.3c0.5-0.6,1-0.9,1.7-1.3c2.8-1.5,4.1-3.3,3.6-8.6
			c-0.4-3.5-3.1-6.5-6.7-7.2c-2.8-0.5-5.3,0.5-6.7,2.6c-1.7,1.7-11.1,11.5-10.5,20.9c0.3,4.1,2.2,7.5,5.9,10.1
			c5.4,3.9,11.9,5.4,18.1,5.4c4.9,0,9.6-0.9,13.3-2.2c7.7-2.7,13.1-7.3,14.6-12.8c1.8-6.6,0-13.6-5-18.9
			C167.6,213.7,163.5,211,160.1,211.8z M135.8,215.4L135.8,215.4L135.8,215.4z M170.4,234c-1.1,3.8-5.3,7.3-11.4,9.4
			c-7.9,2.7-19.3,3-26.8-2.5c-2.4-1.8-3.7-3.9-3.9-6.4c-0.4-6.5,6.5-14.7,9.2-17.2c0.2-0.2,0.4-0.4,0.5-0.6c0.3-0.6,1.2-0.5,1.5-0.4
			c1.2,0.2,2.5,1.2,2.7,2.8c0.3,3,0,3.1-1,3.7c-0.9,0.5-2,1.1-3.1,2.5c-3.9,3.6-5.3,6.9-4.1,9.7c1.6,4,7.8,5.7,18.8,5.1
			c6-0.3,9.7-2.1,10.7-5.3c1.4-4.2-2.3-8.7-4.5-10.6c-0.3-0.3-0.7-1.9-0.1-4.2c0.5-1.8,1.4-3.1,2.3-3.3c0.5-0.1,2.9,0.6,5.3,3.2
			C168,221.4,172.4,226.8,170.4,234z"/>
		<path class="st6" d="M160.7,214.2c-4.3,1-6,9.6-3.3,11.9c2.6,2.2,9.3,10.8-4.8,11.4c-14.1,0.7-21.6-2.5-12.7-10.6
			c2.4-3.2,5.5-1.2,4.8-8.1c-0.5-4.9-7-6.8-8.9-3.4c0,0-18.5,17.7-5.1,27.5c13.5,9.8,38.8,3.6,42.1-8.3
			C176.1,222.8,165,213.2,160.7,214.2z"/>
		<path class="st7" d="M160.7,214.2c-4.3,1-6,9.6-3.3,11.9c2.6,2.2,9.3,10.8-4.8,11.4c-14.1,0.7-21.6-2.5-12.7-10.6
			c2.4-3.2,5.5-1.2,4.8-8.1c-0.5-4.9-7-6.8-8.9-3.4c0,0-16.3,16.8-0.7,22.7c14.8,5.5,30.9,3.5,34.3-8.4S165,213.2,160.7,214.2z"/>
		<path d="M166.8,209.5c0,0,11.1,4,7,15.5C173.8,225.3,183.7,212,166.8,209.5z"/>
		<path class="st5" d="M164.1,218.6c-5.1,0-0.1,9.8,3,9.5C170.3,227.9,167.7,218.6,164.1,218.6z"/>
		<path class="st5" d="M130.7,229.1c2.7,4.2,7.3-6.6,5.5-9C134.4,217.6,128.8,226.1,130.7,229.1z"/>
	</g>
</g>
<g id="Layer_3" class="st0">
	<g class="st1">
		<g>
			<g>
				<path class="st8" d="M181.5,220.9l-20-0.4c-0.1,0-0.1,0-0.2,0c-2.5,0.1-20.3-0.2-48.9-1c-2.9-0.1-5.7,1-7.7,2.8
					c-1.6,1.5-2.4,3.5-2.4,5.6c-0.1,22.6,3.5,26,6.9,26.3c0.5,0,1.3,0.1,2.4,0.2c16,1.6,18.5,1.6,19.8,1c1.3-0.6,2.3-2.1,3.1-4.5
					c0.9,3.5,1.6,4,2.1,4.3c1.5,1.1,7.7,1.9,13.6,1.9c4.9,0,9.6-0.6,11.4-1.9c1-0.8,1.8-2.8,2.5-5.4c1,3.9,1.7,4.6,2.1,4.9
					c3.2,2.7,21.2,0.5,22.4,0.1c1.9-0.6,2.9-1,3.8-24c0.1-2.3-0.8-4.5-2.4-6.3C187.9,222.3,184.8,221,181.5,220.9z M186,250.3
					c-3.7,0.5-13.8,1.1-16.5,0.6c-1-2.6-2.5-12.9-3.4-21.6c-0.1-1.3-1.3-2.3-2.6-2.2c-1.3,0-2.4,1.1-2.4,2.4c-0.3,9.1-1.4,20-2.6,22
					c-2.4,1.3-15.3,0.9-18.6-0.1c-1-2.6-2.4-13-3.3-21.9c-0.1-1.3-1.3-2.3-2.6-2.3c-1.3,0.1-2.4,1.2-2.4,2.5
					c0.1,9.7-0.9,19.1-2.2,21.1c-2.7,0.1-13.5-1-17.2-1.4c-1-0.1-1.8-0.2-2.3-0.2c-1-1-2.6-6.6-2.6-21.3c0-0.9,0.5-1.6,0.9-2
					c1-0.9,2.5-1.4,4-1.4c16.7,0.4,45.2,1.1,49.1,1l19.9,0.4c2,0,3.8,0.8,5,2c0.5,0.6,1.1,1.5,1.1,2.7
					C186.9,243.8,186.3,248.6,186,250.3z"/>
				<path class="st9" d="M181.4,223.4l-20-0.4c-3.6,0.2-34.5-0.6-49-1c-4.1-0.1-7.5,2.6-7.5,5.9c0,8.6,0.5,23.4,4.6,23.8
					c3,0.3,19.6,2.1,21,1.5c3.9-1.6,3.6-23.5,3.6-23.5s2.2,22.2,4.1,23.7c1.9,1.4,19,2.4,21.9,0c2.9-2.3,3.5-23.8,3.5-23.8
					s2.3,21.7,4.2,23.4c1.9,1.6,18.4,0.2,20-0.4c1.1-0.4,1.8-13.3,2.1-21.8C190.1,226.8,186.3,223.5,181.4,223.4z"/>
				<path class="st10" d="M110.9,242.5c1.6,0.3,10.2,2.1,10.9,1.5c1.1-0.9,1.5-7.5,1.7-13.5c-4.9,0.1-9.9,0.2-14.8,0.2
					C109,236.8,109.6,242.2,110.9,242.5z"/>
				<path class="st10" d="M181.4,223.4l-20-0.4c-3.6,0.2-34.5-0.6-49-1c-4.1-0.1-7.5,2.6-7.5,5.9c0,1.3,0,2.9,0,4.4
					c8.2,0,16.4,0,24.5-0.1c1.5,0,3.1,0,4.6-0.1c0-1.6,0-2.5,0-2.5s0.1,1,0.3,2.5c9.7-0.1,19.4-0.3,29.2-0.6c0.1-1.3,0.1-2,0.1-2
					s0.1,0.8,0.2,2c8.7-0.3,17.4-0.7,26.1-1.2C189.8,226.6,186.1,223.5,181.4,223.4z"/>
				<path class="st10" d="M173.1,243.6c1,1.6,9.6,0.2,10.4-0.4c0.4-0.3,0.7-7.5,0.9-14.7c-4.3,0.5-8.6,0.9-13,1.1
					C172,235.8,172.6,242.8,173.1,243.6z"/>
			</g>
		</g>
		<g>
			<path class="st8" d="M152.3,194.8c-5.3-2.3-10-0.9-12.9,3.8c-2,2-15.5,16.3-14.1,27.7c0.5,4,2.6,7.2,6.3,9.5
				c7.3,4.5,14.3,6.7,20.4,6.7c2.7,0,5.2-0.4,7.4-1.3c5.2-2,8.9-6.4,10.7-12.7C173.5,217,162.6,199.2,152.3,194.8z M141.4,200.1
				L141.4,200.1L141.4,200.1z M165.4,227.1c-1.4,4.8-4,7.9-7.7,9.4c-5.9,2.3-14.4,0.5-23.4-5c-2.4-1.5-3.7-3.3-4-5.8
				c-1-8,9-19.9,12.9-23.8c0.2-0.2,0.3-0.3,0.4-0.5c0.8-1.3,1.9-2.7,4-2.7c0.8,0,1.7,0.2,2.8,0.7C158.6,202.9,168,218.1,165.4,227.1
				z"/>
			<path class="st11" d="M141.4,200.1c0,0-24,24-8.4,33.5s30.6,9,34.8-5.8S149.6,186.1,141.4,200.1z"/>
			<path class="st12" d="M144.6,200.4c0,0-10.6,11.6-3.7,16.2s13.5,4.3,15.4-2.8C158.1,206.7,148.2,193.7,144.6,200.4z"/>
			<path class="st2" d="M150.6,227.6c-7.9,0.5-15.6-0.9-22.9-3.5c-0.2,3.7,1.2,7.1,5.2,9.5c15.6,9.5,30.6,9,34.8-5.8
				c0.5-1.6,0.6-3.4,0.4-5.3C163.2,225.4,157.3,227.2,150.6,227.6z"/>
		</g>
	</g>
</g>
<g id="Layer_4" class="st0">
	<g class="st1">
		<path d="M161,214.7c-2.8-2.3-6.9-1.1-8.4-0.5l-120.2,7.9l-0.5,1.7c-0.2,0.8-5.3,18.8-1.6,31.7l0.4,1.5l1.6,0.3
			c0.8,0.1,1.7,0.2,2.8,0.2c13.1,0,47.7-9.1,68.2-14.9c14-3.9,28.6-8.3,40.1-12c19-6.1,19.2-6.8,19.5-8.5
			C163.4,218.7,162.8,216.2,161,214.7z M158,220.2c-4.8,2.2-29.5,10.2-58.5,18.3c-32.8,9.1-56.6,14.2-64.8,14
			c-2-9.3,0.5-21.3,1.6-25.6l117-7.7l0.4,0l0.4-0.2c1.4-0.6,3.3-0.8,3.7-0.4C157.9,218.7,158.1,219.1,158,220.2z"/>
		<path class="st13" d="M153.1,216.7l-118.8,7.8c0,0-5.1,17.9-1.6,30.3c16.6,2.9,127.2-30.8,127.6-33.1
			C162,213,153.1,216.7,153.1,216.7z"/>
		<path class="st14" d="M153.1,216.7l-5.2,0.1c-17.4,8.1-35.6,14.9-54.5,18.3c-5.2,0.9-10.5,1.6-15.8,1.9c-4.7,0.3-9.5,0.4-14.2-0.4
			c-4.7-0.8-9.2-2.4-12.9-5.4c-1.8-1.5-3.4-3.1-4.9-5c-0.7-0.8-1.4-1.7-2.1-2.4l-9.1,0.6c0,0-5.1,17.9-1.6,30.3
			c16.6,2.9,127.2-30.8,127.6-33.1C162,213,153.1,216.7,153.1,216.7z"/>
		<g>
			<path d="M75.2,207.5c-1.2-0.7-2.4-1.3-3.8-1.8c-0.7-0.2-1.4-0.4-2.2-0.6c-0.4-0.1-0.8-0.1-1.2-0.2l-0.6,0c-0.4,0-0.8,0-1.2,0.1
				c-0.8,0.2-1.5,0.7-1.9,1.2c-0.4,0.5-0.7,1-0.9,1.4c-0.4,0.9-0.5,1.7-0.6,2.4c-0.3,2.9,0.1,5.5,0.6,8.1c0.6,2.5,1.4,5,2.5,7.4
				c0.2-2.6,0.3-5.1,0.5-7.6c0.2-2.5,0.3-5,0.8-7.1c0.1-0.4,0.2-0.8,0.4-1.1c0,0,0,0-0.1,0l-0.3,0c0.1,0,0.1,0,0.2,0
				c0.1,0,0.2-0.1,0.3-0.2c0-0.1,0.1-0.1,0.1-0.1c0,0,0,0-0.1,0.1c0,0,0,0.1-0.1,0.1c0,0-0.1,0.1-0.1,0.2c0.2,0,0.4,0.1,0.6,0.1
				c0.5,0.1,1,0.2,1.5,0.4c1.5,0.5,3.1,1.3,4.6,2.2c0.3-0.7,0.6-1.3,0.8-2l0.6,2.9c-0.5-0.3-1-0.6-1.5-0.9c-0.8,1.8-1.5,3.6-2.1,5.4
				c-0.5,1.3-0.9,2.5-1.3,3.8c-0.4,1.3-0.7,2.6-1,3.9c0.9-1,1.8-2,2.6-3.1c0.8-1.1,1.6-2.1,2.4-3.2c1.5-2.2,3-4.4,4.3-6.7l0.9-1.6
				l-1.6-1.3C77.4,208.9,76.4,208.2,75.2,207.5z"/>
			<path d="M67.2,209.8l0.3,0c0,0,0,0,0.1,0c0-0.1,0.1-0.1,0.1-0.2c0,0,0-0.1,0.1-0.1c-0.1,0.1-0.2,0.1-0.3,0.2
				C67.4,209.8,67.3,209.8,67.2,209.8z"/>
			<path d="M74.3,212.6c0.5,0.3,1,0.6,1.5,0.9l-0.6-2.9C74.9,211.2,74.6,211.9,74.3,212.6z"/>
			<path class="st13" d="M66,225.6l3.9,0.2l7.3-14.1c0,0-5.4-4.1-9.9-4.3C63.5,207.2,64.8,219.1,66,225.6z"/>
		</g>
		<path d="M33.7,222c-7.6,1.8-12.4,8.3-12.6,17c-0.1,7.5,3.5,16.2,10.9,18.2c0.7,0.2,1.3,0.3,1.9,0.3c2.2,0,4.2-1.1,5.8-3.3
			c4.9-6.8,4.3-23.2,0.3-29.3C38.4,222.5,36.1,221.5,33.7,222z M35.7,251.3c-1,1.3-1.7,1.3-2.3,1.1c-4.1-1.1-7.3-7-7.2-13.3
			c0-2.4,0.8-10.3,8.7-12.2c0.3-0.1,0.8,0.5,1,0.8C38.9,232.2,39.2,246.3,35.7,251.3z"/>
		<path class="st15" d="M34.3,224.5c-15.3,3.6-12.5,27.4-1.6,30.3C43.5,257.8,42.8,222.5,34.3,224.5z"/>
	</g>
</g>
<g id="Layer_5">
	<g>
		<path d="M131.7,225.4c0,0-7-9.2,2.6-15.5C134.5,209.6,119.1,214,131.7,225.4z"/>
		<path class="st2" d="M163,214.9c-5,1.1-5.8,11.1-2.4,13.7c3.5,2.6,12.6,12.5-4.1,13.2s-26.1-2.9-16.6-12.3
			c2.4-3.7,6.4-1.4,4.6-9.4c-1.2-5.7-9-7.9-10.8-3.9c0,0-19.9,20.5-2.6,31.8c17.3,11.4,46.6,4.1,49-9.6
			C182.6,224.8,168,213.8,163,214.9z"/>
		<path d="M160.1,211.8c-2.9,0.7-5.2,3.4-6.2,7.3c-0.7,3-0.6,6.9,1.8,8.9c1.7,1.4,3.4,4,3,5.2c-0.3,0.7-2,1.7-6.3,1.9
			c-10.5,0.5-13.6-1.4-13.9-2.1c-0.1-0.3,0.2-1.7,3-4.2c0.1-0.1,0.2-0.2,0.3-0.3c0.5-0.6,1-0.9,1.7-1.3c2.8-1.5,4.1-3.3,3.6-8.6
			c-0.4-3.5-3.1-6.5-6.7-7.2c-2.8-0.5-5.3,0.5-6.7,2.6c-1.7,1.7-11.1,11.5-10.5,20.9c0.3,4.1,2.2,7.5,5.9,10.1
			c5.4,3.9,11.9,5.4,18.1,5.4c4.9,0,9.6-0.9,13.3-2.2c7.7-2.7,13.1-7.3,14.6-12.8c1.8-6.6,0-13.6-5-18.9
			C167.6,213.7,163.5,211,160.1,211.8z M135.8,215.4L135.8,215.4L135.8,215.4z M170.4,234c-1.1,3.8-5.3,7.3-11.4,9.4
			c-7.9,2.7-19.3,3-26.8-2.5c-2.4-1.8-3.7-3.9-3.9-6.4c-0.4-6.5,6.5-14.7,9.2-17.2c0.2-0.2,0.4-0.4,0.5-0.6c0.3-0.6,1.2-0.5,1.5-0.4
			c1.2,0.2,2.5,1.2,2.7,2.8c0.3,3,0,3.1-1,3.7c-0.9,0.5-2,1.1-3.1,2.5c-3.9,3.6-5.3,6.9-4.1,9.7c1.6,4,7.8,5.7,18.8,5.1
			c6-0.3,9.7-2.1,10.7-5.3c1.4-4.2-2.3-8.7-4.5-10.6c-0.3-0.3-0.7-1.9-0.1-4.2c0.5-1.8,1.4-3.1,2.3-3.3c0.5-0.1,2.9,0.6,5.3,3.2
			C168,221.4,172.4,226.8,170.4,234z"/>
		<path class="st16" d="M160.7,214.2c-4.3,1-6,9.6-3.3,11.9c2.6,2.2,9.3,10.8-4.8,11.4c-14.1,0.7-21.6-2.5-12.7-10.6
			c2.4-3.2,5.5-1.2,4.8-8.1c-0.5-4.9-7-6.8-8.9-3.4c0,0-18.5,17.7-5.1,27.5c13.5,9.8,38.8,3.6,42.1-8.3S165,213.2,160.7,214.2z"/>
		<path class="st17" d="M160.7,214.2c-4.3,1-6,9.6-3.3,11.9c2.6,2.2,9.3,10.8-4.8,11.4c-14.1,0.7-21.6-2.5-12.7-10.6
			c2.4-3.2,5.5-1.2,4.8-8.1c-0.5-4.9-7-6.8-8.9-3.4c0,0-16.3,16.8-0.7,22.7c14.8,5.5,30.9,3.5,34.3-8.4S165,213.2,160.7,214.2z"/>
		<path d="M166.8,209.5c0,0,11.1,4,7,15.5C173.8,225.3,183.7,212,166.8,209.5z"/>
		<path class="st5" d="M164.1,218.6c-5.1,0-0.1,9.8,3,9.5C170.3,227.9,167.7,218.6,164.1,218.6z"/>
		<path class="st5" d="M130.7,229.1c2.7,4.2,7.3-6.6,5.5-9C134.4,217.6,128.8,226.1,130.7,229.1z"/>
	</g>
</g>
<g id="Layer_6" class="st0">
	<g class="st1">
		<path d="M131.7,225.4c0,0-7-9.2,2.6-15.5C134.5,209.6,119.1,214,131.7,225.4z"/>
		<path class="st2" d="M163,214.9c-5,1.1-5.8,11.1-2.4,13.7c3.5,2.6,12.6,12.5-4.1,13.2s-26.1-2.9-16.6-12.3
			c2.4-3.7,6.4-1.4,4.6-9.4c-1.2-5.7-9-7.9-10.8-3.9c0,0-19.9,20.5-2.6,31.8c17.3,11.4,46.6,4.1,49-9.6
			C182.6,224.8,168,213.8,163,214.9z"/>
		<path d="M160.1,211.8c-2.9,0.7-5.2,3.4-6.2,7.3c-0.7,3-0.6,6.9,1.8,8.9c1.7,1.4,3.4,4,3,5.2c-0.3,0.7-2,1.7-6.3,1.9
			c-10.5,0.5-13.6-1.4-13.9-2.1c-0.1-0.3,0.2-1.7,3-4.2c0.1-0.1,0.2-0.2,0.3-0.3c0.5-0.6,1-0.9,1.7-1.3c2.8-1.5,4.1-3.3,3.6-8.6
			c-0.4-3.5-3.1-6.5-6.7-7.2c-2.8-0.5-5.3,0.5-6.7,2.6c-1.7,1.7-11.1,11.5-10.5,20.9c0.3,4.1,2.2,7.5,5.9,10.1
			c5.4,3.9,11.9,5.4,18.1,5.4c4.9,0,9.6-0.9,13.3-2.2c7.7-2.7,13.1-7.3,14.6-12.8c1.8-6.6,0-13.6-5-18.9
			C167.6,213.7,163.5,211,160.1,211.8z M135.8,215.4L135.8,215.4L135.8,215.4z M170.4,234c-1.1,3.8-5.3,7.3-11.4,9.4
			c-7.9,2.7-19.3,3-26.8-2.5c-2.4-1.8-3.7-3.9-3.9-6.4c-0.4-6.5,6.5-14.7,9.2-17.2c0.2-0.2,0.4-0.4,0.5-0.6c0.3-0.6,1.2-0.5,1.5-0.4
			c1.2,0.2,2.5,1.2,2.7,2.8c0.3,3,0,3.1-1,3.7c-0.9,0.5-2,1.1-3.1,2.5c-3.9,3.6-5.3,6.9-4.1,9.7c1.6,4,7.8,5.7,18.8,5.1
			c6-0.3,9.7-2.1,10.7-5.3c1.4-4.2-2.3-8.7-4.5-10.6c-0.3-0.3-0.7-1.9-0.1-4.2c0.5-1.8,1.4-3.1,2.3-3.3c0.5-0.1,2.9,0.6,5.3,3.2
			C168,221.4,172.4,226.8,170.4,234z"/>
		<path class="st18" d="M160.7,214.2c-4.3,1-6,9.6-3.3,11.9c2.6,2.2,9.3,10.8-4.8,11.4c-14.1,0.7-21.6-2.5-12.7-10.6
			c2.4-3.2,5.5-1.2,4.8-8.1c-0.5-4.9-7-6.8-8.9-3.4c0,0-18.5,17.7-5.1,27.5c13.5,9.8,38.8,3.6,42.1-8.3
			C176.1,222.8,165,213.2,160.7,214.2z"/>
		<path class="st17" d="M160.7,214.2c-4.3,1-6,9.6-3.3,11.9c2.6,2.2,9.3,10.8-4.8,11.4c-14.1,0.7-21.6-2.5-12.7-10.6
			c2.4-3.2,5.5-1.2,4.8-8.1c-0.5-4.9-7-6.8-8.9-3.4c0,0-16.3,16.8-0.7,22.7c14.8,5.5,30.9,3.5,34.3-8.4S165,213.2,160.7,214.2z"/>
		<path d="M166.8,209.5c0,0,11.1,4,7,15.5C173.8,225.3,183.7,212,166.8,209.5z"/>
		<path class="st5" d="M164.1,218.6c-5.1,0-0.1,9.8,3,9.5C170.3,227.9,167.7,218.6,164.1,218.6z"/>
		<path class="st5" d="M130.7,229.1c2.7,4.2,7.3-6.6,5.5-9C134.4,217.6,128.8,226.1,130.7,229.1z"/>
	</g>
</g>
<g id="Layer_7" class="st0">
	<g class="st1">
		<path d="M131.7,225.4c0,0-7-9.2,2.6-15.5C134.5,209.6,119.1,214,131.7,225.4z"/>
		<path class="st2" d="M163,214.9c-5,1.1-5.8,11.1-2.4,13.7c3.5,2.6,12.6,12.5-4.1,13.2s-26.1-2.9-16.6-12.3
			c2.4-3.7,6.4-1.4,4.6-9.4c-1.2-5.7-9-7.9-10.8-3.9c0,0-19.9,20.5-2.6,31.8c17.3,11.4,46.6,4.1,49-9.6
			C182.6,224.8,168,213.8,163,214.9z"/>
		<path d="M160.1,211.8c-2.9,0.7-5.2,3.4-6.2,7.3c-0.7,3-0.6,6.9,1.8,8.9c1.7,1.4,3.4,4,3,5.2c-0.3,0.7-2,1.7-6.3,1.9
			c-10.5,0.5-13.6-1.4-13.9-2.1c-0.1-0.3,0.2-1.7,3-4.2c0.1-0.1,0.2-0.2,0.3-0.3c0.5-0.6,1-0.9,1.7-1.3c2.8-1.5,4.1-3.3,3.6-8.6
			c-0.4-3.5-3.1-6.5-6.7-7.2c-2.8-0.5-5.3,0.5-6.7,2.6c-1.7,1.7-11.1,11.5-10.5,20.9c0.3,4.1,2.2,7.5,5.9,10.1
			c5.4,3.9,11.9,5.4,18.1,5.4c4.9,0,9.6-0.9,13.3-2.2c7.7-2.7,13.1-7.3,14.6-12.8c1.8-6.6,0-13.6-5-18.9
			C167.6,213.7,163.5,211,160.1,211.8z M135.8,215.4L135.8,215.4L135.8,215.4z M170.4,234c-1.1,3.8-5.3,7.3-11.4,9.4
			c-7.9,2.7-19.3,3-26.8-2.5c-2.4-1.8-3.7-3.9-3.9-6.4c-0.4-6.5,6.5-14.7,9.2-17.2c0.2-0.2,0.4-0.4,0.5-0.6c0.3-0.6,1.2-0.5,1.5-0.4
			c1.2,0.2,2.5,1.2,2.7,2.8c0.3,3,0,3.1-1,3.7c-0.9,0.5-2,1.1-3.1,2.5c-3.9,3.6-5.3,6.9-4.1,9.7c1.6,4,7.8,5.7,18.8,5.1
			c6-0.3,9.7-2.1,10.7-5.3c1.4-4.2-2.3-8.7-4.5-10.6c-0.3-0.3-0.7-1.9-0.1-4.2c0.5-1.8,1.4-3.1,2.3-3.3c0.5-0.1,2.9,0.6,5.3,3.2
			C168,221.4,172.4,226.8,170.4,234z"/>
		<path class="st19" d="M160.7,214.2c-4.3,1-6,9.6-3.3,11.9c2.6,2.2,9.3,10.8-4.8,11.4c-14.1,0.7-21.6-2.5-12.7-10.6
			c2.4-3.2,5.5-1.2,4.8-8.1c-0.5-4.9-7-6.8-8.9-3.4c0,0-18.5,17.7-5.1,27.5c13.5,9.8,38.8,3.6,42.1-8.3
			C176.1,222.8,165,213.2,160.7,214.2z"/>
		<path class="st17" d="M160.7,214.2c-4.3,1-6,9.6-3.3,11.9c2.6,2.2,9.3,10.8-4.8,11.4c-14.1,0.7-21.6-2.5-12.7-10.6
			c2.4-3.2,5.5-1.2,4.8-8.1c-0.5-4.9-7-6.8-8.9-3.4c0,0-16.3,16.8-0.7,22.7c14.8,5.5,30.9,3.5,34.3-8.4S165,213.2,160.7,214.2z"/>
		<path d="M166.8,209.5c0,0,11.1,4,7,15.5C173.8,225.3,183.7,212,166.8,209.5z"/>
		<path class="st5" d="M164.1,218.6c-5.1,0-0.1,9.8,3,9.5C170.3,227.9,167.7,218.6,164.1,218.6z"/>
		<path class="st5" d="M130.7,229.1c2.7,4.2,7.3-6.6,5.5-9C134.4,217.6,128.8,226.1,130.7,229.1z"/>
	</g>
</g>
<g id="Layer_8" class="st0">
	<g class="st1">
		<path d="M131.7,225.4c0,0-7-9.2,2.6-15.5C134.5,209.6,119.1,214,131.7,225.4z"/>
		<path class="st2" d="M163,214.9c-5,1.1-5.8,11.1-2.4,13.7c3.5,2.6,12.6,12.5-4.1,13.2c-16.7,0.8-26.1-2.9-16.6-12.3
			c2.4-3.7,6.4-1.4,4.6-9.4c-1.2-5.7-9-7.9-10.8-3.9c0,0-19.9,20.5-2.6,31.8c17.3,11.4,46.6,4.1,49-9.6
			C182.6,224.8,168,213.8,163,214.9z"/>
		<path d="M160.1,211.8c-2.9,0.7-5.2,3.4-6.2,7.3c-0.7,3-0.6,6.9,1.8,8.9c1.7,1.4,3.4,4,3,5.2c-0.3,0.7-2,1.7-6.3,1.9
			c-10.5,0.5-13.6-1.4-13.9-2.1c-0.1-0.3,0.2-1.7,3-4.2c0.1-0.1,0.2-0.2,0.3-0.3c0.5-0.6,1-0.9,1.7-1.3c2.8-1.5,4.1-3.3,3.6-8.6
			c-0.4-3.5-3.1-6.5-6.7-7.2c-2.8-0.5-5.3,0.5-6.7,2.6c-1.7,1.7-11.1,11.5-10.5,20.9c0.3,4.1,2.2,7.5,5.9,10.1
			c5.4,3.9,11.9,5.4,18.1,5.4c4.9,0,9.6-0.9,13.3-2.2c7.7-2.7,13.1-7.3,14.6-12.8c1.8-6.6,0-13.6-5-18.9
			C167.6,213.7,163.5,211,160.1,211.8z M135.8,215.4L135.8,215.4L135.8,215.4z M170.4,234c-1.1,3.8-5.3,7.3-11.4,9.4
			c-7.9,2.7-19.3,3-26.8-2.5c-2.4-1.8-3.7-3.9-3.9-6.4c-0.4-6.5,6.5-14.7,9.2-17.2c0.2-0.2,0.4-0.4,0.5-0.6c0.3-0.6,1.2-0.5,1.5-0.4
			c1.2,0.2,2.5,1.2,2.7,2.8c0.3,3,0,3.1-1,3.7c-0.9,0.5-2,1.1-3.1,2.5c-3.9,3.6-5.3,6.9-4.1,9.7c1.6,4,7.8,5.7,18.8,5.1
			c6-0.3,9.7-2.1,10.7-5.3c1.4-4.2-2.3-8.7-4.5-10.6c-0.3-0.3-0.7-1.9-0.1-4.2c0.5-1.8,1.4-3.1,2.3-3.3c0.5-0.1,2.9,0.6,5.3,3.2
			C168,221.4,172.4,226.8,170.4,234z"/>
		<path class="st20" d="M160.7,214.2c-4.3,1-6,9.6-3.3,11.9c2.6,2.2,9.3,10.8-4.8,11.4c-14.1,0.7-21.6-2.5-12.7-10.6
			c2.4-3.2,5.5-1.2,4.8-8.1c-0.5-4.9-7-6.8-8.9-3.4c0,0-18.5,17.7-5.1,27.5c13.5,9.8,38.8,3.6,42.1-8.3
			C176.1,222.8,165,213.2,160.7,214.2z"/>
		<path class="st17" d="M160.7,214.2c-4.3,1-6,9.6-3.3,11.9c2.6,2.2,9.3,10.8-4.8,11.4c-14.1,0.7-21.6-2.5-12.7-10.6
			c2.4-3.2,5.5-1.2,4.8-8.1c-0.5-4.9-7-6.8-8.9-3.4c0,0-16.3,16.8-0.7,22.7c14.8,5.5,30.9,3.5,34.3-8.4
			C172.7,217.9,165,213.2,160.7,214.2z"/>
		<path d="M166.8,209.5c0,0,11.1,4,7,15.5C173.8,225.3,183.7,212,166.8,209.5z"/>
		<path class="st5" d="M164.1,218.6c-5.1,0-0.1,9.8,3,9.5C170.3,227.9,167.7,218.6,164.1,218.6z"/>
		<path class="st5" d="M130.7,229.1c2.7,4.2,7.3-6.6,5.5-9C134.4,217.6,128.8,226.1,130.7,229.1z"/>
	</g>
</g>
<g id="Layer_9" class="st0">
	<g class="st1">
		<path d="M131.7,225.4c0,0-7-9.2,2.6-15.5C134.5,209.6,119.1,214,131.7,225.4z"/>
		<path class="st2" d="M163,214.9c-5,1.1-5.8,11.1-2.4,13.7c3.5,2.6,12.6,12.5-4.1,13.2s-26.1-2.9-16.6-12.3
			c2.4-3.7,6.4-1.4,4.6-9.4c-1.2-5.7-9-7.9-10.8-3.9c0,0-19.9,20.5-2.6,31.8c17.3,11.4,46.6,4.1,49-9.6
			C182.6,224.8,168,213.8,163,214.9z"/>
		<path d="M160.1,211.8c-2.9,0.7-5.2,3.4-6.2,7.3c-0.7,3-0.6,6.9,1.8,8.9c1.7,1.4,3.4,4,3,5.2c-0.3,0.7-2,1.7-6.3,1.9
			c-10.5,0.5-13.6-1.4-13.9-2.1c-0.1-0.3,0.2-1.7,3-4.2c0.1-0.1,0.2-0.2,0.3-0.3c0.5-0.6,1-0.9,1.7-1.3c2.8-1.5,4.1-3.3,3.6-8.6
			c-0.4-3.5-3.1-6.5-6.7-7.2c-2.8-0.5-5.3,0.5-6.7,2.6c-1.7,1.7-11.1,11.5-10.5,20.9c0.3,4.1,2.2,7.5,5.9,10.1
			c5.4,3.9,11.9,5.4,18.1,5.4c4.9,0,9.6-0.9,13.3-2.2c7.7-2.7,13.1-7.3,14.6-12.8c1.8-6.6,0-13.6-5-18.9
			C167.6,213.7,163.5,211,160.1,211.8z M135.8,215.4L135.8,215.4L135.8,215.4z M170.4,234c-1.1,3.8-5.3,7.3-11.4,9.4
			c-7.9,2.7-19.3,3-26.8-2.5c-2.4-1.8-3.7-3.9-3.9-6.4c-0.4-6.5,6.5-14.7,9.2-17.2c0.2-0.2,0.4-0.4,0.5-0.6c0.3-0.6,1.2-0.5,1.5-0.4
			c1.2,0.2,2.5,1.2,2.7,2.8c0.3,3,0,3.1-1,3.7c-0.9,0.5-2,1.1-3.1,2.5c-3.9,3.6-5.3,6.9-4.1,9.7c1.6,4,7.8,5.7,18.8,5.1
			c6-0.3,9.7-2.1,10.7-5.3c1.4-4.2-2.3-8.7-4.5-10.6c-0.3-0.3-0.7-1.9-0.1-4.2c0.5-1.8,1.4-3.1,2.3-3.3c0.5-0.1,2.9,0.6,5.3,3.2
			C168,221.4,172.4,226.8,170.4,234z"/>
		<path class="st21" d="M160.7,214.2c-4.3,1-6,9.6-3.3,11.9c2.6,2.2,9.3,10.8-4.8,11.4c-14.1,0.7-21.6-2.5-12.7-10.6
			c2.4-3.2,5.5-1.2,4.8-8.1c-0.5-4.9-7-6.8-8.9-3.4c0,0-18.5,17.7-5.1,27.5c13.5,9.8,38.8,3.6,42.1-8.3S165,213.2,160.7,214.2z"/>
		<path class="st17" d="M160.7,214.2c-4.3,1-6,9.6-3.3,11.9c2.6,2.2,9.3,10.8-4.8,11.4c-14.1,0.7-21.6-2.5-12.7-10.6
			c2.4-3.2,5.5-1.2,4.8-8.1c-0.5-4.9-7-6.8-8.9-3.4c0,0-16.3,16.8-0.7,22.7c14.8,5.5,30.9,3.5,34.3-8.4S165,213.2,160.7,214.2z"/>
		<path d="M166.8,209.5c0,0,11.1,4,7,15.5C173.8,225.3,183.7,212,166.8,209.5z"/>
		<path class="st5" d="M164.1,218.6c-5.1,0-0.1,9.8,3,9.5C170.3,227.9,167.7,218.6,164.1,218.6z"/>
		<path class="st5" d="M130.7,229.1c2.7,4.2,7.3-6.6,5.5-9C134.4,217.6,128.8,226.1,130.7,229.1z"/>
	</g>
</g>
<g id="Layer_10" class="st0">
	<g class="st1">
		<g>
			<g>
				<path d="M179.3,165.3c4.4-8.2,1.3-12.9-0.9-15c-0.6-0.5-1.3-0.8-2.1-0.7c-1,0.1-1.5-0.4-2.6-4.1c-0.7-2.4-1.5-5-3.7-5.9
					c-0.9-0.4-2.3-0.6-4.1,0.3c-0.6,0.3-1,0.3-1.1,0.3c-3.2-0.2-4.2,3.5-6.6,11.8c-0.4,1.5-1,3.4-1.4,4.7c-1.4-0.5-2.8-0.8-4.3-1
					c-1.7-0.3-3.4-0.6-4.4-1.3c-0.7-0.4-1.2-1.1-1.8-1.8c-1.2-1.5-2.6-3.3-5.6-3.8c-0.5-0.1-1,0-1.4,0.2c0.8-0.9,1.7-1.8,2.5-2.7
					c1-1,0.9-2.6-0.1-3.5c-1-1-2.6-0.9-3.5,0.1c-3,3.2-6.2,6.5-7.9,10.4c-2.1,4.8-1.4,9.8,1.9,13.3c0.8,0.9,1.7,1.6,2.6,2.3
					c1,0.8,1.8,1.5,2.4,2.2c1.5,1.8,1.2,4,0.5,7.4c-0.5,2.6-1.1,5.6-0.2,8.6c0.4,1.2,0.9,2.2,1.5,3.3c0.5,0.9,1,1.8,1.2,2.6
					c0.5,2-0.6,4.3-1.7,6.7c-1,2.2-2.1,4.5-2.3,7c-0.3,3.1,0.9,6.2,3.4,8.9c4,4.3,10.6,7,17.3,7c0.1,0,0.1,0,0.2,0
					c1.1,0,2.7-0.1,4.2-0.6c2.4-0.8,4.2-2.6,5.1-4.9c1.9-5.1-1.1-9.8-3.7-13.9c-0.5-0.8-1-1.6-1.5-2.4c-1.5-2.5-2-5.1-1.4-7
					c0.2-0.5,0.4-1,0.8-1.4c0,0.1,0,0.3,0,0.4c-0.1,1.6-0.2,3.8,1.4,5.8c1.4,1.8,3.8,2.8,6.9,2.9c3.9,0.1,7.7-1.3,9.7-3.5
					c2.1-2.3,3.8-6.5,0.3-13c-0.5-0.8-1-1.7-1.5-2.5c-1.4-2.3-2.6-4.4-2.8-6.5c-0.2-2.5,1.4-5.2,3.1-8.1
					C178.4,167,178.9,166.2,179.3,165.3z M174.9,163c-0.4,0.8-0.9,1.6-1.3,2.4c-2,3.4-4,6.9-3.7,11c0.2,3.2,1.9,6,3.5,8.7
					c0.5,0.8,0.9,1.5,1.3,2.3c2.6,4.8,0.9,6.7,0.4,7.3c-1,1.1-3.5,1.9-5.8,1.8c-1.7-0.1-2.7-0.6-3.1-1c-0.4-0.5-0.4-1.2-0.3-2.5
					c0.1-1.8,0.2-4.3-2-6.3c-0.7-0.7-1.8-0.9-2.7-0.5c-2.9,1.2-4.9,3.3-5.8,6c-1.1,3.3-0.4,7.3,1.8,11.1c0.5,0.8,1,1.7,1.6,2.5
					c2.2,3.5,4.3,6.7,3.2,9.5c-0.2,0.6-0.8,1.5-2,1.9c-0.8,0.3-1.9,0.3-2.6,0.3c0,0-0.1,0-0.1,0c-5.3,0-10.6-2.1-13.7-5.4
					c-1.1-1.2-2.3-3-2.1-5.1c0.1-1.7,1-3.5,1.9-5.4c1.4-3,3-6.3,2.1-10c-0.3-1.4-1-2.7-1.6-3.8c-0.4-0.8-0.9-1.6-1.1-2.4
					c-0.5-1.8-0.1-3.9,0.3-6.1c0.7-3.4,1.5-7.7-1.5-11.4c-0.9-1.2-2.1-2.1-3.2-3c-0.8-0.6-1.5-1.2-2.1-1.8c-2.6-2.8-1.7-6.1-1-7.9
					c0.7-1.6,1.7-3.1,2.9-4.6c0,0.1,0,0.1,0,0.2c-0.2,1.4,0.7,2.7,2,2.9c1,0.2,1.6,0.8,2.6,2c0.8,1,1.7,2,3,2.9
					c1.8,1.1,4,1.5,6.1,1.9c1.8,0.3,3.7,0.7,4.5,1.4c0.7,0.6,1.6,0.8,2.5,0.5c1.9-0.6,2.4-2.2,4.4-9.2c0.7-2.6,1.9-6.6,2.6-8.2
					c0.8-0.1,1.6-0.3,2.4-0.7c0.3,0.6,0.6,1.7,0.9,2.6c0.9,2.9,2.2,7.5,6.6,7.7C176.6,155.8,177.4,158.2,174.9,163z"/>
				<path class="st22" d="M176.7,152.1c-6.7,0.9-4.1-12.7-9.6-10c-0.7,0.3-1.5,0.6-2.4,0.6c-2.1-0.2-5.5,18.6-6.8,17.5
					c-2.5-2.2-7.9-1.7-11-3.6c-2.5-1.6-3.1-4.7-6.5-5.2l-0.3-6.7c-2.9,3.1-5.9,6.2-7.4,9.7c-1.5,3.5-1.4,7.5,1.5,10.6
					c1.6,1.6,3.8,2.9,5.2,4.7c4,5-0.9,11.2,0.8,16.7c0.6,2.1,2.2,4,2.7,6c1.2,4.9-3.6,9.6-4,14.5c-0.6,6.8,8.4,13.3,18.4,13.2
					c1.2,0,2.4-0.1,3.4-0.4c1.9-0.6,3-2,3.5-3.4c1.8-4.8-2.3-9.6-5-14.2c-2.7-4.6-3.3-10.9,2.8-13.5c2.5,2.4,0,6,2,8.5
					c2.4,3.1,10,2.3,12.7-0.7c2.7-3,1.7-6.9-0.1-10.2c-1.8-3.3-4.3-6.5-4.5-10c-0.3-4.2,2.7-8.1,4.8-12
					C179.2,160.2,180.3,155.5,176.7,152.1z"/>
				<path class="st23" d="M139.3,157c-8.2,0.7,5.8,9.3,10.9,9.9S143.1,156.7,139.3,157z"/>
				<path class="st23" d="M147.7,202.4c0,0-6.1,13.7,5.6,14.9C165,218.5,153.3,202.4,147.7,202.4z"/>
				<path class="st23" d="M168.3,183.3c0,0-4.1,9.9,3.8,10.7S172.1,183.3,168.3,183.3z"/>
			</g>
		</g>
		<g>
			<path class="st2" d="M112.4,163.4c0,0,30.2,25.5,43.4,26.4c13.2,0.8,19.4-19.3,18.1-29.3C172.6,150.4,112.4,163.4,112.4,163.4z"
				/>
			<path d="M161.8,141.1l-0.5-0.3l-0.6-0.1c-0.2,0-16.8-2.1-34.2-3.2c-32-2.1-38.9,0.4-41.3,2.8c-1.3,1.3-1.7,3.1-1,5
				c3.9,11.3,54,35,65.7,36.3c0.5,0.1,1,0.1,1.5,0.1c8,0,17.1-6.8,20.4-15.6C175.1,156.9,171.5,147.8,161.8,141.1z M167,164.4
				c-2.6,7.1-10.6,13-16.6,12.3c-5.4-0.6-20.9-7-35.3-14.6c-18.3-9.7-25.7-16.3-26.3-18.4c4.6-3.7,39.2-2,70.6,1.8
				C166.9,150.9,169.6,157.5,167,164.4z"/>
			<path class="st3" d="M160.4,143.2c0,0-66.3-8.1-73.5-1.1c-7.2,7.1,50.3,35.7,63.2,37.1S182.6,158.4,160.4,143.2z"/>
			<path class="st13" d="M150.1,179.2c7.8,0.9,18.1-7,20-16.8c-25.4-0.1-50.9-4.5-76-10.1C109.1,163.4,140.9,178.2,150.1,179.2z"/>
			<path class="st4" d="M158.7,143.3c0,0-62.6-7.7-69.4-1c0,0,0,0.1-0.1,0.1c0,0,0,0,0,0c1.1,0.4,2.2,0.7,3.3,1.1
				c0.1,0,0.2,0,0.4,0.1c23.8,4.4,48.8,5.3,73.1,7.1C164.5,148.2,162.1,145.7,158.7,143.3z"/>
			<path class="st13" d="M117.6,160.4c1.2,0.2,2.4,0.4,3.6,0.8c1.7-3.3,1.9-8.5-3-15.9C118.3,145.3,119.3,153.9,117.6,160.4z"/>
			<path class="st13" d="M134.4,167.5c3-0.3,13.7-5.9,3.8-21C138.3,146.5,140.2,162.4,134.4,167.5z"/>
			<path class="st13" d="M152.1,170.2c3-0.3,13.7-5.9,3.8-21C156,149.2,157.9,165.1,152.1,170.2z"/>
		</g>
	</g>
</g>
<g id="Layer_11" class="st0">
	<g class="st1">
		<g>
			<polygon class="st24" points="168.1,216.4 162.8,213.3 162.1,210.4 134,237.3 146,248.3 175.3,221.4 171.1,219.4 			"/>
			<path d="M172.2,217.7l-2.7-2.7l-0.2-0.2l-0.2-0.1l-4.5-2.6l-0.5-2.1l-0.8-3.4l-2.5,2.4l-28.1,26.9l-1.6,1.5l1.6,1.5l12.1,11
				l1.4,1.2l1.4-1.2l29.3-26.9l2.2-2l-2.7-1.3L172.2,217.7z M146,248.3l-12.1-11l28.1-26.9l0.7,2.9l5.3,3.1l3,3l4.3,2.1L146,248.3z"
				/>
		</g>
		<polygon class="st25" points="135.1,237.4 146.2,247.4 147.5,246.4 137.8,234.6 		"/>
		<polygon points="140.9,244.3 141.4,241.4 138.9,242.3 		"/>
		<path class="st26" d="M157.8,215.9c-0.2-0.1-0.4-0.2-0.5-0.4l-12.9,12.1c3.6,4.2,7.2,8.3,10.7,12.5l15-13.6c-3.6-3-7.3-6-11.2-8.8
			C158,217.2,157.7,216.6,157.8,215.9z"/>
		<g>
			<g>
				<polygon class="st24" points="143.6,215.2 139,215 136.6,219.9 164.6,243.9 167,239.9 172.7,239.1 173.9,236.2 149.4,211.4 				
					"/>
				<path d="M143.3,214.1l-4.9-0.2l-3,6.2l29.5,25.2l2.7-4.5l5.8-0.8l1.7-4.1l-25.6-25.9L143.3,214.1z M172,238.2l-5.6,0.8l-2,3.3
					l-26.5-22.7l1.8-3.6l4.2,0.1l5.4-3.5l23.5,23.8L172,238.2z"/>
			</g>
			<path class="st25" d="M143.9,215.7l-3.6-0.1l-1.9,3.8l3.2,2.8c1.1-1.5,2.5-3.3,2.5-3.3l4.8,0.3l3-2.9l-3.5-3.5L143.9,215.7z"/>
			<path class="st25" d="M147.9,226.5l8.1,6.9c0.5-0.7,1-1.4,1.6-2.1c1.3-1.6,2.6-3.2,3.9-4.9l-6.6-5.9
				C152.6,222.7,150.3,224.7,147.9,226.5z"/>
		</g>
	</g>
</g>
</svg>
