<?xml version="1.0" encoding="utf-8"?>
<!-- Generator: Adobe Illustrator 26.0.3, SVG Export Plug-In . SVG Version: 6.00 Build 0)  -->
<svg version="1.1" id="Layer_1" xmlns="http://www.w3.org/2000/svg" xmlns:xlink="http://www.w3.org/1999/xlink" x="0px" y="0px"
	 viewBox="0 0 384 400" style="enable-background:new 0 0 384 400;" xml:space="preserve">
<style type="text/css">
	.head-st0{fill:#151515;}
	.head-st1{fill:#E39D1F;}
	.head-st2{opacity:0.18;fill:#1B1043;}
	.head-st3{fill:#305A73;}
	.head-st4{fill:#4FA7DC;}
	.head-st5{fill:#E3771F;}
	.head-st6{opacity:0.61;}
	.head-st7{fill:#FFC55E;}
	.head-st8{opacity:0.18;}
	.head-st9{fill:#1B1043;}
</style>
<g>
	<g>
		<path class="head-st0" d="M259.8,79.3c-15.5-11.5-39-19.5-67.9-23.2l-0.3,0c-2.7-0.1-5.3-0.1-7.9-0.1c-32.5,0.1-56.2,5.9-70.6,17.1
			c-11.3,8.8-16.7,20.5-16.7,35.9c0,6.9,1.2,14.3,3.6,22.6c-1.3-0.1-2.3,0.2-3.1,0.9c-0.4,0.4-1.4,1.5-0.9,3.4v3l6.1-1.7
			c2.3,0.8,5.6,2.2,8.3,3.3c10.8,4.6,17.7,7.2,21.3,4.8c0.2-0.1,0.4-0.3,0.5-0.4l2.8-0.6c0-0.2,0-0.3,0-0.4
			c0.5-0.2,4.7-1.1,23.3,10.2c0.6,0.4,1.3,0.8,1.9,1.2l0.1,4.2c0.4,0,2.8,0,6.7,0.1c6.6,4.3,11.5,7.9,11.6,7.9l1.5,1.1l1.5-1.1
			c1.3-1,5.1-4,4-7.5c30.1,0.6,76.5,1.5,77.2,1.5l1.2,0l0.8-0.9c11.4-13.7,17.4-28.1,17.4-41.5C282.1,103.8,274.4,90.1,259.8,79.3z
			 M180,162.2c-0.9-0.6-2.1-1.4-3.5-2.4c2.2,0.3,3.8,0.8,4.4,1.3C180.8,161.3,180.5,161.7,180,162.2z M261.8,156.4
			c-8.9-0.2-60.1-1.2-86.2-1.7c-2.4-0.3-5-0.5-7.6-0.5c-2.2-1.4-4.5-2.9-6.9-4.3c-19.8-12.1-25.6-12-28.4-10.5
			c-0.4,0.2-1,0.6-1.5,1.2l-2.3,0.5c0,0,0.1,0,0.1-0.1c-2,1-11.9-3.2-16.7-5.2c-2.6-1.1-4.8-2-6.7-2.7c-2.9-9-4.3-16.9-4.3-24.1
			c0-13.7,4.8-24.2,14.8-32c13.5-10.5,36.2-15.9,67.5-16c2.5,0,5,0,7.6,0.1c28,3.6,50.7,11.3,65.5,22.3
			c13.4,9.9,20.3,21.9,20.4,35.7C277.3,130.9,272,143.8,261.8,156.4z"/>
		<g>
			<path class="head-st1" d="M101,134.8C101,134.8,101,134.8,101,134.8l1.2-0.3c-0.5-0.1-0.9-0.3-1.3-0.3
				C100.9,134.3,100.9,134.5,101,134.8z"/>
			<path class="head-st1" d="M191.6,58.5c-2.7-0.1-5.3-0.1-7.8-0.1c-35.6,0.1-56.9,7-69.1,16.5c-12.2,9.5-15.8,21.7-15.8,33.9
				c0,9.1,2.2,18,4.5,25.2l-1.3,0.4c0.5,0.2,1.1,0.3,1.8,0.6c33.1,3,78.6,15.5,102.1,22.7c5.2,0.1,10.4,0.2,15.6,0.3
				c13.4-18.1,24.2-71.4,7.7-91.2C218.5,63.2,205.9,60.4,191.6,58.5z"/>
			<path class="head-st2" d="M193.1,58.5l-19.4-0.9c0,0-45.6,8.2-42.1,31.2c3.5,23,2.9,47.6,2.9,47.6l63.9,19.1c0,0,30.2-46.1,30.2-59.1
				C228.5,83.4,193.1,58.5,193.1,58.5z"/>
			<path class="head-st3" d="M191.4,58.5l-17-0.9c0,0-40,8.1-36.9,31.1c3.1,23,2.6,47.6,2.6,47.6l56,19.1c0,0,26.5-46,26.4-59
				S191.4,58.5,191.4,58.5z"/>
			<path class="head-st4" d="M190.4,58.5L175,57.6c0,0-36.2,8.1-33.4,31.1c2.8,23,2.3,47.6,2.3,47.6l50.8,19.1c0,0,24-46,23.9-59
				C218.5,83.4,190.4,58.5,190.4,58.5z"/>
		</g>
		<path class="head-st2" d="M161.8,141.1c14,0.3,26,12.2,58,14.1c7.5-7.7,21.4-52.4,17-67C232.1,126.3,191.2,140.7,161.8,141.1z"/>
		<path class="head-st2" d="M159.9,141.2c0.6,0,1.2,0,1.9,0C161.2,141.1,160.5,141.1,159.9,141.2z"/>
		<path class="head-st1" d="M258.4,81.3c-5.1-3.8-11.2-7.2-18.2-10.3c-1.2-0.5-2.3-1-3.6-1.5c-2.3-0.9-4.7-1.8-7.3-2.7
			c-3.7-1.3-7.7-2.4-11.8-3.5c-3.2-0.8-6.4-1.5-9.8-2.2c-5.1-1-10.5-1.9-16.1-2.6c-1.3,0-2.7-0.1-4-0.1c-1.3,0-2.6,0-3.8,0
			c-0.1,0-0.2,0-0.3,0c-0.1,0-0.2,0-0.3,0c40.5,4.9,51.9,16.8,52.6,28c0,0,0.4,4.5,1.6,7.6c1.1,3.1-6.6,51.3-19.5,63
			c0,0,14.5-0.4,30.4,1.5c4.3,0.1,7.9,0.2,10.4,0.2c0.7,0,1.4,0,1.9,0c0.1,0,0.2,0,0.3,0c1.3,0,2,0,2,0c0,0,0,0,0,0
			c0.8-1,1.6-1.9,2.3-2.9c0.2-0.3,0.5-0.6,0.7-0.9c0.5-0.7,1-1.4,1.5-2c0.2-0.3,0.5-0.7,0.7-1c0.5-0.7,0.9-1.4,1.4-2.1
			c0.2-0.3,0.4-0.6,0.6-0.9c0.6-1,1.2-1.9,1.7-2.9c0,0,0,0,0,0c0.6-1,1.1-2,1.6-2.9c0.1-0.2,0.2-0.5,0.4-0.7c0.4-0.7,0.7-1.5,1-2.2
			c0.1-0.3,0.3-0.6,0.4-0.9c0.3-0.7,0.6-1.4,0.9-2.1c0.1-0.3,0.2-0.5,0.3-0.8c0.4-0.9,0.7-1.9,1-2.8c0,0,0,0,0,0
			c0.3-1.1,0.6-2.2,0.9-3.3c0.2-0.9,0.4-1.8,0.6-2.8c0-0.1,0-0.2,0.1-0.3c0.1-0.8,0.3-1.6,0.4-2.4c0-0.2,0-0.4,0.1-0.5
			c0.1-0.7,0.2-1.4,0.2-2.2c0-0.2,0-0.4,0-0.6c0.1-0.9,0.1-1.8,0.1-2.7v0c0,0,0-0.1,0-0.1C279.6,104.9,272.8,92,258.4,81.3z"/>
		<path class="head-st4" d="M258.4,81.3c-5.1-3.8-11.2-7.2-18.2-10.3c-1.2-0.5-2.3-1-3.6-1.5c-2.3-0.9-4.7-1.8-7.3-2.7
			c-0.1,0-0.1,0-0.2-0.1c0,0,0,0,0,0c-0.1,0-0.1,0-0.2-0.1c-1.2-0.4-2.5-0.8-3.8-1.2c-0.1,0-0.2-0.1-0.3-0.1
			c-2.4-0.7-4.8-1.4-7.4-2.1c-0.4-0.1-0.7-0.2-1.1-0.3c-0.2,0-0.3-0.1-0.5-0.1c-1.3-0.3-2.7-0.6-4.1-1c-0.3-0.1-0.6-0.1-1-0.2
			c-1.1-0.2-2.1-0.5-3.2-0.7c-0.2,0-0.5-0.1-0.7-0.1c-0.1,0-0.2,0-0.4-0.1c-1.4-0.3-2.7-0.5-4.1-0.8c-0.4-0.1-0.8-0.1-1.2-0.2
			c-1.2-0.2-2.4-0.4-3.6-0.6c-0.4-0.1-0.9-0.1-1.3-0.2c-1.6-0.2-3.2-0.5-4.9-0.7c0,0,0,0-0.1,0c2.2,0.9,58.2,24,68.1,36.7
			c10,13-3.9,59.4-3.9,59.4l10.4,0.1c0.4-0.6,0.9-1.2,1.3-1.8c0.2-0.3,0.5-0.7,0.7-1c0.5-0.7,0.9-1.4,1.4-2.1
			c0.2-0.3,0.4-0.6,0.6-0.9c0.6-1,1.2-1.9,1.7-2.9c0,0,0,0,0,0c0.6-1,1.1-2,1.6-2.9c0.1-0.2,0.2-0.5,0.4-0.7c0.4-0.7,0.7-1.5,1-2.2
			c0.1-0.3,0.3-0.6,0.4-0.9c0.3-0.7,0.6-1.4,0.9-2.1c0.1-0.3,0.2-0.5,0.3-0.8c0.4-0.9,0.7-1.9,1-2.8c0,0,0,0,0,0
			c0.3-1.1,0.6-2.2,0.9-3.3c0.2-0.9,0.4-1.8,0.6-2.8c0-0.1,0-0.2,0.1-0.3c0.1-0.8,0.3-1.6,0.4-2.4c0-0.2,0-0.4,0.1-0.5
			c0.1-0.7,0.2-1.4,0.2-2.2c0-0.2,0-0.4,0-0.6c0.1-0.9,0.1-1.8,0.1-2.7v0c0,0,0-0.1,0-0.1C279.6,104.9,272.8,92,258.4,81.3z"/>
		<path class="head-st3" d="M258.4,81.3c-5.1-3.8-11.2-7.2-18.2-10.3c-1.2-0.5-2.3-1-3.6-1.5c-2.3-0.9-4.7-1.8-7.3-2.7
			c-0.1,0-0.1,0-0.2-0.1c0,0,0,0,0,0c-0.1,0-0.1,0-0.2-0.1c-1.2-0.4-2.5-0.8-3.8-1.2c-0.1,0-0.2-0.1-0.3-0.1
			c-2.4-0.7-4.8-1.4-7.4-2.1c-0.4-0.1-0.7-0.2-1.1-0.3c-0.2,0-0.3-0.1-0.5-0.1c-1.3-0.3-2.7-0.6-4.1-1c-0.3-0.1-0.6-0.1-1-0.2
			c-1.1-0.2-2.1-0.5-3.2-0.7c-0.2,0-0.5-0.1-0.7-0.1c-0.1,0-0.2,0-0.4-0.1c-1.4-0.3-2.7-0.5-4.1-0.8c-0.4-0.1-0.8-0.1-1.2-0.2
			c-1.2-0.2-2.4-0.4-3.6-0.6c-0.4-0.1-0.9-0.1-1.3-0.2c-1.6-0.2-3.2-0.5-4.9-0.7c0,0,0,0-0.1,0c2.2,0.9,58.2,24,68.1,36.7
			c10,13-3.9,59.4-3.9,59.4l10.4,0.1c0.4-0.6,0.9-1.2,1.3-1.8c0.2-0.3,0.5-0.7,0.7-1c0.5-0.7,0.9-1.4,1.4-2.1
			c0.2-0.3,0.4-0.6,0.6-0.9c0.6-1,1.2-1.9,1.7-2.9c0,0,0,0,0,0c0.6-1,1.1-2,1.6-2.9c0.1-0.2,0.2-0.5,0.4-0.7c0.4-0.7,0.7-1.5,1-2.2
			c0.1-0.3,0.3-0.6,0.4-0.9c0.3-0.7,0.6-1.4,0.9-2.1c0.1-0.3,0.2-0.5,0.3-0.8c0.4-0.9,0.7-1.9,1-2.8c0,0,0,0,0,0
			c0.3-1.1,0.6-2.2,0.9-3.3c0.2-0.9,0.4-1.8,0.6-2.8c0-0.1,0-0.2,0.1-0.3c0.1-0.8,0.3-1.6,0.4-2.4c0-0.2,0-0.4,0.1-0.5
			c0.1-0.7,0.2-1.4,0.2-2.2c0-0.2,0-0.4,0-0.6c0.1-0.9,0.1-1.8,0.1-2.7v0c0,0,0-0.1,0-0.1C279.6,104.9,272.8,92,258.4,81.3z"/>
		<path class="head-st4" d="M258.4,81.3c-5.1-3.8-11.2-7.2-18.2-10.3c-1.2-0.5-2.3-1-3.6-1.5c-2.3-0.9-4.7-1.8-7.3-2.7
			c-0.1,0-0.1,0-0.2-0.1c0,0,0,0,0,0c-0.1,0-0.1,0-0.2-0.1c-1.2-0.4-2.5-0.8-3.8-1.2c-0.1,0-0.2-0.1-0.3-0.1
			c-2.4-0.7-4.8-1.4-7.4-2.1c-0.4-0.1-0.7-0.2-1.1-0.3c-0.2,0-0.3-0.1-0.5-0.1c-1.3-0.3-2.7-0.6-4.1-1c-0.3-0.1-0.6-0.1-1-0.2
			c-1.1-0.2-2.1-0.5-3.2-0.7c-0.2,0-0.5-0.1-0.7-0.1c-0.1,0-0.2,0-0.4-0.1c-1.2-0.2-2.3-0.4-3.5-0.7c15.6,6.7,53.5,23.7,61.4,33.9
			c10,13-3.9,59.4-3.9,59.4l6.2,0.1c0.2-0.2,0.4-0.5,0.5-0.7c0.2-0.3,0.5-0.7,0.7-1c0.5-0.7,0.9-1.4,1.4-2.1
			c0.2-0.3,0.4-0.6,0.6-0.9c0.6-1,1.2-1.9,1.7-2.9c0,0,0,0,0,0c0.6-1,1.1-2,1.6-2.9c0.1-0.2,0.2-0.5,0.4-0.7c0.4-0.7,0.7-1.5,1-2.2
			c0.1-0.3,0.3-0.6,0.4-0.9c0.3-0.7,0.6-1.4,0.9-2.1c0.1-0.3,0.2-0.5,0.3-0.8c0.4-0.9,0.7-1.9,1-2.8c0,0,0,0,0,0
			c0.3-1.1,0.6-2.2,0.9-3.3c0.2-0.9,0.4-1.8,0.6-2.8c0-0.1,0-0.2,0.1-0.3c0.1-0.8,0.3-1.6,0.4-2.4c0-0.2,0-0.4,0.1-0.5
			c0.1-0.7,0.2-1.4,0.2-2.2c0-0.2,0-0.4,0-0.6c0.1-0.9,0.1-1.8,0.1-2.7v0c0,0,0-0.1,0-0.1C279.6,104.9,272.8,92,258.4,81.3z"/>
		<path class="head-st2" d="M258.4,81.3c-5.1-3.8-11.2-7.2-18.2-10.3c-1.2-0.5-2.3-1-3.6-1.5c-2.3-0.9-4.7-1.8-7.3-2.7
			c-0.1,0-0.1,0-0.2-0.1c0,0,0,0,0,0c-0.1,0-0.1,0-0.2-0.1c-1.2-0.4-2.5-0.8-3.8-1.2c-0.1,0-0.2-0.1-0.3-0.1
			c-2.4-0.7-4.8-1.4-7.4-2.1c-0.4-0.1-0.7-0.2-1.1-0.3c-0.2,0-0.3-0.1-0.5-0.1c-1.3-0.3-2.7-0.6-4.1-1c-0.3-0.1-0.6-0.1-1-0.2
			c-1.1-0.2-2.1-0.5-3.2-0.7c-0.2,0-0.5-0.1-0.7-0.1c-0.1,0-0.2,0-0.4-0.1c-1.4-0.3-2.7-0.5-4.1-0.8c-0.4-0.1-0.8-0.1-1.2-0.2
			c-1.2-0.2-2.4-0.4-3.6-0.6c-0.4-0.1-0.9-0.1-1.3-0.2c-1.6-0.2-3.2-0.5-4.9-0.7c0,0,0,0-0.1,0c2.2,0.9,46.2,21.1,56.1,33.8
			c10,13,8.1,62.4,8.1,62.4l10.4,0.1c0.4-0.6,0.9-1.2,1.3-1.8c0.2-0.3,0.5-0.7,0.7-1c0.5-0.7,0.9-1.4,1.4-2.1
			c0.2-0.3,0.4-0.6,0.6-0.9c0.6-1,1.2-1.9,1.7-2.9c0,0,0,0,0,0c0.6-1,1.1-2,1.6-2.9c0.1-0.2,0.2-0.5,0.4-0.7c0.4-0.7,0.7-1.5,1-2.2
			c0.1-0.3,0.3-0.6,0.4-0.9c0.3-0.7,0.6-1.4,0.9-2.1c0.1-0.3,0.2-0.5,0.3-0.8c0.4-0.9,0.7-1.9,1-2.8c0,0,0,0,0,0
			c0.3-1.1,0.6-2.2,0.9-3.3c0.2-0.9,0.4-1.8,0.6-2.8c0-0.1,0-0.2,0.1-0.3c0.1-0.8,0.3-1.6,0.4-2.4c0-0.2,0-0.4,0.1-0.5
			c0.1-0.7,0.2-1.4,0.2-2.2c0-0.2,0-0.4,0-0.6c0.1-0.9,0.1-1.8,0.1-2.7v0c0,0,0-0.1,0-0.1C279.6,104.9,272.8,92,258.4,81.3z"/>
		<path class="head-st2" d="M259.2,94.8c-15.2-2.2-20.5-5.4-22.1-7.5L238,107l-20.2,49.7c5-0.2,16.6,0.8,27.9,1.8
			c10.2,0.2,17.1,0.3,17.1,0.3c11.3-13.6,16.9-27.3,16.8-39.9c-0.1-10.1-3.7-19.7-11.1-28.3C265.3,91.4,264.5,94.8,259.2,94.8z"/>
		<g>
			<path class="head-st0" d="M235.1,110.6c-0.8-0.2-1.6,0.3-1.8,1.1c-0.8,3.1-1.8,6.4-2.9,9.9c-0.2,0.8,0.2,1.6,1,1.8
				c0.2,0,0.3,0.1,0.5,0.1c0.6,0,1.2-0.4,1.4-1c1.2-3.5,2.2-6.9,3-10.1C236.4,111.6,235.9,110.8,235.1,110.6z"/>
			<path class="head-st0" d="M218.7,66.8c-3-1.7-6.3-3.3-9.9-4.8c-0.8-0.3-1.7,0-2,0.7c-0.3,0.7,0,1.6,0.8,1.9c3.5,1.5,6.7,3,9.6,4.7
				c0.2,0.1,0.5,0.2,0.8,0.2c0.5,0,1-0.3,1.3-0.7C219.7,68.1,219.4,67.2,218.7,66.8z"/>
			<path class="head-st0" d="M237.3,90.1c-0.8,0.1-1.5,0.7-1.4,1.5c0,0.7,0.1,1.4,0.1,2.1c0,2.3-0.2,5-0.7,8c-0.1,0.8,0.5,1.5,1.3,1.6
				c0.1,0,0.2,0,0.2,0c0.7,0,1.4-0.5,1.5-1.2c0.5-3.1,0.7-5.9,0.7-8.4c0-0.8,0-1.5-0.1-2.2C238.9,90.6,238.2,90,237.3,90.1z"/>
			<path class="head-st0" d="M228.8,130.5c-0.8-0.3-1.7,0.1-1.9,0.9c-1.2,3.1-2.5,6.4-3.9,9.7c-0.3,0.7,0.1,1.6,0.9,1.9
				c0.2,0.1,0.4,0.1,0.6,0.1c0.6,0,1.2-0.3,1.4-0.9c1.4-3.3,2.7-6.6,3.9-9.8C230,131.6,229.5,130.8,228.8,130.5z"/>
			<path class="head-st0" d="M227.9,72.9c-0.6-0.5-1.6-0.4-2.1,0.2c-0.5,0.6-0.5,1.5,0.2,2c3,2.4,5.3,4.9,6.9,7.4
				c0.3,0.4,0.8,0.7,1.3,0.7c0.3,0,0.5-0.1,0.8-0.2c0.7-0.4,0.9-1.3,0.5-2C233.6,78.2,231.1,75.5,227.9,72.9z"/>
			<path class="head-st0" d="M220.8,149.8c-0.8-0.3-1.7,0-2,0.7c-1.3,2.7-2,4.3-2,4.4c-0.4,0.7,0,1.6,0.7,1.9c0.2,0.1,0.4,0.1,0.6,0.1
				c0.6,0,1.1-0.3,1.4-0.8c0,0,0.8-1.6,2.1-4.4C221.9,151,221.6,150.2,220.8,149.8z"/>
		</g>
	</g>
	<g>
		<g>
			<path d="M212.2,153.5c-5.5-1.2-13.1-3.7-21.9-6.7c-27.7-9.3-69.7-23.4-102.9-12.7c-0.8,0.2-18.8,5.6-34.6,24
				c-1.8,1.4-2.5,3.2-1.9,4.9l0.1,10.7l0.5,0.7c1.1,1.5,3.3,2.3,7.1,2.6c2.4,0.2,5.1-0.1,8.2-0.4c9.7-1,24.4-2.6,47.7,9.5
				c18.7,9.7,34.5,15.6,51.2,15.6c11.8,0,24-3,38-9.7c11.6-5.6,25.4-11.8,37.5-17.2c16.4-7.4,29.4-13.2,33-15.7l0.8-0.6l2.6-12.1
				l-4,1.1C273.2,147.7,234.7,158.4,212.2,153.5z M270.5,155.6c-4.4,2.6-17.5,8.5-31.4,14.8c-12.1,5.4-25.9,11.6-37.6,17.3
				c-31.9,15.4-54.4,9.8-84.7-5.9C99.7,172.9,87,171,77.4,171c-4.3,0-8,0.4-11.2,0.7c-2.9,0.3-5.3,0.6-7.2,0.4
				c-1.6-0.1-2.6-0.4-3.1-0.5l-0.1-9.5c0,0,0,0,0.1-0.1l0.3-0.2l0.2-0.3c14.8-17.4,32.2-22.6,32.5-22.7
				c31.8-10.2,72.8,3.6,99.9,12.7c8.9,3,16.6,5.6,22.4,6.8c19.6,4.2,49.1-2.3,59.8-4.9L270.5,155.6z"/>
			<path class="head-st5" d="M211.7,157.3c-22.2-4.8-104.2-8.2-150.4,2.8c0,1.2-7.6,1.6-7.9,2.3l0.1,10.5c0.5,0.7,2,1.3,5.4,1.7
				c9.2,0.8,25.5-6.8,56.8,9.4c31.3,16.2,54.4,21.7,87,5.9c26.7-12.9,64-28.4,70.2-32.8l1-7C267.7,151.1,230.8,161.4,211.7,157.3z"
				/>
			<path class="head-st1" d="M211.6,156c-23.4-5-80.7-33.2-123.6-19.4c0,0-18.1,5.2-33.6,23.5c0,0-5,3.4,4.3,4.2
				c9.2,0.8,25.5-6.8,56.8,9.4c31.3,16.2,54.4,21.7,87,5.9c32.6-15.8,71.7-29.5,71.7-29.5S235.1,161,211.6,156z"/>
			<g class="head-st6">
				<path class="head-st7" d="M73.4,157.5c-9.5-1.6-4.4-7.6-4.4-7.6c12.2-13,25.9-12.8,31.6-16.2c-4.4,0.6-8.6,1.5-12.6,2.8
					c0,0-18.1,5.2-33.6,23.5c0,0-5,3.4,4.3,4.2c9.2,0.8,25.5-6.8,56.8,9.4c20.2,10.4,31.3,14.3,52.3,14.1
					c-15.5-3.8-21.2-7.4-36.2-16.2C99.6,152.8,82.9,159.1,73.4,157.5z"/>
			</g>
		</g>
		<path class="head-st2" d="M195.7,151.2c3.7,8.2,5.4,8.6,5,17.4c-0.2,4.5-1.1,8.8-2.6,12.8c1.2-0.5,2.5-1,3.7-1.5
			c26.4-11.5,72.6-29.9,72.6-29.9C253.2,155.3,209.5,155.2,195.7,151.2z"/>
	</g>
	<g class="head-st8">
		<path class="head-st9" d="M169.1,142.3c-2.8-0.5-6.7-1.2-11.1-2.1C161.9,141.2,165.6,141.9,169.1,142.3z"/>
		<path class="head-st9" d="M103.2,88.8c-1.3,2.5-2.2,5.2-2.9,7.8c-0.8,6.9-1.1,14.1-0.8,20.5c0.8,6.1,2.3,11.9,3.9,16.9l-0.6,0.2
			c0.1,0.2,0.2,0.4,0.4,0.5c0.1,0,0.2,0.1,0.3,0.1c8.4-3.9,36.3,1.7,54.5,5.3C133.6,133.7,104.2,114.9,103.2,88.8z"/>
	</g>
	<path class="head-st0" d="M170,57.5c11.5,8.8,33.8,1.7,33.8,1.7C199.8,45.8,174.2,49.4,170,57.5z"/>
</g>
</svg>
