<?xml version="1.0" encoding="utf-8"?>
<!-- Generator: Adobe Illustrator 26.0.3, SVG Export Plug-In . SVG Version: 6.00 Build 0)  -->
<svg version="1.1" id="Layer_1" xmlns="http://www.w3.org/2000/svg" xmlns:xlink="http://www.w3.org/1999/xlink" x="0px" y="0px"
	 viewBox="0 0 384 400" style="enable-background:new 0 0 384 400;" xml:space="preserve">
<style type="text/css">
	.head-st0{fill:#151515;}
	.head-st1{fill:#E39D1F;}
	.head-st2{opacity:0.18;fill:#1B1043;}
	.head-st3{fill:#E3771F;}
	.head-st4{fill:#FFC55E;}
	.head-st5{opacity:0.18;}
	.head-st6{fill:#1B1043;}
</style>
<g>
	<g>
		<path class="head-st0" d="M260.1,79.6c-15.5-11.5-39-19.6-67.9-23.5l-0.3,0c-2.7-0.1-5.3-0.1-7.9-0.1c0,0,0,0,0,0
			c-32.5,0-56.2,5.7-70.6,16.8c-11.3,8.8-16.8,20.5-16.9,35.8c0,6.9,1.1,14.3,3.5,22.6c-1.3-0.1-2.3,0.2-3.1,0.9
			c-0.5,0.4-1.5,1.7-0.8,3.8l0.7,2.3l5.2-1.5c2.3,0.8,5.6,2.2,8.3,3.3c10.8,4.6,17.6,7.3,21.3,4.9c0.2-0.1,0.4-0.3,0.5-0.4l2.8-0.6
			c0-0.2,0-0.3,0-0.4c0.5-0.2,4.7-1.1,23.3,10.3c0.6,0.4,1.3,0.8,1.9,1.2l0.1,4.2c0.4,0,2.8,0,6.7,0.1c6.6,4.4,11.5,7.9,11.6,8
			l1.5,1.1l1.5-1.1c1.3-1,5.1-3.9,4.1-7.5c30.1,0.7,76.5,1.8,77.2,1.8l1.2,0l0.8-0.9c11.5-13.7,17.5-28,17.5-41.4
			C282.3,104.1,274.6,90.4,260.1,79.6z M179.9,162.3c-0.9-0.6-2.1-1.4-3.5-2.4c2.2,0.3,3.8,0.8,4.4,1.3
			C180.7,161.4,180.4,161.7,179.9,162.3z M261.7,156.7c-8.9-0.2-60.1-1.4-86.2-2c-2.4-0.3-5-0.5-7.6-0.5c-2.2-1.4-4.5-2.9-6.9-4.4
			c-19.8-12.1-25.6-12.1-28.4-10.6c-0.4,0.2-1,0.6-1.5,1.2l-2.3,0.5c0,0,0.1,0,0.1-0.1c-2,1-11.9-3.2-16.6-5.3
			c-2.6-1.1-4.8-2.1-6.7-2.8c-2.8-9-4.2-16.9-4.2-24.1c0-13.7,4.9-24.1,15-31.9C130,66.3,152.7,61,184.1,61c2.5,0,5,0,7.6,0.1
			c28,3.7,50.6,11.5,65.4,22.5c13.4,10,20.2,22,20.2,35.7C277.4,131.3,272,144.2,261.7,156.7z"/>
		<g>
			<path class="head-st1" d="M101,134.5C101,134.5,101,134.5,101,134.5l1.2-0.3c-0.5-0.1-0.9-0.3-1.3-0.3C100.9,134,101,134.3,101,134.5z
				"/>
			<path class="head-st1" d="M191.9,58.6c-2.7-0.1-5.3-0.1-7.8-0.1c-35.6,0-56.9,6.8-69.1,16.3c-12.2,9.5-15.9,21.7-15.9,33.9
				c0,9.1,2.1,18,4.4,25.2l-1.3,0.4c0.5,0.2,1.1,0.4,1.8,0.6c33.1,3.1,78.6,15.8,102,23.1c5.2,0.1,10.4,0.2,15.6,0.4
				c13.5-18.1,24.5-71.3,8-91.2C218.7,63.4,206.2,60.5,191.9,58.6z"/>
		</g>
		<path class="head-st2" d="M161.8,141.1c14,0.4,26,12.3,57.9,14.4c7.5-7.7,21.6-52.3,17.2-66.9C232.2,126.5,191.2,140.8,161.8,141.1z"/>
		<path class="head-st2" d="M159.9,141.1c0.6,0,1.3,0,1.9,0C161.2,141.1,160.5,141.1,159.9,141.1z"/>
		<path class="head-st1" d="M258.6,81.6c-5.1-3.8-11.1-7.2-18.1-10.3c-1.2-0.5-2.3-1-3.5-1.5c-2.3-0.9-4.7-1.8-7.2-2.7
			c-3.7-1.3-7.7-2.5-11.8-3.5c-3.1-0.8-6.4-1.6-9.8-2.3c-5.1-1-10.5-1.9-16.1-2.7c-1.3,0-2.7-0.1-4-0.1c-1.3,0-2.6,0-3.8,0
			c-0.1,0-0.2,0-0.3,0c-0.1,0-0.2,0-0.3,0c40.5,5,51.8,17,52.5,28.2c0,0,0.4,4.5,1.6,7.6c1.1,3.1-6.7,51.3-19.7,62.9
			c0,0,14.5-0.4,30.4,1.6c4.3,0.1,7.9,0.2,10.4,0.2c0.7,0,1.4,0,1.9,0c0.1,0,0.2,0,0.3,0c1.3,0,2,0,2,0c0,0,0,0,0,0
			c0.8-1,1.6-1.9,2.3-2.9c0.2-0.3,0.5-0.6,0.7-0.9c0.5-0.7,1-1.4,1.5-2c0.2-0.3,0.5-0.7,0.7-1c0.5-0.7,0.9-1.4,1.4-2.1
			c0.2-0.3,0.4-0.6,0.6-0.9c0.6-1,1.2-1.9,1.7-2.9c0,0,0,0,0,0c0.6-1,1.1-2,1.6-2.9c0.1-0.2,0.2-0.5,0.4-0.7c0.4-0.7,0.7-1.5,1-2.2
			c0.1-0.3,0.3-0.6,0.4-0.9c0.3-0.7,0.6-1.4,0.9-2.1c0.1-0.3,0.2-0.5,0.3-0.8c0.4-0.9,0.7-1.9,1-2.8c0,0,0,0,0,0
			c0.3-1.1,0.6-2.2,0.9-3.3c0.2-0.9,0.4-1.8,0.6-2.8c0-0.1,0-0.2,0.1-0.3c0.1-0.8,0.3-1.6,0.4-2.4c0-0.2,0.1-0.4,0.1-0.5
			c0.1-0.7,0.2-1.4,0.2-2.2c0-0.2,0-0.4,0-0.6c0.1-0.9,0.1-1.8,0.1-2.7v0c0,0,0-0.1,0-0.1C279.8,105.3,273,92.3,258.6,81.6z"/>
		<path class="head-st2" d="M259.4,95.1c-15.2-2.3-20.5-5.4-22-7.6l0.8,19.7l-20.4,49.6c5-0.1,16.6,0.8,27.9,1.9
			c10.2,0.2,17.1,0.4,17.1,0.4c11.3-13.5,17-27.2,17-39.8c0-10.1-3.6-19.7-11-28.3C265.5,91.8,264.7,95.1,259.4,95.1z"/>
		<g>
			<path class="head-st0" d="M237.5,90.3c-0.8,0-1.5,0.7-1.4,1.5c0,0.7,0.1,1.4,0.1,2.1c0,2.3-0.2,5-0.7,8c-0.1,0.8,0.4,1.5,1.3,1.6
				c0.1,0,0.2,0,0.2,0c0.7,0,1.4-0.5,1.5-1.2c0.5-3.1,0.7-5.9,0.7-8.4c0-0.8,0-1.5-0.1-2.2C239.1,90.8,238.4,90.2,237.5,90.3z"/>
			<path class="head-st0" d="M219,67c-3-1.7-6.3-3.3-9.9-4.8c-0.8-0.3-1.7,0-2,0.7c-0.3,0.7,0,1.6,0.8,1.9c3.5,1.5,6.7,3.1,9.6,4.7
				c0.2,0.1,0.5,0.2,0.8,0.2c0.5,0,1-0.3,1.3-0.7C219.9,68.3,219.7,67.4,219,67z"/>
			<path class="head-st0" d="M235.2,110.8c-0.8-0.2-1.6,0.3-1.8,1c-0.8,3.1-1.8,6.4-3,9.9c-0.3,0.8,0.2,1.6,1,1.8c0.2,0,0.3,0.1,0.5,0.1
				c0.6,0,1.2-0.4,1.4-1c1.2-3.5,2.2-6.9,3-10.1C236.5,111.8,236,111,235.2,110.8z"/>
			<path class="head-st0" d="M228.8,130.7c-0.8-0.3-1.7,0.1-1.9,0.9c-1.2,3.1-2.5,6.4-3.9,9.7c-0.3,0.7,0.1,1.6,0.8,1.9
				c0.2,0.1,0.4,0.1,0.6,0.1c0.6,0,1.2-0.3,1.4-0.9c1.4-3.3,2.7-6.6,3.9-9.7C230,131.8,229.6,131,228.8,130.7z"/>
			<path class="head-st0" d="M228.1,73.1c-0.6-0.5-1.6-0.4-2.1,0.2c-0.5,0.6-0.5,1.5,0.2,2c3,2.4,5.3,4.9,6.9,7.4
				c0.3,0.4,0.8,0.7,1.3,0.7c0.3,0,0.5-0.1,0.8-0.2c0.7-0.4,0.9-1.3,0.5-2C233.9,78.4,231.3,75.7,228.1,73.1z"/>
			<path class="head-st0" d="M220.8,150c-0.8-0.3-1.7,0-2,0.7c-1.3,2.7-2.1,4.3-2.1,4.3c-0.4,0.7,0,1.6,0.7,1.9c0.2,0.1,0.4,0.1,0.6,0.1
				c0.6,0,1.1-0.3,1.4-0.8c0,0,0.8-1.6,2.1-4.4C221.9,151.2,221.5,150.3,220.8,150z"/>
		</g>
	</g>
	<g>
		<g>
			<path d="M212.1,153.7c-5.5-1.2-13.1-3.8-21.8-6.8c-27.7-9.4-69.6-23.7-102.9-13.1c-0.8,0.2-18.9,5.5-34.7,23.9
				c-1.8,1.3-2.5,3.2-1.9,4.9l0.1,10.7l0.5,0.7c1.1,1.5,3.3,2.3,7.1,2.7c2.4,0.2,5.1,0,8.2-0.4c9.7-1,24.4-2.5,47.6,9.7
				c18.7,9.8,34.6,15.8,51.4,15.8c11.7,0,23.9-2.9,37.7-9.6c11.6-5.6,25.4-11.7,37.5-17.1c16.4-7.3,29.4-13,33.1-15.6l0.8-0.6
				l2.6-12.1l-4,1.1C273.1,148.1,234.7,158.6,212.1,153.7z M270.4,155.9c-4.4,2.6-17.6,8.5-31.5,14.6c-12.2,5.4-26,11.5-37.7,17.1
				c-31.9,15.3-54.4,9.6-84.7-6.2c-17.2-9-29.9-10.9-39.6-10.9c-4.2,0-7.8,0.4-10.9,0.7c-2.9,0.3-5.3,0.5-7.2,0.4
				c-1.6-0.2-2.6-0.4-3.1-0.5l-0.1-9.5c0,0,0,0,0.1,0l0.3-0.2l0.2-0.3c14.9-17.4,32.3-22.5,32.6-22.6c31.8-10.1,72.7,3.8,99.8,13.1
				c8.9,3,16.6,5.6,22.4,6.9c19.6,4.3,49.1-2.1,59.8-4.7L270.4,155.9z"/>
			<path class="head-st3" d="M211.6,157.4c-22.2-4.9-104.2-8.6-150.4,2.3c0,1.2-7.6,1.6-7.9,2.3l0.1,10.5c0.5,0.7,2,1.4,5.3,1.7
				c9.2,0.9,25.6-6.7,56.8,9.6c31.2,16.3,54.3,21.9,86.9,6.2c26.8-12.8,64.1-28.2,70.3-32.5l1-7
				C267.6,151.4,230.7,161.6,211.6,157.4z"/>
			<path class="head-st1" d="M211.6,156.1c-23.4-5.1-80.6-33.5-123.5-19.9c0,0-18.1,5.1-33.7,23.3c0,0-5,3.4,4.3,4.3
				c9.2,0.9,25.6-6.7,56.8,9.6c31.2,16.3,54.3,21.9,86.9,6.2c32.7-15.6,71.8-29.2,71.8-29.2S235,161.2,211.6,156.1z"/>
			<g>
				<path class="head-st4" d="M73.3,157.1c-9.4-1.6-4.4-7.6-4.4-7.6c12.2-13,25.9-12.7,31.7-16.1c-4.4,0.6-8.6,1.5-12.6,2.8
					c0,0-18.1,5.1-33.7,23.3c0,0-5,3.4,4.3,4.3c9.2,0.9,25.6-6.7,56.8,9.6c20.1,10.5,31.3,14.4,52.2,14.2
					c-15.5-3.9-21.2-7.5-36.1-16.3C99.5,152.5,82.8,158.7,73.3,157.1z"/>
			</g>
		</g>
		<path class="head-st2" d="M195.6,151.3c3.7,8.2,5.3,8.6,4.9,17.4c-0.2,4.5-1.1,8.8-2.6,12.8c1.2-0.5,2.5-1,3.7-1.5
			c26.4-11.4,72.7-29.6,72.7-29.6C253.2,155.6,209.4,155.3,195.6,151.3z"/>
	</g>
	<g class="head-st5">
		<path class="head-st6" d="M169.1,142.3c-2.8-0.5-6.7-1.3-11.1-2.2C161.9,141.2,165.6,141.9,169.1,142.3z"/>
		<path class="head-st6" d="M103.4,88.6c-1.3,2.5-2.2,5.2-2.9,7.8c-0.8,6.9-1.1,14.1-0.9,20.5c0.8,6.1,2.3,12,3.8,16.9l-0.6,0.2
			c0.1,0.2,0.2,0.4,0.4,0.5c0.1,0,0.2,0.1,0.3,0.1c8.4-3.9,36.3,1.8,54.5,5.5C133.6,133.6,104.3,114.6,103.4,88.6z"/>
	</g>
	<path class="head-st0" d="M170.3,57.5c11.5,8.8,33.8,1.8,33.8,1.8C200.2,45.9,174.5,49.4,170.3,57.5z"/>
</g>
</svg>
