<?xml version="1.0" encoding="utf-8"?>
<!-- Generator: Adobe Illustrator 26.0.3, SVG Export Plug-In . SVG Version: 6.00 Build 0)  -->
<svg version="1.1" id="Layer_1" xmlns="http://www.w3.org/2000/svg" xmlns:xlink="http://www.w3.org/1999/xlink" x="0px" y="0px"
	 viewBox="0 0 384 400" style="enable-background:new 0 0 384 400;" xml:space="preserve">
<style type="text/css">
	.head-st0{fill:#FFFFFF;}
	.head-st1{fill:#151515;}
	.head-st2{fill:#4A1D1F;}
	.head-st3{opacity:0.25;fill:#260F10;}
	.head-st4{fill:#C63E48;}
	.head-st5{fill:#AB2C2F;}
	.head-st6{opacity:0.18;fill:#1B1043;}
	.head-st7{opacity:0.18;}
	.head-st8{fill:#1B1043;}
	.head-st9{opacity:0.16;}
	.head-st10{fill:#A6690A;}
	.head-st11{fill:#E8930F;}
	.head-st12{fill:#FFBA39;}
	.head-st13{fill:#CF830D;}
	.head-st14{fill:#FFCB69;}
</style>
<g>
	<g>
		<g>
			<g>
				<path class="head-st0" d="M267.8,148.4v22.7c21.3-0.6,55.7-2.6,60.5-8.8l-1.4-11.7C318.9,143.2,278.5,147.2,267.8,148.4z"/>
				<path class="head-st1" d="M328.7,148.8c-8.2-7.6-41.8-5-61.1-2.8l-2.2,0.3v27.5l2.6-0.1c56.1-1.7,60.9-7.8,62.4-9.8l0.6-0.8
					l-1.6-13.6L328.7,148.8z M270.3,168.5v-17.9c23.1-2.5,47.9-3,54.3,1.3l1.1,9.4C321.8,164.2,305.5,167.4,270.3,168.5z"/>
			</g>
			<path class="head-st2" d="M267.8,148.4v22.7c21.3-0.6,55.7-2.6,60.5-8.8l-1.4-11.7C318.9,143.2,278.5,147.2,267.8,148.4z"/>
			<path class="head-st3" d="M301.1,146.3c-13.3,0-27.6,1.5-33.3,2.1v22.7c10.4-0.3,23.8-1,35.8-2.4c-1.9-5.8-1.1-7.6-1.9-13.2
				C301.4,152.4,301.1,149.3,301.1,146.3z"/>
		</g>
		<g>
			<path class="head-st0" d="M267.8,134.9v24c22.5-1.4,60.4-4.8,58.1-11.8C323.3,139.2,281.4,135.8,267.8,134.9z"/>
			<path class="head-st1" d="M301.4,135.9c-12.5-1.9-26.3-3-33.4-3.5l-2.7-0.2v29.4l2.7-0.2c54.4-3.4,58.4-9.2,59.7-11.2
				c0.8-1.2,1-2.6,0.6-4C327.3,143.2,323.3,139.3,301.4,135.9z M270.3,156.3v-18.7c36.4,2.6,51.5,7.3,53.1,10.1
				C321.6,149.7,308.7,153.7,270.3,156.3z"/>
		</g>
		<path class="head-st4" d="M267.8,134.9v24c22.5-1.4,60.4-4.8,58.1-11.8C323.3,139.2,281.4,135.8,267.8,134.9z"/>
		<path class="head-st5" d="M267.8,135.1v22.1c21.2-1.7,48.2-5.1,46.5-11C312.4,139.8,284.6,136.5,267.8,135.1z"/>
	</g>
	<g>
		<g>
			<path class="head-st1" d="M256.9,86.5c-16.4-12.4-40.1-20.4-70.2-23.7l-0.2,0l-0.2,0c-2.7,0-5.4,0.1-8,0.1c-32.5,1-55.1,7.4-71.1,20.1
				c-12.3,9.8-19.1,22.8-20.9,39.7c-1.1,11-1.9,20.1-0.5,28.2l0.3,2l2,0.3c3.8,0.5,7.7,1.2,11.4,1.8c3,0.5,6.1,1.1,9.2,1.5l0,0
				c9.8,1.4,18.7,2.6,27.4,3.7c20.1,2.4,38.5,3.9,56.3,4.6c7.4,0.3,15.5,0.5,24,0.5c8.1,0,16.4-0.2,24.9-0.8
				c11.6-0.8,22.1-2.3,32.2-4.5l1.4-0.3l0.6-1.3c3.8-9.2,5.6-18.2,5.5-26.9C280.9,113.9,272.5,98.3,256.9,86.5z M271,154.9
				c-9.4,2-19.2,3.3-29.9,4.1c-17,1.2-33.9,0.8-48.2,0.3c-17.7-0.7-35.9-2.2-55.9-4.5c-8.7-1-17.6-2.2-27.3-3.6c-3-0.4-6.1-1-9-1.5
				c-3.1-0.5-6.3-1.1-9.5-1.6c-0.8-7-0.1-15.1,0.9-24.7c1.6-15.4,7.8-27.2,18.8-36c15-12,36.5-18,67.8-18.9c2.5-0.1,5.1-0.1,7.7-0.1
				c28.7,3.2,51.9,11,67.3,22.6c14.4,10.9,21.8,24.6,22,40.6C275.7,139,274.1,146.8,271,154.9z"/>
			<path class="head-st1" d="M256.7,102.6L256.7,102.6c-16.6-12.7-40.4-20.9-70.9-24.4l-0.3,0c-2.7,0-5.5,0-8.1,0.1
				c-32.8,0.9-55.7,7.4-71.8,20.3c-5.8,4.6-10.4,10.1-13.8,16.2l-0.2,0.4l-7,33.2l2.3,17.7l1.8,0.5c0,0,0.1,0,0.1,0
				c0.5,0.4,1.2,0.7,2.3,0.9c9.1,1.4,34.1,4.6,43.7,5.8c20.3,2.5,38.9,4.1,56.9,4.8c7.9,0.3,16.5,0.6,25.5,0.6
				c7.7,0,15.8-0.2,23.8-0.8c11.7-0.8,22.3-2.3,32.5-4.5l1.4-0.3l0.5-1.4c0.1-0.2,0.1-0.3,0.2-0.5l0.3-0.8l0.1-44.5l-0.3-0.6
				C271.8,116.9,265.4,109.2,256.7,102.6z M270.5,168.4c-9.3,1.9-19.1,3.3-29.8,4c-17.2,1.2-34.3,0.8-48.7,0.2
				c-17.8-0.7-36.3-2.3-56.4-4.8c-9.5-1.2-34.4-4.4-43.5-5.8l-1.7-13.4l6.6-31.5c3.1-5.4,7.2-10.2,12.3-14.3
				c15.1-12.1,36.9-18.2,68.5-19.1c2.5-0.1,5.1-0.1,7.8-0.1c28.9,3.3,52.4,11.3,68,23.3c7.7,5.9,13.5,12.8,17.2,20.4L270.5,168.4z"
				/>
			<path class="head-st2" d="M255,104.8c-15.2-11.7-38.3-20.3-69.5-23.8c-2.7,0-5.4,0-8,0.1c-36.4,1-56.8,9-70.1,19.7
				c-5.8,4.7-10.1,9.9-13.1,15.4l-6.8,32.3l2,15.4c1.4,0.4,0.7,0.7,2.1,0.9c9.1,1.4,34.3,4.7,43.6,5.8c18.6,2.3,37.5,4,56.7,4.8
				c16.2,0.7,32.6,1,49-0.2c10.7-0.8,21.5-2.1,32.1-4.5c0.1-0.2,0.2-0.5,0.3-0.7l0.1-43.3C269.5,118.6,263.5,111.3,255,104.8z"/>
			<path class="head-st3" d="M255,104.8c-13.6-10.4-33.4-18.4-59.7-22.5l0,0.2c0.5,0.5,1.1,1,1.6,1.5c2.4,2.7,4.2,5.8,5.3,9.3
				c0.5,1.7,0.7,3.4,1.1,5.1c0.2,1,0.9,2.1,1.2,3.1c0.4,1,0.7,2,1,3c1.2,4.1,1.7,8.4,1.7,12.8c0,3.7,0.3,7.4,0.3,11.1
				c0,15.8-2.4,28.2-7.8,43.9c-0.4,1.1-0.8,2.2-1.2,3.4c14,0.5,28.2,0.6,42.4-0.4c10.7-0.8,21.5-2.1,32.1-4.5
				c0.1-0.2,0.2-0.5,0.3-0.7l0.1-43.3C269.5,118.6,263.5,111.3,255,104.8z"/>
			<g>
				<path class="head-st5" d="M186.4,65.6c-2.7,0-5.4,0.1-7.9,0.1c-36.1,1.1-56.2,9-69.4,19.5c-13.3,10.6-18.4,24.2-19.9,37.8
					c-1,9.8-1.9,19.4-0.6,27.5c6.9,0.9,13.7,2.3,20.6,3.3c9.1,1.3,18.2,2.6,27.4,3.6c18.4,2.2,37.2,3.8,56.1,4.5
					c9.8,0.4,19.6,0.6,29.5,0.5c10.8-28.2,16.4-71.6,2.7-89C213.8,69.9,201.1,67.2,186.4,65.6z"/>
			</g>
			<path class="head-st6" d="M154.1,159.4c12.7,1.2,25.6,2.2,38.6,2.7c8.7,0.3,17.5,0.6,26.3,0.5c8.1-19.8,16.5-53,13.2-65.5
				C226.6,138.9,185.4,157.1,154.1,159.4z"/>
			<path class="head-st5" d="M255.3,88.7c-5.4-4.1-11.7-7.7-19-10.9c-1.2-0.5-2.4-1-3.7-1.5c-2.4-1-4.9-1.9-7.5-2.7
				c-3.8-1.3-7.9-2.4-12.2-3.5c-3.2-0.8-6.6-1.5-10-2.1c-5.2-1-10.7-1.8-16.4-2.4c-1.4,0-2.7,0-4.1,0c-1.3,0-2.6,0.1-3.9,0.1
				c-0.1,0-0.2,0-0.3,0c-0.1,0-0.2,0-0.3,0c41.4,4.2,52.9,16.9,53.4,29.3c0,0,0.4,5,1.5,8.6c0.9,2.7-4.5,36.6-13.8,59
				c7.4,0,14.8-0.3,22.2-0.8c10.6-0.8,21.3-2.2,31.8-4.5c0,0,0-0.1,0-0.1c0.1-0.4,0.3-0.7,0.4-1.1c0.3-0.9,0.7-1.7,1-2.6
				c0.1-0.3,0.2-0.6,0.3-0.9c0.4-1.1,0.8-2.3,1.1-3.4c0,0,0,0,0,0c0.3-1.3,0.7-2.7,1-4c0.2-1.1,0.5-2.2,0.6-3.3c0-0.1,0-0.3,0.1-0.4
				c0.2-1,0.3-1.9,0.4-2.8c0-0.2,0.1-0.4,0.1-0.6c0.1-0.9,0.2-1.7,0.2-2.6c0-0.2,0-0.5,0-0.7c0-1.1,0.1-2.1,0.1-3.1v0
				c0,0,0-0.1,0-0.1C278.1,115.1,270.7,100.4,255.3,88.7z"/>
			<path class="head-st6" d="M256.1,103.9c-16.2-2.2-21.8-5.6-23.4-8l0.5,22.4l-17.4,44.2c8.5,0,17-0.2,25.5-0.8
				c10.6-0.8,21.3-2.2,31.8-4.5c3.6-8.9,5.4-17.6,5.3-25.8c-0.2-11.9-4.1-22.9-12.2-32.5C262.6,100,261.8,103.8,256.1,103.9z"/>
			<g>
				<path class="head-st1" d="M232.8,99.1c-0.9,0.1-1.6,0.9-1.5,1.8c0,0.7,0,1.5,0,2.3c0,2.7-0.3,5.7-0.9,9.1c-0.1,0.9,0.4,1.7,1.3,1.8
					c0.1,0,0.2,0,0.2,0c0.8,0,1.5-0.6,1.6-1.4c0.6-3.5,0.9-6.8,0.9-9.6c0-0.9,0-1.7,0-2.5C234.5,99.6,233.7,99,232.8,99.1z"/>
				<path class="head-st1" d="M214,73.8c-3-1.7-6.4-3.4-10-4.9c-0.8-0.3-1.7,0-2.1,0.8c-0.4,0.8-0.1,1.7,0.7,2c3.5,1.5,6.8,3.1,9.7,4.8
					c0.2,0.1,0.5,0.2,0.8,0.2c0.5,0,1.1-0.3,1.4-0.8C214.9,75.2,214.7,74.2,214,73.8z"/>
				<path class="head-st1" d="M223.3,80.2c-0.7-0.5-1.7-0.4-2.2,0.2c-0.6,0.7-0.5,1.7,0.1,2.2c3,2.6,5.4,5.3,7.1,8
					c0.3,0.5,0.8,0.7,1.3,0.7c0.3,0,0.6-0.1,0.8-0.3c0.8-0.5,1-1.5,0.6-2.2C229.2,85.9,226.6,83,223.3,80.2z"/>
				<path class="head-st1" d="M229.9,122.6c-0.9-0.2-1.8,0.4-2,1.3c-0.9,3.6-2.1,7.5-3.4,11.6c-0.3,0.9,0.2,1.8,1,2.1
					c0.2,0,0.3,0.1,0.5,0.1c0.7,0,1.4-0.5,1.6-1.2c1.3-4.2,2.5-8.2,3.5-11.8C231.3,123.7,230.8,122.8,229.9,122.6z"/>
				<path class="head-st1" d="M222.5,146c-0.9-0.3-1.8,0.2-2.1,1.1c-1.4,3.8-2.9,7.7-4.5,11.6c-0.4,0.9,0,1.9,0.9,2.3
					c0.2,0.1,0.4,0.1,0.6,0.1c0.7,0,1.3-0.4,1.6-1.1c1.6-4,3.1-8,4.6-11.8C223.8,147.3,223.4,146.3,222.5,146z"/>
			</g>
		</g>
		<g class="head-st7">
			<path class="head-st8" d="M95.9,100.6c-1.6,2.8-2.8,5.8-3.8,8.7c-1.6,7.7-2.8,15.8-3.3,23.1c0.1,6.5-1.1,12.7-0.2,18.1
				c2,0.3,4,0.6,6,0.9c12.3-1.3,35.2,3.7,51.2,7.1C120.5,151.2,93.9,129.8,95.9,100.6z"/>
		</g>
		<path class="head-st1" d="M164.5,65c11.1,9.1,34.4,0.9,34.4,0.9C195.5,51.8,169.3,56.4,164.5,65z"/>
	</g>
	<g>
		<path class="head-st0" d="M133.6,163.7l41.4,4l1.5-6.5c-0.4-0.6-0.6-1.5-0.4-2.2c0.2-0.7,0.6-1.2,1.3-1.5l1.3-5.8l-43.9-2.3
			L133.6,163.7z"/>
		<path class="head-st1" d="M131.7,165.3l44.6,4.4l2-8.7l-0.4-0.6c-0.1-0.2-0.2-0.5-0.2-0.8c0-0.1,0-0.2,0.3-0.3l0.8-0.4l2-8.7l-47.8-2.5
			L131.7,165.3z M136.3,151.4l40.1,2.1l-0.7,3c-0.7,0.6-1.2,1.3-1.4,2.2l0,0c-0.2,0.9-0.1,1.9,0.3,2.8l-1,4.3l-38.1-3.7L136.3,151.4
			z"/>
	</g>
	<polygon class="head-st9" points="140.6,151.8 140.9,163.9 168.9,165.3 173.2,155.6 142.5,152.9 	"/>
	<g>
		<path class="head-st9" d="M145.2,138c-1-1.1-25,32.3-24.7,33.7l0.4,0.5c0.7-1.2,11.2-8.3,26.1-9.1c2.7-3.1,8.5-3.6,14.1-2.7h6.7
			C159.3,147.7,146.2,137.7,145.2,138z"/>
		<g>
			<path class="head-st10" d="M173.3,160.3c-2.4-1.7-3.5-3.2-5.9-4.9c-0.3-0.2-0.6-0.4-0.9-0.6c-0.1,0-0.1,0-0.2,0l-31,4.6l2,2.4
				l36.1,1.3C173.4,163,173.1,161.5,173.3,160.3z"/>
			<g>
				<path d="M156,121.7c-3.7-5-7.7-9.2-12.4-12.2c-4.7-3.1-10.2-4.8-16.4-4.6c-6.2,0.2-12.9,2.6-19.1,6.9
					c-6.1,4.3-11.6,10.3-15.8,17.1c-2.1,3.4-4,7-5.5,10.7c-1.5,3.7-3,7.1-4.9,10.6c-1.9,3.5-4.1,6.8-6.7,9.8c-1.3,1.5-2.6,2.9-4,4.2
					c-1.4,1.2-3,2.5-4.2,3.2c-1.3,0.7-2.5,1.5-3.8,2.3c0.8,0.8,1.6,1.5,2.3,2.3c4.8,4.7,10.3,7.8,16.3,9.9c6,2,14.7,4.3,21.4,2.9
					c3.3-0.7,6.6-1.9,9.7-3.3c3.1-1.5,6-3.2,8.6-5c5.3-3.6,8.7-8.3,12.6-12c2.7-1.5,5.4-2.8,8.2-3.5c2.8-0.8,4.6-2.1,7.6-2
					c2.9,0.1,6,0.8,9.1,2.2c0.5,0.2,0.9,0.4,1.4,0.7c0.4,0.1,0.7,0.1,1.1,0.2c-0.9-0.5-1.7-1-2.6-1.4c-3.2-1.6-6.3-2.4-9.4-2.7
					c-3.1-0.3-6.1-0.1-9,0.6c-3,0.7-5.8,1.9-8.6,3.4c0,0,0,0-0.1,0c0,0,0,0-0.1,0.1c-4,3.5-8.5,7.1-13.6,10.4c-5.1,3.2-11,6-17,7
					c-6.1,1.1-12.2,0.3-17.7-1.8c-4.7-1.8-9.1-4.5-12.9-8.1c6-4.8,10.9-11.6,14.4-18c2.1-3.8,3.8-7.8,5.3-11.3
					c1.5-3.5,3.2-6.9,5.2-10.1c3.9-6.4,8.9-11.9,14.5-15.9c5.6-4,11.7-6.3,17.5-6.7c11.7-0.8,20.9,5.9,28.3,15.1
					c3.7,4.7,7,10.4,10.2,16.4c3.1,6,6.2,12.5,8.3,18.1c-1.9-5.5-4.8-12.1-7.9-18.3C162.9,132.7,159.6,126.7,156,121.7z"/>
			</g>
			<path class="head-st1" d="M69.1,169.5c0-0.1-0.1-0.2-0.2-0.3c0,0,0,0,0,0l-1.3,2.5c0.2-0.1,0.6-0.3,0.7-0.3l0.3-0.2
				c0.2-0.1,0.4-0.3,0.6-0.4c0.2-0.2,0.5-0.3,0.7-0.5c-0.1-0.1-0.1-0.1-0.2-0.2C69.5,169.9,69.3,169.7,69.1,169.5z"/>
			<path class="head-st1" d="M173.6,162.2l0.6-0.6c-0.2,0-0.5,0-0.7,0C173.5,161.8,173.6,162,173.6,162.2z"/>
			<path class="head-st1" d="M172.4,151.6c-1.1-3.4-2.5-6.7-4-9.9c-1.5-3.2-3.1-6.4-4.9-9.5c-1.7-3.1-3.5-6.2-5.5-9.2
				c-3.8-6.1-9.1-11.7-15.7-15.3c-3.3-1.8-7-2.9-10.9-3.3c-3.8-0.4-7.7,0-11.3,1c-7.3,2-13.7,6.2-19.1,11.2c-5.4,5-9.8,11-13,17.7
				c-0.4,0.8-0.8,1.7-1.1,2.5l-0.5,1.3l-0.5,1.3c-0.3,0.9-0.6,1.7-0.9,2.4l-1,2.3c-1.4,3.1-3,6.1-4.8,9.1c-1.8,2.9-3.8,5.7-6,8.2
				c-1.1,1.3-2.3,2.5-3.5,3.6c-0.6,0.6-1.3,1.1-1.9,1.6c-0.3,0.2-0.7,0.5-1,0.7c-0.2,0.1-0.3,0.2-0.5,0.3l-0.2,0.1
				c-0.1,0.1,0,0,0.1,0l-1.3,2.5c0.1,0.2,0.1,0.4,0.2,0.6c0.1,0.2,0.2,0.4,0.3,0.5l0.5,0.7c0.3,0.4,0.6,0.8,1,1
				c0.6,0.6,1.3,1.2,2,1.7c1.3,1,2.7,1.9,4.2,2.7c2.9,1.6,5.9,2.8,9,3.7c6.2,1.9,12.8,2.3,19.2,1.4c6.4-1,12.4-3.5,17.7-7
				c5.3-3.5,9.8-7.9,13.7-12.8c-4.4,4.5-9.2,8.4-14.5,11.4c-2.7,1.5-5.4,2.8-8.4,3.7c-2.9,0.9-5.9,1.6-8.9,1.9
				c-6,0.6-12.1-0.2-17.7-2.1c-2.8-0.9-5.6-2.2-8.1-3.7c-1.3-0.8-2.5-1.6-3.6-2.5c-0.5-0.4-0.9-0.8-1.4-1.2
				c-0.2,0.2-0.4,0.3-0.7,0.5c-0.2,0.1-0.4,0.3-0.6,0.4l-0.3,0.2c0,0-0.4,0.2-0.7,0.3l1.3-2.5c0,0,0,0,0,0c0,0,0,0,0,0
				c-0.1-0.1,0,0,0,0c0,0,0,0,0,0c0.1,0.1,0.1,0.2,0.2,0.3c0.2,0.2,0.3,0.4,0.6,0.7c0.1,0.1,0.1,0.1,0.2,0.2
				c0.2-0.1,0.3-0.2,0.5-0.4c0.7-0.6,1.5-1.2,2.2-1.8c1.4-1.2,2.7-2.5,4-3.9c2.5-2.7,4.7-5.6,6.7-8.7c2-3.1,3.7-6.3,5.2-9.6l1.1-2.5
				c0.4-0.9,0.7-1.7,1-2.5l0.4-1.2l0.5-1.2c0.3-0.8,0.7-1.5,1.1-2.3c1.5-3,3.3-5.9,5.3-8.6c2-2.7,4.2-5.3,6.7-7.6
				c4.9-4.6,10.6-8.4,17-10.2c3.1-0.9,6.4-1.3,9.6-1c3.2,0.3,6.4,1.2,9.3,2.6c2.9,1.5,5.7,3.4,8.2,5.7c1.2,1.2,2.4,2.4,3.5,3.7
				l0.8,1c0.3,0.3,0.6,0.6,0.8,1l1.5,2.1c4,5.7,7.8,11.6,11,17.8c1.6,3.1,3.2,6.2,4.5,9.5c1.2,3,2.3,6.2,2.9,9.4c0.2,0,0.5,0,0.7,0
				l-0.6,0.6c0-0.2-0.1-0.4-0.1-0.6c-4,0.1-8,0.3-11.9,0.5c4.2,0.2,8.4,0.4,12.6,0.6l0.6,0l-0.1-0.6
				C174.4,158.5,173.5,155,172.4,151.6z"/>
			<path class="head-st11" d="M87.8,141.2c-8.2,21.1-20.6,28.4-21,28.5c1,4.3,34.9,27.9,65.6-7c12.3-6.6,21.5-4.8,28.5-0.8
				c0.2,0,0.4,0.1,0.6,0.1h12.6c-0.9-7.7-6.3-21.7-19.4-40.9C129.4,88.5,95.8,117,87.8,141.2z"/>
			<path class="head-st12" d="M87.8,141.2c-7.1,17.9-16.7,25.8-20,27.9c11.4,2.1,23.3,2.6,32.4-5.1c10.9-9.3,18.2-21.8,30-25.3
				c12.5-3.6,24.3,2.8,34.1,11.1c3.1,2.7,6.3,5.7,9.4,9c-2-8-7.5-20.9-18.9-37.6C129.4,88.5,95.8,117,87.8,141.2z"/>
			<path class="head-st13" d="M135.3,154.8c-9.6,6.8-19.9,13.1-32.6,16.2c-11.7,3.1-21.4,0.3-33.3,1.2c0.3,0.2,0.5,0.5,0.8,0.7
				c0,0,0,0,0.1,0.1c0.3,0.2,0.6,0.5,0.9,0.7c0,0,0.1,0.1,0.1,0.1c0.7,0.5,1.4,1,2.2,1.5c0.1,0,0.1,0.1,0.2,0.1
				c0.4,0.2,0.8,0.5,1.2,0.7c0.1,0,0.1,0.1,0.2,0.1c0.4,0.2,0.8,0.5,1.3,0.7c0,0,0.1,0,0.1,0.1c0.4,0.2,0.9,0.5,1.3,0.7
				c0.1,0,0.1,0.1,0.2,0.1c0.5,0.2,0.9,0.4,1.4,0.7c0.1,0,0.2,0.1,0.3,0.1c0.5,0.2,1,0.4,1.5,0.6c0.1,0,0.1,0,0.2,0.1
				c0.5,0.2,1,0.4,1.5,0.5c0.1,0,0.2,0.1,0.2,0.1c0.5,0.2,1,0.3,1.6,0.5c0.1,0,0.2,0.1,0.4,0.1c0.5,0.2,1.1,0.3,1.6,0.4
				c0.1,0,0.2,0,0.3,0.1c0.5,0.1,1.1,0.2,1.6,0.3c0.1,0,0.1,0,0.2,0c0.6,0.1,1.2,0.2,1.7,0.2c0.1,0,0.3,0,0.4,0
				c0.6,0.1,1.2,0.1,1.8,0.1c0.1,0,0.2,0,0.4,0c0.6,0,1.2,0,1.8,0c0,0,0.1,0,0.1,0c0.6,0,1.2,0,1.9-0.1c0.1,0,0.3,0,0.4,0
				c0.6,0,1.2-0.1,1.9-0.2c0.1,0,0.3,0,0.4-0.1c0.6-0.1,1.3-0.2,1.9-0.3c0,0,0.1,0,0.1,0c0.6-0.1,1.3-0.3,1.9-0.4
				c0.1,0,0.2-0.1,0.4-0.1c0.6-0.2,1.3-0.4,1.9-0.6c0.1,0,0.3-0.1,0.4-0.1c0.7-0.2,1.3-0.4,2-0.7c0.1,0,0.1-0.1,0.2-0.1
				c0.6-0.3,1.3-0.5,1.9-0.8c0.1,0,0.2-0.1,0.3-0.1c0.7-0.3,1.3-0.6,2-1c0.1-0.1,0.3-0.1,0.4-0.2c0.7-0.4,1.4-0.7,2.1-1.1
				c0.1-0.1,0.2-0.1,0.3-0.2c0.7-0.4,1.3-0.8,2-1.2c0.1-0.1,0.2-0.1,0.2-0.1c0.7-0.4,1.4-0.9,2.1-1.4c0.1-0.1,0.3-0.2,0.4-0.3
				c0.7-0.5,1.4-1,2.1-1.5c0.1-0.1,0.2-0.2,0.3-0.3c0.7-0.5,1.4-1.1,2.2-1.6c0.1,0,0.1-0.1,0.1-0.1c0.7-0.6,1.5-1.2,2.2-1.8
				c0.1-0.1,0.3-0.2,0.4-0.3c0.7-0.6,1.5-1.2,2.2-1.9c0.1-0.1,0.3-0.2,0.4-0.3c0.8-0.7,1.6-1.3,2.4-2.1c12.3-6.6,21.5-4.8,28.5-0.8
				c0.2,0,0.4,0.1,0.6,0.1h6.1c-0.8-0.6-1.5-1.1-1.8-1.5C154.7,148.2,145.6,147.5,135.3,154.8z"/>
		</g>
		<path class="head-st14" d="M95.4,130.4c-0.4,0.3-0.8,0.6-1.2,0.9C94.4,131.6,94.8,131.2,95.4,130.4z"/>
		<path class="head-st14" d="M145.1,113.4c-32.9-12.7-45.7,11.8-49.8,17.1C121.2,111.6,154,119.3,145.1,113.4z"/>
		<path class="head-st11" d="M158.6,138.4c-0.3-0.2-0.5-0.3-0.8-0.5C158.4,138.4,158.7,138.6,158.6,138.4z"/>
		<path class="head-st11" d="M117.4,148.7c-0.2,0.3-0.3,0.4-0.3,0.5C117.2,149,117.3,148.9,117.4,148.7z"/>
		<path class="head-st11" d="M117.4,148.7c2.7-3.4,23.4-22.2,40.5-10.8C154,134.6,136,118.5,117.4,148.7z"/>
		<path class="head-st14" d="M107,145.5c0.1-0.1,0.1-0.1,0.1-0.1C107.1,145.4,107.1,145.5,107,145.5z"/>
		<path class="head-st14" d="M80.6,159.4c0,0.3,11.3,8.5,26.4-13.9C105.8,146.9,91.7,157.7,80.6,159.4z"/>
		<path class="head-st14" d="M119.5,132.7c0.1-0.1,0.2-0.2,0.3-0.4C119.6,132.5,119.5,132.6,119.5,132.7z"/>
		<path class="head-st14" d="M119.8,132.3c2.2-1.9,16.7-9.3,27.1-8C146.2,124,133.8,115.4,119.8,132.3z"/>
		<path class="head-st14" d="M146.9,124.3C146.9,124.3,146.9,124.3,146.9,124.3C146.9,124.3,146.9,124.3,146.9,124.3z"/>
	</g>
</g>
</svg>
