<?xml version="1.0" encoding="utf-8"?>
<!-- Generator: Adobe Illustrator 26.0.3, SVG Export Plug-In . SVG Version: 6.00 Build 0)  -->
<svg version="1.1" id="Layer_1" xmlns="http://www.w3.org/2000/svg" xmlns:xlink="http://www.w3.org/1999/xlink" x="0px" y="0px"
	 viewBox="0 0 384 400" style="enable-background:new 0 0 384 400;" xml:space="preserve">
<style type="text/css">
	.head-st0{fill:#000F0F;}
	.head-st1{fill:#4A1D1F;}
	.head-st2{fill:#AB2C2F;}
	.head-st3{opacity:0.61;}
	.head-st4{fill:#E25659;}
	.head-st5{opacity:0.18;fill:#1B1043;}
	.head-st6{opacity:0.2;fill:#1B1043;}
	.head-st7{fill:#000202;}
	.head-st8{fill:#CC3539;}
	.head-st9{opacity:0.18;}
	.head-st10{fill:#1B1043;}
</style>
<g>
	<polygon points="138.3,139.2 141.8,128.5 131.8,143.4 	"/>
	<path class="head-st0" d="M240.9,71.1c-35.4-10.3-64.7-12-89.6-5.2c-21.8,6-37.3,17.8-51.1,28.1c-6.4,4.8-12.4,9.4-18.6,13.1
		c-10.7,6.4-15.9,13.2-15.5,20.2c0.5,10.1,12.3,16.8,17.7,19.4c0.6,0.5,1.5,1,2.8,1.7c0.7,0.4,1.6,1,2.2,1.3
		c0.5,2.6,1.6,4.4,3.3,5.4c3.4,2.1,7.9,0.6,14.8-1.7c12.4-4.1,33.1-10.9,64-1.8c23.3,6.9,44.2,9.8,61.9,9.8
		c26.8,0,46.3-6.5,55.8-15.5c6.2-6.2,7-13.8,2.2-21.6c7.8-4.9,11.5-10.7,10.8-16.9C300.2,94.7,279.8,82.4,240.9,71.1z M286,121.4
		l-2.5,1.4l1.7,2.3c5,6.6,4.9,12.3-0.1,17.4c-15.2,14.4-58.8,20.6-112.8,4.5c-11.8-3.5-22.2-4.8-31.3-4.8c-15.8,0-27.5,3.9-35.7,6.6
		c-4.7,1.6-9.2,3-10.6,2.2c-0.5-0.3-0.9-1.3-1.1-2.7c-0.2-1.6-1.6-2.4-4.5-4.1c-0.8-0.5-2-1.2-2.3-1.4l-0.3-0.2l-0.3-0.2
		c-7.1-3.3-14.8-9.1-15.1-15.2c-0.3-4.9,4.3-10.4,13.1-15.6c6.5-3.9,12.6-8.5,19.1-13.4c27.7-20.9,59.1-44.7,136.2-22.1
		c48.2,14.1,56.5,26.2,57.1,32.2C297.3,113.9,291.2,118.5,286,121.4z"/>
	<g>
		<g>
			<path d="M225.6,137.5c-5-0.5-12-1.9-20.1-3.7c-25.5-5.4-64-13.6-94.6-0.1c-0.7,0.3-17.3,7.2-31.8,25.9c-1.6,1.4-2.2,3.1-1.7,4.6
				l0.1,9.9l0.5,0.7c1.1,1.4,3.2,1.9,6.8,1.8c2.2-0.1,4.7-0.6,7.6-1.3c8.9-2,22.4-5.1,43.7,3.3c14.2,5.6,26.5,9.1,39.1,9.1
				c13.4,0,26.9-4,43-13.7c22.4-13.5,45-30.9,53.9-38.2l0.6-0.5l2.7-12.7l-4.6,2.7C270.5,125.4,246.1,139.4,225.6,137.5z
				 M268.3,132.7c-4.1,3.3-27.5,22-52.7,37.3c-29.4,17.8-50,15.2-77.8,4.2c-11.5-4.5-20.8-5.9-28.5-5.9c-7.5,0-13.3,1.3-18,2.4
				c-2.6,0.6-4.9,1.1-6.7,1.2c-1.2,0-2,0-2.5-0.1l0-8.4c0.1-0.1,0.1-0.1,0.2-0.2l0.2-0.2l0.2-0.2c13.8-17.8,29.9-24.5,30.1-24.6
				c29.3-12.9,66.9-4.9,91.8,0.4c8.2,1.7,15.3,3.3,20.6,3.7c16.7,1.5,35-6.3,43.4-10.4L268.3,132.7z"/>
			<path class="head-st1" d="M225.4,141.1c-20.4-1.9-95.8,4.2-138.3,19.6c0,1.1-7,2.4-7.3,3l0.1,9.6c0.5,0.6,1.8,1,4.9,0.9
				c8.5-0.3,23.5-9.1,52.2,2.2c28.7,11.3,49.9,13.7,79.9-4.4c24.6-14.9,47.9-33.3,53.6-38l0.9-6.5
				C265.9,129,242.9,142.7,225.4,141.1z"/>
			<path class="head-st2" d="M225.4,139.8c-21.5-2-74.1-21.4-113.6-3.9c0,0-16.6,6.8-31,25.3c0,0-4.6,3.7,3.9,3.4
				c8.5-0.3,23.5-9.1,52.2,2.2c28.7,11.3,49.9,13.7,79.9-4.4c30-18.2,55.1-35.2,55.1-35.2S246.9,141.8,225.4,139.8z"/>
			<g class="head-st3">
				<path class="head-st4" d="M98.2,156.8c-8.7-0.4-4-6.5-4-6.5c11.3-13.3,23.8-14.7,29.1-18.4c-4,1.1-7.9,2.4-11.6,4
					c0,0-16.6,6.8-31,25.3c0,0-4.6,3.7,3.9,3.4c8.5-0.3,23.5-9.1,52.2,2.2c18.5,7.3,28.8,9.6,48,7c-14.2-1.8-19.5-4.4-33.2-10.8
					C122.3,149.6,106.9,157.2,98.2,156.8z"/>
			</g>
		</g>
		<path class="head-st5" d="M210.7,137.3c3.4,7.1,4.9,7.3,4.5,15.4c-0.2,4.2-1.1,8.2-2.4,12.1c1.1-0.6,2.3-1.2,3.4-1.8
			c24.3-13.5,55.9-35.6,55.9-35.6C252.6,134.6,223.4,139.4,210.7,137.3z"/>
	</g>
	<path class="head-st2" d="M258.6,132C258.6,132,258.6,132,258.6,132c0,0-0.1,0-0.2,0C258.5,132,258.5,132,258.6,132z"/>
	<path class="head-st2" d="M240.2,73.5C143.8,45.3,117,88.8,82.9,109.3c-33.2,19.9,1.5,35,3.3,35.8c0,0,0.1,0,0.1,0l0.2,0
		c7.2,8.4,36.1-10.3,85,4.3c54.6,16.2,99,10.2,115.2-5.1c7.1-7.1,4.9-14.6,0.5-20.5C308.1,112.8,309.1,93.6,240.2,73.5z M258.6,132
		c-0.1,0-0.1,0-0.2,0c0,0-0.1,0-0.1,0c0,0,0,0,0,0c0,0,0,0,0.1,0C258.5,132,258.6,132,258.6,132C258.6,132,258.6,132,258.6,132z
		 M260.3,131.8C260.4,131.8,260.4,131.8,260.3,131.8c0.2,0,0.2,0,0.3,0c0.1,0,0.1,0,0.2,0C260.7,131.7,260.5,131.7,260.3,131.8z
		 M262.4,131.4c0.2,0,0.3-0.1,0.5-0.1C262.7,131.4,262.6,131.4,262.4,131.4z M264.5,131.1c0.1,0,0.3-0.1,0.4-0.1
		C264.8,131,264.6,131.1,264.5,131.1z M266.6,130.7c0.1,0,0.2,0,0.3-0.1C266.8,130.6,266.7,130.6,266.6,130.7z M274.8,128.6
		c0.1,0,0.1,0,0.2-0.1C275,128.6,274.9,128.6,274.8,128.6z M276.7,128c0.1,0,0.2-0.1,0.2-0.1C276.9,128,276.8,128,276.7,128z
		 M278.6,127.4c0.1,0,0.1,0,0.2-0.1C278.7,127.4,278.7,127.4,278.6,127.4z M280.5,126.7C280.5,126.7,280.5,126.7,280.5,126.7
		C280.5,126.7,280.5,126.7,280.5,126.7z"/>
	<path class="head-st6" d="M281.9,116.6c-5.6,2.3-11.4,4.3-17.3,5.8c-9.6,2.5-8.5,2.9-18.4,3.4c-10.1,0.5-20.3,1-30.4,1.3
		c-10.2,0.2-20.4,0.2-30.5-0.2c-10.1-0.4-20-1.5-30.1-2.5c-5-0.5-10-0.9-15.1-0.9c-5,0-9.9,0.5-14.9,0.8c-7.2,0.5-14.4,1.1-21.7,1.4
		c0,0,0,0.1,0,0.1c-1.5,3.2-5.6,4.4-8.8,3.4c-1-0.3-1.9-0.8-2.7-1.5c-2.3,1.4-5,2.1-7.6,1.8c-2.2-0.3-4.4-1.1-5.9-2.8
		c-0.2-0.2-0.4-0.5-0.6-0.7c-1.5,0.6-3.2,0.7-4.8,0.1c-1.6-0.6-2.9-1.6-4-2.9c-4.3,13.1,17.1,21.9,17.1,21.9l0.2,0
		c7.2,8.4,36.1-10.3,85,4.3c54.6,16.2,99,10.2,115.2-5.1c7.1-7.1,4.9-14.6,0.5-20.5c-8.3,4.3-19.6,7.3-31,8.6
		c22.8-2.5,45-12.1,42.1-25.1C293.7,111.5,287.7,114.2,281.9,116.6z"/>
	<path class="head-st7" d="M296.7,99.5c-1.7-2.1-3.8-3.8-5.9-5.4c-2.1-1.6-4.3-3-6.6-4.3c-4.6-2.6-9.3-4.8-14.2-6.8
		c-9.7-3.9-19.7-6.9-29.8-9.5c9.9,3.3,19.7,6.8,29.2,11c4.7,2.1,9.4,4.3,13.8,7c2.2,1.3,4.4,2.7,6.4,4.3c2,1.6,4,3.2,5.5,5.2
		c1.6,1.9,2.9,4.1,3.4,6.4c0.5,2.3,0,4.8-1.2,6.8c-1.2,2.1-3,3.9-5,5.5c-2,1.5-4.2,2.9-6.5,4c-4.6,2.3-9.5,4.1-14.5,5.5
		c-5,1.4-10.1,2.4-15.2,3.2c5.2-0.3,10.4-1.1,15.5-2.3c5.1-1.2,10.1-2.8,14.9-5c2.4-1.1,4.7-2.4,6.9-4c2.1-1.6,4.1-3.5,5.6-5.9
		c1.5-2.4,2.1-5.4,1.5-8.2C299.9,104.1,298.4,101.6,296.7,99.5z"/>
	<path class="head-st8" d="M264,84.9c-4-3.3-8.9-5.1-13.8-6.6c-14.8-4.4-30.1-6-45.4-6.4c-14.4-0.4-29.4-0.8-43.7,0.8
		c-8,0.9-15.7,4.2-22.8,8.3c-9.6,5.4-18.5,12.2-28.3,17c-3.7,1.8-7.6,3.5-10,7c-0.4,0.6-0.8,1.4-0.7,2.1c0.1,1,0.9,1.8,1.8,2.3
		c3.9,2.5,8.6,2.9,13.1,3c24.1,0.9,48.7-1.7,71.9,5.3c-0.6,1.6,0.3,3.5,1.7,4.4c1.3,0.9,3,1.2,4.6,1.4c12.6,1.5,25.3,1.4,38,1.3
		c8.8-0.1,18.2-0.3,25.7-5.4c1.7-1.2,3.5-2.9,3.4-5.2c-0.1-2.9-3.1-4.5-5.6-5.4c-14.1-4.7-29.2-4.7-43.4-8.9c-2.3-0.7-4.8-1.7-5.8-4
		c-1-2.3,0-5.2,1.8-6.9c1.8-1.7,4.2-2.4,6.5-2.8c4.9-0.9,10-0.9,14.9,0.2c5.7,1.2,11.2,3.8,16.8,5.5s11.8,2.6,17.3,0.4
		c2.3-0.9,4.8-3.3,3.8-5.8C265.2,86,264.6,85.4,264,84.9z"/>
	<g class="head-st9">
		<path class="head-st10" d="M132.1,109.7c2.8,2.2,24.8-12.2,20.3-16.1C152.5,93.6,129.3,107.5,132.1,109.7z"/>
		<path class="head-st10" d="M142.4,114.4c2.8,2.2,24.8-12.2,20.3-16.1C162.8,98.3,139.6,112.2,142.4,114.4z"/>
		<path class="head-st10" d="M135,97c-0.6,3.5,29.5,20.4,30.8,14.6C165.8,111.7,135.6,93.5,135,97z"/>
	</g>
	<path class="head-st0" d="M244.8,159.7L244.8,159.7C244.8,159.7,244.8,159.7,244.8,159.7C244.8,159.7,244.8,159.7,244.8,159.7z"/>
	<path class="head-st0" d="M244.8,159.7L244.8,159.7C244.8,159.7,244.8,159.7,244.8,159.7c-12.9-0.8-25.7-3-38.2-6.1
		c-12.6-3-25.2-6.3-38.1-8.4c-12.9-2.1-26-2.8-39-2.5c-6.5,0.1-13,0.6-19.5,1.3c-3.2,0.4-6.5,0.9-9.7,1.5c-1.6,0.3-3.2,0.6-4.8,1.1
		c-0.8,0.2-1.6,0.5-2.3,0.8c-0.8,0.3-1.5,0.6-2.1,1.2c0.7-0.5,1.4-0.7,2.2-0.9c0.8-0.2,1.6-0.4,2.4-0.5c1.6-0.3,3.2-0.6,4.8-0.8
		c3.2-0.4,6.4-0.7,9.7-0.8c6.5-0.4,12.9-0.5,19.4-0.4c6.5,0.1,12.9,0.3,19.3,0.8c6.4,0.5,12.8,1.2,19.2,2.3c12.7,2.1,25.3,5.3,38,8
		c6.4,1.3,12.8,2.5,19.3,3.2c6.5,0.8,13,1.1,19.5,1.1h0l0,0c3.3-0.4,6.7-0.7,10-1.2C251.5,159.4,248.1,159.6,244.8,159.7
		C244.8,159.7,244.8,159.7,244.8,159.7z"/>
	<path class="head-st2" d="M255.8,140.6c-12.6,1.9-22.6,2.9-25,6.5c-5.9,9.1,49.1,7.5,54-8.7C289.8,122.3,268.5,138.7,255.8,140.6z"/>
</g>
</svg>
