<?xml version="1.0" encoding="utf-8"?>
<!-- Generator: Adobe Illustrator 26.0.3, SVG Export Plug-In . SVG Version: 6.00 Build 0)  -->
<svg version="1.1" id="Layer_1" xmlns="http://www.w3.org/2000/svg" xmlns:xlink="http://www.w3.org/1999/xlink" x="0px" y="0px"
	 viewBox="0 0 384 400" style="enable-background:new 0 0 384 400;" xml:space="preserve">
<style type="text/css">
	.head-st0{fill:#F05659;}
	.head-st1{fill:#87383A;}
	.head-st2{fill:#FFFFFF;}
	.head-st3{opacity:0.16;}
	.head-st4{opacity:0.61;fill:#FFF3C4;}
	.head-st5{fill:#301415;}
	.head-st6{opacity:0.18;fill:#573314;}
	.head-st7{fill:#F4E8DF;}
</style>
<g>
	<g>
		<path d="M308,50.2c-14.9,0-26.9,12.1-26.9,26.9c0,14.9,12.1,26.9,26.9,26.9S335,92,335,77.1C335,62.3,322.9,50.2,308,50.2z
			 M308,99.1c-12.1,0-21.9-9.8-21.9-21.9s9.8-21.9,21.9-21.9S330,65,330,77.1S320.1,99.1,308,99.1z"/>
		<g>
			<path d="M308,50.2c-14.9,0-26.9,12.1-26.9,26.9c0,14.9,12.1,26.9,26.9,26.9S335,92,335,77.1C335,62.3,322.9,50.2,308,50.2z
				 M308,99.1c-12.1,0-21.9-9.8-21.9-21.9s9.8-21.9,21.9-21.9S330,65,330,77.1S320.1,99.1,308,99.1z"/>
			<circle class="head-st0" cx="308" cy="77.1" r="24.4"/>
			<path class="head-st1" d="M321.1,83.6c-7.7-1-15.5-6.2-15-15c0.2-3.8,0.2-7.4-0.3-11.1c-0.2-1.6,0-3.2,0.5-4.7
				c-12.7,0.9-22.7,11.4-22.7,24.4c0,13.5,10.9,24.4,24.4,24.4c11.7,0,21.4-8.2,23.8-19.1C328.3,83.6,324.7,84.1,321.1,83.6z"/>
		</g>
	</g>
	<path d="M268.4,77.6c-0.6-1.1-1.3-2.9-0.9-4.5c0.3-1.2,1.4-2.3,3.1-3.1c6.6-3.1,7.5-15.1,7.3-24c1.5,2.2,3.3,4.6,5.1,7
		c10.7,14.3,13.8,15.5,15.8,15.5c1.1,0,2.1-0.5,2.8-1.4c0.5-0.7,1.7-2.4,0.2-11.5c-2.4-14.2-10.3-38.1-19.3-44.5
		c-6-4.2-16.6-0.9-24.4,2.6c-12.4,5.6-30,17.8-31.3,26.3c-0.5,0.5-3.5,2.5-19.3,3.9c-11.1,1-25.3,1.5-39,2
		c-24.6,0.9-45.8,1.7-52.1,5c-13.5,7-44.3,55.2-45.6,57.2l-2.3,3.6l229.9,15.6l1.9,0.1l0.6-1.8c0.2-0.7,6-17.9-0.2-28.4
		C295.2,87.7,273.6,79.5,268.4,77.6z M296.8,122.1L77.3,107.2c10.1-15.5,32-47,41.4-51.9c5.3-2.7,28-3.6,50-4.4
		c44.2-1.6,62.2-3,63-10.1c0.5-4.6,13.7-15.8,28.4-22.5c9.1-4.1,16.3-5.2,19.5-3.1c9.1,6.4,17.8,38.2,18,47.3
		c-4.2-3.7-13.4-15.9-20.8-26.8l-5.9-8.7l1.3,10.4c1.3,10.3,1,25.9-3.7,28.1c-3.2,1.5-5.1,3.6-5.9,6.4c-1.2,4.6,1.7,8.8,2,9.3
		l0.5,0.6l0.8,0.3c7,2.4,26.2,10.4,30.5,17.7C300.4,106.5,298,117.7,296.8,122.1z"/>
	<path class="head-st2" d="M266.8,79.7c0,0-5.7-8,2.8-11.9c8.5-4,5.1-30.7,5.1-30.7s22,32.6,24.8,28.6c2.8-4-7.2-44.6-18.5-52.5
		c-11.4-8-50.6,17.1-51.7,27.3c-1.1,10.2-98.6,5.8-111.7,12.6c-13.1,6.8-44.7,56.4-44.7,56.4l225.7,15.3c0,0,5.7-16.7,0-26.3
		C292.9,88.8,266.8,79.7,266.8,79.7z"/>
	<path class="head-st3" d="M275.3,44.9c1.4-0.3,2.8-0.7,4.1-1.1c-2.8-3.9-4.7-6.8-4.7-6.8S275.2,40.4,275.3,44.9z"/>
	<path class="head-st3" d="M279.4,43.8c6.6,9.3,18.1,24.6,20.1,21.8c0.4-0.5,1.1-2.3,2-4.8c-4.9-14.4-8-7.8-8.9-22.5
		C289.5,40.4,284.9,42.3,279.4,43.8z"/>
	<path class="head-st3" d="M284.7,109.1c-13-2.5-13.3-16.9-6.1-24.5c-6.4-3-11.8-4.9-11.8-4.9s-5.7-8,2.8-11.9c5.5-2.6,6-14.6,5.7-22.8
		c-13.6,3.4-30.3,4.6-38.5,0.7c-4.3,7.2-7.3-8.3-7.6-5.2c-0.3,3-9,4.7-21.4,5.9c6.7,7,37.9,15.4,31.2,26.7
		c-11.8,19.9-120.8,3.2-132.7-6.8c-14.6,22.6-33.4,43.1-33.4,43.1l225.7,15.3c0,0,2.9,2.2,2.5-12.6
		C295.6,111.1,290.1,110.1,284.7,109.1z"/>
	<g>
		<path d="M273.2,118.9l-1.5-0.5l0,0c-61.9-21.2-151-39.1-215.3-25.7c-0.3,0-0.5,0.1-0.7,0.2l-1.7,0.3l-0.6,1.1
			c-2.6,5.1-5.3,10.1-7.9,14.8l-0.3,0.6l0,0.7c0.4,22.8,2.4,28.2,4.6,29.8c0,1.9,0.4,4.5,2,7.3c4.8,7.9,17,13,36.4,15.3l2.3,0.3
			l0.4-2.3c0.5-2.6,1-5.5,1.5-8.4c0.5-3.1,1.1-6.2,1.5-8.5c15.1-0.9,109.9-5.3,183.6,23.5l-1.7,16.9l3.3-0.6
			c0.6-0.1,14.1-2.6,27.9-13.5l0.2-0.2l0.2-0.2c7.9-9.6,13.2-19,16.3-28.5l0.6-2l-1.8-1C306.8,129.6,294.9,125.8,273.2,118.9z
			 M303.5,166.2c-8.8,6.9-17.6,10.2-22.2,11.5l1.4-13.8l-1.7-0.7C226.7,141.6,160.7,138,122.6,138c-17.9,0-29.7,0.8-31.1,0.9
			l-1.9,0.1l-0.4,1.9c-0.4,2.3-1.1,6.2-1.8,10.4c-0.4,2-0.7,4.1-1.1,6.1c-20.2-2.7-27.6-8.2-30.3-12.5c-2.2-3.5-1.2-6.3-1.2-6.4
			l-4.4-2.2c0.3-0.5,0.9-0.6,1.1-0.6c0.6,0,1.1,0.3,1.2,0.4c-0.2-0.3-2.2-3.4-2.7-25.2c2.4-4.3,4.8-8.7,7.1-13.3c0,0,0.1,0,0.1,0
			c63.4-13.2,151.4,4.5,212.7,25.5l0,0l1.7,0.5c20.5,6.5,32.2,10.2,46.4,17.8C315.2,149.7,310.4,157.9,303.5,166.2z"/>
		<g>
			<path class="head-st0" d="M55.6,95.4c-2.8,5.4-5.7,10.8-8.7,16.1c-1.4,32.2,5.6,26.2,5.6,26.2s-6.8,17.6,35.8,22.6
				c1.1-6.3,2.6-15,3.3-18.8c0,0,107.7-8,188.4,24.2l-1.5,15.4c0,0,0.3-3.9,13.7-7.6c4.8-1.3,9.6-3.3,13.7-6.1
				c6.6-8.2,12.1-17.1,15.3-27.1C244.6,98.2,126.4,81.1,55.6,95.4z"/>
			<path class="head-st1" d="M52.5,137.7c0,0-6.8,17.6,35.8,22.6c1.1-6.3,2.6-15,3.3-18.8c0,0,107.7-8,188.4,24.2l-1.5,15.4
				c0,0,0.3-3.9,13.7-7.6C298.4,171.8,262.4,114.4,52.5,137.7z"/>
			<path class="head-st4" d="M55.6,95.4c-2,3.8-3.9,7.5-6,11.2c11.3-4.2,50.6-23.2,221.3,14.2C213,100.9,120.3,81.1,55.6,95.4z"/>
			<path class="head-st5" d="M62.2,146.7c10.9,4.2,27.6,4.5,27.6,4.5l1.8-9.8C91.6,141.4,51,142.4,62.2,146.7z"/>
		</g>
		<path class="head-st6" d="M249.5,142.5c0,0,30.4,11.2,54.7,25.4c2.1-2.1,3.9-4.1,5.6-5.8c4-5.6,7.4-11.6,9.9-18
			c-9.1-5.9-30.6-15.8-49.6-19.2C274,142.8,260.3,142.8,249.5,142.5z"/>
		<path class="head-st6" d="M103.5,112.7c0,0-2.1,2-4.4,4.7c-2-1.5-4.2-3-6.4-4.4c1.3-3.6,1.5-6.7-0.9-7.1c0,0-1.8,1.8-4,4.2
			c-4-2.1-7.3-3.2-8.5-1.7c-1.2,1.4,1,4,4.5,6.8c-2.4,3.5-3.9,7-2,8.7c1.9,1.7,5.1-1.1,7.6-4.9c1.9,1.1,3.9,2.2,5.8,3.2
			c-2.2,3.4-3.6,6.7-1.8,8.4c2,1.8,5.5-1.5,8.2-5.7c3.8,1.2,6.5,1.4,6.7-0.4c0,0-1.9-1.5-4.6-3.6
			C105.6,116.9,106.1,113.1,103.5,112.7z"/>
		<g>
			<path class="head-st6" d="M238.6,134c-5.7-2.7-4.7,9.4-1.2,11.9C240.8,148.4,247.9,138.5,238.6,134z"/>
			<path class="head-st6" d="M250.7,141.2c-5.7-2.7-4.7,9.4-1.2,11.9S260,145.7,250.7,141.2z"/>
			<path class="head-st6" d="M247.7,126.1c-5.7-2.7-4.7,9.4-1.2,11.9C250,140.5,257.1,130.5,247.7,126.1z"/>
		</g>
	</g>
	<path d="M142.1,46.8l16.3,23.4l47.7-1.2l-10.7-24.8L142.1,46.8z M161,65.1l-9.6-13.8l40.8-2l6.4,14.8L161,65.1z"/>
	<polygon class="head-st7" points="146.8,49.1 159.7,67.6 202.3,66.5 193.8,46.7 	"/>
	<path d="M139.2,55.4c0,3.9,15.3,1.7,15.3-1.3C154.5,51.1,139.2,52,139.2,55.4z"/>
	<path d="M146.3,64.9c0,3.9,15.3,1.7,15.3-1.3S146.3,61.4,146.3,64.9z"/>
	<path d="M192,54.4c0,3.9,15.3,1.7,15.3-1.3C207.3,50,192,50.9,192,54.4z"/>
	<path d="M172.9,63.4c-3.3-0.1-2.7,13,1.1,13.1C178.3,76.5,176.2,63.4,172.9,63.4z"/>
	<path d="M190.2,61.4c-3.3-0.1-2.7,13,1.1,13.1C195.6,74.6,193.6,61.5,190.2,61.4z"/>
</g>
</svg>
