<?xml version="1.0" encoding="utf-8"?>
<!-- Generator: Adobe Illustrator 26.0.3, SVG Export Plug-In . SVG Version: 6.00 Build 0)  -->
<svg version="1.1" id="Layer_1" xmlns="http://www.w3.org/2000/svg" xmlns:xlink="http://www.w3.org/1999/xlink" x="0px" y="0px"
	 viewBox="0 0 384 400" style="enable-background:new 0 0 384 400;" xml:space="preserve">
<style type="text/css">
	.head-st0{fill:#515354;}
	.head-st1{opacity:0.5;fill:#808485;}
	.head-st2{fill:#363738;}
	.head-st3{fill:#333333;}
	.head-st4{fill:#828282;}
	.head-st5{fill:#4D4D4D;}
</style>
<g>
	<g>
		<path d="M71.7,157.6c-19.4,1.7-27.2,21.2-26.2,38.6c0.9,16.3,9.4,32.6,24,32.6c0.2,0,0.3,0,0.5,0c0.4,0,3,0.1,5.4,0.2l6.6,0.3
			l-0.1-2.7c-0.2-8.4,0-17.3,0.4-26.4c0.7-14.3,3.3-27.5,7.7-39.3l1.3-3.4l-3.6,0C83.8,157.5,72.8,157.5,71.7,157.6z M77.3,200
			c-0.4,8.3-0.5,16.3-0.4,24.1l-1.2-0.1c-3.2-0.2-4.9-0.3-5.6-0.3c-0.1,0-0.1,0-0.2,0c-11.7,0.3-18.6-13.8-19.4-27.9
			c-0.9-15.6,5.5-31.9,21.7-33.3c0.7,0,6.9-0.1,12,0C80.3,174,78,186.5,77.3,200z"/>
		<path class="head-st0" d="M71.9,160.1c-34.4,2.9-29,66.8-2,66.2c0.8,0,5,0.2,9.5,0.4c-0.2-8.9,0-17.8,0.4-26.6
			c0.6-13.7,3-27.2,7.9-40.1C82.8,160,72.7,160,71.9,160.1z"/>
		<path class="head-st1" d="M71.9,160.1c-8.2,0.7-14.2,4.9-18.1,10.9c10.1,0.1,20.1,0.4,30.1,0.8c1-4,2.3-7.9,3.7-11.7
			C82.8,160,72.7,160,71.9,160.1z"/>
		<path class="head-st2" d="M79.4,214.1c-9.2-0.3-18.3-0.8-27.5-1.5c3.7,8.1,9.9,13.9,18,13.7c0.8,0,5,0.2,9.5,0.4
			C79.3,222.5,79.3,218.3,79.4,214.1z"/>
		<path d="M65.5,183.5c-3.2,16.6,2.1,34.6,12.4,41.8l4,2.8l-0.1-4.9c-0.1-7.3,0.1-15.1,0.4-23c0.7-14.1,3.2-27.1,7.5-38.7l1.6-4.3
			l-4.5,1C75.9,160.8,68.1,170,65.5,183.5z M77.3,200c-0.3,5.9-0.4,11.8-0.5,17.5c-6-7.6-8.8-20.8-6.5-33c1.1-5.8,4.3-15.4,13-19.7
			C80,175.6,77.9,187.4,77.3,200z"/>
		<path class="head-st3" d="M79.4,223.3c-0.1-7.7,0.1-15.5,0.5-23.2c0.6-13.4,3-26.8,7.7-39.5C61.4,166.7,62.1,211.3,79.4,223.3z"/>
		<path d="M54.4,187.6c-1.8-1.3-8.2,0-8.2,0l0.2,4.9c0,0,6.8,0.4,8,0C55.5,192.1,56.2,188.9,54.4,187.6z"/>
		<path d="M56.5,178.2c-1.8-1.3-8.2,0-8.2,0l0.2,4.9c0,0,6.8,0.4,8,0S58.3,179.5,56.5,178.2z"/>
		<path d="M54.9,196.7c-1.8-1.3-8.2,0-8.2,0l0.2,4.9c0,0,6.8,0.4,8,0C56,201.2,56.7,198,54.9,196.7z"/>
	</g>
	<g>
		<path d="M267.5,87.5c-11.3-3.1-55.5-2.9-89.9-1.7c-34.4,1.2-77.1,3.9-84.1,7.7c-12.7,6.9-19.4,60.1-20.1,66.2l5,0.6
			c2.6-21.9,9.7-58.1,17.6-62.4c11.4-6.2,151.5-10.8,170.3-5.6c12.8,3.5,14,47.7,11.7,76.3l-15.1-0.4c-1.5-18.5-4.7-56.4-6.6-59.6
			c-0.8-1.4-1.4-2.3-24.2-3.6c-12.7-0.7-29.7-1.4-48-1.8c-31.9-0.8-71.5-1.1-78,0.8c-12.3,3.5-22.3,46.3-24.2,54.8l4.9,1.1
			c4.4-20,13.8-49.1,20.7-51.1c9.5-2.7,131.7-0.1,144.7,3c1.4,6.1,4.4,38.8,6,59.1l0.2,2.2l24.4,0.7l0.2-2.3
			C283.4,163.5,288.9,93.4,267.5,87.5z"/>
		<path class="head-st0" d="M266.8,89.9c-20-5.6-160.2-0.7-172.1,5.8C82.8,102.2,75.9,160,75.9,160l8.8,0c0,0,10.5-50.4,22-53.6
			c11.4-3.2,145.4,0.2,147.3,3.5s6.4,60.8,6.4,60.8l19.8,0.6C280.2,171.2,286.9,95.5,266.8,89.9z"/>
		<path class="head-st2" d="M253.3,104.9c-9.5,0-143.6-7.1-153-1.9C88.3,109.5,82,159.6,82,159.6l2.7,0.4c0,0,10.5-50.4,22-53.6
			c11.4-3.2,145.4,0.2,147.3,3.5c1.9,3.2,6.4,60.8,6.4,60.8l19.8,0.6c0,0,5.7-64.1-9-78.7C269.4,98,261,104.9,253.3,104.9z"/>
		<path class="head-st1" d="M267.9,93.8c-20.9-11.9-172,2.4-173.5,4.6c-1.5,2.3,159.2,3.4,159.2,3.4S272,96.2,267.9,93.8z"/>
		<path d="M265.9,123.2c-0.3,4.4,7.2,4.1,7.2-1.6S266.3,118.8,265.9,123.2z"/>
		<path d="M268.2,138.8c-0.3,4.4,7.2,4.1,7.2-1.6S268.5,134.3,268.2,138.8z"/>
		<g>
			<path d="M284.6,167.9c-1.1-0.1-17.7-0.1-18.8,0c-19.4,1.7-27.2,21.2-26.2,38.6c0.9,16.3,9.4,32.6,24,32.6c0.2,0,0.3,0,0.5,0
				c0.5,0,3,0.1,5.4,0.2c7.7,0.4,12,0.6,14.5,0.6c2,0,2.8-0.1,3.4-0.3l1.7-0.6l-2.2-70.8L284.6,167.9z M269.7,234.3
				c-3.2-0.2-4.9-0.3-5.7-0.3c-0.1,0-0.1,0-0.1,0c-11.7,0.3-18.6-13.8-19.4-27.9c-0.9-15.6,5.5-31.9,21.7-33.3
				c0.9-0.1,11.1-0.1,15.7,0l1.9,62C280.3,234.9,273.4,234.5,269.7,234.3z"/>
			<path class="head-st0" d="M266,170.4c-34.4,2.9-29,66.8-2,66.2c1.8,0,20.9,1.2,22.5,0.7l-2.1-66.8C283.4,170.3,267,170.3,266,170.4z"
				/>
			<path class="head-st1" d="M266,170.4c-8.2,0.7-14.2,4.9-18.1,10.9c12.3,0.2,24.6,0.5,36.8,1l-0.4-11.9
				C283.4,170.3,267,170.3,266,170.4z"/>
			<path class="head-st2" d="M245.9,222.9c3.7,8.1,9.9,13.9,18,13.7c1.8,0,20.9,1.2,22.5,0.7l-0.4-12.4
				C272.6,224.4,259.3,223.9,245.9,222.9z"/>
			<path d="M284.9,167.9c-19.4,1.7-27.2,21.2-26.2,38.6c0.9,16.3,9.4,32.6,24,32.6c0.2,0,0.3,0,0.5,0c7.5-0.2,14.1-5,18.6-13.6
				c7.7-14.9,7.7-37.4-0.2-49.2C297.5,170.2,291.8,167.3,284.9,167.9z M297.3,223.2c-2.5,4.9-7.1,10.7-14.3,10.9
				c-11.7,0.3-18.6-13.8-19.4-27.9c-0.9-15.6,5.5-31.9,21.7-33.3c0.4,0,0.8-0.1,1.3-0.1c4.4,0,8,2.1,10.8,6.2
				C304.2,189.3,304.2,209.9,297.3,223.2z"/>
			<path class="head-st3" d="M285.1,170.4c-34.4,2.9-29,66.8-2,66.2C310.1,235.9,313.7,168,285.1,170.4z"/>
			<path d="M251.6,197.9c-1.8,1.3-1.1,4.5,0,4.9c1.1,0.4,8,0,8,0l0.2-4.9C259.8,197.9,253.4,196.6,251.6,197.9z"/>
			<path d="M254.1,188.5c-1.8,1.3-1.1,4.5,0,4.9s8,0,8,0l0.2-4.9C262.3,188.5,255.9,187.2,254.1,188.5z"/>
			<path d="M252.7,207c-1.8,1.3-1.1,4.5,0,4.9c1.1,0.4,8,0,8,0l0.2-4.9C260.8,207,254.4,205.7,252.7,207z"/>
			<g>
				<path d="M285.2,184.9c-7.9-0.3-14.7,8-15.1,18.6c-0.3,6.1,1.6,11.8,5.1,15.6c2.4,2.6,5.3,4,8.4,4.1c0.1,0,0.3,0,0.4,0
					c7.7,0,14.2-8.2,14.7-18.6c0.3-6.1-1.6-11.8-5.1-15.6C291.3,186.4,288.3,185,285.2,184.9z M293.7,204.4
					c-0.3,7.6-4.7,13.8-9.7,13.8c-0.1,0-0.2,0-0.2,0c-2.3-0.1-3.9-1.4-5-2.5c-2.5-2.8-3.9-7.3-3.7-12c0.3-7.7,4.9-14,9.9-13.8
					c2.3,0.1,3.9,1.4,5,2.5C292.5,195.2,293.9,199.7,293.7,204.4z"/>
				<path class="head-st4" d="M285.1,187.4c-6.5-0.3-12.1,7-12.5,16.2c-0.4,9.2,4.6,16.9,11.1,17.1s12.1-7,12.5-16.2
					C296.6,195.3,291.6,187.6,285.1,187.4z"/>
				<path class="head-st5" d="M285.1,187.4c-5.9-0.2-11.1,5.7-12.2,13.7c8.4,1.6,16.3,5.2,21.9,10.4c0.8-2.1,1.3-4.5,1.4-7
					C296.6,195.3,291.6,187.6,285.1,187.4z"/>
				<path d="M272.6,203.5c-0.3,6.1,1.9,11.5,5.3,14.6c6.5,0.2,12.1-7,12.5-16.2c0.3-6.1-1.9-11.5-5.3-14.6
					C278.5,187.2,273,194.4,272.6,203.5z"/>
			</g>
		</g>
	</g>
</g>
</svg>
