<?xml version="1.0" encoding="utf-8"?>
<!-- Generator: Adobe Illustrator 26.0.3, SVG Export Plug-In . SVG Version: 6.00 Build 0)  -->
<svg version="1.1" id="Layer_1" xmlns="http://www.w3.org/2000/svg" xmlns:xlink="http://www.w3.org/1999/xlink" x="0px" y="0px"
	 viewBox="0 0 384 400" style="enable-background:new 0 0 384 400;" xml:space="preserve">
<style type="text/css">
	.head-st0{fill:#505353;}
	.head-st1{fill:#808485;}
	.head-st2{opacity:0.16;}
</style>
<g>
	<path d="M123.6,106.4l0-0.2c1-6.6-5.4-11.8-5.7-12l-0.1-0.1c-4.7-3.2-12-2-20,3.2c-4.4,2.9-12.3,9.4-11.7,14.3
		c0,1.3,0.6,7.3,6.5,13l0.5,0.5l0.7,0.1c4.3,0.8,8.7,0.1,13.1-2l6.6,13.1l1.9-0.5c2.5-0.6,4.9-1.8,7.1-3.4c2.6-1.8,4-3.6,4.1-3.8
		l1.3-1.7l-10.7-11.4C120.9,111.9,123.2,108.3,123.6,106.4z M121.4,127.1c-0.4,0.4-1,0.9-1.6,1.3c-1.1,0.8-2.3,1.5-3.5,2l-5.2-10.2
		l-2-3.7l-2.2,1.3c-3.8,2.3-7.6,3.2-11.2,2.7c-4.4-4.5-4.4-8.8-4.4-9l0-0.3l0-0.2c0.2-1.9,6.1-8.2,13.3-11.8
		c2.6-1.3,7.5-3.1,10.5-1.1c1.2,1,4.1,4.1,3.8,7.1c-0.4,1-2.6,4.7-6.5,8.4l-1.8,1.7L121.4,127.1z"/>
	<path d="M232.5,100.5c-0.6-5.6-6.3-10.4-15.5-13c-5-1.4-15.2-3.1-18.5,0.5c-1,0.9-5.2,5.2-5.6,13.4l0,0.8l0.4,0.6
		c2.2,3.8,5.6,6.6,10.1,8.6l-5.6,13.6l1.7,1.1c2.1,1.5,4.5,2.5,7.2,3.1c2.2,0.5,4,0.6,4.9,0.6c0.4,0,0.6,0,0.6,0l2.1-0.1l1.7-15.5
		c5,0.2,9.2-0.4,10.9-1.3l0.2-0.1c5.7-3.6,5.3-11.8,5.3-12.1L232.5,100.5z M224.6,108.6c-1,0.4-5.3,1.1-10.6,0.6l-2.5-0.3l-1.7,16
		c-0.6-0.1-1.3-0.2-2-0.4c-1.4-0.3-2.6-0.8-3.8-1.4l4.3-10.6l1.5-4l-2.4-0.8c-4.2-1.4-7.4-3.7-9.4-6.7c0.6-6.2,3.8-9.1,3.9-9.2
		l0.2-0.2l0.1-0.1c1.6-1.1,10.2-0.8,17.6,2.4c2.7,1.2,7.2,3.6,7.7,7.2C227.5,102.6,227.1,106.8,224.6,108.6z"/>
	<g>
		<path class="head-st0" d="M200.3,89.8c-3,3.9,19.9,18.7,29.7,11C228.7,90,203.3,86,200.3,89.8z"/>
		<path class="head-st1" d="M200.9,124.2c2.2,1.5,4.4,2.3,6.3,2.8c1.1-4.2,2.8-11.6-1.2-15.3L200.9,124.2z"/>
		<path class="head-st0" d="M206,111.7c4,3.7,2.3,11.1,1.2,15.3c2.8,0.7,4.8,0.5,4.8,0.5l2-18.8l-6-2.7L206,111.7z"/>
		<path class="head-st1" d="M200.3,89.8c0,0-4.5,3.7-4.9,11.8c7.4,12.4,27.2,10.7,30.4,9.1c4.5-2.9,4.2-9.9,4.2-9.9
			C209.4,104.9,200.3,89.8,200.3,89.8z"/>
	</g>
	<path class="head-st2" d="M129.1,125.4c-7.6-5.5-21.9,10.5-18.9,11.8C118.5,140.8,136.7,130.9,129.1,125.4z"/>
	<path class="head-st2" d="M193.4,126.6c5.8,10.2,32.1,15.4,28.5,4S191.3,122.9,193.4,126.6z"/>
	<g>
		<path class="head-st0" d="M88.7,111.4c0.9,4.8,27.2-2.8,27.8-15.3C107.4,90,87.8,106.6,88.7,111.4z"/>
		<path class="head-st1" d="M108.9,121.4l6.1,12.1c2.6-0.7,4.7-1.8,6.2-3C118.8,126.9,114.4,120.7,108.9,121.4z"/>
		<path class="head-st0" d="M106,116l2.9,5.3c5.5-0.6,9.9,5.5,12.3,9.1c2.3-1.7,3.6-3.3,3.6-3.3l-12.9-13.9L106,116z"/>
		<path class="head-st1" d="M116.5,96.1c-10.4,18.3-27.8,15.3-27.8,15.3s-0.1,5.8,5.7,11.4c14.2,2.5,25.9-13.6,26.8-17
			C122,100.5,116.5,96.1,116.5,96.1z"/>
	</g>
	<path d="M297.4,126.8c-1.5-2.9-3.6-3.3-4.7-3.3c-1.3-0.1-7.3-0.2-13.6,5l-0.6,0.5l-0.2,0.7c-1.2,4.2-1.1,8.6,0.5,13.2l-13.7,5.1
		l0.3,2c0.4,2.5,1.2,5,2.6,7.4c1.5,2.7,3.2,4.3,3.4,4.5l1.5,1.5l12.5-9.3c3.2,3.8,6.6,6.5,8.4,7.2l0.2,0.1c2.6,0.7,3.8-0.5,4.3-1.3
		c0.6-0.9,1.8-2.8-3.9-9.8C299.2,143.2,300.1,132.1,297.4,126.8z M289.2,148.8l-0.9,1.1c-0.2-0.2-0.4-0.5-0.5-0.7l-1.5-2l-12.9,9.6
		c-0.4-0.5-0.7-1.1-1.1-1.7c-0.7-1.2-1.2-2.4-1.6-3.7l10.7-4l3.9-1.6l-1.1-2.4c-1.8-4.1-2.3-7.9-1.5-11.5c4.9-3.8,9.2-3.4,9.5-3.4
		l0.2,0l0.1,0c0.3,0.3,0.8,1.3,1.1,3.5C294.3,137,293,144.4,289.2,148.8z"/>
	<g>
		<path class="head-st0" d="M292.6,126c-4.9,0.4-13.8,22.5-1.5,24.4C298.2,142.1,297.5,125.6,292.6,126z"/>
		<path class="head-st1" d="M270,156.3c3.8-2,10.4-5.8,10.4-11.3l-12.7,4.7C268.1,152.4,269.1,154.6,270,156.3z"/>
		<path class="head-st0" d="M280.4,145c0,5.5-6.6,9.2-10.4,11.3c1.4,2.5,2.9,3.9,2.9,3.9l15.2-11.3l-2.1-6.2L280.4,145z"/>
		<path class="head-st1" d="M292.6,126c0,0-5.8-0.7-12,4.4c-4.1,13.8,10.6,27.3,14,28.5c5.2,1.4-3.4-8.5-3.4-8.5
			C274.1,138.1,292.6,126,292.6,126z"/>
	</g>
</g>
</svg>
