<?xml version="1.0" encoding="utf-8"?>
<!-- Generator: Adobe Illustrator 26.0.3, SVG Export Plug-In . SVG Version: 6.00 Build 0)  -->
<svg version="1.1" id="Layer_1" xmlns="http://www.w3.org/2000/svg" xmlns:xlink="http://www.w3.org/1999/xlink" x="0px" y="0px"
	 viewBox="0 0 384 400" style="enable-background:new 0 0 384 400;" xml:space="preserve">
<style type="text/css">
	.head-st0{fill:#E8930F;}
	.head-st1{fill:#FFBA39;}
	.head-st2{opacity:0.16;}
	.head-st3{fill:#0CBF9C;}
	.head-st4{fill:#0FE8BD;}
	.head-st5{fill:#68FFE1;}
	.head-st6{opacity:0.5;fill:#68FFE1;}
	.head-st7{opacity:0.5;fill:#ADFFEF;}
</style>
<g>
	<path d="M214,139.8l-0.7-0.1l-0.6,0.3c-22.2,9.2-58.7,23.8-62.7,24.4c-4.4-0.3-34.6-17.2-46-23.6c-7.6-4.2-8.7-4.9-9.3-5.1
		c-0.8-0.3-1.7-0.2-2.4,0.3c-0.9,0.6-2.7,1.7-4.4,16.8l-0.2,1.6l1.4,0.8c9,5.3,54.3,31.5,62.9,31.5c4.2,0,14-4.7,29.5-12.5
		c13.5-6.7,30.3-15.1,35.8-15.1c10.9,0,55.7,14.1,56.1,14.3l3.1,1l0.1-3.3c0.2-6.3,0.1-17.2-3.3-20C270.2,148.6,234.8,143,214,139.8
		z M217.2,154.1c-6.2,0-19.1,6.2-38,15.6c-11.2,5.6-24,11.9-27.2,11.9c-5.5,0-38.5-18-59-30c0.5-3.9,1.2-8.1,1.8-10.3
		c1.6,0.9,4.1,2.3,6.7,3.8c33,18.5,45.3,24.6,48.9,24.2c5.4-0.6,52.4-19.9,63.5-24.5c25,3.8,52.7,8.6,56.2,10.2
		c0.9,1.3,1.5,6.7,1.5,12.6C261,164.3,227.2,154.1,217.2,154.1z"/>
	<path class="head-st0" d="M271.7,153c-3-2.4-58.1-10.8-58.1-10.8s-58.1,24-63.5,24.5s-54.5-28.1-56.3-28.7c-1.8-0.6-3.6,15-3.6,15
		s53.3,31.1,61.7,31.1s53.9-27.5,65.3-27.5c11.4,0,56.9,14.4,56.9,14.4S274.7,155.4,271.7,153z"/>
	<path class="head-st1" d="M90.3,153c0,0,9.3,5.4,20.7,11.7c1-5.1,2.2-10.2,3.5-15.3c-10.7-5.9-19.9-11.2-20.6-11.4
		C92.1,137.5,90.3,153,90.3,153z"/>
	<path class="head-st1" d="M187.1,153c2,4.1,3.8,8.2,5.4,12.5c0.1,0.1,0.1,0.3,0.2,0.4c8.4-4.1,16.2-7.5,21.3-8.8
		c-1.4-4.4-2.9-8.8-4.6-13.1C204.5,146,196.1,149.4,187.1,153z"/>
	<path class="head-st1" d="M182.5,154.9c-3.6,1.4-7.2,2.8-10.6,4.2c0.3,0.8,0.7,1.5,1,2.3c1.8,3.9,3.7,7.7,5.5,11.6
		c3.2-1.6,6.5-3.2,9.8-4.9c-0.4-1.1-0.8-2.2-1.3-3.3C185.6,161.4,184.1,158.1,182.5,154.9z"/>
	<path class="head-st2" d="M271.7,153c-2.8-2.3-52.7-10-57.7-10.7c1.3,3.5,2.6,7,3.8,10.5c0.4,1.3,0.8,2.6,1.2,3.9
		c13.7,1.2,55.1,14.3,55.1,14.3S274.7,155.4,271.7,153z"/>
	<path d="M157.1,150l-0.6-1.1l-1.2-0.2c-11.3-1.4-12.1,0.1-12.7,1.3l-17,32.5l0.7,1.2c2.1,3.6,12.8,21.7,19.3,24.2
		c0.6,0.2,1.2,0.4,1.9,0.4c2.3,0,5.2-1.4,8.8-4.2c6.5-5.1,18-17.9,17.3-22.8C172.9,177.1,160.8,156.2,157.1,150z M151.6,201.4
		c-3.1,2.1-4.2,2-4.2,2c-3.4-1.4-11.2-12.7-16.1-20.9l15.3-29.2c1.3-0.1,4.2,0.1,6.9,0.3c7.1,12.2,14.5,25.8,15.1,28.4
		C168,184.6,159.1,196.2,151.6,201.4z"/>
	<path class="head-st3" d="M144.8,151.2l-16.4,31.3c0,0,12.1,20.8,18,23.2c6,2.4,25.2-19.8,24.6-23.9c-0.6-4.2-16-30.5-16-30.5
		S145.4,150,144.8,151.2z"/>
	<path class="head-st4" d="M145,152.4l-15.2,28.5c0,0,11.2,18.9,16.7,21.1c5.5,2.2,23.3-18,22.8-21.8s-14.8-27.8-14.8-27.8
		S145.5,151.4,145,152.4z"/>
	<path class="head-st5" d="M146.8,157.4l-9.7,24.1c0,0,7.1,16,10.7,17.9c3.5,1.8,14.9-15.2,14.6-18.5c-0.4-3.2-9.5-23.5-9.5-23.5
		S147.1,156.5,146.8,157.4z"/>
	<path class="head-st6" d="M146.2,155.7l-9.7,24.1c0,0,7.1,16,10.7,17.9s14.9-15.2,14.6-18.5c-0.4-3.2-9.5-23.5-9.5-23.5
		S146.6,154.8,146.2,155.7z"/>
	<path class="head-st7" d="M147,162.1l-6,18.3c0,0,4.4,12.1,6.6,13.5c2.2,1.4,9.2-11.5,9-14c-0.2-2.4-5.9-17.8-5.9-17.8
		S147.2,161.4,147,162.1z"/>
</g>
</svg>
