<?xml version="1.0" encoding="utf-8"?>
<!-- Generator: Adobe Illustrator 26.0.3, SVG Export Plug-In . SVG Version: 6.00 Build 0)  -->
<svg version="1.1" id="Layer_1" xmlns="http://www.w3.org/2000/svg" xmlns:xlink="http://www.w3.org/1999/xlink" x="0px" y="0px"
	 viewBox="0 0 384 400" style="enable-background:new 0 0 384 400;" xml:space="preserve">
<style type="text/css">
	.head-st0{fill:#E8930F;}
	.head-st1{opacity:0.2;}
	.head-st2{fill:#FFFFFF;}
	.head-st3{opacity:0.16;}
	.head-st4{fill:#7D6363;}
	.head-st5{fill:#634C54;}
	.head-st6{fill:#4A3144;}
	.head-st7{opacity:0.2;fill:#FFFFFF;}
</style>
<g>
	<path d="M118.4,123.1c-0.5-0.4-1.2-0.7-1.8-0.8c-0.2,0-24.4-1.9-33.8-15c-3.7-5.2-4.6-11.4-2.6-18.9c4.9-15.8,4-28.6-2.7-38
		c-12-16.7-38-17.4-46.6-17.6c-0.7,0-1.5,0-1.8-0.1c-1.5-0.3-3,0.6-3.5,2.1c-0.5,1.5,0.1,3.1,1.5,3.9c25.6,13.5,21.5,27,11.7,59.4
		c-1.6,5.2-3.3,11-5.1,17.2c-4.7,16.9,1.3,33,17,45.3c14.5,11.5,33.9,17.5,47.3,17.5c4.7,0,8.7-0.7,11.4-2.2
		c13.4-6.8,20.8-15.2,21.9-24.9C133.1,135.8,119,123.6,118.4,123.1z M29,32.7C29,32.7,29.1,32.8,29,32.7C29.1,32.8,29,32.7,29,32.7z
		 M125,150.2c-0.9,7.5-7.1,14.3-18.5,20c0,0-0.1,0-0.1,0.1c-7.7,4.3-34-0.6-51.8-14.6c-9.6-7.6-19.9-20.4-14.8-38.7
		c1.7-6.2,3.4-11.7,5-17.1c8.3-27.5,13.7-45.5-4.5-60.2c10.3,1.1,24.7,4.2,31.9,14.4c5.5,7.8,6.2,18.7,1.8,32.5c0,0,0,0.1,0,0.1
		c-2.4,9.3-1.2,17.5,3.6,24.2c9.9,13.9,32.1,17,37.4,17.5C117.5,131,126.2,140.2,125,150.2z"/>
	<path class="head-st0" d="M116.3,125.5c0,0-48.3-3.4-39.3-37.9c17.3-55.1-45.5-51.1-48.6-51.7C61,53,48.9,72.4,36.7,116.2
		s55.4,65.6,71.1,56.9C148.1,152.7,116.3,125.5,116.3,125.5z"/>
	<path d="M195.2,81.4c-32.2-8.1-65-4.1-92.4,11.1C72.8,110.1,71,168,69.5,214.4c-0.7,23.4-1.4,43.6-5.4,52.9c-0.4,0.8-0.4,1.8,0,2.6
		c0.4,0.8,1.1,1.4,1.9,1.7l1.7,0.6c0.1,0,0.2,0.1,0.3,0.1c1.6,0.4,3.7,1,6.3,2c0,0,0.1,0,0.1,0.1c7.7,2.5,15.9,5.3,24.1,8.4
		c0.9,0.4,2,0.3,2.8-0.3c0.8-0.5,1.4-1.4,1.5-2.4l4.5-50.8c0.1-1.2-0.4-2.3-1.4-2.9c-1-0.6-2.2-0.7-3.2-0.2c-0.1,0-5.3,2.7-10.3,0.9
		c-3.3-1.1-5.9-3.9-7.8-8.3c-5.6-12.8-3.9-32.4-3-39.8c10.9,1.1,25.2,3.1,28.3,4.5c1.4,1.4,3.8,9,5.5,14.1
		c4.5,14.1,7.5,22.7,13.4,22.8c0,0,0,0,0,0c5.6,0,9.2-7.8,13.7-17.6c2.6-5.6,6.5-14.1,9-15.1c8.8-3.6,55-12.2,63.1-4
		c3.9,4,6.1,20.5-1.3,33.5c-6.7,11.8-22.6,24-60.6,14.8c-1.1-0.3-2.3-0.1-3.2,0.7c-1.6,1.3-3.2,2.6-0.7,30.6
		c1.1,13.1,2.7,26,2.7,26.2c0.2,1.6,1.6,2.8,3.1,2.8c0.1,0,0.2,0,0.4,0c3.2-0.4,79.7-9.3,107.2-32c1.1-0.9,1.5-2.5,0.8-3.8
		c0,0,0-0.1,0-0.1c0-2.1,0.7-8.5,1.5-15.2c3.4-30,10.5-92.6-5.7-118.7C247.4,104.1,223.1,88.4,195.2,81.4z M150.7,237.9
		C150.7,237.9,150.7,237.9,150.7,237.9C150.7,237.9,150.7,237.9,150.7,237.9z M90.2,233c3.8,1.3,7.5,1.1,10.3,0.4l-3.7,41.8
		c-6.9-2.6-13.9-4.9-20.4-7c-2-0.8-3.8-1.4-5.4-1.8c3.4-11.1,4-30.2,4.7-51.8c0-0.8,0-1.5,0.1-2.3c0.7,3.1,1.6,6.1,2.8,8.9
		C81.4,227.3,85.2,231.3,90.2,233z M109.7,183.4C109.7,183.4,109.7,183.4,109.7,183.4S109.7,183.4,109.7,183.4z M258.1,240.2
		c-1,9.1-1.5,13.6-1.5,16.1c-24.2,18.3-84.8,27.1-99.3,29c-2.2-19.3-3.9-39.8-3.5-46.7c42.1,9.3,58.7-7.5,64.9-18.4
		c8.9-15.8,6.1-35.1,0.2-41c-11.9-12.1-64.4,0.4-70,2.6c-4.8,2-8.3,9.5-12.4,18.3c-2.2,4.8-5.8,12.6-7.9,13.8
		c-2.3-1.8-5.7-12.5-7.5-18.3c-3.4-10.6-5.3-16.2-8.5-17.8c-5.3-2.7-29-5.1-33.7-5.6c-0.4,0-0.8,0-1.2,0.1
		c2.7-32.7,9.2-63.3,28-74.3c26-14.4,57.2-18.2,87.8-10.5c26.3,6.6,49.2,21.2,59.6,38C268.3,149.8,261.4,210.8,258.1,240.2z"/>
	<path class="head-st0" d="M256,123.9c-21.1-34-92.4-61.4-151.6-28.6C61,120.7,79.5,240,67,268.6c0.6,0.2,1.2,0.4,1.7,0.6
		c1.8,0.4,4.1,1.2,6.7,2.2c8.1,2.7,16.2,5.4,24.2,8.4l4.5-50.8c0,0-15.1,8.1-22.5-8.9c-7.4-17-2.9-44.6-2.9-44.6s27.6,2.7,32.6,5.2
		c5,2.5,10.4,36.4,17.3,36.5c6.9,0,14-29.4,21.5-32.5c7.5-3.1,56.5-13.4,66.5-3.3c10,10.1,9.6,71.6-64.9,53.5
		c-3.8-1.3,2.8,54,2.8,54s78.5-8.9,105.6-31.3C257,258.1,277.1,157.9,256,123.9z"/>
	<g class="head-st1">
		<path class="head-st2" d="M152.8,173.6c-7.5,3.1-17.4,35.2-24.3,35.2c-6.9,0-11.8-34.5-16.8-37c-4.6-2.3-31.6-1.2-35.9-1
			c-0.4,3.6-0.7,7.2-1,10.9c-0.3,13.3,0.1,35.6,5.1,47c7.4,17,24.3,0.3,24.3,0.3S89,237,81.6,220c-7.4-17-2.9-44.6-2.9-44.6
			s27.6,2.7,32.6,5.2c5,2.5,10.4,36.4,17.3,36.5c6.9,0,14-29.4,21.5-32.5c7.5-3.1,56.5-13.4,66.5-3.3c10,10.1,9.6,71.6-64.9,53.5
			c-3.8-1.3,2.8,54,2.8,54s3.3-44.3,7.1-43c74.5,18,73.3-60.9,63.4-71C215,164.7,160.3,170.5,152.8,173.6z"/>
		<path class="head-st2" d="M104.4,95.3C61,120.7,79.5,240,67,268.6c6.4-14.7,4.9-51.3,7.7-86.9c0.1-6.5,0.4-10.9,0.4-10.9s0.2,0,0.6,0
			C79,141.1,86.3,114,105.1,103c59.2-32.9,129.8-13.1,150.9,20.9C234.9,89.9,163.5,62.4,104.4,95.3z"/>
	</g>
	<path class="head-st3" d="M131.3,84.5c-1.2,12.3-3.3,24.4-4,36.7c-0.3,6,0,11.8,0.5,17.8c0.1,1,0.1,2,0.2,2.9c0,0.3,0,0.6,0.1,1
		c0,0,0,0,0,0c0,0.1,0,0.2,0.1,0.3c0,0.2,0.2,0.7,0.2,0.7c0.1,0.1,0.1,0.2,0.2,0.4c0.1,0.1,0.3,0.4,0.4,0.5c0.1,0.1,0.5,0.4,0.5,0.5
		c0.9,0.7,1.9,1.3,2.9,1.8c0.4,0.2,0.7,0.4,1.1,0.5c0.1,0,0.6,0.2,0.7,0.3c0.8,0.3,1.5,0.5,2.3,0.7c0.4,0.1,0.8,0.2,1.1,0.2
		c0,0,0.1,0,0.2,0c0.1,0,0.3,0,0.4,0.1c3.5,0.4,6.3,0,9.6-0.8c7.5-1.8,14.4-5.5,21.1-9.6c7.1-4.3,13.8-9.1,20.5-14
		c5.2-3.8,10.3-7.8,15.9-11c8.6-4.8,17.4-9.2,26.4-13.2C206.1,83.9,168.2,74.8,131.3,84.5z"/>
	<path class="head-st3" d="M79.3,238c-2.6-1.4-5-3.1-7.3-5.1c-0.7,15.6-1.9,28.5-5,35.6c0.6,0.2,1.2,0.4,1.7,0.6c1.8,0.4,4.1,1.2,6.7,2.2
		c8.1,2.7,16.3,5.4,24.2,8.4l3.5-36.6C95.1,244.2,86.4,241.9,79.3,238z"/>
	<path class="head-st3" d="M256,123.9c-7.2-11.7-20.4-22.6-37-30.5c4.3,14.1,7.4,28.5,9,43.2c1.1,10,11,19.7,10.4,29.7
		c-0.5,9.5-1.9,66.9-9.1,79.4c-7.1,12.4-35.5,12.9-49.7,16.1c-6.9,1.6-14.3,1.8-21.3,1.3c-2.2-0.2-4.5-0.4-6.8-0.8
		c1.1,17.4,3.1,26.5,3.1,26.5s78.5-8.9,105.6-31.3C257,258.1,277.1,157.9,256,123.9z"/>
	<path d="M179.3,43.1c-24.6-7.4-47.8-7.9-48.8-7.9c0,0,0,0,0,0c-1.5,0-2.7,1.2-2.8,2.7l-4.4,103.9c-0.1,1.2,0.7,2.3,1.8,2.7
		c4.1,1.6,9,3.9,10,4.8c0.5,0.7,1.4,1.2,2.3,1.2c0.1,0,0.3,0,0.4,0c1.1-0.2,2-1,2.2-2c9.2-33.9,24.2-54,44.8-59.7
		c21.8-6,43,6.6,45.3,8.6c0.6,0.9,1.7,1.3,2.8,1c1.4-0.3,2.3-1.7,2.1-3.1C231.7,71.1,212.4,53.1,179.3,43.1z M134.9,149.1
		C135,149.1,135,149.2,134.9,149.1C135,149.2,135,149.1,134.9,149.1z M135,149.3L135,149.3L135,149.3z M222.5,86.8
		c-6.1-2.6-15.8-5.6-26.6-5.3c-19.5,0.5-45.6,11.6-60.2,61.6c-2-1.1-4.4-2.2-6.8-3.1l4.2-99.2c14.5,0.8,83.1,6.7,95.1,48.7
		C225.3,88,222.5,86.9,222.5,86.8z M229.7,96.4C229.7,96.4,229.7,96.4,229.7,96.4C229.7,96.4,229.7,96.4,229.7,96.4z M229.7,96.4
		C229.7,96.4,229.7,96.4,229.7,96.4C229.7,96.4,229.7,96.4,229.7,96.4z"/>
	<path class="head-st4" d="M130.4,38L126,141.8c0,0,10,3.9,11.3,5.8c26.3-97.5,94.4-54,95-52.1C224.5,39.5,130.4,38,130.4,38z"/>
	<path class="head-st5" d="M143.5,44.3c0,0-7.4,101.4-6.2,103.4c26.3-97.5,94.4-54,95-52.1C224.5,39.5,143.5,44.3,143.5,44.3z"/>
	<path class="head-st6" d="M179.9,71.8c-8.8,0.5-18.1,2-26,4.9c-4.9,1.8-9.3,4.1-13.2,6.9c-2,28.8-4.1,62.9-3.4,64
		c26.3-97.5,94.4-54,95-52.1c-1.1-7.7-3.5-14.3-7-19.9C210.5,72.7,195.2,71,179.9,71.8z"/>
	<path d="M322.5,34.6c-0.3,0-1.1,0-1.8,0c-8.6,0.1-34.6,0.5-46.8,17c-6.9,9.4-8,22.2-3.2,38c1.8,7.5,0.9,13.7-2.9,18.8
		c-9.5,12.9-33.8,14.5-34,14.6c-0.7,0-1.3,0.3-1.8,0.7c-0.6,0.5-14.9,12.5-13.2,27.7c1,9.8,8.3,18.2,21.6,25.2c2.8,1.6,7,2.4,12,2.4
		c13.4,0,32.5-5.7,46.9-16.9c15.8-12.2,22-28.2,17.6-45.1c-1.7-6.2-3.3-12.1-4.8-17.3c-9.4-32.6-13.3-46.1,12.5-59.3
		c1.4-0.7,2.1-2.4,1.6-3.9C325.5,35.3,324,34.4,322.5,34.6z M305.8,101.6c1.6,5.4,3.2,11,4.8,17.2c4.8,18.3-5.6,31-15.3,38.5
		c-17.9,13.8-44.3,18.3-51.9,14c0,0-0.1,0-0.1-0.1c-11.3-5.9-17.5-12.8-18.3-20.3c-1.1-10.1,7.7-19.1,10.3-21.6
		c5.3-0.5,27.5-3.3,37.6-17c4.9-6.7,6.2-14.8,3.9-24.2c0,0,0-0.1,0-0.1c-4.2-13.9-3.4-24.8,2.2-32.5c7.4-10.1,21.8-13.1,32.1-14
		C292.7,55.9,297.9,74,305.8,101.6z M322.4,34.6C322.4,34.6,322.4,34.6,322.4,34.6C322.4,34.6,322.4,34.6,322.4,34.6z"/>
	<path class="head-st0" d="M323,37.7c-3.1,0.6-65.8-4.2-49.3,51.1c8.6,34.6-39.8,37.4-39.8,37.4s-32.2,26.8,7.8,47.7
		c15.6,8.9,83.5-12,71.9-56C302.1,74,290.3,54.5,323,37.7z"/>
	<path class="head-st7" d="M115.6,99.6c-27.6,2.2-37.2,47.9-22.9,52.3C107.1,156.2,123.6,98.9,115.6,99.6z"/>
</g>
</svg>
