<?xml version="1.0" encoding="utf-8"?>
<!-- Generator: Adobe Illustrator 26.0.3, SVG Export Plug-In . SVG Version: 6.00 Build 0)  -->
<svg version="1.1" id="Layer_1" xmlns="http://www.w3.org/2000/svg" xmlns:xlink="http://www.w3.org/1999/xlink" x="0px" y="0px"
	 viewBox="0 0 384 400" style="enable-background:new 0 0 384 400;" xml:space="preserve">
<style type="text/css">
	.head-st0{fill:#E39E62;}
	.head-st1{opacity:0.16;}
	.head-st2{fill:#9E5D24;}
	.head-st3{opacity:0.61;fill:#FFF3C4;}
	.head-st4{fill:#573314;}
	.head-st5{opacity:0.18;fill:#573314;}
</style>
<g>
	<g>
		<path d="M214.3,44c-6.1,2.4-11.9,4.6-14.6,4.4c-4.1-0.3-12.4-5.5-20.4-10.5c-11.6-7.2-24.8-15.4-34.4-15.5c0,0,0,0-0.1,0
			c-5,0-13.3,4.8-28.1,45c-7.9,21.6-14,43.5-14.1,43.7l-0.7,2.6l163.7,32.5l0.6-2.3c0.8-3.4,19.8-82.4,0.1-101.2
			C252.1,29.2,230.3,37.8,214.3,44z M262,140.5l-153.7-30.5c1.8-6.4,6.9-23.7,13.2-40.7c14.2-38.7,21.5-41.7,23.4-41.7c0,0,0,0,0,0
			c8.1,0.1,20.7,7.9,31.8,14.7C186,48,194,53,199.3,53.4c3.9,0.3,9.6-1.9,16.8-4.8C230.8,42.9,251,35,263,46.4
			C277.1,59.9,267.5,116.7,262,140.5z"/>
		<path class="head-st0" d="M199.5,50.9c-10.7-0.9-38.9-25.8-54.6-25.9c-15.7-0.1-39.7,86.9-39.7,86.9l158.7,31.5c0,0,19.7-80.8,0.8-98.8
			C245.7,26.6,210.2,51.8,199.5,50.9z"/>
		<path class="head-st1" d="M226.9,63.6c-10.2,0-16.1-7.9-15.2-16c-3.3,1.3-6.3,2.3-8.6,2.9c-1.5,8-4.9,15.7-11.6,19.8
			c-21.9,13.3-43.4-20-52.7-41.6c-15.1,16.5-33.6,83.2-33.6,83.2l158.7,31.5c0,0,18.1-74.1,3-96.1C254.7,55.3,242.7,63.7,226.9,63.6
			z"/>
	</g>
	<path d="M339.9,138.6l-0.3-0.9l-0.9-0.5c-17.1-8.9-38.6-17.2-64-24.8l0,0C219,94.4,104.4,71.1,34.1,84.9c-0.3,0-0.5,0.1-0.7,0.1
		l-1.7,0.3l-0.6,1c-2.7,4.9-5.4,9.7-8.2,14.3l-0.4,0.6l0,0.7c0.6,33,5,47.7,5.2,48.3l0.1,0.3l0.2,0.3c0.5,0.8,13.9,20.7,58.3,25.6
		l2.3,0.3l0.4-2.3c0.5-2.5,1-5.4,1.5-8.2c0.6-3,1.1-5.9,1.5-8c14.9-0.9,108.8-5.1,184.5,22.6l-1.6,15.6l2.6,0.2c0.3,0,2,0.1,4.7,0.1
		c9.3,0,30.3-1.2,42.4-11.7l0.1-0.1c4.9-4.8,9.4-10.9,13.3-18.2l0.3-0.6c0-0.1,0.1-0.1,0.1-0.2c1-1.9,1.9-3.8,2.8-5.8l0.2-0.5
		c0.7-1.7,1.5-3.4,2.1-5.2l2.4-1.9l0.2-0.6c0.7-1.8-0.3-3.7-4.6-10.5C340.9,140.3,340.1,139,339.9,138.6z M339.9,138.7L339.9,138.7
		L339.9,138.7z M339.4,151.4l-0.3,0.8c0,0.1-0.1,0.2-0.1,0.3c-0.7,1.8-1.4,3.5-2.1,5.1l-0.2,0.4c-0.8,1.8-1.7,3.6-2.5,5.3l-0.3,0.5
		c-3.7,7-7.9,12.9-12.6,17.4c-11.5,9.9-33.3,10.5-40.8,10.4l1.5-14.1l-1.8-0.7c-82-30.7-185.9-23.8-190.3-23.5l-1.9,0.1l-0.4,1.9
		c-0.4,2.2-1.1,6-1.9,10c-0.4,2-0.7,4-1.1,5.9c-37.3-4.7-50.5-20.5-52.2-22.8c-0.7-2.4-4.3-16.9-4.8-45.9c2.4-4.1,4.9-8.4,7.3-12.8
		c0.1,0,0.1,0,0.2,0c69.4-13.6,182.8,9.5,238.1,27.3l0,0c24.8,7.4,45.9,15.5,62.6,24.2c0.3,0.6,0.9,1.4,1.7,2.8
		c1,1.5,2.8,4.4,3.6,6.1L339.4,151.4z"/>
	<g>
		<path class="head-st0" d="M337.5,139.4C258.9,97.9,106.6,73.7,33.2,87.5c-2.9,5.2-5.8,10.4-8.9,15.5c-1.4,31.1,5.7,46.5,5.7,46.5
			s12.7,19.6,56.5,24.4c1.1-6,2.7-14.4,3.4-18.1c0,0,106.4-7.7,189.2,23.3l-1.6,14.9c0,0,14.2,0.9,27.9-2.7
			c6.3-1.6,12.6-4.2,17.3-8.3c11.4-11.1,21.1-31.5,21.1-31.5s-3.3-5.9-5-8.8C338.3,141.6,337.8,140.5,337.5,139.4z"/>
		<path class="head-st2" d="M30.1,149.5c0,0,12.7,19.6,56.5,24.4c1.1-6,2.7-14.4,3.4-18.1c0,0,106.4-7.7,189.2,23.3l-1.6,14.9
			c0,0,14.2,0.9,27.9-2.7C311.9,189.8,245.5,127.1,30.1,149.5z"/>
		<path class="head-st3" d="M33.2,87.6c-2,3.6-4,7.2-6.1,10.8c11.6-4.1,71.6-19.6,246.8,16.3C214.5,95.6,99.6,73.8,33.2,87.6z"/>
		<path class="head-st4" d="M59.8,160.9c11.2,4.1,28.4,4.4,28.4,4.4l1.9-9.5C90,155.8,48.3,156.8,59.8,160.9z"/>
	</g>
	<path class="head-st5" d="M252,156.8c0,0,41,15.4,66,29.2c22.1-21.5,22.7-39.7,22.7-39.7s-38.9-22.9-67.4-27.6
		C277.2,136.3,252,156.8,252,156.8z"/>
	<path class="head-st5" d="M102.1,107c0,0-2.1,1.9-4.5,4.6c-2.1-1.4-4.3-2.9-6.6-4.2c1.4-3.5,1.5-6.5-0.9-6.8c0,0-1.9,1.7-4.1,4.1
		c-4.1-2-7.5-3.1-8.8-1.6c-1.2,1.4,1,3.9,4.7,6.5c-2.4,3.4-4,6.7-2,8.4c1.9,1.6,5.2-1,7.8-4.7c1.9,1.1,4,2.1,6,3.1
		c-2.3,3.3-3.7,6.5-1.8,8.1c2.1,1.8,5.7-1.4,8.4-5.5c3.9,1.2,6.7,1.3,6.9-0.4c0,0-1.9-1.5-4.7-3.5C104.3,111,104.8,107.3,102.1,107z
		"/>
	<g>
		<path class="head-st5" d="M240.7,127.5c-5.9-2.6-4.8,9.1-1.3,11.5C243,141.4,250.3,131.8,240.7,127.5z"/>
		<path class="head-st5" d="M253.2,134.4c-5.9-2.6-4.8,9.1-1.3,11.5C255.5,148.3,262.8,138.7,253.2,134.4z"/>
		<path class="head-st5" d="M250.2,119.8c-5.9-2.6-4.8,9.1-1.3,11.5C252.4,133.7,259.7,124.1,250.2,119.8z"/>
	</g>
</g>
</svg>
