<?xml version="1.0" encoding="utf-8"?>
<!-- Generator: Adobe Illustrator 26.0.3, SVG Export Plug-In . SVG Version: 6.00 Build 0)  -->
<svg version="1.1" id="Layer_1" xmlns="http://www.w3.org/2000/svg" xmlns:xlink="http://www.w3.org/1999/xlink" x="0px" y="0px"
	 viewBox="0 0 384 400" style="enable-background:new 0 0 384 400;" xml:space="preserve">
<style type="text/css">
	.head-st0{fill:#C3B394;}
	.head-st1{opacity:0.2;fill:#FFFFFF;}
	.head-st2{opacity:0.16;}
	.head-st3{fill:#5E463A;}
	.head-st4{opacity:0.57;}
</style>
<g>
	<g>
		<path d="M108.6,131c-0.4-0.2-0.8-0.2-1.2-0.1c-13,2.7-25.7,3-26.8,0.7c-0.9-1.9,0.1-12.2,0.9-20.5c2-21.4,2.4-30.9-2.3-32.1
			c-1.5-0.4-3.3,0.4-5.9,2.5c-12.2,10-45,53.6-44.4,65.9c0.7,14.6,21.1,27.1,30.8,30.9c3.3,1.3,8.8,1.8,15.4,1.8
			c8.7,0,19.4-0.8,30.1-1.8c4.6-0.4,8.9-0.8,9.9-0.7c2.9,0.3,4.2-3.4,4.8-6.2C122.6,160.4,122.1,136.4,108.6,131z M114.8,173.4
			c-1.6,0-4.6,0.2-10,0.7c-12.6,1.1-36.1,3.2-43.6,0.3C49.7,170,33.6,158,33.1,147.2c-0.2-4.8,7.8-19.1,20-35.8
			c12.4-16.9,22-26.8,24.9-28.1c1.6,3.1,0.1,18.3-0.7,27.5c-1.2,12.6-1.8,19.8-0.5,22.6c3,6.5,22,3.5,30.8,1.8
			c5.2,2.5,7.5,8.9,8.5,14C118.2,159.5,116.3,171.1,114.8,173.4z"/>
		<path class="head-st0" d="M107.8,132.9c0,0-26.4,5.4-29.1-0.4c-2.7-5.9,6-49.9-0.1-51.4c-6.1-1.5-48.3,53.7-47.7,66.2
			c0.6,12.5,18.5,24.8,29.5,29.1c11,4.3,50.6-1.2,54.8-0.8C119.5,175.9,123.6,139.3,107.8,132.9z"/>
		<path class="head-st1" d="M60.7,106.9c-1.9-0.5-3.9-1-5.8-1.6c-1.4,1.8-2.7,3.7-4.1,5.5c7.3,1.2,14.7,1.8,22.1,2.6
			c2.1,0.2,4.1,0.5,6.2,0.7c0.1-1,0.2-2.1,0.3-3.1c-1.4-0.4-2.9-0.7-4.3-1C70.3,109,65.5,108.1,60.7,106.9z"/>
		<path class="head-st1" d="M48.2,114.7c-3.3,4.6-6.4,9.3-9,13.6c4.1-0.1,8.2-0.2,12.3-0.3c8.9-0.3,17.8-0.6,26.7-1.1
			c0-2.4,0.2-5.3,0.5-8.5c-7.2-0.8-14.5-1.5-21.7-2.4C54.1,115.6,51.1,115.2,48.2,114.7z"/>
		<path class="head-st1" d="M78.6,81c-1.7-0.4-6.3,3.7-12,10c1.8,1.7,3.4,3.5,5,5.4c3,3.5,5.7,7.3,8,11.3C80.9,94.9,81.9,81.8,78.6,81z"
			/>
		<path class="head-st1" d="M108.5,132.8c0,0-18.7,3.9-23.7,0.7c-2.6,0.6-5.2,1.2-7.7,2.2c-2.1,0.8-4.3,1.8-6.1,3.2c0,0,0.1,0.1,0.1,0.1
			c0.6,0.5,0.9,0.7,1.6,1.1c1.3,0.7,2.3,1.1,3.7,1.5c3.1,0.8,6.2,0.9,9.4,0.7c6.2-0.3,11.9-1.4,17.8-2.9c3.1-0.8,6.3-1.7,8.9-3.7
			C111.3,134.4,110,133.4,108.5,132.8z"/>
		<path class="head-st2" d="M60.7,149.5c-8.3-5.5-20.4-4.4-29.6-3.8c-0.1,0.6-0.1,1.1-0.1,1.5c0.6,12.5,18.5,24.8,29.5,29.1
			c11,4.3,50.6-1.2,54.8-0.8c2.6,0.2,5.1-13.4,3.1-25.5C107.5,154.5,77.2,164.7,60.7,149.5z"/>
	</g>
	<g>
		<path d="M246.5,91.2c1.2-0.5,2-1.2,2.4-2.1c1.3-2.7-1-5.5-2.9-7.3c-4.5-4.5-15.6-7.8-27.3-8c1.2-0.9,1.7-1.7,1.7-2.8
			c0.1-2.2-2.3-3.5-4.8-4.4c-4.7-1.8-12.4-2.6-19.6-0.7c1-1,2.2-2.2,3.6-3.9c3-3.8,3-8.6,0-11.6c-2.6-2.6-7.8-3.8-14.2,1.3
			c-3,2.4-4.5,5.8-6.3,9.7c-0.8,1.9-1.8,3.9-3,6.1c-4.4-3.5-16.2-10.8-32.2-5l-0.4,0.2c-2.3,1.5-2.4,3.2-2.3,4.2
			c0.4,2.5,3.9,4.7,8.3,6.6c-14,0.2-33.4,2.7-36.3,14.6l-0.1,0.3l0,0.3c0,1.3,0.6,2.4,1.6,3.1c0.5,0.4,1,0.6,1.6,0.8
			c-10.6,4.8-24.6,12.2-25.3,17.9c-0.2,1.5,0.5,2.9,1.9,3.9c1.7,1.2,3.5,1.8,5.3,1.8c-3.5,4.5-7,10.6-6.9,16.6
			c0.1,3.9,1.6,7.2,4.6,10l0.2,0.2l0.3,0.1c2.8,1.3,5.9,1.8,8.5,2.1c2.6,0.3,4.7-0.1,6.1-1.3c0.1-0.1,0.3-0.2,0.4-0.4
			c4.7,3.5,15.3,10.8,21.2,8.5c0.8-0.3,1.8-0.9,2.5-1.9c4,4.3,10,7,17.1,7.6c7.7,0.6,15.6-1.4,20.5-5.2c2.4,4.3,5.8,4.9,7.9,4.9
			c3.6-0.1,7.3-2.2,9.5-4.7c2.1,2.2,5.3,3.4,9.2,3.6c6.5,0.3,14.3-2.3,18.5-5.3c1.7,4,4.7,6.5,8.4,7c0.4,0.1,0.8,0.1,1.3,0.1
			c4.9,0,12-3.5,20.9-18c1.3,4.2,3.7,5.2,5.7,5.2c0,0,0,0,0,0c5.5,0,11.4-8.8,12-15.5c1,0.1,2-0.1,2.8-0.8c1.8-1.7,1.3-4.8-2-10.6
			l-0.1-0.2c-1.3-1.9-2.9-3.7-4.6-5.4c7.3,2.5,8.6,0.5,9.1-0.3c0.5-0.8,1-2.3,0.1-4.5C269.5,102.8,261.1,96.2,246.5,91.2z
			 M250.1,102.7l-2,3.3c0.1,0.1,10.5,6.9,15.8,14.3c1.7,3,2.2,4.7,2.4,5.4c-0.7-0.2-1.8-0.7-2.7-1.3l-11.3-7.3l8.8,10.2
			c0,0,0.7,0.8,1.6,2.1c-0.5,5.4-5.4,11.9-8.1,11.9c0,0,0,0,0,0c-1.4,0-2.4-2.8-2.7-7.1l-0.4-6.7l-3.2,5.9
			c-10.9,19.7-18.3,21-21,20.6c-2.9-0.4-5.1-3-6.1-7.1l-1-4.3l-2.5,3.7c-1.5,2.2-10.1,6.3-17.6,5.9c-3.8-0.2-6.5-1.6-7.8-4.1
			l-2.2-4.2l-1.3,4.6c-0.5,1.6-4.2,4.8-7.6,4.8c-2.4,0-4.2-1.6-5.3-4.9l-1-3.2l-2.2,2.5c-3.8,4.2-11.6,6.5-19.5,5.9
			c-4.3-0.4-12.1-2-16.4-8.7l-2.9-4.4l-0.7,5.2c-0.3,2-1.1,2.4-1.4,2.5c-3.6,1.4-13.4-4.6-19.1-9.3l-3.3-3l0.2,4.3
			c-0.1,0.7-1.2,1.2-3.5,1c-1.5-0.2-4.5-0.6-7.1-1.7c-2-2-3.1-4.3-3.1-7c-0.1-8,8.3-17,10.9-19.6l-2.6-2.9c-2.9,2.4-5.7,2.8-8.4,0.9
			c-0.2-0.1-0.2-0.2-0.2-0.2c-0.2-2.3,11.1-10.3,32.3-18.8l-1.2-3.7c-4.6,1.1-8.1,0.9-9,0.2c0,0,0,0,0,0
			c3.6-12.2,34.7-11.9,46.5-10.7l0.7-3.8c-9.4-2.3-18.1-5.8-19.1-7.6c0.1-0.1,0.2-0.1,0.3-0.2c17.5-6.3,29.3,5.3,29.8,5.8l1.8,1.8
			l1.3-2.1c1.9-3.1,3.2-6,4.3-8.6c1.6-3.6,2.9-6.5,5.1-8.2c4.4-3.5,7.6-3.1,9.1-1.6c1.3,1.3,1.6,4-0.3,6.4c-2.3,2.9-3.8,4.1-5.2,5.3
			c-1.8,1.5-3.6,3-6.4,7.1l-9.4,13.8l12.3-11.3c7.5-6.9,20.2-6.6,26.3-4.2c0.8,0.3,1.4,0.6,1.7,0.8c-2.3,1.4-8.9,3.5-11.9,4.5
			l1.1,3.7c15.1-3.9,33.2,0.5,38.1,5.3c1.7,1.7,2.1,2.6,2.1,2.8c-0.5,0.3-2.9,1.3-13.3-0.2l-0.7,3.8c21.4,4.6,32.8,12.3,36.1,17.5
			c0.5,0.8,0.7,1.4,0.8,1.7C266,110.3,257.9,107,250.1,102.7z"/>
		<path class="head-st0" d="M231.9,89.1c16.3,2.4,18.2-0.6,12.8-6c-5.4-5.4-24.2-9.9-40-5.8c14-4.6,17.2-6.2,10.3-8.9
			c-6.9-2.7-20.4-2.7-28.3,4.6c4.9-7.1,6.2-5.6,11.5-12.3c5.3-6.6-1.5-15.5-11.5-7.6c-4.3,3.4-5.3,9.7-9.9,17.3c0,0-13-13.1-32-6.2
			c-7.8,4.9,19.2,11.5,19.2,11.5s-44.5-4.4-48.7,12.6c0.1,3.2,6.2,3.1,11.5,1.8c-19.4,7.8-38.3,18.4-32.5,22.4
			c4.5,3.1,8.6,0.7,10.7-1c-4.6,4.6-18.1,19.7-7.5,29.7c2.7,1.2,5.8,1.7,7.9,1.9c5.5,0.7,5.7-2.7,5.7-2.7s22.1,18,23.7,5.6
			c8.4,13,31.1,11.7,39,3.1c3.9,11.7,15.4,4,16.6,0c5.4,10.1,25.6,2.8,28.7-1.7c2.6,10.7,14.5,16.4,30.7-13
			c1.2,18.4,14.2,4.2,14.7-5.2c0-0.1,0-0.1,0.1-0.2c-1.2-1.8-2.1-2.9-2.1-2.9s10.7,6.9,3.1-6.8c-5.5-7.8-16.4-14.9-16.4-14.9
			s18.7,10.3,20.9,7C272.1,108.2,262.5,95.7,231.9,89.1z"/>
		<path class="head-st2" d="M247.5,96.1c-0.3-0.9-0.5-1.8-0.7-2.8c-4.3-1.5-9.2-3-14.9-4.2c8.6,1.2,13.1,1,14.8-0.3
			c0.1-0.4,0.1-0.8,0.2-1.2c-1,0.2-1.9,0.3-2.9,0.2c-8.3-0.9-17.6-4.1-21.4-11.9c-5.8-0.5-12.1-0.1-17.9,1.4
			c10.2-3.3,14.7-5.1,13.7-6.9c-2,1.9-4.8,3.1-8.4,2.9c-4.8-0.3-8-2.9-9.5-6.3c-5,0.6-10,2.4-13.8,5.9c4.9-7.1,6.2-5.6,11.5-12.3
			c4.4-5.5,0.4-12.6-6.9-10.1c-2.4,7.2-6.8,13.5-13.1,17.5c-0.4,0.8-0.9,1.6-1.4,2.5c0,0-0.4-0.4-1.2-1c-1.1,0.5-2.1,1-3.3,1.4
			c-7.9,2.7-16.3,1.9-24.2-0.3c6.1,3,15.8,5.3,15.8,5.3s-10-1-20.9-0.2c0,2.8-1.2,5.7-4.2,8.1c-5.6,4.4-11.5,4.2-18.3,3.8
			c-1.6-0.1-3.2-0.2-4.8-0.3c-0.2,0.4-0.3,0.9-0.4,1.3c0.1,3.2,6.2,3.1,11.5,1.8c-3.7,1.5-7.3,3-10.8,4.7c0,2.8-1.2,5.6-4,8
			c-4.8,4.1-10.3,7.5-16,10.7c3.8,1.5,7.2-0.5,9-2c-0.7,0.7-1.7,1.7-2.7,2.9c0.1,0,0.1,0,0.2-0.1c3.8-0.8,7-2.3,10.1-4.2
			c2.7-3.3,4.6-7.4,6.5-12.6c2.5-6.8,9-8.6,14.4-7c5.4-2.2,9.7-5.5,14.4-10.6c2.2-2.4,5.4-3.2,8.6-2.9c3.1-1,6.4-1.2,9.9-0.1
			c1.9,0.6,3.5,2,5.3,2.7c2.2,0.9,3.2,0.9,3.4,0.9c3.3-6,10.8-7.5,16.7-4.1c11.7,6.8,25.5,1.2,37,10.2c1.3,1,2.4,2.1,3.3,3.3
			c0,0,0.1,0,0.1,0.1c3.5,2.5,6.9,5.2,10.1,8.2c4.3,0.7,7.1,3.4,8.4,6.8c4.5,2.4,17.6,8.9,19.3,6.2c0.4-0.6,0.4-1.6-0.1-2.8
			C260.4,107.9,250.7,105,247.5,96.1z"/>
		<path class="head-st2" d="M172.2,91c-0.8,0.1-14.7,7.4-9.8-6.1c0.1,0-6.7,6.6-1.8,12.6C165.7,103.5,173.1,90.9,172.2,91z"/>
		<path class="head-st2" d="M210.9,95.5c-0.9-0.2,5,13.2,10.7,7.8c5.6-5.3-0.3-12.7-0.3-12.7C224.5,104.6,211.6,95.7,210.9,95.5z"/>
		<path class="head-st2" d="M250.8,105.5c0.2,0.6,0.4,1.3,0.5,1.9c4.6,7,0.9,19.2-10.1,18.5c-0.9-0.1-1.8-0.2-2.6-0.4
			c-5.9,4.6-13.8,6.4-22,6.6c-4.5,0.1-11.2-0.5-17.1-2.5c-13.8,9.2-34.8,10.9-48.8,2.6c-9.1,3.6-20.3,3.6-27.9-1.3
			c-4.8,2.8-9.8,5.1-15.6,6.3c-7.1,1.4-11.9-3.2-13.3-8.6c-1.1,4.4-0.5,8.8,3.5,12.6c2.7,1.2,5.8,1.7,7.9,1.9
			c5.5,0.7,5.7-2.7,5.7-2.7s22.1,18,23.7,5.6c8.4,13,31.1,11.7,39,3.1c3.9,11.7,15.4,4,16.6,0c5.4,10.1,25.6,2.8,28.7-1.7
			c2.6,10.7,14.5,16.4,30.7-13c1.2,18.4,14.2,4.2,14.7-5.2c0-0.1,0-0.1,0.1-0.2c-1.2-1.8-2.1-2.9-2.1-2.9s10.7,6.9,3.1-6.8
			C261.3,113.3,254,107.8,250.8,105.5z"/>
	</g>
	<g>
		<path d="M287.7,137.8c-27.5-20.8-148.6-18-191.6-10.3c-0.5,0.1-0.9,0.3-1.2,0.6c-8.1,7.3-12.4,25.3-14.7,39
			c-0.1,0.7,0.1,1.5,0.6,2l1.1,1.3c1.2,1.5,2.5,3,3.6,4.5c1,1.4,1.8,2.9,2.7,4.5l0.5,1c0.4,0.8,1.3,1.3,2.2,1.3c0.1,0,0.3,0,0.4,0
			c90.2-15.4,191.6-0.2,192.6-0.1c1.1,0.2,2.3-0.5,2.7-1.5c0.5-1.2,12.3-30.5,1.4-42C288,137.9,287.9,137.8,287.7,137.8z
			 M282.7,176.3c-14.6-2-106.9-13.8-190.4,0.1c-0.8-1.5-1.7-3-2.7-4.5c-1.2-1.7-2.6-3.3-3.8-4.8l-0.3-0.4
			c2.9-17.2,7.3-29.3,12.4-34.5c47.1-8.2,161.9-9,186.8,9.4C291,148.8,286,167.6,282.7,176.3z"/>
		<path class="head-st3" d="M96.6,129.9c-7.7,7-11.8,24.9-13.9,37.6c0.1,0.1,0.2,0.2,0.2,0.3c1.6,1.9,3.2,3.7,4.6,5.7
			c1.1,1.6,2.1,3.3,3,5c0.1,0.2,0.3,0.5,0.4,0.8c91.7-15.7,193.4-0.1,193.4-0.1s11.8-28.8,1.9-39.3C260,119.9,140.4,122,96.6,129.9z
			"/>
		<path class="head-st2" d="M275.2,148.7c5.2,1.9,10.2,4.1,15,6.9c0.2-2.3,0.2-4.6-0.1-6.7C285.2,148.7,280.3,148.7,275.2,148.7z"/>
		<path class="head-st2" d="M255.6,148.8c-5,0.1-10.1,0.2-15.4,0.4c-11,0.4-22.6,0.9-34.8,1.8c-12.8,0.9-26.4,2.5-40.8,3.5
			c-11.6,0.8-23.6,1.1-36.1,1.4c-14.2,3-29.3,6.3-45.4,9.8c-0.1,0.6-0.2,1.3-0.3,1.9c0.1,0.1,0.2,0.2,0.2,0.3
			c1.6,1.9,3.2,3.7,4.6,5.7c1.1,1.6,2.1,3.3,3,5c0.1,0.2,0.3,0.5,0.4,0.8c91.7-15.7,193.4-0.1,193.4-0.1s3.7-9.1,5.3-18.6
			c-9.3-5.2-19.2-8.6-29.7-10.8C258.5,149.3,257,149,255.6,148.8z"/>
		<path class="head-st1" d="M96.6,129.9c-3.2,2.9-5.7,7.6-7.8,13c1.3,0,2.6,0,3.9-0.1c21.4-0.2,41.1,0,59.6-0.2c17.5-0.2,34-0.6,49.3-0.7
			c20.5-0.1,39.3,0.3,56.6,1.7c10.7,0,20.9,0.2,30.6,0.4c-0.6-1.6-1.5-3-2.6-4.2C260,119.9,140.4,122,96.6,129.9z"/>
	</g>
	<g>
		<g>
			<g>
				<path d="M290.8,181.6c-0.3-0.8-0.5-1.6-0.6-1.9c0,0,0-0.1,0-0.1l0-0.1c-0.3-0.9-1.2-1.5-2.1-1.3c-4,0.5-12.7,0.2-15.6,0
					c-2.8-4.6-15.7-27.5-10.1-46.3c2-0.2,5.7-0.9,12.5-2.5c1-0.2,1.6-1.2,1.5-2.2c-1.2-8.6-9-14.2-18.5-13.4
					c-11.9,1-23.6,11.5-23.1,32.6c0.8,29.7,15.9,47.3,29.6,51.1c2.1,0.6,4.2,0.9,6.3,0.9c8,0,15.4-4.5,20.7-12.8
					c0.3-0.5,0.4-1.1,0.2-1.6C291.4,183.7,291.1,182.6,290.8,181.6z M265.4,193.9c-12.4-3.4-26.1-19.8-26.8-47.5
					c-0.5-18.6,9.5-27.8,19.5-28.7c0.5,0,0.9-0.1,1.4-0.1c5.3,0,10.9,2.5,12.6,8.4c-4.4,1-8.9,1.9-10.4,2c-0.8-0.3-1.8-0.1-2.3,0.7
					c-0.1,0.1-0.2,0.3-0.2,0.4l0,0c-8.1,22.9,9.8,50.7,10.5,51.9c0.3,0.5,0.9,0.8,1.5,0.9c0.4,0,10,0.5,15.7,0.1
					c0.1,0.2,0.1,0.4,0.2,0.6c0.2,0.5,0.4,1.1,0.5,1.5C281.9,192.8,273.9,196.3,265.4,193.9z"/>
				<path d="M273.6,122.8c-0.7,0.5-1,1.5-0.5,2.2c0.2,0.4,23.5,36.6,15.5,58.3c-5.9,0.7-13-2.4-18.3-8c-5.4-5.7-13.5-19-7.5-43.8
					c0.2-0.9-0.3-1.7-1.2-1.9c-0.9-0.2-1.7,0.3-1.9,1.2c-6.4,26.3,2.4,40.6,8.2,46.8c5.4,5.7,12.6,9.1,19,9.1c1,0,2-0.1,3-0.3
					c0.5-0.1,1-0.5,1.2-1c9.6-23.1-14.4-60.5-15.4-62.1C275.3,122.5,274.3,122.3,273.6,122.8z M289.7,184.7L289.7,184.7L289.7,184.7
					z"/>
				<path class="head-st2" d="M261.3,131.1c-9.6,39.5,14.3,54.2,27.8,51.8C288.4,170.7,276.8,126.8,261.3,131.1z"/>
				<path class="head-st2" d="M288.2,180.1c-5.1,0.6-16.9,0-16.9,0s-0.1-0.1-0.2-0.3c0.8,1.1,1.5,2.3,1.9,3.6c0.6,1.9,0.8,4.8-0.9,6.1
					c-9.1,6.5-23.2-6.9-25.6-6.7c16.8,17.9,31.2,17.9,43.2,1.9c-0.2-0.7-1.2-3.7-1.4-4.4C288.3,180.3,288.3,180.2,288.2,180.1z"/>
				<path class="head-st3" d="M236.7,146.5c1.1,44.1,35.9,64.9,53,38.3c0,0,0.1,0,0.1,0c8.9-21.5-12.9-56.9-15.1-60.3
					C268.9,108.6,235.8,112.5,236.7,146.5z"/>
				<path class="head-st4" d="M261.5,133.1c0,0-9,12.7,1.6,32.5s12,9.3,10.8-5.8C272.6,144.7,261.5,133.1,261.5,133.1z"/>
				<path class="head-st1" d="M259.1,116.6c-4.9-1.1-14.1,2.5-19.4,15.5c-5.3,13,6.8,15.9,8.4,4C249.6,124.2,265.1,117.9,259.1,116.6z"/>
				<path class="head-st2" d="M288.2,180.1c-5.1,0.6-16.9,0-16.9,0S252.5,156.6,261,130c-0.6,0.9,13.5-2.4,13.5-2.4
					c-0.1-1-0.4,0.1-0.6-0.8c-1.5-0.6-3.1-1.1-4.7-1.5c-1.9-0.5-3.5-0.8-5.3-0.9c-0.9,0-1.7,0-2.6,0c-0.4,0,0,0-0.4,0.1
					c-0.2,0-0.4,0.1-0.6,0.1c-0.4,0.1-0.8,0.2-1.2,0.3c-1.2,0.4-2.5,1.2-3.5,2.2c-3.6,6.1-3.4,13.5-3.3,20.4c0,1.5,0,3-0.1,4.4
					c0.7,3.5,5.9,19.2,4.5,21.1c-0.2,0.2-0.4,0.3-0.7,0.4c-0.4,1.9-1.1,3.9-2.1,5.5c-1.8,2.7-4.3,3.8-7.1,4
					c16.8,17.9,28.9,26.4,43.2,1.9c-0.2-0.7-1.2-3.7-1.4-4.4C288.3,180.3,288.3,180.2,288.2,180.1z"/>
			</g>
			<path d="M263.3,163.1c-0.9-2.6-1.7-5.2-2.2-7.9c-1.2-5.3-1.5-10.8-0.9-16.2c0.3-2.7,0.8-5.4,1.6-8c0.8-2.6,1.8-5.2,3.2-7.7
				c-1.9,2.1-3.3,4.6-4.5,7.2c-1.2,2.6-2.1,5.4-2.6,8.2c-0.6,2.8-0.8,5.7-0.7,8.6c0.1,2.9,0.4,5.8,1,8.6c0.6,2.8,1.5,5.6,2.5,8.2
				c0.5,1.3,1.1,2.6,1.8,3.9c0.6,1.3,1.3,2.5,2,3.8c2.8,4.9,6.3,9.4,10.3,13.4c-3-4.8-5.9-9.5-8.3-14.5
				C265.3,168.2,264.1,165.7,263.3,163.1z"/>
		</g>
	</g>
	<g>
		<path d="M294.5,57.5c-3.5-2-5.7-2.5-7.4-1.7c-5.4,2.4-2.9,13.5,3.9,38.2c2.6,9.5,5.9,21.4,5.3,23.9c0,0-0.9,2.9-15.5,4.2
			c-8,0.7-16,0.5-16.1,0.5c-0.5,0-1,0.1-1.4,0.4c-14.7,9.2-10.4,37.5-4.9,49.9c1.3,2.8,3.2,6.4,6,6.4c0.3,0,0.6,0,1-0.1
			c1.1-0.3,6.3-0.8,11.8-1.3c22.4-2,44.9-4.3,53.4-9.5c10.7-6.5,32-25.5,29.7-42.7C358.5,111,311,66.7,294.5,57.5z M265.2,174.3
			L265.2,174.3L265.2,174.3z M328,164c-8.2,5-36.2,7.4-51.2,8.8c-6.4,0.6-10.1,0.9-11.9,1.2c-2.3-2.4-6.8-15.6-6.5-28.3
			c0.1-6.2,1.5-14.2,7.1-18.2c10.7,0.2,33.6-0.2,35.7-8.5c0.9-3.6-1.3-12-5.3-26.4c-2.9-10.6-7.8-28.1-6.6-32.1
			c3.7,1,17.1,10.6,35.2,27.8c17.8,17,30.2,32.2,31,37.9C357,139,340.6,156.4,328,164z"/>
		<path class="head-st0" d="M288.1,58c-6.8,3,12.6,52.9,10.6,60.4c-1.9,7.4-34.1,6.6-34.1,6.6c-17.3,10.8-4.8,53,0.1,51.6
			s52.5-3.2,64.5-10.5s30.5-25.5,28.6-40.3C356,111.1,294.9,55,288.1,58z"/>
		<path class="head-st1" d="M314.5,84.7c-5.3,2.4-10.8,4.5-16.2,6.7c-1.6,0.7-3.2,1.4-4.9,2.1c0.3,1.2,0.7,2.4,1,3.6
			c2.4-0.7,4.7-1.4,7.1-2.1c8.5-2.5,17-4.7,25.3-7.7c-2-1.9-4-3.8-6-5.6C318.8,82.7,316.7,83.7,314.5,84.7z"/>
		<path class="head-st1" d="M320.8,94.6c-8.3,2.5-16.6,4.9-25,7.4c1,3.7,1.8,7.1,2.4,9.9c10.5-1.4,21.1-2.8,31.6-4.3
			c4.8-0.7,9.7-1.4,14.5-2.2c-4-4.5-8.6-9.4-13.4-14.1C327.6,92.4,324.2,93.5,320.8,94.6z"/>
		<path class="head-st1" d="M288.1,58c-3.6,1.6,0.3,16.8,4.3,31.6c1.9-5.2,4.2-10.2,7-15c1.5-2.5,3-5,4.7-7.4C296.2,61,290,57.2,288.1,58
			z"/>
		<path class="head-st1" d="M291.8,120.9c-5.1,4.8-28,4.1-28,4.1c-1.7,1.1-3,2.5-4.1,4.2c3.4,1.7,7.4,2.1,11.2,2.4
			c7.3,0.6,14.2,0.7,21.5-0.3c3.8-0.5,7.4-1.2,10.9-2.8c1.6-0.7,2.7-1.4,4.1-2.5c0.8-0.6,1-0.9,1.6-1.6c0-0.1,0.1-0.1,0.1-0.2
			c-2.4-1.2-5.2-2-7.9-2.5C298.2,121.3,295,121,291.8,120.9z"/>
		<path class="head-st2" d="M357.4,124.1c-10.9,1.2-25.3,2.4-34,10.6c-16.2,21.3-54,15.6-67.6,12.6c0.1,14.6,5.9,30.1,8.9,29.3
			c4.9-1.3,52.5-3.2,64.5-10.5c12-7.3,30.5-25.5,28.6-40.3C357.8,125.3,357.6,124.8,357.4,124.1z"/>
	</g>
	<g>
		<path class="head-st0" d="M154.3,113.3l-31-1c0,0-11.6,22.3,0,27c5.5,0.7,9.3-10.5,9.3-10.5c-0.9-4.7,25.9,24.1,24.6,1.7
			C156.5,120,154.3,113.3,154.3,113.3z"/>
		<path d="M123.8,138c-0.1,0-0.1-0.1-0.2-0.1c0,0-0.1,0-0.1,0L123.8,138z"/>
		<path d="M131.2,129l0.1-0.8c0,0.1-0.1,0.2-0.1,0.3C131.1,128.7,131.1,128.8,131.2,129z"/>
		<path d="M157.6,125.9c-0.7-4.3-1.7-8.6-3.3-12.6c0.9,4.2,1.4,8.5,1.7,12.8c0.1,2.1,0.2,4.3,0.2,6.4c-0.1,1-0.2,2-0.5,2.9
			c-0.3,0.9-0.8,1.6-1.3,1.9c-1.1,0.8-3.2,0.3-5-0.5c-1.8-0.8-3.6-1.9-5.4-3.1c-1.8-1.2-3.5-2.4-5.2-3.7c-0.9-0.6-1.7-1.3-2.7-1.9
			c-0.5-0.3-0.9-0.6-1.5-0.9c-0.3-0.1-0.6-0.3-1.2-0.4c-0.2,0-0.4-0.1-0.8,0c-0.4,0.1-0.9,0.4-1.1,0.9c-0.2,0.4-0.2,0.7-0.2,0.9
			c0-0.1,0.1-0.2,0.1-0.3l-0.1,0.8c0-0.1-0.1-0.3-0.1-0.5c-0.4,1-0.8,2-1.3,3c-0.5,1.1-1.1,2.1-1.7,3.1c-0.6,1-1.4,1.8-2.2,2.5
			c-0.8,0.6-1.6,0.9-2.4,0.9c0.1,0,0.1,0.1,0.2,0.1l-0.3-0.1c0,0,0.1,0,0.1,0c-0.9-0.4-1.7-0.9-2.4-1.6c-0.7-0.8-1.2-1.7-1.5-2.8
			c-0.6-2.2-0.6-4.6-0.3-7c0.3-2.4,0.8-4.8,1.5-7.2c0.7-2.4,1.5-4.7,2.4-7c-1.3,2.1-2.4,4.4-3.4,6.7c-0.9,2.3-1.8,4.7-2.3,7.2
			c-0.5,2.5-0.8,5.2-0.1,7.8c0.3,1.3,0.9,2.7,1.8,3.8c0.9,1.1,2.2,2,3.5,2.5l0.1,0.1l0.2,0c1.7,0.2,3.3-0.5,4.4-1.3
			c1.2-0.9,2.1-1.9,2.8-3c0.8-1.1,1.4-2.2,2-3.4c0.4-0.9,0.8-1.7,1.2-2.6c-0.2-0.1-0.4-0.2-0.6-0.3c-0.2-0.1-0.4-0.2-0.3-0.1
			c0,0,0.1,0,0.4,0c0.2,0,0.7-0.3,0.8-0.6c0.2-0.6,0.1-0.6,0.1-0.6l0.2,0l-0.3,0.7c-0.1,0.3-0.3,0.6-0.4,0.9
			c0.2,0.1,0.4,0.3,0.7,0.4l2.6,1.9c1.8,1.3,3.5,2.5,5.4,3.7c1.9,1.2,3.8,2.3,6,3.2c1.1,0.4,2.2,0.8,3.5,0.9c1.2,0.1,2.7,0,4-0.8
			c1.2-0.9,1.9-2.2,2.2-3.4c0.3-1.2,0.4-2.4,0.4-3.5c0-1.1-0.1-2.3-0.2-3.3C157.9,128.1,157.8,127,157.6,125.9z"/>
		<path d="M134.2,128.5l-0.2,0c0,0,0.1,0-0.1,0.6c-0.1,0.3-0.6,0.6-0.8,0.6c-0.2,0.1-0.3,0-0.4,0c-0.1,0,0.1,0.1,0.3,0.1
			c0.2,0.1,0.4,0.2,0.6,0.3c0.1-0.3,0.3-0.6,0.4-0.9L134.2,128.5z"/>
	</g>
	<g>
		<path class="head-st0" d="M193.3,116.8c0,0-2.9,0,0.7,14.1c3.5,14.1,14.3,2.3,14.3,2.3s8.1,10.6,12.2,8c7.3-8.8-12-28.7-12-28.7
			L193.3,116.8z"/>
		<path d="M219.7,140c-0.1,0-0.1,0-0.2,0.1c-0.1,0.1-0.1,0.2-0.2,0.2L219.7,140z"/>
		<path d="M219.5,125.3c-1.5-2.4-3.2-4.6-5.1-6.7c-1.8-2.1-3.8-4.1-5.9-5.9c1.7,2.2,3.3,4.4,4.9,6.7c1.5,2.3,3,4.6,4.2,7
			c1.3,2.4,2.3,4.9,2.8,7.4c0.3,1.2,0.4,2.5,0.2,3.7c-0.1,1.1-0.6,2-1.2,2.8c0.1,0,0.1,0,0.2-0.1l-0.4,0.3c0.1-0.1,0.1-0.2,0.2-0.2
			c-0.2,0.1-0.4,0.1-0.8,0.1c-0.4-0.1-0.9-0.2-1.4-0.5c-1-0.5-1.9-1.2-2.9-2c-0.9-0.8-1.8-1.7-2.7-2.6c-0.9-0.9-1.7-1.9-2.4-2.8
			l-1-1.3l-1.2,1.2c-1.8,1.8-4,3.7-6.3,4.2c-1.1,0.3-2.1,0.1-3-0.6c-0.9-0.7-1.6-1.8-2.1-3c-0.5-1.2-0.9-2.6-1.3-3.9
			c-0.4-1.4-0.7-2.7-1.1-4.1c-0.3-1.4-0.6-2.8-0.7-4.2c-0.1-0.7-0.1-1.4-0.1-2.1c0-0.3,0.1-0.7,0.2-1c0.1-0.3,0.3-0.7,0.6-0.8
			c-0.4,0-0.6,0.4-0.8,0.7c-0.2,0.3-0.3,0.7-0.4,1c-0.2,0.7-0.2,1.5-0.3,2.2c-0.1,1.5,0,2.9,0.2,4.4c0.1,1.4,0.4,2.9,0.6,4.3
			c0.3,1.4,0.5,2.9,1,4.3c0.5,1.4,1.3,2.9,2.6,4.1c0.7,0.6,1.5,1,2.4,1.2c0.9,0.2,1.8,0.2,2.6,0c1.7-0.3,3.1-1,4.4-1.9
			c0.8-0.5,1.6-1.1,2.3-1.8c-0.3-0.4-0.7-0.8-1-1.3l2.2,0.1c-0.4,0.4-0.8,0.8-1.2,1.2c0.5,0.6,1,1.2,1.6,1.8c0.9,1,1.8,1.9,2.9,2.8
			c1,0.9,2.2,1.7,3.5,2.4c0.7,0.3,1.4,0.6,2.3,0.7c0.9,0.1,1.9,0,2.8-0.6l0.2-0.1l0.1-0.2c1.1-1.3,1.7-2.9,1.8-4.5
			c0.2-1.6,0-3.1-0.4-4.6C222.3,130.2,220.9,127.7,219.5,125.3z"/>
		<path d="M207.1,134.1c0.3,0.4,0.7,0.8,1,1.3c0.4-0.4,0.8-0.7,1.2-1.2L207.1,134.1z"/>
	</g>
</g>
</svg>
