<?xml version="1.0" encoding="utf-8"?>
<!-- Generator: Adobe Illustrator 26.0.3, SVG Export Plug-In . SVG Version: 6.00 Build 0)  -->
<svg version="1.1" id="Layer_1" xmlns="http://www.w3.org/2000/svg" xmlns:xlink="http://www.w3.org/1999/xlink" x="0px" y="0px"
	 viewBox="0 0 384 400" style="enable-background:new 0 0 384 400;" xml:space="preserve">
<style type="text/css">
	.head-st0{fill:#E3812B;}
	.head-st1{fill:#F6C180;}
	.head-st2{fill:url(#SVGID_1_);}
	.head-st3{fill:#A85F20;}
	.head-st4{fill:#BF6D24;}
	.head-st5{fill:url(#SVGID_00000050639306768503861280000008393077765049502650_);}
	.head-st6{fill:#D6D6D6;}
	.head-st7{opacity:0.5;fill:#FFFFFF;}
	.head-st8{opacity:0.2;fill:#FFFFFF;}
	.head-st9{opacity:0.44;fill:#F5F5F6;}
	.head-st10{fill:#573314;}
	.head-st11{fill:#7A481C;}
</style>
<g>
	<g>
		<path d="M115.8,20.8c-9.1,3-13.9,6.7-14.5,11.3c-0.3,1.8,0.2,3.5,0.9,4.8c-10,3.2-32,12.1-30.1,28.7c0.2,2.2,1,8.7,5.7,9.6
			c1.2,0.2,2.4,0,3.6-0.6c-1.7,8-2,17.6,2.7,25.8c5.9,10.3,18.3,15.9,36.8,16.7c1.3,0.1,2.6,0.1,3.9,0.1c16.4,0,27.8-4.6,33.8-13.6
			c10.7-16,0.4-39.7-0.4-41.6C157.1,58.9,139,13.2,115.8,20.8z M153.7,100.1c-5.3,7.9-16.2,11.5-32.5,10.9
			c-16.3-0.7-27-5.3-31.8-13.7c-8.2-14.3,2.7-35.6,3-36.2c0,0,0,0,0,0l-5.3-2.8c0,0,0,0,0,0.1c-2.6,5-6.2,9.8-8,10.7
			c-0.3-0.5-0.7-1.7-1-4.2c-1.5-13,21.3-21.3,30.2-23.5l6.5-1.6l-5.5-3.8c-0.5-0.3-2.2-1.8-2-3.1c0.1-0.5,0.9-3.3,10.4-6.4
			c15-4.9,30.4,25.5,35,37.6l0.1,0.2C152.9,64.5,162.8,86.6,153.7,100.1z"/>
		<path class="head-st0" d="M116.7,23.6c-21.1,6.8-9.2,14.8-9.2,14.8S73,46.6,75.1,65.1c2.1,18.5,14.7-5.5,14.7-5.5s-27.6,51.9,31.3,54.3
			c58.9,2.4,34.4-51,34.4-51S137.8,16.8,116.7,23.6z"/>
		<path class="head-st1" d="M116.5,56.7c-16.3,8-12,39.3,2.8,45.3c14.8,6.1,34.2-1.7,26.1-31.2C145.4,70.9,135.6,48,116.5,56.7z"/>
		<radialGradient id="SVGID_1_" cx="130.6002" cy="84.3696" r="16.7887" gradientUnits="userSpaceOnUse">
			<stop  offset="0" style="stop-color:#F8E2C6"/>
			<stop  offset="1" style="stop-color:#F2CDA7"/>
		</radialGradient>
		<path class="head-st2" d="M123.2,68.1c-12.6,6-9.9,28.5,1.3,32.8c11.2,4.2,26.2-1.7,20.6-22.9C145.1,78,138,61.6,123.2,68.1z"/>
	</g>
	<g>
		<g>
			<path d="M252.3,96.2c-18.7-19.1-43.7-29.7-70.5-29.9c0,0,0,0,0,0c-26.2-0.2-49.9,9.7-68.4,28.7c-17.4,17.8-28.6,42.5-31.7,69.5
				c-0.1,0.9,0,1.8,0.4,2.7c-0.3,1.9-0.5,3.7-0.7,5.5c-0.3,2.4,1.1,4.6,4,6.6c10.4,7.1,45.8,13.3,86.1,15.3
				c8.1,0.4,15.9,0.6,23.3,0.6c34,0,61-3.9,74.4-11c7.5-4,11.2-9,11.2-15c0-1.2,0-2.3-0.1-3.5C280.6,139.6,270.7,115,252.3,96.2z
				 M266.8,179.7c-15.6,8.3-51.1,12-95.1,9.9c-38.8-1.8-73.9-7.9-83.5-14.4c-1.6-1.1-1.8-1.8-1.8-1.9c0.2-1.9,0.5-4,0.8-6.1
				c0.1-0.6,0-1.2-0.4-1.7c-0.1-0.2-0.2-0.3-0.1-0.4c6.3-55.3,45-93.8,94.3-93.8c0.2,0,0.5,0,0.7,0c25.4,0.2,49.2,10.3,66.9,28.4
				c17.5,17.8,26.9,41.2,26.6,65.9c0,0,0,0.1,0,0.1c0,1.1,0.1,2.2,0.1,3.4C275.4,173.1,272.5,176.7,266.8,179.7z"/>
			<path class="head-st3" d="M181.9,71.6c-53.4-0.4-91.9,48.3-98,101.4c-2.1,18.7,194.2,34.5,194-3.9C277.6,115.7,235.3,72,181.9,71.6z"
				/>
			<path class="head-st4" d="M181.8,68.8c-53.4-0.4-91.5,42.9-97.5,96c-2.1,18.7,193,31.4,193.6,1.5C278.8,112.9,235.2,69.2,181.8,68.8z"
				/>
			<path class="head-st0" d="M229.4,88c-19.7-17.2-63.4-18.5-90.1-5.8c-26.7,12.7-15.1,26.3,16,24c31-2.3,36.3,41.2,50,56
				c13.7,14.8,65.3-6.7,65.3-6.7C272.2,124.4,249.1,105.3,229.4,88z"/>
		</g>
	</g>
	<g>
		<path d="M277.2,45.6c0.7-1.7,1.1-3.8,0.5-6c-1.4-5.4-7.6-9-18.9-11.2c-29.1-5.7-44,53-44.6,55.5l6.6,1.6
			c3.8-15.3,17.8-54.1,36.8-50.5c11.7,2.3,13.4,5.4,13.6,6.3c0.4,1.6-1.5,3.8-2,4.2l-5.9,5.1l7.7,0.9c11.1,1.2,39.8,8,39.9,24
			c0,3.5-0.5,5-0.7,5.5c-2.2-0.6-7.4-5.9-11.5-11.8c0,0,0-0.1-0.1-0.1l-5.6,3.9c0,0,0,0,0,0c0.5,0.7,16.8,24.8,9,43.2
			c-4.6,10.9-16.8,18-36.4,21.2l1.1,6.7c22-3.6,35.9-12.1,41.5-25.3c4.5-10.6,2.6-22.3-0.7-31.6c1.6,0.6,3.2,0.8,4.7,0.3
			c5.4-1.7,5.3-9.5,5.3-12.1C317.4,55.2,289.4,47.8,277.2,45.6z"/>
		<path class="head-st0" d="M271.3,48.1c0,0,13.1-11.3-13.2-16.4c-26.3-5.1-40.7,53-40.7,53s-21.5,67.6,48.7,56.1
			c70.3-11.5,29.6-69.7,29.6-69.7s18.6,26.9,18.4,4.4C314,52.9,271.3,48.1,271.3,48.1z"/>
		
			<radialGradient id="SVGID_00000147185552915063748070000010992502322508652454_" cx="252.3516" cy="101.7381" r="29.5822" gradientUnits="userSpaceOnUse">
			<stop  offset="0" style="stop-color:#F8E2C6"/>
			<stop  offset="1" style="stop-color:#F2CDA7"/>
		</radialGradient>
		<path style="fill:url(#SVGID_00000147185552915063748070000010992502322508652454_);" d="M229.3,106.6c0.1,0,0.2,0.1,0.2,0.1
			c6.6-12.9,23.4,2.5,14.7,14.3c6.6-9,16.8,2.1,5.9,6c18-0.5,40.8-18.8,20.4-43.1C254.9,65,235.8,85.7,229.3,106.6z"/>
		<path class="head-st1" d="M249.4,79.1c29,4.7,17.3,36.2,6.5,43.5c-0.1,1.4-1.8,3.1-5.7,4.4c18-0.5,40.8-18.8,20.4-43.1
			C264.3,76.3,256.6,75.8,249.4,79.1z"/>
	</g>
	<g>
		<path d="M241.6,149.5c-0.6-2.9-1.4-5.8-2.4-8.6c-0.5-1.4-1.1-2.8-1.8-4.2c-0.7-1.4-1.5-2.7-2.2-3.9c-2.9-5-5.9-9.9-9.2-14.7
			c1.9,5.5,4.1,10.9,6.3,16.2c0.5,1.4,1.2,2.6,1.6,3.9c0.5,1.3,0.9,2.6,1.2,4c0.7,2.7,1.3,5.4,1.7,8.2c0.9,5.6,1.4,11.2,1.7,16.9
			c0.3,5.5,0.5,11.1,0.6,16.6c0.2-0.3,0.4-0.5,0.5-0.8l-0.5,1.2c0-0.1,0-0.3,0-0.4c-0.2,0.3-0.4,0.6-0.6,0.9
			c-0.4,0.6-0.8,1.1-1.1,1.7c-0.4,0.6-0.7,1.2-1.1,1.8c-0.3,0.6-0.7,1.2-1,1.9c0.7-0.3,1.3-0.6,1.9-1c0.6-0.3,1.2-0.7,1.8-1.1
			c0.6-0.4,1.1-0.8,1.7-1.1c0.6-0.4,1.1-0.8,1.7-1.2l0.4-0.3l0.1-0.9c0.6-5.9,0.8-11.7,0.6-17.5
			C243.3,161.2,242.7,155.3,241.6,149.5z"/>
		<path d="M239.2,184.4l0.5-1.2c-0.2,0.2-0.4,0.5-0.5,0.8C239.2,184.1,239.2,184.2,239.2,184.4z"/>
		<g>
			<path d="M228.2,147.7c-5.9,1.4-3,11.1,2,9.6C234.7,156,234.1,146.3,228.2,147.7z"/>
			<path d="M248.4,143.3c-5.9,1.4-3,11.1,2,9.6C255,151.5,254.4,141.8,248.4,143.3z"/>
			<g>
				<g>
					<path d="M244.8,142.5c-6.1-0.5-17.2,4.6-18.4,9.6c-0.4,1.5,0.2,2.9,1.4,3.9c1.3,1,3.5,1.4,6.1,1.4c4.5,0,10.1-1.3,13.2-3
						c3.6-1.9,4.3-4.2,4.1-5.8C250.9,145.1,248.5,142.8,244.8,142.5z M242.1,151c-3.9,1.3-8,1.5-10.1,1.3c2.3-2.1,8.8-5.3,12.6-4.7
						c1.3,0.2,1.4,0.6,1.5,1.3C245.9,149.1,244.9,150.1,242.1,151z M246.1,148.9C246.1,148.9,246.1,148.9,246.1,148.9
						C246.1,148.9,246.1,148.9,246.1,148.9z"/>
					<path class="head-st6" d="M228.8,152.6c-1.1,4.5,20.2,1.6,19.9-3.9C248,140.2,229.9,148.2,228.8,152.6z"/>
					<path class="head-st7" d="M231.7,152.1c-0.8,3.1,14.7,1.2,14.4-2.6C245.6,143.6,232.5,149,231.7,152.1z"/>
				</g>
			</g>
		</g>
		<g>
			<path d="M219.6,131.1c-5.1,3.3,0.9,11.5,5.1,8.4C228.5,136.7,224.7,127.8,219.6,131.1z"/>
			<path d="M237.3,120.2c-5.1,3.3,0.9,11.5,5.1,8.4C246.2,125.7,242.4,116.8,237.3,120.2z"/>
			<g>
				<g>
					<path d="M233.5,120.7c-5.9,1.6-14.7,10.1-14.2,15.2c0.2,1.5,1.1,2.7,2.6,3.2c0.5,0.2,1.1,0.2,1.7,0.2c4.8,0,12.7-4.6,15.9-8.2
						c2.8-3,2.6-5.4,2-6.9C240.1,121,237.1,119.7,233.5,120.7z M233.8,129.6c-3.2,2.5-7,4.1-9.1,4.6c1.4-2.8,6.5-7.9,10.3-8.7
						c0.3-0.1,0.5-0.1,0.7-0.1c0.7,0,0.9,0.3,1.1,0.8C236.8,126.5,236.2,127.7,233.8,129.6z"/>
					<path class="head-st6" d="M221.8,135.6c0.5,4.6,19.6-5.3,17.4-10.3C235.8,117.4,221.4,131,221.8,135.6z"/>
					<path class="head-st7" d="M224.4,134c0.3,3.2,14.3-3.8,12.7-7.2C234.7,121.4,224.1,130.9,224.4,134z"/>
				</g>
			</g>
		</g>
		<g>
			<path d="M231,169.9c-5.9,1.4-3,11.1,2,9.6C237.6,178.1,237,168.5,231,169.9z"/>
			<path d="M251.2,165.6c-5.9,1.4-3,11.1,2,9.6C257.8,173.8,257.2,164.1,251.2,165.6z"/>
			<g>
				<g>
					<path d="M247.6,164.7c-6.1-0.5-17.2,4.6-18.4,9.6c-0.4,1.5,0.2,2.9,1.4,3.9c1.3,1,3.5,1.4,6.1,1.4c4.5,0,10.1-1.3,13.2-3
						c3.6-1.9,4.3-4.2,4.1-5.8C253.8,167.2,251.4,165,247.6,164.7z M245,173.1c-3.9,1.3-8,1.5-10.1,1.3c2.3-2.1,8.8-5.3,12.6-4.7
						c1.3,0.2,1.4,0.6,1.5,1.3C248.8,171.3,247.8,172.2,245,173.1z M249,171C249,171,249,171,249,171C249,171,249,171,249,171z"/>
					<path class="head-st6" d="M231.7,174.8c-1.1,4.5,20.2,1.6,19.9-3.9C250.9,162.4,232.7,170.3,231.7,174.8z"/>
					<path class="head-st7" d="M234.6,174.2c-0.8,3.1,14.7,1.2,14.4-2.6C248.5,165.8,235.3,171.1,234.6,174.2z"/>
				</g>
			</g>
		</g>
	</g>
	<g>
		<g>
			<path class="head-st8" d="M120,108.8c-6.3-1.8-13.3,4.1-15.7,13.2c-2.4,9,0.8,17.8,7,19.6c6.2,1.7,13.3-4.1,15.7-13.2
				C129.5,119.3,126.3,110.5,120,108.8z"/>
			<path d="M121,106.9c-5.5-1.4-12.2,4.4-15,12.9c-2.8,8.4-0.7,16.4,4.8,17.7c5.5,1.4,12.2-4.4,15-12.8
				C128.6,116.1,126.4,108.2,121,106.9z"/>
			<path class="head-st9" d="M117.6,111.2c-1.6-0.8-4.1,0.4-5.5,2.6c-1.4,2.2-1.3,4.6,0.2,5.3c1.6,0.7,4-0.5,5.5-2.6
				C119.3,114.3,119.2,111.9,117.6,111.2z"/>
			<path class="head-st9" d="M118.5,126.7c-1.4-0.6-3.4,0.4-4.6,2.2c-1.2,1.9-1.1,3.9,0.2,4.5c1.4,0.6,3.4-0.4,4.6-2.2
				C119.9,129.4,119.8,127.4,118.5,126.7z"/>
		</g>
		<g>
			<path class="head-st8" d="M173.6,111.4c-7.8-0.9-15,7.6-16.1,18.8c-1.1,11.2,4.5,21.1,12.3,21.9c7.8,0.8,15-7.6,16.1-18.8
				C187,122.1,181.5,112.3,173.6,111.4z"/>
			<path d="M174.4,109c-6.8-0.5-13.6,7.7-15.3,18.3c-1.7,10.6,2.5,19.6,9.2,20.1c6.8,0.5,13.6-7.7,15.3-18.3
				C185.4,118.5,181.2,109.5,174.4,109z"/>
			<path class="head-st9" d="M171.1,112.5c-2.1-0.6-4.7,1.3-6,4.2c-1.3,2.9-0.6,5.7,1.4,6.3c2.1,0.6,4.7-1.4,6-4.2
				C173.8,115.9,173.1,113.1,171.1,112.5z"/>
			<path class="head-st9" d="M175.3,130.9c-1.7-0.5-4,1.1-5.1,3.6c-1.1,2.5-0.5,4.9,1.2,5.3c1.7,0.5,4-1.2,5.1-3.6
				C177.5,133.8,177,131.4,175.3,130.9z"/>
		</g>
	</g>
	<g>
		<path class="head-st3" d="M139.7,141.3c-9.8-0.3-20.1,1.7-23.5,5.6c-7.2,8.3,6.4,32.5,19,32.9c13.3,0.4,25.4-14.9,26.5-28.7
			C162.1,145.9,151.6,141.7,139.7,141.3z"/>
		<g>
			<g>
				<polygon points="129.1,172.3 129.1,172.3 129.1,172.3 				"/>
				<path d="M133.6,133.8c-9-0.3-21.1,1.3-25.6,6.5c-3.5,4-3.6,10.9-0.1,18.7c3.8,8.8,12.1,18.4,21.1,18.7h0c0.2,0,0.4,0,0.6,0
					c14.8,0,27.6-16.6,28.7-31.2c0.1-1.3-0.2-3.3-2-5.4C152.5,137,143.6,134.1,133.6,133.8z M129.1,172.3L129.1,172.3L129.1,172.3
					c-5.4-0.2-12.6-6.9-16.3-15.4c-2.5-5.7-2.8-10.6-0.7-13c2.6-2.9,11.7-4.9,21.4-4.6c9.3,0.3,16.4,2.9,18.7,5.5
					c0.5,0.5,0.7,1,0.7,1.4C151.8,158.3,141.1,172.7,129.1,172.3z"/>
				<path class="head-st10" d="M133.5,136.5c-9.8-0.3-20.1,1.7-23.5,5.6c-7.2,8.3,6.4,32.5,19,32.9c13.3,0.4,25.4-14.9,26.5-28.7
					C155.9,141.1,145.4,136.9,133.5,136.5z"/>
				<path class="head-st11" d="M113.6,143.7c2.4,7.5,9.2,15.7,15.6,15.9c8.4,0.3,16.2-7.4,19.4-16.1C149.5,141.4,112.3,139.7,113.6,143.7
					z"/>
			</g>
		</g>
	</g>
</g>
</svg>
