<?xml version="1.0" encoding="utf-8"?>
<!-- Generator: Adobe Illustrator 26.0.3, SVG Export Plug-In . SVG Version: 6.00 Build 0)  -->
<svg version="1.1" id="Layer_1" xmlns="http://www.w3.org/2000/svg" xmlns:xlink="http://www.w3.org/1999/xlink" x="0px" y="0px"
	 viewBox="0 0 384 400" style="enable-background:new 0 0 384 400;" xml:space="preserve">
<style type="text/css">
	.head-st0{fill:#E3DEC7;}
	.head-st1{fill:#FCF7DD;}
	.head-st2{fill:#ED8E8E;}
	.head-st3{fill:#FFFFFF;}
	.head-st4{opacity:0.5;}
	.head-st5{fill:#A8A8A8;}
	.head-st6{fill:#878787;}
	.head-st7{opacity:0.2;fill:#FFFFFF;}
	.head-st8{opacity:0.44;fill:#F5F5F6;}
	.head-st9{fill:#57143A;}
	.head-st10{fill:#801D55;}
	.head-st11{fill:#E39696;}
	.head-st12{opacity:0.16;fill:#F8C4C6;}
	.head-st13{fill:#D6D6D6;}
	.head-st14{opacity:0.5;fill:#FFFFFF;}
</style>
<g>
	<g>
		<g>
			<path d="M133.2,19.9l-0.5-0.6c-0.2-0.3-0.5-0.6-0.7-0.9l-2.5-3.2c-3.1-3.9-6.4-6.2-9.8-7.1c-14.2-3.4-30.9,6.4-35.3,9.2
				c-5.5-2.1-27.9-9.7-37.6,0.4c-6.7,6.9-5.7,19.5,2.9,38.7C55.4,69,66.9,72.6,72.2,72.8l0.1,0l0.1,0c3.4-0.2,6.2-1.5,8.7-3.9
				c6.9-3.4,13.8-10.3,19.3-16l29.6,59.5l4.2-2.1l-32.6-65.6l-2.3,2.5c-5.6,6-13.3,14.2-20.6,17.7l-0.4,0.2l-0.3,0.3
				c-1.7,1.8-3.5,2.6-5.8,2.8c-4.3-0.2-13.6-3.3-18.2-13.6c-7.5-16.7-8.8-28.2-3.8-33.4c7.2-7.4,26.7-1.7,33.6,1.2l1.2,0.5l1.1-0.7
				c0.2-0.1,18.5-12.6,32.5-9.2c1.3,0.3,2.6,1,4,2.1l3.1,3.4c16.7,18.3,41.5,72,41.7,72.6l4.3-2C170.8,86.8,149.9,41.6,133.2,19.9
				L133.2,19.9z"/>
		</g>
		<g>
			<path class="head-st0" d="M113.4,23.6C112,23.6,93.7,34,93.7,34l38.4,77.2L162,93.6l-30.3-51.7C131.8,41.8,114.8,23.6,113.4,23.6z"/>
			<path class="head-st0" d="M119.2,10.4C103.9,6.8,84.8,20,84.8,20S24.9-4.6,51.9,55.4c17.2,38.3,52-16,62.7-18.7
				c13-3.2,45.6,54.6,45.6,54.6l9.5-1.5C169.6,89.8,134.7,14.2,119.2,10.4z"/>
			<path class="head-st1" d="M119.2,10.4C103.9,6.8,84.8,20,84.8,20S24.9-4.6,51.9,55.4c5,11.1,15.1,14.8,20.4,15
				c9.6-0.6,12.8-11.3,20.7-31.6c9.8-25,32.7-22.4,34.6-22.2C125.2,13.6,122.4,11.2,119.2,10.4z"/>
			<path class="head-st0" d="M72.8,53.4c-1.7-16.1,12-33.4,12-33.4C65.5,38.6,72.8,53.4,72.8,53.4z"/>
		</g>
		<g>
			<path d="M117.2,32.4c-5.4-3.6-9.3-4.8-12.2-3.8c-1.4,0.5-2.4,1.5-2.8,2.9c-1.1,3.5,0.2,11.3,20,41.3c10.8,16.3,22,31.5,22.2,31.6
				l1.4,1.9l19.9-13.5l-0.1-1.5C164.4,78.3,134.9,44,117.2,32.4z M146.9,99.5c-3.4-4.6-12.3-16.9-20.8-29.8
				c-18.6-28.2-19.4-35.1-19.3-36.5c0.8,0,2.9,0.2,7.6,3.3c16.9,11.1,43,42,45.9,53.9L146.9,99.5z"/>
			<path class="head-st2" d="M105.8,30.9c-10.3,3.5,38.4,64.6,38.4,64.6l18.9-3.9C161.8,76.5,116.6,27.3,105.8,30.9z"/>
			<path d="M152.4,50.3c-21.9-39.7-30-41.7-32.7-42.3c-14.2-3.4-30.8,6.4-35.3,9.2c-5.6-2.1-28-9.6-37.7,0.4
				c-6.7,6.9-5.8,19.6,2.8,38.8c3.9,8.6,9.1,13.6,15.4,14.8c1,0.2,2.1,0.3,3.1,0.3c12,0,24.7-12.3,35-22.3c4.8-4.7,9.8-9.5,12-10.1
				c6.9-1.7,27.5,26.4,42.8,53.4l0.9,1.5l14.5-2.3l-1.4-3C171.8,88.6,163,69.5,152.4,50.3z M161.4,88.6c-2.4-4.1-9.3-15.8-17.2-27.2
				c-16.1-23.1-24-27.3-28.5-27.3c-0.7,0-1.3,0.1-1.8,0.2c-3.4,0.8-7.4,4.7-14.3,11.4c-9.8,9.6-23.3,22.7-33.7,20.7
				c-4.6-0.9-8.6-4.9-11.8-12c-7.5-16.6-8.8-28.1-3.8-33.3c7.1-7.4,26.5-1.6,33.4,1.2l1.3,0.5l1.1-0.8c0.2-0.1,18.4-12.6,32.4-9.2
				c10.1,2.4,33.8,46,47.3,75L161.4,88.6z"/>
			<path class="head-st0" d="M119.2,10.4C103.9,6.8,84.8,20,84.8,20S24.9-4.6,51.9,55.4c17.2,38.3,52-16,62.7-18.7
				c13-3.2,45.6,54.6,45.6,54.6l9.5-1.5C169.6,89.8,134.7,14.2,119.2,10.4z"/>
			<path class="head-st1" d="M119.2,10.4C103.9,6.8,84.8,20,84.8,20S24.9-4.6,51.9,55.4c5,11.1,12.6,15.4,17.9,15
				c14.4-1.2,15.4-11.3,23.3-31.6c9.8-25,32.7-22.4,34.6-22.2C125.2,13.6,122.4,11.2,119.2,10.4z"/>
			<path class="head-st0" d="M72.8,53.4c-1.7-16.1,12-33.4,12-33.4C65.5,38.6,72.8,53.4,72.8,53.4z"/>
		</g>
	</g>
	<g>
		<g>
			<g>
				<path class="head-st3" d="M132.7,189.6l-0.7,3.3l1.8,24.3c0,0,20.5,8.9,33,0.1c0-5.3-1.8-26.5-1.8-26.5L132.7,189.6z"/>
				<path d="M164.8,189.8c-0.6,0-1,0.5-0.9,1.1c0,0.2,1.7,20,1.8,25.9c-10.8,7.1-27.8,1-31.1-0.3L133,193l0.7-3.1
					c0.1-0.5-0.2-1.1-0.8-1.2c-0.5-0.1-1.1,0.2-1.2,0.8l-0.7,3.3c0,0.1,0,0.2,0,0.3l1.8,24.3c0,0.4,0.3,0.7,0.6,0.8
					c0.6,0.2,9.6,4.1,19.4,4.1c5,0,10.2-1,14.6-4.1c0.3-0.2,0.4-0.5,0.4-0.8c0-5.3-1.8-25.8-1.8-26.6
					C165.9,190.1,165.4,189.7,164.8,189.8z"/>
			</g>
			<g class="head-st4">
				<path class="head-st5" d="M132.5,188.7l-0.7,3.3l0.6,9.6c4-0.9,20.9,0.6,21.5,2.1c1.7,4.2,1.9,8.9,2,13.5c0,0.8,0,1.6,0,2.4
					c3.8-0.2,7.4-1.2,10.6-3.3c0-5.3-1.8-26.4-1.8-26.4L132.5,188.7z"/>
			</g>
			<polygon points="144.9,208.9 147.1,197.4 143,197.2 			"/>
			<g>
				<path class="head-st6" d="M154.3,190.4l3.3,30.2c2.5-0.5,7.1-1.8,9.2-3.3c0-5.3-1.8-26.5-1.8-26.5L154.3,190.4z"/>
				<path d="M164.9,189.8l-10.7-0.4c-0.3,0-0.6,0.1-0.8,0.3s-0.3,0.5-0.3,0.8l3.3,30.2c0,0.3,0.2,0.5,0.4,0.7
					c0.2,0.1,0.4,0.2,0.6,0.2c0.1,0,0.1,0,0.2,0c2.6-0.5,7.3-1.9,9.5-3.4c0.3-0.2,0.4-0.5,0.4-0.8c0-5.3-1.8-25.8-1.8-26.6
					C165.9,190.2,165.5,189.8,164.9,189.8z M158.4,219.4l-3.1-27.9l8.6,0.3c0.3,3.9,1.7,19.8,1.7,25
					C164,217.8,160.8,218.8,158.4,219.4z"/>
			</g>
		</g>
		<g>
			<g>
				<path d="M251.1,98.2c-19.4-18.4-44.7-28.2-71.5-27.5c0,0,0,0,0,0c-26.2,0.7-49.5,11.4-67.3,31c-16.7,18.4-27.1,43.5-29.3,70.6
					c-0.1,0.9,0.1,1.8,0.5,2.7c-0.2,1.9-0.4,3.7-0.6,5.5c-0.2,2.4,1.2,4.6,4.2,6.5c10.6,6.7,46.2,11.8,86.5,12.3c2.3,0,4.6,0,6.8,0
					c41.8,0,75.3-5.1,90.5-13.9c7.3-4.2,10.9-9.4,10.7-15.4c0-1.2-0.1-2.3-0.2-3.5C280.9,140.6,270.1,116.3,251.1,98.2z
					 M268.6,181.1c-15.3,8.8-50.7,13.7-94.7,13.2c-38.9-0.5-74.2-5.3-83.9-11.5c-1.6-1-1.9-1.7-1.9-1.9c0.2-1.9,0.4-4,0.6-6.1
					c0.1-0.6-0.1-1.2-0.4-1.7c-0.1-0.2-0.2-0.3-0.2-0.4c4.4-55.8,42.2-95.7,91.7-97h0c25.4-0.7,49.5,8.6,67.9,26.1
					c18.1,17.2,28.3,40.3,28.9,65c0,0,0,0.1,0,0.1c0.1,1.1,0.2,2.2,0.2,3.3C276.9,174.2,274.2,177.9,268.6,181.1z"/>
				<path class="head-st2" d="M179.9,76c-53.4,1.4-90.2,51.4-94.4,104.7c-1.5,18.7,195.3,27.7,193.7-10.5
					C277.1,116.7,233.4,74.5,179.9,76z"/>
				<path class="head-st1" d="M179.7,73.2c-53.4,1.4-89.9,46-94.2,99.3c-1.5,18.7,194,24.8,193.5-5.2C278.2,113.9,233.2,71.8,179.7,73.2z
					"/>
				<path class="head-st0" d="M235.8,89.2c-1.3,2.4-2.7,4.7-4.2,6.9c-4.7,7.2-10,14-15.8,20.4c-12.1,13.2-26.2,25.2-42.1,33.5
					c-7.4,3.9-15,6.8-23.2,8.5c-9.1,1.9-18.3,2.6-27.6,2.5c-11.8-0.1-23.7-1.3-35.3-3.6c-1,5-1.7,10-2.1,15.2
					c-1.5,18.7,194,24.8,193.5-5.2C278.6,134.6,261.4,106,235.8,89.2z"/>
			</g>
		</g>
		<g>
			<g>
				<path class="head-st7" d="M123.4,115.2c-6.3-1.6-13.1,4.6-15.2,13.7c-2.1,9.1,1.4,17.8,7.7,19.3c6.3,1.5,13.2-4.6,15.2-13.7
					C133.2,125.4,129.7,116.7,123.4,115.2z"/>
				<path d="M124.3,113.3c-5.5-1.2-12,4.8-14.5,13.4c-2.5,8.5-0.1,16.4,5.4,17.5c5.5,1.2,12-4.8,14.5-13.4
					C132.2,122.3,129.8,114.4,124.3,113.3z"/>
				<path class="head-st8" d="M121.1,117.7c-1.6-0.7-4,0.6-5.4,2.8c-1.4,2.3-1.2,4.6,0.4,5.3c1.6,0.7,4-0.6,5.4-2.8
					C122.8,120.7,122.6,118.4,121.1,117.7z"/>
				<path class="head-st8" d="M122.5,133.2c-1.4-0.6-3.4,0.5-4.6,2.4c-1.2,1.9-1,3.9,0.4,4.5c1.4,0.6,3.4-0.5,4.6-2.4
					C124,135.8,123.8,133.8,122.5,133.2z"/>
			</g>
			<g>
				<path class="head-st7" d="M177.1,116c-7.8-0.6-14.7,8.1-15.4,19.3c-0.7,11.2,5.2,20.9,13.1,21.5c7.8,0.6,14.8-8.1,15.4-19.4
					C190.8,126.2,184.9,116.6,177.1,116z"/>
				<path d="M177.7,113.6c-6.8-0.3-13.3,8.2-14.6,18.8c-1.3,10.7,3.1,19.5,9.9,19.8c6.8,0.3,13.4-8.2,14.7-18.8
					C189,122.7,184.5,113.8,177.7,113.6z"/>
				<path class="head-st8" d="M174.6,117.2c-2.1-0.5-4.7,1.5-5.9,4.4c-1.2,3-0.4,5.7,1.6,6.3c2.1,0.5,4.7-1.5,5.8-4.4
					C177.3,120.5,176.6,117.7,174.6,117.2z"/>
				<path class="head-st8" d="M179.4,135.4c-1.8-0.4-4,1.3-5,3.8c-1,2.5-0.4,4.9,1.3,5.3c1.8,0.4,4-1.3,4.9-3.8
					C181.7,138.2,181.1,135.9,179.4,135.4z"/>
			</g>
		</g>
		<g>
			<path class="head-st5" d="M145,147.1c-9.8,0.1-20.1,2.4-23.3,6.4c-6.9,8.5,7.6,32.3,20.1,32.2c13.3,0,24.9-15.8,25.5-29.6
				C167.6,150.9,157,147,145,147.1z"/>
			<g>
				<g>
					<path d="M138.7,139.8c-9,0.1-21,2-25.4,7.4c-3.4,4.2-3.2,11,0.5,18.7c4.1,8.7,12.7,17.9,21.7,17.9c0,0,0,0,0,0
						c15.1,0,27.6-17.4,28.2-32.2c0.1-1.3-0.3-3.3-2.2-5.3C157.7,142.2,148.7,139.7,138.7,139.8z M135.5,178.4
						C135.5,178.4,135.5,178.4,135.5,178.4c-5.5,0-12.8-6.5-16.8-14.9c-2.7-5.6-3.1-10.5-1.2-12.9c2.4-3,11.6-5.3,21.2-5.4
						c0.1,0,0.2,0,0.3,0c9.2,0,16.3,2.4,18.6,4.8c0.5,0.5,0.7,0.9,0.7,1.3C157.8,163.5,147.5,178.3,135.5,178.4z"/>
					<path class="head-st9" d="M138.7,142.5c-9.8,0.1-20.1,2.4-23.3,6.4c-6.9,8.5,7.6,32.3,20.1,32.2c13.3,0,24.9-15.8,25.5-29.6
						C161.2,146.3,150.6,142.4,138.7,142.5z"/>
					<path class="head-st10" d="M119.1,150.3c2.6,7.4,9.7,15.4,16.2,15.4c8.4,0,15.9-8,18.8-16.8C154.8,146.7,117.6,146.4,119.1,150.3z"
						/>
				</g>
			</g>
		</g>
	</g>
	<g>
		<g>
			<path d="M295.7,3.3c-40.1,7.7-73,101.6-74.4,105.6l4.5,1.6c0.3-1,33.4-95.3,70.8-102.5c9.5-1.8,18.3,2.2,27,12.2
				c3.6,4.2,6.9,12.1,6.9,16.6c0,1.1-0.1,2.4-0.3,3.9l0,0.1c-3,27.6-66.7,79-83.6,90.3l2.7,4c12.7-8.5,82.1-61.8,85.7-93.7
				c0.3-1.8,0.4-3.2,0.4-4.6c-0.1-5.7-3.7-14.6-8.1-19.7C317.4,5.8,306.8,1.1,295.7,3.3z"/>
			<g>
				<path class="head-st1" d="M223.5,109.7l14.5,0.6c3.2,3.1,0.5,14,3.8,17c4.8-2.5,91.3-56.3,91-90.5c0-5.2-3.6-13.6-7.5-18.1
					C275.2-39.6,223.5,109.7,223.5,109.7z"/>
				<path class="head-st0" d="M226.6,112.9c5.4,4.9,10.6,10,15.9,15c1.8,1.7,3.6,3.4,5.4,5.2C267.6,119.8,353,53.5,327,23.3
					C283-27.9,234.3,87.7,226.6,112.9z"/>
				<path class="head-st11" d="M295.8,37.7c-23.2-13.9-47.1,70.7-47.1,70.7C290.4,85.6,323.2,54.1,295.8,37.7z"/>
			</g>
			<g>
				<path class="head-st1" d="M223.5,109.7l14.5,0.6c3.2,3.1,0.5,14,3.8,17c4.8-2.5,91.3-56.3,91-90.5c0-5.2-3.6-13.6-7.5-18.1
					C275.2-39.6,223.5,109.7,223.5,109.7z"/>
				<path class="head-st12" d="M226.6,112.9c5.4,4.9,10.6,10,15.9,15c1.8,1.7,3.6,3.4,5.4,5.2C267.6,119.8,353,53.5,327,23.3
					C283-27.9,234.3,87.7,226.6,112.9z"/>
				<path d="M297,35.5c-3.6-2.2-7.5-2.5-11.5-0.9c-20.8,8.2-38.6,70.4-39.4,73l-1.6,5.7l5.2-2.8c13.6-7.4,58-33.4,58.5-57.3
					C308.5,46,304.7,40.1,297,35.5z M252.8,103.1c6.3-20.2,20.8-58.4,34.6-63.9c1-0.4,2-0.6,3-0.6c1.4,0,2.7,0.4,4,1.2
					c6.1,3.6,9,8,8.9,13.3C303.1,66.2,283.4,85.6,252.8,103.1z"/>
				<path class="head-st11" d="M295.8,37.7c-23.2-13.9-47.1,70.7-47.1,70.7C290.4,85.6,323.2,54.1,295.8,37.7z"/>
			</g>
		</g>
		<path d="M250.5,143.6c0.1,0.1,0.2,0.2,0.3,0.3l-0.3-1.3C250.5,143,250.5,143.3,250.5,143.6z"/>
		<path d="M243.6,127.6c-3.8-4.5-7.8-8.8-12.3-12.6c-2.3-1.9-4.6-3.7-7.2-5.3c-1.3-0.8-2.6-1.5-4-2.2c-1.4-0.7-2.8-1.2-4.1-1.7
			c-5.4-2.1-10.8-4.2-16.3-5.9c4.9,3.2,9.9,6.1,15,8.9c1.3,0.7,2.5,1.3,3.6,2.1c1.2,0.7,2.3,1.5,3.4,2.4c2.2,1.7,4.3,3.5,6.4,5.4
			c4.1,3.8,8,8,11.8,12.3c3.7,4.2,7.2,8.5,10.7,12.8c0-0.3,0-0.6,0-0.9l0.3,1.3c-0.1-0.1-0.2-0.2-0.3-0.3c0,0.4,0,0.7,0,1.1
			c0.1,0.7,0.1,1.4,0.1,2c0.1,0.7,0.1,1.4,0.3,2.1c0.1,0.7,0.2,1.4,0.4,2.1c0.3-0.6,0.6-1.3,0.9-1.9c0.3-0.6,0.5-1.3,0.7-1.9
			c0.3-0.6,0.4-1.3,0.6-2c0.2-0.7,0.4-1.3,0.6-2l0.1-0.5l-0.5-0.7C250.7,136.8,247.3,132.1,243.6,127.6z"/>
		<g>
			<path d="M205.9,116c-4.4,4.2,3,11.1,6.6,7.3C215.7,119.8,210.3,111.7,205.9,116z"/>
			<path d="M221.1,101.9c-4.4,4.2,3,11.1,6.6,7.3C230.9,105.7,225.5,97.6,221.1,101.9z"/>
			<g>
				<g>
					<path d="M226.1,105.1c-2-2.9-5.2-3.6-8.5-2c-5.5,2.6-12.5,12.7-11.1,17.5c0.4,1.4,1.6,2.4,3.2,2.6c0.2,0,0.4,0,0.6,0
						c4.6,0,12.5-6.6,15.3-11.1C227.6,108.6,227,106.4,226.1,105.1L226.1,105.1z M219.6,111.7c-2.7,3-6.1,5.4-8.1,6.2
						c0.9-3,4.9-9,8.5-10.5c0.4-0.2,0.7-0.2,1-0.2c0.5,0,0.7,0.2,1,0.6C221.9,108.2,221.5,109.5,219.6,111.7z"/>
					<path class="head-st13" d="M208.9,119.9c1.3,4.4,18.3-8.9,15.1-13.4C219.3,99.5,207.6,115.5,208.9,119.9z"/>
					<path class="head-st14" d="M211.1,117.9c0.9,3.1,13.3-6.4,11.1-9.5C218.9,103.6,210.2,114.9,211.1,117.9z"/>
				</g>
			</g>
		</g>
		<g>
			<path d="M225.2,129c-4.4,4.2,3,11.1,6.6,7.3C235,132.8,229.6,124.8,225.2,129z"/>
			<path d="M240.5,114.9c-4.4,4.2,3,11.1,6.6,7.3C250.3,118.7,244.9,110.6,240.5,114.9z"/>
			<g>
				<g>
					<path d="M236.9,116.1c-5.5,2.6-12.5,12.7-11.1,17.5c0.4,1.4,1.6,2.4,3.2,2.6c0.2,0,0.4,0,0.6,0c4.6,0,12.5-6.6,15.3-11.1
						c2.1-3.5,1.5-5.8,0.6-7.1C243.5,115.2,240.3,114.5,236.9,116.1z M238.9,124.8c-2.7,3-6.1,5.4-8.1,6.2c0.9-3,4.9-9,8.5-10.5
						c0.4-0.2,0.7-0.2,1-0.2c0.5,0,0.7,0.2,1,0.6C241.3,121.2,240.9,122.6,238.9,124.8z"/>
					<path class="head-st13" d="M228.3,132.9c1.3,4.4,18.3-8.9,15.1-13.4C238.6,112.5,226.9,128.5,228.3,132.9z"/>
					<path class="head-st14" d="M230.5,131c0.9,3.1,13.3-6.4,11.1-9.5C238.2,116.6,229.6,127.9,230.5,131z"/>
				</g>
			</g>
		</g>
		<g>
			<path d="M237.3,144.1c-4.7,3.9,2.2,11.3,6,7.8C246.8,148.6,242,140.2,237.3,144.1z"/>
			<path d="M253.6,131.4c-4.7,3.9,2.2,11.3,6,7.8C263.1,135.9,258.3,127.5,253.6,131.4z"/>
			<g>
				<g>
					<path d="M250,132.1c-5.7,2.2-13.5,11.7-12.4,16.6c0.3,1.5,1.4,2.6,2.9,2.9c0.3,0.1,0.6,0.1,1,0.1c4.7,0,12.7-5.8,15.7-9.9
						c2.4-3.3,2-5.7,1.2-7C256.6,131.7,253.5,130.8,250,132.1z M251.3,140.9c-2.9,2.8-6.5,4.9-8.5,5.5c1.1-2.9,5.6-8.6,9.3-9.8
						c0.4-0.1,0.7-0.2,0.9-0.2c0.5,0,0.8,0.3,1,0.7C253.9,137.5,253.4,138.8,251.3,140.9z"/>
					<path class="head-st13" d="M240,148.2c1,4.5,18.9-7.4,16.2-12.2C251.9,128.6,239,143.7,240,148.2z"/>
					<path class="head-st14" d="M242.4,146.4c0.7,3.1,13.8-5.3,11.8-8.6C251.2,132.7,241.7,143.3,242.4,146.4z"/>
				</g>
			</g>
		</g>
	</g>
</g>
</svg>
