<?xml version="1.0" encoding="utf-8"?>
<!-- Generator: Adobe Illustrator 26.0.3, SVG Export Plug-In . SVG Version: 6.00 Build 0)  -->
<svg version="1.1" id="Layer_1" xmlns="http://www.w3.org/2000/svg" xmlns:xlink="http://www.w3.org/1999/xlink" x="0px" y="0px"
	 viewBox="0 0 384 400" style="enable-background:new 0 0 384 400;" xml:space="preserve">
<style type="text/css">
	.head-st0{fill:#AB2C2F;}
	.head-st1{opacity:0.18;fill:#573314;}
	.head-st2{fill:#D1C49D;}
	.head-st3{fill:#C73337;}
</style>
<g>
	<g>
		<path d="M284.4,166c-7.1-2.3-17.7-2.3-27.3,10.7l-1.1,1.4l1.1,1.4c1,1.3,21,25.3,43.2,25.3c4.9,0,10-1.2,14.9-4.1
			c0.2,0,0.4-0.1,0.4-0.1l1.6-0.6l0-1.6C317.2,196,301.8,171.6,284.4,166z M261.9,178c5.2-6.3,11-9.2,17.3-8.4
			c14.7,1.7,28.7,21.5,32.5,27.9C290.9,208.1,267.4,184.1,261.9,178z"/>
		<path class="head-st0" d="M258.9,178.1c0,0,29.7,36.4,55.9,20.3C317.2,201.4,284.4,143.8,258.9,178.1z"/>
		<path class="head-st1" d="M261.4,176.3c0,0,24,26.9,41.9,17.7C305.4,196.2,277.7,154.5,261.4,176.3z"/>
	</g>
	<g>
		<path d="M320.2,163.9c-4.7-6.8-10.5-10.7-17.4-11.5c-14.6-1.7-28.3,11.2-28.8,11.7l-0.8,0.8l0.1,1.2c0.8,10.1,4.5,16.1,11.1,17.9
			c1.3,0.4,2.7,0.5,4.1,0.5c13.4,0,30.6-14.8,32.2-17c1.1-1.5,0.4-2.8,0.1-3.1C320.5,164.3,320.4,164.1,320.2,163.9z M285.5,179.4
			c-4.1-1.2-6.6-5.3-7.4-12.4c3-2.6,13.6-10.9,24.1-9.7c5.1,0.6,9.6,3.5,13.4,8.5C311.1,170,294.9,182,285.5,179.4z"/>
		<g>
			<path class="head-st2" d="M318.5,165.8c-16.5-25-42.9,0.1-42.9,0.1C278.5,202.9,321.6,165,318.5,165.8z"/>
			<path d="M319.3,164.8c-4.5-6.6-10.1-10.4-16.7-11.1c-14-1.6-27.3,10.9-27.8,11.4l-0.4,0.4l0,0.6c0.8,9.5,4.2,15.2,10.2,16.8
				c1.2,0.3,2.5,0.5,3.9,0.5c12.9,0,29.5-14.4,31-16.5c0.6-0.8,0.3-1.4,0.1-1.7C319.6,165,319.5,164.9,319.3,164.8z M285.6,180.6
				c-5-1.2-8-6-8.7-14.2c2.3-2.1,13.9-11.7,25.5-10.4c5.8,0.7,10.8,4,14.8,9.9C314.1,169.2,296.5,183.3,285.6,180.6z"/>
		</g>
		<path class="head-st1" d="M305.7,168.3c-10.6-16-27.5,0.1-27.5,0.1C280.1,192,307.6,167.7,305.7,168.3z"/>
	</g>
	<path d="M260.1,119.1c-27.4-22.2-120.3-17.5-144.8-13c-27.1,5-33,46.9-33.3,48.7l-0.7,4.9l4.3-2.5c27.2-15.8,188.7,19.2,190.3,19.6
		l2.3,0.5l0.6-2.3C279,174.7,287.3,141.1,260.1,119.1z M274.7,171.5c-16.8-3.6-110.2-23.1-161.7-23.1c-10.5,0-19.2,0.8-25.2,2.7
		c2.2-10.5,9.6-36.8,28.6-40.3c26.4-4.8,115.8-8.2,140.8,12C278.1,139.9,276,164,274.7,171.5z"/>
	<path class="head-st0" d="M258.6,121c-26.3-21.2-117.1-17.2-142.8-12.5c-25.7,4.7-31.3,46.7-31.3,46.7c28.3-16.5,192.1,19.3,192.1,19.3
		S284.9,142.2,258.6,121z"/>
	<path class="head-st3" d="M231.3,114.9c0,0-0.1,0-0.2-0.1C231.3,114.8,231.3,114.9,231.3,114.9z"/>
	<path class="head-st3" d="M201.1,116.2c14.8-5.7,28.4-1.9,30.1-1.4c-2.4-0.7-31-9.3-62.1-7c-32.4,2.4-54.8,5-48.1,7.3
		c7.9,2.8,31.9-5.6,58.4,5.9c26.6,11.5,73,2,73,2S185.2,122.2,201.1,116.2z"/>
	<g>
		<path class="head-st2" d="M112,108.6c-8.4,15-13.2,33.3-15.2,42.8c3.7-0.5,7.8-0.8,12.4-0.9c3.7-14,14.4-32.8,21.8-44.9
			c-6.2,0.6-11.4,1.3-15.1,2C114.5,107.8,113.2,108.2,112,108.6z"/>
		<path d="M115.6,106.4c-1.3,0.2-2.7,0.6-4,1.1l-0.4,0.2l-0.2,0.4c-8.5,15.1-13.3,33.5-15.4,43.1l-0.4,1.7l1.7-0.2
			c3.5-0.5,7.6-0.8,12.3-0.8l0.9,0l0.2-0.9c3.6-13.5,13.8-31.7,21.7-44.6l1.3-2.1l-2.4,0.2C124.7,105,119.5,105.7,115.6,106.4z
			 M108.2,149.3c-3.6,0.1-6.9,0.3-9.9,0.6c2.2-9.8,6.8-26.5,14.5-40.4c1.1-0.4,2.1-0.6,3.2-0.8c3.3-0.6,7.6-1.2,12.6-1.7
			C121.1,119.6,111.9,136.4,108.2,149.3z"/>
	</g>
	<g>
		<path class="head-st2" d="M147.5,104.4c-8.7,12.5-17.4,30.2-13,47c0.6,0,1.1,0.1,1.7,0.1c8.1,0.2,30.7,1.2,30.7,1.2
			s-13.5-28.5,5.6-48.9C163.8,103.8,155.3,104,147.5,104.4z"/>
		<path d="M147.5,103.2l-0.6,0l-0.3,0.5c-8.5,12.3-17.7,30.6-13.2,48l0.2,0.8l2.6,0.2c8,0.2,30.5,1.2,30.7,1.2l2,0.1l-0.9-1.8
			c-0.1-0.3-12.9-28,5.4-47.6l1.9-2l-2.8,0C164.2,102.6,155.7,102.8,147.5,103.2z M165.1,151.4c-5.6-0.2-22.2-1-28.8-1.1l-0.8-0.1
			c-3.7-16.1,4.7-33,12.7-44.7c7.2-0.4,14.4-0.6,21.7-0.6C155.6,122.6,162.6,145,165.1,151.4z"/>
	</g>
	<g>
		<path class="head-st2" d="M212.3,106c-7.4-0.9-15.1-1.5-22.9-1.8c-6,15.5-10.6,34.3-8.7,52.6c10.9,1.6,21.7,3.4,31.9,5.2
			C210.8,154.9,204.9,129.4,212.3,106z"/>
		<path d="M213.5,106.3l0.4-1.4l-1.5-0.2c-7.1-0.8-14.8-1.4-23-1.8l-0.9,0l-0.3,0.8c-7.5,19.4-10.4,37.3-8.8,53.2l0.1,0.9l0.9,0.1
			c10,1.5,20.7,3.2,31.9,5.1l1.9,0.3l-0.5-1.8C211.9,154.5,206.2,129.4,213.5,106.3z M181.9,155.8c-1.4-15.1,1.5-32,8.4-50.3
			c7.2,0.3,14.1,0.9,20.5,1.6c-6.4,21.6-2,44.5,0.3,53.4C200.8,158.7,191,157.1,181.9,155.8z"/>
	</g>
	<g>
		<path class="head-st2" d="M236.9,110.5c-6.5,15.2-12.3,34.6-11.4,53.8c12,2.2,22.8,4.3,31.3,6c-2.3-9.9-5.7-31.2,0.3-51.2
			C252,115.5,245,112.7,236.9,110.5z"/>
		<path d="M258.5,118.6l-0.7-0.5c-4.9-3.5-11.8-6.5-20.6-8.9l-1-0.3l-0.4,1c-8.4,19.7-12.3,37.9-11.5,54.3l0,1l1,0.2
			c10.3,1.9,20.8,3.9,31.3,6l1.8,0.4l-0.4-1.8c-2.4-10.5-5.5-31.1,0.3-50.6L258.5,118.6z M255.1,168.7c-9.5-1.9-19.1-3.8-28.5-5.5
			c-0.5-15.5,3.2-32.8,11-51.3c7.6,2.1,13.7,4.7,18.1,7.7C250.3,138.3,252.8,157.7,255.1,168.7z"/>
	</g>
	<path class="head-st1" d="M165.8,132.5c-33.8-8.8-62.1-3.2-75.1,0.6c-4.8,11.2-6.2,22-6.2,22c28.3-16.5,192.1,19.3,192.1,19.3
		s6-23.3-8.4-43.3C262,144.8,203.1,142.2,165.8,132.5z"/>
	<g>
		<path d="M281.3,173.4c-1.2-2.8-3.5-4.8-6.5-5.4c-106.6-24.4-162-22.9-185.4-19.9c-12.6,1.6-21.9,12.2-21.7,24.7
			c0,1.6,0.2,2.9,0.6,4c2.4,6.6,16.2,6.5,19,6.5l0.4,0l0.4-0.2c60-24,164.8,5.2,185.2,11.3c0.6,0.2,1.2,0.3,1.8,0.3
			c1.5,0,2.9-0.5,4.1-1.5c1.6-1.4,2.5-3.5,2.2-5.6l-0.7-5.8C282.3,179.2,282.5,176.2,281.3,173.4z M276.7,188.2
			c0.1,0.7-0.3,1.1-0.5,1.3c-0.2,0.2-0.7,0.5-1.3,0.3c-20.4-6.1-75.6-21-127.3-21c-21.8,0-42.9,2.6-60.7,9.7
			c-6.1,0.1-13.1-1.2-13.9-3.3c-0.1-0.3-0.3-1-0.3-2.4c-0.2-10,7.3-18.5,17.4-19.8c23.2-3,77.8-4.4,183.7,19.8
			c1.4,0.3,2.5,1.3,3.1,2.6c0.6,1.3,0.5,2.8-0.3,4l-0.8,1.3L276.7,188.2z"/>
		<path class="head-st0" d="M274.3,170.3c-105.2-24.1-160.1-23-184.6-19.8c-11.2,1.5-19.8,11-19.6,22.2c0,1.3,0.2,2.4,0.5,3.2
			c1.9,5.3,16.6,4.9,16.6,4.9c60-24,161.8,3.8,186.8,11.2c2.7,0.8,5.3-1.4,5-4.2l-0.8-6.7c0,0,0.1-0.2,0.4-0.6
			C281.1,176.6,278.9,171.4,274.3,170.3z"/>
		<path class="head-st3" d="M82.5,158.8c-7.4,5.4,55-6,86-2S108.5,139.8,82.5,158.8z"/>
		<g>
			<path class="head-st2" d="M70.2,172.8c0,1.3,0.2,2.4,0.5,3.2c1.9,5.3,16.6,4.9,16.6,4.9c0.4-0.2,0.8-0.3,1.2-0.5
				c0.1-6.7,0.9-13.5,2.5-20c0.8-3.5,1.9-7,3.2-10.4c-1.6,0.2-3.1,0.3-4.4,0.5C78.5,152,69.9,161.5,70.2,172.8z"/>
			<path d="M89.6,149.3c-12,1.6-20.8,11.6-20.6,23.5c0,1.5,0.2,2.7,0.5,3.6c1.9,5.2,13.2,5.7,16.8,5.7c0.5,0,0.8,0,1,0l0.2,0
				l0.2-0.1c0.2-0.1,0.5-0.2,0.7-0.3l1.2-0.5l0-0.8c0.1-6.5,0.9-13.2,2.4-19.7c0.9-3.7,2-7.1,3.2-10.2l0.7-1.9l-2,0.2
				C92.4,149,90.9,149.1,89.6,149.3z M89.7,160.1c-1.5,6.4-2.4,13-2.5,19.4c-0.1,0-0.2,0.1-0.2,0.1c-5.4,0.1-14.1-0.9-15.3-4.1
				c-0.2-0.6-0.4-1.6-0.4-2.8c-0.2-10.6,7.8-19.6,18.5-21c0.8-0.1,1.6-0.2,2.5-0.3C91.3,154.1,90.5,157,89.7,160.1z"/>
		</g>
		<g>
			<path class="head-st2" d="M116.9,148.9c-0.5,2.5-0.9,5.1-1.2,7.6c-0.7,5.7-0.9,11.3-0.7,17c6.3-1,12.8-1.6,19.3-2
				c0.1-7.5,1.5-15,3.9-22.2C130.2,149,123.1,148.8,116.9,148.9z"/>
			<path d="M116.8,147.7l-1,0l-0.2,1c-0.5,2.8-0.9,5.4-1.2,7.7c-0.6,5.6-0.9,11.3-0.7,17.2l0,1.4l1.3-0.2c6-0.9,12.5-1.6,19.2-1.9
				l1.1-0.1l0-1.1c0.1-7.3,1.4-14.6,3.8-21.8l0.5-1.5l-1.6-0.1C130.7,147.8,123.5,147.6,116.8,147.7z M133.1,170.4
				c-5.9,0.3-11.6,0.9-17,1.7c-0.1-5.3,0.1-10.4,0.7-15.5c0.2-2,0.6-4.2,1-6.6c5.9,0,12.1,0.1,18.7,0.4
				C134.5,157.1,133.4,163.8,133.1,170.4z"/>
		</g>
		<g>
			<path class="head-st2" d="M161.2,151.1c-0.5,3.2-0.9,6.4-1.3,9.6c-0.4,3.6-0.7,7.2-0.9,10.8c9.6,0.4,19.2,1.2,28.5,2.4
				c-0.2-6.6-0.4-13.2-0.5-19.7C177.8,152.8,169.2,151.8,161.2,151.1z"/>
			<path d="M188.3,154.1l0-1l-1-0.1c-8.9-1.2-17.7-2.2-25.9-3l-1.1-0.1l-0.2,1.1c-0.5,3-0.9,6.2-1.3,9.7c-0.4,3.6-0.7,7.2-0.9,10.8
				l-0.1,1.2l1.2,0c9,0.4,18.5,1.2,28.4,2.3l1.4,0.2l0-1.4C188.5,166.5,188.4,160.3,188.3,154.1z M160.3,170.3
				c0.2-3.2,0.5-6.4,0.8-9.5c0.3-3,0.7-5.8,1.1-8.4c7.6,0.7,15.5,1.7,23.7,2.8c0.1,5.5,0.2,11,0.4,17.3
				C177.3,171.4,168.6,170.7,160.3,170.3z"/>
		</g>
		<g>
			<path class="head-st2" d="M206.3,156.9c0,1.1,0,2.3,0,3.4c0.4,5.2,0.8,10.4,1.1,15.6c0,0.3,0,0.5,0,0.8c8.7,1.4,17,3,24.6,4.7
				c-0.6-6.7-1.2-13.4-1.6-20.2C222,159.6,213.9,158.2,206.3,156.9z"/>
			<path d="M231.7,161.1l-0.1-0.9l-0.9-0.2c-8.2-1.6-16.4-3-24.2-4.2l-1.4-0.2l0,4.9l0.1,0.7c0.4,4.9,0.8,9.9,1,14.9l0.1,1.7l1,0.2
				c8,1.3,16.3,2.9,24.6,4.7l1.6,0.3l-0.3-3C232.6,173.7,232,167.4,231.7,161.1z M208.6,175.6c-0.3-4.9-0.6-9.9-1-14.7l-0.1-2.6
				c7.1,1.2,14.4,2.4,21.8,3.8c0.4,5.9,0.9,11.9,1.4,17.6C223.2,178.3,215.8,176.8,208.6,175.6z"/>
		</g>
		<g>
			<path class="head-st2" d="M274.3,170.3c-5.7-1.3-11.3-2.5-16.7-3.7c0,0.4,0,0.9,0,1.3c0.1,6.5,0.1,13,0.2,19.5
				c6.9,1.8,12.5,3.4,16.3,4.6c2.7,0.8,5.3-1.4,5-4.2l-0.8-6.7c0,0,0.1-0.2,0.4-0.6C281.1,176.6,278.9,171.4,274.3,170.3z"/>
			<path d="M280.2,173.9c-1-2.4-3.1-4.1-5.6-4.7c-5.5-1.3-11.1-2.5-16.7-3.7l-1.5-0.3l0.1,8.1c0.1,4.8,0.1,9.5,0.1,14.3l0,0.9
				l0.9,0.2c7.2,1.9,12.8,3.5,16.3,4.6c0.5,0.1,1,0.2,1.5,0.2c1.2,0,2.3-0.4,3.3-1.2c1.3-1.1,2-2.8,1.8-4.5l-0.7-6.2l0.1-0.2
				C281,179,281.2,176.3,280.2,173.9z M277.9,188c0.1,0.9-0.2,1.8-0.9,2.4c-0.7,0.6-1.6,0.8-2.5,0.5c-3.4-1-8.7-2.6-15.5-4.3
				c0-4.5-0.1-8.9-0.1-13.4l-0.1-5c5.1,1.1,10.2,2.2,15.2,3.4c1.8,0.4,3.2,1.6,4,3.3c0.7,1.7,0.6,3.6-0.4,5.1l-0.6,0.9L277.9,188z"
				/>
		</g>
		<path class="head-st1" d="M274.3,170.4c-4.8-1.1-9.5-2.2-14.2-3.2c-16.4,8.5-39.8,7.9-57,4.6c-24.9-4.7-47.9-8.1-73.3-6.6
			c-13.8,0.8-42.2,12.2-56.5,9.8c-4.3,0.8,3.8-8.1-0.5-7.4c-0.8,0.1-1.6,0-2.2-0.5c-0.5,3.5-0.6,6.9,0,8.8
			c1.9,5.3,16.6,4.9,16.6,4.9c60-24,161.8,3.8,186.8,11.2c2.7,0.8,5.3-1.4,5-4.2l-0.8-6.7c0,0,0.1-0.2,0.4-0.6
			C281.1,176.6,278.9,171.4,274.3,170.4z"/>
		<path d="M245,176c0.7,0.5,34.5,8.8,34.5,8.8l-0.7-4C278.8,180.8,244.3,175.5,245,176z"/>
	</g>
</g>
</svg>
