<?xml version="1.0" encoding="utf-8"?>
<!-- Generator: Adobe Illustrator 26.0.3, SVG Export Plug-In . SVG Version: 6.00 Build 0)  -->
<svg version="1.1" id="Layer_1" xmlns="http://www.w3.org/2000/svg" xmlns:xlink="http://www.w3.org/1999/xlink" x="0px" y="0px"
	 viewBox="0 0 384 400" style="enable-background:new 0 0 384 400;" xml:space="preserve">
<style type="text/css">
	.Estilo_x0020_gráfico{fill:none;}
	.head-st0{fill:#FFFFFF;}
	.head-st1{opacity:0.16;}
	.head-st2{fill:#E8E8E8;}
	.head-st3{opacity:0.61;fill:#FFFFFF;}
</style>
<g>
	<g>
		<g>
			<path d="M245.4,116.4l0-0.3c-4.6-29.7-14.3-52.3-21.4-68.8c-1.3-3.1-2.6-6.1-3.7-8.8l-0.1-0.1c-1.5-3.1-2.8-6-3.9-8.6
				c-5.1-11.5-8.3-18.6-15.5-19.2C190,6.7,174.2,26.1,129,98.9l-0.2,0.3c-10,23.3-4.9,37.7-2.1,42.8l-1.7,1.8l4.3,1
				c14.4,3.4,29.1,7.1,44.7,10.9l3,0.8l0.3,0c18.1,0.7,33.2,1.3,48.4,2.1l0.3,0.5l17.5-4.7l-9.9-0.5
				C238.9,148.1,246.1,136.4,245.4,116.4z M226.5,153.7c-15.3-0.7-30.6-1.4-48.8-2.1l-2.5-0.6c-15.2-3.8-29.7-7.4-43.7-10.7
				c-2.1-3.6-7.7-16.4,1.9-38.8c28.4-45.7,56.8-89.9,65.9-86l0.4,0.2l0.5,0c4.2,0.2,6.5,4.8,11.6,16.2c1.1,2.6,2.4,5.5,3.9,8.6
				c1.1,2.7,2.4,5.7,3.7,8.8c7,16.2,16.5,38.5,21,67.5C241.2,139.9,230.6,150.5,226.5,153.7z"/>
			<path class="head-st0" d="M218,39.5c-7.9-17-10.3-26-17.7-26.4c-9.8-4.2-29.1,22.7-69.1,87.2c-12.2,28.4-1.1,42.3-1.3,42.2
				c15.2,3.6,31.1,7.6,47.5,11.6c17,0.7,33.7,1.3,50,2.1c-0.4,0.1,16.6-10.1,15.5-39.8C237.4,81.5,224.9,56.6,218,39.5z"/>
			<path class="head-st1" d="M211.2,23.8c1.1,19.6,4,45.6-24.1,67.3c-18.9,14.5-42.7,14.9-57.2,12.4c-10.1,26.2,0.2,39,0,39
				c15.2,3.6,31.1,7.6,47.5,11.6c17,0.7,33.7,1.3,50,2.1c-0.4,0.1,16.6-10.1,15.5-39.8C235,68.5,215.8,39.6,211.2,23.8z"/>
		</g>
		<path class="head-st1" d="M169.8,41.2l30.8,5l2.8-7.3l-28.7-3.8C174.5,37.3,170.1,39.1,169.8,41.2z"/>
		<path class="head-st1" d="M159.8,54.5l30.8,5l2.8-7.3l-28.7-3.8C164.5,50.6,160,52.3,159.8,54.5z"/>
		<path class="head-st1" d="M151.9,66.2l30.8,5l2.8-7.3l-28.7-3.8C156.6,62.3,152.1,64,151.9,66.2z"/>
	</g>
	<g>
		<path d="M335.4,151.4l-0.3-0.9l-0.9-0.5c-17.1-9.2-38.5-17.9-63.8-25.8l0,0c-55.5-18.6-169.8-42.8-239.9-28.5
			c-0.3,0-0.5,0.1-0.8,0.2l-1.7,0.3l-0.6,1.1c-2.7,5.1-5.4,10.1-8.1,14.8l-0.3,0.6l0,0.7c0.6,34.2,5,49.4,5.2,50.1l0.1,0.3l0.2,0.3
			c0.5,0.9,13.8,21.4,58.2,26.5l2.4,0.3l0.4-2.3c0.5-2.6,1-5.6,1.5-8.5c0.6-3.1,1.1-6.1,1.5-8.4c15-0.9,108.5-5.2,183.9,23.5
			l-1.6,16.1l2.6,0.2c0.3,0,2,0.1,4.6,0.1c9.3,0,30.3-1.3,42.3-12.1l0.1-0.1c4.9-5,9.4-11.3,13.3-18.9l0.3-0.5
			c0-0.1,0.1-0.1,0.1-0.2c1-2,1.9-4,2.8-6l0.2-0.5c0.7-1.7,1.5-3.5,2.1-5.4l2.4-1.9l0.2-0.6c0.7-1.8-0.3-3.8-4.5-10.8
			C336.4,153.3,335.6,151.9,335.4,151.4z M335.4,151.5L335.4,151.5L335.4,151.5z M334.8,164.7l-0.3,0.8c0,0.1-0.1,0.2-0.1,0.3
			c-0.7,1.8-1.4,3.6-2.1,5.3l-0.2,0.5c-0.8,1.9-1.7,3.7-2.5,5.5l-0.3,0.5c-3.7,7.3-7.9,13.4-12.6,18.1
			c-11.5,10.2-33.1,10.9-40.6,10.8l1.5-14.7l-1.8-0.7C194,159.3,90.4,166.4,86,166.8l-1.9,0.1l-0.4,1.9c-0.4,2.3-1.1,6.2-1.9,10.4
			c-0.4,2.1-0.7,4.2-1.1,6.1c-37.2-4.9-50.3-21.3-51.9-23.6c-0.6-2.5-4.3-17.5-4.8-47.7c2.4-4.3,4.9-8.7,7.3-13.3c0,0,0.1,0,0.1,0
			c69.2-14.1,182.2,9.9,237.3,28.3l0,0c24.7,7.7,45.7,16.1,62.4,25c0.3,0.6,0.9,1.5,1.7,2.9c1,1.6,2.8,4.7,3.6,6.4L334.8,164.7z"/>
		<g>
			<path class="head-st2" d="M333,152.2c-78.3-43-230.3-68.1-303.4-53.7c-2.9,5.4-5.8,10.8-8.9,16.1c-1.4,32.2,5.7,48.2,5.7,48.2
				s12.7,20.4,56.3,25.3c1.1-6.3,2.7-15,3.4-18.8c0,0,106.1-8,188.7,24.2l-1.6,15.5c0,0,14.2,0.9,27.9-2.8
				c6.3-1.7,12.6-4.4,17.3-8.6c11.4-11.5,21-32.7,21-32.7s-3.3-6.1-5-9.2C333.8,154.5,333.3,153.4,333,152.2z"/>
			<path class="head-st1" d="M93.6,142.7l-47.9,6l6.6-55.3l-6.1,3c0,0-10.2,49.3-5.1,58.3c9.7,1.5,61.2-5.5,61.2-5.5s2.5-48.8,7.1-54.3
				c-2-0.5-10.2-1-10.2-1L93.6,142.7z"/>
			<path class="head-st1" d="M26.5,162.7c0,0,12.7,20.4,56.3,25.3c1.1-6.3,2.7-15,3.4-18.8c0,0,106.1-8,188.7,24.2l-1.6,15.4
				c0,0,14.2,0.9,27.9-2.8C307.5,204.5,241.2,139.5,26.5,162.7z"/>
			<path class="head-st3" d="M29.6,98.5c-2,3.8-4,7.5-6.1,11.2c11.6-4.2,71.4-20.4,246.1,16.9C210.3,106.8,95.8,84.2,29.6,98.5z"/>
			<path d="M56,174.6c11.2,4.2,28.3,4.5,28.3,4.5l1.8-9.8C86.2,169.3,44.6,170.3,56,174.6z"/>
		</g>
		<path class="head-st1" d="M247.7,170.3c0,0,40.9,16,65.8,30.3c22-22.3,22.6-41.2,22.6-41.2s-38.8-23.7-67.3-28.6
			C272.8,149,247.7,170.3,247.7,170.3z"/>
		<path class="head-st1" d="M307,153.5c0,0-2.1,2-4.5,4.7c-2.1-1.5-4.3-3-6.6-4.4c1.4-3.6,1.5-6.7-0.9-7.1c0,0-1.9,1.8-4,4.2
			c-4.1-2.1-7.5-3.2-8.7-1.7c-1.2,1.4,1,4,4.7,6.8c-2.4,3.5-4,7-2,8.7c1.9,1.7,5.2-1.1,7.8-4.9c1.9,1.1,4,2.2,6,3.2
			c-2.3,3.4-3.7,6.7-1.8,8.4c2.1,1.8,5.7-1.5,8.4-5.7c3.9,1.2,6.7,1.4,6.8-0.4c0,0-1.9-1.5-4.7-3.6
			C309.1,157.7,309.6,153.9,307,153.5z"/>
	</g>
	<polygon class="head-st1" points="114.4,145.7 125.6,144.2 127.7,98.8 119,98.8 	"/>
	<polygon class="head-st1" points="134.9,146.4 146.2,145.3 150.2,100.1 141.6,99.8 	"/>
	<polygon class="head-st1" points="188.1,153.3 199.3,152.2 203.4,107 194.7,106.7 	"/>
	<path class="head-st1" d="M209.2,140.1l11.3-1l2.3-25.9c-3.2-0.4-6.4-0.8-9.6-1.4L209.2,140.1z"/>
	<path class="head-st1" d="M160.5,134.8l11.3-1l2.7-30.3c-3.1-0.3-6.2-0.7-9.4-1.1L160.5,134.8z"/>
	<path class="head-st1" d="M65.7,111.4c-0.8,4.2,8.3,9.5,8.3,9.5s-13.7,4-8.4,11.5c8.4,12,29.6-4.2,23.4-16.3S66.5,107.2,65.7,111.4z"/>
</g>
</svg>
