<?xml version="1.0" encoding="utf-8"?>
<!-- Generator: Adobe Illustrator 26.0.3, SVG Export Plug-In . SVG Version: 6.00 Build 0)  -->
<svg version="1.1" id="Layer_1" xmlns="http://www.w3.org/2000/svg" xmlns:xlink="http://www.w3.org/1999/xlink" x="0px" y="0px"
	 viewBox="0 0 384 400" style="enable-background:new 0 0 384 400;" xml:space="preserve">
<style type="text/css">
	.head-st0{fill:#30241E;}
	.head-st1{fill:#47352C;}
	.head-st2{opacity:0.2;fill:#FFFFFF;}
	.head-st3{opacity:0.2;}
	.head-st4{fill:#FFFFFF;}
	.head-st5{opacity:0.16;}
	.head-st6{fill:#231F20;}
	.head-st7{opacity:0.5;fill:#30241E;}
	.head-st8{fill:#AFACAC;}
	.head-st9{fill:#141717;}
</style>
<g>
	<g>
		<g>
			<path d="M297.9,125.8c-10.8-7.6-27.1-5.2-34.1-3.7c0.1-6.5,0.1-21.8-1-37.1c-2.8-38-10.1-43.2-15.3-43.7
				c-15.6-1.7-34.6-6.2-41.1-9.2c-8.9-4-62.8-19.3-86.8,8c-21.5,24.4-30.6,70.2-32.3,80.4c-7.5,0.6-33.3,3.7-44.3,16.2
				c-3.7,4.3-5.4,9.3-5,14.8c0.5,6.5,4.6,13,11.8,18.9c17.8,14.6,57.2,27,110.7,27c13.1,0,27-0.7,41.6-2.4c4.5,0,70-0.2,95.6-25.7
				c6.8-6.7,10.2-14.7,10.1-23.6l0-0.1C307.3,136.7,304,130.1,297.9,125.8z M294.1,165.8c-24.4,24.4-91.5,24.3-92.2,24.3l-0.1,0
				l-0.1,0c-73.1,8.2-127.3-5.9-148.7-23.5c-6.1-5-9.5-10.3-10-15.4c-0.3-4.2,0.9-7.8,3.7-11.1c11.2-12.8,42.5-14.6,42.8-14.6l2-0.1
				l0.3-2c0.1-0.5,8.7-54,31.5-79.9c9.5-10.8,24.7-14.1,39.4-14.1c19.2,0,37.6,5.6,41.6,7.4c6.9,3.1,26.1,7.8,42.6,9.6
				c1.9,0.2,8.3,3.6,10.9,39.1c1.5,19.8,0.9,39.7,0.9,39.9l-0.1,3.4l3.3-1c0.2-0.1,21.3-6.1,33,2.2c4.7,3.3,7.3,8.7,7.7,15.9
				C302.8,153.3,299.9,160.1,294.1,165.8z"/>
			<path class="head-st0" d="M261.3,125.3c0,0,2.2-79.7-14-81.5c-16.3-1.8-35.2-6.4-41.9-9.4c-6.7-3-60.3-19.4-83.9,7.3
				c-23.6,26.7-32.1,81.1-32.1,81.1s-51,2.7-48.9,28.4c2.1,25.8,67.6,51.7,161.4,41.2c0,0,103.5,0.6,103.3-46.9
				C303.4,113,261.3,125.3,261.3,125.3z"/>
			<path class="head-st1" d="M261.3,125.3c0,0,2.2-79.7-14-81.5c-16.3-1.8-35.2-6.4-41.9-9.4c-6.7-3-60.3-19.4-83.9,7.3
				c-23.6,26.7-32.1,81.1-32.1,81.1s-51,2.7-48.9,28.4c2.1,25.8,68.4,38.1,162.2,27.7c0,0,103-19.4,102.6-33.3
				C303.4,113,261.3,125.3,261.3,125.3z"/>
			<path class="head-st2" d="M57.8,143.5c-0.6-7.3,3.7-12.9,10.2-17.3c-14.5,4.6-28.5,12.4-27.5,25.2c2.1,25.8,67.6,51.7,161.4,41.2
				C202,192.6,59.9,169.3,57.8,143.5z"/>
			<g class="head-st3">
				<path class="head-st4" d="M121.5,41.8c-19.3,21.8-28.4,61.1-31.2,75.9c9.2-1.9,16.4-2.6,16.4-2.6s8.5-54.4,32.1-81.1
					c1.7-2,3.7-3.7,5.7-5.2C135.7,30.9,127.6,34.9,121.5,41.8z"/>
			</g>
			<g class="head-st5">
				<path d="M280,123.8c-9.7-3.1-18.7,1.5-18.7,1.5c-0.7,7.8-7.7,0-17.3,2.9c-0.7,24.8-18.3,47.7-41.9,64.4c2,0,98,0.1,103-43.2
					C288.6,148,279.7,139.7,280,123.8z"/>
			</g>
			<path d="M265.3,109.6c-2.2-1.3-4.4-0.9-5.7-0.1l-0.6,0.4l-0.4,0.5c-0.2,0.2-17.3,18-72.2,18c-7.3,0-15.3-0.3-24-1
				c-56.5-6.3-66.3-24-66.8-25.1l-1.7-5.5l-5,3.5c-1.5,1.1-8.9,7.7-3.6,32.5l0.2,0.7l0.4,0.6c10.7,17.4,43,26.9,98.7,29
				c2.6,0.1,5.2,0.1,7.9,0.1c32,0,67.9-7,77.2-21.3l0.7-1l0.1-1.2C271.4,116.7,268.5,111.6,265.3,109.6z M261.5,138
				c-7.6,9.1-39.4,17.7-76.7,16.2c-63.2-2.4-84.5-14.3-91.1-24.2c-1.8-8.5-1.8-14-1.3-17.5c7.7,7.5,26,18.8,69,23.6l0.1,0
				c62.1,5.1,89.9-9.3,99.5-16.4C261.5,122.7,261.9,128.1,261.5,138z"/>
			<g>
				<path class="head-st6" d="M261.8,113.3c0,0-22,24.9-99.9,18.4c-62.8-7-70.5-28-70.5-28s-6.8,4.8-1.8,27.9
					c12.5,20.3,59.4,25.6,95.1,26.9c35.8,1.3,73-6.6,81.3-19.1C267.3,110,261.8,113.3,261.8,113.3z"/>
				<path class="head-st6" d="M263.2,113c-0.7-0.4-1.4-0.3-1.7-0.1l-0.1,0.1c-0.2,0.2-17.8,19.3-75.1,19.3c-7.5,0-15.6-0.3-24.4-1.1
					c-61.6-6.9-70.1-27.4-70.1-27.6l-0.2-0.6l-0.5,0.4c-0.3,0.2-7,5.3-2,28.5L89,132c9.8,16,42,25.2,95.5,27.2
					c2.8,0.1,5.5,0.2,8.3,0.2c34.6,0,65.9-8.1,73.4-19.5l0.1-0.1l0-0.1C267.1,123.9,266.1,114.7,263.2,113z M265.3,139.4
					c-7.9,11.7-44.1,20.2-80.8,18.8c-53.1-2-85-11-94.6-26.6c-4-18.8-0.2-25.3,1.2-26.9c1.9,3.8,13.9,21.2,70.7,27.6
					c75,6.2,98.7-16.9,100.3-18.5c0.1,0,0.4-0.1,0.7,0.1C263.9,114.6,266.4,118.6,265.3,139.4z"/>
			</g>
			<path class="head-st7" d="M159.1,53.1c-16.8,12.6,16.3,53.6,48.5,54.5c32.3,0.8,57.1-38.8,35-60.3C242.6,47.3,175.9,40.5,159.1,53.1z"
				/>
			<path class="head-st2" d="M131,41.9c12.2-2.7,26.6-8.7,62.7-7.8C193.8,34.2,156.6,23.8,131,41.9z"/>
		</g>
		<g>
			<path class="head-st0" d="M124.3,82.3c-3.8-0.8,15.5,26,19.7,25.2C148.2,106.8,135.9,84.7,124.3,82.3z"/>
			<path class="head-st0" d="M122.7,103.8c0.9,4.2,22.6-8.8,24.6-20.4C148,79.5,121.8,99.6,122.7,103.8z"/>
		</g>
		<g>
			<path class="head-st0" d="M148,164.4c-4.7-0.6,19.5,18.2,24.7,17.7C177.8,181.6,162.3,166.2,148,164.4z"/>
			<path class="head-st0" d="M146.4,179.1c1.2,2.9,27.6-5.6,29.8-13.5C177,162.9,145.2,176.2,146.4,179.1z"/>
		</g>
		<g>
			<path class="head-st0" d="M60.7,142.2c-3.2-0.5,13.2,14.4,16.8,14C81,155.8,70.4,143.7,60.7,142.2z"/>
			<path class="head-st0" d="M68,137.1c-3.2-0.5,13.2,14.4,16.8,14C88.3,150.7,77.7,138.5,68,137.1z"/>
			<path class="head-st0" d="M61.7,151.2c0.8,2.3,18.9-4.5,20.4-10.9C82.6,138.2,60.8,148.9,61.7,151.2z"/>
		</g>
	</g>
	<g>
		<path d="M249.2,58c-1.3-1.2-5.1-4.9-28.6-2.1c-5.2,0.6-22.6,3-26.4,6.8c-2,2-7.2,7.2-1.8,69.1l0.4,4.2l4.2-0.2
			c4.4-0.2,8.3-0.5,11.9-1h0c5.7-0.7,11.2-1.9,16.5-3.5c3.1-1,6.1-2.1,9-3.2c1.4-0.5,2.8-1.1,4.2-1.6c2.9-1.1,5.7-2.1,8.6-3.4
			l1.9-0.9l0.5-2c1.5-5.7,3-19.4,3.6-31.8C254.3,63,250.7,59.5,249.2,58z M241.6,116c-2,0.8-4,1.6-6,2.3c-1.4,0.5-2.9,1.1-4.3,1.6
			c-2.9,1.1-5.6,2.2-8.5,3c-4.7,1.5-9.8,2.5-15,3.2c-2.2,0.3-4.5,0.5-6.9,0.7c-2.8-34.6-2.3-53.9-0.4-57.8c2.2-1,10.4-3.1,21.1-4.4
			c12.5-1.5,19.6-1,21.5-0.2C246,70.1,244.2,103.3,241.6,116z"/>
		<path class="head-st4" d="M197.3,65.9c-5.2,5.2-1.8,50.1-0.5,65.6c3.9-0.2,7.7-0.4,11.6-0.9c5.3-0.7,10.6-1.8,15.7-3.4
			c4.4-1.4,8.7-3.2,13-4.8c2.8-1,5.6-2.1,8.3-3.3c2.7-10.2,6.2-52.7,0.7-58C240.9,56.2,200.9,62.3,197.3,65.9z"/>
		<path class="head-st8" d="M220.9,92.6c-7.4-9.2-14.2-18.8-20.6-28.7c-1.2,0.6-2.2,1.3-3,2.1c-5.2,5.2-1.8,50.1-0.5,65.6
			c3.9-0.2,7.7-0.4,11.6-0.9c5.3-0.7,10.6-1.8,15.7-3.4c4.4-1.4,8.7-3.2,13-4.8c2.8-1,5.6-2.1,8.3-3.3c0.2-0.6,0.3-1.2,0.5-1.9
			C236.3,110.4,228.2,101.6,220.9,92.6z"/>
		<path class="head-st9" d="M220.7,79.2c0,0-13.7,6.8-16.6,22.5c-2.9,15.6,10.2,13,10.2,13l0.4,7.3c4.2-0.4,8.5-0.8,12.7-1.1l-0.5-7.1
			C259.6,95.1,220.7,79.2,220.7,79.2z"/>
	</g>
</g>
</svg>
