<?xml version="1.0" encoding="utf-8"?>
<!-- Generator: Adobe Illustrator 26.0.3, SVG Export Plug-In . SVG Version: 6.00 Build 0)  -->
<svg version="1.1" id="Layer_1" xmlns="http://www.w3.org/2000/svg" xmlns:xlink="http://www.w3.org/1999/xlink" x="0px" y="0px"
	 viewBox="0 0 384 400" style="enable-background:new 0 0 384 400;" xml:space="preserve">
<style type="text/css">
	.head-st0{fill:url(#SVGID_1_);}
	.head-st1{fill:#F05659;}
	.head-st2{fill:#87383A;}
	.head-st3{opacity:0.61;}
	.head-st4{fill:#FFF3C4;}
	.head-st5{opacity:0.18;fill:#573314;}
	.head-st6{opacity:8.000000e-02;fill:#0F0F0F;}
</style>
<g>
	<g>
		<g>
			<path d="M198.6,80.7c-2-2.6-6.5-3.9-10.8-4.1c-3.6-0.2-8.1,0.5-10.5,2.7c-0.1,0-0.2,0-0.3,0c-0.7,0-1.5-0.1-2.2-0.1
				c-44.7-1.4-74.3,7.7-87.8,27c-14.4,20.6-5.1,44.7-4.7,45.8l0.3,0.6l0.6,0.4c0.8,0.6,19.4,14.3,85.4,21.4
				c14.1,1.5,27.3,2.1,39.3,2.1c43.9,0,72.1-8,72.4-8.1l1-0.3l0.5-0.9c4.1-7.6,12.5-27.6,1.8-47.5C272,98.4,243.5,85.3,198.6,80.7z
				 M277.7,164c-7,1.8-49.4,11.9-108.7,5.5c-58.1-6.2-78.8-17.8-82.3-20c-1.3-3.9-7.2-23.9,4.4-40.4c12.6-17.9,40.7-26.2,83.6-24.9
				c0.7,0,1.5,0.1,2.2,0.1c0.5,0,1,0.1,1.6,0.1l1.6,0.1l0.7-1.5c0.3-0.4,2.6-1.6,6.9-1.4c4.2,0.2,6.6,1.6,7,2.1l0.4,1.7l1.8,0.2
				c43.3,4.2,71.7,16.8,82.3,36.5C288.2,139.2,281.6,156.4,277.7,164z"/>
			<radialGradient id="SVGID_1_" cx="123.9903" cy="83.0489" r="156.051" gradientUnits="userSpaceOnUse">
				<stop  offset="0" style="stop-color:#E8E8D9"/>
				<stop  offset="0.5327" style="stop-color:#DFDFD0"/>
				<stop  offset="1" style="stop-color:#D3D3C5"/>
			</radialGradient>
			<path class="head-st0" d="M197,83.1c-0.5-2-4.4-3.7-9.3-4c-4.5-0.2-8.3,1-9.2,2.7c-1.3-0.1-2.4-0.1-3.7-0.2
				c-119.2-3.8-90.1,69.4-90.1,69.4s18.1,13.8,84.1,20.9c66,7.1,110.7-5.9,110.7-5.9C293.3,140.2,293.9,92.4,197,83.1z"/>
			<path class="head-st1" d="M192.2,83.2l-10.9-0.8c-67.1,2.3-63.3,65.5-63.3,65.5l117.6,27.8C250.8,97,192.2,83.2,192.2,83.2z"/>
			<path d="M219.6,168.5c-5-1.1-12.3-3.3-20.7-5.9c-32.2-9.9-80.7-24.8-115-14c-0.8,0.2-18.9,5.5-34.7,23.9
				c-1.8,1.3-2.5,3.2-1.9,4.9l0.1,10.7l0.5,0.7c1.1,1.5,3.3,2.3,7.1,2.7c2.3,0.2,5.4,0,9.3-0.3c12.7-1,34-2.7,57.6,9.6
				c18.7,9.8,34.6,15.8,51.4,15.8c11.7,0,23.9-2.9,37.7-9.6c11.6-5.6,25.4-11.7,37.5-17.1c16.4-7.3,29.4-13.1,33.1-15.6l0.8-0.6
				l2.6-12.1l-4,1.1C280.6,163,242.2,173.5,219.6,168.5z M277.9,170.8c-4.4,2.6-17.6,8.5-31.5,14.7c-12.2,5.4-26,11.5-37.7,17.1
				c-31.9,15.3-54.4,9.6-84.7-6.2c-17.2-9-33.1-10.9-45.6-10.9c-5.6,0-10.6,0.4-14.6,0.7c-3.7,0.3-6.6,0.5-8.4,0.3
				c-1.6-0.2-2.6-0.4-3.1-0.5l-0.1-9.5c0,0,0,0,0.1,0l0.3-0.2l0.2-0.3c14.9-17.4,32.3-22.5,32.6-22.6c32.9-10.4,82.5,4.8,112.1,13.9
				c8.5,2.6,15.9,4.9,21.1,6c19.6,4.3,49.1-2.1,59.8-4.7L277.9,170.8z"/>
			<path class="head-st2" d="M219.1,172.3c-22.2-4.9-115.2-8.6-161.4,2.3c0,1.2-7.6,1.6-7.9,2.3l0.1,10.5c0.5,0.7,2,1.4,5.4,1.7
				c9.2,0.9,36.6-6.7,67.8,9.6c31.2,16.3,54.3,21.9,86.9,6.2c26.8-12.8,64.1-28.2,70.3-32.5l1-7
				C275.1,166.3,238.2,176.5,219.1,172.3z"/>
			<path class="head-st1" d="M219.1,171c-23.4-5.1-91.6-33.5-134.5-19.9c0,0-18.1,5.1-33.7,23.3c0,0-5,3.4,4.3,4.3
				c9.2,0.9,36.6-6.7,67.8,9.6c31.2,16.3,54.3,21.9,86.9,6.2c32.7-15.6,71.8-29.2,71.8-29.2S242.5,176.1,219.1,171z"/>
			<g class="head-st3">
				<path class="head-st4" d="M69.9,172c-9.4-1.6-4.4-7.6-4.4-7.6c12.2-13,25.9-12.7,31.7-16.1c-4.4,0.6-8.6,1.5-12.6,2.8
					c0,0-18.1,5.1-33.7,23.3c0,0-5,3.4,4.3,4.3c9.2,0.9,36.6-6.7,67.8,9.6c20.1,10.5,31.3,14.4,52.2,14.2
					c-15.5-3.9-21.2-7.5-36.1-16.3C107,167.4,79.3,173.6,69.9,172z"/>
			</g>
		</g>
		<path class="head-st5" d="M203.1,166.2c3.7,8.2,5.3,8.6,4.9,17.4c-0.2,4.5-1.1,8.8-2.6,12.8c1.2-0.5,2.5-1,3.7-1.5
			c26.4-11.4,72.7-29.6,72.7-29.6C260.7,170.5,216.9,170.2,203.1,166.2z"/>
	</g>
	<path class="head-st6" d="M253,97.1c-2.2-1.2-3.8-1.7-3.8-1.7C250.4,95.9,251.7,96.5,253,97.1z"/>
	<path class="head-st6" d="M253,97.1c6.1,3.4,16.8,12.5,13.2,33.6c-3.5,20.2-41.4,31.5-64.1,36.1c0,0,42.1,17.1,78-0.2
		C280,166.6,306.4,122.2,253,97.1z"/>
</g>
</svg>
