<?xml version="1.0" encoding="utf-8"?>
<!-- Generator: Adobe Illustrator 26.0.3, SVG Export Plug-In . SVG Version: 6.00 Build 0)  -->
<svg version="1.1" id="Layer_1" xmlns="http://www.w3.org/2000/svg" xmlns:xlink="http://www.w3.org/1999/xlink" x="0px" y="0px"
	 viewBox="0 0 384 400" style="enable-background:new 0 0 384 400;" xml:space="preserve">
<style type="text/css">
	.head-st0{fill:#244A43;}
	.head-st1{fill:#C5D4D6;}
	.head-st2{fill:#E8FAFC;}
	.head-st3{fill:#F7CE5C;}
	.head-st4{fill:#569387;}
	.head-st5{fill:#62A89B;}
	.head-st6{fill:#E0803F;}
	.head-st7{opacity:0.3;}
	.head-st8{fill:#231F20;}
	.head-st9{opacity:0.5;}
</style>
<g>
	<g>
		<path d="M171.8,16.6c-0.3,0-0.5,0-0.8,0c-20.1,0.1-45.9,2.1-54.3,11.8c-0.6,0.7-0.8,1.7-0.5,2.6c0,0.1,0.1,0.2,0.2,0.3
			c0.1,2.2-1,10.2-2.1,18.6c-2.8,20.7-7,51.9-6.1,77.2c0,0.7,0.4,1.4,0.9,1.9c2.2,1.9,20.3,11.7,47,18.6c15.2,4,35.6,7.6,59.1,7.6
			c14.8,0,30.7-1.4,47.5-5.1c0.8-0.2,1.5-0.8,1.8-1.6c0.1-0.2,8.4-22.5,14.5-46.8c8.4-33.3,8.9-54.5,1.4-63.1
			C268.8,25.6,214.1,16.6,171.8,16.6z M118.3,32.6C118.3,32.6,118.3,32.6,118.3,32.6C118.3,32.6,118.3,32.6,118.3,32.6z M118.3,32.6
			L118.3,32.6L118.3,32.6z M262,147.6L262,147.6L262,147.6z M260.1,145.4c-41.7,9-78.6,3.5-102.4-2.6c-24.3-6.3-40.5-14.7-44.5-17.1
			c-0.7-24.6,3.4-54.9,6.1-75c1.7-12.4,2.3-17.4,2.1-19.8c6.4-5.7,24.3-9,49.5-9.1c0.3,0,0.5,0,0.8,0c44.7,0,95.4,9.8,104.7,20.3
			C289.1,56.4,269.4,120.3,260.1,145.4z"/>
		<path class="head-st0" d="M118.6,30.1c2.4,0.3-12.8,75.3-7.9,96.9c3.1,2.6,72.4,34.7,151.3,20.6c0,0,33-88.3,16.4-107.2
			C261.7,21.4,136.7,9.2,118.6,30.1z"/>
		<g>
			<path d="M158,50.3c-0.6-0.3-1.4-0.3-2,0c-5.6-0.2-37.5-4.4-57.3-7.1c-1-0.1-1.9,0.3-2.5,1.1c-0.5,0.8-0.6,1.9-0.1,2.7
				c0.2,0.3,20.4,34.8,16.5,52.7c-0.2,0.9,0.1,1.9,0.9,2.5c0.7,0.6,1.7,0.8,2.6,0.4c8-3.3,28.3,6.5,35.5,10.6
				c0.4,0.2,0.8,0.3,1.3,0.3c0.4,0,0.7-0.1,1-0.2c0.7-0.3,1.3-1,1.5-1.8c1.8-8.5,10.5-50.1,4-59.9C159.1,51.1,158.7,50.6,158,50.3z
				 M151.1,107.1c-6.4-3.4-20.7-10.2-31-10.2c-0.7,0-1.3,0-1.9,0.1c1.1-15.9-9.9-38.5-15.1-48c5.6,0.7,14.9,2,24.2,3.2
				c8.5,1.1,15.3,1.9,20.2,2.5c2.9,0.3,5.2,0.6,6.8,0.7c0.5,0,0.9,0.1,1.4,0.1C158.6,62,155,88,151.1,107.1z"/>
			<path class="head-st1" d="M157,52.8c0,0,0-0.1-0.1-0.1C157,52.7,157,52.7,157,52.8z"/>
			<path class="head-st1" d="M98.3,45.7c0,0,21,35.5,16.8,54.6c10.9-4.6,37.8,10.7,37.8,10.7s10.9-50.2,4.2-58.3
				C155.8,53.6,98.3,45.7,98.3,45.7z"/>
			<path class="head-st2" d="M152.1,67.4c1.2-12.3-4.3-16.2-32.7-15.3c-5.3,0.2-13.5,32.4,14,35.8S150.8,81.3,152.1,67.4z"/>
		</g>
		<path d="M269.8,96.3c-4.9,0.1-12,0.3-20.2,0.6c-38.3,1.4-109.6,3.9-137.6-7c-0.8-0.3-1.8-0.2-2.5,0.3c-0.7,0.5-1.1,1.4-1,2.3
			c0.4,4.2-0.3,8.4-1,12.9c-1.2,7.2-2.4,14.6,0.9,22.6c0.2,0.4,0.4,0.7,0.7,1c1.8,1.5,17.6,11.4,44.7,18.7c14.7,4,34.8,7.6,58.9,7.6
			c15.2,0,32-1.5,50-5.2c0.9-0.2,1.7-0.9,1.9-1.8c0.1-0.3,7.6-26.1,14.5-46.7c1.3-1,1.2-2.2,1.1-2.8
			C279.6,96.3,277.2,96.2,269.8,96.3z M262,147.6L262,147.6L262,147.6z M260,145.4c-44.8,9.1-81.7,3.6-104.9-2.6
			c-24.2-6.5-39.3-15.3-42.3-17.4c-2.4-6.4-1.4-12.7-0.3-19.2c0.5-3.3,1.1-6.7,1.2-10.2c30.8,9.8,96.3,7.5,136.1,6.1
			c9.8-0.3,19.2-0.7,23.9-0.6C267.8,119,261.7,139.7,260,145.4z"/>
		<path class="head-st3" d="M111,92.3c-1.5,8.4-5.3,22.7-0.3,34.7c3.1,2.6,62.9,39,151.3,20.6c0,0,7.8-26.7,14.9-47.8
			C288.7,95.2,153.4,108.7,111,92.3z"/>
		<path d="M280.3,38.7c-11.5-13.1-66.2-22.1-108.6-22.1c-0.3,0-0.5,0-0.8,0c-20.1,0.1-45.9,2.1-54.3,11.8c-0.6,0.7-0.8,1.6-0.5,2.4
			c0,0.1,0,0.3-0.1,0.5c-0.2,1,0.2,2,1,2.6c6.9,5,20.6,4.2,39.4,3.1c14.3-0.9,30.4-1.8,47.1-0.4c18.3,1.6,33.4,5.4,45.5,8.3
			c9.9,2.4,17.6,4.4,23.8,4.4c3.7,0,6.8-0.7,9.5-2.4c1-0.6,1.4-1.9,1-3C282.6,41.8,281.6,40.1,280.3,38.7z M118.3,32.6
			c-0.1,0-0.3,0-0.4-0.1C118,32.6,118.2,32.6,118.3,32.6C118.3,32.6,118.3,32.6,118.3,32.6C118.3,32.6,118.3,32.6,118.3,32.6z
			 M118.3,32.6C118.3,32.6,118.3,32.6,118.3,32.6C118.3,32.6,118.3,32.6,118.3,32.6z M250.2,40c-12.3-3-27.5-6.8-46.2-8.5
			c-6.4-0.6-12.7-0.8-18.9-0.8c-10.2,0-19.9,0.6-28.9,1.1c-15,0.9-28.2,1.7-34.5-1.2c6.6-5.6,24.3-8.9,49.3-8.9
			c44.9-0.1,96.2,9.8,105.5,20.3c0.4,0.4,0.7,0.9,1.1,1.5C271.9,45.4,262.6,43.1,250.2,40z"/>
		<path class="head-st4" d="M118.6,30.1c0.2,0,0.2,0.6,0,1.7c11.2,8.1,46.8-0.1,84.6,3.2c41.3,3.7,66.6,16.8,77.8,9.7
			c-0.6-1.7-1.5-3.2-2.5-4.4C261.7,21.4,136.7,9.2,118.6,30.1z"/>
		<path class="head-st5" d="M140.5,29.2c0.2,0,0.2,0.5,0,1.3c8.6,6.2,34.6-3.1,63.7-0.5c31.8,2.8,57.4,16,66,10.5
			c-0.5-1.3-1.1-2.5-1.9-3.4C255.3,22.5,154.4,13.2,140.5,29.2z"/>
		<path class="head-st6" d="M263.1,103.5c-4.7-0.5-9.3,2.8-10.3,7.5c-1,4.7,1.9,8.9,6.6,9.4c4.7,0.5,9.3-2.8,10.3-7.5
			C270.8,108.2,267.8,104,263.1,103.5z"/>
		<path class="head-st6" d="M244.3,122c-2.8-0.3-5.5,1.7-6.1,4.4c-0.6,2.7,1.1,5.2,3.9,5.5c2.8,0.3,5.5-1.7,6.1-4.4
			C248.8,124.8,247.1,122.3,244.3,122z"/>
		<path class="head-st6" d="M172.5,101.8c-4.7-0.5-9.3,2.8-10.3,7.5c-1,4.7,1.9,8.9,6.6,9.4s9.3-2.8,10.3-7.5
			C180.1,106.5,177.2,102.3,172.5,101.8z"/>
		<path class="head-st6" d="M202.2,107.1c-4.7-0.5-9.3,2.8-10.3,7.5c-1,4.7,1.9,8.9,6.6,9.4s9.3-2.8,10.3-7.5
			C209.8,111.9,206.8,107.7,202.2,107.1z"/>
		<path class="head-st6" d="M143.9,114.7c-2.8-0.3-5.5,1.7-6.1,4.4c-0.6,2.7,1.1,5.2,3.9,5.5c2.8,0.3,5.5-1.7,6.1-4.4
			C148.4,117.5,146.6,115,143.9,114.7z"/>
		<path class="head-st6" d="M126.9,105.4c-3.5-0.4-7,2.1-7.8,5.7c-0.8,3.5,1.4,6.7,5,7.1c3.5,0.4,7-2.2,7.8-5.7
			C132.6,108.9,130.4,105.7,126.9,105.4z"/>
		<path class="head-st6" d="M231.8,105.1c-3.9-0.4-7.8,2.4-8.7,6.3c-0.9,3.9,1.6,7.4,5.5,7.9c3.9,0.4,7.8-2.4,8.7-6.3
			C238.2,109.1,235.7,105.6,231.8,105.1z"/>
		<g class="head-st7">
			<path class="head-st4" d="M260,51.3c-29.5-0.9-53,4.5-61.6,26.6c-5.6,14.3,41.2,20.7,61.8,17.2C280.8,91.7,289.5,52.3,260,51.3z"/>
		</g>
	</g>
	<g>
		<path d="M316.1,167.7L316.1,167.7c-2.8-4.5-5.7-9.3-8.8-14.8l-0.4-0.6l-0.7-0.3c-4.1-2.2-7.4-4.2-10.6-6.1
			c-8.6-5-16-9.4-31.3-14.3l0,0C201.6,110,116.1,104.6,51.8,118c-0.3,0.1-0.5,0.1-0.8,0.2l-1.7,0.3l-0.6,1.1
			c-2.7,5.2-5.4,10.3-8.2,15.2l-0.3,0.6l0,0.7c0,1.6,0.1,3.1,0.1,4.5l0.1,0.5c0.1,0.7,0.3,1.3,0.3,1.9c0.2,2.5,0.6,3.7,1.9,4.7
			l0.1,0c0,0,0.2,0.3,0.5,1.3l0.3,1.2l0.3,0.4c0.2,0.2,0.4,1.2,0.6,1.9c1.7,6.1,4.9,17.6,39,21.5l2.4,0.3l0.4-2.4
			c0.5-2.7,1-5.7,1.5-8.7c0.6-3.2,1.1-6.3,1.5-8.6c15.1-0.9,108.8-5.4,184.3,24.1l-1.7,16.7l2.8,0c0.8,0,20.7-0.2,36.4-13.8l0.5-0.5
			l0.1-0.2l0.2,0.1l1.4-2.1c1.1-1.6,2.2-3.3,3.3-4.9l1.7-2.6l-1.1-1.9C316.8,168.9,316.5,168.3,316.1,167.7z M309.8,174.8
			c-0.5,0.2-1.2,0.5-1.8,1.4l-0.3,0.6c-0.2,0.5-0.4,0.9-0.6,1.2c-10.8,9.1-24,11.4-29.7,12l1.5-14.8l-1.8-0.7
			c-55.7-22.2-121.6-25.9-159.5-25.9c-17.8,0-29.5,0.8-30.9,0.9l-2,0.1l-0.4,1.9c-0.4,2.3-1.1,6.4-1.9,10.6
			c-0.4,2.1-0.7,4.3-1.1,6.3c-28.4-3.8-30.9-12.7-32.2-17.5c-0.3-1.1-0.6-2.1-1.1-3l-0.1-0.4c-0.6-2.2-1.2-3.1-2.2-3.9
			c0-0.2-0.1-0.5-0.1-1.1c-0.1-0.8-0.2-1.6-0.3-2.4c0-1.1-0.1-2.3-0.1-3.6c2.4-4.4,4.9-9,7.3-13.6c0,0,0.1,0,0.1,0
			c63.5-13.2,147.8-7.9,209.8,13.3l0,0c14.9,4.7,21.8,8.8,30.5,13.9c3.1,1.8,6.3,3.7,10.2,5.8c3,5.3,5.8,10,8.6,14.4
			c0.1,0.2,0.3,0.5,0.4,0.7C311.4,172.4,310.6,173.6,309.8,174.8z"/>
		<g>
			<path class="head-st4" d="M305.1,154.2c-79.4-40.9-183-47.8-254.1-33.5c-2.9,5.5-5.8,11.1-8.9,16.5c0,0.2,0,0.3,0,0.5
				c0.6,1.6,1,3.3,1.1,5c0.3,4.2,1.3,1.3,2.4,5.5c0.1,0.3,0.1,0.5,0.2,0.8c2.6,3.6-1.2,17.8,37.8,22.4c1.1-6.4,2.7-15.4,3.4-19.3
				c0,0,106.4-8.2,189.2,24.8l-1.6,15.9c0,0,4.2-1.1,18-4.9c6.3-1.7,12.6-4.5,17.3-8.8c0.1-0.1,0.2-0.2,0.3-0.3c1.7-2.5,3.3-5,5-7.4
				c-0.4-0.7-0.9-1.5-1.3-2.2C310.9,164.2,308,159.2,305.1,154.2z"/>
			<path class="head-st0" d="M45.3,148.3c0,0-5.5,18,38.3,23.1c1.1-6.4,2.7-15.4,3.4-19.3c0,0,106.4-8.2,189.2,24.8l-1.6,15.9
				c0,0,4.2-1.1,18-4.9C299,186.2,260.7,124.4,45.3,148.3z"/>
			<path class="head-st5" d="M51,120.7c-2,3.9-4,7.7-6.1,11.5c11.6-4.4,34.1-37.3,209.2,1C194.7,112.9,117.4,106.1,51,120.7z"/>
			<path class="head-st8" d="M75,160.4c11.2,4.4,10.2,1.7,10.2,1.7l1.9-10.1C87,152.1,63.5,156,75,160.4z"/>
		</g>
		<g class="head-st9">
			<path class="head-st0" d="M309.3,161.3c-11.3-7.2-25.5-19.4-46.5-23.1c4,18.7-13.8,14.9-13.8,14.9s31,14.4,56,29
				c4.8-5,8-8.6,10.1-11.1c-0.4-0.6-0.8-1.3-1.1-1.9C312.4,166.5,310.8,163.9,309.3,161.3z"/>
		</g>
	</g>
</g>
</svg>
