<?xml version="1.0" encoding="utf-8"?>
<!-- Generator: Adobe Illustrator 26.0.3, SVG Export Plug-In . SVG Version: 6.00 Build 0)  -->
<svg version="1.1" id="Layer_1" xmlns="http://www.w3.org/2000/svg" xmlns:xlink="http://www.w3.org/1999/xlink" x="0px" y="0px"
	 viewBox="0 0 384 400" style="enable-background:new 0 0 384 400;" xml:space="preserve">
<style type="text/css">
	.head-st0{fill:#943C2C;}
	.head-st1{fill:#783124;}
	.head-st2{fill:#AB4533;}
	.head-st3{opacity:0.16;}
	.head-st4{fill:#333333;}
	.head-st5{fill:#EBEBEB;}
</style>
<g>
	<g>
		<path d="M92.1,147.1c-52.7-5-55.5-2.8-56.6-1.9c-1.8,1.4-2.9,4.8-3.2,10.1c-0.3,4.5,0.1,14,3.3,17.3c0.2,0.2,0.4,0.3,0.6,0.4
			c4.5,2.1,21.5,2.6,38.2,2.6c3.7,0,7.4,0,10.9-0.1c1,0,1.8-0.6,2.1-1.6c2.7-8.8,4.8-16.7,6.6-24.2c0.1-0.6,0-1.3-0.4-1.8
			S92.8,147.2,92.1,147.1z M85.4,173.3L85.4,173.3L85.4,173.3z M83.8,171.1c-23.9,0.2-40.9-0.5-45.2-2c-1.1-1.6-2.1-6.8-1.9-12.6
			c0.2-4.8,1-7.3,1.5-7.9c3.2-1,23.4,0,51,2.5C87.7,157.5,85.9,164,83.8,171.1z"/>
		<path class="head-st0" d="M36.9,146.9c-3.4,2.7-3.2,20.5,0.3,24.1c5.5,2.5,34.6,2.5,48.1,2.3c2.4-7.9,4.6-15.9,6.5-24
			C81.4,148.3,39.9,144.5,36.9,146.9z"/>
		<path class="head-st1" d="M34.8,163.6c0.4,3.3,1.2,6.2,2.4,7.4c5.5,2.5,34.6,2.5,48.1,2.3c0.9-2.9,1.7-5.8,2.5-8.7
			c-1.6,0-3.1,0-4.7-0.1C61.3,164,56.8,161.9,34.8,163.6z"/>
		<path class="head-st2" d="M36.9,146.9c-1,0.8-1.6,2.8-2,5.3c22.7,1.3,27.3,3.8,50,4.6c1.7,0.1,3.4,0.1,5.1,0.1c0.7-2.5,1.3-5.1,1.9-7.6
			C81.4,148.3,39.9,144.5,36.9,146.9z"/>
	</g>
	<g>
		<path class="head-st3" d="M258.2,154.1c-5.1,0-9.3,8.6-9.3,19.2s4.2,19.2,9.3,19.2s9.3-8.6,9.3-19.2S263.4,154.1,258.2,154.1z"/>
		<path class="head-st4" d="M258.9,150.4c-5.1,0-9.3,8.6-9.3,19.2c0,10.6,4.2,19.2,9.3,19.2c5.1,0,9.3-8.6,9.3-19.2
			C268.2,159,264,150.4,258.9,150.4z"/>
		<path d="M349.6,163.3c-5.5-2.2-29.9-5.6-49.1-7.9c-42.3-5.1-44.2-3.4-45.1-2.6c-0.3,0.3-0.5,0.6-0.7,0.9
			c-0.9,2.1-8.1,20.5-0.3,28.8c0.2,0.3,0.5,0.5,0.9,0.6c0.6,0.2,1.7,0.3,3.2,0.3c8.1,0,28.2-2.8,45.1-5.5c7.3-1.1,43.9-6.9,47.4-9.4
			c0.9-0.6,1.3-1.6,1.2-2.6C351.9,164.2,350.2,163.5,349.6,163.3z M257.5,178.4c-3.7-5-0.7-16.3,1.3-21.6c9-0.7,62.5,5.7,82.2,9.5
			C320.7,170.7,265.1,179,257.5,178.4z"/>
		<path class="head-st5" d="M257,154.6c0,0-7.7,18.7-0.8,26.1c4.9,2,89.3-11.4,93.3-14.3C353.6,163.6,259.8,152.2,257,154.6z"/>
		<path class="head-st3" d="M333.8,162.5c-3.6,1-7.2,1.9-10.9,2.6c-18.2,3.1-37.9,2.6-56-0.3c-6-1-9.3-4.5-10.4-8.8
			c-1.6,4.3-6.2,18.6-0.3,24.8c4.9,2,89.3-11.4,93.3-14.3C350.6,165.6,344,164.1,333.8,162.5z"/>
		<polygon points="250.7,171.5 301,168.3 251.9,165.4 		"/>
	</g>
</g>
</svg>
