<?xml version="1.0" encoding="utf-8"?>
<!-- Generator: Adobe Illustrator 26.0.3, SVG Export Plug-In . SVG Version: 6.00 Build 0)  -->
<svg version="1.1" id="Layer_1" xmlns="http://www.w3.org/2000/svg" xmlns:xlink="http://www.w3.org/1999/xlink" x="0px" y="0px"
	 viewBox="0 0 384 400" style="enable-background:new 0 0 384 400;" xml:space="preserve">
<style type="text/css">
	.head-st0{fill:#647485;}
	.head-st1{fill:#849AB0;}
	.head-st2{opacity:0.2;fill:#FFFFFF;}
	.head-st3{fill:#A1BBD6;}
	.head-st4{opacity:0.16;}
	.head-st5{fill:#231F20;}
	.head-st6{fill:#697B8C;}
</style>
<g>
	<g>
		<path d="M298.8,133.1c-10.8-7.6-27.1-5.2-34.1-3.7c0.1-6.5,0.1-21.8-1-37.1c-2.8-38-10.1-43.2-15.3-43.7
			c-15.6-1.7-34.6-6.2-41.1-9.2c-8.9-4-62.8-19.3-86.8,8c-21.5,24.4-30.6,70.2-32.3,80.4c-7.5,0.6-33.3,3.7-44.3,16.2
			c-3.7,4.3-5.4,9.3-5,14.8c0.5,6.5,4.6,13,11.8,18.9c17.8,14.6,57.2,27,110.7,27c13.1,0,27-0.7,41.6-2.4c4.5,0,70-0.2,95.6-25.7
			c6.8-6.7,10.2-14.7,10.1-23.6l0-0.1C308.1,144.1,304.8,137.4,298.8,133.1z M295,173.2c-24.4,24.4-91.5,24.3-92.2,24.3l-0.1,0
			l-0.1,0c-73.1,8.2-127.3-5.9-148.7-23.5c-6.1-5-9.5-10.3-10-15.4c-0.3-4.2,0.9-7.8,3.7-11.1c11.2-12.8,42.5-14.6,42.8-14.6l2-0.1
			l0.3-2c0.1-0.5,8.7-54,31.5-79.9c9.5-10.8,24.7-14.1,39.4-14.1c19.2,0,37.6,5.6,41.6,7.4c6.9,3.1,26.1,7.8,42.6,9.6
			c1.9,0.2,8.3,3.6,10.9,39.1c1.5,19.8,0.9,39.7,0.9,39.9l-0.1,3.4l3.3-1c0.2-0.1,21.3-6.1,33,2.2c4.7,3.3,7.3,8.7,7.8,15.9
			C303.7,160.7,300.7,167.4,295,173.2z"/>
		<path class="head-st0" d="M262.2,132.7c0,0,2.2-79.7-14-81.5c-16.3-1.8-35.2-6.4-41.9-9.4c-6.7-3-60.3-19.4-83.9,7.3
			c-23.6,26.7-32.1,81.1-32.1,81.1s-51,2.7-48.9,28.4c2.1,25.8,67.6,51.7,161.4,41.2c0,0,103.5,0.6,103.3-46.9
			C304.3,120.3,262.2,132.7,262.2,132.7z"/>
		<path class="head-st1" d="M262.2,132.7c0,0,2.2-79.7-14-81.5c-16.3-1.8-35.2-6.4-41.9-9.4c-6.7-3-60.3-19.4-83.9,7.3
			c-23.6,26.7-32.1,81.1-32.1,81.1s-51,2.7-48.9,28.4c2.1,25.8,68.4,38.1,162.2,27.7c0,0,103-19.4,102.6-33.3
			C304.3,120.3,262.2,132.7,262.2,132.7z"/>
		<path class="head-st2" d="M58.6,150.9c-0.6-7.3,3.7-12.9,10.2-17.3c-14.5,4.6-28.5,12.4-27.5,25.2c2.1,25.8,67.6,51.7,161.4,41.2
			C202.8,199.9,60.8,176.6,58.6,150.9z"/>
		<g>
			<path class="head-st3" d="M122.3,49.1C103.1,71,93.9,110.2,91.2,125c9.2-1.9,16.4-2.6,16.4-2.6S116,68,139.6,41.3
				c1.7-2,3.7-3.7,5.7-5.2C136.5,38.2,128.4,42.2,122.3,49.1z"/>
		</g>
		<g class="head-st4">
			<path d="M280.9,131.2c-9.7-3.1-18.7,1.5-18.7,1.5c-0.7,7.8-7.7,0-17.3,2.9c-0.7,24.8-18.3,47.7-41.9,64.4c2,0,98,0.1,103-43.2
				C289.4,155.3,280.6,147,280.9,131.2z"/>
		</g>
		<path class="head-st5" d="M262.6,120.7c0,0-22,24.9-99.9,18.4c-62.8-7-70.5-28-70.5-28s-6.8,4.8-1.8,27.9
			c12.5,20.3,59.4,25.6,95.1,26.9c35.8,1.3,73-6.6,81.3-19.1C268.2,117.4,262.6,120.7,262.6,120.7z"/>
		<path class="head-st6" d="M159.9,60.5c-16.8,12.6,16.3,53.6,48.5,54.5c32.3,0.8,57.1-38.8,35-60.3C243.4,54.7,176.7,47.9,159.9,60.5z"
			/>
		<path class="head-st3" d="M131.9,49.3c12.2-2.7,26.6-8.7,62.7-7.8C194.6,41.5,157.5,31.2,131.9,49.3z"/>
	</g>
	<g>
		<path class="head-st6" d="M125.2,89.7c-3.8-0.8,15.5,26,19.7,25.2C149.1,114.1,136.7,92.1,125.2,89.7z"/>
		<path class="head-st6" d="M123.5,111.1c0.9,4.2,22.6-8.8,24.6-20.4C148.8,86.8,122.6,106.9,123.5,111.1z"/>
	</g>
	<g>
		<path class="head-st6" d="M148.8,171.7c-4.7-0.6,19.5,18.2,24.7,17.7C178.7,189,163.1,173.6,148.8,171.7z"/>
		<path class="head-st6" d="M147.3,186.4c1.2,2.9,27.6-5.6,29.8-13.5C177.9,170.2,146.1,183.5,147.3,186.4z"/>
	</g>
	<g>
		<path class="head-st6" d="M61.5,149.6c-3.2-0.5,13.2,14.4,16.8,14C81.9,163.2,71.3,151,61.5,149.6z"/>
		<path class="head-st6" d="M68.8,144.5c-3.2-0.5,13.2,14.4,16.8,14C89.1,158.1,78.5,145.9,68.8,144.5z"/>
		<path class="head-st6" d="M62.5,158.5c0.8,2.3,18.9-4.5,20.4-10.9C83.5,145.5,61.7,156.2,62.5,158.5z"/>
	</g>
</g>
</svg>
