<?xml version="1.0" encoding="utf-8"?>
<!-- Generator: Adobe Illustrator 26.0.3, SVG Export Plug-In . SVG Version: 6.00 Build 0)  -->
<svg version="1.1" id="Layer_1" xmlns="http://www.w3.org/2000/svg" xmlns:xlink="http://www.w3.org/1999/xlink" x="0px" y="0px"
	 viewBox="0 0 384 400" style="enable-background:new 0 0 384 400;" xml:space="preserve">
<style type="text/css">
	.head-st0{fill-rule:evenodd;clip-rule:evenodd;fill:#242A30;}
	.head-st1{opacity:0.3;fill-rule:evenodd;clip-rule:evenodd;fill:#2F153B;}
	.head-st2{fill-rule:evenodd;clip-rule:evenodd;fill:#F05659;}
	.head-st3{fill-rule:evenodd;clip-rule:evenodd;fill:#DB4F51;}
	.head-st4{fill-rule:evenodd;clip-rule:evenodd;fill:#3F4A54;}
	.head-st5{fill-rule:evenodd;clip-rule:evenodd;fill:#657787;}
</style>
<g>
	<g>
		<path d="M237.8,125.3L114.4,112l-0.2,0l-0.2,0c-0.4,0-43.5,2.3-53,18c-2.5,4.1-2.6,8.7-0.3,13.6c12.4,25.1,59.8,48.6,76.9,49
			c0.1,0,0.2,0,0.3,0c6.5,0,19.3-4.7,35.5-10.7c26.5-9.8,62.7-23.2,88.9-21.7c30.9,1.8,44.7,1.9,47.8-4.8c1.9-4.2-0.7-9.5-9.2-18.3
			C281.4,116.9,242.5,124.3,237.8,125.3z M305.5,153.3c-2,4.3-25.7,2.9-43,1.9c-27.2-1.6-64,12-90.9,22
			c-15.3,5.7-28.4,10.6-33.9,10.4c-15.7-0.4-61.1-23-72.5-46.2c-1.6-3.3-1.5-6.2,0.1-8.8c6.9-11.4,39.9-15.2,48.7-15.6l123.7,13.3
			l0.4,0l0.4-0.1c0.4-0.1,40.4-8.7,58.8,10.3C305.9,149.6,305.9,152.5,305.5,153.3z"/>
		<path d="M300.2,136.7l-9.1-4.7l5.9,8.4c1.9,2.7,3,5.8,2.5,6.5c-0.1,0.2-1.6,0.8-5.8-0.2c-24.1-6.4-74.5,8.9-110.4,24
			c-37.7,15.9-73.8,8.6-107.3-21.5c-6.4-5.8-9-10.8-7.6-14.9c0.1-0.4,0.3-0.8,0.5-1.2c7-6.3,21.4-11.7,42.6-15.6l-0.7-4.9
			c-4,0.4-37.8,3.9-46,17.6c-3.9,3.8-5.9,8.1-5.8,12.7c0.5,24.4,59.9,49.2,83.9,52.6c3,0.4,6,0.6,9,0.6c16.6,0,33.3-6.1,50.7-12.5
			c18.7-6.8,37.9-13.9,58.5-13.9c30.5,1,46.5-3.3,49.1-13.3C312.9,146.9,301.3,137.3,300.2,136.7z M303.7,149.7
			c0.2-0.3,0.4-0.7,0.5-1.1c1.2,2.2,2,4.7,1.3,6.9c-1.3,4-8.7,10.4-44.1,9.3c-21.5,0-41.2,7.2-60.3,14.2
			c-20,7.3-38.9,14.3-57.3,11.6c-26-3.8-79.2-28.2-79.6-47.8c0-0.3,0-0.7,0-1c1.4,3.6,4.3,7.3,8.6,11.2
			c35,31.5,72.9,39.1,112.5,22.4c35.1-14.8,84.3-29.9,107.2-23.8C294.6,152.1,301,153.6,303.7,149.7z"/>
		<path class="head-st0" d="M238,127.9l-123.9-13.4c-1.4,0.1-62.4,3.8-51.1,28c12.1,24.4,58.8,47.2,74.7,47.6
			c16,0.4,82.3-34.9,124.7-32.4c43.5,2.6,56.5,1.9,36.6-18.8C279.5,118.6,238,127.9,238,127.9z"/>
		<path class="head-st1" d="M238,127.9l-123.9-13.4c-1.4,0.1-58.7,7.6-47.4,31.8c12.1,24.4,64.5,45.4,80.4,45.8
			c16,0.4,72.9-36.9,115.3-34.4c43.5,2.6,56.5,1.9,36.6-18.8C279.5,118.6,238,127.9,238,127.9z"/>
	</g>
	<g>
		<g>
			<g>
				<path d="M261.1,37.3c-14-2.9-42.6-6.1-57.5-7.3c-19.1-1.6-59.9-2.5-60.3-2.5c-8.6-0.2-29,0-31.4,7.5c-1.2,3.8-1.1,5.2-0.7,9.3
					c0.3,3.8,0.9,10.2,1,24c0.1,31.2-7.3,60.9-7.6,62.1c-1.8,7-2.3,10.4-2.3,10.6l0,0.2l0,0.2c0.3,8.8,3.7,12.1,26.8,18.8
					c11.2,3.2,30.9,4.1,48.6,4.1c19,0,35.6-1,36.9-1.1l18.2-4.4l20.9-7.2l4.6-1.3l2.4-25.6l0-0.2l0-0.2c0-0.2-0.3-5.4,2.1-30.8
					c1.8-18.9,7.3-30.7,10.6-37.8c1.3-2.8,2.2-4.8,2.5-6.4C277.7,40.7,266.9,38.5,261.1,37.3z M271,48.4c-0.2,1.1-1.1,2.9-2.2,5.3
					c-3.4,7.4-9.1,19.7-11,39.4c-2.2,23.4-2.2,30.1-2.1,31.4l-2,21.9l-1.3,0.4l-20.8,7.2l-17.4,4.2c-4,0.2-61.9,3.4-83.6-2.9
					c-22.5-6.5-23-9.1-23.2-13.9c0.1-0.9,0.7-4.1,2.2-9.9c0.3-1.3,7.9-31.6,7.8-63.4c-0.1-14-0.6-20.5-1-24.4
					c-0.3-3.9-0.4-4.5,0.5-7.3c0.8-2.5,13.4-4.4,26.5-4c0.4,0,41.1,0.9,60,2.5c14.8,1.2,43.1,4.4,56.9,7.3
					C267.5,43.7,271.6,45.2,271,48.4z"/>
				<path class="head-st0" d="M260.6,39.8c-13.5-2.8-41.5-6-57.2-7.3c-19.2-1.6-60.1-2.5-60.1-2.5s-26.9-0.8-28.9,5.7
					c-2.1,6.5,0.2,4.1,0.4,32.5c0.1,28.4-6,55.8-7.7,62.7c-1.8,6.9-2.3,10.3-2.3,10.3c0.3,6.8,1.9,9.8,25,16.5
					c23.1,6.7,84.7,2.9,84.7,2.9l17.8-4.3l20.7-7.2l3-0.8l2.2-23.8c0,0-0.4-4.9,2.1-31.2c2.5-26.3,12.1-39.5,13.1-44.5
					C274.7,42.7,266.5,41,260.6,39.8z"/>
				<path class="head-st2" d="M217,130c-23.4,1.6-46.9,1-70.1-2.3c-12.8-1.8-25.7-4.6-37-10.5c-1.2,6.5-2.3,11.4-2.9,13.8
					c-1.8,6.9-2.3,10.3-2.3,10.3c0.3,6.8,1.9,9.8,25,16.5c23.1,6.7,84.7,2.9,84.7,2.9l17.8-4.3l20.7-7.2l3-0.8l2.2-23.8
					c0,0,0-0.1,0-0.3C243.6,127.4,231.7,129,217,130z"/>
				<path class="head-st3" d="M217,130c-4.8,0.3-9.6,0.5-14.4,0.7c-1.7,1.4-3.5,2.7-5.3,4c-18.4,12.8-40.8,19.7-62.8,23.2
					c-1,0.2-1.9,0.3-2.9,0.5c24.4,6,82.8,2.5,82.8,2.5l17.8-4.3l20.7-7.2l3-0.8l2.2-23.8c0,0,0-0.1,0-0.3
					C243.6,127.4,231.7,129,217,130z"/>
			</g>
			<path class="head-st4" d="M260.6,39.8c-13.5-2.8-41.5-6-57.2-7.3c-19.2-1.6-60.1-2.5-60.1-2.5s-26.9-0.8-28.9,5.7
				c0,0,97,29.8,158.9,10.2C271.7,42.1,265.4,40.8,260.6,39.8z"/>
			<path class="head-st5" d="M261.2,39.9c0.1,0.2,0.3,0.4,0.3,0.6c-48,15.2-117.1,0.7-145.7-6.6c-0.7,0.5-1.3,1.1-1.5,1.8
				c0,0,97,29.8,158.9,10.2C271.8,42.3,265.9,40.9,261.2,39.9z"/>
		</g>
		<path class="head-st4" d="M299.1,138.9c0,0,9.9,14-6,10.2c-21.9-5.8-67.8,10-107.9,26.9c-39.3,16.5-77,5.4-110.7-24.9
			c-29.5-26.6,24-34.5,34.9-35.8c-108.4,12.2-2.7,72.4,34.1,77.8c36.6,5.3,74.2-25.8,117.9-25.8
			C334.4,169.7,300.7,139.8,299.1,138.9z"/>
		<path class="head-st4" d="M111.1,115.1c0,0-0.7,0.1-1.9,0.2C109.9,115.2,110.5,115.1,111.1,115.1z"/>
	</g>
</g>
</svg>
