<?xml version="1.0" encoding="utf-8"?>
<!-- Generator: Adobe Illustrator 26.0.3, SVG Export Plug-In . SVG Version: 6.00 Build 0)  -->
<svg version="1.1" id="Layer_1" xmlns="http://www.w3.org/2000/svg" xmlns:xlink="http://www.w3.org/1999/xlink" x="0px" y="0px"
	 viewBox="0 0 384 400" style="enable-background:new 0 0 384 400;" xml:space="preserve">
<style type="text/css">
	.head-st0{fill:#474646;}
	.head-st1{fill:#302C30;}
	.head-st2{fill:#424241;}
	.head-st3{opacity:0.6;fill:#FFFFFF;}
	.head-st4{opacity:0.28;fill:#FFFFFF;}
	.head-st5{fill:#80807C;}
	.head-st6{opacity:0.3;fill:#FFFFFF;}
	.head-st7{opacity:0.6;fill:#2F2E2E;}
</style>
<g>
	<path d="M298.2,108.1c-21.3-4-49.7-3.6-51.5-3.6c-5.9-0.4-120-7.6-140.3-4.2c-22.3,3.7-46.9,15.2-51.6,32.5
		c-1.8,6.7-1.1,17.2,12.6,28.7c18.6,15.5,38.9,19.7,59.3,19.7c7.3,0,14.7-0.6,21.9-1.3c31.6-3.4,86.1-21.1,123.2-35.3
		c26.7-10.2,37-17.6,36.9-26.4C308.6,112.6,305.2,109.4,298.2,108.1z M270.3,140.8c-36.8,14.1-90.9,31.7-122.2,35.1
		c-26.3,2.8-54,2.6-78.1-17.5c-9.7-8.1-13.6-16.4-11.3-24.6c3.6-13.3,23.5-25.5,48.4-29.6c19.9-3.3,138.3,4.2,139.5,4.3
		c0.1,0,0.1,0,0.2,0c0.3,0,29.2-0.5,50.7,3.5c6.5,1.2,7.1,3.7,7.2,6.2C304.8,124.8,294.5,131.5,270.3,140.8z"/>
	<path class="head-st0" d="M297.9,110c-22-4.1-51.1-3.6-51.1-3.6s-116.2-7.2-136.6-3.8c-36.5,6.1-73,30.8-41.4,57.2
		c23.4,19.5,49.6,21.2,79.6,18c33.5-3.6,90.9-23,122.7-35.2c24-9.2,35.8-16.4,35.6-24.5C306.6,114.7,305.2,111.4,297.9,110z"/>
	<path class="head-st1" d="M118.7,108c-31.3,3.9-60.6,25.3-33.5,42.3c20.1,12.6,61.4,11.8,68.3,11.6c15.8-0.4,37.7-4.8,58.7-10v-38.4
		C180.9,110.7,130.5,106.5,118.7,108z"/>
	<path d="M186.6,38.5c-50.3-2-94.4,38.8-102.6,94.8c-0.2,1.1,0,2.8,1.6,4.6c10.2,11.3,78,18.4,126.9,18.4c5.9,0,11.5-0.1,16.6-0.3
		l0.6,0l0.5-0.3c3.6-2,7.3-3.9,11-5.8c2.2-1.1,4.4-2.3,6.6-3.5c9.2-4.9,19-9.8,29.6-12.2l2-0.5l0-2
		C278.2,81.4,237.5,40.5,186.6,38.5z M245.5,142c-2.2,1.2-4.4,2.3-6.6,3.4c-3.5,1.8-7.1,3.7-10.6,5.6c-53.6,2-128.6-6.7-138.8-16.2
		c-0.5-0.5-0.6-0.8-0.6-0.9v0c7.6-52.3,47.8-90.6,94.2-90.6c1.1,0,2.2,0,3.3,0.1c47.5,1.9,85.7,39.6,87.9,86.3
		C264,132.5,254.4,137.3,245.5,142z"/>
	<path class="head-st2" d="M186.5,41c-51.9-2-92.5,41.3-100,92.7c-0.5,3.3,7.9,4.2,17.9,7.3c27,8.1,74.1,10.6,120.7,7.6
		c5.8-3.2,15.6-1.2,21.5-4.3c9.6-5.1,19.6-10.1,30.2-12.5C275.7,83,236.1,42.9,186.5,41z"/>
	<path class="head-st3" d="M93.8,106.2c-2.9,7.9-6,18.9-7.3,27.5c0,0.1-0.1,0.3-0.1,0.5c0.8,6.1,27.4,8.5,32.1,9.9
		c43.7,13.2,150.1,3.3,157.9-19.2c-0.7-7.5-2.4-14.8-4.8-21.7C175.7,129.6,108.8,112,93.8,106.2z"/>
	<path class="head-st3" d="M93.8,106.2c-0.5,1.4-1,2.8-1.4,4.2c20.1,6.3,86.3,22.4,180.3-4c-0.3-1-0.6-2.1-1-3.1
		C187.4,128.3,108.8,112,93.8,106.2z"/>
	<path class="head-st4" d="M188.9,44.1c-41.1-1.6-85.2,29.7-73.6,57.7c6.9,16.5,145,13.8,145.9-2.4C262.8,70.5,230,45.7,188.9,44.1z"/>
	<path class="head-st4" d="M160.9,58.3c20.7,26.7,52.2,53.6,88.5,46.5C280.9,98.7,204.9,20.8,160.9,58.3z"/>
	<path d="M302.1,109.1c-0.3-0.1-0.6-0.2-0.9-0.1c-0.1,0-0.2,0-0.4,0c-9.6-0.9-19.3,0.7-28.9,4.7c-7.2,3-15,7.5-24.1,12.8
		c-13.7,7.9-29.1,16.9-47.6,23.7c-38.4,14.2-71.3,18.8-97.6,13.6l-0.6-0.1c-9.2-1.8-31.3-7.8-37.7-24.9c-3.8-10.1,4.9-16,19.5-24.4
		c1.5-0.8,2.9-1.7,4.4-2.5c0.6-0.3,0.9-0.9,1-1.6c0-0.7,0.1-1.4,0.3-2.1c0.2-0.7,0-1.4-0.5-1.9c-0.5-0.5-1.2-0.7-1.9-0.5
		c-18.7,4.7-30.4,13.7-33.1,25.3c-2.3,10.2,2.6,21.3,13.6,30.5c18.6,15.5,38.9,19.7,59.3,19.7c7.3,0,14.7-0.6,21.9-1.3
		c31.6-3.4,86.1-21.1,123.2-35.3c26.7-10.2,37-17.6,36.9-26.4C308.6,115.3,307.9,111.3,302.1,109.1z M270.3,140.8
		c-36.8,14.1-90.9,31.7-122.2,35.1c-26.3,2.8-54,2.6-78.1-17.5c-9.8-8.2-14.2-17.8-12.2-26.5c1.9-8.2,9.4-15,21.5-19.6
		c-12.2,7.1-23.7,14.7-18.8,27.9c7.1,19.1,30.8,25.6,40.6,27.5l0.6,0.1c27.1,5.3,60.7,0.7,99.8-13.8c18.8-7,34.5-16,48.3-24
		c8.9-5.2,16.7-9.6,23.6-12.6c9-3.8,18.1-5.3,27-4.4c0.2,0,0.4,0,0.6,0c3,1.2,3.6,2.9,3.7,5.2C304.8,124.8,294.5,131.5,270.3,140.8z
		"/>
	<path class="head-st5" d="M301.4,111c0.2,0.3-12.1-2.5-28.7,4.5c-17.8,7.5-40.8,25.1-71.8,36.5c-59.9,22.1-91.8,15-99.3,13.6
		c-7.5-1.5-31.8-7.4-39.2-26.2c-5.6-14.3,10.4-20.9,24.8-29.4c0-0.1,0-0.1,0-0.2v-1c0-0.5,0.1-0.9,0.1-1.3
		c-36.9,9-39.2,35.1-18.6,52.3c23.4,19.5,49.6,21.2,79.6,18c33.5-3.6,90.9-23,122.7-35.2c24-9.2,35.8-16.4,35.6-24.5
		C306.6,115.3,305.7,112.6,301.4,111z"/>
	<path class="head-st6" d="M95.3,115.5c0,0-6.4,18.7-5.1,17.9c10.6,5.5,93.2,17.4,106.8,9.4c13.6-8.1,47.4-21.2,47.4-21.2l17.3-10.3
		c0,0-46,7.7-70.6,11.5C166.4,126.5,95.3,115.5,95.3,115.5z"/>
	<path class="head-st7" d="M280.6,130.8c-11.9,7.6-62.2,28.6-76.9,34.7c24.7-7.2,49.9-16.1,67.4-22.8c10.8-4.1,19.1-7.9,25-11.5
		C294.7,128.5,290.9,124.2,280.6,130.8z"/>
	<path class="head-st4" d="M213.6,151.2c-61.7,25.6-116.1,19.4-116.1,19.4s2.2,8.9,60.6,1.7c26.7-3.3,93.5-33.9,108.9-42.8
		c18.3-10.6,37.5-7,35-12.2C293.1,99,261.9,129,213.6,151.2z"/>
	<path class="head-st4" d="M273.6,121.8c3.3,3.9,25.3-2.1,22.8-5.6C291.9,110.1,270.3,117.9,273.6,121.8z"/>
</g>
</svg>
