<?xml version="1.0" encoding="utf-8"?>
<!-- Generator: Adobe Illustrator 26.0.3, SVG Export Plug-In . SVG Version: 6.00 Build 0)  -->
<svg version="1.1" id="Layer_1" xmlns="http://www.w3.org/2000/svg" xmlns:xlink="http://www.w3.org/1999/xlink" x="0px" y="0px"
	 viewBox="0 0 384 400" style="enable-background:new 0 0 384 400;" xml:space="preserve">
<style type="text/css">
	.head-st0{fill:#010003;}
	.head-st1{fill:#5E0088;}
	.head-st2{opacity:0.1;fill:#FFFFFF;}
	.head-st3{opacity:0.2;}
	.head-st4{opacity:0.5;}
	.head-st5{fill:#10001C;}
	.head-st6{fill:#E8930F;}
	.head-st7{fill:#FDD701;}
</style>
<g>
	<path class="head-st0" d="M24.6,163.7c0,0,9.2,21.1,61.9,15.1c1.2-9.1,3-13.9,3-13.9S41.5,143.8,24.6,163.7z"/>
	<g>
		<path class="head-st0" d="M308.3,37.8c-0.3-0.6-0.8-1.1-1.4-1.3L234,8.1c-0.5-0.2-1-0.2-1.5-0.1l-92.7,24.6c-0.8,0.2-1.5,0.8-1.7,1.6
			l-28.2,84.9c-0.2,0.5-0.2,1,0,1.4c0,0,1.1,4.1,2.5,8.7c0.3,1.1,1.3,1.8,2.4,1.8c0,0,0.1,0,0.1,0l137.2-6.7c1.2-0.1,2.3-1,2.4-2.3
			l0.6-7.1c0-0.5,0-0.9-0.2-1.3L237.6,79c0-0.1-0.1-0.1-0.1-0.2L227,61.6l58.4-3.6l26.1,30.1l0.8,19.2c0,1.1,0.7,2,1.8,2.3
			c1,0.3,2.1-0.1,2.7-0.9l13.3-18.1c0.5-0.7,0.6-1.7,0.3-2.5L308.3,37.8z M251.8,121.8L251.8,121.8L251.8,121.8z M317,100l-0.5-13
			c0-0.6-0.2-1.1-0.6-1.5l-27.5-31.7c-0.5-0.6-1.3-0.9-2-0.9l-63.8,4c-0.9,0.1-1.7,0.6-2.1,1.3s-0.4,1.7,0.1,2.5l12.5,20.6
			l16.8,33.9l-0.4,4.3l-133.1,6.5c-0.8-2.6-1.4-4.9-1.7-6l27.5-82.9l90.6-24l71.2,27.7l21.1,48.1L317,100z"/>
		<path class="head-st1" d="M233.1,10.4L140.3,35l-28.2,84.9c0,0,1.1,4,2.5,8.6l137.2-6.7l0.6-7.1l-17.1-34.6l-12.6-20.7l63.8-4L314,87.1
			l0.8,20.1l13.3-18.1L306,38.8L233.1,10.4z"/>
		<path class="head-st2" d="M190.5,40.3c-12.4,2.3-21.1,42.3-11.5,52.1c9.5,9.8,2.6,20.8-1.8,27.8c-1,1.7,0.1,4.7,2.5,8.3l72.1-6.7
			l0.6-7.1l-17.1-34.6l-12.6-20.7l38.2-2.4C238.8,50.2,199.3,38.7,190.5,40.3z"/>
		<path class="head-st3" d="M112.1,119.8c0,0,1.1,4,2.5,8.6h16c-14.8-11.7,11.5-76.7,11.5-76.7l30.1-25.3L140.3,35L112.1,119.8z"/>
		<polygon class="head-st4" points="314,87.1 314.1,88.9 319.7,85.4 312.5,85.4 		"/>
		<path class="head-st4" d="M224.3,85.3c3-0.4,8.4-2.2,11.9-3.5l-0.9-1.8l0.9-1.7C232.5,80.9,226.4,84.8,224.3,85.3z"/>
		<polygon class="head-st4" points="286.5,55.4 288.2,57.4 289,48.3 285.3,55.5 		"/>
		<polygon class="head-st4" points="222,60.8 222.7,59.4 224.7,59.3 212.6,50.8 		"/>
	</g>
	<g>
		<path class="head-st0" d="M165.3,113.5C91,118.2,30.9,138.9,22.2,162.9c-0.4,1,0,2.1,0.8,2.8c0.8,0.7,2,0.7,2.9,0.2
			c13-8.3,33.2-2.4,58.8,5.1c22,6.5,46.6,13.7,73.1,13.7c2.9,0,5.9-0.1,8.9-0.3c29.9-1.9,57.3-13.5,81.4-23.7
			c24.4-10.3,45.5-19.2,58.9-12.6c0.9,0.5,2.1,0.3,2.8-0.4c0.8-0.7,1-1.8,0.6-2.8C300.7,122,239.7,108.8,165.3,113.5z M246.2,156.1
			c-23.8,10.1-50.8,21.5-79.8,23.3c-29.1,1.8-56.3-6.2-80.3-13.2c-16.5-4.9-31.6-9.3-44.3-9.3c-3.9,0-7.6,0.4-11.1,1.4
			c16.1-19,71.8-35.8,134.9-39.8c63.3-4,119.7,5.8,136.3,22.7C287.4,138.6,268.8,146.5,246.2,156.1z"/>
		<path class="head-st1" d="M165.5,116c-73,4.6-132.8,25.3-140.9,47.7c27-17.2,80.8,22,142,18.1c61.2-3.9,113.8-49.8,141.6-36.1
			C299.1,124.5,238.5,111.4,165.5,116z"/>
		<path class="head-st3" d="M217,158.4c-30.3,19.4-136.6,8.2-79.3-39.8C77.8,126,31.6,144.2,24.6,163.7c27-17.2,80.8,22,142,18.1
			c61.2-3.9,113.8-49.8,141.6-36.1c-0.9-2.1-2.3-4.1-4.1-6C277.9,127.5,244.3,140.9,217,158.4z"/>
		<path class="head-st2" d="M180.5,138.6c18.9,15.4,72.5-0.2,103.4-10.9c-15-5.8-35.8-9.8-60.2-11.6C201.7,117.5,160.5,122.4,180.5,138.6
			z"/>
	</g>
	<g>
		<path class="head-st0" d="M239.7,87.7c-21.4-4-64.1-3.3-119.2-1.9c-4.4,6.5-6.9,15.1-8.4,21.4l-1,8l-4.2,5c0,0,97.9,4.4,145,1.8
			l2.1-8.5L252,99.7L239.7,87.7z"/>
		<path class="head-st5" d="M239.7,87.7c-21.4-4-64.1-3.3-119.2-1.9c-4.4,6.5-6.9,15.1-8.4,21.4l-1,8l-4.2,5c0,0,97.9,4.4,145,1.8
			l2.1-8.5L252,99.7L239.7,87.7z"/>
		<g>
			<g>
				<path d="M181.3,89.9L160,89.1c-0.9,0-1.7,0.1-2.5,0.4l-0.3,0.1l-0.3,0.2c-1.9,1.3-3.1,3.4-3.1,5.7l-0.3,17.4l0.5,0.7
					c1.2,1.8,3.3,2.8,5.5,2.9l21,0.3c0,0,0.1,0,0.1,0c3.5,0,6.4-2.7,6.5-6l0.5-14.4c0.1-1.6-0.5-3.2-1.6-4.4
					C184.8,90.7,183.1,90,181.3,89.9z M181.6,110.5c0,0.4-0.5,0.7-1.1,0.7l-21-0.3c-0.2,0-0.4,0-0.6-0.1l0.3-15.3
					c0-0.4,0.1-0.7,0.4-1c0.1,0,0.2,0,0.2,0l21.3,0.8c0.3,0,0.7,0.1,0.9,0.4c0.1,0.1,0.2,0.3,0.2,0.5L181.6,110.5z"/>
				<path d="M184.3,82.2l-27-1.2c-3.2-0.1-6.1,1-8.4,3.1c-2.3,2.2-3.6,5.2-3.7,8.4l-0.2,19.9c0,3.1,1.1,6,3.3,8.3
					c2.2,2.2,5.1,3.4,8.2,3.5c0.8,0.2,1.5,0.3,2.2,0.3l24.6,0.1c0,0,0,0,0.1,0c5.6,0,10.4-4.6,10.7-10.2l0.9-20
					C195.3,87.9,190.5,82.4,184.3,82.2z M188.7,113.8c-0.1,2.9-2.5,5.3-5.3,5.3c0,0,0,0,0,0l-24.6-0.1c-0.4,0-0.8-0.1-1.3-0.2
					l-0.3-0.1l-0.6,0c-1.6,0-3.2-0.7-4.3-1.8c-1.2-1.2-1.8-2.7-1.8-4.4l0.2-19.9c0-1.8,0.7-3.4,2-4.5c1.1-1.1,2.6-1.7,4.2-1.7
					c0.1,0,0.2,0,0.3,0l27,1.2c3.2,0.1,5.6,3,5.5,6.4L188.7,113.8z"/>
				<path d="M153.2,109.9l15.4-2.5l2.3-7.9l-17.8-4L153.2,109.9z M166.3,102.2l-0.6,2l-8.9,1.5l0-5.6L166.3,102.2z"/>
				<path class="head-st6" d="M184.2,84.9l-27-1.2c-5-0.2-9.2,3.8-9.2,8.9l-0.2,19.9c-0.1,4.9,3.9,8.9,8.8,9l26.3,0.1
					c4.6,0,8.4-3.8,8.6-8.5l0.8-19C192.5,89.2,188.9,85.1,184.2,84.9z M184.3,110.6c-0.1,1.9-1.8,3.4-3.9,3.4l-21-0.3
					c-2.2,0-3.9-1.6-3.9-3.6l0.2-14.8c0-2,1.9-3.5,4.1-3.5l21.3,0.8c2.1,0.1,3.7,1.7,3.7,3.6L184.3,110.6z"/>
				<path class="head-st7" d="M183.7,86.1l-25.2-1c-4.7-0.2-8.5,3.5-8.6,8.2l-0.2,18.4c-0.1,4.6,3.6,8.3,8.2,8.3l24.5,0.1
					c4.3,0,7.9-3.5,8.1-7.9l0.8-17.6C191.5,90.1,188.1,86.2,183.7,86.1z M185.4,111.7c-0.1,2.2-1.9,4-4.1,4l-21.9-0.2
					c-2.3,0-4.1-1.9-4-4.2l0.3-17.4c0-2.3,2-4.2,4.3-4.1l22.3,0.8c2.2,0.1,3.9,2,3.8,4.3L185.4,111.7z"/>
				<polygon class="head-st7" points="155.1,107.8 167.2,105.8 168.6,100.8 155,97.8 				"/>
			</g>
		</g>
		<path class="head-st2" d="M149.1,89c-8.4,0.2-17.2,0.4-26.3,0.6c-1.4,2-2.5,4.1-3.5,6.4c0.6,0.1,1.3,0.1,1.9,0.2
			c9.3,1.1,18.7,1.9,28.1,2.3c0.1,0,0.3,0,0.4,0C147.1,96.1,147.2,91.9,149.1,89z"/>
		<path class="head-st2" d="M187.6,88.5c2.7,2.6,3,7.4,0.8,10.4c5.8,0,11.6-0.1,17.4-0.1c12.8,0,26.3,0.3,39.5-0.8l-7-6.6
			C226.9,89.3,209.6,88.6,187.6,88.5z"/>
	</g>
	<path class="head-st0" d="M308.1,145.8c-14.5-10-36.3,0.3-36.3,0.3s-1.8-5.5,4.8,17.6C307.5,164.2,315,150.5,308.1,145.8z"/>
</g>
</svg>
