<?xml version="1.0" encoding="utf-8"?>
<!-- Generator: Adobe Illustrator 26.0.3, SVG Export Plug-In . SVG Version: 6.00 Build 0)  -->
<svg version="1.1" id="Layer_1" xmlns="http://www.w3.org/2000/svg" xmlns:xlink="http://www.w3.org/1999/xlink" x="0px" y="0px"
	 viewBox="0 0 384 400" style="enable-background:new 0 0 384 400;" xml:space="preserve">
<style type="text/css">
	.head-st0{fill:#1C1C1C;}
	.head-st1{fill:#999999;}
	.head-st2{fill:#D1D1D1;}
	.head-st3{fill:#4A4A4A;}
	.head-st4{fill:#6E4426;}
	.head-st5{opacity:0.5;fill:#6E4426;}
	.head-st6{opacity:0.5;fill:#D1FFFE;}
	.head-st7{fill:#4C13A6;}
	.head-st8{fill:#7A2ED7;}
	.head-st9{opacity:0.5;}
	.head-st10{opacity:0.5;fill:#FFFFFF;}
</style>
<g>
	<g>
		<g>
			<path class="head-st0" d="M343.1,139.3c-6.4-4.1-37.3-7.7-55-6.5c-0.8,0.1-1.4,0.6-1.6,1.3s0.1,1.5,0.7,1.9c7.4,5.3,11.9,12.2,12.9,14
				c0,2-0.4,10.1-4.4,17.9c-0.3,0.6-0.2,1.4,0.2,2c0.3,0.4,0.9,0.6,1.4,0.6c0.2,0,0.4,0,0.5-0.1c19.8-6,44.5-27.4,45.5-28.3
				c0.4-0.4,0.7-0.9,0.6-1.5C343.9,140.1,343.6,139.6,343.1,139.3z M300.6,165.7c3.2-8.3,3.1-15.8,3.1-16.2c0-0.3-0.1-0.6-0.2-0.8
				c-0.2-0.3-3.7-6.6-10.4-12.5c15.9-0.4,37.7,2.3,45.8,5.1C332.9,146.2,315.6,159.8,300.6,165.7z"/>
			<path class="head-st1" d="M288.2,134.6c8.9,6.4,13.7,14.9,13.7,14.9s0.2,9.8-4.6,19.2c19.6-6,44.9-28,44.9-28
				C336.4,137.2,306.5,133.3,288.2,134.6z"/>
			<path class="head-st2" d="M307.7,145.6c4.7-2.7,30.9-5.8,30.9-5.8l-39.6-3.6C298.9,136.2,306.9,141.5,307.7,145.6z"/>
			<path class="head-st3" d="M288.2,134.6c8.9,6.4,11.9,15,11.9,15s2,9.7-2.9,19.1c4.5-2.3,10.8-15.1,8.7-22.3
				C303.7,138.7,288.9,134.7,288.2,134.6z"/>
		</g>
		<g>
			<path class="head-st0" d="M298.6,143.7c-0.1,0-0.2,0-0.4,0l-23.3,3.8c-0.9,0.1-1.6,1-1.5,1.9l0.8,10.7c0,0.5,0.3,0.9,0.7,1.3
				c0.3,0.3,0.7,0.4,1.1,0.4c0.1,0,0.2,0,0.3,0c21.5-3.1,26.5-4.9,28.3-7c0.2-0.3,0.4-0.6,0.4-0.9c0.4-3.3-0.2-5.9-1.7-7.7
				C301.4,143.8,298.9,143.7,298.6,143.7z M301.5,152.7c-2.8,2-17,4.2-23.9,5.2l-0.5-7.2l21.5-3.5c0.4,0.1,1.3,0.3,2,1.1
				C301.3,149.3,301.6,150.8,301.5,152.7z"/>
			<path class="head-st4" d="M298.5,145.5l-23.3,3.8L276,160c17.3-2.5,25.5-4.4,27.2-6.4C304.2,145.7,298.5,145.5,298.5,145.5z"/>
			<path class="head-st5" d="M289.5,154.8c-6.9,1.3-6.2,1.7-13.7,2.9l0.2,2.3c17.3-2.5,25.5-4.4,27.2-6.4c0.2-1.8,0.1-3.1-0.2-4.2
				C297,150.4,295.5,153.6,289.5,154.8z"/>
			<path class="head-st6" d="M298.5,145.5l-23.3,3.8l0.3,3.3c19-2.4,27.2-3.5,27.4-3.7C301.6,145.6,298.5,145.5,298.5,145.5z"/>
		</g>
	</g>
	<g>
		<g>
			<path d="M128.9,167.1l-37.9,1.6c-0.4,0-0.8,0.2-1,0.6l-2.3,0.1c-0.4,0-0.8,0.2-1,0.6l-12.1,17.3c-0.2,0.3-0.3,0.8-0.2,1.2
				c0.1,0.4,0.5,0.7,0.9,0.8l1.7,0.5c0.3,0.3,0.7,0.4,1.1,0.4c0.1,0,0.2,0,0.4,0c0.1,0,0.1,0,0.2,0l11.7-2c0.3-0.1,0.7-0.2,0.9-0.5
				l4.2-5.7L96,186c0.1,0.4,0.2,0.7,0.5,0.9c0.3,0.2,0.7,0.3,1,0.2l16.4-2.8c0.3-0.1,0.7-0.2,0.9-0.5l1.7-2.3l0.2,1
				c0.1,0.4,0.2,0.7,0.5,0.9c0.3,0.2,0.7,0.3,1,0.2l0.5-0.1c0.2,0,0.4-0.1,0.5-0.2l2.8-0.5c0.4-0.1,0.8-0.3,1-0.7l7.1-13.1
				c0.2-0.4,0.2-0.9,0-1.3C129.8,167.4,129.4,167.1,128.9,167.1z M90.6,170.7L90.6,170.7L90.6,170.7z M121,180.3l-1.9,0.3l-0.4-2.8
				c-0.1-0.5-0.5-1-1-1.1c-0.5-0.1-1.1,0.1-1.4,0.5l-3.3,4.5l-14.6,2.5l-0.9-5.8c-0.1-0.5-0.5-1-1-1.1c-0.5-0.1-1.1,0.1-1.4,0.5
				l-5.7,7.9l-10.9,1.8c0,0,0,0-0.1,0c0,0-0.1,0-0.1,0l-0.6-0.2l10.7-15.3l2.3-0.1c0.4,0,0.8-0.2,1-0.6l34.9-1.5L121,180.3z"/>
			<polygon class="head-st7" points="75.6,188.1 78.4,189 90.1,187 96.2,178.7 97.3,185.8 113.7,183 117.3,178.1 118,182.3 118.5,182.2 
				125.6,169.2 87.6,170.8 			"/>
			<polygon class="head-st8" points="77.8,189 90.2,186.9 96.2,178.7 97.3,185.7 113.8,182.9 117.3,178.1 118,182.2 121.8,181.5 
				126.6,171 92.1,173.8 			"/>
			<polygon class="head-st7" points="108.9,179.5 115.4,170.9 109.4,171.6 			"/>
		</g>
		<path class="head-st0" d="M156.2,153.7c-0.1,0-0.2,0-0.3,0l-72.4,3.2c-2.7,0.1-5.2,1.4-6.5,3.4c-1.1,1.6-1.3,3.5-0.7,5.3
			c1,2.8,4.1,4.7,7.6,4.7c0,0,0.1,0,0.1,0c48.2-0.5,74.1-2.2,77-5c0.2-0.2,0.4-0.5,0.5-0.9c0.8-3.2,0.5-5.9-0.9-7.9
			C159,154.2,156.5,153.8,156.2,153.7z M158.2,162.9c-4.6,1.9-33.9,3.4-74.2,3.8c0,0,0,0-0.1,0c-2,0-3.7-1-4.2-2.4
			c-0.3-0.9,0-1.6,0.3-2.1c0.7-1,2.1-1.7,3.7-1.8l72.2-3.2c0.3,0.1,1.3,0.4,1.9,1.3C158.3,159.6,158.5,161.1,158.2,162.9z"/>
		<path class="head-st4" d="M156,155.5l-72.4,3.2c-4,0.2-6.7,3.2-5.6,6.3c0.8,2.1,3.2,3.6,6,3.5c16.6-0.2,72.1-1,75.8-4.5
			C161.5,156.3,156,155.5,156,155.5z"/>
		<path class="head-st5" d="M146,163.8c-21.2,1.8-46.6,3.1-67.9,1.4c0.9,2,3.2,3.4,5.9,3.3c16.6-0.2,72.1-1,75.8-4.5
			c0.4-1.7,0.4-3.1,0.2-4.2C153.9,160.2,152.1,163.3,146,163.8z"/>
		<path class="head-st6" d="M156,155.5l-72.4,3.2c-2,0.1-3.7,0.9-4.7,2.1c26.7-0.1,80.7-1.2,81-1.5C159,155.9,156,155.5,156,155.5z"/>
		<g>
			<g>
				<path d="M119.5,140.3c-0.2-0.3-0.6-0.5-1-0.5l-5.2-0.2c-0.6,0-1.1,0.3-1.3,0.8l-1.1,2.5l-3.2-3.2c-0.2-0.2-0.6-0.4-0.9-0.4
					l-26.7-1.2c-0.1,0-0.1,0-0.2,0c-0.5,0-1,0.2-1.2,0.6c0,0.1-0.1,0.1-0.1,0.2l-2.2,2.9c-0.3,0.4-0.4,1-0.1,1.5
					c6.4,11.5,8.1,15,8.3,15.9c0,0.3,0.1,0.6,0.3,0.9c0.3,0.3,0.6,0.5,1.1,0.5c0,0,0,0,0.1,0l39.1-2.1c0.5,0,1-0.3,1.2-0.8
					c0.1-0.1,0.1-0.3,0.1-0.5l2.6-0.1c0.5,0,0.9-0.3,1.1-0.8s0.2-1-0.1-1.4L119.5,140.3z M84.7,158.7
					C84.7,158.7,84.7,158.7,84.7,158.7C84.7,158.7,84.7,158.7,84.7,158.7z M84.7,158.7C84.7,158.7,84.7,158.7,84.7,158.7
					C84.7,158.7,84.7,158.7,84.7,158.7z M124,154.5c-0.5,0-1,0.3-1.2,0.8c-0.1,0.1-0.1,0.3-0.1,0.4L87,157.7
					c-0.7-1.8-2.7-5.7-7.9-15l1.5-1.9l25.6,1.2l4.2,4.2c0.3,0.3,0.8,0.4,1.2,0.4c0.4-0.1,0.8-0.4,1-0.8l1.5-3.4l3.6,0.2l8.7,12
					L124,154.5z"/>
				<path class="head-st7" d="M111.8,144.1l-0.4,1l-1.3-1.3L80,139.4l-2.4,3.2c2.6,4.7,8.8,15.7,8.5,16.6l43.1-1.5
					c0.1-0.3,0.3-0.6,0.4-0.9c0-0.1,0-0.1,0.1-0.2l-15.8-12.2L111.8,144.1z"/>
				<polygon class="head-st7" points="111.4,145.1 111.8,144.1 110.1,143.9 				"/>
				<path class="head-st8" d="M113.3,140.9l-1.9,4.2l-4.6-4.5l-26.9-1.2c0,0,9.7,17.3,9.3,18.4l39.8-2.2l-10.5-14.5L113.3,140.9z"/>
				<g class="head-st9">
					<path class="head-st10" d="M113.3,140.9l-1.4,3.1c3.2,0.6,6.4,0.9,9.6,1.2l-3-4.1L113.3,140.9z"/>
					<path class="head-st10" d="M79.9,139.4c0,0,0.7,1.3,1.8,3.2l28.3,0.9l-3.2-2.9L79.9,139.4z"/>
				</g>
				<path class="head-st10" d="M97,157.3c0,0-0.1,0.1-0.1,0.1l5.4-0.3c-0.6-1.9-1.2-3.8-1.8-5.7C99.5,153.4,98.4,155.4,97,157.3z"/>
				<path class="head-st10" d="M92.6,145.9c0.5-1.9,0.9-3.9,1.2-5.9l-6.5-0.3C89,141.9,90.8,143.9,92.6,145.9z"/>
			</g>
			<polygon class="head-st7" points="118,158 124.5,156.8 116.6,146.3 			"/>
		</g>
	</g>
</g>
</svg>
