<?xml version="1.0" encoding="utf-8"?>
<!-- Generator: Adobe Illustrator 26.0.3, SVG Export Plug-In . SVG Version: 6.00 Build 0)  -->
<svg version="1.1" id="Layer_1" xmlns="http://www.w3.org/2000/svg" xmlns:xlink="http://www.w3.org/1999/xlink" x="0px" y="0px"
	 viewBox="0 0 384 400" style="enable-background:new 0 0 384 400;" xml:space="preserve">
<style type="text/css">
	.head-st0{fill:#010003;}
	.head-st1{fill:#5E0088;}
	.head-st2{fill:#E8930F;}
	.head-st3{opacity:0.16;}
</style>
<g>
	<path class="head-st0" d="M251.1,16c-3.9-2.5-7.4-3.1-10.3-1.6c-5.6,2.8-6.3,12-6.3,13l-0.3,5l3.7-3.4c1.9-1.7,3.9-2.5,6.2-2.3
		c7.1,0.6,14.2,9.5,14.3,9.6l1.6,2.1l8.8-11.7l2.8-3.6l-4.5,0.4C267.1,23.4,262.5,23.4,251.1,16z M259.9,31.8
		c-2.8-3.1-8.9-8.6-15.4-9.1c-0.3,0-0.7,0-1,0c-1.5,0-2.8,0.3-4.2,0.8c0.6-2.2,1.7-4.5,3.4-5.4c1.5-0.8,3.6-0.3,6.2,1.4
		c7,4.6,11.8,6.6,14.8,7.4L259.9,31.8z"/>
	<path class="head-st1" d="M250,17.7c-12.4-8.1-13.5,9.8-13.5,9.8C246.7,18,260,35,260,35l7.3-9.6C267.3,25.4,262.4,25.8,250,17.7z"/>
	<path class="head-st0" d="M255.5,27.9c-1.4-4.5-3.7-7.1-6.9-7.8c-6.1-1.4-12.5,5.2-13.2,6l-3.4,3.7l5-0.3c2.5-0.2,4.6,0.6,6.3,2.2
		c5.1,5,4.9,16.4,4.9,16.5l-0.1,2.6l14.3-3.4l4.5-1l-3.8-2.6C263.2,43.7,259.6,40.8,255.5,27.9z M252.3,45.6
		c-0.2-4.2-1.3-12.3-6.1-16.9c-1.3-1.3-2.8-2.2-4.4-2.7c1.9-1.3,4.2-2.4,6-2c1.7,0.4,3,2.1,3.9,5.1c2.5,8,4.9,12.6,6.7,15.1
		L252.3,45.6z"/>
	<path class="head-st2" d="M253.6,28.5c-4.4-14.1-16.6-1.1-16.6-1.1c13.9-0.8,13.3,20.7,13.3,20.7l11.7-2.8C262,45.4,258,42.6,253.6,28.5
		z"/>
	<path class="head-st0" d="M239.4,26.1c-0.1-1-0.8-1.8-1.8-2c-0.9-0.3-1.9,0-2.6,0.7l-81,90.5c-0.5,0.5-0.7,1.2-0.6,2
		c0.1,0.7,0.5,1.4,1.1,1.8c29.7,20.5,53.1,25.4,68.6,25.4c1.6,0,3.2-0.1,4.7-0.2c16.9-1.1,25.8-7.8,26.2-8c0.7-0.5,1.1-1.4,1-2.3
		L239.4,26.1z M159.7,116.5l75.5-84.4L249.8,133C243.5,136.8,212.2,151.7,159.7,116.5z"/>
	<path class="head-st1" d="M155.9,117c62.4,43.2,96.6,17.3,96.6,17.3L237,26.5L155.9,117z"/>
	<path class="head-st2" d="M230.2,34c2.6,0.4,5.3,0.7,8,0.8l-1.2-8.3L230.2,34z"/>
	<path class="head-st2" d="M218.8,46.8L206,61c0,0.7,0.1,1.3,0.2,1.6c0.1,0.1,0.5,0.5,0.9,0.7c1.5,0.6,3.3,0.8,4.9,1.1
		c8.2,1.4,16.8,0.6,24.9-1.3c1.7-0.4,3.4-0.9,5.1-1.4L240.3,50C232.9,50,225.7,49.1,218.8,46.8z"/>
	<path class="head-st2" d="M233.5,79c-10.5,1.6-23.6,2.3-33.4-2.5c-2-1-3.5-2.2-4.7-3.5l-16.1,18c3.1,3.8,8.2,6.2,12.7,8
		c7.3,2.9,15.4,5,23.2,5.1c10.6,0.1,22.2-2.7,31.7-8.4l-2.7-18.9C240.6,77.6,237.1,78.4,233.5,79z"/>
	<path class="head-st2" d="M214,119c-10.7-0.3-21.4-3.4-31.1-7.8c-4.8-2.2-9.7-5.2-13.6-9.1L155.9,117c62.4,43.2,96.6,17.3,96.6,17.3
		l-3.3-22.8C238.1,116.7,225.5,119.4,214,119z"/>
	<path class="head-st3" d="M234.3,38.4c-3.9,8.7-7.8,17.5-11.4,26.4c-5,12.4-8.9,25.4-17.5,35.8c-7.1,8.6-17.3,13.5-27.7,16.9
		c-5.2,1.7-10.5,2.8-15.9,3.5c58.7,37.6,90.7,13.4,90.7,13.4L237.6,30.9C236.5,33.4,235.4,35.9,234.3,38.4z"/>
</g>
</svg>
