<?xml version="1.0" encoding="utf-8"?>
<!-- Generator: Adobe Illustrator 26.0.3, SVG Export Plug-In . SVG Version: 6.00 Build 0)  -->
<svg version="1.1" id="Layer_1" xmlns="http://www.w3.org/2000/svg" xmlns:xlink="http://www.w3.org/1999/xlink" x="0px" y="0px"
	 viewBox="0 0 384 400" style="enable-background:new 0 0 384 400;" xml:space="preserve">
<style type="text/css">
	.head-st0{opacity:0.16;}
	.head-st1{fill:#E543A0;}
	.head-st2{opacity:0.61;}
	.head-st3{fill:#9C2167;}
	.head-st4{opacity:0.5;fill:#E577B6;}
</style>
<g>
	<path class="head-st0" d="M128,116.2c-3.1,1.4-5.3,3.7-3,7.5c4.8,7.8,12.5,5,13.7,4.5c-0.7,0.4-3.1,2.2,4.5,8.7
		c8.8,7.4,21.8-1.8,21.8-1.8s2.1,5.6,14.5,6c12.4,0.4,23.4-5.6,23.4-5.6s4.3,5.2,10.9,5.2c6.6,0,16.2-5.2,11.9-9.7
		c0.3,0,4.9-4.5,7.3-8c-10.6-2.5-11.1-4.9-21.4-8.4L128,116.2z"/>
	<path d="M231.8,90.8c-3.2-5.5-8.3-9.3-13.6-10.2c-3.9-0.7-7.7,0.3-11.2,2.7c-20.7-13.1-35.3-4-41,0.9c-1.8-2.8-5.2-6.6-10.6-8.3
		c-6.8-2.2-14.8-0.4-23.7,5.4l-0.4,0.3l-0.3,0.4c-0.3,0.4-6.7,9.6-2.7,18.1c0.7,1.5,1.5,2.6,2.4,3.6c-1.8,0.9-3.3,2.1-4.3,3.8
		c-0.9,1.6-1.5,4.2,0.3,7.7c1.8,3.5,4.3,5.8,7.4,6.7c1.5,0.4,2.9,0.5,4.2,0.4c0.6,2.2,2.4,4.7,5.4,7.7c6.5,6.5,15.6,3.4,21-0.1
		c2,2.2,5.9,5,13.7,5.4c0.4,0,0.8,0,1.2,0c8.6,0,16.2-3.5,19.6-5.4c1.9,2,5.6,4.9,10.5,4.9c4.8,0,11.5-3,13.6-7.5
		c0.7-1.4,0.8-2.8,0.5-4.2c2.1-1.2,4.6-3.2,6.1-5.8c1.2-2.1,2.2-5.4,0.5-9.5C232.3,104.9,235.9,97.7,231.8,90.8z M225.5,106.1
		l-1.1,1.3l0.8,1.5c1.1,1.8,1.3,3.5,0.7,5.1c-1.1,3-4.8,4.9-5.9,5.4h-4.8l3.3,4.1c0.5,0.6,0.5,1,0.2,1.7c-1.1,2.3-5.7,4.6-9.1,4.6
		c-4.6,0-7.8-4.5-7.9-4.5l-1.4-2l-2,1.3c-0.1,0.1-9.5,6.1-19.8,5.6c-9.1-0.4-10.8-4.6-10.9-4.7l-1.1-3.5l-2.9,2.4
		c-0.4,0.3-10.3,8.3-16.5,2c-4.3-4.3-4.2-5.9-4.2-5.9c0,0,0,0.2-0.3,0.4l-2-4.5c-0.2,0.1-0.3,0.1-0.5,0.2c-0.6,0.3-2.6,1.1-4.7,0.4
		c-1.7-0.5-3.2-2-4.4-4.2c-1-1.9-0.5-2.7-0.4-3c0.8-1.5,3.7-2.6,6.4-3.2c1.6,0.1,3-0.3,4-0.7l13.9-5.9l-15.1,1.1
		c-0.3,0-1.5,0.1-3.1,0.4c-1.3-0.2-2.8-1.1-4-3.7c-2.4-5.1,1.1-11.2,2-12.8c7.4-4.7,13.7-6.2,19-4.5c6.5,2,9.2,8.5,9.2,8.6l1.6,4
		l2.7-3.3c0.6-0.7,14.5-17.6,38.3-1.4l1.6,1.1l1.4-1.2c2.7-2.3,5.6-3.2,8.6-2.7c3.8,0.6,7.7,3.6,10.1,7.8
		C230.9,99.1,225.6,106,225.5,106.1z"/>
	<path class="head-st1" d="M141.6,118.8c0,0-0.1,0-0.2,0.1C141.5,118.8,141.6,118.8,141.6,118.8z"/>
	<path class="head-st1" d="M229.7,92.1c-4.3-7.4-13.9-13.1-22.6-5.7c-26-17.6-41.7,1.9-41.7,1.9s-8.2-20.5-32.3-4.9c0,0-5.9,8.3-2.5,15.6
		c1.9,3.9,4.5,5,6.5,5.1c1.7-0.3,3-0.4,3-0.4s-1.3,0.5-3,0.4c-4.4,0.9-11.6,3.3-8.2,9.9c4.4,8.3,11.3,5.5,12.5,4.9
		c0.1-0.1,0.2-0.1,0.2-0.1s-0.1,0-0.2,0.1c-0.7,0.4-2.8,2.4,4.1,9.3c8,8,19.9-1.9,19.9-1.9s1.9,6,13.2,6.4c11.3,0.5,21.3-6,21.3-6
		s3.9,5.6,9.9,5.6s14.7-5.6,10.8-10.4c0.5,0,12.2-5.1,6.9-14.2C227.5,107.7,234,99.5,229.7,92.1z"/>
	<path class="head-st1" d="M140.1,103.7c0,0-1.3,0.1-3,0.4C138.8,104.2,140.1,103.7,140.1,103.7z"/>
	<g class="head-st2">
		<path class="head-st3" d="M225.1,104.5c-2.2,1-4.7,1.8-7.1,1.6c0.5,1.6,0.4,3.3-0.3,4.9c-1.5,3.5-5,5.4-8.7,5.4c-3.5,0-6.4-2-8.7-4.4
			c-0.8,2.7-2.5,5.1-4.7,6.9c-4.4,3.8-10.6,5.9-16.4,5.5c-3-0.2-6.2-1.1-8.2-3.4c-0.7-0.8-1.2-1.7-1.5-2.8c-0.5,1-1.1,1.9-1.9,2.7
			c-1.2,1.4-2.5,2.5-4,3.5c-1.5,0.9-3.2,1.6-5,1.9c-3.5,0.7-7.3,0.2-10.3-1.9c-2.6-1.9-4.2-4.9-4-8.1c0.1-0.8,0.2-1.6,0.5-2.3
			c-4.6,7.2-14,2.7-15.8,0.6c4.4,7.5,10.9,4.8,12.1,4.2c-0.7,0.4-2.8,2.4,4.1,9.3c8,8,19.9-1.9,19.9-1.9s1.9,6,13.2,6.4
			c11.3,0.5,21.3-6,21.3-6s3.9,5.6,9.9,5.6s14.7-5.6,10.8-10.4c0.5,0,12.2-5.1,6.9-14.2c0,0,2.1-2.7,3.1-6.4
			C228.9,102.5,227.1,103.6,225.1,104.5z"/>
	</g>
	<path class="head-st4" d="M133.5,87.5c2.7,6.1,19-3.8,18.2-7.4C150.9,76.5,131.5,83,133.5,87.5z"/>
	<path class="head-st4" d="M130.9,112.7c1.7,4.9,11.5-1.5,11-4.4S129.6,109,130.9,112.7z"/>
	<path class="head-st4" d="M163.7,105.3c0,0-21.6,6.5-12.1,14.6S167.9,107,163.7,105.3z"/>
	<path class="head-st4" d="M179.5,106.2c-8.5,2.8-11.5,16.5,5.9,13.7C202.7,117.2,186.4,103.9,179.5,106.2z"/>
	<path class="head-st4" d="M208.6,89.4c0.8,6.8,16.2,16.6,18,4.5S208,83.9,208.6,89.4z"/>
	<path class="head-st4" d="M173.1,88.2c-2,5,22.3,3.5,23.4-2.6C197.5,79.4,177.3,77.8,173.1,88.2z"/>
	<g class="head-st2">
		<path class="head-st3" d="M143.4,100.4c-10.2,1.5-11.9-4.4-12.2-7.1c-1.1,1.8-1.6,3.7-0.7,5.7c1.8,3.9,4.5,5,6.5,5.1
			c-0.5,0.1,1.3,0.2,3.6,0.7c7.4,1.5,11.6-4.3,13.4-10.5c-0.1-0.1-0.2-0.2-0.3-0.3C152.1,96.8,149,99.6,143.4,100.4z"/>
	</g>
	<g class="head-st2">
		<path class="head-st3" d="M183.5,93.8C165.9,95.1,167,88,167,88c-3.2,3.2-3.2,8.1,13.4,9.8c9.9,1,15.1-4,17.6-8.3
			c-0.2-0.1-0.3-0.2-0.5-0.2C195.3,91.3,191.1,93.2,183.5,93.8z"/>
	</g>
	<path class="head-st4" d="M203.8,96.8c-3.7-0.5-5.9,12.4,3.4,14.2C216.6,112.9,216.1,98.3,203.8,96.8z"/>
</g>
</svg>
