<?xml version="1.0" encoding="utf-8"?>
<!-- Generator: Adobe Illustrator 26.0.3, SVG Export Plug-In . SVG Version: 6.00 Build 0)  -->
<svg version="1.1" id="Layer_1" xmlns="http://www.w3.org/2000/svg" xmlns:xlink="http://www.w3.org/1999/xlink" x="0px" y="0px"
	 viewBox="0 0 384 400" style="enable-background:new 0 0 384 400;" xml:space="preserve">
<style type="text/css">
	.head-st0{fill:#512A14;}
	.head-st1{fill:#3F1D0D;}
	.head-st2{fill:#E50C0C;}
	.head-st3{fill:#AF0E0E;}
	.head-st4{fill:#E8930F;}
	.head-st5{fill:#FDD701;}
</style>
<g>
	<path d="M120,108.4c-21.8-8.7-60.1-21.1-70.5-6.3c-0.5,0.7-0.6,1.5-0.3,2.3c0.4,1.1,10.7,27.8,37.3,53.5c0.5,0.5,1.1,0.7,1.7,0.7
		c0.2,0,0.4,0,0.6-0.1c0.8-0.2,1.5-0.8,1.8-1.6c0.6-1.6,1.2-3.2,1.9-4.7c4.5-10.2,12.6-24.1,25.4-32.6c0.7,0.2,1.5,0.1,2.1-0.3
		c0.6-0.4,1.1-1.1,1.1-1.9l0.5-6.7C121.6,109.8,121,108.8,120,108.4z M116.2,115c-0.3,0.1-0.6,0.2-0.8,0.4c0,0,0,0,0,0
		c-13.9,9.1-22.6,24-27.5,34.9c-0.2,0.5-0.4,0.9-0.6,1.4c-20.7-21-30.6-42.3-32.9-47.8c7.1-7.2,30-4.2,62,8.4L116.2,115z"/>
	<path d="M51.5,103.5c0,0,10.2,27,36.7,52.6c0.6-1.6,1.3-3.2,2-4.8c5.8-13,14.5-25.9,26.6-33.8c0.5-0.4,1.2-0.4,1.8-0.2l0.5-6.7
		C87.3,98,59.2,92.6,51.5,103.5z"/>
	<g>
		<g>
			<g>
				<path d="M254.7,121.3c-61.7,21.1-106.4-0.6-139-16.5c-9.1-4.4-17-8.2-24.3-10.7c-14.1-4.8-25.2-5.1-33.1-0.9
					c-7,3.7-8.7,9.8-8.8,10c-0.2,0.9,0,1.9,0.7,2.5c0.7,0.6,1.7,0.8,2.6,0.5c13-5.1,19.6,0.9,34.1,13.9
					c12.8,11.4,30.3,27.1,61.8,43.8c20.1,10.7,42,14.3,62.3,14.3c15.8,0,30.6-2.2,43-4.9c30.5-6.7,53-18,53.3-18.1
					c0,0,0.1,0,0.1-0.1c12.1-7.1,17-16.4,13.2-24.8C314.4,116.9,288.1,109.9,254.7,121.3z M306.1,152.9L306.1,152.9L306.1,152.9z
					 M304.9,150.7c-2.8,1.4-88.6,43.3-153.9,8.7c-30.9-16.4-48.2-31.8-60.8-43.1c-11.1-10-18.9-16.9-29-16.9c-1.2,0-2.4,0.1-3.6,0.3
					c0.8-0.7,1.9-1.5,3.1-2.1c6.5-3.4,16.6-2.9,29,1.3c7,2.4,14.7,6.2,23.7,10.5c23.5,11.4,53,25.7,90.6,25.7
					c15.9,0,33.3-2.6,52.2-9c32.1-10.9,55.3-3.3,59.7,6.3C318.7,138.3,314.7,145,304.9,150.7z"/>
				<path class="head-st0" d="M255.5,123.6C175.9,150.8,124.2,108,90.6,96.5c-33.6-11.5-38.7,7.4-38.7,7.4c26.6-10.4,30,21.7,97.9,57.8
					c67.9,36,156.2-8.7,156.2-8.7C338.9,133.7,306.4,106.3,255.5,123.6z"/>
				<path class="head-st1" d="M255.7,123.6c-0.1,0-0.1,0-0.2,0.1c-65,22.2-111.3-2.3-144.4-18.3c-2,1.1-2.2,5.5,0.4,9.4
					c23.2,35.8,104.5,56,149.5,28.3C283.8,128.9,263.7,123.6,255.7,123.6z"/>
			</g>
			<g>
				<path d="M334.9,35.1l-49.1,23.5l-39.1-26.9c-2.5-2.1-36.4-30.2-60.1-27.7c-6.4,0.7-11.5,3.4-15.3,8.2
					c-19.2,24.6-57.6,97.3-59.2,100.3c-0.5,1-0.3,2.3,0.6,3.1c0.7,0.6,18,14.9,44,25c16.5,6.4,32.7,9.6,48.3,9.6
					c17.1,0,33.3-3.9,48.2-11.6c1.1-0.5,1.6-1.8,1.3-2.9L240,86c8.6,7.1,24.2,18.1,38.4,18.1c0.1,0,0.3,0,0.4,0
					c6.5-0.1,12-2.5,16.4-7.1c0.1-0.1,0.1-0.2,0.2-0.2L338,38.8c0.7-0.9,0.6-2.2-0.1-3.1C337.2,34.9,336,34.6,334.9,35.1z
					 M293.4,95.2L293.4,95.2L293.4,95.2z M291.5,93.6c-3.5,3.6-7.7,5.4-12.8,5.5c-18.6,0.3-41.6-22.3-41.8-22.5
					c-0.8-0.8-2.1-1-3-0.4c-1,0.6-1.4,1.8-1.1,2.8l16.3,56.1c-27.1,13.3-57.5,13.6-90.4,0.8c-20.9-8.1-36.3-19.3-41.2-23
					c6.2-11.7,40.5-75.7,57.7-97.8c2.9-3.8,6.8-5.8,11.8-6.4c22-2.3,56.1,26.4,56.5,26.7c0.1,0.1,0.1,0.1,0.2,0.2l40.4,27.8
					c0.7,0.5,1.7,0.6,2.5,0.2l41.4-19.8L291.5,93.6z"/>
			</g>
			<g>
				<path class="head-st0" d="M245.2,33.7c0,0-52.6-44.6-71.9-19.9c-19.3,24.7-58.9,100-58.9,100s69.5,57.9,137.7,22.7l-16.9-58.1
					c0,0,38.3,37.9,58.2,16.9L336,37.3l-50.4,24.1L245.2,33.7z"/>
			</g>
			<g>
				<g>
					<path d="M252.9,112.3c-0.1-0.7-0.5-1.3-1-1.7c-0.6-0.4-1.3-0.5-1.9-0.4c-22.4,4.5-79.5,11.5-123.9-21.7c-0.6-0.4-1.3-0.6-2-0.4
						c-0.7,0.2-1.3,0.6-1.7,1.3c-7.3,13.7-12.1,22.8-12.1,22.9c-0.5,1-0.3,2.3,0.6,3.1c0.7,0.6,18.5,15.3,45.2,25.7
						c17,6.6,33.6,9.9,49.6,9.9c17.5,0,34.2-4,49.6-11.9c1-0.5,1.5-1.5,1.3-2.6L252.9,112.3z M158,136.5
						c-21.6-8.4-37.5-19.9-42.4-23.7c1.6-3,5.1-9.7,9.8-18.5c44,31.3,98.7,25.9,123,21.4l3,19.8C216.5,152.7,181.4,145.6,158,136.5z
						"/>
					<path class="head-st2" d="M124.5,90.6c-7.4,13.9-12.1,22.9-12.1,22.9s71.5,59.6,141.7,23.4l-3.7-24.1
						C226.5,117.5,169.5,124.1,124.5,90.6z"/>
					<path class="head-st3" d="M118.4,102.1c-3.8,7.1-6,11.3-6,11.3s71.5,59.6,141.7,23.4l-2-13.2C193.5,151.4,134.9,114.1,118.4,102.1z"
						/>
				</g>
				<g>
					<g>
						<g>
							<path d="M178,116.2l-20.6-5.4c-0.8-0.2-1.7-0.3-2.5-0.2l-0.3,0l-0.3,0.1c-2.1,0.8-3.7,2.6-4.3,4.9l-4.1,16.9l0.3,0.8
								c0.8,2,2.6,3.5,4.7,4l20.4,4.9c0.5,0.1,1.1,0.2,1.6,0.2c2.9,0,5.5-1.8,6.2-4.6l3.7-13.9c0.4-1.6,0.2-3.4-0.8-4.8
								C181,117.7,179.6,116.6,178,116.2z M173.7,136.4c-0.1,0.3-0.6,0.6-1.2,0.5l-20.4-4.9c-0.2-0.1-0.4-0.1-0.5-0.2l3.6-14.9
								c0.1-0.4,0.3-0.7,0.6-0.9c0.1,0,0.1,0,0.2,0l20.6,5.4c0.3,0.1,0.6,0.3,0.7,0.5c0.1,0.1,0.2,0.3,0.1,0.5L173.7,136.4z"/>
							<path d="M182.6,109.3l-26.1-7.1c-3-0.8-6.2-0.4-8.9,1.2c-2.7,1.6-4.7,4.3-5.4,7.4l-4.6,19.3c-0.7,3-0.2,6.1,1.4,8.8
								c1.6,2.6,4.2,4.5,7.2,5.2c0.7,0.3,1.4,0.6,2.1,0.7l24,5.5c0.8,0.2,1.5,0.3,2.3,0.3c4.8,0,9.2-3.3,10.5-8.1l5.2-19.1
								C192,117.3,188.6,110.9,182.6,109.3z M185.1,122l-5.2,19.1c-0.8,2.8-3.6,4.6-6.4,4l-24-5.5c-0.4-0.1-0.8-0.2-1.2-0.5
								l-0.3-0.1l-0.6-0.1c-1.6-0.4-3-1.3-3.8-2.7c-0.9-1.4-1.1-3.1-0.8-4.7l4.6-19.3c0.4-1.7,1.4-3.1,2.9-4
								c1.4-0.8,3.1-1.1,4.7-0.6l26.1,7.1C184.2,115.4,186,118.7,185.1,122z"/>
							<path d="M146.2,129.6l15.6,0.9l4-7.2l-16.5-7.8L146.2,129.6z M151.8,120.8l8.8,4.2l-1,1.8l-9-0.5L151.8,120.8z"/>
							<path class="head-st4" d="M181.9,111.9l-26.1-7.1c-4.9-1.3-9.8,1.7-11,6.6l-4.6,19.3c-1.1,4.8,1.9,9.6,6.6,10.7l25.7,5.9
								c4.5,1,9-1.8,10.3-6.4l5-18.3C189,118,186.4,113.2,181.9,111.9z M180,123.2l-3.7,13.9c-0.5,1.8-2.5,2.9-4.5,2.4l-20.4-4.9
								c-2.1-0.5-3.5-2.4-3-4.3l3.5-14.4c0.5-1.9,2.6-3,4.7-2.5l20.6,5.4C179.3,119.4,180.5,121.3,180,123.2z"/>
							<path class="head-st5" d="M181.2,113l-24.3-6.5c-4.5-1.2-9.1,1.6-10.2,6.2l-4.3,17.9c-1.1,4.4,1.7,8.9,6.1,9.9l23.9,5.5
								c4.2,1,8.4-1.7,9.6-5.9l4.6-17C187.9,118.6,185.4,114.1,181.2,113z M181.5,122.1l-4.3,16.3c-0.6,2.1-2.7,3.5-4.8,3l-21.4-5
								c-2.2-0.5-3.6-2.7-3-4.9l4.1-16.9c0.6-2.3,2.8-3.7,5.1-3.1l21.6,5.6C180.8,117.6,182.1,119.9,181.5,122.1z"/>
							<polygon class="head-st5" points="148.4,127.9 160.7,128.6 163.2,124.1 150.5,118.1 							"/>
						</g>
					</g>
				</g>
			</g>
		</g>
	</g>
</g>
</svg>
