<?xml version="1.0" encoding="utf-8"?>
<!-- Generator: Adobe Illustrator 26.0.3, SVG Export Plug-In . SVG Version: 6.00 Build 0)  -->
<svg version="1.1" id="Layer_1" xmlns="http://www.w3.org/2000/svg" xmlns:xlink="http://www.w3.org/1999/xlink" x="0px" y="0px"
	 viewBox="0 0 384 400" style="enable-background:new 0 0 384 400;" xml:space="preserve">
<style type="text/css">
	.head-st0{fill:#D6D6D6;}
	.head-st1{fill:#FFBA39;}
	.head-st2{opacity:0.7;fill:#CF830D;}
	.head-st3{fill:#FFCB69;}
</style>
<g>
	<g>
		<path d="M137.6,126c-5.8-2.4-13.6,4.3-16.7,7.3c-7.4,7.1-13.7,17.3-11.1,24.3c1,2.6,3.6,5.9,10.8,6.3c0.2,0,0.4,0,0.6,0
			c9.2,0,22.6-11.8,25-22.3C147.8,134.6,144.7,128.9,137.6,126z M141.3,140.4c-2.1,9-14.1,18.8-20.4,18.5c-3.6-0.2-5.7-1.2-6.4-3
			c-1.4-3.9,2.9-12.2,9.9-18.9c5.2-5,9.7-6.9,11.3-6.3C140.5,132.6,142.4,135.8,141.3,140.4z"/>
		<path class="head-st0" d="M136.7,128.3c-9.6-4-39.8,31.7-15.9,33C132.8,162.1,156.1,136.4,136.7,128.3z"/>
		<path d="M137.8,61.5c-25.2-2.9-31.5,18.7-38.1,41.5c-2,7-4.1,14.2-6.8,21.3c-3.4,8.8-3,16.2,1,22c8,11.5,28.1,11.9,30.4,11.9
			c0.1,0,0.2,0,0.2,0l0.8,0l0.6-0.5c2-1.4,19.3-14.2,12.6-24.4l-0.4-0.6l-0.7-0.3c-0.9-0.4-2.6-3.7-2-13.2c0.4-7.4,2-14.6,2.9-16.9
			c0.6-1.4,2.9-3.1,6-4.3c4.5-1.8,9.9-2.3,12.3-1.2c2.1,1,2.1,8.8,0.8,15.1l-0.5,2.6l31.6,4.9l0.5-2.4c0.1-0.7,3.5-18.4,3.2-25.5
			C191.8,83.2,169.1,65,137.8,61.5z M184.5,113.8l-21.7-3.4c0.8-5.2,1.6-15.4-4-18.1c-4.2-2-11.2-0.9-16.3,1c-2.6,1-7.3,3.3-8.8,7.1
			c-1.9,4.8-7.1,30.8,0.9,36.1c2.5,5.1-6.7,13.4-11,16.6c-3.7-0.1-19.5-1-25.6-9.7c-3-4.3-3.2-10.2-0.4-17.4
			c2.8-7.3,4.9-14.6,7-21.7c6.9-24,11.9-38.2,28.7-38.2c1.2,0,2.6,0.1,4,0.2c29.8,3.4,49.7,20.4,49.9,25.5
			C187.4,97,185.4,108.8,184.5,113.8z"/>
		<path class="head-st1" d="M137.6,63.9c-30.1-3.4-30.5,30.3-42.3,61.3c-11.8,31,29.2,30.5,29.2,30.5s17.6-12.5,12-20.9
			c-6.5-2.9-2.6-27.7-0.4-33.3c2.3-5.6,16.3-9.4,21.7-6.8c5.4,2.6,2.2,17.9,2.2,17.9l26.6,4.1c0,0,3.5-18,3.2-24.9
			S167.7,67.4,137.6,63.9z"/>
		<path class="head-st2" d="M187.7,87.5c-2.8-0.4-5.5-0.8-8.3-1.2c-17.4-2.1-23.1-6.5-40.6-3.8c0,0.2-5.6,3.3-5.7,3.5
			c-2.9,14-10,30.6-14.7,44.2c-3.4,9.7-15.8,9.7-25,8.5c3.1,17.3,31,17,31,17s17.6-12.5,12-20.9c-6.5-2.9-2.6-27.7-0.4-33.3
			c2.3-5.6,16.3-9.4,21.7-6.8c5.4,2.6,2.2,17.9,2.2,17.9l26.6,4.1c0,0,3.5-18,3.2-24.9C189.7,90.6,188.9,89.1,187.7,87.5z"/>
		<path class="head-st3" d="M102.8,125.8c-0.8,12.3,20.5-28.4,16.9-37.8S104.2,104.5,102.8,125.8z"/>
		<path class="head-st3" d="M119.4,78c3.9,6.5,31.7-1,29.4-6.9C146.6,65.3,113.9,68.7,119.4,78z"/>
	</g>
	<g>
		<path d="M212.8,135.2c-5.2-3.4-14.2,1.6-17.8,4c-8.6,5.6-16.7,14.4-15.5,21.7c0.5,2.8,2.4,6.5,9.4,8.2c0.9,0.2,2,0.4,3,0.4
			c9.2,0,22.4-8.3,26.4-17.4C221.2,145.6,219.2,139.5,212.8,135.2z M213.7,150.1c-3.7,8.4-17.5,15.8-23.6,14.2
			c-3.5-0.9-5.4-2.3-5.7-4.2c-0.7-4.1,5.2-11.5,13.3-16.7c6-3.9,10.8-5,12.3-4C214.4,142.3,215.6,145.8,213.7,150.1z"/>
		<path class="head-st0" d="M211.4,137.3c-8.7-5.7-45.1,23.5-21.9,29.4C201.2,169.7,229,148.9,211.4,137.3z"/>
		<path d="M225.9,69c-23.9-7.6-34.4,13.2-45.4,35.2c-3.5,6.9-7.1,14.1-11.2,20.8c-5,8-6.1,15.4-3.2,21.8
			c5.9,13.4,26.8,17.3,27.7,17.5l0.8,0.1l0.7-0.3c2.2-1,21.7-10.2,17-21.5L212,142l-0.6-0.4c-0.7-0.5-1.8-4.1,0.9-14.8
			c2-8.1,5.1-15.5,6.4-17.5c0.8-1.3,3.4-2.5,6.7-3.1c4.8-0.9,10.2-0.3,12.3,1.2c1.9,1.4,0.4,9-2.1,15l-1,2.4l30.1,10.8l0.9-2.2
			c0.3-0.7,7-17.3,8-24.4C274.8,100.6,256,78.5,225.9,69z M268.6,108.3c-0.7,5-5,16.2-6.8,21l-20.7-7.4c1.8-5,4.5-14.9-0.5-18.5
			c-3.8-2.8-10.8-3.1-16.2-2.1c-2.8,0.5-7.8,1.9-10,5.3c-2.5,3.9-13.5,31.5-6.6,38.5c1.5,5.4-9.1,11.9-13.9,14.2
			c-3.6-0.8-19-4.7-23.3-14.4c-2.1-4.8-1.1-10.6,2.9-17.1c4.3-6.9,7.9-14.2,11.5-21.2c10.3-20.5,17.8-34,31.5-34
			c2.4,0,5.1,0.4,7.9,1.3C253,82.8,269.3,103.2,268.6,108.3z"/>
		<path class="head-st1" d="M225.2,71.4c-28.9-9.1-36.3,26.9-53.7,55c-17.5,28.1,22.8,35.5,22.8,35.5s19.6-8.9,15.7-18.3
			c-5.8-4.1,3.3-30.6,6.6-35.7s17.7-6.1,22.6-2.5c4.8,3.5-1.3,18-1.3,18l25.4,9.1c0,0,6.8-17,7.9-23.8
			C272.1,101.8,254.1,80.5,225.2,71.4z"/>
		<path class="head-st2" d="M262,101.3c-16.6-5.4-21.4-10.8-39.1-11.5c-0.1,0.2-6.1,2.1-6.2,2.3c-5.6,13.2-16.2,31.1-23.4,43.5
			c-5.2,8.9-17.4,6.5-26.2,3.6c-0.2,17.6,27.2,22.6,27.2,22.6s19.6-8.9,15.7-18.3c-5.8-4.1,3.3-30.6,6.6-35.7
			c3.3-5.1,17.7-6.1,22.6-2.5c4.8,3.5-1.3,18-1.3,18l25.3,9.1c0,0,6.8-17,7.9-23.8c0.2-1.2-0.2-2.7-1.1-4.6
			C267.3,103.1,264.7,102.2,262,101.3z"/>
		<path class="head-st3" d="M178.6,128.4c-3.2,12,26.1-27,24.4-36.8C201.3,81.7,184.1,107.8,178.6,128.4z"/>
		<path class="head-st3" d="M204.7,81.7c2.6,7.2,31.3,5.1,30.2-1.1S201,71.6,204.7,81.7z"/>
	</g>
</g>
</svg>
