<?xml version="1.0" encoding="utf-8"?>
<!-- Generator: Adobe Illustrator 26.0.3, SVG Export Plug-In . SVG Version: 6.00 Build 0)  -->
<svg version="1.1" id="Layer_1" xmlns="http://www.w3.org/2000/svg" xmlns:xlink="http://www.w3.org/1999/xlink" x="0px" y="0px"
	 viewBox="0 0 384 400" style="enable-background:new 0 0 384 400;" xml:space="preserve">
<style type="text/css">
	.head-st0{fill:#C3A365;}
	.head-st1{opacity:0.2;}
	.head-st2{fill:#D6B36F;}
	.head-st3{fill:#D6C5A5;}
	.head-st4{fill:#F2CA7E;}
	.head-st5{fill:#4A3F29;}
	.head-st6{fill:#292317;}
	.head-st7{fill:#B39763;}
	.head-st8{fill:#C4B597;}
</style>
<g>
	<g>
		<path d="M290.8,99.8c-20.6-5.6-60.7-12.4-104-14.8c-36.6-2-88.7-1.6-128.5,12c-1.2,0.4-1.9,1.6-1.8,2.9s1.2,2.2,2.5,2.3l192.3,9.5
			c0,0,0.1,0,0.1,0c0.3,0,0.6-0.1,0.9-0.1c0.1,0,13.4-4.6,33.8-6c0,0,0.1,0,0.1,0l4.2-0.5c1.3-0.1,2.2-1.2,2.3-2.4
			C292.9,101.3,292.1,100.1,290.8,99.8z M251.2,106.3L75.3,97.7c61.8-15.1,151.4-6.4,199.2,3.7C261.6,103,253.3,105.6,251.2,106.3z"
			/>
		<path class="head-st0" d="M59.3,99.5l192.3,9.5c0,0,13.4-4.7,34.5-6.1l4.2-0.5C250.4,91.5,131.1,75,59.3,99.5z"/>
		<path d="M252.9,105.2c-46.7-10.7-140.8-22.4-194.4-8.5c-1.1,0.3-1.9,1.3-2,2.5c-0.4,10.6-0.9,20-1.4,29.2l-0.3,5.1
			c0,0,0,0.1,0,0.1v74.1c0,0.1,0,0.2,0,0.2c0.4,4.2,0.6,8.2,0.9,12.5c0.7,11.9,1.5,24.1,5.1,40.5c0.2,0.9,0.9,1.7,1.8,1.9
			c0.9,0.3,1.9,0.1,2.6-0.6l10.6-9.6l8.6,8.1c0.9,0.9,2.3,1,3.3,0.2l11.5-8l11.2,11.5c0.8,0.8,2,1,3.1,0.5l9.4-4.7l9.1,9.2
			c0.5,0.5,1.2,0.8,1.9,0.8c0.6,0,1.3-0.2,1.8-0.7l11.1-10.3l9,9.2c1,1,2.6,1.1,3.7,0.1l10.2-9.5l10.2,10.4c1,1,2.6,1.1,3.7,0.1
			l11.5-10.7l9.8,10c1,1,2.6,1.1,3.7,0.1l9-8.4l11.2,6.7c0.6,0.4,1.4,0.5,2.1,0.3c0.7-0.2,1.3-0.7,1.6-1.4c1.2-2.6,2.5-5.3,3.8-8.1
			c16.5-35.1,39.1-83.1,18.4-151C254.6,106.1,253.9,105.4,252.9,105.2z M231.7,255.8c-0.9,1.9-1.7,3.7-2.6,5.5l-10.3-6.2
			c-1-0.6-2.3-0.5-3.2,0.3l-8.6,8l-9.8-10c-1-1-2.6-1.1-3.7-0.1L182,264l-10.2-10.4c-1-1-2.6-1.1-3.7-0.1l-10.2,9.5l-9-9.2
			c-1-1-2.6-1.1-3.7-0.1l-11.1,10.3l-8.6-8.8c-0.5-0.5-1.2-0.8-1.9-0.8c-0.4,0-0.8,0.1-1.2,0.3l-9.4,4.7l-11.5-11.7
			c-0.9-0.9-2.3-1.1-3.4-0.3l-11.6,8l-8.9-8.3c-1-0.9-2.6-1-3.6,0l-9,8.1c-2.8-13.7-3.4-24.6-4.1-35.1c-0.2-4.1-0.5-8.3-0.9-12.5
			v-74l0.3-5.1c0.4-8.6,0.9-17.4,1.3-27.2c52.4-12.8,142.3-1.7,188.5,8.7C269.7,175.2,247.7,221.7,231.7,255.8z"/>
		<path class="head-st0" d="M59.2,99.3c-0.5,12.6-1.1,23.8-1.6,34v72.1c1.4,15.7,1,29.9,6,51.8L75.9,246l10.4,9.8l13.3-9.3l12.8,13.1
			l11.1-5.5l10.4,10.6l13-12.1l10.8,11l12.1-11.3l12,12.2l13.4-12.5l11.6,11.8l10.5-9.7l12.9,7.7c16.4-35.5,44.2-81.8,22-154.1
			C205.9,97.2,112.8,85.4,59.2,99.3z"/>
		<g class="head-st1">
			<path class="head-st2" d="M120.2,96c0,0-1.1,54.7-0.5,56.5c0.6,1.8,10.9,2.4,10.9,2.4l8.5-1l5.4-0.4l4,4.1l12.1,1.4l5.8-3.7l7.5,2.7
				l1.7-3.7l4.6,4.6l1.7-59.9l8.6-1.2c-16.6-2.2-34.3-3.9-51.9-4.6L120.2,96z"/>
		</g>
		<path class="head-st3" d="M126.6,88.6c0,0-0.4,57.7,0,59.3c0.4,1.7,7.5-4.2,7.5-4.2l6.3,2.5l3.8-3.8l2.9,3.8l8.8,1.3l4.2-3.3l5.4,2.5
			l1.3-3.3l3.3,4.2l1.3-56l35.1-6.3l-43-3.3L126.6,88.6z"/>
		<path d="M206.5,82.6l-43-3.3c-0.2,0-0.5,0-0.7,0L126.1,86c-1.3,0.2-2.2,1.3-2.2,2.6c-0.2,26.5-0.3,58.4,0.1,60c0.3,1,1,1.8,2,2.1
			c0.2,0.1,0.6,0.2,1,0.2c1.1,0,3.2-0.7,7.6-4.1l4.8,1.9c1,0.4,2.1,0.2,2.9-0.6l1.6-1.6l1.1,1.4c0.4,0.5,1,0.9,1.7,1l8.8,1.3
			c0.7,0.1,1.5-0.1,2-0.6l2.9-2.3l3.9,1.8c0.7,0.3,1.4,0.3,2.1,0c0.4-0.2,0.7-0.4,0.9-0.7l0.6,0.7c0.7,0.9,1.9,1.2,2.9,0.9
			c1.1-0.4,1.8-1.3,1.8-2.5l1.2-53.8l32.9-5.9c1.3-0.2,2.2-1.4,2.2-2.7C208.9,83.8,207.9,82.7,206.5,82.6z M170.8,88.9
			c-1.2,0.2-2.2,1.3-2.2,2.6l-1.1,49.4c-0.4-0.1-0.8-0.2-1.3-0.1c-0.9,0.1-1.7,0.8-2.1,1.7l-0.2,0.7l-2.8-1.3
			c-0.9-0.4-2-0.3-2.8,0.3l-3.3,2.6l-6.6-0.9l-2.3-2.9c-0.5-0.6-1.2-1-1.9-1c-0.8,0-1.5,0.2-2,0.8l-2.5,2.5l-4.6-1.9
			c-0.9-0.4-1.9-0.2-2.7,0.4c-1.1,0.9-2.3,1.8-3.3,2.5c-0.1-9.1,0-34.7,0.1-53.4l34.2-6.2l22,1.7L170.8,88.9z"/>
		<path class="head-st3" d="M126.6,88.6c0,0-0.4,57.7,0,59.3c0.4,1.7,7.5-4.2,7.5-4.2l6.3,2.5l3.8-3.8l2.9,3.8l8.8,1.3l4.2-3.3l5.4,2.5
			l1.3-3.3l3.3,4.2l1.3-56l35.1-6.3l-43-3.3L126.6,88.6z"/>
		<path class="head-st2" d="M230,257.4l-13-7.7l-10.6,9.7l-11.8-11.8L181,260l-12.2-12.2L156.5,259l-11-11l-13.1,12l-10.6-10.6l-11.3,5.5
			l-13-13.1l-13.5,9.2l-10.6-9.8l-11.8,10.4c0.6,2.8,1.2,5.7,1.8,8.6l12.4-11.2l10.4,9.8l13.3-9.3l12.8,13.1l11.1-5.5l10.4,10.6
			l13-12.1l10.8,11l12.1-11.3l12,12.2l13.4-12.5l11.6,11.8l10.5-9.7l12.9,7.7c12.4-26.8,31.2-56.1,30.2-106.1
			C259.6,205.6,241.8,231.9,230,257.4z"/>
		<path d="M290.3,99.9c-11-0.1-25,2.6-33.4,4.2c-2.4,0.5-4.9,0.9-5.8,1c-0.4-0.1-0.8-0.1-1.2,0c-1.2,0.3-2,1.5-2,2.7
			c4.7,86.8-10.5,128.9-20.5,156.7c-0.4,1.1,0,2.4,1,3.1c1,0.7,2.3,0.7,3.2-0.1l10.4-8.4l6.7,9.1c0.4,0.6,1.1,1,1.8,1.1
			c0.1,0,0.2,0,0.3,0c0.6,0,1.2-0.2,1.7-0.6l8.7-7.3l14.1-2c1.1-0.2,1.9-0.9,2.2-2c9.4-36.9,14.5-89,15.3-154.8
			c0-0.7-0.3-1.4-0.8-1.9C291.7,100.2,291,99.9,290.3,99.9z M253.1,106.5C253.1,106.5,253.1,106.5,253.1,106.5
			C253.1,106.5,253.1,106.5,253.1,106.5z M253,106.5C253,106.5,253,106.5,253,106.5C253,106.5,253,106.5,253,106.5z M253,106.5
			C253,106.5,253,106.5,253,106.5C253,106.5,253,106.5,253,106.5z M253,106.5C253,106.5,253,106.5,253,106.5
			C253,106.5,253,106.5,253,106.5z M272.9,254.4l-13.1,1.8c-0.5,0.1-1,0.3-1.3,0.6l-7.1,6l-6.7-9c-0.4-0.6-1.1-1-1.8-1.1
			c-0.1,0-0.2,0-0.3,0c-0.6,0-1.2,0.2-1.7,0.6l-5.3,4.2c9.8-28,21.7-69.9,17.8-147.4c1.1-0.2,2.7-0.5,4.4-0.8
			c7.5-1.4,19.6-3.7,29.7-4C286.7,168.4,281.8,218.5,272.9,254.4z"/>
		<path class="head-st2" d="M250.7,107.7c4.7,86.7-10.1,128.4-20.7,157.7l12.6-10.1l8.3,11.3l9.2-7.8l14.9-2.1c8-30.5,15-78.1,15.2-154.2
			C274.2,102.4,251,108.4,250.7,107.7z"/>
		<g>
			<path class="head-st4" d="M250.7,107.7c3.4,64-3.7,97.7-11.9,129.4c8.8-30.4,17.3-64.1,14.6-129.7
				C251.8,107.7,250.8,107.9,250.7,107.7z"/>
			<path class="head-st4" d="M253.2,258.2l-8.3-11.3l-11.8,9.4c-1.1,3.3-2.1,6.3-3.1,9.1l12.6-10.1l8.3,11.3l9.2-7.8l14.9-2.1l2.3-8.5
				l-14.9,2.1L253.2,258.2z"/>
		</g>
	</g>
	<g>
		<path d="M103.7,162.7c-13.8,0-25.1,13.9-25.1,30.9c0,17,11.3,30.9,25.1,30.9c13.8,0,25.1-13.9,25.1-30.9
			C128.8,176.6,117.5,162.7,103.7,162.7z M103.7,219.2c-10.9,0-19.8-11.5-19.8-25.6c0-14.1,8.9-25.6,19.8-25.6
			c10.9,0,19.8,11.5,19.8,25.6C123.5,207.7,114.6,219.2,103.7,219.2z"/>
		<path class="head-st5" d="M103.7,165.4c-12.4,0-22.4,12.6-22.4,28.3c0,15.6,10,28.3,22.4,28.3c12.4,0,22.4-12.6,22.4-28.3
			C126.1,178,116.1,165.4,103.7,165.4z"/>
		<path class="head-st6" d="M104.5,197.4c0,8.9,3.2,16.8,8.3,21.9c7.8-4.4,13.3-14.3,13.3-25.8c0-8.9-3.2-16.8-8.3-21.9
			C110,176.1,104.5,185.9,104.5,197.4z"/>
		<path class="head-st7" d="M81.2,193.6c0,13.5,7.5,24.8,17.5,27.6c-3.3-4.3-6.5-8.7-8.1-13.9c-0.4-1.4-0.7-2.7-0.8-4.1
			c-0.6-2.5-0.9-5.1-0.9-7.9c0-15.1,9.4-27.4,21.2-28.2c0.2-0.1,0.3-0.2,0.5-0.3c-2.2-0.9-4.5-1.5-7-1.5
			C91.3,165.4,81.2,178,81.2,193.6z"/>
	</g>
	<g>
		<path d="M179.7,166.6c-13.8,0-25.1,13.9-25.1,30.9c0,17,11.3,30.9,25.1,30.9c13.8,0,25.1-13.9,25.1-30.9
			C204.8,180.4,193.6,166.6,179.7,166.6z M179.7,223.1c-10.9,0-19.8-11.5-19.8-25.6c0-14.1,8.9-25.6,19.8-25.6
			c10.9,0,19.8,11.5,19.8,25.6C199.5,211.6,190.6,223.1,179.7,223.1z"/>
		<path class="head-st5" d="M179.7,169.2c-12.4,0-22.4,12.6-22.4,28.3c0,15.6,10,28.3,22.4,28.3c12.4,0,22.4-12.7,22.4-28.3
			C202.2,181.9,192.1,169.2,179.7,169.2z"/>
		<path class="head-st6" d="M191,173.1c-2.8,1.3-5.4,3.2-7.6,5.7c-1.1,2.2-2.3,4.4-3.3,6.6c-1.6,3.7-2.7,7.7-2.7,11.8
			c0,4.5,0.7,8.9,1.9,13.2c0.8,3,1.9,6,3,8.9c1.4,1.8,3,3.4,4.8,4.8c8.7-3.9,14.9-14.3,14.9-26.6C202.2,187.1,197.7,178,191,173.1z"
			/>
		<path class="head-st7" d="M187.3,170.9c-2.4-1.1-4.9-1.7-7.6-1.7c-12.4,0-22.4,12.6-22.4,28.3c0,15.6,10,28.3,22.4,28.3
			c0.1,0,0.1,0,0.2,0c-8.7-3.9-14.9-14.3-14.9-26.6C165,183.6,175,171,187.3,170.9z"/>
	</g>
	<polygon points="172.1,95 179.6,91 138.2,91 	"/>
	<polygon class="head-st8" points="130.1,143.4 133.2,140.3 138.9,141.3 143.1,121.2 149.9,144.4 157.2,143.9 159.8,139.2 164.5,141.3 
		168.6,139.2 168.6,97.8 130.1,94.6 	"/>
	<g class="head-st1">
		<path class="head-st2" d="M236.1,234.6c-12.6,2.1-130,18.1-155.4-9.5c-23-24.9-6.8-129-6.8-129c-5.1,0.8-10,1.8-14.7,3.1
			c-0.5,12.6-1.1,23.9-1.6,34.3v74.1c1.4,16.2,1,30.8,6,52.6l12.4-11.2l10.4,9.8l13.3-9.3l12.8,13.1l11.1-5.5l10.4,10.6l13-12.1
			l10.8,11l12.1-11.3l12,12.2l13.4-12.5l11.6,11.8l10.5-9.7l12.8,7.6c-0.1,0.2-0.1,0.4-0.2,0.5l12.6-10.1l8.3,11.3l9.2-7.8l14.9-2.1
			c2.1-8.1,2.1-9,4.2-22.2C273.7,234.3,236.6,232.7,236.1,234.6z"/>
	</g>
	<g class="head-st1">
		<path class="head-st2" d="M255.8,198.2c0,5.5,17.8-9.5,21.1-24.4C278,168.9,255.8,192.7,255.8,198.2z"/>
		<path class="head-st2" d="M261.5,170.8c-3.2,1,3.3,29.7,11.5,32.8C275.7,204.6,264.7,169.7,261.5,170.8z"/>
	</g>
	<g class="head-st1">
		<path class="head-st2" d="M72.2,140.1c0,5.5,17.8-9.5,21.1-24.4C94.4,110.8,72.2,134.6,72.2,140.1z"/>
		<path class="head-st2" d="M77.9,112.7c-3.2,1,3.3,29.7,11.5,32.8C92.1,146.5,81.1,111.6,77.9,112.7z"/>
	</g>
	<g class="head-st1">
		<path class="head-st2" d="M207.6,128.2c-3.2-0.5,13.6,21.3,17,20.5S217.2,129.9,207.6,128.2z"/>
		<path class="head-st2" d="M214.6,120c-3.2-0.5,13.6,21.3,17,20.5C235,139.7,224.2,121.6,214.6,120z"/>
		<path class="head-st2" d="M208.9,141.9c0.9,3.5,18.4-8.1,19.7-17.9C229,120.8,208,138.4,208.9,141.9z"/>
	</g>
</g>
</svg>
