<?xml version="1.0" encoding="utf-8"?>
<!-- Generator: Adobe Illustrator 26.0.3, SVG Export Plug-In . SVG Version: 6.00 Build 0)  -->
<svg version="1.1" id="Layer_1" xmlns="http://www.w3.org/2000/svg" xmlns:xlink="http://www.w3.org/1999/xlink" x="0px" y="0px"
	 viewBox="0 0 384 400" style="enable-background:new 0 0 384 400;" xml:space="preserve">
<style type="text/css">
	.head-st0{fill:#E0BA6B;}
	.head-st1{fill:#FFFFF7;}
	.head-st2{fill:#F05659;}
	.head-st3{fill:#53AEC8;}
	.head-st4{opacity:0.2;}
	.head-st5{fill:#C9972F;}
	.head-st6{opacity:0.18;fill:#573314;}
</style>
<g>
	<g>
		<g>
			<path d="M237.3,55c-8.1-4.7-20.1-1.2-35.8,10.4c0,0,0,0,0,0l1.5,2l-0.8,2.2c-0.9-0.3-1.3-1.1-1.4-1.3c0.1,0.6,0.2,2.9,0.2,5.5
				l-6.8-1.5l-0.9,0.9c-27,27.1-26.8,78.7-20.7,90.6l0.9,1.7l1.9-0.5c27.5-6.9,57.6-53.9,67.7-77.5l0.1-0.4c1.9-7.7,1.9-8.8,2-10.1
				c0-0.2,0-0.5,0.1-0.9C246.3,66.4,243.4,58.5,237.3,55z M240.4,75.5c-0.1,0.5-0.1,0.9-0.1,1.2c0,0.9-0.1,1.8-1.8,9
				c-9.2,21.6-37.4,65.8-62.3,74c-3.9-12.3-4.2-57.1,19.6-82.2l9.9,2.1l0.1-2.9c0.1-4.3,0.1-6.9,0-8.5c12.9-9.3,23.2-12.5,29.1-9.1
				C240,62.1,241.1,69.6,240.4,75.5z"/>
			<path class="head-st0" d="M203,67.3c0.8-0.6,0.4,9.3,0.4,9.3l-8.4-1.8c-26.3,26.4-25.7,77.3-20.3,87.7c26.2-6.5,55.8-52,66-76.1
				c2.3-9.6,1.8-8.6,2-10.6C244.6,60.4,235.3,43.5,203,67.3z"/>
			<path class="head-st1" d="M186.9,85.5c0,0-8.9,18.3-8.6,22.3c0.3,4,16.8,17.5,16.8,17.5s26.7-6.4,30.7-11.3c4-4.9,11.1-19.4,11.1-19.4
				l-34,6L186.9,85.5z"/>
			<polygon class="head-st2" points="179.4,103.3 176,114.8 189.9,128.8 220.1,122.5 227,112.1 194.4,117.5 			"/>
			<path class="head-st3" d="M176.1,114l-3,18.1c0,0-1.8,27.5,1.7,30.5c26-8.7,38.8-30.5,38.8-30.5l6.9-10.4l-31,5.3L176.1,114z"/>
			<g class="head-st4">
				<path d="M231.4,56.6c-15.5,9.3-45.3,73.7-56.6,106c26.2-6.5,55.8-52,66-76.1c2.3-9.6,1.8-8.6,2-10.6
					C243.9,66.6,240.1,59.1,231.4,56.6z"/>
			</g>
		</g>
	</g>
	<g>
		<g>
			<path d="M147.7,70.6c-4.4-8.1-5.2-9.2-6-10.4c-0.2-0.3-0.4-0.5-0.7-1c-6.2-9.3-17.4-19.6-28.2-18c-7.8,1.2-13.7,7.9-17.5,20.1
				l-0.4,1.4l2.4,0.7l0.8,2.2c-0.9,0.3-1.7,0-1.9-0.2c0.6,0.4,2.7,2.6,5,5.2l-6,0.4l-0.2,2.1c-2.5,34.2,37.2,85.5,51,94.9l1.4,1
				l1.4-1.1c20.4-15.8,8-73.3-0.8-97.1L147.7,70.6z M147,162.9c-13.7-10.9-48-56.6-47.5-87.4l11.5-0.7l-3.2-3.7
				c-4.1-4.7-6.5-7.3-8-8.7c2.4-7.2,6.5-15.3,13.5-16.4c8.1-1.2,17.6,7.1,23.5,15.9c0.3,0.5,0.6,0.8,0.8,1.1c0.7,1,1.4,1.9,5.6,9.6
				C153.9,101.5,160.9,149,147,162.9z"/>
			<path class="head-st0" d="M138.9,60.6c-10.6-15.8-32.1-30-41.9,2.8c0.2-0.8,9,9.3,9,9.3l-8.9,0.6c-2.5,33.7,36.9,83.9,49.9,92.7
				c18-13.9,8.4-67.4-1.6-94.3C140,61.5,140.3,62.7,138.9,60.6z"/>
			<path class="head-st1" d="M123.1,96.5L97.1,86c0,0,6.6,20.7,9.9,24.5c3.4,3.8,28.6,12.7,28.6,12.7s18.5-14,18.2-19.9
				c-0.3-6-5.4-22.4-5.4-22.4L123.1,96.5z"/>
			<polygon class="head-st2" points="128.9,115.7 104.5,105.8 110.6,118.2 133.9,128.2 155.6,113.3 153.5,101.1 			"/>
			<path class="head-st3" d="M155.3,112.5l-23.3,14l-21.9-9l11.6,18.8c0,0,20,27.9,25.5,29.8c16.2-15.9,10.2-41.3,10.2-41.3L155.3,112.5z
				"/>
			<g class="head-st4">
				<path d="M138.9,60.6c-6.4-9.5-15.6-15.9-25.2-15.9c-6.4,13.6,18,86,33.4,121.3c18-13.9,8.4-67.4-1.6-94.3
					C140,61.5,140.3,62.7,138.9,60.6z"/>
			</g>
		</g>
	</g>
	<g>
		<g>
			<path d="M198.1,34.8l-7.2-0.4c1.6-3.6,3.2-7.1,3.7-7.8c-0.3,0.3-1,0.8-2,0.7L193,25l2.3-0.9l0,0h0c-6.4-15.8-13.8-23.7-22-23.5
				c-10.7,0.3-19.4,14.4-24,27.5c-0.2,0.5-0.3,0.9-0.5,1.2c-0.6,1.5-1.1,2.8-3.7,13l-0.1,0.3c-3.9,33-2.3,102,19.3,119.8l1.7,1.4
				l1.6-1.6c11.3-11.8,40.7-82.5,30.9-125.7L198.1,34.8z M165.7,157.1c-16.8-17.6-20.1-77.4-15.9-113.8c2.4-9.8,3-11,3.4-12.2
				c0.2-0.4,0.3-0.8,0.5-1.4c4.2-11.9,11.8-24.1,19.5-24.2c5.8-0.1,11.5,6.5,16.9,19.1c-1,1.8-2.5,5-5.1,11.1l-1.3,3.1l10.3,0.6
				C202.1,79.4,176.4,142.5,165.7,157.1z"/>
			<path class="head-st0" d="M187.4,36.6c0,0,5.2-12.6,5.6-11.6c-16.5-40.7-34.5-16.1-41.5,3.9c-0.9,2.6-0.9,1.2-4.1,14
				c-4,33.8-2.1,100.7,18.5,117.7c10.8-11.3,39.8-81.6,30.3-123.5L187.4,36.6z"/>
			<path class="head-st1" d="M146.5,54.3c0,0-1.5,20.6-0.5,28.1c0.9,7.5,22,24.5,22,24.5s22.8-11.6,25.3-16.4c2.5-4.9,4.5-30.8,4.5-30.8
				l-23.2,13.7L146.5,54.3z"/>
			<polygon class="head-st2" points="145.9,79.7 146.5,95.1 170.8,113.1 191.5,100.1 194.7,84.6 173,97.4 			"/>
			<path class="head-st3" d="M146.6,94l0.6,15.4c0,0-0.4,31.7,18.7,51.3c5-2.6,18.6-37.8,18.6-37.8l7.3-23.7l-19.5,11.8L146.6,94z"/>
			<path class="head-st4" d="M187.4,36.6c0,0,5.4-11.2,5.6-11.6c-6.6-16.3-13.4-22.1-19.7-22c9.2,16.8,0.2,113.2-7.4,157.6
				c10.6-11.1,38.4-81.1,30.7-123.4L187.4,36.6z"/>
			<path class="head-st4" d="M193,25C193,25,193,25,193,25C193,25,193,25,193,25z"/>
		</g>
	</g>
	<g>
		<g>
			<path d="M282.3,166.3C123.9,131.9,76.6,151.1,74.6,152l-1.1,0.5l-0.3,1.2c-0.8,3-4.7,18.2-2.5,24.1c2.5,6.7,16.8,6.5,19.6,6.4
				l0.4,0l0.4-0.2c55.7-23,147.3-2.2,184.1,7.8c1,0.3,1.9,0.4,2.9,0.4c2.6,0,5.2-0.9,7.2-2.7c2.6-2.2,4-5.5,3.8-8.9
				c1.3-2.6,1.4-5.6,0.2-8.4C288.1,169.2,285.5,167,282.3,166.3z M284.5,178.7l-0.4,0.9l0.1,0.8c0.3,2-0.5,4-2,5.4
				c-1.5,1.3-3.6,1.8-5.5,1.3c-24.9-6.8-74.5-18.4-121.7-18.4c-23.4,0-46.2,2.9-65.2,10.6c-6.2,0.2-13.5-1.1-14.3-3.2
				c-1.1-3,0.6-12.9,2.3-19.8c8-2.6,60.1-16.1,203.5,15c1.6,0.4,2.9,1.4,3.6,2.9C285.5,175.7,285.4,177.3,284.5,178.7z"/>
			<path class="head-st0" d="M281.8,168.8c-159.5-34.6-206.2-14.5-206.2-14.5s-4.6,17.2-2.5,22.6c2,5.4,17.2,4.8,17.2,4.8
				c57.1-23.6,151.9-1.4,185.7,7.7c5.9,1.6,11.5-3.3,10.7-9.4l0,0l0,0C289.3,175.6,286.8,169.9,281.8,168.8z"/>
			<path class="head-st5" d="M75.6,154.3c0,0-4.6,17.2-2.5,22.6c2,5.4,17.2,4.8,17.2,4.8c4.1-1.7,8.3-3.1,12.7-4.3
				c-5.4-7.8-10.6-17-13.2-26.4C79.8,152.5,75.6,154.3,75.6,154.3z"/>
			<path class="head-st5" d="M120.3,148.5c3.4,8,10.1,16.2,14.3,20.7c0.8,0.9,1.6,1.7,2.5,2.5c9.2-0.6,18.7-0.7,28.2-0.4
				c-3.7-7-7-14.4-9.8-21.9C141.7,148.6,130.1,148.3,120.3,148.5z"/>
			<path class="head-st5" d="M242.2,160.8c1.1,7.3,2.7,14.5,5,21.5c10,2.2,18.7,4.3,25.4,6.1c-2.6-7.6-5.2-15.4-7.2-23.2
				C257.3,163.7,249.6,162.2,242.2,160.8z"/>
			<path class="head-st5" d="M189.2,152.7c3.8,7.9,8.2,15.3,13.6,21.8c4,0.5,7.9,1.1,11.7,1.7c-1.5-6.8-2.5-13.7-3.2-20.5
				C203.6,154.6,196.2,153.5,189.2,152.7z"/>
			<path class="head-st6" d="M281.8,168.8c-4.7-1-9.4-2-13.9-2.9c-16.7,8.9-40.9,8.5-58.6,5.3c-25.6-4.6-49.3-7.8-75.4-6
				c-19.2,1.4-42,5.6-60-3.3c-1,5.3-1.9,12-0.8,15c2,5.4,17.2,4.8,17.2,4.8c57.1-23.6,151.9-1.4,185.7,7.7
				c5.9,1.6,11.5-3.3,10.7-9.4l0,0C289.3,175.6,286.8,169.9,281.8,168.8z"/>
			<path d="M252.4,175c0.7,0.5,37,11.3,37,11.3l-2.2-6.7C287.2,179.6,251.7,174.5,252.4,175z"/>
			<polygon points="70.8,173.2 87.6,166.9 72.1,167.9 			"/>
		</g>
	</g>
</g>
</svg>
