<?xml version="1.0" encoding="utf-8"?>
<!-- Generator: Adobe Illustrator 26.0.3, SVG Export Plug-In . SVG Version: 6.00 Build 0)  -->
<svg version="1.1" id="Layer_1" xmlns="http://www.w3.org/2000/svg" xmlns:xlink="http://www.w3.org/1999/xlink" x="0px" y="0px"
	 viewBox="0 0 384 400" style="enable-background:new 0 0 384 400;" xml:space="preserve">
<style type="text/css">
	.head-st0{fill:#434D18;}
	.head-st1{fill:#695C56;}
	.head-st2{fill:#621D01;}
	.head-st3{fill:#9E2F02;}
	.head-st4{opacity:0.28;fill:#FFFFFF;}
	.head-st5{opacity:0.9;fill:#FFFFFF;}
	.head-st6{fill:#CEC2B2;}
</style>
<g>
	<g>
		<g>
			<path d="M285.4,146.1C278,91.3,228.9,51.2,173,54.6c-26.3,1.6-49.7,12.5-67.8,31.7c-16.6,17.7-27.8,41.8-31.5,68
				c-3.8,2.1-10.1,6.5-10.5,12.8C63,171.7,65.9,176,72,180c4.4,3.4,33.3,15,86.9,15c19.1,0,41.4-1.5,66.8-5.4
				c46.4-4.3,62.3-16.3,64.3-17.9l0,0c5.8-4.6,8.4-9.2,7.6-13.8C296.4,151.4,288.8,147.5,285.4,146.1z M286.9,167.9l-0.2,0.2
				c-2.6,2.5-20.7,12.8-61.5,16.6l-0.1,0c-51.8,7.9-88.9,5.6-111,2.2c-25.6-3.9-37.8-9.9-39-10.9l-0.2-0.2c-3.1-2-6.7-5.1-6.6-8.4
				c0.2-3.6,4.7-7.1,8.9-9.2l1.2-0.6l0.2-1.3c7.2-54.9,45.3-93.8,94.8-96.7c2.1-0.1,4.1-0.2,6.2-0.2c51.2,0,95,37.9,101.1,88.8
				l0.2,1.6l1.5,0.5c2.6,0.9,9.6,4.2,10.4,8.5C293.2,162.1,289.8,165.5,286.9,167.9z"/>
			<path d="M216.2,176.4l0.1,5c1.6,0.1,3.2,0.2,4.7,0.2l2.2,0.1l1-6.2l-3.2,0.3C219.4,176.1,217.8,176.2,216.2,176.4z"/>
			<path class="head-st0" d="M173.4,60.1c-57.6,3.4-95.6,58.7-98.2,116.4c-0.9,20.3,211.8,23,208.8-18.3
				C279.9,100.6,231.1,56.6,173.4,60.1z"/>
			<path class="head-st1" d="M173.2,57.1C115.5,60.5,77.7,110,75,167.7c-0.9,20.3,210.3,19.9,208.7-12.4
				C280.9,97.6,230.8,53.6,173.2,57.1z"/>
			<path d="M283.9,145.5l-1.1-0.4l-1,0.7c-11,7.2-30.6,14.2-58.1,20.9c-53.4,6.9-126.3-3.1-145.6-13.3l-1.1-0.6l-1.1,0.5
				c-1.2,0.5-11.8,5.5-12.5,13.6c-0.4,4.7,2.6,9.1,8.8,13.1l0,0c3.6,2.3,30.7,11.5,69,14.7c8.3,0.7,17.5,1.2,27.6,1.2
				c33.7,0,76.4-5.1,120.8-23.8l0.3-0.1l0.3-0.2c5.8-4.6,8.4-9.3,7.6-13.9C296.2,149.9,285.1,145.9,283.9,145.5z M75,176L75,176
				L75,176z M287.1,167.6c-56.1,23.5-109.5,25-144.5,22.2c-38.2-3.1-64.9-12.2-67.7-13.9l-0.2-0.1c-3.1-2-6.8-5.2-6.5-8.5
				c0.3-3.9,5.5-7.4,8.5-8.9c21.3,10.3,92.5,20.4,147.6,13.3l0.3,0c27.3-6.6,47.1-13.7,58.8-21c3,1.2,8.6,4.3,9.3,8.1
				C293.2,162,290,165.3,287.1,167.6z"/>
			<path class="head-st2" d="M283.1,147.9c-12.6,8.2-34.6,15.4-59.1,21.3c-55.1,7.1-128.1-3.5-147.2-13.6c0,0-22.4,9.9-3.3,22.3
				c3.7,3,101.6,33.8,215-8.1C306.3,155.7,283.1,147.9,283.1,147.9z"/>
			<path class="head-st3" d="M237.1,177.2c5.5-0.7,8.4-1.4,7.9-1.6C242.3,176.2,239.7,176.7,237.1,177.2z"/>
			<path class="head-st3" d="M75.1,157.6c0,0-12.5,6.8,1.1,15.9c3.9,2.7,44.4,26.4,161,3.7C212.9,180.4,137.2,184.8,75.1,157.6z"/>
			<path class="head-st4" d="M71.9,161.9c-4.3,3.8,40.1,30.3,91.7,18c1.6-0.4-34.2,0.1-59.9-10.4C77.9,159.1,75.2,159,71.9,161.9z"/>
			<path class="head-st4" d="M179.6,60.1c-47.5,2.8-98.2,46.8-80.8,91c10.3,26.1,173.2,16.4,171.9-10.2C268.4,93.4,227.1,57.2,179.6,60.1
				z"/>
			<g>
				<path class="head-st1" d="M245.7,99.7c-4.1,2.2-5.3,7.9-2.6,12.8c2.6,4.9,8.1,7.1,12.2,4.9c4.1-2.2,5.3-7.9,2.6-12.8
					C255.2,99.7,249.8,97.5,245.7,99.7z"/>
				<path class="head-st1" d="M236,123.6c-3.2,1.7-4.4,5.7-2.7,8.9c1.7,3.2,5.7,4.4,8.9,2.7c3.2-1.7,4.4-5.7,2.7-8.9
					C243.3,123.1,239.3,121.9,236,123.6z"/>
				<path class="head-st1" d="M219.5,96.2c-5.7,3-7.7,10.2-4.6,16.1c3.1,5.8,10.3,8.1,15.9,5.1c5.7-3,7.7-10.2,4.6-16.1
					C232.3,95.4,225.2,93.2,219.5,96.2z"/>
			</g>
			<g>
				<path class="head-st1" d="M106.8,108.9c-4.4,0.7-7.5,4.3-6.9,8c0.6,3.7,4.7,6.1,9.1,5.4c4.4-0.7,7.6-4.3,6.9-8
					C115.4,110.6,111.3,108.2,106.8,108.9z"/>
				<path class="head-st1" d="M120.1,124.4c-2.9,0.5-4.9,3.2-4.4,6.1c0.5,2.9,3.2,4.9,6.1,4.4c2.9-0.5,4.9-3.2,4.4-6.1
					C125.7,125.9,123,124,120.1,124.4z"/>
				<path class="head-st1" d="M98.4,125.2c-5.3,0.9-8.9,5.7-8.1,10.9c0.8,5.1,5.8,8.6,11.1,7.7c5.3-0.9,8.9-5.7,8.1-10.9
					C108.7,127.8,103.7,124.3,98.4,125.2z"/>
			</g>
			<path class="head-st4" d="M134.8,84.8c25.2,10.3,57.9,16.4,80.4-3.1C234.6,64.8,150.4,41.1,134.8,84.8z"/>
		</g>
	</g>
	<g>
		<g>
			<path class="head-st0" d="M121.9,127.9c-2.9,0.5-4.9,3.2-4.4,6.1c0.5,2.9,3.2,4.9,6.1,4.4c2.9-0.5,4.9-3.2,4.4-6.1
				C127.5,129.4,124.8,127.5,121.9,127.9z"/>
		</g>
		<path d="M196.6,42.7c-0.3-0.7-1-1.3-1.7-1.4c-1-0.2-25.7-5.8-46.5,12.6c-45.6,39-45.9,106.1-46,128.2c0,2.5,0,5.1-0.1,6.2
			c0,0.1-0.1,0.1-0.1,0.2c-0.6,1.1-0.3,2.5,0.8,3.2c8.3,5.9,17.2,7.7,25.1,7.7c7.2,0,13.5-1.4,17.7-2.4c1.4-0.3,3-0.7,3.6-0.7
			c0.7,0.2,1.5,0,2.1-0.5c0.7-0.6,1-1.4,0.9-2.3c-9.2-66.5,4.1-99.8,16.8-116c13.8-17.6,30.1-19.6,30.4-19.6
			c0.8-0.1,1.5-0.5,1.9-1.2c0.4-0.7,0.5-1.5,0.1-2.3L196.6,42.7z M149,196.1C149.1,196.1,149.1,196.1,149,196.1
			C149.1,196.1,149.1,196.1,149,196.1z M165.4,74.2C146.2,98.5,140,138,147.1,191.5c-0.7,0.1-1.5,0.3-2.4,0.5
			c-7.7,1.8-23.6,5.4-37.4-3.5c0.1-1.3,0.1-3.3,0.1-6.4c0.1-21.5,0.4-87,44.2-124.5c16.4-14.5,35.9-12.5,40.9-11.8l3.3,7.6
			C189.8,54.9,176.9,59.6,165.4,74.2z"/>
		<path class="head-st2" d="M150,55.8c-54.6,46.7-42.9,134.8-45.6,133.8c19.4,13.9,42.8,3.2,45.5,4.2C131.7,62,199.3,55.3,199.3,55.3
			l-5-11.6C194.3,43.7,170.1,38,150,55.8z"/>
		<path d="M194.6,41.2c0,0-0.3,0-0.9-0.1l-0.5,0l-0.5,0.2c-21.7,7.8-58.6,30.6-62.4,95.8c-2.2,31.4-1.3,50.9-0.6,59.8l0.2,2.2
			l2.2,0.1c0.3,0,0.5,0,0.8,0c4.8,0,9.6-1.2,13.2-2c1.7-0.4,3.2-0.8,4.1-0.8l2.6-0.2l-0.9-6.8c-8.1-64.1,5.1-96.3,17.6-112.1
			c13.8-17.4,30-19.3,30.1-19.3l3.4-0.3L196,41.4L194.6,41.2z M165.6,73.9c-19.1,24-25.5,63-18.8,116l0.2,1.9
			c-0.7,0.1-1.4,0.3-2.2,0.5c-2.9,0.7-6.7,1.6-10.4,1.8c-0.7-9.6-1.3-28.2,0.8-56.7l0,0c3.5-60.8,36.9-82.9,57.6-90.8l3,6.9
			C189.9,54.9,177.1,59.5,165.6,73.9z"/>
		<path class="head-st3" d="M193.4,43.6c-20.9,7.5-57,29.6-60.7,93.6c-2,28-1.5,47.8-0.6,59.4c7,0.2,14.6-2.6,17.7-2.9l-0.5-4.2
			c-16.1-127.6,50-134.2,50-134.2l-5-11.6C194.3,43.7,194,43.7,193.4,43.6z"/>
		<path class="head-st5" d="M122,179.9c0,6.3,1.7,11.3,1.7,11.3l-20.5,0.9c0,0,8,6.1,24.2,4.5c0,0-11.1-75.2,19.6-124.1
			C146.9,72.6,116.9,105.9,122,179.9z"/>
		<path class="head-st4" d="M108.2,176l10,1.3c0,0,2.5-22.4,4.5-44.1c6.8-62.4,52.7-85.2,52.7-85.2C108.8,58.1,108.2,176,108.2,176z"/>
		<g>
			<path class="head-st6" d="M135.7,114.5l13.6,6c4.2-24.9,13.3-40.4,22.6-49.9l-7.4-9.5C152.3,72.2,141,89,135.7,114.5z"/>
		</g>
		<g>
			<path class="head-st6" d="M146.8,156.3l-15.3,2c-0.6,17.1-0.2,29.9,0.6,38.3c7,0.2,14.6-2.6,17.7-2.9l-0.5-4.2
				C147.8,177.4,147,166.3,146.8,156.3z"/>
		</g>
	</g>
</g>
</svg>
