<?xml version="1.0" encoding="utf-8"?>
<!-- Generator: Adobe Illustrator 26.0.3, SVG Export Plug-In . SVG Version: 6.00 Build 0)  -->
<svg version="1.1" id="Layer_1" xmlns="http://www.w3.org/2000/svg" xmlns:xlink="http://www.w3.org/1999/xlink" x="0px" y="0px"
	 viewBox="0 0 384 400" style="enable-background:new 0 0 384 400;" xml:space="preserve">
<style type="text/css">
	.head-st0{fill:#FFEED1;}
	.head-st1{opacity:0.4;fill:#E6D6C5;}
	.head-st2{opacity:0.28;fill:#FFFFFF;}
	.head-st3{fill:#434D18;}
	.head-st4{fill:#695C56;}
	.head-st5{fill:#621D01;}
	.head-st6{fill:#9E2F02;}
	.head-st7{opacity:0.9;fill:#FFFFFF;}
	.head-st8{fill:#CEC2B2;}
</style>
<g>
	<g>
		<g>
			<path d="M131.5,82.7c-6.4,0.7-39.6,3-60.4-15.4c-9.3-8.2-14.8-19.4-16.4-33.5c-0.1-1.2-1.1-2.1-2.3-2.2c-1.2-0.1-2.3,0.6-2.6,1.8
				c-5.2,17.3-11.9,50.2,2,76c9.4,17.6,26.7,28.9,51.4,33.9c0.2,0,0.3,0,0.5,0c0.1,0,0.3,0,0.4,0c3.7-0.6,22.4-4.5,30.9-19.6
				c5.8-10.4,5.5-23.7-1-39.5C133.6,83.2,132.6,82.6,131.5,82.7z M130.7,121.3c-7.1,12.7-23.5,16.4-27,17
				c-22.9-4.7-38.9-15.2-47.5-31.2c-10.6-19.8-8.3-44.4-4.3-61.7c2.9,10.3,8.3,19,15.9,25.7c20.5,18.1,50.9,17.7,62.3,16.8
				C135.3,101.4,135.5,112.7,130.7,121.3z"/>
			<path class="head-st0" d="M69.4,69.2c-9.8-8.6-15.5-20.4-17.2-35.1c-4.8,16-11.8,48.8,1.8,74.1c9,16.9,25.7,27.8,49.7,32.6
				c2.6-0.4,21.1-4.1,29.2-18.3c5.4-9.7,5.1-22.2-1.1-37.3C124.1,86,90.8,88.1,69.4,69.2z"/>
			<path class="head-st1" d="M135.8,102.4c-8,14.3-26.5,17.9-29.2,18.3C82.7,116,66,105,56.9,88.2c-7.2-13.4-8.6-28.9-7.6-42.9
				c-3.9,17.4-6.3,42.7,4.7,63.1c9,16.9,25.7,27.8,49.7,32.6c2.6-0.4,21.1-4.1,29.2-18.3c3.4-6,4.5-13,3.4-21.1
				C136.1,101.8,136,102.1,135.8,102.4z"/>
		</g>
		<path class="head-st2" d="M52.4,35.6c0,0-17.2,64.9,78,60.9l0.8-5.6C131.1,90.9,50.2,99.5,52.4,35.6z"/>
	</g>
	<g>
		<g>
			<path d="M288.8,146.1c-7.4-54.8-56.5-94.9-112.4-91.5c-26.3,1.6-49.7,12.5-67.8,31.7c-16.6,17.7-27.8,41.8-31.5,68
				c-3.8,2.1-10.1,6.5-10.5,12.8c-0.3,4.6,2.7,8.9,8.7,12.8c4.4,3.4,33.3,15,86.9,15c19.1,0,41.4-1.5,66.8-5.4
				c46.4-4.3,62.3-16.3,64.3-17.9l0,0c5.8-4.6,8.4-9.2,7.6-13.8C299.9,151.4,292.2,147.5,288.8,146.1z M290.3,167.9l-0.2,0.2
				c-0.1,0.1-15.2,12.3-61.5,16.6l-0.1,0c-51.8,7.9-88.9,5.6-111,2.2c-25.6-3.9-37.8-9.9-39-10.9l-0.2-0.2c-3.1-2-6.7-5.1-6.6-8.4
				c0.2-3.6,4.7-7.1,8.9-9.2l1.2-0.6l0.2-1.3c7.2-54.9,45.3-93.8,94.8-96.7c2.1-0.1,4.1-0.2,6.2-0.2c51.2,0,95,37.9,101.1,88.8
				l0.2,1.6l1.5,0.5c2.6,0.9,9.6,4.2,10.4,8.5C296.6,162.1,293.2,165.5,290.3,167.9z"/>
			<path d="M219.6,176.4l0.1,5c1.6,0.1,3.2,0.2,4.7,0.2l2.2,0.1l1-6.2l-3.2,0.3C222.8,176.1,221.2,176.2,219.6,176.4z"/>
			<path class="head-st3" d="M176.9,60.1c-57.6,3.4-95.6,58.7-98.2,116.4c-0.9,20.3,211.8,23,208.8-18.3
				C283.3,100.6,234.5,56.6,176.9,60.1z"/>
			<path class="head-st4" d="M176.6,57.1c-57.6,3.4-95.5,52.9-98.2,110.6c-0.9,20.3,210.3,19.9,208.7-12.4
				C284.3,97.6,234.2,53.6,176.6,57.1z"/>
			<path d="M287.3,145.5l-1.1-0.4l-1,0.7c-11,7.2-30.6,14.2-58.1,20.9c-53.4,6.9-126.3-3.1-145.6-13.3l-1.1-0.6l-1.1,0.5
				c-1.2,0.5-11.8,5.5-12.5,13.6c-0.4,4.7,2.6,9.1,8.8,13.1l0,0c3.6,2.3,30.7,11.5,69,14.7c8.3,0.7,17.5,1.2,27.6,1.2
				c33.7,0,76.4-5.1,120.8-23.8l0.3-0.1l0.3-0.2c5.8-4.6,8.4-9.3,7.6-13.9C299.6,149.9,288.5,145.9,287.3,145.5z M78.4,176L78.4,176
				L78.4,176z M290.6,167.6c-56.1,23.5-109.5,25-144.5,22.2c-38.2-3.1-64.9-12.2-67.7-13.9l-0.2-0.1c-3.1-2-6.8-5.2-6.5-8.5
				c0.3-3.9,5.5-7.4,8.5-8.9c21.3,10.3,92.5,20.4,147.6,13.3l0.3,0c27.3-6.6,47.1-13.7,58.7-21c3,1.2,8.6,4.3,9.3,8.1
				C296.6,162,293.4,165.3,290.6,167.6z"/>
			<path class="head-st5" d="M286.5,147.9c-12.6,8.2-34.6,15.4-59.1,21.3c-55.1,7.1-128.1-3.5-147.2-13.6c0,0-22.4,9.9-3.3,22.3
				c3.7,3,101.6,33.8,215-8.1C309.7,155.7,286.5,147.9,286.5,147.9z"/>
			<path class="head-st6" d="M240.6,177.2c5.5-0.7,8.4-1.4,7.9-1.6C245.8,176.2,243.1,176.7,240.6,177.2z"/>
			<path class="head-st6" d="M78.5,157.6c0,0-12.5,6.8,1.1,15.9c3.9,2.7,44.4,26.4,161,3.7C216.3,180.4,140.6,184.8,78.5,157.6z"/>
			<path class="head-st2" d="M75.3,161.9c-4.3,3.8,40.1,30.3,91.7,18c1.6-0.4-34.2,0.1-59.9-10.4C81.4,159.1,78.6,159,75.3,161.9z"/>
			<path class="head-st2" d="M183.1,60.1c-47.5,2.8-98.2,46.8-80.8,91c10.3,26.1,173.2,16.4,171.9-10.2C271.8,93.4,230.5,57.2,183.1,60.1
				z"/>
			<g>
				<path class="head-st4" d="M249.1,99.7c-4.1,2.2-5.3,7.9-2.6,12.8c2.6,4.9,8.1,7.1,12.2,4.9c4.1-2.2,5.3-7.9,2.6-12.8
					C258.6,99.7,253.2,97.5,249.1,99.7z"/>
				<path class="head-st4" d="M239.5,123.6c-3.2,1.7-4.4,5.7-2.7,8.9c1.7,3.2,5.7,4.4,8.9,2.7c3.2-1.7,4.4-5.7,2.7-8.9
					C246.7,123.1,242.7,121.9,239.5,123.6z"/>
				<path class="head-st4" d="M222.9,96.2c-5.7,3-7.7,10.2-4.6,16.1c3.1,5.8,10.3,8.1,15.9,5.1c5.7-3,7.7-10.2,4.6-16.1
					C235.7,95.4,228.6,93.2,222.9,96.2z"/>
			</g>
			<g>
				<path class="head-st4" d="M110.2,108.9c-4.4,0.7-7.5,4.3-6.9,8c0.6,3.7,4.7,6.1,9.1,5.4c4.4-0.7,7.6-4.3,6.9-8
					C118.8,110.6,114.7,108.2,110.2,108.9z"/>
				<path class="head-st4" d="M123.5,124.4c-2.9,0.5-4.9,3.2-4.4,6.1c0.5,2.9,3.2,4.9,6.1,4.4c2.9-0.5,4.9-3.2,4.4-6.1
					C129.2,125.9,126.4,124,123.5,124.4z"/>
				<path class="head-st4" d="M101.8,125.2c-5.3,0.9-8.9,5.7-8.1,10.9c0.8,5.1,5.8,8.6,11.1,7.7c5.3-0.9,8.9-5.7,8.1-10.9
					C112.1,127.8,107.1,124.3,101.8,125.2z"/>
			</g>
			<path class="head-st2" d="M138.2,84.8c25.2,10.3,57.9,16.4,80.4-3.1C238,64.8,153.8,41.1,138.2,84.8z"/>
		</g>
	</g>
	<g>
		<g>
			<path d="M294.4,32c-1.2,0.1-2.1,1.1-2.2,2.2c-1.4,14-6.7,25.4-15.8,33.7c-20.5,18.7-53.7,16.9-60.1,16.3
				c-1.1-0.1-2.1,0.6-2.5,1.6c-6.2,16-6.4,29.3-0.4,39.5c8.7,14.9,27.6,18.5,31.2,19.1c0.1,0,0.3,0,0.4,0c0.2,0,0.4,0,0.5-0.1
				c24.6-5.3,41.7-17,50.9-34.7c13.4-26.1,6.2-58.8,0.7-76C296.7,32.6,295.6,31.9,294.4,32z M278.1,69.9L278.1,69.9L278.1,69.9z
				 M291.9,107.5c-8.3,16.2-24.1,27-47,32c-3.4-0.6-19.9-4-27.2-16.6c-5-8.5-5-19.8,0-33.5c9.9,0.6,41.6,0.9,62-17.8
				c7.5-6.9,12.7-15.6,15.5-26C299.4,63,302.2,87.6,291.9,107.5z"/>
			<path class="head-st0" d="M278,69.9c-21,19.2-54.4,17.6-62,17c-5.9,15.2-6.1,27.8-0.5,37.4c8.3,14.1,26.8,17.4,29.5,17.9
				c23.9-5.2,40.4-16.4,49.2-33.4c13.1-25.5,5.6-58.2,0.6-74.1C293.2,49.2,287.7,61.1,278,69.9z"/>
			<path class="head-st1" d="M290.8,88.6c-8.7,17-25.3,28.2-49.2,33.4c-2.6-0.4-21.2-3.7-29.5-17.9c-0.2-0.3-0.3-0.6-0.5-1
				c-0.9,8.1,0.3,15.1,3.8,21c8.3,14.1,26.8,17.4,29.5,17.9c23.9-5.2,40.4-16.4,49.2-33.4c10.6-20.6,7.8-45.8,3.6-63.1
				C298.9,59.5,297.8,75.1,290.8,88.6z"/>
		</g>
		<path class="head-st2" d="M216.7,92.5l0.9,5.6c95.3,2.5,77-62.2,77-62.2C297.8,99.8,216.7,92.5,216.7,92.5z"/>
	</g>
	<g>
		<g>
			<path class="head-st3" d="M125.3,127.9c-2.9,0.5-4.9,3.2-4.4,6.1c0.5,2.9,3.2,4.9,6.1,4.4c2.9-0.5,4.9-3.2,4.4-6.1
				C130.9,129.4,128.2,127.5,125.3,127.9z"/>
		</g>
		<path d="M200,42.7c-0.3-0.7-1-1.3-1.7-1.4c-1-0.2-25.7-5.8-46.5,12.6c-45.6,39-45.9,106.1-46,128.2c0,2.5,0,5.1-0.1,6.2
			c0,0.1-0.1,0.1-0.1,0.2c-0.6,1.1-0.3,2.5,0.8,3.2c8.3,5.9,17.2,7.7,25.1,7.7c7.2,0,13.5-1.4,17.7-2.4c1.4-0.3,3-0.7,3.6-0.7
			c0.7,0.2,1.5,0,2.1-0.5c0.7-0.6,1-1.4,0.9-2.3c-9.2-66.5,4.1-99.8,16.8-116c13.8-17.6,30.1-19.6,30.4-19.6
			c0.8-0.1,1.5-0.5,1.9-1.2c0.4-0.7,0.5-1.5,0.1-2.3L200,42.7z M152.5,196.1C152.5,196.1,152.5,196.1,152.5,196.1
			C152.5,196.1,152.5,196.1,152.5,196.1z M168.8,74.2c-19.2,24.3-25.3,63.8-18.3,117.3c-0.7,0.1-1.5,0.3-2.4,0.5
			c-7.7,1.8-23.6,5.3-37.4-3.5c0.1-1.3,0.1-3.3,0.1-6.4c0.1-21.5,0.4-87,44.2-124.5c16.4-14.5,35.9-12.5,40.9-11.8l3.3,7.6
			C193.2,54.9,180.3,59.6,168.8,74.2z"/>
		<path class="head-st5" d="M153.4,55.8c-54.6,46.7-42.9,134.8-45.6,133.8c19.4,13.9,42.8,3.2,45.5,4.2C135.1,62,202.7,55.3,202.7,55.3
			l-5-11.6C197.7,43.7,173.5,38,153.4,55.8z"/>
		<path d="M198,41.2c0,0-0.3,0-0.9-0.1l-0.5,0l-0.5,0.2c-21.7,7.8-58.6,30.6-62.4,95.8c-2.2,31.4-1.3,50.9-0.6,59.8l0.2,2.2l2.2,0.1
			c0.3,0,0.5,0,0.8,0c4.8,0,9.6-1.2,13.2-2c1.7-0.4,3.2-0.8,4.1-0.8l2.6-0.2l-0.9-6.8c-8.1-64.1,5.1-96.3,17.6-112.1
			c13.8-17.4,30-19.3,30.1-19.3l3.4-0.3l-6.9-16.1L198,41.2z M169,73.9c-19.1,24-25.5,63-18.8,116l0.2,1.9c-0.7,0.1-1.4,0.3-2.2,0.5
			c-2.9,0.7-6.7,1.6-10.4,1.8c-0.7-9.6-1.3-28.2,0.8-56.7l0,0c3.5-60.8,36.9-82.9,57.6-90.8l3,6.9C193.3,54.9,180.5,59.5,169,73.9z"
			/>
		<path class="head-st6" d="M196.8,43.6c-20.9,7.5-57,29.6-60.7,93.6c-2,28-1.5,47.8-0.6,59.4c7,0.2,14.6-2.6,17.7-2.9l-0.5-4.2
			c-16.1-127.6,50-134.2,50-134.2l-5-11.6C197.7,43.7,197.4,43.7,196.8,43.6z"/>
		<path class="head-st7" d="M125.4,179.9c0,6.3,1.7,11.3,1.7,11.3l-20.5,0.9c0,0,8,6.1,24.2,4.5c0,0-11.1-75.2,19.6-124.1
			C150.3,72.6,120.3,105.9,125.4,179.9z"/>
		<path class="head-st2" d="M111.6,176l10,1.3c0,0,2.5-22.4,4.5-44.1c6.8-62.4,52.7-85.2,52.7-85.2C112.2,58.1,111.6,176,111.6,176z"/>
		<g>
			<path class="head-st8" d="M139.1,114.5l13.6,6c4.2-24.9,13.3-40.4,22.6-49.9l-7.4-9.5C155.7,72.2,144.5,89,139.1,114.5z"/>
		</g>
		<g>
			<path class="head-st8" d="M150.3,156.3l-15.3,2c-0.6,17.1-0.2,29.9,0.6,38.3c7,0.2,14.6-2.6,17.7-2.9l-0.5-4.2
				C151.2,177.4,150.4,166.3,150.3,156.3z"/>
		</g>
	</g>
</g>
</svg>
