<?xml version="1.0" encoding="utf-8"?>
<!-- Generator: Adobe Illustrator 26.0.3, SVG Export Plug-In . SVG Version: 6.00 Build 0)  -->
<svg version="1.1" id="Layer_1" xmlns="http://www.w3.org/2000/svg" xmlns:xlink="http://www.w3.org/1999/xlink" x="0px" y="0px"
	 viewBox="0 0 384 400" style="enable-background:new 0 0 384 400;" xml:space="preserve">
<style type="text/css">
	.head-st0{opacity:0.16;}
	.head-st1{fill:#45B1F7;}
	.head-st2{fill:#AD3CA9;}
	.head-st3{fill:#89C63B;}
	.head-st4{fill:#FAEC1F;}
	.head-st5{fill:#EB1A22;}
	.head-st6{opacity:0.7;fill:#FFFFFF;}
</style>
<g>
	<path d="M190.3,120.8c1.1,2.7,1.9,5.5,2.3,8.3c0.4,2.8,0.3,5.6-0.3,8.3c-1.3,5.4-4.7,10-9.1,13.5c-2.1,1.8-4.5,3.3-7,4.7
		c-2.5,1.4-5.1,2.5-7.8,3.5c-5.4,1.9-11,3.2-16.9,3.6c5.8,0.8,11.9,0.2,17.6-1.3c5.7-1.6,11.3-4.2,16-8c2.3-1.9,4.5-4.2,6.1-6.8
		c1.6-2.6,2.9-5.5,3.3-8.6c0.5-3,0.3-6.2-0.5-9.1C193.2,126,191.9,123.3,190.3,120.8z"/>
	<path class="head-st0" d="M193.5,140.8c-1.4,4.6-4.7,8.5-8.9,11.6c-4.2,3.1-9,5.6-14.2,7.5c-5.2,1.9-11.6,2-17.4,2.9
		c5.8,1.3,12.9,2.4,18.9,1.2c5.9-1.3,11.7-3.7,16.7-7.4c4.9-3.6,8.9-9,9.7-15c0.9-6-1.6-11.8-5.4-15.9
		C194.3,131,195,136.2,193.5,140.8z"/>
	<g>
		<g>
			<path d="M112.9,55c-1.4-0.2-2.3,0.3-2.8,0.7c-1.9,1.5-3.6,2.9,10.3,47.4c6.6,21.2,13.7,42.3,13.8,42.6c1.7,5,4.8,10.9,14.2,12.4
				c1.2,0.2,2.4,0.3,3.6,0.3c10.4,0,23.5-6.3,29.7-14.8c5-6.9,5.1-13,0.2-19.8C179.8,120.8,124.1,56.6,112.9,55z M177.7,140.6
				c-5.8,7.9-19.6,14-28.5,12.6c-7.1-1.2-9-5.3-10.3-9.1l0,0c-11.7-34.6-23.7-73.4-25-83.4c11.5,6.8,58.6,58.6,64,66
				C180.9,130.9,182,134.7,177.7,140.6z"/>
			<path class="head-st1" d="M111.6,57.7c-3.6,2.9,24.9,87.2,24.9,87.2c1.4,4.1,3.8,9.4,12.2,10.8c9.7,1.6,24.5-4.7,30.9-13.6
				c4.8-6.5,4.1-11.5,0.2-16.9C176.1,119.8,117,53.4,111.6,57.7z"/>
			<path class="head-st2" d="M130.5,71.7c-5,2.2-10.2,3.8-15.5,4.6c7,25.6,21.5,68.6,21.5,68.6c1.4,4.1,3.8,9.4,12.2,10.8
				c9.7,1.6,24.5-4.7,30.9-13.6c4.8-6.5,4.1-11.5,0.2-16.9C177.3,121.6,149.9,90.5,130.5,71.7z"/>
			<path class="head-st3" d="M148.2,89.8c-8.6,4.4-17.8,7-27.2,7.1c7.1,23.2,15.5,48,15.5,48c1.4,4.1,3.8,9.4,12.2,10.8
				c9.7,1.6,24.5-4.7,30.9-13.6c4.8-6.5,4.1-11.5,0.2-16.9C178.1,122.6,163.5,106,148.2,89.8z"/>
			<path class="head-st4" d="M162,104.7c-11.3,6.3-23.4,10.4-35.1,10.9c5.1,16.1,9.6,29.2,9.6,29.2c1.4,4.1,3.8,9.4,12.2,10.8
				c9.7,1.6,24.5-4.7,30.9-13.6c4.8-6.5,4.1-11.5,0.2-16.9C178.6,123.4,171.4,115,162,104.7z"/>
			<path class="head-st5" d="M178.5,123.4c-11.8,11.1-28.3,14.3-44.2,14.8c1.4,4.1,2.2,6.6,2.2,6.6c1.4,4.1,3.8,9.4,12.2,10.8
				c9.7,1.6,24.5-4.7,30.9-13.6c4.8-6.5,4.1-11.5,0.2-16.9C179.7,124.8,179.2,124.2,178.5,123.4z"/>
		</g>
		<path class="head-st0" d="M173.2,117.2c-2.8,4.5-6.7,8.2-11.8,10.7c-13.3,6.5-23.8,3.4-31.9-4.5c4,12.3,7.1,21.5,7.1,21.5
			c1.4,4.1,3.8,9.4,12.2,10.8c9.7,1.6,24.5-4.7,30.9-13.6c4.8-6.5,4.1-11.5,0.2-16.9C179.2,124.2,176.7,121.3,173.2,117.2z"/>
		<path class="head-st6" d="M117.2,65.9c-6.7,3.5,14,51.1,21.6,52.2c7.6,1.2,1.1-23.8-1.5-30.8C134.6,80.4,124.8,62,117.2,65.9z"/>
	</g>
</g>
</svg>
