<?xml version="1.0" encoding="utf-8"?>
<!-- Generator: Adobe Illustrator 26.0.3, SVG Export Plug-In . SVG Version: 6.00 Build 0)  -->
<svg version="1.1" id="Layer_1" xmlns="http://www.w3.org/2000/svg" xmlns:xlink="http://www.w3.org/1999/xlink" x="0px" y="0px"
	 viewBox="0 0 384 400" style="enable-background:new 0 0 384 400;" xml:space="preserve">
<style type="text/css">
	.head-st0{fill:#943C2C;}
	.head-st1{fill:#AB4533;}
	.head-st2{fill:#783124;}
	.head-st3{opacity:0.16;}
	.head-st4{fill:#FFFFFF;}
	.head-st5{opacity:0.53;fill:#E03962;}
	.head-st6{fill:#B0B0B0;}
	.head-st7{fill:#B52E4F;}
	.head-st8{fill:#FFF0EB;}
	.head-st9{fill:#63192B;}
</style>
<g>
	<path d="M243.8,15.3c-9.4-1.6-45,21.9-52,26.6l-1.7,1.1l11,28.2l2.4-1c11.3-4.7,48.5-20.9,50.9-30.5c1.8-7.1,1.1-14.1-2-18.8
		C250.4,17.8,247.4,15.9,243.8,15.3z M249.5,38.5c-1.2,4.7-24.1,16.9-45.6,26.1l-7.7-19.7C213,33.7,237.7,19.3,243,20.2
		c2.3,0.4,4,1.5,5.3,3.5C250.5,27.1,251,32.8,249.5,38.5z"/>
	<path class="head-st0" d="M243.4,17.7c-8.9-1.5-50.2,26.2-50.2,26.2l9.3,24c0,0,47.1-19.7,49.4-28.8C254.2,30.1,252.3,19.2,243.4,17.7z"
		/>
	<path class="head-st1" d="M193.4,45.2l0.2,0.5c17.6-9.2,35.8-17.2,54-25.1c-1.1-0.7-2.4-1.3-4-1.6C234.6,17.5,193.4,45.2,193.4,45.2z"/>
	<path class="head-st2" d="M229.5,34.6c-7.3,5.8-15.7,10.5-24.4,11.3c-1.4,0.6-2.8,1.3-4.3,1.9c-2,0.9-3.9,1.3-5.7,1.4l7.3,18.7
		c0,0,47.1-19.7,49.4-28.8c1.3-5.2,1.2-11-0.8-15.3C244,27.5,236.8,31.1,229.5,34.6z"/>
	<polygon class="head-st3" points="155.7,165.7 138.3,164.1 138.7,167.4 157.5,173.2 217.7,117.7 205.9,116.1 	"/>
	<path d="M111.1,73.9l28.2,89.8l17.2,4.8l48.8-53.2l4.3-70.2l-25.5-3.5L111.1,73.9z M204.3,49.4l-3.9,63.8l-45.5,49.7l-11.7-3.2
		l-26-83l67.7-29.9L204.3,49.4z"/>
	<polygon class="head-st4" points="184.5,44.2 114.2,75.3 141.3,161.7 155.7,165.7 138.4,79.7 207,47.3 	"/>
	<polygon class="head-st5" points="145.1,60.4 114.2,75.3 141.3,161.7 155.7,165.7 179.7,141.1 168.7,67.1 	"/>
	<polygon class="head-st5" points="114.2,75.3 141.3,161.7 155.7,165.7 138.4,79.7 	"/>
	<polygon class="head-st6" points="155.7,165.7 202.9,114.3 207,47.3 138.4,79.7 	"/>
	<polygon class="head-st7" points="161.2,69.6 138.4,79.7 155.7,165.7 179.7,141.1 173.4,65.3 	"/>
	<polygon class="head-st8" points="134.6,76.4 117,74.7 137.8,79.1 160,69.6 157.9,69.7 	"/>
	<g>
		<path class="head-st9" d="M158,88.3c-5.9,0.2-9.6,16.6-0.9,17.3C165.7,106.2,172.8,87.8,158,88.3z"/>
		<path d="M158,87.9c-3.6,0.1-6.3,5.6-6.4,10.5c-0.1,4.4,1.9,7.3,5.5,7.5c0.2,0,0.3,0,0.5,0c2.8,0,5.6-1.8,7.5-4.9
			c2.1-3.4,2.5-7.2,1.1-9.7C165.1,89.7,162.9,87.8,158,87.9z M164.4,100.7c-1.9,3-4.7,4.7-7.3,4.5c-4.4-0.3-4.8-4.8-4.8-6.8
			c0.1-4.4,2.6-9.6,5.7-9.7c3.6-0.1,6.2,0.9,7.4,3C166.7,94,166.3,97.6,164.4,100.7z"/>
	</g>
</g>
</svg>
