<?xml version="1.0" encoding="utf-8"?>
<!-- Generator: Adobe Illustrator 26.0.3, SVG Export Plug-In . SVG Version: 6.00 Build 0)  -->
<svg version="1.1" id="Layer_1" xmlns="http://www.w3.org/2000/svg" xmlns:xlink="http://www.w3.org/1999/xlink" x="0px" y="0px"
	 viewBox="0 0 384 400" style="enable-background:new 0 0 384 400;" xml:space="preserve">
<style type="text/css">
	.head-st0{fill:#EB1A22;}
	.head-st1{fill:#F9AC36;}
	.head-st2{fill:#FAEC1F;}
	.head-st3{fill:#89C63B;}
	.head-st4{fill:#AD3CA9;}
	.head-st5{fill:#45B1F7;}
	.head-st6{fill:#FFFFFF;}
</style>
<g>
	<g>
		<path class="head-st0" d="M164.2,75.2c-97,9.5-103.9,81.1-104.4,94.6l4.1,0.6c0.2-13.9,6.2-79.2,100.6-90.3
			c103.5-1.6,117.6,60.7,119.4,74l3.9-1.2C285.7,140.1,269,72.2,164.2,75.2z"/>
		<path class="head-st1" d="M163.9,70.3c-99.6,7.9-107.5,86.1-108.1,98.9l4.2,0.6c0.4-13.5,7.4-85,104.4-94.6
			c104.8-3,121.5,64.9,123.7,77.7l4-1.2C289.4,139.7,270,65.8,163.9,70.3z"/>
		<path class="head-st2" d="M163.5,65.4c-102.3,6.2-111.2,91.4-112,103.2l4.2,0.6c0.6-12.8,8.5-91,108.1-98.9
			c106.2-4.5,125.6,69.3,128,81.3l4-1.2C293.3,139.4,271,59.4,163.5,65.4z"/>
		<path class="head-st3" d="M163.1,60.6C58,65,48.1,157.7,47.4,168l4.2,0.6c0.7-11.8,9.6-97,112-103.2c107.5-6,129.8,74,132.4,85l4-1.2
			C297.4,139.6,272.1,53,163.1,60.6z"/>
		<path class="head-st4" d="M253.6,76.5C222.7,53,168.7,55.4,155,56.4c-23,2.9-56.3,10.5-75.3,30.1c-26.7,27.5-34,59.8-36.5,81l4.2,0.6
			C48.1,157.7,58,65,163.1,60.6c108.9-7.6,134.3,79,136.8,88.6l4-1.2C297.8,128.1,284,99.7,253.6,76.5z"/>
		<path class="head-st5" d="M161.6,50.2C137.3,52,62.7,60.2,45.8,137l-8.1,29.7l5.4,1.3c2.5-21.2,9.6-53.7,36.6-81.5
			c19-19.6,52.3-27.1,75.3-30.1c13.7-1,67.7-3.4,98.6,20.1c30.7,23.4,44.5,52,50.5,72l5.3-2.2l-8.3-22
			C268.6,52.9,198,47.5,161.6,50.2z"/>
	</g>
	<g>
		<path class="head-st6" d="M70.6,163.6c-7.3-5.1-13.7-3.9-18.1-0.4c-4.6-3.5-10-3.4-14.4-1.4c-11.2-6.6-26.2,6.5-19.3,14.4
			c0.1,0.1,0.1,0.1,0.2,0.2c-1.3,2.7-1.3,5.7,0.8,8.1c4.6,5.3,14.6,8.6,21.3,7.4c0.7,1.1,1.8,2,3.2,2.5c10.7,4.2,31.1-3.1,24.6-13.4
			C76.9,177.8,81.4,171.1,70.6,163.6z"/>
	</g>
	<g>
		<path class="head-st6" d="M316,144.7c-8.5-2.4-14.3,0.8-17.3,5.6c-5.5-1.9-10.5,0.1-14,3.4c-12.7-2.6-22.6,14.7-13.6,19.9
			c0.1,0,0.1,0.1,0.2,0.1c-0.4,3,0.6,5.8,3.4,7.4c6.1,3.5,16.6,3.4,22.5,0.1c1,0.8,2.3,1.3,3.9,1.3c11.5,0.5,28.4-13,18.9-20.6
			C326.6,156.1,328.7,148.3,316,144.7z"/>
	</g>
</g>
</svg>
