<?xml version="1.0" encoding="utf-8"?>
<!-- Generator: Adobe Illustrator 26.0.3, SVG Export Plug-In . SVG Version: 6.00 Build 0)  -->
<svg version="1.1" id="Layer_1" xmlns="http://www.w3.org/2000/svg" xmlns:xlink="http://www.w3.org/1999/xlink" x="0px" y="0px"
	 viewBox="0 0 384 400" style="enable-background:new 0 0 384 400;" xml:space="preserve">
<style type="text/css">
	.head-st0{fill:#CEC2B2;}
	.head-st1{opacity:0.6;fill:#FFFFFF;}
	.head-st2{opacity:0.28;fill:#FFFFFF;}
	.head-st3{fill:#FFFFFF;}
	.head-st4{fill:#7D766C;}
	.head-st5{opacity:0.8;fill:#FFFFFF;}
</style>
<g>
	<g>
		<path d="M249.3,92.9c-18.9-18.2-43.8-27.9-70.1-27.3c-25.7,0.6-48.5,11-65.9,30.2c-16.4,18-26.6,42.5-28.8,69
			c-0.2,2.3,1.1,4.4,3.9,6.2c11.7,7.6,52.1,11.5,87,12c2.1,0,4.8,0.1,7.9,0.1c22.4,0,68.4-1.3,87.1-11.7c5.5-3,8.2-6.7,8.2-10.9
			C278.3,134.8,267.9,110.8,249.3,92.9z M268.1,167c-13.5,7.4-48.9,11.6-92.5,11c-40.4-0.6-75.1-5.2-84.4-11.2
			c-1.4-0.9-1.6-1.5-1.6-1.6c4.5-54.5,41.4-93.4,89.9-94.5c0.8,0,1.5,0,2.3,0c24.1,0,46.8,9.2,64.2,25.9c17.6,17,27.5,39.7,27.8,64
			C273.7,162.7,271.8,164.9,268.1,167z"/>
		<path class="head-st0" d="M179.4,68.1c-52.2,1.2-88,44.7-92.3,96.8c-1.5,18.3,189.5,24.8,189.1-4.5C275.5,108.2,231.6,66.9,179.4,68.1z
			"/>
		<path class="head-st1" d="M270.5,141.2c-39.8,13.2-146.8,9.6-180.1,1.4c-0.6,1.8-1.1,3.7-1.6,5.5c27.2,6.9,83.1,9.6,129.1,6.7
			c23.1-1.5,43.6-4.3,56.6-8.8c-0.4-1.9-0.8-3.8-1.4-5.7C272.3,140.6,271.5,140.9,270.5,141.2z"/>
		<g>
			<path class="head-st0" d="M270.3,137.5c-39.8,13.2-146.8,9.6-180.1,1.4c-0.9,2.9-1.7,5.9-2.4,8.9c26.8,7.1,83.6,9.9,130.1,7
				c23.4-1.5,44.1-4.4,57.1-9c-0.5-3.1-1.2-6.2-2-9.2C272.1,136.9,271.3,137.2,270.3,137.5z"/>
		</g>
		<path class="head-st2" d="M155.3,94.1c22.5,25.5,55.8,50.5,91.8,41.1C278.2,127.1,197,53.7,155.3,94.1z"/>
		<path d="M89.4,143.6c-0.2,1.1-0.7,2.2-1.3,3.3c17.1,6.6,40.3,8.3,60.5,8.2c-0.2-0.7-0.2-1.5-0.2-2.2
			C110.2,151.5,94.2,145.8,89.4,143.6z"/>
		<path d="M243.7,149.9l32.6-4.2l-1.9-3.6C274.5,142.2,264.8,145.5,243.7,149.9z"/>
		<path class="head-st1" d="M208.4,76.3c-0.9,0.1-13.9,7.8-13.9,7.8s27.1,9.6,27.8,54.3c0,0,20.1,1.8,43.2-4.9
			C264.3,134.5,254.1,90,208.4,76.3z"/>
		<path class="head-st3" d="M225.8,158.2l1.3,14.3c0,0,27.3-1.3,40-6c0.4,0-2.1-12.9-2.1-12.9L225.8,158.2z"/>
	</g>
	<g>
		<path d="M205.8,57.2c-0.4-0.1-1-0.3-1.7-0.5c-5.8-1.8-19.5-6.1-40.1,13.5c-40,36.8-38,97.6-37.4,117.6c0.1,2.2,0.1,4.5,0.1,5.5
			c0,0-0.1,0.1-0.1,0.1c-0.5,1.1-0.2,2.5,0.9,3.2c7.1,4.7,14.6,6.2,21.4,6.2c7.3,0,13.6-1.7,17.7-2.8c1.2-0.3,2.6-0.7,3.2-0.8
			c0.7,0.1,1.5-0.1,2.1-0.6c0.7-0.6,1-1.5,0.8-2.3c-10.8-61.7-0.4-92.5,10.3-107.4c10.3-14.5,22.5-16.7,22.8-16.7
			c1.2-0.2,2.1-1.2,2.1-2.5l0.1-10.1C207.8,58.4,207,57.4,205.8,57.2z M169.4,199.2C169.4,199.2,169.4,199.2,169.4,199.2
			C169.4,199.2,169.4,199.2,169.4,199.2z M202.8,67.8c-4.4,1.2-14.7,5.4-23.8,18c-11.1,15.5-22.1,46.9-11.7,108.8
			c-0.6,0.1-1.2,0.3-2,0.5c-6.9,1.8-21,5.6-33.6-1.8c0-1.2,0-3-0.1-5.7c-0.6-19.4-2.5-78.5,35.8-113.8
			c18.6-17.6,29.8-14.1,35.2-12.4c0.1,0,0.1,0,0.2,0.1L202.8,67.8z M205.2,69.7L205.2,69.7L205.2,69.7z"/>
		<path class="head-st0" d="M165.7,72c-47.8,44-34.4,123.3-36.8,122.5c18,11.9,38.8,1.5,41.3,2.3c-20.8-118.5,35.1-127,35.1-127l0.1-10.1
			C200.9,58.7,188,50.8,165.7,72z"/>
		<path class="head-st4" d="M152.7,146.2c-0.9,25.4,0.2,43.3,1.5,53.8c6.3-0.1,13.2-2.8,15.9-3.2l-0.6-3.8
			C150.7,78.1,205.2,69.7,205.2,69.7l0.1-10.1c0,0-0.3,0-0.8,0C185.9,67,154,88.3,152.7,146.2z"/>
		<path class="head-st5" d="M148.8,185c0.3,5.7,1.9,10.2,1.9,10.2l-18.5,1.5c0,0,7.4,5.3,22,3.3c0,0-12.5-67.6,13.6-112.8
			C167.8,87.1,141.8,118.3,148.8,185z"/>
		<path class="head-st2" d="M134.2,179.7l9.1,0.9c-3.8,0.1-0.8-20.3,2.6-40.1c4.1-56.7,44.9-78.8,44.9-78.8
			C130.8,73.1,134.2,179.7,134.2,179.7z"/>
	</g>
</g>
</svg>
