<?xml version="1.0" encoding="utf-8"?>
<!-- Generator: Adobe Illustrator 26.0.3, SVG Export Plug-In . SVG Version: 6.00 Build 0)  -->
<svg version="1.1" id="Layer_1" xmlns="http://www.w3.org/2000/svg" xmlns:xlink="http://www.w3.org/1999/xlink" x="0px" y="0px"
	 viewBox="0 0 384 400" style="enable-background:new 0 0 384 400;" xml:space="preserve">
<style type="text/css">
	.head-st0{fill:#E8930F;}
	.head-st1{fill:#FFBA39;}
	.head-st2{opacity:0.16;}
	.head-st3{fill:#0CBF9C;}
	.head-st4{fill:#0FE8BD;}
	.head-st5{fill:#68FFE1;}
	.head-st6{opacity:0.5;fill:#68FFE1;}
	.head-st7{opacity:0.5;fill:#ADFFEF;}
	.head-st8{fill:#FFDB39;}
</style>
<g>
	<g>
		<path class="head-st0" d="M213.5,86.2l-4.3-1L188.7,113c-4.1,6.5-23.2,5.1-25.3-2.3l-10.5-26.4c0,0-7-1-8.5-1
			c-0.9,0-6.6,12.1-12.8,27.2c-2.6,6.3-14.5,6.2-18.7,0.8L87,89.3l-5.2-1.7l10.5,64.5l0.5,10.7l45.7,27.2l73.8-26.7l46.4,2.9
			l-32.9-27.6L213.5,86.2z"/>
		<path d="M215.6,84.1l-7.5-1.6l-21.4,29.1l-0.1,0.1c-1.5,2.3-7,3.6-12.5,2.8c-4.4-0.6-7.8-2.4-8.3-4.4l-11.1-28l-1.4-0.2
			c-1.2-0.2-7.3-1-8.8-1c-1.7,0-3.3,0-15.1,28.8c-1,2.3-3.9,3-5.1,3.1c-3.7,0.5-7.6-0.7-9.3-2.9l-0.2-0.2L88.2,87.1L78.7,84
			l11.1,68.4l0.5,11.9l47.9,28.4l74.5-26.9l53.5,3.3l-38.1-32L215.6,84.1z M211.9,160.8l-73.2,26.5l-43.5-25.9l-0.4-9.5l-9.9-60.6
			l0.8,0.3l25.4,21.6c3.3,4,9.3,5.2,13.8,4.6c4.4-0.6,7.7-2.9,9.1-6.2c5.8-14.2,10-23,11.6-25.6c1.4,0.1,3.6,0.4,5.6,0.7l9.9,24.9
			c1.2,4,5.8,6.9,12.4,7.9c6.5,0.9,14.3-0.2,17.4-5L210.2,88l1.2,0.3l12.2,51.6l27.7,23.3L211.9,160.8z"/>
	</g>
	<path class="head-st0" d="M213.5,86.2l-4.3-1L188.7,113c-4.1,6.5-23.2,5.1-25.3-2.3l-10.5-26.4c0,0-7-1-8.5-1c-0.9,0-6.6,12.1-12.8,27.2
		c-2.6,6.3-14.5,6.2-18.7,0.8L87,89.3l-5.2-1.7l10.5,64.5l0.5,10.7l45.7,27.2l73.8-26.7l46.4,2.9l-32.9-27.6L213.5,86.2z"/>
	<path class="head-st0" d="M213.5,86.2l-4.3-1L188.7,113c-4.1,6.5-23.2,5.1-25.3-2.3l-10.5-26.4c0,0-7-1-8.5-1c-0.9,0-6.6,12.1-12.8,27.2
		c-2.6,6.3-14.5,6.2-18.7,0.8L87,89.3l-5.2-1.7l10.5,64.5l0.5,10.7l45.7,27.2l73.8-26.7l46.4,2.9l-32.9-27.6L213.5,86.2z"/>
	<path class="head-st1" d="M96.3,109c-2.9,5.8-5.6,11.6-8.2,17.5l1.3,8.2c6.4-9.1,12.3-18.6,17.7-28.3l-6.6-5.6
		C99.1,103.6,97.7,106.3,96.3,109z"/>
	<path class="head-st1" d="M151.9,130c-11.4,3.5-22.7,7.5-33.7,12c-2.4,1-4.8,2-7.2,3c-6.3,3-12.5,6.2-18.6,9.7l0.1,2.8
		c1.8-0.1,3.6-0.2,5.3-0.3c23.2-1.7,45.9-7.6,68.6-12.4c21.3-4.5,35.6-8.4,56.9-12.9l-7.5-20.2C192,116.9,175.2,122.8,151.9,130z"/>
	<path class="head-st1" d="M163.4,110.7l-3.7-9.3c-9.4,5.5-18.8,11-28.2,16.6c-8.4,5-16.8,9.8-25.1,14.9c-4.1,2.5-8.1,5-12.1,7.5
		c-1.2,0.8-2.4,1.5-3.5,2.3l1,5.9c0.2-0.1,0.5-0.3,0.7-0.4c6-3.1,12.2-5.9,18.4-8.6c7.7-3.7,15.6-7.1,23.4-10.5
		c10.9-4.7,21.9-9.5,32.8-14.3C165.2,113.7,163.9,112.3,163.4,110.7z"/>
	<path class="head-st2" d="M144.4,83.3c-0.5,0-2.5,3.7-5.2,9.7c1.5-0.1,3-0.1,4.5-0.1c3.1,0,6.2-0.1,9.3-0.3c1.1-0.1,2.1-0.2,3.1-0.3
		l-3.2-8C152.9,84.3,145.9,83.3,144.4,83.3z"/>
	<path class="head-st2" d="M209.2,85.2l-7.7,10.5c1.5,1.3,3.1,2.5,4.9,3.5c2,1.1,3.6,1.7,5.7,2.4c1.3,0.4,2.6,0.7,3.9,1
		c0.4-2.3,0.7-4.6,1.1-6.9l-3.5-9.4L209.2,85.2z"/>
	<path class="head-st2" d="M81.8,87.6l2.5,15.4c1.1-0.3,2.2-0.6,3.2-0.9c3.2-1.1,6.1-2.9,8.7-4.9L87,89.3L81.8,87.6z"/>
	<path class="head-st2" d="M195.5,138.9c0.9,0,1.8,0,2.7,0c0,0,0.1,0,0.1,0C199.8,138.7,194.1,138.8,195.5,138.9z"/>
	<path class="head-st2" d="M215.9,93.9c-0.5,3.2-3.5,17.7-4.1,20.8c-0.7,3.3-1.7,6.5-2.3,9.8c-0.4,2.4-0.8,4.7-1.6,7
		c-0.9,2.4-2.2,4.8-4.5,6.1c-1.6,0.9-3.4,1.2-5.2,1.2c-1.1,0.1-2.6,0.7-3.7,1.1c-3.2,1.2-6.3,2.9-9.4,4.5c-6.4,3.3-12.6,6.7-19,10
		c-3.2,1.6-6.4,3.2-9.6,4.6c-3.3,1.5-6.6,3-10,4c-6.5,1.9-13.1,0.2-19.2-2.4c-3.3-1.4-6.5-2.8-9.8-3.9c-3.5-1.2-7.1-2.4-10.7-3.6
		c-5-1.6-10.1-3.2-15.2-4.5l0.6,3.5l0.5,10.7l45.7,27.2l73.8-26.7l46.4,2.9l-32.9-27.6L215.9,93.9z"/>
	<g>
		<path d="M212.4,152.8l-0.7-0.1l-0.6,0.3c-22.3,9.2-59.1,24-62.7,24.4c-4.3-0.1-34.9-16.7-46.4-22.9c-6.9-3.8-8.4-4.5-9-4.7
			c-0.8-0.3-1.7-0.2-2.4,0.3c-0.9,0.6-2.7,1.7-4.4,16.7l-0.2,1.6l1.4,0.8c9,5.1,54.3,30.5,62.9,30.5c4.2,0,14-4.7,29.5-12.5
			c13.5-6.7,30.3-15.1,35.8-15.1c10.9,0,55.7,14.1,56.1,14.3l3.1,1l0.1-3.3c0.2-6.3,0.1-17.2-3.3-20
			C268.6,161.7,233.2,156,212.4,152.8z M215.6,167.2c-6.2,0-19.1,6.2-38,15.6c-11.2,5.6-24,11.9-27.2,11.9c-5.5,0-38.5-17.4-59-29
			c0.5-3.9,1.2-8.1,1.8-10.3c1.6,0.8,4,2.1,6.4,3.5c33.2,18,45.6,23.9,49.2,23.5c5.4-0.6,52.4-19.9,63.5-24.5
			c25,3.8,52.7,8.6,56.2,10.2c0.9,1.3,1.5,6.7,1.5,12.6C259.4,177.4,225.6,167.2,215.6,167.2z"/>
		<path class="head-st0" d="M270.1,166.1c-3-2.4-58.1-10.8-58.1-10.8s-58.1,24-63.5,24.5c-5.4,0.6-54.5-27.1-56.3-27.7
			c-1.8-0.6-3.6,15-3.6,15s53.3,30.1,61.7,30.1s53.9-27.5,65.3-27.5s56.9,14.4,56.9,14.4S273.1,168.5,270.1,166.1z"/>
		<path class="head-st1" d="M88.7,167.1c0,0,9.3,5.4,20.7,11.7c1-5.1,2.2-10.2,3.5-15.3c-10.7-5.9-19.9-11.2-20.6-11.4
			C90.5,151.5,88.7,167.1,88.7,167.1z"/>
		<path class="head-st1" d="M185.5,166.1c2,4.1,3.8,8.2,5.4,12.5c0.1,0.1,0.1,0.3,0.2,0.4c8.4-4.1,16.2-7.5,21.3-8.8
			c-1.4-4.4-2.9-8.8-4.6-13.1C202.9,159,194.5,162.5,185.5,166.1z"/>
		<path class="head-st1" d="M180.9,167.9c-3.6,1.4-7.2,2.8-10.6,4.2c0.3,0.8,0.7,1.5,1,2.3c1.8,3.9,3.7,7.7,5.5,11.6
			c3.2-1.6,6.5-3.2,9.8-4.9c-0.4-1.1-0.8-2.2-1.3-3.3C184,174.5,182.5,171.2,180.9,167.9z"/>
		<path class="head-st2" d="M270.1,166.1c-2.8-2.3-52.7-10-57.7-10.7c1.3,3.5,2.6,7,3.8,10.5c0.4,1.3,0.8,2.6,1.2,3.9
			c13.7,1.2,55.1,14.3,55.1,14.3S273.1,168.5,270.1,166.1z"/>
	</g>
	<g>
		<path d="M151.6,118.5l-0.7-0.9l-1.1,0c-9.7-0.1-10.3,1-10.8,2.2l-12.5,24.5l1.1,1.3c2,2.4,12.3,14.1,18.1,15.4
			c0.3,0.1,0.7,0.1,1.1,0.1c3.2,0,7.5-2.8,12.9-8.4c3.4-3.5,9-10,8.1-13.3C166.8,136.3,156.1,123.8,151.6,118.5z M146.7,156.2
			c-2.8-0.6-9.6-7.3-14.3-12.6l10.5-20.7c1.1-0.2,3.5-0.3,5.6-0.3c6.2,7.2,13,15.6,14.1,17.8C161.5,144.2,149.8,156.5,146.7,156.2z"
			/>
		<path class="head-st3" d="M149.7,120.1c0,0-8.1-0.1-8.6,0.8l-11.7,23c0,0,11.5,13.4,16.7,14.6c5.2,1.2,19.9-15.7,19.1-18.6
			C164.4,137.2,149.7,120.1,149.7,120.1z"/>
		<path class="head-st4" d="M149.3,121c0,0-7.5,0-7.9,0.8l-10.9,21c0,0,10.6,12.2,15.5,13.3c4.8,1.1,18.4-14.3,17.7-16.9
			C162.9,136.5,149.3,121,149.3,121z"/>
		<path class="head-st5" d="M148.3,124.6c0,0-4.8-0.2-5.1,0.5l-6.6,17.5c0,0,7.1,10.5,10.2,11.5c3.1,1,11.5-11.8,11-14
			S148.3,124.6,148.3,124.6z"/>
		<path class="head-st6" d="M147.7,123.5c0,0-4.8-0.2-5.1,0.5l-6.6,17.5c0,0,7.1,10.5,10.2,11.5c3.1,1,11.5-11.8,11-14
			C156.8,136.8,147.7,123.5,147.7,123.5z"/>
		<path class="head-st7" d="M146.8,128c0,0-3-0.2-3.1,0.3l-3.8,13.1c0,0,4.5,8.1,6.5,8.9s7-8.7,6.7-10.4C152.6,138.2,146.8,128,146.8,128
			z"/>
	</g>
	<g>
		<path d="M77.4,69.2c-4,1.2-7.3,3.9-9.3,7.7s-2.4,8-1.2,12s3.9,7.3,7.7,9.3c2.3,1.2,4.9,1.9,7.4,1.9c1.5,0,3.1-0.2,4.6-0.7
			c4-1.2,7.3-3.9,9.3-7.7c2-3.7,2.4-8,1.2-12C94.6,71.4,85.8,66.7,77.4,69.2z M91.5,89.4c-1.4,2.5-3.6,4.4-6.4,5.2
			c-2.8,0.8-5.7,0.5-8.2-0.8c-2.5-1.4-4.4-3.6-5.2-6.4c-0.8-2.8-0.5-5.7,0.8-8.2s3.6-4.4,6.4-5.2c1-0.3,2.1-0.5,3.1-0.5
			c4.6,0,8.9,3,10.3,7.7C93.2,84,92.9,86.9,91.5,89.4z"/>
		<path class="head-st0" d="M78.2,71.6c-7,2.1-11,9.5-8.9,16.6c2.1,7,9.5,11,16.6,8.9c7-2.1,11-9.5,8.9-16.6
			C92.6,73.5,85.2,69.5,78.2,71.6z"/>
		
			<ellipse transform="matrix(7.842189e-02 -0.9969 0.9969 7.842189e-02 -9.3824 157.4463)" class="head-st1" cx="80.5" cy="83.8" rx="11.3" ry="11.3"/>
		<path class="head-st8" d="M76.9,73.9c-4.5,1.4-7,6.1-5.7,10.5c1.3,4.4,6.1,6.9,10.5,5.6c4.5-1.4,7-6.1,5.7-10.5
			C86.1,75.1,81.4,72.6,76.9,73.9z"/>
	</g>
	<g>
		<path d="M155.6,60.9c-3.7-2-8-2.4-12-1.2c-4,1.2-7.3,3.9-9.3,7.7s-2.4,8-1.2,12c1.2,4,3.9,7.3,7.7,9.3c2.3,1.2,4.9,1.9,7.4,1.9
			c1.5,0,3.1-0.2,4.6-0.7c4-1.2,7.3-3.9,9.3-7.7s2.4-8,1.2-12S159.3,62.9,155.6,60.9z M157.6,79.9c-1.4,2.5-3.6,4.4-6.4,5.2
			c-2.8,0.8-5.7,0.5-8.2-0.8c-2.5-1.4-4.4-3.6-5.2-6.4c-0.8-2.8-0.5-5.7,0.8-8.2c1.4-2.5,3.6-4.4,6.4-5.2c1-0.3,2.1-0.5,3.1-0.5
			c1.7,0,3.5,0.4,5.1,1.3c2.5,1.4,4.4,3.6,5.2,6.4C159.3,74.4,159,77.3,157.6,79.9z"/>
		<path class="head-st0" d="M144.3,62.1c-7,2.1-11,9.5-8.9,16.6c2.1,7,9.5,11,16.6,8.9c7-2.1,11-9.5,8.9-16.6
			C158.7,63.9,151.3,60,144.3,62.1z"/>
		<path class="head-st1" d="M143.3,63.5c-6,1.8-9.3,8.1-7.5,14s8.1,9.3,14,7.5c6-1.8,9.3-8.1,7.5-14C155.6,65,149.3,61.7,143.3,63.5z"/>
		<path class="head-st8" d="M143,64.4c-4.5,1.4-7,6.1-5.7,10.5c1.3,4.4,6.1,6.9,10.5,5.6c4.5-1.4,7-6.1,5.7-10.5
			C152.2,65.5,147.5,63,143,64.4z"/>
	</g>
	<g>
		<path d="M224,68.1c-3.7-2-8-2.4-12-1.2c-8.3,2.5-13,11.4-10.5,19.7c2.1,6.8,8.3,11.2,15.1,11.2c1.5,0,3-0.2,4.6-0.7
			c4-1.2,7.3-3.9,9.3-7.7s2.4-8,1.2-12S227.8,70.1,224,68.1z M226.1,87.1c-1.4,2.5-3.6,4.4-6.4,5.2c-5.7,1.7-11.7-1.5-13.4-7.2
			c-1.7-5.7,1.5-11.7,7.2-13.4c1-0.3,2.1-0.5,3.1-0.5c1.7,0,3.5,0.4,5.1,1.3c2.5,1.4,4.4,3.6,5.2,6.4
			C227.8,81.7,227.5,84.6,226.1,87.1z"/>
		<path class="head-st0" d="M212.8,69.3c-7,2.1-11,9.5-8.9,16.6c2.1,7,9.5,11,16.6,8.9c7-2.1,11-9.5,8.9-16.6
			C227.2,71.2,219.8,67.2,212.8,69.3z"/>
		<path class="head-st1" d="M211.8,70.7c-6,1.8-9.3,8.1-7.5,14c1.8,6,8.1,9.3,14,7.5c6-1.8,9.3-8.1,7.5-14
			C224,72.3,217.7,68.9,211.8,70.7z"/>
		<path class="head-st8" d="M211.5,71.6c-4.5,1.4-7,6.1-5.7,10.5s6.1,6.9,10.5,5.6c4.5-1.4,7-6.1,5.7-10.5
			C220.7,72.8,215.9,70.3,211.5,71.6z"/>
	</g>
</g>
</svg>
