<?xml version="1.0" encoding="utf-8"?>
<!-- Generator: Adobe Illustrator 26.0.3, SVG Export Plug-In . SVG Version: 6.00 Build 0)  -->
<svg version="1.1" id="Layer_1" xmlns="http://www.w3.org/2000/svg" xmlns:xlink="http://www.w3.org/1999/xlink" x="0px" y="0px"
	 viewBox="0 0 384 400" style="enable-background:new 0 0 384 400;" xml:space="preserve">
<style type="text/css">
	.head-st0{fill:#FFFFFF;}
	.head-st1{opacity:0.16;fill:#606060;}
</style>
<g>
	<g>
		<path d="M131,115.4l-1.2-0.7c-0.4-0.2-38-20.4-36.8-44c1.4-3.3,0-5.2-0.7-5.9c-2-2-5.7-2.1-10-0.1c-9.8,4.5-20.5,18.2-18.4,42
			c3.6,40.9,31.9,45.8,32.2,45.8l0.3,0l0.3,0c0.7,0,17-1.1,27-12.3c5.5-6.1,7.9-14,7.4-23.5L131,115.4z M96.7,147.6
			c-2.8-0.6-24.7-6.1-27.7-41.3c-2.1-24,9.7-33.5,13.3-35.9c2.7-1.7,4.8-2.2,5.8-2.2c0.2,0,0.3,0,0.5,0c0,0.2-0.1,0.4-0.3,0.7
			l-0.2,0.4l0,0.5c-1.8,24.6,31.1,44.5,38.1,48.5C126.8,144.5,100,147.4,96.7,147.6z"/>
		<path class="head-st0" d="M90.5,70.2c5.2-10.6-27.5-3-24.1,36.4s30.1,43.6,30.1,43.6s33.9-1.9,32.1-33.1C128.6,117,88.7,95.9,90.5,70.2
			z"/>
		<path class="head-st1" d="M98.5,88.4c0,0.8-0.1,1.6-0.1,2.4c0.1,17.3-26.5,17.3-26.6,0c0-3.3,0.1-6.4,0.4-9.5c-2.8,5.8-4.6,13.4-4.3,23
			c0.9,39.5,27.2,45.5,27.2,45.5s33.9,0.4,34.2-30.9C129.3,118.9,107.9,105.7,98.5,88.4z"/>
	</g>
	<g>
		<path d="M251,60.6c-4.9-2.2-9.1-2.1-11.2,0.2c-0.7,0.8-2.2,2.9-0.6,6.4c1.7,27.4-42.1,51.1-42.6,51.4l-1.2,0.7l-0.1,1.4
			c-0.5,10.7,2.3,19.7,8.6,26.6c11.6,12.8,30.5,13.9,31.4,13.9l0.3,0l0.3,0c0.3-0.1,8.5-1.5,17.1-8.8c7.8-6.6,17.6-19.6,19.6-43.9
			C274.6,81.2,262.2,65.7,251,60.6z M267.4,108c-3.3,41-29.2,47.5-32.3,48.1c-2.3-0.2-18.1-1.7-27.6-12.2
			c-5.1-5.6-7.5-12.8-7.4-21.6c7.7-4.4,46.2-27.6,43.9-55.9l0-0.5l-0.2-0.4c-0.4-0.7-0.4-1.1-0.4-1.2c0.6-0.3,3-0.4,6.7,1.6
			C259.7,70.9,269.3,84.7,267.4,108z"/>
		<path class="head-st0" d="M241.6,66.6c2.4,29.6-43.9,54.2-43.9,54.2c-1.8,36,37.6,37.9,37.6,37.9s31-5.1,34.6-50.4
			C273.6,62.9,235.5,54.4,241.6,66.6z"/>
		<path class="head-st1" d="M262,73.5c-4.1,26.8-29.9,74.8-60,44.9c-2.6,1.6-4.2,2.4-4.2,2.4c-1.8,36,37.6,37.9,37.6,37.9
			s31-5.1,34.6-50.4c1.3-16-2.6-27.3-7.9-34.9C262,73.4,262,73.4,262,73.5z"/>
	</g>
</g>
</svg>
