<?xml version="1.0" encoding="utf-8"?>
<!-- Generator: Adobe Illustrator 26.0.3, SVG Export Plug-In . SVG Version: 6.00 Build 0)  -->
<svg version="1.1" id="Layer_1" xmlns="http://www.w3.org/2000/svg" xmlns:xlink="http://www.w3.org/1999/xlink" x="0px" y="0px"
	 viewBox="0 0 384 400" style="enable-background:new 0 0 384 400;" xml:space="preserve">
<style type="text/css">
	.arm-st0{fill:#9E9E9E;}
	.arm-st1{fill:#FFFFFF;}
	.arm-st2{fill:#00B1D8;}
</style>
<g>
	<path d="M244.2,300l-0.7-0.6h-0.9c-6.7,0-27.3,11.1-29.6,12.3l-2.1,1.1l5.8,12.3l30.4-12l0.1-1.6
		C247.3,309.5,247.3,302.5,244.2,300z M219.3,318.8l-1.8-3.8c7.8-4.1,19.2-9.5,24-10.5c0.4,1.1,0.7,3.1,0.8,5.2L219.3,318.8z"/>
	<path class="arm-st0" d="M214.2,313.9l3.8,8.1l26.7-10.6c0,0,0.3-7.6-2.1-9.5C236.4,301.9,214.2,313.9,214.2,313.9z"/>
	<path class="arm-st1" d="M241.3,303.9c-5.1,0-24.9,10.4-24.9,10.4l1.5,3l23.4-9.4C241.3,308,243.2,305.3,241.3,303.9z"/>
</g>
<g>
	<path d="M220.2,270.7c-5.1-4.3-9.9-5.5-13.3-3.4c-3.8,2.4-4.8,8.4-2.7,16.1c1.4,5.2,3.7,12.3,6.9,21.3l0.5,1.5l1.5-0.6
		c3-1.3,5.8-2.6,8.4-4l1.9-1c3.2-1.7,6.5-3.5,9.9-5h0c0.8-0.4,1.6-0.7,2.5-1.1l1.6-0.7l-0.8-1.5C232.5,285.4,226.4,276,220.2,270.7z
		 M232,292.9c-3.4,1.6-6.8,3.4-10,5.1l-1.9,1c-2.1,1.1-4.3,2.2-6.7,3.2c-2.9-8.2-5-14.8-6.3-19.6c-1.7-6.3-1.1-11.2,1.4-12.8
		c0.6-0.4,1.3-0.6,2.1-0.6c2.1,0,4.8,1.3,7.6,3.7c5.5,4.6,10.9,12.9,14.7,19.5C232.6,292.6,232.3,292.7,232,292.9z"/>
	<path class="arm-st2" d="M219.2,271.8c-10.3-8.7-17.3-2.6-13.6,11.2c1.6,6.1,4.3,14.1,6.8,21.2c2.8-1.2,5.5-2.5,8.3-3.9
		c3.9-2.1,7.8-4.2,11.9-6.1c0.8-0.4,1.7-0.7,2.5-1.1C230.6,285.2,224.9,276.6,219.2,271.8z"/>
	<g>
		<path d="M235.4,284.8c-0.5-0.4-1.5-1.4-6.3-0.5c-8.2,1.4-19.8,6.8-25.3,17.2c-0.5,1-0.3,2.3,0.6,3.1l4.4,3.8
			c0.5,0.4,1.1,0.6,1.6,0.6c0.3,0,0.6-0.1,0.9-0.2c27.9-10.6,27.9-13.9,27.9-15.5C239.1,288.9,236.8,286.1,235.4,284.8z
			 M210.9,303.6l-1.7-1.5c6.6-10.2,20-13.2,23.2-13.2c0,0,0.1,0,0.1,0c0.7,0.7,1.5,2,1.6,3.8C231.9,294.8,220.9,299.7,210.9,303.6z"
			/>
		<path class="arm-st2" d="M233.7,286.7c-1.3-1.2-20.2,1.8-27.8,15.9l4.4,3.8c0,0,26.3-9.9,26.3-13.2C236.6,290.1,235,287.9,233.7,286.7
			z"/>
		<path d="M227.2,292.3c0,0.2,0,0.3,0.1,0.5c3.9-1.3,9.8-3,9.8-3l-1.6-2.8C235.5,287,230.7,290.2,227.2,292.3z"/>
		<path d="M206.7,304.2l1.8,2.6c0,0,4.5-3.6,7.8-6c0-0.2-0.1-0.3-0.1-0.5C212.3,302,206.7,304.2,206.7,304.2z"/>
	</g>
</g>
</svg>
