<?xml version="1.0" encoding="utf-8"?>
<!-- Generator: Adobe Illustrator 26.0.3, SVG Export Plug-In . SVG Version: 6.00 Build 0)  -->
<svg version="1.1" id="Layer_1" xmlns="http://www.w3.org/2000/svg" xmlns:xlink="http://www.w3.org/1999/xlink" x="0px" y="0px"
	 viewBox="0 0 384 400" style="enable-background:new 0 0 384 400;" xml:space="preserve">
<style type="text/css">
	.arm-st0{fill:#E8930F;}
	.arm-st1{fill:#E8B80F;}
</style>
<g>
	<path d="M244.2,300l-0.7-0.6h-0.9c-6.7,0-27.3,11.1-29.6,12.3l-2.1,1.1l5.8,12.3l30.4-12l0.1-1.6
		C247.3,309.5,247.3,302.5,244.2,300z M219.3,318.8l-1.8-3.8c7.8-4.1,19.2-9.5,24-10.5c0.4,1.1,0.7,3.1,0.8,5.2L219.3,318.8z"/>
	<path class="arm-st0" d="M214.2,313.9l3.8,8.1l26.7-10.6c0,0,0.3-7.6-2.1-9.5C236.4,301.9,214.2,313.9,214.2,313.9z"/>
	<path class="arm-st1" d="M241.3,303.9c-5.1,0-24.9,10.4-24.9,10.4l1.5,3l23.4-9.4C241.3,308,243.2,305.3,241.3,303.9z"/>
</g>
</svg>
