<?xml version="1.0" encoding="utf-8"?>
<!-- Generator: Adobe Illustrator 26.0.3, SVG Export Plug-In . SVG Version: 6.00 Build 0)  -->
<svg version="1.1" id="Layer_1" xmlns="http://www.w3.org/2000/svg" xmlns:xlink="http://www.w3.org/1999/xlink" x="0px" y="0px"
	 viewBox="0 0 384 400" style="enable-background:new 0 0 384 400;" xml:space="preserve">
<style type="text/css">
	.arm-st0{fill:#E8930F;}
	.arm-st1{fill:#E8B80F;}
	.arm-st2{fill:#FFFFFF;}
</style>
<g>
	<g>
		<path d="M244.2,299.2l-0.7-0.6h-0.9c-7.2,0-29.1,11.8-31.6,13.2l-2.1,1.1l6.1,12.9l32.3-12.8l0.1-1.6
			C247.4,309.3,247.4,301.9,244.2,299.2z M217.5,319.5l-2.1-4.4c8.4-4.4,20.9-10.4,26-11.3c0.5,1.2,0.8,3.5,0.9,5.9L217.5,319.5z"/>
		<path class="arm-st0" d="M212.2,314l4.1,8.6l28.6-11.3c0,0,0.3-8.2-2.2-10.2C235.9,301.2,212.2,314,212.2,314z"/>
		<path class="arm-st1" d="M241.2,303.3c-5.4,0-26.7,11.1-26.7,11.1l1.6,3.3l25.1-10C241.2,307.7,243.2,304.8,241.2,303.3z"/>
	</g>
	<g>
		<g>
			<path d="M229.3,297.7c-6.9,0-12.6,5.6-12.6,12.6c0,6.9,5.6,12.6,12.6,12.6s12.6-5.6,12.6-12.6
				C241.8,303.4,236.2,297.7,229.3,297.7z M229.3,317.9c-4.2,0-7.6-3.4-7.6-7.6c0-4.2,3.4-7.6,7.6-7.6s7.6,3.4,7.6,7.6
				C236.8,314.5,233.4,317.9,229.3,317.9z"/>
			<path class="arm-st0" d="M229.3,300.2c-5.6,0-10.1,4.5-10.1,10.1s4.5,10.1,10.1,10.1c5.6,0,10.1-4.5,10.1-10.1
				S234.8,300.2,229.3,300.2z"/>
			<circle class="arm-st2" cx="229.3" cy="310.3" r="7.4"/>
		</g>
		<path d="M229.2,308.5c-0.9,0-1.7,0.8-1.7,1.7c0,0.9,0.8,1.7,1.7,1.7s1.7-0.8,1.7-1.7C230.9,309.3,230.1,308.5,229.2,308.5z"/>
		<polygon points="229.8,309.6 229.1,305.7 227.7,304.4 227.1,306.5 229.3,310.3 235.1,310.4 235.8,309.5 234.3,309.1 		"/>
	</g>
</g>
</svg>
