<?xml version="1.0" encoding="utf-8"?>
<!-- Generator: Adobe Illustrator 26.0.3, SVG Export Plug-In . SVG Version: 6.00 Build 0)  -->
<svg version="1.1" id="Layer_1" xmlns="http://www.w3.org/2000/svg" xmlns:xlink="http://www.w3.org/1999/xlink" x="0px" y="0px"
	 viewBox="0 0 384 400" style="enable-background:new 0 0 384 400;" xml:space="preserve">
<style type="text/css">
	.arm-st0{opacity:0.7;}
</style>
<g>
	<path class="arm-st0" d="M227.8,284.7c-5.6-3.5-6.1,3-6.1,3s-6.5-3.7-8.6,1.5c-2.1,5.3,12.6,9.9,12.6,9.9S233.3,288.3,227.8,284.7z"/>
	<path class="arm-st0" d="M233.6,300.9c2.9,4.7,6.7,0.1,6.7,0.1l-3.3-5.7C236.9,295.3,229.4,294,233.6,300.9z"/>
	<path class="arm-st0" d="M221.6,273.7l-0.1,3.6l3.9,0.4C225.3,277.8,223.6,274.3,221.6,273.7z"/>
	<path class="arm-st0" d="M216.9,301.4c-0.5-1.8-4.8,0.2-4.8,0.2s2.6,9.7,4,10.7s4.6-2.3,3.1-4.6S217.4,303.2,216.9,301.4z"/>
	<path class="arm-st0" d="M207.4,277.4c0,0-0.1,0.5-0.2,1.5c1.1,0.2,2.4,0.6,2.4,1.8c0,1.2-1.1,1.8-2,2c0.1,0.7,0.3,1.5,0.5,2.4
		c0,0,3.7,0,3.7-4.1S207.4,277.4,207.4,277.4z"/>
</g>
</svg>
