<?xml version="1.0" encoding="utf-8"?>
<!-- Generator: Adobe Illustrator 26.0.3, SVG Export Plug-In . SVG Version: 6.00 Build 0)  -->
<svg version="1.1" id="Layer_1" xmlns="http://www.w3.org/2000/svg" xmlns:xlink="http://www.w3.org/1999/xlink" x="0px" y="0px"
	 viewBox="0 0 384 400" style="enable-background:new 0 0 384 400;" xml:space="preserve">
<style type="text/css">
	.arm-st0{fill:#FFFFFF;}
	.arm-st1{fill:#1D1C20;}
	.arm-st2{fill:#49484D;}
	.arm-st3{opacity:0.2;fill:#FFFFFF;}
</style>
<g>
	<g>
		<path d="M245.2,310.2c-0.8-1.9-1.6-3.7-2.4-5.5c-1.7-3.6-3.5-7.1-5.5-10.5c-2-3.4-4-6.8-6.4-10c-2.3-3.2-4.8-6.4-7.7-9.1
			c-0.8-0.7-1.5-1.3-2.3-1.9c-0.8-0.6-1.6-1.2-2.5-1.7c-1.7-1-3.7-1.8-5.6-1.8c1.9,0.4,3.6,1.5,5.1,2.6c0.7,0.6,1.5,1.2,2.1,1.9
			c0.7,0.7,1.3,1.4,1.9,2.1l1.8,2.3l1.7,2.4l1.6,2.4l1.5,2.5c3.9,6.7,7.2,13.7,10.2,20.8c0.8,1.8,1.5,3.6,2.1,5.3
			c0.6,1.7,1.1,3.4,1.2,5c0.1,1.6-0.2,3-1,4c-0.4,0.5-0.8,1-1.4,1.4c-0.3,0.2-0.6,0.4-1,0.5c-0.1,0.1-0.4,0.2-0.6,0.2l-0.6,0.3
			c-1.7,0.7-3.6,1.3-5.4,1.9l-2.8,0.8l-1.4,0.4l-0.7,0.2l-0.6,0.1c-0.7,0.2-1.4,0.2-1.9,0.1c-0.5-0.1-1-0.3-1.5-0.7
			c-0.9-0.8-1.8-2.3-2.4-4l0.1,0.4c-0.1-0.2-0.1-0.5-0.2-0.6l-0.1-0.3l-0.3-0.7l-0.5-1.4l-1-2.7l-2-5.4l-3.9-10.9
			c-1.3-3.6-2.6-7.3-3.8-11c-1.2-3.7-2.6-7.3-2.9-11.2c-0.2,1.9-0.1,3.9,0.2,5.9c0.3,1.9,0.6,3.9,1,5.8c0.8,3.8,1.7,7.6,2.7,11.4
			c1,3.8,2,7.5,3.1,11.3l1.7,5.6l1.7,5.3l0.1,0.4c0.4,1,0.8,2,1.3,3c0.5,1,1.2,2,2.2,3c1,0.9,2.3,1.6,3.7,1.9
			c1.4,0.3,2.7,0.1,3.9-0.1l0.9-0.2l0.7-0.2l1.4-0.4c1-0.3,1.9-0.6,2.9-0.8c1.9-0.6,3.8-1.2,5.7-1.9l0.7-0.3
			c0.2-0.1,0.5-0.2,0.8-0.3c0.6-0.2,1.1-0.6,1.6-0.9c1.1-0.7,2-1.6,2.8-2.7c0.7-1.1,1.3-2.3,1.5-3.5c0.2-1.2,0.3-2.5,0.2-3.6
			C246.7,314.3,246,312.1,245.2,310.2z"/>
		<path class="arm-st0" d="M220.8,273.9c-10-9.1-17.2-3.2-13.9,10.7c3.2,13.9,11.7,38.1,11.7,38.3c1.5,4,3.7,7.6,9.2,6
			c0,0,6.9-1.9,11.5-3.8c4.6-1.9,6.5-6.5,3.9-13.5C240.6,304.6,230.9,283,220.8,273.9z"/>
		<path class="arm-st1" d="M220.8,273.9c-10-9.1-17.2-3.2-13.9,10.7c2.7,11.8,9.2,30.9,11.2,36.7c1.6-0.5,3.2-1,4.7-1.5
			c6.9-2.4,13.8-5,20.5-7.9c0-0.1-0.1-0.2-0.1-0.3C240.6,304.6,230.9,283,220.8,273.9z"/>
		<path class="arm-st2" d="M212.2,272.8c-0.8-1.3-0.3-2.6,0.7-3.2c-2.6-0.3-4.5,0.9-5.7,3.2c1.6,4.6,3.7,9.1,5.9,13.5
			c4.3,8.5,9,16.7,13,25.3c0.9,2,1.8,4,2.7,6c2.5-0.9,5-1.9,7.5-2.8c-1.5-3.3-3-6.6-4.7-9.8C225.8,293.9,218.9,283.4,212.2,272.8z"
			/>
		<path class="arm-st2" d="M220.8,273.9c-1.4-1.2-2.7-2.2-3.9-2.9c3.7,5.8,7.4,11.5,10.9,17.3c3.2,5.3,6.3,10.7,9.2,16.3
			c1.4,2.7,2.6,5.5,3.9,8.3c0.8-0.3,1.6-0.7,2.5-1c0-0.1-0.1-0.2-0.1-0.3C240.6,304.6,230.9,283,220.8,273.9z"/>
		<path class="arm-st2" d="M207.1,285.3c2.8,11.8,9.1,30.4,11,36c1.6-0.5,3.2-1,4.7-1.5c0.4-0.1,0.8-0.3,1.3-0.5
			c-3.1-7-6.5-13.8-10.1-20.5C211.6,294.4,209.2,289.9,207.1,285.3z"/>
		<g>
			<path d="M218.2,321.7c0-0.1,0-0.1-0.1-0.2C218.2,321.6,218.2,321.6,218.2,321.7z"/>
			<path d="M218,321.1c0-0.1-0.1-0.2-0.1-0.3C218,321,218,321.1,218,321.1z"/>
			<path d="M217.8,320.5c-0.2-0.5-0.4-1-0.6-1.7C217.5,319.5,217.6,320,217.8,320.5z"/>
			<path d="M236.3,326.3c1.1-0.4,2.1-0.8,3-1.1c0.2-0.1,0.3-0.1,0.4-0.2c-0.1,0.1-0.3,0.1-0.4,0.2
				C238.4,325.5,237.4,325.9,236.3,326.3z"/>
			<path d="M240.9,324.4c-0.2,0.1-0.4,0.3-0.7,0.4C240.4,324.6,240.7,324.5,240.9,324.4z"/>
		</g>
		<path class="arm-st3" d="M220.8,273.9c-6.3-5.7-11.4-5.5-13.6-1.1c1.9,0.6,3.9,1.8,6.2,3.9c10,9.1,19.8,30.7,22.4,37.7
			c2.4,6.5,1,10.9-2.9,13c2.1-0.7,4.5-1.5,6.5-2.3c4.6-1.9,6.5-6.5,3.9-13.5C240.6,304.6,230.9,283,220.8,273.9z"/>
	</g>
	<g>
		<g>
			<path d="M236.5,292.5c-1.9-3.5-3.9-6.9-6.2-10.1c-2.2-3.3-4.7-6.4-7.6-9.2c-0.8-0.7-1.5-1.4-2.3-2c-0.8-0.6-1.6-1.2-2.5-1.7
				c-1.7-1-3.6-1.8-5.6-1.9c1.9,0.4,3.6,1.5,5,2.7c0.7,0.6,1.4,1.3,2.1,2c0.6,0.7,1.3,1.4,1.9,2.2l1.7,2.3l1.6,2.4l1.5,2.4l1.5,2.5
				c3.8,6.7,7,13.8,9.8,20.9c0.6,1.5,1.2,3,1.7,4.4c1.7-0.3,3.2-0.7,4.7-1c-0.7-1.8-1.4-3.5-2.2-5.3
				C240.1,299.5,238.4,295.9,236.5,292.5z"/>
			<path d="M211.8,298.3c-1.2-3.7-2.5-7.3-3.6-11c-1.1-3.7-2.5-7.3-2.7-11.2c-0.2,1.9-0.2,3.9,0.1,5.9c0.3,1.9,0.6,3.9,0.9,5.8
				c0.7,3.8,1.5,7.6,2.5,11.4c0.9,3.8,1.9,7.6,2.9,11.3l1.3,4.6c1.2-0.3,2.6-0.6,4.1-0.9l-1.7-4.8L211.8,298.3z"/>
			<path class="arm-st3" d="M220.2,271.9c-6.2-5.8-11.4-5.7-13.6-1.3c1.9,0.6,3.9,1.9,6.1,4c9,8.4,17.6,27.3,21,35.9
				c2.7-0.6,5.4-1.1,7.9-1.6C238.6,300.8,229.6,280.7,220.2,271.9z"/>
		</g>
	</g>
</g>
</svg>
