<?xml version="1.0" encoding="utf-8"?>
<!-- Generator: Adobe Illustrator 26.0.3, SVG Export Plug-In . SVG Version: 6.00 Build 0)  -->
<svg version="1.1" id="Layer_1" xmlns="http://www.w3.org/2000/svg" xmlns:xlink="http://www.w3.org/1999/xlink" x="0px" y="0px"
	 viewBox="0 0 384 400" style="enable-background:new 0 0 384 400;" xml:space="preserve">
<style type="text/css">
	.arm-st0{opacity:0.7;}
</style>
<g>
	<g>
		<path class="arm-st0" d="M227,284.8c-2.1,2.4,8.9,5,8.9,5S229.1,282.4,227,284.8z"/>
		<path class="arm-st0" d="M233,294.8c-2.1,2.4,7.1,2.9,7.1,2.9S235.1,292.4,233,294.8z"/>
		<path class="arm-st0" d="M223,277.8c-2.1,2.4,9.1,1.9,9.1,1.9S225.1,275.4,223,277.8z"/>
		<path class="arm-st0" d="M215,277.8c-2.1,2.4,8.9,5,8.9,5S217.1,275.4,215,277.8z"/>
		<path class="arm-st0" d="M225,295.8c-2.1,2.4,8.9,5,8.9,5S227.1,293.4,225,295.8z"/>
		<path class="arm-st0" d="M222,286.8c-2.1,2.4,6.1,3.9,6.1,3.9S224.1,284.4,222,286.8z"/>
		<path class="arm-st0" d="M214,283.9c-3.1,0.9,4.8,9,4.8,9S217.1,283,214,283.9z"/>
		<path class="arm-st0" d="M219,296.9c-3.1,0.9,4.8,9,4.8,9S222.1,296,219,296.9z"/>
	</g>
</g>
</svg>
