<?xml version="1.0" encoding="utf-8"?>
<!-- Generator: Adobe Illustrator 26.0.3, SVG Export Plug-In . SVG Version: 6.00 Build 0)  -->
<svg version="1.1" id="Layer_1" xmlns="http://www.w3.org/2000/svg" xmlns:xlink="http://www.w3.org/1999/xlink" x="0px" y="0px"
	 viewBox="0 0 384 400" style="enable-background:new 0 0 384 400;" xml:space="preserve">
<style type="text/css">
	.arm-st0{fill:#00B1D8;}
	.arm-st1{opacity:0.2;fill:#FFFFFF;}
</style>
<g>
	<g>
		<path d="M238.4,292.2c-1.9-3.5-3.9-6.9-6.2-10.1c-2.2-3.3-4.7-6.4-7.6-9.2c-0.8-0.7-1.5-1.4-2.3-2c-0.8-0.6-1.6-1.2-2.5-1.7
			c-1.7-1-3.6-1.8-5.6-1.9c1.9,0.4,3.6,1.5,5,2.7c0.7,0.6,1.4,1.3,2.1,2c0.6,0.7,1.3,1.4,1.9,2.2l1.7,2.3l1.6,2.4l1.5,2.4l1.5,2.5
			c3.8,6.7,7,13.8,9.8,20.9c0.6,1.5,1.2,3,1.7,4.4c1.7-0.3,3.2-0.7,4.7-1c-0.7-1.8-1.4-3.5-2.2-5.3
			C242.1,299.2,240.3,295.6,238.4,292.2z"/>
		<path d="M213.7,298c-1.2-3.7-2.5-7.3-3.6-11c-1.1-3.7-2.5-7.3-2.7-11.2c-0.2,1.9-0.2,3.9,0.1,5.9c0.3,1.9,0.6,3.9,0.9,5.8
			c0.7,3.8,1.5,7.6,2.5,11.4c0.9,3.8,1.9,7.6,2.9,11.3l1.3,4.6c1.2-0.3,2.6-0.6,4.1-0.9l-1.7-4.8L213.7,298z"/>
		<path class="arm-st0" d="M222.2,271.6c-9.9-9.2-17.1-3.4-14.1,10.5c2,9.4,6.3,23.5,9,31.8c8.7-2.1,17.4-4.3,26.2-6.2
			C239.9,299.1,231.3,280.1,222.2,271.6z"/>
		<path d="M244.8,306.3l-1.6,0.3c-8.5,1.5-17,3.4-25.2,5.4l-3.5,0.8l0.6,2c7.7-1.8,21.1-4.8,30.3-6.6c0-0.1-0.1-0.2-0.1-0.3
			L244.8,306.3z"/>
		<path class="arm-st1" d="M222.2,271.6c-6.2-5.8-11.4-5.7-13.6-1.3c1.9,0.6,3.9,1.9,6.1,4c9,8.4,17.6,27.3,21,35.9
			c2.7-0.6,5.4-1.1,7.9-1.6C240.5,300.5,231.6,280.4,222.2,271.6z"/>
	</g>
</g>
</svg>
