<?xml version="1.0" encoding="utf-8"?>
<!-- Generator: Adobe Illustrator 26.0.3, SVG Export Plug-In . SVG Version: 6.00 Build 0)  -->
<svg version="1.1" id="Layer_1" xmlns="http://www.w3.org/2000/svg" xmlns:xlink="http://www.w3.org/1999/xlink" x="0px" y="0px"
	 viewBox="0 0 384 400" style="enable-background:new 0 0 384 400;" xml:space="preserve">
<style type="text/css">
	.arm-st0{fill:#00B1D8;}
	.arm-st1{opacity:0.4;fill:#FFFFFF;}
	.arm-st2{opacity:0.2;fill:#FFFFFF;}
</style>
<g>
	<g>
		<path d="M236.5,292.2c-1.9-3.5-3.9-6.9-6.2-10.1c-2.2-3.3-4.7-6.4-7.6-9.2c-0.8-0.7-1.5-1.4-2.3-2c-0.8-0.6-1.6-1.2-2.5-1.7
			c-1.7-1-3.6-1.8-5.6-1.9c1.9,0.4,3.6,1.5,5,2.7c0.7,0.6,1.4,1.3,2.1,2c0.6,0.7,1.3,1.4,1.9,2.2l1.7,2.3l1.6,2.4l1.5,2.4l1.5,2.5
			c3.8,6.7,7,13.8,9.8,20.9c0.6,1.5,1.2,3,1.7,4.4c1.7-0.3,3.2-0.7,4.7-1c-0.7-1.8-1.4-3.5-2.2-5.3
			C240.2,299.2,238.4,295.6,236.5,292.2z"/>
		<path d="M211.8,298c-1.2-3.7-2.5-7.3-3.6-11c-1.1-3.7-2.5-7.3-2.7-11.2c-0.2,1.9-0.2,3.9,0.1,5.9c0.3,1.9,0.6,3.9,0.9,5.8
			c0.7,3.8,1.5,7.6,2.5,11.4c0.9,3.8,1.9,7.6,2.9,11.3l1.3,4.6c1.2-0.3,2.6-0.6,4.1-0.9l-1.7-4.8L211.8,298z"/>
		<path class="arm-st0" d="M220.3,271.6c-9.9-9.2-17.1-3.4-14.1,10.5c2,9.4,6.3,23.5,9,31.8c8.7-2.1,17.4-4.3,26.2-6.2
			C238,299.1,229.4,280.1,220.3,271.6z"/>
		<path class="arm-st1" d="M220.3,271.6c-2.5-2.3-4.8-3.7-6.8-4.2c5.1,7.2,9.9,14.7,14,22.5c2.2,4.3,4.5,8.6,6.4,13
			c0.9,1.9,1.6,3.9,2.3,5.9c1.7-0.4,3.5-0.8,5.2-1.2C238,299.1,229.4,280.1,220.3,271.6z"/>
		<path class="arm-st1" d="M215.3,280.1c-2.3-3.9-5.1-7.5-7.7-11.2c-0.9,1-1.5,2.4-1.9,4.2c0.1,0.1,0.2,0.3,0.3,0.5
			c2.5,5.3,5.2,10.5,7.8,15.6c3.8,7.4,7.6,14.7,10.9,22.3c1.5-0.4,2.9-0.7,4.4-1.1c-2-5-4.2-10-6.3-14.9
			C220.6,290.3,218.2,285.1,215.3,280.1z"/>
		<path class="arm-st1" d="M207.4,287.4c2.2,8.9,5.6,19.7,7.7,26.5c1.6-0.4,3.2-0.8,4.7-1.1c-1.4-3.2-2.9-6.4-4.4-9.5
			C212.8,297.9,210.1,292.6,207.4,287.4z"/>
		<path d="M242.9,306.3l-1.6,0.3c-8.5,1.5-17,3.4-25.2,5.4l-3.5,0.8l0.6,2c7.7-1.8,21.1-4.8,30.3-6.6c0-0.1-0.1-0.2-0.1-0.3
			L242.9,306.3z"/>
		<path class="arm-st2" d="M220.3,271.6c-6.2-5.8-11.4-5.7-13.6-1.3c1.9,0.6,3.9,1.9,6.1,4c9,8.4,17.6,27.3,21,35.9
			c2.7-0.6,5.4-1.1,7.9-1.6C238.6,300.5,229.7,280.4,220.3,271.6z"/>
	</g>
	<path d="M212.9,311.6c1,2.7,2,5,2.7,6.9c10-1.8,19.9-4.1,29.9-6.8c0.1-0.2,0.3-0.3,0.5-0.4c-0.8-1.9-2.2-4.8-4.1-8.2
		C232.1,305.7,222.4,308.4,212.9,311.6z"/>
</g>
</svg>
