<?xml version="1.0" encoding="utf-8"?>
<!-- Generator: Adobe Illustrator 26.0.3, SVG Export Plug-In . SVG Version: 6.00 Build 0)  -->
<svg version="1.1" id="Layer_1" xmlns="http://www.w3.org/2000/svg" xmlns:xlink="http://www.w3.org/1999/xlink" x="0px" y="0px"
	 viewBox="0 0 384 400" style="enable-background:new 0 0 384 400;" xml:space="preserve">
<style type="text/css">
	.arm-st0{fill:#47352C;}
</style>
<g>
	<path d="M225.8,268.5c-4.9-5.1-10-6.9-14-4.9c-4.4,2.2-6.2,8.5-4.9,16.8c0.9,5.3,2.4,12.7,4.7,22c0.2,0.7,0.6,1.2,1.2,1.6
		c0.4,0.2,0.8,0.3,1.2,0.3c0.2,0,0.5,0,0.7-0.1c3.2-1,6-2,8.8-3.1l2-0.8c3.4-1.4,6.8-2.8,10.3-4c0,0,0,0,0,0
		c0.8-0.3,1.7-0.5,2.5-0.8c0.7-0.2,1.2-0.7,1.5-1.3c0.3-0.6,0.3-1.4,0-2C236.7,284.6,231.6,274.5,225.8,268.5z M223.7,295.6l-2,0.8
		c-1.9,0.8-3.8,1.5-5.9,2.2c-1.9-7.9-3.3-14.3-4-19c-1.1-6.7,0.3-10.6,2.2-11.5c0.4-0.2,0.8-0.3,1.2-0.3c1.8,0,4.4,1.5,7,4.2
		c4.7,4.8,9,12.9,12,19.6C230.6,292.8,227.1,294.2,223.7,295.6z M235.1,293.9L235.1,293.9L235.1,293.9z"/>
	<path class="arm-st0" d="M209.4,280c1,6.2,2.9,14.4,4.7,21.8c2.9-0.9,5.8-1.9,8.6-3.1c4.1-1.7,8.2-3.4,12.4-4.8
		c0.8-0.3,1.7-0.6,2.6-0.8c-3.7-8.3-8.5-17.5-13.7-22.8C214.6,260.5,207.1,265.9,209.4,280z"/>
	<g>
		<path d="M232.6,283.6c-8.3,0.6-20.4,4.8-26.9,14.5c-0.6,1-0.5,2.2,0.2,3.1l4,4.3c0.5,0.5,1.1,0.8,1.8,0.8c0.2,0,0.4,0,0.6-0.1
			c28.8-7.7,29.1-11,29.3-12.6c0.3-3.2-0.7-6.4-2.8-8.8C238.3,284.3,237.4,283.3,232.6,283.6z M212.5,301l-1.5-1.6
			c7.7-9.6,21.5-11.1,24.5-10.8c0.6,0.8,1.3,2.1,1.3,3.9C234.3,294.3,222.8,298.2,212.5,301z"/>
		<path class="arm-st0" d="M207.7,299.6l4,4.3c0,0,27.1-7.2,27.5-10.5c0.3-3.2-1-5.6-2.2-6.9S216.7,286.2,207.7,299.6z"/>
		<path d="M229.9,291.4c0,0.2,0,0.3,0,0.5c4.1-0.9,10-2,10-2l-1.3-2.9C238.7,287,233.6,289.7,229.9,291.4z"/>
		<path d="M208.3,301.2l1.6,2.8c0,0,4.8-3.1,8.3-5.2c0-0.2,0-0.3-0.1-0.5C214.1,299.6,208.3,301.2,208.3,301.2z"/>
	</g>
</g>
</svg>
