<?xml version="1.0" encoding="utf-8"?>
<!-- Generator: Adobe Illustrator 26.0.3, SVG Export Plug-In . SVG Version: 6.00 Build 0)  -->
<svg version="1.1" id="Layer_1" xmlns="http://www.w3.org/2000/svg" xmlns:xlink="http://www.w3.org/1999/xlink" x="0px" y="0px"
	 viewBox="0 0 384 400" style="enable-background:new 0 0 384 400;" xml:space="preserve">
<style type="text/css">
	.legback-st0{fill:#1D1C20;}
	.legback-st1{fill:#49484D;}
	.legback-st2{opacity:0.16;}
</style>
<g>
	<g>
		<path d="M162.3,338.5L162.3,338.5l-0.5,12.2l0,0.2c0,0,0,0.4-0.4,0.8c-0.4,0.5-1.6,1.4-4.9,1.5c-8.1,0.2-16.2,0-24.7-0.7
			c-6-0.7-6.1-7.4-5.5-16.7l0-0.8c0-0.2,0-0.7,0-3.8c0-2.4,0-6,0.1-6.5l-2.5-0.2l2.5,0.2l-2.5-0.2l-2.5-0.2c0,0.3,0,1.2-0.1,6.8
			c0,1.8,0,3.4,0,3.6l0,0.8c-0.5,8.2-1.3,20.6,10,22c6.5,0.6,12.8,0.8,19.1,0.8c2.1,0,4.2,0,6.3-0.1c4-0.1,6.8-1.2,8.6-3.2
			c1.5-1.8,1.6-3.7,1.5-4.5l0.3-9.4h0c0.1-0.7,0.1-1.6,0.2-2.6c0.1-1.6,0.1-3.6,0.2-5.7c0.1-4.1,0.2-8.3,0.2-8.3l-5-0.1
			C162.5,329.7,162.4,335.5,162.3,338.5z"/>
	</g>
	<g>
		<path class="legback-st0" d="M123.9,334.9c-0.5,8.4-1.4,19,7.6,20.2c8.6,0.7,16.7,1,25.1,0.7c8.4-0.2,7.6-5.2,7.6-5.2l0.3-9.6
			c0.2,0,0.6-16.5,0.6-16.5H124C124,325,123.9,334.5,123.9,334.9z"/>
	</g>
	<g>
		<path class="legback-st1" d="M124,326.3c0,2.9-0.1,8.3-0.1,8.5c-0.5,8.3-1.4,18.9,7.4,20.1c-1.5-9.5-3.1-19.1-3.9-28.7H124z"/>
		<path class="legback-st1" d="M152.4,326.3h-8.1c1.6,9.8,3,19.7,4.3,29.5c1.5,0,3,0,4.6,0c-0.6-9.5-1-19-1-28.5
			C152.2,326.9,152.3,326.6,152.4,326.3z"/>
		<path class="legback-st1" d="M157.2,327.3c0,4.8,0.1,9.6,0.3,14.3c0.2,4.7,0.4,9.3,0.7,14c6.7-0.8,6.1-5.1,6.1-5.1l0.3-9.6
			c0.1,0,0.4-10.4,0.5-14.7H157C157.1,326.6,157.2,326.9,157.2,327.3z"/>
		<path class="legback-st1" d="M132.4,326.3c0.8,9.7,2.4,19.4,4,29.1c2.4,0.2,4.8,0.3,7.2,0.3c-1.4-9.8-2.8-19.6-4.3-29.4H132.4z"/>
	</g>
	<g>
		<g>
			<path class="legback-st2" d="M148.4,324.2c0,0-0.3,22.5-0.5,25.4c-0.2,3.2-3.2,6.1-7.3,6c6.1,0.3,10.4,0.3,16.5,0.2
				c8.4-0.2,7.6-5.2,7.6-5.2l0.3-25.7L148.4,324.2z"/>
		</g>
	</g>
</g>
</svg>
