<?xml version="1.0" encoding="utf-8"?>
<!-- Generator: Adobe Illustrator 26.0.3, SVG Export Plug-In . SVG Version: 6.00 Build 0)  -->
<svg version="1.1" id="Layer_1" xmlns="http://www.w3.org/2000/svg" xmlns:xlink="http://www.w3.org/1999/xlink" x="0px" y="0px"
	 viewBox="0 0 384 400" style="enable-background:new 0 0 384 400;" xml:space="preserve">
<style type="text/css">
	.armback-st0{fill:#00B1D8;}
</style>
<g>
	<path d="M138.9,270.2c-3.1-2.5-8-1.8-13.6,1.9c-6.8,4.5-13.8,13.3-18.5,19.8l-1,1.4l1.5,0.8c0.8,0.4,1.6,0.9,2.3,1.3h0
		c3.2,1.9,6.3,4,9.3,6.1l1.8,1.2c2.5,1.7,5,3.3,7.9,4.9l1.4,0.8l0.7-1.4c4.2-8.5,7.2-15.4,9.2-20.4
		C142.7,279.1,142.4,273,138.9,270.2z M137,285.5c-1.8,4.6-4.6,10.9-8.4,18.7c-2.2-1.3-4.3-2.6-6.3-3.9l-1.7-1.2
		c-3-2.1-6.2-4.3-9.5-6.2c-0.3-0.2-0.6-0.4-0.9-0.5c4.5-6.1,10.8-13.7,16.8-17.7c4.3-2.9,8-3.6,10-2
		C139.4,274.5,139.4,279.4,137,285.5z"/>
	<path class="armback-st0" d="M126.2,273.4c-6.2,4.1-12.8,12.1-18.1,19.4c0.8,0.4,1.6,0.9,2.4,1.4c3.8,2.3,7.5,4.8,11.1,7.3
		c2.5,1.7,5.1,3.3,7.8,4.8c3.3-6.8,6.9-14.4,9.1-20.3C143.6,272.7,137.4,265.8,126.2,273.4z"/>
	<g>
		<path d="M115,284.7c-4.7-1.4-5.8-0.6-6.3-0.2c-1.5,1.1-4.2,3.6-4.6,8c-0.2,1.6-0.5,4.9,26,18.5c0.4,0.2,0.7,0.3,1.1,0.3
			c0.5,0,1-0.2,1.4-0.5l4.8-3.3c1-0.7,1.3-1.9,0.9-3C134,293.6,123.1,287,115,284.7z M131,305.8c-9.5-4.9-20-11.1-21.9-13.4
			c0.3-1.8,1.3-2.9,2-3.6c3,0.3,16.2,4.6,21.7,15.7L131,305.8z"/>
		<path class="armback-st0" d="M110.2,286.5c-1.4,1-3.3,3-3.6,6.2c-0.3,3.2,24.7,16,24.7,16l4.8-3.3C130,290.5,111.6,285.5,110.2,286.5z"/>
		<path d="M106.5,289.2c0,0,5.6,2.4,9.4,4.1c0-0.2,0.1-0.3,0.1-0.5c-3.2-2.5-7.6-6.2-7.6-6.2L106.5,289.2z"/>
		<path d="M125.9,302.5c3,2.8,7,6.8,7,6.8l2.1-2.4c0,0-5.4-2.8-9-4.9C126,302.2,126,302.4,125.9,302.5z"/>
	</g>
</g>
</svg>
