<?xml version="1.0" encoding="utf-8"?>
<!-- Generator: Adobe Illustrator 26.0.3, SVG Export Plug-In . SVG Version: 6.00 Build 0)  -->
<svg version="1.1" id="Layer_1" xmlns="http://www.w3.org/2000/svg" xmlns:xlink="http://www.w3.org/1999/xlink" x="0px" y="0px"
	 viewBox="0 0 384 400" style="enable-background:new 0 0 384 400;" xml:space="preserve">
<style type="text/css">
	.armback-st0{fill:#FFFFFF;}
	.armback-st1{fill:#1D1C20;}
	.armback-st2{fill:#49484D;}
	.armback-st3{opacity:0.2;fill:#FFFFFF;}
</style>
<g>
	<g>
		<path d="M132.7,288.8c-1.2,3.7-2.5,7.3-3.8,11l-3.9,10.9l-2,5.4l-1,2.7l-0.5,1.4l-0.3,0.7l-0.1,0.3c-0.1,0.2-0.1,0.4-0.2,0.6
			l0.1-0.4c-0.7,1.7-1.5,3.2-2.4,4c-0.5,0.4-0.9,0.6-1.5,0.7c-0.5,0.1-1.2,0-1.9-0.1l-0.6-0.1l-0.7-0.2l-1.4-0.4l-2.8-0.8
			c-1.8-0.6-3.6-1.2-5.4-1.9l-0.6-0.3c-0.2-0.1-0.4-0.2-0.6-0.2c-0.3-0.1-0.6-0.3-1-0.5c-0.6-0.4-1-0.8-1.4-1.4c-0.7-1-1-2.4-1-4
			c0.1-1.6,0.5-3.2,1.2-5c0.6-1.8,1.4-3.6,2.1-5.3c3-7.1,6.3-14.1,10.2-20.8l1.5-2.5l1.6-2.4l1.7-2.4l1.8-2.3
			c0.6-0.7,1.3-1.4,1.9-2.1c0.7-0.7,1.4-1.3,2.1-1.9c1.5-1.2,3.2-2.2,5.1-2.6c-2,0-3.9,0.8-5.6,1.8c-0.9,0.5-1.7,1.1-2.5,1.7
			c-0.8,0.6-1.5,1.3-2.3,1.9c-2.9,2.7-5.4,5.9-7.7,9.1c-2.3,3.2-4.4,6.6-6.4,10c-2,3.4-3.8,7-5.5,10.5c-0.8,1.8-1.6,3.6-2.4,5.5
			c-0.8,1.9-1.5,4.1-1.6,6.4c-0.1,1.2,0,2.4,0.2,3.6c0.3,1.2,0.8,2.5,1.5,3.5c0.7,1.1,1.7,2,2.8,2.7c0.5,0.3,1.1,0.6,1.6,0.9
			c0.3,0.1,0.5,0.2,0.8,0.3l0.7,0.3c1.9,0.7,3.8,1.3,5.7,1.9c1,0.3,1.9,0.6,2.9,0.8l1.4,0.4l0.7,0.2l0.9,0.2
			c1.2,0.2,2.5,0.4,3.9,0.1c1.4-0.2,2.7-1,3.7-1.9c1-0.9,1.7-2,2.2-3c0.5-1,0.9-2,1.3-3l0.1-0.4l1.7-5.3l1.7-5.6
			c1.1-3.7,2.2-7.5,3.1-11.3c1-3.8,1.9-7.6,2.7-11.4c0.4-1.9,0.7-3.8,1-5.8c0.3-1.9,0.4-3.9,0.2-5.9
			C135.3,281.5,133.9,285.1,132.7,288.8z"/>
		<path class="armback-st0" d="M120.9,273.3c-10,9.1-19.8,30.7-22.4,37.7c-2.6,7-0.8,11.6,3.9,13.5c4.6,1.9,11.5,3.8,11.5,3.8
			c5.5,1.6,7.7-2,9.2-6c0-0.2,8.5-24.4,11.7-38.3C138,270.1,130.9,264.2,120.9,273.3z"/>
		<path class="armback-st1" d="M120.9,273.3c-10,9.1-19.8,30.7-22.4,37.7c0,0.1-0.1,0.2-0.1,0.3c6.8,2.9,13.7,5.4,20.5,7.9
			c1.5,0.5,3.1,1.1,4.7,1.5c1.9-5.7,8.5-24.9,11.2-36.7C138,270.1,130.9,264.2,120.9,273.3z"/>
		<path class="armback-st2" d="M128.8,269c1,0.7,1.6,1.9,0.7,3.2c-6.7,10.6-13.6,21-19.4,32.1c-1.7,3.2-3.2,6.5-4.7,9.8c2.5,1,5,1.9,7.5,2.8
			c0.9-2,1.7-4,2.7-6c4-8.6,8.7-16.8,13-25.3c2.2-4.4,4.2-8.9,5.9-13.5C133.3,269.8,131.3,268.7,128.8,269z"/>
		<path class="armback-st2" d="M98.5,311c0,0.1-0.1,0.2-0.1,0.3c0.8,0.3,1.6,0.7,2.5,1c1.2-2.8,2.5-5.5,3.9-8.3c2.8-5.6,5.9-11,9.2-16.3
			c3.5-5.8,7.2-11.6,10.9-17.3c-1.2,0.7-2.5,1.6-3.9,2.9C110.8,282.3,101.1,304,98.5,311z"/>
		<path class="armback-st2" d="M117.6,318.7c0.4,0.2,0.8,0.3,1.3,0.5c1.5,0.5,3.1,1.1,4.7,1.5c1.9-5.6,8.2-24.1,11-36
			c-2.2,4.6-4.6,9-6.9,13.5C124.1,304.9,120.7,311.7,117.6,318.7z"/>
		<g>
			<path d="M123.5,321c0-0.1,0-0.1,0.1-0.2C123.5,320.9,123.5,321,123.5,321z"/>
			<path d="M123.7,320.5c0-0.1,0.1-0.2,0.1-0.3C123.7,320.3,123.7,320.4,123.7,320.5z"/>
			<path d="M124.5,318.2c-0.2,0.6-0.4,1.2-0.6,1.7C124.1,319.4,124.2,318.8,124.5,318.2z"/>
			<path d="M101.9,324.3c0.1,0.1,0.3,0.1,0.4,0.2c0.9,0.4,2,0.8,3,1.1c-1.1-0.4-2.1-0.8-3-1.1C102.2,324.4,102,324.4,101.9,324.3z"
				/>
			<path d="M100.8,323.7c0.2,0.1,0.4,0.3,0.7,0.4C101.3,324,101,323.9,100.8,323.7z"/>
		</g>
		<path class="armback-st3" d="M120.9,273.3c-10,9.1-19.8,30.7-22.4,37.7c-2.6,7-0.8,11.6,3.9,13.5c2,0.8,4.4,1.6,6.5,2.3
			c-3.9-2.1-5.3-6.5-2.9-13c2.6-7,12.4-28.7,22.4-37.7c2.2-2,4.3-3.3,6.2-3.9C132.3,267.8,127.2,267.6,120.9,273.3z"/>
	</g>
	<g>
		<g>
			<path d="M121.3,270.5c-0.8,0.6-1.5,1.3-2.3,2c-2.9,2.8-5.4,5.9-7.6,9.2c-2.3,3.3-4.3,6.7-6.2,10.1c-1.9,3.5-3.7,7-5.3,10.6
				c-0.8,1.7-1.5,3.5-2.2,5.3c1.5,0.3,3,0.6,4.7,1c0.5-1.5,1.1-3,1.7-4.4c2.9-7.2,6.1-14.2,9.8-20.9l1.5-2.5l1.5-2.4l1.6-2.4
				l1.7-2.3c0.6-0.7,1.2-1.5,1.9-2.2c0.7-0.7,1.4-1.4,2.1-2c1.5-1.2,3.1-2.3,5-2.7c-2,0.1-3.9,0.9-5.6,1.9
				C122.9,269.3,122.1,269.9,121.3,270.5z"/>
			<path d="M133.5,286.6c-1.2,3.7-2.4,7.4-3.6,11l-3.8,11l-1.7,4.8c1.5,0.3,2.9,0.7,4.1,0.9l1.3-4.6c1-3.7,2-7.5,2.9-11.3
				c0.9-3.8,1.8-7.6,2.5-11.4c0.4-1.9,0.7-3.8,0.9-5.8c0.2-2,0.3-3.9,0.1-5.9C136,279.3,134.7,282.9,133.5,286.6z"/>
			<path class="armback-st3" d="M121.5,271.3c-9.4,8.8-18.3,28.9-21.4,36.9c2.4,0.5,5.1,1.1,7.9,1.6c3.4-8.6,12-27.5,21-35.9
				c2.2-2.1,4.3-3.3,6.1-4C132.8,265.6,127.7,265.5,121.5,271.3z"/>
		</g>
	</g>
</g>
</svg>
