<?xml version="1.0" encoding="utf-8"?>
<!-- Generator: Adobe Illustrator 26.0.3, SVG Export Plug-In . SVG Version: 6.00 Build 0)  -->
<svg version="1.1" id="Layer_1" xmlns="http://www.w3.org/2000/svg" xmlns:xlink="http://www.w3.org/1999/xlink" x="0px" y="0px"
	 viewBox="0 0 384 400" style="enable-background:new 0 0 384 400;" xml:space="preserve">
<style type="text/css">
	.armback-st0{opacity:0.7;}
</style>
<g>
	<g>
		<path class="armback-st0" d="M104,286c0,0,11,2.4,10.2-0.7C113.3,282.2,104,286,104,286z"/>
		<path class="armback-st0" d="M96.9,291.5c0,0,8.5,3.4,7.6,0.4C103.6,288.7,96.9,291.5,96.9,291.5z"/>
		<path class="armback-st0" d="M111.7,278.6c0,0,9.9,5.2,9,2.1C119.9,277.6,111.7,278.6,111.7,278.6z"/>
		<path class="armback-st0" d="M117.9,284.8c0,0,11,2.4,10.2-0.7C127.1,281,117.9,284.8,117.9,284.8z"/>
		<path class="armback-st0" d="M101.2,296.8c0,0,11,2.4,10.2-0.7S101.2,296.8,101.2,296.8z"/>
		<path class="armback-st0" d="M110.7,290.2c0,0,8,2.1,7.1-1C117,286.2,110.7,290.2,110.7,290.2z"/>
		<path class="armback-st0" d="M99.2,307.1c0,0,10.6-4,8.1-6.1C104.9,298.9,99.2,307.1,99.2,307.1z"/>
		<path class="armback-st0" d="M108.2,305.8c0,0,10.6-4,8.1-6.1C113.9,297.6,108.2,305.8,108.2,305.8z"/>
	</g>
</g>
</svg>
