<?xml version="1.0" encoding="utf-8"?>
<!-- Generator: Adobe Illustrator 26.0.3, SVG Export Plug-In . SVG Version: 6.00 Build 0)  -->
<svg version="1.1" id="Layer_1" xmlns="http://www.w3.org/2000/svg" xmlns:xlink="http://www.w3.org/1999/xlink" x="0px" y="0px"
	 viewBox="0 0 384 400" style="enable-background:new 0 0 384 400;" xml:space="preserve">
<style type="text/css">
	.armback-st0{fill:#787F7F;}
	.armback-st1{opacity:0.2;fill:#FFFFFF;}
</style>
<g>
	<path d="M128.2,272.3c-0.9,0.4-1.8,0.9-2.7,1.4c-0.9,0.5-1.7,1.1-2.5,1.7c-3.2,2.4-6,5.2-8.7,8.2c-2.7,3-5.1,6.1-7.4,9.3
		c-2.3,3.2-4.5,6.5-6.6,9.9c-1,1.6-1.9,3.3-2.8,4.9c1.4,0.5,2.9,1,4.5,1.5c0.7-1.4,1.5-2.8,2.2-4.2c3.7-6.8,7.8-13.4,12.3-19.6
		l1.7-2.3l1.8-2.2l1.9-2.2l2-2.1c0.7-0.6,1.4-1.3,2.1-1.9c0.7-0.6,1.5-1.2,2.3-1.7c1.6-1,3.4-1.9,5.3-2.1
		C132,270.9,130,271.5,128.2,272.3z"/>
	<path d="M130.7,301.7l-5.1,10.4l-2.3,4.6c1.4,0.5,2.8,1,4,1.4l1.8-4.4c1.5-3.6,2.9-7.2,4.3-10.9c1.4-3.6,2.7-7.3,3.9-11
		c0.6-1.9,1.1-3.7,1.6-5.6c0.5-1.9,0.8-3.9,0.8-5.8c-0.7,3.8-2.5,7.3-4.1,10.8C134.1,294.7,132.4,298.2,130.7,301.7z"/>
	<path class="armback-st0" d="M125.6,274.5c-10,7.3-21,25.2-25.3,33.2c8.5,3,16.8,6.2,25.2,9.4c3.6-7.9,9.6-21.4,12.8-30.4
		C143,273.2,136.5,266.5,125.6,274.5z"/>
	<path d="M100.4,306.6l-1.6-0.5l-0.8,1.5c0,0.1-0.1,0.2-0.1,0.3c8.9,2.9,21.8,7.5,29.3,10.2l0.9-1.9l-3.4-1.2
		C116.8,312.1,108.7,309.1,100.4,306.6z"/>
	<path class="armback-st1" d="M125.6,274.5c-10.4,7.5-21.7,26.4-25.7,34c2.4,0.8,5,1.7,7.6,2.6c4.4-8.1,15.2-25.8,25.2-33.1
		c2.4-1.8,4.6-2.8,6.6-3.2C137.5,270.3,132.4,269.5,125.6,274.5z"/>
</g>
</svg>
