<?xml version="1.0" encoding="utf-8"?>
<!-- Generator: Adobe Illustrator 26.0.3, SVG Export Plug-In . SVG Version: 6.00 Build 0)  -->
<svg version="1.1" id="Layer_1" xmlns="http://www.w3.org/2000/svg" xmlns:xlink="http://www.w3.org/1999/xlink" x="0px" y="0px"
	 viewBox="0 0 384 400" style="enable-background:new 0 0 384 400;" xml:space="preserve">
<style type="text/css">
	.armback-st0{fill:#8C2427;}
	.armback-st1{opacity:0.4;fill:#FFFFFF;}
	.armback-st2{opacity:0.2;fill:#FFFFFF;}
</style>
<g>
	<g>
		<path d="M129.3,270.5c-0.9,0.4-1.8,0.9-2.7,1.4c-0.9,0.5-1.7,1.1-2.5,1.7c-3.2,2.4-6,5.2-8.7,8.2c-2.7,3-5.1,6.1-7.4,9.3
			c-2.3,3.2-4.5,6.5-6.6,9.9c-1,1.6-1.9,3.3-2.8,4.9c1.4,0.5,2.9,1,4.5,1.5c0.7-1.4,1.5-2.8,2.2-4.2c3.7-6.8,7.8-13.4,12.3-19.6
			l1.7-2.3l1.8-2.2l1.9-2.2l2-2.1c0.7-0.6,1.4-1.3,2.1-1.9c0.7-0.6,1.5-1.2,2.3-1.7c1.6-1,3.4-1.9,5.3-2.1
			C133.2,269.1,131.1,269.7,129.3,270.5z"/>
		<path d="M131.9,299.9l-5.1,10.4l-2.3,4.6c1.4,0.5,2.8,1,4,1.4l1.8-4.4c1.5-3.6,2.9-7.2,4.3-10.9c1.4-3.6,2.7-7.3,3.9-11
			c0.6-1.9,1.1-3.7,1.6-5.6c0.5-1.9,0.8-3.9,0.8-5.8c-0.7,3.8-2.5,7.3-4.1,10.8C135.2,292.9,133.6,296.4,131.9,299.9z"/>
		<path class="armback-st0" d="M126.7,272.7c-10,7.3-21,25.2-25.3,33.2c8.5,3,16.8,6.2,25.2,9.4c3.6-7.9,9.6-21.4,12.8-30.4
			C144.1,271.4,137.7,264.8,126.7,272.7z"/>
		<path class="armback-st1" d="M101.5,305.9c1.7,0.6,3.4,1.2,5,1.8c0.9-1.9,1.9-3.8,3-5.6c2.5-4.1,5.2-8.2,7.9-12.1
			c5-7.3,10.7-14.1,16.6-20.6c-2.1,0.3-4.5,1.4-7.3,3.4C116.7,280,105.8,297.9,101.5,305.9z"/>
		<path class="armback-st1" d="M130.6,281.8c-3.5,4.6-6.5,9.5-9.5,14.4c-2.7,4.6-5.5,9.3-8.1,14c1.4,0.5,2.8,1.1,4.2,1.6
			c4.2-7.1,8.9-14,13.5-20.8c3.3-4.8,6.5-9.7,9.7-14.6c0.1-0.2,0.2-0.3,0.4-0.4c-0.1-1.8-0.6-3.3-1.3-4.4
			C136.6,274.9,133.4,278.1,130.6,281.8z"/>
		<path class="armback-st1" d="M122.1,313.6c1.5,0.6,3,1.1,4.6,1.7c3-6.5,7.6-16.9,10.9-25.4c-3.3,4.9-6.7,9.8-9.9,14.8
			C125.8,307.6,123.9,310.6,122.1,313.6z"/>
		<path d="M101.6,304.9l-1.6-0.5l-0.8,1.5c0,0.1-0.1,0.2-0.1,0.3c8.9,2.9,21.8,7.5,29.3,10.2l0.9-1.9l-3.4-1.2
			C118,310.3,109.8,307.3,101.6,304.9z"/>
		<path class="armback-st2" d="M126.7,272.7c-10.4,7.5-21.7,26.4-25.7,34c2.4,0.8,5,1.7,7.6,2.6c4.4-8.1,15.2-25.8,25.2-33.1
			c2.4-1.8,4.6-2.8,6.6-3.2C138.7,268.5,133.6,267.7,126.7,272.7z"/>
	</g>
	<path d="M96.5,309c0.2,0.1,0.3,0.3,0.4,0.5c9.5,3.9,19.1,7.4,28.8,10.4c1-1.7,2.2-4,3.5-6.5c-9-4.3-18.3-8.3-27.7-12
		C99.3,304.5,97.5,307.3,96.5,309z"/>
</g>
</svg>
