<?xml version="1.0" encoding="utf-8"?>
<!-- Generator: Adobe Illustrator 26.0.3, SVG Export Plug-In . SVG Version: 6.00 Build 0)  -->
<svg version="1.1" id="Layer_1" xmlns="http://www.w3.org/2000/svg" xmlns:xlink="http://www.w3.org/1999/xlink" x="0px" y="0px"
	 viewBox="0 0 384 400" style="enable-background:new 0 0 384 400;" xml:space="preserve">
<style type="text/css">
	.armback-st0{fill:#8C2427;}
</style>
<g>
	<path d="M142,266.7c-3.5-2.8-8.8-2.1-14.7,1.8c-6.9,4.6-14,13.5-18.8,20.1c-0.4,0.6-0.6,1.3-0.4,2c0.2,0.7,0.6,1.3,1.2,1.6
		c0.8,0.4,1.5,0.9,2.3,1.3c0,0,0,0,0,0c3.1,1.9,6.2,4,9.3,6.1l1.7,1.2c2.5,1.7,5.1,3.3,8,4.9c0.4,0.2,0.8,0.3,1.2,0.3
		c0.3,0,0.5,0,0.7-0.1c0.7-0.2,1.2-0.7,1.5-1.3c4.2-8.6,7.3-15.5,9.2-20.5C146.3,276.3,145.8,269.8,142,266.7z M138.6,282.4
		c-1.7,4.4-4.4,10.4-7.9,17.7c-1.9-1.1-3.6-2.2-5.3-3.3l-1.7-1.2c-3.1-2.1-6.2-4.3-9.5-6.2c4.4-5.9,10.3-12.9,15.9-16.6
		c3.8-2.6,7.2-3.4,8.8-2.1C140.5,271.9,141,276.1,138.6,282.4z"/>
	<path class="armback-st0" d="M128.6,270.6c-6.2,4.1-12.8,12.1-18.1,19.4c0.8,0.4,1.6,0.9,2.4,1.4c3.8,2.3,7.5,4.8,11.1,7.3
		c2.5,1.7,5.1,3.3,7.8,4.8c3.3-6.8,6.9-14.4,9.1-20.3C146.1,270,139.9,263.1,128.6,270.6z"/>
	<g>
		<path d="M117.5,281.9c-4.7-1.4-5.8-0.6-6.3-0.2c-1.5,1.1-4.2,3.6-4.6,8c-0.2,1.6-0.5,4.9,26,18.5c0.4,0.2,0.7,0.3,1.1,0.3
			c0.5,0,1-0.2,1.4-0.5l4.8-3.3c1-0.7,1.3-1.9,0.9-3C136.4,290.9,125.5,284.3,117.5,281.9z M133.5,303.1c-9.5-4.9-20-11.1-21.9-13.4
			c0.3-1.8,1.3-2.9,2-3.6c3,0.3,16.2,4.6,21.7,15.7L133.5,303.1z"/>
		<path class="armback-st0" d="M112.6,283.8c-1.4,1-3.3,3-3.6,6.2c-0.3,3.2,24.7,16,24.7,16l4.8-3.3C132.5,287.8,114,282.8,112.6,283.8z"/>
		<path d="M108.9,286.5c0,0,5.6,2.4,9.4,4.1c0-0.2,0.1-0.3,0.1-0.5c-3.2-2.5-7.6-6.2-7.6-6.2L108.9,286.5z"/>
		<path d="M128.4,299.8c3,2.8,7,6.8,7,6.8l2.1-2.4c0,0-5.4-2.8-9-4.9C128.5,299.5,128.4,299.6,128.4,299.8z"/>
	</g>
</g>
</svg>
