<?xml version="1.0" encoding="utf-8"?>
<!-- Generator: Adobe Illustrator 26.0.3, SVG Export Plug-In . SVG Version: 6.00 Build 0)  -->
<svg version="1.1" id="Layer_1" xmlns="http://www.w3.org/2000/svg" xmlns:xlink="http://www.w3.org/1999/xlink" x="0px" y="0px"
	 viewBox="0 0 384 400" style="enable-background:new 0 0 384 400;" xml:space="preserve">
<g>
	<style type="text/css">
		.mouth-st0{fill:#EFFDF0;}
		.mouth-st1{opacity:0.2;fill:#575757;}
		.mouth-st2{fill:#C2C2C2;}
		.mouth-st3{fill:#575757;}
		.mouth-st4{fill:#757575;}
		.mouth-st5{opacity:0.5;fill:#FFFFFF;}
	</style>
	<path d="M189.8,238.2c-5.2-4.5-14-3.2-24.2-1.8c-5.6,0.8-11.9,1.7-18.2,1.7c-7.2,0-13.9-0.7-19.8-1.3c-6.2-0.6-11.5-1.2-15.4-0.7
		c-5.1,0.7-7.9,3.3-8.4,7.7c-0.4,3.4,0.9,8.5,8.6,13.6c10.8,7.2,30.4,12,47.7,12c9.6,0,18.5-1.5,24.7-4.9c6.2-3.4,9.4-8.5,9.3-14.8
		C194.1,244.3,192.7,240.6,189.8,238.2z M182.5,260.1c-15.5,8.5-52.2,3.1-67.3-6.9c-3.1-2.1-6.8-5.3-6.4-9c0.2-1.4,0.6-2.8,4.1-3.3
		c3.3-0.5,8.4,0.1,14.2,0.7c6,0.6,12.8,1.3,20.3,1.3c6.6,0,13.1-0.9,18.9-1.7c9-1.3,16.8-2.3,20.3,0.7c1.7,1.5,2.6,4,2.6,7.8
		C189.3,254.2,187.1,257.6,182.5,260.1z"/>
	<path class="mouth-st0" d="M147.4,240.5c-22.7,0-40-6.8-41,3.5c-2.2,21.3,85.9,35.9,85.3,5.7C191.3,229.5,170.1,240.5,147.4,240.5z"/>
	<path class="mouth-st1" d="M147.4,240.5c-17.8,0-32.2-4.2-38.2-1c15.7,2.8,30.9,5.9,47,5.6c4.4-0.1,8.9-0.3,13.3-1
		c4.1-0.6,7.8-2.3,11.7-3.5c1.9-0.5,3.8-0.9,5.7-1.4C179.3,234.8,163.7,240.5,147.4,240.5z"/>
	<path d="M192.8,248.7c0-0.1,0-0.1,0-0.2c-0.1-0.6-0.3-1.2-0.6-2l-0.1-0.3c0,0,0-0.1,0-0.1l-0.1-0.3c-0.2-0.5-0.8-0.7-1.3-0.5
		c-36.3,16.6-79.2,0-84-2c-0.3-0.1-0.7-0.1-1,0.1c-0.3,0.2-0.4,0.6-0.4,0.9c0.1,0.7,0.1,1.4,0.2,2.1c0,0.4,0.2,0.7,0.6,0.9
		c19.1,8.7,35.8,11.5,49.3,11.5c21.4,0,34.8-6.9,37-8.1c0.3-0.2,0.5-0.6,0.5-1c0-0.2,0-0.4,0-0.6
		C192.8,249.1,192.8,248.9,192.8,248.7z M190.8,249.3c-5.6,2.9-37.4,17.4-83.5-3.5c0,0,0,0,0,0c9.2,3.5,48.8,16.9,83.1,1.8
		c0.2,0.5,0.3,1,0.4,1.4c0,0.1,0,0.1,0,0.1C190.8,249.1,190.8,249.2,190.8,249.3z"/>
	<path class="mouth-st2" d="M190.9,246.2c-36.8,16.8-80.4-0.2-84.7-2c0.1,0.7,0.2,1.5,0.2,2.2c46.2,21.2,78.4,7.1,84.7,3.8
		c0-0.1,0-0.3,0-0.4C191,248.6,191,247.4,190.9,246.2z"/>
	<path class="mouth-st3" d="M191,247.9c0-0.1-0.1-0.1-0.1-0.3c0,0,0,0,0-0.1c-36.5,16.7-79.7,0.1-84.6-1.9c0,0.3,0.1,0.5,0.1,0.7
		c48.3,22.1,81.2,5.8,85.4,3.5c-0.1-0.5-0.3-1.1-0.5-1.6C191.2,248.3,191.1,248.1,191,247.9z"/>
	<g>
		<path d="M122.9,241.3l-3.4-0.1c-1.8,0-3.3,1.4-3.4,3.2l-0.4,8.5c-0.1,1.4,0.8,2.7,2.1,3.2l2.6,1.1c0.4,0.2,0.8,0.3,1.3,0.3
			c0.6,0,1.2-0.2,1.7-0.5c0.9-0.5,1.5-1.4,1.6-2.5l1.1-9.5c0.1-0.9-0.2-1.9-0.8-2.6C124.7,241.8,123.8,241.3,122.9,241.3z
			 M124.1,244.8l-1.1,9.5c0,0.4-0.3,0.8-0.6,1c-0.4,0.2-0.8,0.2-1.2,0.1l-2.6-1.1c-0.5-0.2-0.9-0.7-0.8-1.3l0.4-8.5
			c0-0.7,0.6-1.3,1.3-1.3c0,0,0,0,0,0l3.4,0.1c0.4,0,0.7,0.2,1,0.5C124.1,244.1,124.2,244.4,124.1,244.8z"/>
		<path d="M141.5,244.8l-1.4-0.4c-1.5-0.4-3-0.1-4.2,0.9c-1.2,0.9-1.8,2.3-1.8,3.9l0.2,8.5c0.1,2.4,1.9,4.4,4.3,4.6l0.2,0
			c0.2,0,0.3,0,0.5,0c2.4,0,4.5-1.8,4.7-4.2l1-8.2C145.3,247.6,143.8,245.4,141.5,244.8z M143.1,249.7l-1,8.2
			c-0.2,1.5-1.6,2.6-3,2.4l-0.2,0c-1.4-0.1-2.4-1.3-2.5-2.7l-0.2-8.5c0-0.9,0.4-1.7,1.1-2.2c0.5-0.4,1.1-0.6,1.7-0.6
			c0.2,0,0.5,0,0.7,0.1l1.4,0.4C142.4,247.1,143.2,248.4,143.1,249.7z"/>
		<path d="M158.4,243.7l-1.6,0.1c-2.4,0.2-4.3,2.2-4.2,4.6l0.3,10.7c0.1,2.1,1.6,3.9,3.7,4.3c0.3,0,0.5,0.1,0.8,0.1
			c0.9,0,1.9-0.3,2.6-0.9c1-0.7,1.6-1.8,1.8-3l1.4-10.8c0.2-1.3-0.3-2.7-1.2-3.6C161,244.2,159.7,243.7,158.4,243.7z M161.2,248.5
			l-1.4,10.8c-0.1,0.7-0.4,1.3-1,1.7c-0.6,0.4-1.2,0.6-1.9,0.4c-1.2-0.2-2-1.2-2.1-2.4l-0.3-10.7c0-1.3,1-2.5,2.3-2.5l1.6-0.1
			c0.7,0,1.5,0.2,2,0.8C161,247.1,161.3,247.8,161.2,248.5z"/>
		<path d="M180.8,243.2c-1.1-1-2.5-1.4-3.9-1.4l-0.5,0c-2.9,0.2-5.2,2.6-5.1,5.6l0.2,7.7c0,1.5,0.7,3,1.9,4c1,0.9,2.3,1.3,3.6,1.3
			c0.2,0,0.4,0,0.6,0l0.8-0.1c2.9-0.3,5-2.9,4.8-5.7l-0.5-7.7C182.5,245.5,181.9,244.2,180.8,243.2z M178,258.3l-0.8,0.1
			c-1,0.1-1.9-0.2-2.7-0.8c-0.7-0.6-1.2-1.5-1.2-2.5l-0.2-7.7c0-1.9,1.4-3.4,3.2-3.5l0.5,0c0.1,0,0.1,0,0.2,0c0.8,0,1.6,0.3,2.3,0.9
			c0.7,0.6,1.1,1.5,1.2,2.4l0.5,7.7C181.2,256.5,179.9,258.1,178,258.3z"/>
	</g>
	<g>
		<path class="mouth-st4" d="M122.9,242.3l-3.4-0.1c-1.3,0-2.3,1-2.4,2.2l-0.4,8.5c0,1,0.5,1.9,1.4,2.3l2.6,1.1c1.4,0.6,3-0.4,3.2-1.9
			l1.1-9.5C125.3,243.6,124.2,242.3,122.9,242.3z"/>
		<path class="mouth-st3" d="M116.7,253c0,1,0.5,1.9,1.4,2.3l2.6,1.1c1.4,0.6,3-0.4,3.2-1.9l0.3-2.8c-2.5-0.9-5-1.7-7.4-2.9L116.7,253z"/>
		<path class="mouth-st4" d="M141.3,245.8l-1.4-0.4c-2.4-0.6-4.8,1.2-4.7,3.7l0.2,8.5c0,1.9,1.5,3.5,3.4,3.7l0.2,0
			c2.1,0.2,3.9-1.3,4.1-3.3l1-8.2C144.3,248,143.1,246.2,141.3,245.8z"/>
		<path class="mouth-st3" d="M135.3,254.1l0.1,3.5c0,1.9,1.5,3.5,3.4,3.7l0.2,0c2.1,0.2,3.9-1.3,4.1-3.3l0.4-3.5
			C140.8,254.7,138,254.5,135.3,254.1z"/>
		<path class="mouth-st4" d="M158.5,244.7l-1.6,0.1c-1.9,0.1-3.3,1.7-3.3,3.6l0.3,10.7c0,1.7,1.2,3.1,2.9,3.4c2,0.4,3.8-1,4.1-3l1.4-10.8
			C162.4,246.5,160.7,244.6,158.5,244.7z"/>
		<path class="mouth-st3" d="M153.7,256.6l0.1,2.5c0,1.7,1.2,3.1,2.9,3.4c2,0.4,3.8-1,4.1-3l0.4-3.3C158.7,256.7,156.2,256.9,153.7,256.6z
			"/>
		<path class="mouth-st4" d="M176.9,242.8l-0.5,0c-2.4,0.1-4.2,2.2-4.2,4.5l0.2,7.7c0.1,2.6,2.4,4.6,5,4.3l0.8-0.1
			c2.3-0.3,4.1-2.3,3.9-4.7l-0.5-7.7C181.4,244.6,179.3,242.7,176.9,242.8z"/>
		<path class="mouth-st3" d="M177.9,254.7c-1.9,0.7-3.8,0.3-5.5-0.6l0,1.1c0.1,2.6,2.4,4.6,5,4.3l0.8-0.1c2.3-0.3,4.1-2.3,3.9-4.7
			l-0.1-1.4C180.6,253.7,179.3,254.2,177.9,254.7z"/>
	</g>
	<path class="mouth-st5" d="M135.9,249.2c-0.3,2.9,3.4,1.5,2.9-1C138.3,245.6,136.2,246.2,135.9,249.2z"/>
	<path class="mouth-st5" d="M154.4,248.9c-0.3,2.9,3.4,1.5,2.9-1C156.8,245.3,154.7,245.9,154.4,248.9z"/>
	<path class="mouth-st5" d="M173.5,247.2c-0.3,2.9,3.4,1.5,2.9-1C175.9,243.6,173.8,244.2,173.5,247.2z"/>
	<path class="mouth-st5" d="M119.1,246.4c-0.3,2.9,3.4,1.5,2.9-1C121.5,242.8,119.4,243.4,119.1,246.4z"/>
</g>
</svg>
