<?xml version="1.0" encoding="utf-8"?>
<!-- Generator: Adobe Illustrator 26.0.3, SVG Export Plug-In . SVG Version: 6.00 Build 0)  -->
<svg version="1.1" id="Layer_1" xmlns="http://www.w3.org/2000/svg" xmlns:xlink="http://www.w3.org/1999/xlink" x="0px" y="0px"
	 viewBox="0 0 384 400" style="enable-background:new 0 0 384 400;" xml:space="preserve">
<g>
	<style type="text/css">
		.mouth-st0{fill:#D1C49D;}
		.mouth-st1{opacity:0.5;fill:#FFFFFF;}
		.mouth-st2{fill:#FFFFFF;}
	</style>
	<g>
		<g>
			<path class="mouth-st0" d="M169,233.7l-14.6-0.1c-9.1,1.6-19.7,1.5-27.8,5.4c-5.1,2.4-8.9,7-7.9,11.8c0.9,4.4,5.7,8.3,5.8,12.7
				c0,2.7-1.7,5.3-1.1,8c0.7,3.1,4.7,5.6,8.6,5.3s6.9-3.3,6.4-6.4c-0.3-1.6-0.5-4,1.5-3.9c0.3,0,0.5,0.1,0.8,0.2
				c3.9,1.3,4.6,5.4,4.6,8.7c0,3.3,0.4,7.3,4.1,8.9c3.1,1.4,7,0.1,8.7-2.2c1.7-2.3,1.5-5.3,0.5-7.9c-1.4-3.8-4.2-7.9-1.9-11.2
				c2.1-2.9,6.5-5.8,10.8-6c6.1-0.2,20.6-1.1,16.3-12.2C181.6,239.3,175.9,235.1,169,233.7z"/>
			<path d="M180.2,239.1c-3.1-2.9-7.1-4.7-11.2-5.4c4,1,7.8,3.1,10.7,5.9c1.4,1.5,2.6,3.1,3.3,5c0.7,1.8,1.1,3.9,0.5,5.6
				c-0.6,1.8-2.2,3-4,3.7c-1.8,0.8-3.8,1.3-5.8,1.5c-2,0.3-4.1,0.4-6.1,0.5c-2.2,0.1-4.4,0.8-6.3,1.8c-1.9,1.1-3.7,2.4-5.1,4.2
				c-0.8,0.9-1.3,2.2-1.4,3.4c-0.1,1.2,0.2,2.4,0.5,3.4c0.7,2.1,1.7,4,2.4,5.8c0.7,1.8,0.9,3.8,0.3,5.5c-0.3,0.8-0.8,1.6-1.4,2.1
				c-0.7,0.6-1.5,1-2.4,1.3c-1.8,0.5-3.7,0.4-5.2-0.6c-1.5-0.9-2.3-2.7-2.5-4.6c-0.1-1-0.2-2-0.2-3c0-1.1-0.1-2.2-0.3-3.3
				c-0.2-1.1-0.6-2.2-1.2-3.3c-0.6-1-1.5-1.9-2.6-2.5c-0.3-0.2-0.5-0.3-0.8-0.4c-0.3-0.1-0.5-0.2-0.9-0.3c-0.4-0.1-0.8-0.1-1.1-0.1
				c-0.4,0-0.9,0.2-1.3,0.5c-0.7,0.7-0.9,1.5-0.9,2.1c0,0.6,0,1.2,0.1,1.8c0,0.3,0.1,0.6,0.1,0.8c0,0.2,0,0.4,0,0.6
				c0,0.4-0.1,0.8-0.3,1.2c-0.3,0.8-0.9,1.4-1.6,2c-1.4,1.1-3.3,1.5-5.1,1.2c-1.8-0.3-3.6-1.1-4.8-2.5c-0.6-0.7-1-1.4-1.1-2.2
				c-0.1-0.8,0-1.7,0.2-2.7c0.2-1,0.6-2,0.8-3.1c0.2-1.1,0.2-2.4-0.1-3.6c-0.6-2.3-1.9-4.1-3-5.9c-1.1-1.7-2.2-3.4-2.6-5.2
				c-0.4-1.8,0-3.6,1-5.2c1-1.6,2.4-3,4-4.1c1.6-1.1,3.5-1.9,5.4-2.6c7.7-2.7,16.2-3,24.3-5.1c-8.2,1.3-16.7,1.2-24.8,3.7
				c-2,0.7-4,1.5-5.8,2.7c-1.8,1.2-3.4,2.7-4.5,4.6c-1.1,1.9-1.7,4.2-1.2,6.4c0.5,2.2,1.7,4.1,2.8,5.8c1.1,1.8,2.2,3.5,2.7,5.4
				c0.5,1.8-0.2,3.7-0.8,5.8c-0.3,1-0.5,2.2-0.3,3.4c0.2,1.2,0.8,2.3,1.6,3.2c1.6,1.7,3.7,2.8,6,3.1c2.3,0.3,4.7-0.2,6.6-1.6
				c0.9-0.7,1.7-1.6,2.2-2.8c0.2-0.6,0.4-1.2,0.4-1.8c0-0.3,0-0.6,0-0.9c0-0.3-0.1-0.5-0.1-0.8c-0.1-0.5-0.1-1-0.1-1.4
				c0-0.4,0.2-0.7,0.2-0.8c0,0,0.1-0.1,0.2-0.1c0.1,0,0.3,0,0.4,0c0.2,0,0.4,0.1,0.6,0.2c0.2,0.1,0.4,0.2,0.6,0.3
				c1.5,0.8,2.4,2.6,2.8,4.4c0.2,0.9,0.3,1.9,0.3,2.9c0,1.1,0,2.2,0.2,3.3c0.2,1.1,0.5,2.2,1,3.3c0.5,1.1,1.4,2,2.4,2.7
				c2,1.4,4.6,1.5,6.8,0.8c1.1-0.3,2.2-0.9,3.1-1.7c0.9-0.8,1.6-1.8,2-3c0.8-2.3,0.4-4.7-0.3-6.7c-0.8-2.1-1.8-3.9-2.4-5.7
				c-0.3-0.9-0.5-1.9-0.5-2.8c0.1-0.9,0.3-1.7,0.9-2.4c1.2-1.5,2.8-2.8,4.5-3.8c1.7-1,3.6-1.6,5.6-1.7c2.1-0.1,4.2-0.3,6.3-0.6
				c2.1-0.3,4.2-0.8,6.1-1.8c1-0.5,1.9-1,2.7-1.8c0.8-0.8,1.5-1.7,1.8-2.8c0.7-2.2,0.2-4.4-0.7-6.4
				C183.1,242.3,181.7,240.6,180.2,239.1z"/>
		</g>
		<path class="mouth-st1" d="M171.5,239.2c-14.2-5.1-31.2-0.1-40.5,3.2s-11.8,10.9-4.3,15.6c7.5,4.7-6.7,16.4,2.4,17.4
			c9,1.1,6.3-1.4,6.9-9.3c0.6-8,8.1-3.3,11.9,4.4s3.1,15.6,7.6,7.5c4.5-8.1-11.7-11.6,1.9-20.6c13.6-9-26.4-5.3-19.7-10.2
			C144.4,242.2,178.9,241.9,171.5,239.2z"/>
		<path d="M152,239.4c-0.4,5.6,14.6,3.4,15.9,0.2C169.7,235,152.4,233.8,152,239.4z"/>
	</g>
	<path class="mouth-st2" d="M150.6,267.6c-3.2,0.3-5.9,14.6,1.7,14S153.8,267.3,150.6,267.6z"/>
	<path class="mouth-st2" d="M129.4,264.8c-2.7,0.2-5.4,10.1,1,9.6C136.8,273.9,132.2,264.6,129.4,264.8z"/>
	<path class="mouth-st2" d="M167,253.4c1.7,0.9,15.9-1.7,13.3-6C178,243.5,165.3,252.5,167,253.4z"/>
</g>
</svg>
