<?xml version="1.0" encoding="utf-8"?>
<!-- Generator: Adobe Illustrator 26.0.3, SVG Export Plug-In . SVG Version: 6.00 Build 0)  -->
<svg version="1.1" id="Layer_1" xmlns="http://www.w3.org/2000/svg" xmlns:xlink="http://www.w3.org/1999/xlink" x="0px" y="0px"
	 viewBox="0 0 384 400" style="enable-background:new 0 0 384 400;" xml:space="preserve">
<g>
	<style type="text/css">
		.mouth-st0{fill:#000202;}
		.mouth-st1{fill:#000F0F;}
		.mouth-st2{opacity:0.7;fill:#FF2D92;}
		.mouth-st3{opacity:0.5;fill:#FFB5D8;}
		.mouth-st4{opacity:0.5;fill:#FFE8F3;}
	</style>
	<path class="mouth-st0" d="M170.4,247.7c-0.9,1.4-1.9,2.6-3.2,3.3c-1.3,0.7-2.9,1.1-4.5,1.1c-1.7,0.1-3.5-0.1-5.4-0.2
		c1.5,1.1,3.3,2,5.2,2.3c1,0.2,2,0.2,3,0.1c1-0.1,2.1-0.5,3-1c1.9-1,3.2-2.9,3.8-4.7c0.6-1.9,0.8-3.9,0.3-5.7
		C172,244.7,171.3,246.3,170.4,247.7z"/>
	<path class="mouth-st1" d="M162.5,234.5c-3.2,0-5.7,3-5.7,6.6c0,3.7,2.6,6.6,5.7,6.6s5.7-3,5.7-6.6C168.2,237.5,165.6,234.5,162.5,234.5z
		"/>
	<path class="mouth-st2" d="M166.1,224.4c-0.8-18-16-31.9-33.9-31.1c-18,0.8-31.9,16-31.1,33.9c0.8,18,16,31.9,33.9,31.1
		c7.3-0.3,14-3.1,19.3-7.4c0.6,0.1,1.1,0.1,1.7,0.1c7.1-0.3,12.6-6.3,12.3-13.4c-0.1-2.7-1-5.1-2.5-7.1
		C166.1,228.6,166.2,226.5,166.1,224.4z"/>
	<path class="mouth-st0" d="M154.6,251.9c0.1-0.1,0.2-0.1,0.3-0.2l-0.7,0.2C154.3,251.9,154.5,251.9,154.6,251.9z"/>
	<path class="mouth-st0" d="M165.8,230.6c1.4,2,2.1,4.5,2.2,6.9c0.1,2.4-0.5,4.8-1.8,6.8c-0.6,1-1.4,1.9-2.2,2.7c-0.9,0.8-1.8,1.5-2.9,2
		c-1,0.5-2.1,0.9-3.3,1c-0.6,0.1-1.1,0.1-1.7,0.2c-0.6,0-1.1-0.1-1.7-0.1l0,0c-0.2,0-0.5,0.1-0.6,0.2c-5.7,4.5-13,7-20.2,6.7
		c-3.6-0.1-7.2-0.7-10.5-2c-3.3-1.3-6.5-3.1-9.2-5.5c-2.7-2.3-5-5.1-6.8-8.2c-1.8-3.1-3-6.5-3.6-10c-0.6-3.5-0.6-7.1-0.1-10.6
		c0.6-3.5,1.8-6.9,3.5-10c1.7-3.1,4-5.9,6.7-8.3c2.7-2.4,5.8-4.3,9.1-5.6c3.3-1.3,6.9-2,10.5-2.1c3.6-0.2,7.2,0.4,10.7,1.5
		c6.9,2.2,13,6.9,17,13c2,3.1,3.5,6.5,4.3,10.1c0.5,1.8,0.6,3.7,0.9,5.5C166,226.8,166,228.7,165.8,230.6c0.3-1.8,0.5-3.7,0.6-5.6
		c-0.1-1.9-0.1-3.8-0.5-5.7c-0.6-3.7-1.9-7.4-3.8-10.8c-3.8-6.7-10.2-11.9-17.5-14.6c-7.3-2.7-15.7-2.6-23,0.1
		c-7.4,2.7-13.8,8.2-17.7,15c-1.9,3.4-3.3,7.2-4,11.1c-0.7,3.9-0.6,7.9,0.1,11.8c1.4,7.8,5.7,15,11.8,20c3,2.5,6.5,4.5,10.2,5.8
		c3.7,1.3,7.7,1.9,11.6,1.9c7.7,0,15.3-2.9,21.2-7.8c-0.1,0-0.3,0-0.4,0l0.7-0.2c-0.1,0.1-0.2,0.1-0.3,0.2c0.5,0,1,0,1.6,0
		c0.7-0.1,1.3-0.1,1.9-0.3c1.3-0.3,2.5-0.8,3.6-1.4c1.1-0.6,2.2-1.4,3.1-2.4c0.9-0.9,1.7-2,2.3-3.1c1.2-2.3,1.7-4.9,1.5-7.4
		C168.3,234.9,167.3,232.5,165.8,230.6z"/>
	
		<ellipse transform="matrix(0.6812 -0.7321 0.7321 0.6812 -119.5584 164.5081)" class="mouth-st3" cx="129.1" cy="219.5" rx="26.8" ry="21.5"/>
	
		<ellipse transform="matrix(0.852 -0.5235 0.5235 0.852 -92.4572 97.8903)" class="mouth-st4" cx="126.9" cy="212.5" rx="17.4" ry="15.7"/>
	
		<ellipse transform="matrix(0.9078 -0.4195 0.4195 0.9078 -91.0524 82.7002)" class="mouth-st4" cx="142.5" cy="248.4" rx="7.9" ry="5.4"/>
</g>
</svg>
