<?xml version="1.0" encoding="utf-8"?>
<!-- Generator: Adobe Illustrator 26.0.3, SVG Export Plug-In . SVG Version: 6.00 Build 0)  -->
<svg version="1.1" id="Layer_1" xmlns="http://www.w3.org/2000/svg" xmlns:xlink="http://www.w3.org/1999/xlink" x="0px" y="0px"
	 viewBox="0 0 384 400" style="enable-background:new 0 0 384 400;" xml:space="preserve">
<g>
	<style type="text/css">
		.mouth-st0{fill:#F33F2C;}
		.mouth-st1{fill:#D63827;}
		.mouth-st2{fill:#9E9E9E;}
		.mouth-st3{fill:#D6D6D6;}
	</style>
	<path d="M130.3,235.3v0.4c0,4.9,29,17.5,37.1,4C175.6,226.2,135.2,221.4,130.3,235.3z"/>
	<g>
		<path d="M162.3,233.7c-0.1,0-0.2,0-0.3-0.1c-4.5-1.3-9-2-13.4-1.9c-0.3,0-0.7,0.1-1,0.3c-0.9,0-2.9-0.3-3.6-0.4l-0.3-0.1
			c-4.6-1-8.9-2-14.5,1.9c-0.1,0.1-0.2,0.2-0.3,0.2c-0.4,0.4-10.3,10.6-8,20.1c1.2,5,5.4,8.7,12.5,11c1.7,0.5,3.2,0.7,4.6,0.7
			c8.2,0,11.3-8.3,13.5-14c1-2.6,2-5.2,3-6.2c4.5-4.2,8.4-7.8,8.7-8c0.6-0.5,0.8-1.3,0.6-2C163.6,234.5,163,233.9,162.3,233.7z
			 M151.7,242.2c-1.8,1.7-2.9,4.5-4.1,7.8c-3,8-5.5,13-13,10.8c-5.6-1.9-8.9-4.6-9.7-8c-1.6-6.8,5.7-14.9,6.8-16.1
			c4-2.7,6.8-2.1,11.1-1.1l0.3,0.1c1.4,0.3,4.6,0.9,6.1,0.3c3.4,0,6.3,0.4,8.5,0.9C156.1,238.2,154,240.2,151.7,242.2z"/>
		<path class="mouth-st0" d="M148.6,233.8c-0.1,0.1-0.1,0.1-0.2,0.2c-0.5,0.4-4.7-0.3-4.9-0.4c-4.6-1-8.2-1.9-13.1,1.5
			c0,0-19.6,20,3.6,27.7c14.3,4.4,14.4-14.6,19.1-19c4.6-4.2,8.5-7.8,8.7-8C161.3,235.6,155.8,233.7,148.6,233.8z"/>
		<path class="mouth-st1" d="M154.3,236.1c-1.6,1.2-3.5,1.8-5.3,2.5c0.1,1.3-0.3,2.6-1.1,3.8c-1.2,1.7-2.8,2.8-4.4,4
			c-1.5,1.1-2.3,2.5-3.3,4.1c-1,1.6-2.3,3-3.8,4.1c-2.6,1.9-5.9,2.8-9,2.4c-1.3-0.2-2.5-0.5-3.6-1.1c1.4,2.5,4.5,5,10.2,6.9
			c14.3,4.4,14.4-14.6,19.1-19c4.6-4.2,8.5-7.8,8.7-8c-0.3-0.1-2.4-0.8-5.6-1.3C155.6,235,155,235.6,154.3,236.1z"/>
		<path d="M132.5,243.8c-0.2,0.2-0.3,0.5-0.4,0.7c-0.5,0.9-0.9,1.9-1.1,2.9c-0.7,2.7,0.2,5.7,1.4,8.2c0.2,0.5,0.5,1,0.8,1.5
			c0.5,0.3,1,0.5,1.4,0.5c3.4,0.4,4.2-6.1,3.2-9.4C136.4,244.2,134.5,243.3,132.5,243.8z"/>
		<path d="M143.7,261.4c0,0-0.1,0-0.1,0c-0.6,0.1-1.1,0.4-1.4,0.9c-1,1.6-2.1,2.4-3.2,2.6c-1.3,0.2-2.4-0.6-2.4-0.6
			c-0.8-0.7-2.1-0.6-2.8,0.2c-0.4,0.4-1,0.8-1.3,0.7c-0.2-0.1-1-0.7-1.6-3.2c-0.5-2.1-0.4-3.8,0.4-5.1c0.6-0.9,1.4-1.4,1.8-1.5
			c0.3,0,0.7,0,1-0.1c2.4-1,4-3.5,3.7-6.1c-0.3-2.8-2.6-4.8-6.2-5.5c-1.7-0.3-4.1,1.1-5.8,2.3c-1.7,1.2-5.8,4.5-6.4,8.4
			c-1,6.1,0.5,12.6,3.9,16.6c2.5,2.9,5.9,4.5,9.8,4.5c0,0,0,0,0,0c8.9,0,11.7-8,12.9-11.4c0.2-0.7,0.1-1.4-0.3-2
			S144.4,261.3,143.7,261.4z M133,271.5C133,271.5,133,271.5,133,271.5c-2.7,0-4.9-1-6.6-3c-2.6-3-3.8-8.4-2.9-13.3
			c0.5-3.1,6.1-7,7.6-7.3c0.9,0.2,2.5,0.6,2.6,1.8c0.1,0.6-0.3,1.3-0.8,1.7c-0.8,0.1-1.6,0.4-2.3,0.8c-1.3,0.8-5.6,3.8-3.8,11
			c0.9,3.6,2.5,5.6,4.6,6.2c1.6,0.4,3.1-0.2,4-0.9c0.8,0.4,1.9,0.7,3.2,0.7C137.3,270.5,135.5,271.5,133,271.5z"/>
		<path class="mouth-st2" d="M135.2,266c0,0-4.3,4.8-6.4-3.3c-2.1-8.1,4.7-9.7,4.5-9.2c3-1.2,4.2-6.6-2-7.6c-1.8-0.3-9.1,4.6-9.8,9
			c-1.3,7.9,1.9,18.7,11.6,18.7c7.5,0,9.8-6.7,10.9-10.1c0,0-0.1,0-0.1,0C140.6,266.8,135.2,266,135.2,266z"/>
		<path class="mouth-st3" d="M127.7,249c-3.6-0.7-7.5,6.8-3.9,8.3C127.3,258.7,132.7,250,127.7,249z"/>
		<path class="mouth-st3" d="M128.7,269.6c-2.1,3.1,3.8,3.9,5.4,2C135.6,269.8,130.1,267.4,128.7,269.6z"/>
		<path d="M138.1,241.5c0.7-0.9,6.9-8,10.9-8.4c-1.7,0.1-6.4,0.3-6.4,0.3S138.4,239.5,138.1,241.5z"/>
	</g>
</g>
</svg>
