<?xml version="1.0" encoding="utf-8"?>
<!-- Generator: Adobe Illustrator 26.0.3, SVG Export Plug-In . SVG Version: 6.00 Build 0)  -->
<svg version="1.1" id="Layer_1" xmlns="http://www.w3.org/2000/svg" xmlns:xlink="http://www.w3.org/1999/xlink" x="0px" y="0px"
	 viewBox="0 0 384 400" style="enable-background:new 0 0 384 400;" xml:space="preserve">
<g>
	<style type="text/css">
		.mouth-st0{fill:#170300;}
		.mouth-st1{fill:#F5EFEA;}
		.mouth-st2{opacity:0.16;}
		.mouth-st3{fill:#47352C;}
		.mouth-st4{fill:#30241E;}
		.mouth-st5{fill:#AB2C2F;}
		.mouth-st6{fill:#E37A1F;}
	</style>
	<g>
		<path d="M173.1,231.6c-11.1-2.8-28.2,1.1-33.9,7.7c-2.2,2.5-2.8,5.4-1.6,8.2l1.1,2.7l2.7-1c2.9-1,6.3-1.2,8.7-1.2
			c0.7,0,1.4,0,2.1,0l0.1,0l0.1,0c3.6-0.2,6.9,0,10.1,0.6c2.7,0.5,5.4,1.1,7.8,1.7l1,0.2l0.9-0.4c6.1-2.6,10.6-5.2,10.8-5.4l1.9-1.1
			l-0.5-2.1C183.6,238.1,181.1,233.6,173.1,231.6z M170.8,244.2c-2.3-0.6-4.8-1.1-7.3-1.6h0c-2.8-0.5-5.6-0.7-8.6-0.7
			c-0.9,0-1.7,0-2.6,0.1c-0.7,0-1.5,0-2.2,0c-1.5,0-3.3,0-5.3,0.3c4.9-4,18.1-7,26.9-4.8c2.9,0.7,4.9,1.9,6,3.5
			C176.1,241.7,173.7,243,170.8,244.2z"/>
		<path class="mouth-st0" d="M140.4,246.3c3.1-1.1,6.7-1.4,9.8-1.3c0.7,0,1.4,0,2.1,0c3.5-0.2,7.1,0,10.7,0.6c2.7,0.5,5.4,1.1,8.1,1.8
			c6-2.5,10.4-5.2,10.4-5.2C177.9,226.4,135.9,235.4,140.4,246.3z"/>
		<path class="mouth-st1" d="M171.9,234.4c-13.2-3-34.8,3.9-31.5,11.9c3.1-1.1,6.7-1.4,9.8-1.3c0.7,0,1.4,0,2.1,0c3.5-0.2,7.1,0,10.7,0.6
			c2.7,0.5,5.4,1.1,8.1,1.8c0.7-0.3,1.4-0.6,2.1-0.9C172.1,242.5,171.6,238.5,171.9,234.4z"/>
		<path class="mouth-st2" d="M171.9,234.4c-12-2.7-30.9,2.7-31.8,9.7c4.2-1.8,9.2-2.6,13.9-3.1c4.2-1.3,8.5-2.2,13-1.6
			c0.9,0.1,1.7,0.9,1.9,1.8c1.1,0.3,2.2,0.6,3.3,1C171.8,239.6,171.7,237,171.9,234.4z"/>
		<path d="M160,231.9l-0.3,13.2c0.9,0.1,1.9,0.2,2.8,0.4l-0.2-12L160,231.9z"/>
		<path d="M147.4,234.3l-0.3,10.7c0.9-0.1,1.8-0.1,2.7-0.1l-0.2-9.1L147.4,234.3z"/>
		<g>
			<g>
				<path d="M225.4,234.7c-1.7-1.4-6.8-5.7-40.6-2.5c-0.1,0-0.2,0-0.3,0c-5,0.9-9.4,1.9-13.6,3c-1.1,0.3-2.1,0.6-3,0.9
					c-1.3,0.4-2.2,1.7-2.2,3c0,2.5,1.9,7,4.1,7.9c0.2,0.1,0.4,0.1,0.6,0.2c6.6,3.9,31.7,18.5,42.9,18.5c0.4,0,0.8,0,1.2-0.1
					c6.3-0.7,11.9-6.2,14.2-14C230.9,244.7,229.6,238.2,225.4,234.7z M222.8,249.9c-1.3,4.4-4.6,9-8.9,9.5
					c-6.8,0.8-28.5-10.6-40.9-18.1c3.9-1.1,8-2,12.6-2.8c29.6-2.8,35,0.3,35.8,1C223.6,241.3,224.1,245.4,222.8,249.9z"/>
				<path class="mouth-st3" d="M223.4,237.1c-4.9-4.2-25.3-3-38.3-1.7c-4.5,0.8-8.9,1.8-13.3,3c-1,0.3-1.9,0.6-2.9,0.9
					c0,2.6,2.7,6,1.9,4.6c0,0,32.9,20,43.4,18.8C224.7,261.3,230.8,243.3,223.4,237.1z"/>
				<path class="mouth-st4" d="M168.9,239.2c0,2.6,2.7,6,1.9,4.6c0,0,1.1,0.7,3,1.8c-0.1-1.4-0.1-2.8,0-4.2c0.1-1.3,0.4-2.5,0.7-3.7
					c-0.9,0.2-1.8,0.5-2.7,0.7C170.8,238.6,169.9,238.9,168.9,239.2z"/>
				<path class="mouth-st4" d="M178.3,241.5c-0.3,2.4,0,4.7,0.6,6.9c0.6,0.4,1.3,0.7,2,1.1c0-3.7,1.1-7.4,2.6-10.7
					c0.5-1.2,1.2-2.4,1.8-3.5c-2,0.2-3.8,0.4-5.3,0.6C179.2,237.6,178.5,239.5,178.3,241.5z"/>
				<path class="mouth-st4" d="M193,246.4c-0.8,2.8-1.4,5.6-1.7,8.5c1.2,0.6,2.5,1.2,3.7,1.8c0.1-3.1,0.5-6.1,1-9.1
					c0.8-4.5,2-9.1,3.9-13.4c-0.6,0-1.2,0-1.8,0.1C196.1,238.2,194.3,242.2,193,246.4z"/>
				<path class="mouth-st5" d="M223.4,237.1c-1.7-1.4-5.1-2.2-9.4-2.6c-2,3.5-3.4,7.6-4.4,11.1c-1.6,5.5-2.1,10.5-0.6,15.6
					c0.1,0.3,0.2,0.6,0.3,0.9c1.9,0.4,3.6,0.6,4.9,0.5C224.7,261.3,230.8,243.3,223.4,237.1z"/>
				<path class="mouth-st6" d="M219.8,237.8c-1.2,2.9-2.2,6.2-2.9,9c-1.2,4.4-1.8,8.5-1.5,12.4c0,0.2,0,0.5,0.1,0.7
					c0.9,0.2,1.7,0.3,2.3,0.1c5.2-1.5,9.4-16.1,6.3-20.6C223.5,238.3,221.9,237.8,219.8,237.8z"/>
				<path class="mouth-st2" d="M169.8,238.9c-0.2,0.1-0.4,0.1-0.5,0.2c-0.6,2.1,1.5,4.7,1.5,4.7s32.9,20,43.4,18.8c3.7-0.4,6.8-2.9,9-6.2
					c-6.5-2-12.7-4.7-19.2-6.7C192.7,246.1,180.3,244.6,169.8,238.9z"/>
			</g>
			<path d="M167.5,240.9c-0.2-0.2-0.4-0.3-0.8-0.5c-0.3,0.3-0.5,0.6-0.5,0.9c-0.1,0.3,0,0.6,0,0.8c0.1,0.2,0.2,0.5,0.5,0.6
				c0.2,0.2,0.5,0.3,1,0.3c0.2-0.4,0.3-0.7,0.3-0.9c0-0.3,0-0.5-0.1-0.7C167.8,241.3,167.7,241.1,167.5,240.9z"/>
		</g>
	</g>
</g>
</svg>
