<?xml version="1.0" encoding="utf-8"?>
<!-- Generator: Adobe Illustrator 26.0.3, SVG Export Plug-In . SVG Version: 6.00 Build 0)  -->
<svg version="1.1" id="Layer_1" xmlns="http://www.w3.org/2000/svg" xmlns:xlink="http://www.w3.org/1999/xlink" x="0px" y="0px"
	 viewBox="0 0 384 400" style="enable-background:new 0 0 384 400;" xml:space="preserve">
<g>
	<style type="text/css">
		.mouth-st0{opacity:0.16;}
		.mouth-st1{fill:#E01A00;}
		.mouth-st2{fill:#C91700;}
		.mouth-st3{fill:#FDF0EF;}
	</style>
	<path class="mouth-st0" d="M149.2,259.4c10.7-1.2,23-17.7,23-17.7l-42.5,2.8C129.7,244.4,138.3,260.7,149.2,259.4z"/>
	<path d="M169.9,240.6l-42.7-1.6c-0.5,0-1,0.2-1.3,0.7c-0.3,0.5-0.3,1-0.1,1.5c0.4,0.7,8.5,15.8,19.5,15.8c0.5,0,1,0,1.5-0.1
		c11-1.2,23.6-13.3,24.1-13.8c0.4-0.4,0.6-1.1,0.4-1.6C171,241,170.5,240.7,169.9,240.6z M146.4,254c-7.4,0.9-13.8-7.6-16.6-11.9
		l36.2,1.4C161.8,247,153.6,253.2,146.4,254z"/>
	<path class="mouth-st1" d="M146.6,255.5c10.7-1.2,23.2-13.4,23.2-13.4l-42.7-1.6C127.2,240.5,135.8,256.8,146.6,255.5z"/>
	<g>
		<path class="mouth-st2" d="M146.6,255.5c10.7-1.2,23.2-13.4,23.2-13.4l-42.7-1.6C127.2,240.5,135.8,256.8,146.6,255.5z M133.7,244.6
			c0.8-0.5,1.8-0.5,2.7-0.4c0.4,0,0.8,0.1,1.2,0.1c0.2,0,0.3,0,0.5,0.1c0.1,0,0.6,0,0.2,0c0.6,0,1.2,0.4,1.3,1.1c0,0.1,0,0.2,0,0.3
			c0.2,0.1,0.3,0.2,0.5,0.3c0.4,0.4,0.8,0.7,1.3,0.8c0.6,0.2,1.2,0.3,1.9,0.3c1.4,0.1,2.7-0.3,4-0.7c1.4-0.4,2.9-0.9,4.3-1.3
			c2.1-0.7,4.2-1.1,6.3-0.5c0.9,0.3,1.8,0.8,1.8,1.9c0,0.9-0.5,1.6-1.1,2.2c-1.1,1-2.5,1.7-3.9,2.3c-2.3,1.1-4.8,1.5-7.3,1.7
			c-2.5,0.1-5,0-7.3-0.9c-1-0.4-2-0.9-2.9-1.4c-0.8-0.4-1.5-0.8-2.3-1.3c-0.7-0.5-1.5-1.1-1.8-2
			C132.6,246.2,132.8,245.1,133.7,244.6z"/>
	</g>
	<path d="M171.1,239.2c-2.3-0.2-5.2-3.1-7.7-5.6c-2.2-2.2-4.1-4.1-5.9-4.7c-3.2-1.1-7.3,2.2-10.3,4.6c-0.4,0.4-1,0.8-1.4,1.1
		c-0.1-0.1-0.1-0.2-0.2-0.2c-1.2-1.7-3.4-4.9-8-5c-6.2-0.2-11.3,9.4-11.8,10.5c-0.2,0.4-0.2,0.8-0.1,1.2s0.4,0.7,0.8,0.9
		c0.2,0.1,5.6,2.3,9.9,2c1.7-0.2,2.6,0.4,3.8,1.1c0.9,0.5,2,1.2,3.3,1.4c0.3,0,0.5,0.1,0.8,0.1c1.8,0,3.6-0.9,5.2-1.7
		c0.9-0.4,1.8-0.9,2.5-1c6.5,1,18.7-1.4,19.2-1.5c0.7-0.2,1.2-0.8,1.2-1.6C172.5,239.9,171.9,239.3,171.1,239.2z M152.4,240.7
		c-0.1,0-0.3,0-0.4,0c-1.2,0.1-2.4,0.7-3.7,1.4c-1.4,0.7-3,1.5-4.1,1.3c-0.8-0.1-1.5-0.5-2.3-1c-1.2-0.7-2.6-1.5-4.8-1.5
		c-0.3,0-0.6,0-0.9,0c-2.3,0.2-5.2-0.6-6.9-1.2c1.8-2.9,5.2-7.4,8.2-7.4c3.1,0.1,4.6,2.2,5.6,3.7c0.7,1,1.2,1.7,2.2,1.9
		c1,0.1,1.8-0.5,3.7-2.1c1.9-1.5,5.8-4.7,7.5-4.1c1.2,0.4,3,2.2,4.8,4c1.5,1.5,3.1,3.1,4.7,4.3C161.9,240.7,156,241.3,152.4,240.7z"
		/>
	<path class="mouth-st1" d="M145.6,236.5c-1.1-0.1-2.6-5.1-8.1-5.2c-5.5-0.1-10.4,9.3-10.4,9.3s5.2,2.1,9.2,1.8c3.7-0.4,4.8,2.1,7.5,2.5
		c2.7,0.4,6-2.5,8.2-2.7c6.3,1.1,18.9-1.5,18.9-1.5c-4.9-0.4-10.3-9.1-13.9-10.4C153.5,229.1,146.7,236.6,145.6,236.5z"/>
	<path class="mouth-st2" d="M160.7,237c-3.1,1.6-6.7,2.4-10.2,2.8c-0.2,0-0.3,0-0.5,0c-0.6,0.2-1.2,0.5-1.7,0.8c-0.5,0.2-1.2,0.7-1.8,1
		c-0.7,0.3-1.4,0.6-2.1,0.6c-0.8,0-1.4-0.2-2.1-0.6c-0.6-0.4-1.2-0.9-1.9-1c-0.4-0.1-0.6-0.3-0.8-0.5c-0.4,0-0.7,0-1.1,0
		c-3.6-0.2-7.2-0.1-10.8-0.5c-0.4,0.6-0.6,1-0.6,1s5.2,2.1,9.2,1.8c3.7-0.4,4.8,2.1,7.5,2.5c2.7,0.4,6-2.5,8.2-2.7
		c6.3,1.1,18.9-1.5,18.9-1.5c-2.8-0.2-4.7-2.4-8.2-5.3C162,236.2,161.7,236.5,160.7,237z"/>
	<path class="mouth-st3" d="M133.1,235.5c1,2.2,6.9,0.1,6-1.8C138.3,231.7,132.3,233.6,133.1,235.5z"/>
	<path class="mouth-st3" d="M133.7,246.8c-1.1,1.5,5.9,4.8,6.9,3.2C141.5,248.4,135.2,244.7,133.7,246.8z"/>
</g>
</svg>
