<?xml version="1.0" encoding="utf-8"?>
<!-- Generator: Adobe Illustrator 26.0.3, SVG Export Plug-In . SVG Version: 6.00 Build 0)  -->
<svg version="1.1" id="Layer_1" xmlns="http://www.w3.org/2000/svg" xmlns:xlink="http://www.w3.org/1999/xlink" x="0px" y="0px"
	 viewBox="0 0 384 400" style="enable-background:new 0 0 384 400;" xml:space="preserve">
<g>
	<style type="text/css">
		.mouth-st0{fill:#FFFFFF;}
		.mouth-st1{fill:#AB2C2F;}
		.mouth-st2{fill:#E37A1F;}
		.mouth-st3{fill:#E39D1F;}
		.mouth-st4{opacity:0.16;}
	</style>
	<path d="M187.4,249.9C187.4,249.9,187.4,249.9,187.4,249.9C187.4,249.9,187.4,249.9,187.4,249.9z"/>
	<path d="M204.2,246.6C204.2,246.6,204.2,246.6,204.2,246.6C204.2,246.6,204.2,246.6,204.2,246.6z"/>
	<path d="M187.4,249.9c0.3,0.3,14,17.2,16.8-3.3C204.1,247.5,201.7,260.1,187.4,249.9z"/>
	<g>
		<path d="M227.8,227.1c-6.6-1.2-24.4,10.4-30.1,14.2c-2.6,1-3.3,2.6-3.4,3.8c-0.2,2.8,2.8,4.8,3.7,5.3l0.5,0.3l0.6,0
			c1.2,0,3.6,0.1,6.6,0.1c8.4,0,21.5-0.5,25.9-3.4c3.4-2.2,5-6.8,4.1-11.6C234.8,231.2,231.7,227.8,227.8,227.1z M228.9,243.3
			c-3.5,2.3-19.2,2.7-28.8,2.5l0.2-0.1c10.3-7,23.4-14.2,26.7-13.6c2.1,0.4,3.4,2.7,3.9,4.9C231.3,239,231,241.9,228.9,243.3z"/>
		<path class="mouth-st0" d="M227.4,229.6c-6.2-1.1-28.5,14-28.5,14c-4.8,1.7,0.4,4.7,0.4,4.7s25.4,0.8,31-2.9
			C235.9,241.7,233.6,230.6,227.4,229.6z"/>
		<path class="mouth-st1" d="M227.4,229.6c-1.4-0.2-3.6,0.3-6.2,1.4c0,2.4,0.5,4.9,1.1,7c0.9,3.3,2.2,6,4.7,8.2c0.1,0.1,0.3,0.3,0.5,0.4
			c1.2-0.3,2.3-0.7,3-1.2C235.9,241.7,233.6,230.6,227.4,229.6z"/>
		<path class="mouth-st2" d="M228.5,230.5c-0.7-0.3-1.8-0.1-3,0.5c0.2,1.8,0.7,3.9,1.2,5.5c0.8,2.6,1.7,4.9,3.1,6.8
			c0.1,0.1,0.2,0.2,0.3,0.3c0.6-0.1,1.1-0.3,1.4-0.6C234,240.7,231.8,231.9,228.5,230.5z"/>
		<path class="mouth-st3" d="M205.1,239.6c-3.6,2.3-6.2,4-6.2,4c-4.8,1.7,0.4,4.7,0.4,4.7s3.3,0.1,7.8,0.1c-0.7-1.5-1.2-3-1.5-4.6
			C205.3,242.3,205.2,240.9,205.1,239.6z"/>
		<path class="mouth-st4" d="M196.8,245.5c0.1,1.4,2.4,2.7,2.4,2.7s25.4,0.8,31-2.9c2-1.3,3-3.5,3.2-5.8c-4.4,0.9-8.8,1.3-13.2,2.1
			C212.5,243.1,204.8,245.5,196.8,245.5z"/>
	</g>
	<path d="M195.8,246.6c-0.4-0.8-0.6-1.7-0.5-2.5c0.1-0.9,0.3-1.8,0.6-2.7c0.3-0.9,0.8-1.9,1.2-2.9c-1.1,0.5-1.9,1.3-2.6,2.2
		c-0.7,0.9-1.2,2.1-1.3,3.3c-0.1,1.3,0.4,2.6,1.2,3.5c0.4,0.5,0.9,0.8,1.4,1.1c0.5,0.3,1.1,0.5,1.6,0.6c-0.3-0.5-0.7-0.9-1-1.3
		C196.3,247.5,196,247.1,195.8,246.6z"/>
</g>
</svg>
